M48
;GenerationSoftware,Autodesk,EAGLE,9.6.2*%
;CreationDate,2021-12-09T12:54:19Z*%
FMAT,2
ICI,OFF
METRIC,TZ,000.000
T5C0.350
T4C0.813
T3C1.000
T2C1.016
T1C3.500
%
G90
M71
T1
X9525Y52705
X33020Y10795
X24130Y59690
T2
X12065Y11430
X2540Y9525
X29210Y29845
X26670Y29845
X29210Y32385
X26670Y32385
X29210Y34925
X26670Y34925
X3810Y38100
X5080Y9525
T3
X3810Y32385
X3810Y34925
X2540Y4445
X5080Y4445
X30480Y41275
X30480Y43815
X30480Y46355
X30480Y48895
X30480Y51435
X30480Y53975
X30480Y56515
X30480Y59055
T4
X15875Y57150
X15875Y54610
X2464Y61316
X8966Y61316
X8966Y56794
X2464Y56794
T5
X13335Y32385
X13335Y39370
X19685Y8890
X11430Y31750
X11430Y1394
X7620Y12700
X6350Y12700
X24765Y1905
X19050Y10160
X23495Y10160
X24130Y24765
X24130Y14605
X4445Y55880
X6350Y29210
X14605Y33020
X15875Y31750
X8255Y19050
X20320Y36830
X18415Y31115
X18415Y29845
X19685Y32385
X20955Y29845
X19885Y16510
X16510Y17145
X19685Y20320
X16580Y18345
X20955Y28575
X12700Y28575
X26670Y40005
X24765Y8255
X19685Y38735
X12700Y40640
X10160Y30480
X10795Y17780
X30480Y27940
X20320Y59055
X20320Y52705
X8255Y46990
X19050Y48260
X26035Y6350
M30