G04 EAGLE Gerber RS-274X export*
G75*
%MOMM*%
%FSLAX34Y34*%
%LPD*%
%INTop Layer*%
%IPPOS*%
%AMOC8*
5,1,8,0,0,1.08239X$1,22.5*%
G01*
%ADD10C,0.000000*%
%ADD11C,1.108000*%
%ADD12R,2.540000X1.270000*%
%ADD13C,0.304800*%


D10*
X38100Y127000D02*
X339600Y127000D01*
X339600Y393600D01*
X38100Y393600D01*
X38100Y127000D01*
D11*
X159560Y304800D02*
X170640Y304800D01*
X170640Y292100D02*
X159560Y292100D01*
X159560Y279400D02*
X170640Y279400D01*
X170640Y266700D02*
X159560Y266700D01*
X159560Y254000D02*
X170640Y254000D01*
X170640Y241300D02*
X159560Y241300D01*
X159560Y228600D02*
X170640Y228600D01*
X170640Y215900D02*
X159560Y215900D01*
D12*
X63500Y342900D03*
X63500Y317500D03*
X63500Y292100D03*
X63500Y266700D03*
X63500Y241300D03*
X63500Y190500D03*
X63500Y215900D03*
X63500Y165100D03*
D13*
X139700Y304800D02*
X165100Y304800D01*
X101600Y342900D02*
X63500Y342900D01*
X101600Y342900D02*
X139700Y304800D01*
X127000Y292100D02*
X165100Y292100D01*
X127000Y292100D02*
X101600Y317500D01*
X63500Y317500D01*
X114300Y241300D02*
X165100Y241300D01*
X88900Y215900D02*
X63500Y215900D01*
X88900Y215900D02*
X114300Y241300D01*
X139700Y215900D02*
X165100Y215900D01*
X139700Y215900D02*
X88900Y165100D01*
X63500Y165100D01*
X63500Y292100D02*
X101600Y292100D01*
X114300Y279400D01*
X165100Y279400D01*
X88900Y241300D02*
X63500Y241300D01*
X88900Y241300D02*
X101600Y254000D01*
X165100Y254000D01*
X88900Y190500D02*
X63500Y190500D01*
X88900Y190500D02*
X127000Y228600D01*
X165100Y228600D01*
X165100Y266700D02*
X63500Y266700D01*
M02*
