M48
;GenerationSoftware,Autodesk,EAGLE,9.6.2*%
;CreationDate,2021-12-09T13:02:56Z*%
FMAT,2
ICI,OFF
METRIC,TZ,000.000
T3C0.350
T2C0.600
T1C1.016
%
G90
M71
T1
X6985Y39370
X4445Y3810
X6985Y6350
X4445Y6350
X6985Y8890
X4445Y8890
X6985Y11430
X4445Y11430
X6985Y13970
X4445Y13970
X6985Y16510
X4445Y16510
X6985Y19050
X4445Y19050
X6985Y21590
X4445Y21590
X6985Y24130
X4445Y52070
X6985Y52070
X4445Y49530
X6985Y49530
X4445Y46990
X6985Y46990
X4445Y44450
X6985Y44450
X4445Y41910
X6985Y41910
X4445Y39370
X6985Y3810
X4445Y36830
X6985Y36830
X4445Y34290
X6985Y34290
X4445Y31750
X6985Y31750
X4445Y29210
X6985Y29210
X4445Y26670
X6985Y26670
X4445Y24130
T2
X22225Y3810
X22225Y5080
X22225Y6350
X22225Y7620
X22225Y8890
X22225Y10160
X22225Y11430
X22225Y12700
T3
X26670Y8890
X25400Y10160
X10160Y39370
X13335Y44450
X12065Y43180
X13970Y39370
X24130Y26670
X26670Y50165
X10795Y4445
M30