G04 EAGLE Gerber RS-274X export*
G75*
%MOMM*%
%FSLAX34Y34*%
%LPD*%
%INSMD-Paste Oberseite*%
%IPPOS*%
%AMOC8*
5,1,8,0,0,1.08239X$1,22.5*%
G01*
%ADD10C,0.304800*%
%ADD11R,1.500000X1.300000*%
%ADD12R,1.150000X1.150000*%
%ADD13R,1.300000X1.500000*%
%ADD14R,1.200000X1.200000*%


D10*
X-19050Y0D02*
X396750Y0D01*
X396750Y577750D01*
X-19050Y577750D01*
X-19050Y0D01*
D11*
X184150Y365100D03*
X184150Y346100D03*
D12*
X215900Y495300D03*
X215900Y469900D03*
X215900Y444500D03*
X215900Y419100D03*
X215900Y393700D03*
X215900Y368300D03*
X215900Y342900D03*
X241300Y317500D03*
X266700Y317500D03*
X292100Y317500D03*
X317500Y317500D03*
X342900Y317500D03*
X368300Y342900D03*
X368300Y368300D03*
X368300Y393700D03*
X368300Y419100D03*
X368300Y444500D03*
X368300Y469900D03*
X368300Y495300D03*
X342900Y520700D03*
X317500Y520700D03*
X292100Y520700D03*
X266700Y520700D03*
X241300Y520700D03*
D13*
X161950Y495300D03*
X180950Y495300D03*
X161950Y469900D03*
X180950Y469900D03*
X161950Y444500D03*
X180950Y444500D03*
X163220Y419100D03*
X182220Y419100D03*
X161950Y393700D03*
X180950Y393700D03*
X244500Y285750D03*
X263500Y285750D03*
D14*
X175600Y527050D03*
X154600Y527050D03*
D13*
X130150Y527050D03*
X111150Y527050D03*
D11*
X184150Y111150D03*
X184150Y130150D03*
D14*
X169250Y25400D03*
X148250Y25400D03*
D13*
X123800Y25400D03*
X104800Y25400D03*
M02*
