G04 EAGLE Gerber RS-274X export*
G75*
%MOMM*%
%FSLAX34Y34*%
%LPD*%
%INSolderstop Top*%
%IPPOS*%
%AMOC8*
5,1,8,0,0,1.08239X$1,22.5*%
G01*
%ADD10C,0.304800*%
%ADD11R,1.703200X1.503200*%
%ADD12R,1.353200X1.353200*%
%ADD13R,1.503200X1.703200*%
%ADD14R,1.403200X1.403200*%
%ADD15C,1.311200*%
%ADD16P,1.869504X8X292.500000*%
%ADD17C,0.959600*%


D10*
X-19050Y0D02*
X396750Y0D01*
X396750Y577750D01*
X-19050Y577750D01*
X-19050Y0D01*
D11*
X184150Y365100D03*
X184150Y346100D03*
D12*
X215900Y495300D03*
X215900Y469900D03*
X215900Y444500D03*
X215900Y419100D03*
X215900Y393700D03*
X215900Y368300D03*
X215900Y342900D03*
X241300Y317500D03*
X266700Y317500D03*
X292100Y317500D03*
X317500Y317500D03*
X342900Y317500D03*
X368300Y342900D03*
X368300Y368300D03*
X368300Y393700D03*
X368300Y419100D03*
X368300Y444500D03*
X368300Y469900D03*
X368300Y495300D03*
X342900Y520700D03*
X317500Y520700D03*
X292100Y520700D03*
X266700Y520700D03*
X241300Y520700D03*
D13*
X161950Y495300D03*
X180950Y495300D03*
X161950Y469900D03*
X180950Y469900D03*
X161950Y444500D03*
X180950Y444500D03*
X163220Y419100D03*
X182220Y419100D03*
X161950Y393700D03*
X180950Y393700D03*
X244500Y285750D03*
X263500Y285750D03*
D14*
X175600Y527050D03*
X154600Y527050D03*
D13*
X130150Y527050D03*
X111150Y527050D03*
D11*
X184150Y111150D03*
X184150Y130150D03*
D15*
X216710Y127000D02*
X227790Y127000D01*
X227790Y114300D02*
X216710Y114300D01*
X216710Y101600D02*
X227790Y101600D01*
X227790Y88900D02*
X216710Y88900D01*
X216710Y76200D02*
X227790Y76200D01*
X227790Y63500D02*
X216710Y63500D01*
X216710Y50800D02*
X227790Y50800D01*
X227790Y38100D02*
X216710Y38100D01*
D16*
X44450Y520700D03*
X69850Y520700D03*
X44450Y495300D03*
X69850Y495300D03*
X44450Y469900D03*
X69850Y469900D03*
X44450Y444500D03*
X69850Y444500D03*
X44450Y419100D03*
X69850Y419100D03*
X44450Y393700D03*
X69850Y393700D03*
X44450Y368300D03*
X69850Y368300D03*
X44450Y342900D03*
X69850Y342900D03*
X44450Y317500D03*
X69850Y317500D03*
X44450Y292100D03*
X69850Y292100D03*
X44450Y266700D03*
X69850Y266700D03*
X44450Y241300D03*
X69850Y241300D03*
X44450Y215900D03*
X69850Y215900D03*
X44450Y190500D03*
X69850Y190500D03*
X44450Y165100D03*
X69850Y165100D03*
X44450Y139700D03*
X69850Y139700D03*
X44450Y114300D03*
X69850Y114300D03*
X44450Y88900D03*
X69850Y88900D03*
X44450Y63500D03*
X69850Y63500D03*
X44450Y38100D03*
X69850Y38100D03*
D14*
X169250Y25400D03*
X148250Y25400D03*
D13*
X123800Y25400D03*
X104800Y25400D03*
D17*
X107950Y44450D03*
X266700Y501650D03*
X241300Y266700D03*
X139700Y393700D03*
X120650Y431800D03*
X133350Y444500D03*
X101600Y393700D03*
X254000Y101600D03*
X266700Y88900D03*
M02*
