 0
SECTION
 2
HEADER
 0
ENDSEC
 0
SECTION
 2
TABLES
 0
ENDSEC
 0
SECTION
 2
BLOCKS
0
BLOCK
70
0
2
UDFN4_1X1_ONS
10
0
20
0
30
0
999
##### Poly 5 ####
0
POLYLINE
5
36
70
1
8
6
6
CONTINUOUS
66
1
10
0
20
0
30
0
39
.024
0
VERTEX
8
6
6
CONTINUOUS
 10
-.0315
 20
.0168
 30
0
0
VERTEX
8
6
6
CONTINUOUS
 10
-.0315
 20
.0088
 30
0
0
VERTEX
8
6
6
CONTINUOUS
 10
-.01459
 20
.0088
 30
0
0
VERTEX
8
6
6
CONTINUOUS
 10
-.0075
 20
.01388
 30
0
0
VERTEX
8
6
6
CONTINUOUS
 10
-.0075
 20
.0168
 30
0
0
SEQEND
999
##### Poly 6 ####
0
POLYLINE
5
36
70
1
8
6
6
CONTINUOUS
66
1
10
0
20
0
30
0
39
.024
0
VERTEX
8
6
6
CONTINUOUS
 10
-.0315
 20
-.0088
 30
0
0
VERTEX
8
6
6
CONTINUOUS
 10
-.0315
 20
-.0168
 30
0
0
VERTEX
8
6
6
CONTINUOUS
 10
-.0075
 20
-.0168
 30
0
0
VERTEX
8
6
6
CONTINUOUS
 10
-.0075
 20
-.01388
 30
0
0
VERTEX
8
6
6
CONTINUOUS
 10
-.01459
 20
-.0088
 30
0
0
SEQEND
999
##### Poly 7 ####
0
POLYLINE
5
36
70
1
8
6
6
CONTINUOUS
66
1
10
0
20
0
30
0
39
.024
0
VERTEX
8
6
6
CONTINUOUS
 10
.0315
 20
-.0088
 30
0
0
VERTEX
8
6
6
CONTINUOUS
 10
.0315
 20
-.0168
 30
0
0
VERTEX
8
6
6
CONTINUOUS
 10
.0075
 20
-.0168
 30
0
0
VERTEX
8
6
6
CONTINUOUS
 10
.0075
 20
-.01388
 30
0
0
VERTEX
8
6
6
CONTINUOUS
 10
.01459
 20
-.0088
 30
0
0
SEQEND
999
##### Poly 8 ####
0
POLYLINE
5
36
70
1
8
6
6
CONTINUOUS
66
1
10
0
20
0
30
0
39
.024
0
VERTEX
8
6
6
CONTINUOUS
 10
.0315
 20
.0168
 30
0
0
VERTEX
8
6
6
CONTINUOUS
 10
.0315
 20
.0088
 30
0
0
VERTEX
8
6
6
CONTINUOUS
 10
.01459
 20
.0088
 30
0
0
VERTEX
8
6
6
CONTINUOUS
 10
.0075
 20
.01388
 30
0
0
VERTEX
8
6
6
CONTINUOUS
 10
.0075
 20
.0168
 30
0
0
SEQEND
999
##### Poly 9 ####
0
POLYLINE
5
36
70
1
8
3
6
CONTINUOUS
66
1
10
0
20
0
30
0
39
.024
0
VERTEX
8
3
6
CONTINUOUS
 10
-.0315
 20
.0168
 30
0
0
VERTEX
8
3
6
CONTINUOUS
 10
-.0315
 20
.0088
 30
0
0
VERTEX
8
3
6
CONTINUOUS
 10
-.01459
 20
.0088
 30
0
0
VERTEX
8
3
6
CONTINUOUS
 10
-.0075
 20
.01388
 30
0
0
VERTEX
8
3
6
CONTINUOUS
 10
-.0075
 20
.0168
 30
0
0
SEQEND
999
##### Poly 10 ####
0
POLYLINE
5
36
70
1
8
3
6
CONTINUOUS
66
1
10
0
20
0
30
0
39
.024
0
VERTEX
8
3
6
CONTINUOUS
 10
-.0315
 20
-.0088
 30
0
0
VERTEX
8
3
6
CONTINUOUS
 10
-.0315
 20
-.0168
 30
0
0
VERTEX
8
3
6
CONTINUOUS
 10
-.0075
 20
-.0168
 30
0
0
VERTEX
8
3
6
CONTINUOUS
 10
-.0075
 20
-.01388
 30
0
0
VERTEX
8
3
6
CONTINUOUS
 10
-.01459
 20
-.0088
 30
0
0
SEQEND
999
##### Poly 11 ####
0
POLYLINE
5
36
70
1
8
3
6
CONTINUOUS
66
1
10
0
20
0
30
0
39
.024
0
VERTEX
8
3
6
CONTINUOUS
 10
.0315
 20
-.0088
 30
0
0
VERTEX
8
3
6
CONTINUOUS
 10
.0315
 20
-.0168
 30
0
0
VERTEX
8
3
6
CONTINUOUS
 10
.0075
 20
-.0168
 30
0
0
VERTEX
8
3
6
CONTINUOUS
 10
.0075
 20
-.01388
 30
0
0
VERTEX
8
3
6
CONTINUOUS
 10
.01459
 20
-.0088
 30
0
0
SEQEND
999
##### Poly 12 ####
0
POLYLINE
5
36
70
1
8
3
6
CONTINUOUS
66
1
10
0
20
0
30
0
39
.024
0
VERTEX
8
3
6
CONTINUOUS
 10
.0315
 20
.0168
 30
0
0
VERTEX
8
3
6
CONTINUOUS
 10
.0315
 20
.0088
 30
0
0
VERTEX
8
3
6
CONTINUOUS
 10
.01459
 20
.0088
 30
0
0
VERTEX
8
3
6
CONTINUOUS
 10
.0075
 20
.01388
 30
0
0
VERTEX
8
3
6
CONTINUOUS
 10
.0075
 20
.0168
 30
0
0
SEQEND
999
##### Poly 13 ####
0
POLYLINE
5
36
70
1
8
7
6
CONTINUOUS
66
1
10
0
20
0
30
0
39
.024
0
VERTEX
8
7
6
CONTINUOUS
 10
-.0315
 20
.0168
 30
0
0
VERTEX
8
7
6
CONTINUOUS
 10
-.0315
 20
.0088
 30
0
0
VERTEX
8
7
6
CONTINUOUS
 10
-.01459
 20
.0088
 30
0
0
VERTEX
8
7
6
CONTINUOUS
 10
-.0075
 20
.01388
 30
0
0
VERTEX
8
7
6
CONTINUOUS
 10
-.0075
 20
.0168
 30
0
0
SEQEND
999
##### Poly 14 ####
0
POLYLINE
5
36
70
1
8
7
6
CONTINUOUS
66
1
10
0
20
0
30
0
39
.024
0
VERTEX
8
7
6
CONTINUOUS
 10
-.0315
 20
-.0088
 30
0
0
VERTEX
8
7
6
CONTINUOUS
 10
-.0315
 20
-.0168
 30
0
0
VERTEX
8
7
6
CONTINUOUS
 10
-.0075
 20
-.0168
 30
0
0
VERTEX
8
7
6
CONTINUOUS
 10
-.0075
 20
-.01388
 30
0
0
VERTEX
8
7
6
CONTINUOUS
 10
-.01459
 20
-.0088
 30
0
0
SEQEND
999
##### Poly 15 ####
0
POLYLINE
5
36
70
1
8
7
6
CONTINUOUS
66
1
10
0
20
0
30
0
39
.024
0
VERTEX
8
7
6
CONTINUOUS
 10
.0315
 20
-.0088
 30
0
0
VERTEX
8
7
6
CONTINUOUS
 10
.0315
 20
-.0168
 30
0
0
VERTEX
8
7
6
CONTINUOUS
 10
.0075
 20
-.0168
 30
0
0
VERTEX
8
7
6
CONTINUOUS
 10
.0075
 20
-.01388
 30
0
0
VERTEX
8
7
6
CONTINUOUS
 10
.01459
 20
-.0088
 30
0
0
SEQEND
999
##### Poly 16 ####
0
POLYLINE
5
36
70
1
8
7
6
CONTINUOUS
66
1
10
0
20
0
30
0
39
.024
0
VERTEX
8
7
6
CONTINUOUS
 10
.0315
 20
.0168
 30
0
0
VERTEX
8
7
6
CONTINUOUS
 10
.0315
 20
.0088
 30
0
0
VERTEX
8
7
6
CONTINUOUS
 10
.01459
 20
.0088
 30
0
0
VERTEX
8
7
6
CONTINUOUS
 10
.0075
 20
.01388
 30
0
0
VERTEX
8
7
6
CONTINUOUS
 10
.0075
 20
.0168
 30
0
0
SEQEND
999
##### Poly 18 ####
0
POLYLINE
5
36
70
1
8
6
6
CONTINUOUS
66
1
10
0
20
0
30
0
39
.024
0
VERTEX
8
6
6
CONTINUOUS
 10
0
 20
.0095
 30
0
0
VERTEX
8
6
6
CONTINUOUS
 10
-.0095
 20
0
 30
0
0
VERTEX
8
6
6
CONTINUOUS
 10
0
 20
-.0095
 30
0
0
VERTEX
8
6
6
CONTINUOUS
 10
.0095
 20
0
 30
0
0
SEQEND
0
3DFACE
5
49
8
0
6
CONTINUOUS
 10
0
 20
.0095
 30
.024
 11
-.0095
 21
0
 31
.024
 12
0
 22
-.0095
 32
.024
 13
.0095
 23
0
 33
.024
0
3DFACE
5
49
8
0
6
CONTINUOUS
 10
0
 20
.0095
 30
0
 11
-.0095
 21
0
 31
0
 12
0
 22
-.0095
 32
0
 13
.0095
 23
0
 33
0
999
##### Poly 19 ####
0
POLYLINE
5
36
70
1
8
3
6
CONTINUOUS
66
1
10
0
20
0
30
0
39
.024
0
VERTEX
8
3
6
CONTINUOUS
 10
0
 20
.0095
 30
0
0
VERTEX
8
3
6
CONTINUOUS
 10
-.0095
 20
0
 30
0
0
VERTEX
8
3
6
CONTINUOUS
 10
0
 20
-.0095
 30
0
0
VERTEX
8
3
6
CONTINUOUS
 10
.0095
 20
0
 30
0
0
SEQEND
0
3DFACE
5
49
8
0
6
CONTINUOUS
 10
0
 20
.0095
 30
.024
 11
-.0095
 21
0
 31
.024
 12
0
 22
-.0095
 32
.024
 13
.0095
 23
0
 33
.024
0
3DFACE
5
49
8
0
6
CONTINUOUS
 10
0
 20
.0095
 30
0
 11
-.0095
 21
0
 31
0
 12
0
 22
-.0095
 32
0
 13
.0095
 23
0
 33
0
999
##### Poly 20 ####
0
POLYLINE
5
36
70
1
8
7
6
CONTINUOUS
66
1
10
0
20
0
30
0
39
.024
0
VERTEX
8
7
6
CONTINUOUS
 10
0
 20
.0095
 30
0
0
VERTEX
8
7
6
CONTINUOUS
 10
-.0095
 20
0
 30
0
0
VERTEX
8
7
6
CONTINUOUS
 10
0
 20
-.0095
 30
0
0
VERTEX
8
7
6
CONTINUOUS
 10
.0095
 20
0
 30
0
0
SEQEND
0
3DFACE
5
49
8
0
6
CONTINUOUS
 10
0
 20
.0095
 30
.024
 11
-.0095
 21
0
 31
.024
 12
0
 22
-.0095
 32
.024
 13
.0095
 23
0
 33
.024
0
3DFACE
5
49
8
0
6
CONTINUOUS
 10
0
 20
.0095
 30
0
 11
-.0095
 21
0
 31
0
 12
0
 22
-.0095
 32
0
 13
.0095
 23
0
 33
0
999
##### Poly 27 ####
0
POLYLINE
5
36
70
1
8
8
6
CONTINUOUS
66
1
10
0
20
0
30
0
39
.024
0
VERTEX
8
8
6
CONTINUOUS
 10
-.0415
 20
-.02759
 30
0
0
VERTEX
8
8
6
CONTINUOUS
 10
-.0415
 20
.02759
 30
0
0
VERTEX
8
8
6
CONTINUOUS
 10
-.0295
 20
.02759
 30
0
0
VERTEX
8
8
6
CONTINUOUS
 10
-.0295
 20
.0295
 30
0
0
VERTEX
8
8
6
CONTINUOUS
 10
.0295
 20
.0295
 30
0
0
VERTEX
8
8
6
CONTINUOUS
 10
.0295
 20
.02759
 30
0
0
VERTEX
8
8
6
CONTINUOUS
 10
.0415
 20
.02759
 30
0
0
VERTEX
8
8
6
CONTINUOUS
 10
.0415
 20
-.02759
 30
0
0
VERTEX
8
8
6
CONTINUOUS
 10
.0295
 20
-.02759
 30
0
0
VERTEX
8
8
6
CONTINUOUS
 10
.0295
 20
-.0295
 30
0
0
VERTEX
8
8
6
CONTINUOUS
 10
-.0295
 20
-.0295
 30
0
0
VERTEX
8
8
6
CONTINUOUS
 10
-.0295
 20
-.02759
 30
0
0
SEQEND
999
##### Poly 44 ####
0
POLYLINE
5
36
70
1
8
23
6
CONTINUOUS
66
1
10
0
20
0
30
0
39
.024
0
VERTEX
8
23
6
CONTINUOUS
 10
-.0565
 20
-.0295
 30
0
0
VERTEX
8
23
6
CONTINUOUS
 10
-.0565
 20
.0295
 30
0
0
VERTEX
8
23
6
CONTINUOUS
 10
.0565
 20
.0295
 30
0
0
VERTEX
8
23
6
CONTINUOUS
 10
.0565
 20
-.0295
 30
0
0
SEQEND
0
3DFACE
5
49
8
0
6
CONTINUOUS
 10
-.0565
 20
-.0295
 30
.024
 11
-.0565
 21
.0295
 31
.024
 12
.0565
 22
.0295
 32
.024
 13
.0565
 23
-.0295
 33
.024
0
3DFACE
5
49
8
0
6
CONTINUOUS
 10
-.0565
 20
-.0295
 30
0
 11
-.0565
 21
.0295
 31
0
 12
.0565
 22
.0295
 32
0
 13
.0565
 23
-.0295
 33
0
0
ENDBLK
0
ENDSEC
0
SECTION
2
ENTITIES
 0
INSERT
 8
0
 2
UDFN4_1X1_ONS
 10
0
 20
0
 30
0
 41
1
 42
1
 43
1
0
ENDSEC
 0
EOF

