M48
;GenerationSoftware,Autodesk,EAGLE,9.6.2*%
;CreationDate,2021-12-09T13:59:34Z*%
FMAT,2
ICI,OFF
METRIC,TZ,000.000
T3C1.000
T2C1.300
T1C3.500
%
G90
M71
T1
X5715Y57150
X5715Y5080
X52070Y6985
X51435Y52705
T2
X35540Y13850
X32040Y6350
X39040Y6350
X15240Y6350
X15240Y13850
X35540Y55760
X32040Y48260
X39040Y48260
X15240Y48260
X15240Y55760
X35540Y34170
X32040Y26670
X39040Y26670
X15240Y26670
X15240Y34170
X6325Y12044
X6325Y17124
X6325Y46334
X6325Y51414
X6325Y27919
X6325Y32999
T3
X54610Y34290
X54610Y31750
X54610Y29210
X54610Y26670
M30