M48
;GenerationSoftware,Autodesk,EAGLE,9.6.2*%
;CreationDate,2021-12-09T12:57:06Z*%
FMAT,2
ICI,OFF
METRIC,TZ,000.000
T6C0.350
T5C1.000
T4C1.016
T3C2.540
T2C3.302
T1C3.500
%
G90
M71
T1
X40102Y3920
X17145Y46990
X53616Y50690
X16482Y27940
T2
X15875Y57785
T3
X12700Y52705
X10160Y57785
T4
X54610Y18415
X8255Y49530
X15875Y18415
X15875Y20955
X5715Y49530
X24765Y16510
X23495Y48895
X15875Y43180
X12700Y35560
X12700Y33020
X12700Y30480
X12700Y27940
X12700Y38100
X12700Y25400
X52070Y20955
X54610Y20955
X52070Y18415
X52070Y15875
X54610Y15875
X18415Y3175
X15875Y3175
T5
X34925Y60325
X37465Y60325
X40005Y60325
X42545Y60325
X45085Y60325
X47625Y60325
X50165Y60325
X52705Y60325
X5715Y45085
X5715Y42545
X5715Y8890
X5715Y6350
X5715Y3810
X5715Y20955
X5715Y18415
X5715Y15875
X5715Y13335
X5715Y38100
X5715Y35560
X5715Y33020
X5715Y30480
X5715Y27940
X5715Y25400
T6
X48895Y19050
X45720Y21590
X38735Y26670
X27305Y26670
X19685Y25400
X19685Y16510
X47625Y6350
X40640Y32385
X40005Y34925
X42545Y23495
X34290Y10160
X42545Y20320
X34290Y18415
X40640Y39370
X31115Y38100
X25400Y34290
X25400Y41910
X38100Y43180
X26670Y33020
X18415Y10160
X26670Y40640
X38100Y40640
X27940Y34290
X27940Y41910
X38100Y41910
X33020Y39370
X28690Y29730
X18415Y6350
X27305Y60960
X17780Y62865
X18415Y38100
X35560Y39370
X36830Y39370
X29845Y38735
X42545Y37465
M30