G04 EAGLE Gerber RS-274X export*
G75*
%MOMM*%
%FSLAX34Y34*%
%LPD*%
%INTop Layer*%
%IPPOS*%
%AMOC8*
5,1,8,0,0,1.08239X$1,22.5*%
G01*
%ADD10C,0.000000*%
%ADD11P,1.649562X8X22.500000*%
%ADD12P,1.649562X8X202.500000*%
%ADD13P,1.649562X8X292.500000*%
%ADD14R,1.500000X1.300000*%
%ADD15R,1.422400X1.117600*%
%ADD16R,1.117600X1.422400*%
%ADD17R,2.540000X2.540000*%
%ADD18R,4.191000X4.826000*%
%ADD19R,2.997200X1.600200*%
%ADD20R,4.826000X4.191000*%
%ADD21R,1.600200X2.997200*%
%ADD22R,0.300000X1.475000*%
%ADD23R,1.475000X0.300000*%
%ADD24R,1.200000X1.200000*%
%ADD25R,1.930400X5.334000*%
%ADD26R,1.300000X1.500000*%
%ADD27C,1.508000*%
%ADD28C,3.810000*%
%ADD29C,5.080000*%
%ADD30R,1.800000X1.400000*%
%ADD31C,0.304800*%
%ADD32C,0.756400*%
%ADD33C,0.508000*%
%ADD34C,0.406400*%
%ADD35C,0.254000*%
%ADD36C,0.152400*%

G36*
X533426Y11180D02*
X533426Y11180D01*
X533452Y11178D01*
X533599Y11200D01*
X533746Y11217D01*
X533771Y11225D01*
X533797Y11229D01*
X533935Y11284D01*
X534074Y11334D01*
X534096Y11348D01*
X534121Y11358D01*
X534242Y11443D01*
X534367Y11523D01*
X534385Y11542D01*
X534407Y11557D01*
X534506Y11667D01*
X534609Y11774D01*
X534623Y11796D01*
X534640Y11816D01*
X534712Y11946D01*
X534788Y12073D01*
X534796Y12098D01*
X534809Y12121D01*
X534849Y12264D01*
X534894Y12405D01*
X534896Y12431D01*
X534904Y12456D01*
X534923Y12700D01*
X534923Y114300D01*
X534920Y114326D01*
X534922Y114352D01*
X534900Y114499D01*
X534883Y114646D01*
X534875Y114671D01*
X534871Y114697D01*
X534816Y114835D01*
X534766Y114974D01*
X534752Y114996D01*
X534742Y115021D01*
X534657Y115142D01*
X534577Y115267D01*
X534558Y115285D01*
X534543Y115307D01*
X534433Y115406D01*
X534326Y115509D01*
X534304Y115523D01*
X534284Y115540D01*
X534154Y115612D01*
X534027Y115688D01*
X534002Y115696D01*
X533979Y115709D01*
X533836Y115749D01*
X533695Y115794D01*
X533669Y115796D01*
X533644Y115804D01*
X533400Y115823D01*
X509523Y115823D01*
X509523Y152400D01*
X509520Y152426D01*
X509522Y152452D01*
X509500Y152599D01*
X509483Y152746D01*
X509475Y152771D01*
X509471Y152797D01*
X509416Y152935D01*
X509366Y153074D01*
X509352Y153096D01*
X509342Y153121D01*
X509257Y153242D01*
X509177Y153367D01*
X509158Y153385D01*
X509143Y153407D01*
X509033Y153506D01*
X508926Y153609D01*
X508904Y153623D01*
X508884Y153640D01*
X508754Y153712D01*
X508627Y153788D01*
X508602Y153796D01*
X508579Y153809D01*
X508436Y153849D01*
X508295Y153894D01*
X508269Y153896D01*
X508244Y153904D01*
X508000Y153923D01*
X400050Y153923D01*
X400024Y153920D01*
X399998Y153922D01*
X399851Y153900D01*
X399704Y153883D01*
X399679Y153875D01*
X399653Y153871D01*
X399515Y153816D01*
X399376Y153766D01*
X399354Y153752D01*
X399329Y153742D01*
X399208Y153657D01*
X399083Y153577D01*
X399065Y153558D01*
X399043Y153543D01*
X398944Y153433D01*
X398841Y153326D01*
X398827Y153304D01*
X398810Y153284D01*
X398738Y153154D01*
X398662Y153027D01*
X398654Y153002D01*
X398641Y152979D01*
X398601Y152836D01*
X398556Y152695D01*
X398554Y152669D01*
X398546Y152644D01*
X398527Y152400D01*
X398527Y12700D01*
X398530Y12674D01*
X398528Y12648D01*
X398550Y12501D01*
X398567Y12354D01*
X398575Y12329D01*
X398579Y12303D01*
X398634Y12165D01*
X398684Y12026D01*
X398698Y12004D01*
X398708Y11979D01*
X398793Y11858D01*
X398873Y11733D01*
X398892Y11715D01*
X398907Y11693D01*
X399017Y11594D01*
X399124Y11491D01*
X399146Y11477D01*
X399166Y11460D01*
X399296Y11388D01*
X399423Y11312D01*
X399448Y11304D01*
X399471Y11291D01*
X399614Y11251D01*
X399755Y11206D01*
X399781Y11204D01*
X399806Y11196D01*
X400050Y11177D01*
X533400Y11177D01*
X533426Y11180D01*
G37*
G36*
X222276Y424692D02*
X222276Y424692D01*
X222302Y424690D01*
X222449Y424712D01*
X222596Y424729D01*
X222621Y424737D01*
X222647Y424741D01*
X222785Y424796D01*
X222924Y424846D01*
X222946Y424860D01*
X222971Y424870D01*
X223092Y424955D01*
X223217Y425035D01*
X223235Y425054D01*
X223257Y425069D01*
X223356Y425179D01*
X223459Y425286D01*
X223473Y425308D01*
X223490Y425328D01*
X223562Y425458D01*
X223638Y425585D01*
X223646Y425610D01*
X223659Y425633D01*
X223699Y425776D01*
X223744Y425917D01*
X223746Y425943D01*
X223754Y425968D01*
X223773Y426212D01*
X223773Y474727D01*
X260350Y474727D01*
X260376Y474730D01*
X260402Y474728D01*
X260549Y474750D01*
X260696Y474767D01*
X260721Y474775D01*
X260747Y474779D01*
X260885Y474834D01*
X261024Y474884D01*
X261046Y474898D01*
X261071Y474908D01*
X261192Y474993D01*
X261317Y475073D01*
X261335Y475092D01*
X261357Y475107D01*
X261456Y475217D01*
X261559Y475324D01*
X261573Y475346D01*
X261590Y475366D01*
X261662Y475496D01*
X261738Y475623D01*
X261746Y475648D01*
X261759Y475671D01*
X261799Y475814D01*
X261844Y475955D01*
X261846Y475981D01*
X261854Y476006D01*
X261873Y476250D01*
X261873Y558800D01*
X261870Y558826D01*
X261872Y558852D01*
X261850Y558999D01*
X261833Y559146D01*
X261825Y559171D01*
X261821Y559197D01*
X261766Y559335D01*
X261716Y559474D01*
X261702Y559496D01*
X261692Y559521D01*
X261607Y559642D01*
X261527Y559767D01*
X261508Y559785D01*
X261493Y559807D01*
X261383Y559906D01*
X261276Y560009D01*
X261254Y560023D01*
X261234Y560040D01*
X261104Y560112D01*
X260977Y560188D01*
X260952Y560196D01*
X260929Y560209D01*
X260786Y560249D01*
X260645Y560294D01*
X260619Y560296D01*
X260594Y560304D01*
X260350Y560323D01*
X165100Y560323D01*
X165074Y560320D01*
X165048Y560322D01*
X164901Y560300D01*
X164754Y560283D01*
X164729Y560275D01*
X164703Y560271D01*
X164565Y560216D01*
X164426Y560166D01*
X164404Y560152D01*
X164379Y560142D01*
X164258Y560057D01*
X164133Y559977D01*
X164115Y559958D01*
X164093Y559943D01*
X163994Y559833D01*
X163891Y559726D01*
X163877Y559704D01*
X163860Y559684D01*
X163788Y559554D01*
X163712Y559427D01*
X163704Y559402D01*
X163691Y559379D01*
X163651Y559236D01*
X163606Y559095D01*
X163604Y559069D01*
X163596Y559044D01*
X163577Y558800D01*
X163577Y438150D01*
X163591Y438024D01*
X163598Y437898D01*
X163611Y437852D01*
X163617Y437804D01*
X163659Y437685D01*
X163694Y437563D01*
X163718Y437521D01*
X163734Y437476D01*
X163803Y437369D01*
X163864Y437259D01*
X163904Y437213D01*
X163923Y437183D01*
X163958Y437149D01*
X164023Y437073D01*
X175961Y425135D01*
X176060Y425056D01*
X176154Y424972D01*
X176196Y424948D01*
X176234Y424918D01*
X176348Y424864D01*
X176459Y424803D01*
X176505Y424790D01*
X176549Y424769D01*
X176672Y424743D01*
X176794Y424708D01*
X176855Y424703D01*
X176890Y424696D01*
X176938Y424697D01*
X177038Y424689D01*
X222250Y424689D01*
X222276Y424692D01*
G37*
%LPC*%
G36*
X491658Y16789D02*
X491658Y16789D01*
X484623Y18674D01*
X478316Y22316D01*
X473166Y27466D01*
X469524Y33773D01*
X467639Y40808D01*
X467639Y48092D01*
X469524Y55127D01*
X473166Y61434D01*
X478316Y66584D01*
X484623Y70226D01*
X491658Y72111D01*
X498942Y72111D01*
X505977Y70226D01*
X512284Y66584D01*
X517434Y61434D01*
X521076Y55127D01*
X522961Y48092D01*
X522961Y40808D01*
X521076Y33773D01*
X517434Y27466D01*
X512284Y22316D01*
X505977Y18674D01*
X498942Y16789D01*
X491658Y16789D01*
G37*
%LPD*%
D10*
X0Y0D02*
X542800Y0D01*
X542800Y571400D01*
X0Y571400D01*
X0Y0D01*
D11*
X152400Y444500D03*
X419100Y38100D03*
D12*
X317500Y209550D03*
D13*
X38100Y501650D03*
X63500Y501650D03*
X38100Y476250D03*
X63500Y476250D03*
X38100Y450850D03*
X63500Y450850D03*
D14*
X406400Y352450D03*
X406400Y371450D03*
X95250Y492150D03*
X95250Y511150D03*
D15*
X520700Y130175D03*
X520700Y149225D03*
D16*
X238125Y463550D03*
X257175Y463550D03*
D14*
X431800Y365150D03*
X431800Y384150D03*
X431800Y295250D03*
X431800Y276250D03*
D16*
X460375Y209550D03*
X479425Y209550D03*
D14*
X387350Y320650D03*
X387350Y301650D03*
D17*
X412750Y177800D03*
X361950Y177800D03*
D11*
X254000Y101600D03*
D18*
X207772Y508000D03*
D19*
X290576Y530098D03*
X290576Y485394D03*
D20*
X469900Y99822D03*
D21*
X447802Y182626D03*
X492506Y182626D03*
D22*
X254600Y291870D03*
X259600Y291870D03*
X264600Y291870D03*
X269600Y291870D03*
X274600Y291870D03*
X279600Y291870D03*
X284600Y291870D03*
X289600Y291870D03*
X294600Y291870D03*
X299600Y291870D03*
X304600Y291870D03*
X309600Y291870D03*
X314600Y291870D03*
X319600Y291870D03*
X324600Y291870D03*
X329600Y291870D03*
D23*
X349480Y311750D03*
X349480Y316750D03*
X349480Y321750D03*
X349480Y326750D03*
X349480Y331750D03*
X349480Y336750D03*
X349480Y341750D03*
X349480Y346750D03*
X349480Y351750D03*
X349480Y356750D03*
X349480Y361750D03*
X349480Y366750D03*
X349480Y371750D03*
X349480Y376750D03*
X349480Y381750D03*
X349480Y386750D03*
D22*
X329600Y406630D03*
X324600Y406630D03*
X319600Y406630D03*
X314600Y406630D03*
X309600Y406630D03*
X304600Y406630D03*
X299600Y406630D03*
X294600Y406630D03*
X289600Y406630D03*
X284600Y406630D03*
X279600Y406630D03*
X274600Y406630D03*
X269600Y406630D03*
X264600Y406630D03*
X259600Y406630D03*
X254600Y406630D03*
D23*
X234720Y386750D03*
X234720Y381750D03*
X234720Y376750D03*
X234720Y371750D03*
X234720Y366750D03*
X234720Y361750D03*
X234720Y356750D03*
X234720Y351750D03*
X234720Y346750D03*
X234720Y341750D03*
X234720Y336750D03*
X234720Y331750D03*
X234720Y326750D03*
X234720Y321750D03*
X234720Y316750D03*
X234720Y311750D03*
D24*
X190500Y141900D03*
X190500Y162900D03*
X209550Y141900D03*
X209550Y162900D03*
D25*
X476250Y281940D03*
X476250Y378460D03*
D26*
X212700Y101600D03*
X193700Y101600D03*
D14*
X431800Y320700D03*
X431800Y339700D03*
X215900Y187350D03*
X215900Y206350D03*
X190500Y187350D03*
X190500Y206350D03*
D26*
X41300Y425450D03*
X60300Y425450D03*
D14*
X95250Y466700D03*
X95250Y447700D03*
D26*
X168250Y101600D03*
X149250Y101600D03*
X123800Y101600D03*
X104800Y101600D03*
D27*
X234950Y58340D02*
X234950Y43260D01*
X209550Y43260D02*
X209550Y58340D01*
X184150Y58340D02*
X184150Y43260D01*
X158750Y43260D02*
X158750Y58340D01*
X133350Y58340D02*
X133350Y43260D01*
X107950Y43260D02*
X107950Y58340D01*
X82550Y58340D02*
X82550Y43260D01*
X57150Y43260D02*
X57150Y58340D01*
X31750Y58340D02*
X31750Y43260D01*
D28*
X317500Y101600D03*
X368300Y127000D03*
D29*
X317500Y158750D03*
D27*
X330200Y513160D02*
X330200Y528240D01*
X355600Y528240D02*
X355600Y513160D01*
X381000Y513160D02*
X381000Y528240D01*
X406400Y528240D02*
X406400Y513160D01*
X431800Y513160D02*
X431800Y528240D01*
X457200Y528240D02*
X457200Y513160D01*
X482600Y513160D02*
X482600Y528240D01*
X508000Y528240D02*
X508000Y513160D01*
X58340Y215900D02*
X43260Y215900D01*
X43260Y241300D02*
X58340Y241300D01*
X58340Y266700D02*
X43260Y266700D01*
X43260Y292100D02*
X58340Y292100D01*
X58340Y317500D02*
X43260Y317500D01*
X43260Y342900D02*
X58340Y342900D01*
X58340Y368300D02*
X43260Y368300D01*
X43260Y393700D02*
X58340Y393700D01*
X58340Y114300D02*
X43260Y114300D01*
X43260Y139700D02*
X58340Y139700D01*
X58340Y165100D02*
X43260Y165100D01*
X43260Y190500D02*
X58340Y190500D01*
D26*
X98450Y139700D03*
X117450Y139700D03*
X98450Y165100D03*
X117450Y165100D03*
X98450Y190500D03*
X117450Y190500D03*
X98450Y342900D03*
X117450Y342900D03*
X98450Y368300D03*
X117450Y368300D03*
X98450Y393700D03*
X117450Y393700D03*
X98450Y241300D03*
X117450Y241300D03*
X98450Y266700D03*
X117450Y266700D03*
X98450Y292100D03*
X117450Y292100D03*
D30*
X120650Y471950D03*
X120650Y505950D03*
D14*
X146050Y473100D03*
X146050Y492100D03*
D31*
X431800Y384150D02*
X447700Y384150D01*
X450850Y381000D01*
D32*
X450850Y381000D03*
D31*
X447700Y276250D02*
X431800Y276250D01*
X447700Y276250D02*
X450850Y279400D01*
D32*
X450850Y279400D03*
D33*
X50800Y114300D02*
X31750Y114300D01*
X25400Y120650D01*
X25400Y212090D01*
X25400Y215900D01*
X25400Y219710D01*
X25400Y311150D01*
X31750Y317500D01*
X50800Y317500D01*
D31*
X50800Y215900D02*
X25400Y215900D01*
D33*
X29210Y215900D02*
X25400Y219710D01*
X29210Y215900D02*
X50800Y215900D01*
X29210Y215900D02*
X25400Y212090D01*
D31*
X190500Y141900D02*
X209550Y141900D01*
D33*
X254000Y101600D02*
X234950Y82550D01*
X254000Y101600D02*
X317500Y101600D01*
X342900Y101600D01*
X368300Y127000D01*
D31*
X492506Y182626D02*
X503174Y182626D01*
X505460Y180340D01*
X520700Y165100D02*
X520700Y149225D01*
X492506Y182626D02*
X492506Y184150D01*
X492506Y205994D01*
X488950Y209550D01*
X479425Y209550D01*
D34*
X76200Y501650D02*
X63500Y501650D01*
X85700Y511150D02*
X95250Y511150D01*
X85700Y511150D02*
X76200Y501650D01*
D31*
X257175Y463550D02*
X292100Y463550D01*
X292100Y483870D01*
X290576Y485394D01*
D32*
X520700Y184150D03*
D31*
X508000Y184150D01*
X505460Y184150D01*
X492506Y184150D01*
X505460Y180340D02*
X508000Y177800D01*
X505460Y180340D02*
X505460Y184150D01*
X508000Y177800D02*
X520700Y165100D01*
X508000Y177800D02*
X508000Y184150D01*
D33*
X234950Y82550D02*
X234950Y50800D01*
D35*
X349480Y346750D02*
X372150Y346750D01*
D31*
X396850Y371450D02*
X406400Y371450D01*
D35*
X396850Y371450D02*
X372150Y346750D01*
X364050Y321750D02*
X349480Y321750D01*
X364050Y321750D02*
X368300Y317500D01*
D31*
X368300Y311150D01*
X377800Y301650D01*
X387350Y301650D01*
D33*
X330200Y495300D02*
X330200Y520700D01*
D31*
X209550Y141900D02*
X211750Y139700D01*
X228600Y139700D01*
D32*
X228600Y139700D03*
D31*
X293370Y482600D02*
X290576Y485394D01*
D33*
X317500Y482600D02*
X330200Y495300D01*
X307340Y482600D02*
X293370Y482600D01*
X307340Y482600D02*
X311150Y482600D01*
D31*
X311150Y478790D01*
D32*
X311150Y431800D03*
D33*
X311150Y478790D01*
X314960Y482600D02*
X317500Y482600D01*
X314960Y482600D02*
X311150Y482600D01*
X311150Y478790D02*
X307340Y482600D01*
X311150Y478790D02*
X314960Y482600D01*
D31*
X311150Y323850D02*
X313250Y321750D01*
D32*
X311150Y323850D03*
D35*
X313250Y321750D02*
X349480Y321750D01*
X349480Y346750D02*
X313650Y346750D01*
D31*
X311150Y349250D01*
D32*
X311150Y349250D03*
D31*
X409550Y384150D02*
X431800Y384150D01*
X409550Y384150D02*
X406400Y381000D01*
X406400Y371450D01*
D34*
X115450Y511150D02*
X95250Y511150D01*
X115450Y511150D02*
X120650Y505950D01*
D33*
X117450Y165100D02*
X117450Y139700D01*
X117450Y165100D02*
X117450Y190500D01*
X117450Y241300D01*
X117450Y266700D01*
X117450Y292100D01*
X117450Y342900D01*
X117450Y368300D01*
X117450Y393700D01*
X117450Y435000D01*
X113030Y439420D02*
X104750Y447700D01*
D31*
X95250Y447700D02*
X92100Y450850D01*
X60300Y425450D02*
X57150Y422300D01*
X390550Y352450D02*
X406400Y352450D01*
D35*
X390550Y352450D02*
X379850Y341750D01*
X349480Y341750D01*
X349480Y326750D02*
X371750Y326750D01*
D31*
X377850Y320650D02*
X387350Y320650D01*
D35*
X377850Y320650D02*
X371750Y326750D01*
X349480Y326750D02*
X333650Y326750D01*
D31*
X330200Y330200D01*
X330200Y336550D01*
D35*
X335400Y341750D02*
X349480Y341750D01*
D31*
X335400Y341750D02*
X330200Y336550D01*
D33*
X326390Y336550D02*
X323850Y336550D01*
X304800Y336550D01*
X222250Y419100D01*
D31*
X328930Y336550D02*
X330200Y336550D01*
X328930Y336550D02*
X326390Y336550D01*
D33*
X104750Y447700D02*
X95250Y447700D01*
X104750Y447700D02*
X113030Y447700D01*
X113030Y439420D02*
X117450Y435000D01*
X113030Y439420D02*
X113030Y447700D01*
D31*
X334130Y341750D02*
X335400Y341750D01*
X334130Y341750D02*
X328930Y336550D01*
X326390Y334010D02*
X323850Y336550D01*
X326390Y334010D02*
X328930Y331470D01*
X326390Y334010D02*
X326390Y336550D01*
X328930Y331470D02*
X330200Y330200D01*
X328930Y331470D02*
X328930Y336550D01*
X331590Y341750D02*
X334130Y341750D01*
X331590Y341750D02*
X326390Y336550D01*
D33*
X152400Y431800D02*
X152400Y444500D01*
X152400Y431800D02*
X165100Y419100D01*
X222250Y419100D01*
X149200Y447700D02*
X95250Y447700D01*
X149200Y447700D02*
X152400Y444500D01*
D31*
X88900Y425450D02*
X60300Y425450D01*
X88900Y425450D02*
X95250Y431800D01*
X95250Y447700D01*
X150350Y446550D02*
X152400Y444500D01*
X144000Y471050D02*
X146050Y473100D01*
D33*
X144900Y471950D01*
X120650Y471950D01*
X152400Y457200D02*
X152400Y444500D01*
X146050Y463550D02*
X146050Y473100D01*
X146050Y463550D02*
X152400Y457200D01*
X57150Y31750D02*
X63500Y25400D01*
X128270Y25400D01*
X133350Y25400D01*
X138430Y25400D01*
X203200Y25400D01*
X209550Y31750D01*
X138430Y25400D02*
X133350Y30480D01*
X128270Y25400D01*
X203200Y25400D02*
X214630Y25400D01*
D31*
X215900Y25400D01*
D33*
X406400Y25400D01*
D31*
X214630Y25400D02*
X209550Y30480D01*
D33*
X209550Y31750D02*
X215900Y25400D01*
D31*
X520700Y114300D02*
X520700Y130175D01*
D32*
X292100Y552450D03*
D33*
X292100Y531622D01*
D31*
X290576Y530098D01*
D33*
X57150Y50800D02*
X57150Y31750D01*
X133350Y25400D02*
X133350Y50800D01*
X209550Y50800D02*
X209550Y30480D01*
D31*
X44450Y422300D02*
X41300Y425450D01*
D35*
X309600Y420650D02*
X309600Y406630D01*
D31*
X309600Y420650D02*
X304800Y425450D01*
X292100Y425450D01*
D32*
X292100Y425450D03*
D31*
X38100Y501650D02*
X25400Y501650D01*
X19050Y495300D01*
X19050Y431800D01*
X25400Y425450D01*
X41300Y425450D01*
X431800Y365150D02*
X431800Y339700D01*
X431800Y365150D02*
X473100Y365150D01*
X476250Y368300D01*
X476250Y378460D01*
D35*
X428850Y336750D02*
X349480Y336750D01*
D31*
X428850Y336750D02*
X431800Y339700D01*
D36*
X431800Y320700D02*
X431800Y317500D01*
D31*
X431800Y295250D01*
X473100Y295250D01*
X476250Y292100D01*
X476250Y281940D01*
D35*
X398500Y331750D02*
X349480Y331750D01*
D31*
X409550Y320700D02*
X431800Y320700D01*
D35*
X409550Y320700D02*
X398500Y331750D01*
D31*
X76200Y476250D02*
X63500Y476250D01*
X85750Y466700D02*
X95250Y466700D01*
X85750Y466700D02*
X76200Y476250D01*
X95250Y466700D02*
X95250Y492150D01*
D35*
X334050Y351750D02*
X349480Y351750D01*
D31*
X334050Y351750D02*
X323850Y361950D01*
D32*
X298450Y361950D03*
D31*
X323850Y361950D01*
D35*
X349480Y361750D02*
X374450Y361750D01*
D32*
X431800Y419100D03*
D31*
X374450Y361750D01*
X331750Y366750D02*
X323850Y374650D01*
D35*
X331750Y366750D02*
X349480Y366750D01*
D32*
X323850Y374650D03*
D35*
X339450Y371750D02*
X349480Y371750D01*
D31*
X339450Y371750D02*
X330200Y381000D01*
X330200Y387350D01*
X406400Y463550D01*
X406400Y520700D01*
D35*
X376750Y376750D02*
X349480Y376750D01*
D31*
X508000Y508000D02*
X508000Y520700D01*
X508000Y508000D02*
X376750Y376750D01*
D35*
X294600Y291870D02*
X294600Y243800D01*
D31*
X168250Y111100D02*
X168250Y101600D01*
X241300Y120650D02*
X247650Y127000D01*
X177800Y120650D02*
X168250Y111100D01*
X177800Y120650D02*
X241300Y120650D01*
X247650Y127000D02*
X247650Y196850D01*
X294600Y243800D01*
X123800Y111100D02*
X123800Y101600D01*
D35*
X289600Y276900D02*
X289600Y291870D01*
D31*
X289600Y276900D02*
X285750Y273050D01*
X285750Y247650D01*
X139700Y127000D02*
X123800Y111100D01*
X139700Y127000D02*
X234950Y127000D01*
X241300Y133350D01*
X241300Y203200D02*
X285750Y247650D01*
X241300Y203200D02*
X241300Y133350D01*
X190500Y206350D02*
X190500Y222250D01*
D32*
X190500Y222250D03*
D35*
X284600Y291870D02*
X284600Y303650D01*
X292100Y311150D01*
D32*
X292100Y323850D03*
D31*
X292100Y311150D01*
X215900Y222250D02*
X215900Y206350D01*
D32*
X215900Y222250D03*
X279400Y311150D03*
D31*
X279400Y292070D02*
X279600Y291870D01*
X279400Y292070D02*
X279400Y311150D01*
X98450Y139700D02*
X50800Y139700D01*
D35*
X274600Y249200D02*
X274600Y291870D01*
D31*
X274600Y249200D02*
X273050Y247650D01*
D32*
X273050Y247650D03*
D31*
X98450Y165100D02*
X50800Y165100D01*
D35*
X269600Y256900D02*
X269600Y291870D01*
D31*
X269600Y256900D02*
X260350Y247650D01*
D32*
X260350Y247650D03*
D31*
X98450Y190500D02*
X50800Y190500D01*
D32*
X260350Y260350D03*
D35*
X264600Y264600D02*
X264600Y291870D01*
D31*
X264600Y264600D02*
X260350Y260350D01*
X98450Y241300D02*
X50800Y241300D01*
D35*
X259600Y278650D02*
X259600Y291870D01*
D32*
X139700Y254000D03*
D31*
X234950Y254000D02*
X259600Y278650D01*
X234950Y254000D02*
X139700Y254000D01*
X98450Y266700D02*
X50800Y266700D01*
D35*
X247650Y292100D02*
X253298Y292100D01*
D31*
X253528Y291870D02*
X254600Y291870D01*
X253528Y291870D02*
X253298Y292100D01*
D32*
X139700Y273050D03*
D31*
X158750Y292100D01*
X247650Y292100D01*
X447802Y206502D02*
X447802Y182626D01*
X450850Y209550D02*
X460375Y209550D01*
X450850Y209550D02*
X447802Y206502D01*
X447802Y182626D02*
X417576Y182626D01*
X412750Y177800D01*
X355600Y158750D02*
X317500Y158750D01*
X355600Y158750D02*
X361950Y165100D01*
X361950Y177800D01*
X317500Y158750D02*
X317500Y209550D01*
D35*
X349480Y381750D02*
X369050Y381750D01*
D31*
X457200Y469900D01*
X457200Y520700D01*
D35*
X349480Y393930D02*
X349480Y386750D01*
D31*
X349480Y393930D02*
X419100Y463550D01*
X419100Y533400D01*
X431800Y546100D01*
X476250Y546100D01*
X482600Y539750D01*
X482600Y520700D01*
X98450Y292100D02*
X50800Y292100D01*
D32*
X209550Y304800D03*
D35*
X216500Y311750D02*
X234720Y311750D01*
D31*
X216500Y311750D02*
X209550Y304800D01*
X98450Y342900D02*
X50800Y342900D01*
D35*
X191250Y316750D02*
X234720Y316750D01*
D31*
X191250Y316750D02*
X190500Y317500D01*
D32*
X190500Y317500D03*
D31*
X98450Y368300D02*
X50800Y368300D01*
D35*
X211650Y321750D02*
X234720Y321750D01*
D31*
X211650Y321750D02*
X203200Y330200D01*
X196850Y330200D01*
D32*
X196850Y330200D03*
D31*
X98450Y393700D02*
X50800Y393700D01*
D35*
X219350Y326750D02*
X234720Y326750D01*
D31*
X219350Y326750D02*
X196850Y349250D01*
D32*
X196850Y349250D03*
D31*
X254000Y190500D02*
X254000Y120650D01*
D35*
X299600Y236100D02*
X299600Y291870D01*
D31*
X299600Y236100D02*
X254000Y190500D01*
X234950Y101600D02*
X212700Y101600D01*
X234950Y101600D02*
X254000Y120650D01*
X184150Y73000D02*
X184150Y50800D01*
X193700Y82550D02*
X193700Y101600D01*
X193700Y82550D02*
X184150Y73000D01*
X107950Y69850D02*
X107950Y50800D01*
X107950Y69850D02*
X114300Y76200D01*
X133350Y76200D01*
X149250Y92100D01*
X149250Y101600D01*
X31750Y69850D02*
X31750Y50800D01*
X31750Y69850D02*
X63500Y101600D01*
X104800Y101600D01*
X209550Y181000D02*
X215900Y187350D01*
X209550Y181000D02*
X209550Y162900D01*
X190500Y162900D02*
X190500Y187350D01*
X215900Y463550D02*
X238125Y463550D01*
D33*
X63500Y450850D02*
X57150Y450850D01*
X50800Y457200D01*
D34*
X50800Y508000D01*
D33*
X69850Y527050D01*
X171450Y527050D01*
X168250Y492100D02*
X146050Y492100D01*
X168250Y492100D02*
X171450Y495300D01*
M02*
