G04 EAGLE Gerber RS-274X export*
G75*
%MOMM*%
%FSLAX34Y34*%
%LPD*%
%INSMD-Paste Oberseite*%
%IPPOS*%
%AMOC8*
5,1,8,0,0,1.08239X$1,22.5*%
G01*
%ADD10C,0.000000*%
%ADD11R,1.500000X1.300000*%
%ADD12R,1.422400X1.117600*%
%ADD13R,1.117600X1.422400*%
%ADD14R,2.540000X2.540000*%
%ADD15R,4.191000X4.826000*%
%ADD16R,2.997200X1.600200*%
%ADD17R,4.826000X4.191000*%
%ADD18R,1.600200X2.997200*%
%ADD19R,0.300000X1.475000*%
%ADD20R,1.475000X0.300000*%
%ADD21R,1.200000X1.200000*%
%ADD22R,1.930400X5.334000*%
%ADD23R,1.300000X1.500000*%
%ADD24R,1.800000X1.400000*%


D10*
X0Y0D02*
X542800Y0D01*
X542800Y571400D01*
X0Y571400D01*
X0Y0D01*
D11*
X406400Y352450D03*
X406400Y371450D03*
X95250Y492150D03*
X95250Y511150D03*
D12*
X520700Y130175D03*
X520700Y149225D03*
D13*
X238125Y463550D03*
X257175Y463550D03*
D11*
X431800Y365150D03*
X431800Y384150D03*
X431800Y295250D03*
X431800Y276250D03*
D13*
X460375Y209550D03*
X479425Y209550D03*
D11*
X387350Y320650D03*
X387350Y301650D03*
D14*
X412750Y177800D03*
X361950Y177800D03*
D15*
X207772Y508000D03*
D16*
X290576Y530098D03*
X290576Y485394D03*
D17*
X469900Y99822D03*
D18*
X447802Y182626D03*
X492506Y182626D03*
D19*
X254600Y291870D03*
X259600Y291870D03*
X264600Y291870D03*
X269600Y291870D03*
X274600Y291870D03*
X279600Y291870D03*
X284600Y291870D03*
X289600Y291870D03*
X294600Y291870D03*
X299600Y291870D03*
X304600Y291870D03*
X309600Y291870D03*
X314600Y291870D03*
X319600Y291870D03*
X324600Y291870D03*
X329600Y291870D03*
D20*
X349480Y311750D03*
X349480Y316750D03*
X349480Y321750D03*
X349480Y326750D03*
X349480Y331750D03*
X349480Y336750D03*
X349480Y341750D03*
X349480Y346750D03*
X349480Y351750D03*
X349480Y356750D03*
X349480Y361750D03*
X349480Y366750D03*
X349480Y371750D03*
X349480Y376750D03*
X349480Y381750D03*
X349480Y386750D03*
D19*
X329600Y406630D03*
X324600Y406630D03*
X319600Y406630D03*
X314600Y406630D03*
X309600Y406630D03*
X304600Y406630D03*
X299600Y406630D03*
X294600Y406630D03*
X289600Y406630D03*
X284600Y406630D03*
X279600Y406630D03*
X274600Y406630D03*
X269600Y406630D03*
X264600Y406630D03*
X259600Y406630D03*
X254600Y406630D03*
D20*
X234720Y386750D03*
X234720Y381750D03*
X234720Y376750D03*
X234720Y371750D03*
X234720Y366750D03*
X234720Y361750D03*
X234720Y356750D03*
X234720Y351750D03*
X234720Y346750D03*
X234720Y341750D03*
X234720Y336750D03*
X234720Y331750D03*
X234720Y326750D03*
X234720Y321750D03*
X234720Y316750D03*
X234720Y311750D03*
D21*
X190500Y141900D03*
X190500Y162900D03*
X209550Y141900D03*
X209550Y162900D03*
D22*
X476250Y281940D03*
X476250Y378460D03*
D23*
X212700Y101600D03*
X193700Y101600D03*
D11*
X431800Y320700D03*
X431800Y339700D03*
X215900Y187350D03*
X215900Y206350D03*
X190500Y187350D03*
X190500Y206350D03*
D23*
X41300Y425450D03*
X60300Y425450D03*
D11*
X95250Y466700D03*
X95250Y447700D03*
D23*
X168250Y101600D03*
X149250Y101600D03*
X123800Y101600D03*
X104800Y101600D03*
X98450Y139700D03*
X117450Y139700D03*
X98450Y165100D03*
X117450Y165100D03*
X98450Y190500D03*
X117450Y190500D03*
X98450Y342900D03*
X117450Y342900D03*
X98450Y368300D03*
X117450Y368300D03*
X98450Y393700D03*
X117450Y393700D03*
X98450Y241300D03*
X117450Y241300D03*
X98450Y266700D03*
X117450Y266700D03*
X98450Y292100D03*
X117450Y292100D03*
D24*
X120650Y471950D03*
X120650Y505950D03*
D11*
X146050Y473100D03*
X146050Y492100D03*
M02*
