G04 EAGLE Gerber RS-274X export*
G75*
%MOMM*%
%FSLAX34Y34*%
%LPD*%
%INAusfräsungen*%
%IPPOS*%
%AMOC8*
5,1,8,0,0,1.08239X$1,22.5*%
G01*
%ADD10C,0.000000*%


D10*
X0Y0D02*
X542800Y0D01*
X542800Y571400D01*
X0Y571400D01*
X0Y0D01*
X477800Y44450D02*
X477805Y44879D01*
X477821Y45309D01*
X477847Y45737D01*
X477884Y46165D01*
X477932Y46592D01*
X477989Y47018D01*
X478058Y47442D01*
X478136Y47864D01*
X478225Y48284D01*
X478324Y48702D01*
X478434Y49117D01*
X478554Y49530D01*
X478683Y49939D01*
X478823Y50346D01*
X478973Y50748D01*
X479132Y51147D01*
X479301Y51542D01*
X479480Y51932D01*
X479669Y52318D01*
X479866Y52699D01*
X480073Y53076D01*
X480290Y53447D01*
X480515Y53812D01*
X480749Y54172D01*
X480992Y54527D01*
X481244Y54875D01*
X481504Y55217D01*
X481772Y55552D01*
X482049Y55881D01*
X482333Y56202D01*
X482626Y56517D01*
X482926Y56824D01*
X483233Y57124D01*
X483548Y57417D01*
X483869Y57701D01*
X484198Y57978D01*
X484533Y58246D01*
X484875Y58506D01*
X485223Y58758D01*
X485578Y59001D01*
X485938Y59235D01*
X486303Y59460D01*
X486674Y59677D01*
X487051Y59884D01*
X487432Y60081D01*
X487818Y60270D01*
X488208Y60449D01*
X488603Y60618D01*
X489002Y60777D01*
X489404Y60927D01*
X489811Y61067D01*
X490220Y61196D01*
X490633Y61316D01*
X491048Y61426D01*
X491466Y61525D01*
X491886Y61614D01*
X492308Y61692D01*
X492732Y61761D01*
X493158Y61818D01*
X493585Y61866D01*
X494013Y61903D01*
X494441Y61929D01*
X494871Y61945D01*
X495300Y61950D01*
X495729Y61945D01*
X496159Y61929D01*
X496587Y61903D01*
X497015Y61866D01*
X497442Y61818D01*
X497868Y61761D01*
X498292Y61692D01*
X498714Y61614D01*
X499134Y61525D01*
X499552Y61426D01*
X499967Y61316D01*
X500380Y61196D01*
X500789Y61067D01*
X501196Y60927D01*
X501598Y60777D01*
X501997Y60618D01*
X502392Y60449D01*
X502782Y60270D01*
X503168Y60081D01*
X503549Y59884D01*
X503926Y59677D01*
X504297Y59460D01*
X504662Y59235D01*
X505022Y59001D01*
X505377Y58758D01*
X505725Y58506D01*
X506067Y58246D01*
X506402Y57978D01*
X506731Y57701D01*
X507052Y57417D01*
X507367Y57124D01*
X507674Y56824D01*
X507974Y56517D01*
X508267Y56202D01*
X508551Y55881D01*
X508828Y55552D01*
X509096Y55217D01*
X509356Y54875D01*
X509608Y54527D01*
X509851Y54172D01*
X510085Y53812D01*
X510310Y53447D01*
X510527Y53076D01*
X510734Y52699D01*
X510931Y52318D01*
X511120Y51932D01*
X511299Y51542D01*
X511468Y51147D01*
X511627Y50748D01*
X511777Y50346D01*
X511917Y49939D01*
X512046Y49530D01*
X512166Y49117D01*
X512276Y48702D01*
X512375Y48284D01*
X512464Y47864D01*
X512542Y47442D01*
X512611Y47018D01*
X512668Y46592D01*
X512716Y46165D01*
X512753Y45737D01*
X512779Y45309D01*
X512795Y44879D01*
X512800Y44450D01*
X512795Y44021D01*
X512779Y43591D01*
X512753Y43163D01*
X512716Y42735D01*
X512668Y42308D01*
X512611Y41882D01*
X512542Y41458D01*
X512464Y41036D01*
X512375Y40616D01*
X512276Y40198D01*
X512166Y39783D01*
X512046Y39370D01*
X511917Y38961D01*
X511777Y38554D01*
X511627Y38152D01*
X511468Y37753D01*
X511299Y37358D01*
X511120Y36968D01*
X510931Y36582D01*
X510734Y36201D01*
X510527Y35824D01*
X510310Y35453D01*
X510085Y35088D01*
X509851Y34728D01*
X509608Y34373D01*
X509356Y34025D01*
X509096Y33683D01*
X508828Y33348D01*
X508551Y33019D01*
X508267Y32698D01*
X507974Y32383D01*
X507674Y32076D01*
X507367Y31776D01*
X507052Y31483D01*
X506731Y31199D01*
X506402Y30922D01*
X506067Y30654D01*
X505725Y30394D01*
X505377Y30142D01*
X505022Y29899D01*
X504662Y29665D01*
X504297Y29440D01*
X503926Y29223D01*
X503549Y29016D01*
X503168Y28819D01*
X502782Y28630D01*
X502392Y28451D01*
X501997Y28282D01*
X501598Y28123D01*
X501196Y27973D01*
X500789Y27833D01*
X500380Y27704D01*
X499967Y27584D01*
X499552Y27474D01*
X499134Y27375D01*
X498714Y27286D01*
X498292Y27208D01*
X497868Y27139D01*
X497442Y27082D01*
X497015Y27034D01*
X496587Y26997D01*
X496159Y26971D01*
X495729Y26955D01*
X495300Y26950D01*
X494871Y26955D01*
X494441Y26971D01*
X494013Y26997D01*
X493585Y27034D01*
X493158Y27082D01*
X492732Y27139D01*
X492308Y27208D01*
X491886Y27286D01*
X491466Y27375D01*
X491048Y27474D01*
X490633Y27584D01*
X490220Y27704D01*
X489811Y27833D01*
X489404Y27973D01*
X489002Y28123D01*
X488603Y28282D01*
X488208Y28451D01*
X487818Y28630D01*
X487432Y28819D01*
X487051Y29016D01*
X486674Y29223D01*
X486303Y29440D01*
X485938Y29665D01*
X485578Y29899D01*
X485223Y30142D01*
X484875Y30394D01*
X484533Y30654D01*
X484198Y30922D01*
X483869Y31199D01*
X483548Y31483D01*
X483233Y31776D01*
X482926Y32076D01*
X482626Y32383D01*
X482333Y32698D01*
X482049Y33019D01*
X481772Y33348D01*
X481504Y33683D01*
X481244Y34025D01*
X480992Y34373D01*
X480749Y34728D01*
X480515Y35088D01*
X480290Y35453D01*
X480073Y35824D01*
X479866Y36201D01*
X479669Y36582D01*
X479480Y36968D01*
X479301Y37358D01*
X479132Y37753D01*
X478973Y38152D01*
X478823Y38554D01*
X478683Y38961D01*
X478554Y39370D01*
X478434Y39783D01*
X478324Y40198D01*
X478225Y40616D01*
X478136Y41036D01*
X478058Y41458D01*
X477989Y41882D01*
X477932Y42308D01*
X477884Y42735D01*
X477847Y43163D01*
X477821Y43591D01*
X477805Y44021D01*
X477800Y44450D01*
X477800Y444500D02*
X477805Y444929D01*
X477821Y445359D01*
X477847Y445787D01*
X477884Y446215D01*
X477932Y446642D01*
X477989Y447068D01*
X478058Y447492D01*
X478136Y447914D01*
X478225Y448334D01*
X478324Y448752D01*
X478434Y449167D01*
X478554Y449580D01*
X478683Y449989D01*
X478823Y450396D01*
X478973Y450798D01*
X479132Y451197D01*
X479301Y451592D01*
X479480Y451982D01*
X479669Y452368D01*
X479866Y452749D01*
X480073Y453126D01*
X480290Y453497D01*
X480515Y453862D01*
X480749Y454222D01*
X480992Y454577D01*
X481244Y454925D01*
X481504Y455267D01*
X481772Y455602D01*
X482049Y455931D01*
X482333Y456252D01*
X482626Y456567D01*
X482926Y456874D01*
X483233Y457174D01*
X483548Y457467D01*
X483869Y457751D01*
X484198Y458028D01*
X484533Y458296D01*
X484875Y458556D01*
X485223Y458808D01*
X485578Y459051D01*
X485938Y459285D01*
X486303Y459510D01*
X486674Y459727D01*
X487051Y459934D01*
X487432Y460131D01*
X487818Y460320D01*
X488208Y460499D01*
X488603Y460668D01*
X489002Y460827D01*
X489404Y460977D01*
X489811Y461117D01*
X490220Y461246D01*
X490633Y461366D01*
X491048Y461476D01*
X491466Y461575D01*
X491886Y461664D01*
X492308Y461742D01*
X492732Y461811D01*
X493158Y461868D01*
X493585Y461916D01*
X494013Y461953D01*
X494441Y461979D01*
X494871Y461995D01*
X495300Y462000D01*
X495729Y461995D01*
X496159Y461979D01*
X496587Y461953D01*
X497015Y461916D01*
X497442Y461868D01*
X497868Y461811D01*
X498292Y461742D01*
X498714Y461664D01*
X499134Y461575D01*
X499552Y461476D01*
X499967Y461366D01*
X500380Y461246D01*
X500789Y461117D01*
X501196Y460977D01*
X501598Y460827D01*
X501997Y460668D01*
X502392Y460499D01*
X502782Y460320D01*
X503168Y460131D01*
X503549Y459934D01*
X503926Y459727D01*
X504297Y459510D01*
X504662Y459285D01*
X505022Y459051D01*
X505377Y458808D01*
X505725Y458556D01*
X506067Y458296D01*
X506402Y458028D01*
X506731Y457751D01*
X507052Y457467D01*
X507367Y457174D01*
X507674Y456874D01*
X507974Y456567D01*
X508267Y456252D01*
X508551Y455931D01*
X508828Y455602D01*
X509096Y455267D01*
X509356Y454925D01*
X509608Y454577D01*
X509851Y454222D01*
X510085Y453862D01*
X510310Y453497D01*
X510527Y453126D01*
X510734Y452749D01*
X510931Y452368D01*
X511120Y451982D01*
X511299Y451592D01*
X511468Y451197D01*
X511627Y450798D01*
X511777Y450396D01*
X511917Y449989D01*
X512046Y449580D01*
X512166Y449167D01*
X512276Y448752D01*
X512375Y448334D01*
X512464Y447914D01*
X512542Y447492D01*
X512611Y447068D01*
X512668Y446642D01*
X512716Y446215D01*
X512753Y445787D01*
X512779Y445359D01*
X512795Y444929D01*
X512800Y444500D01*
X512795Y444071D01*
X512779Y443641D01*
X512753Y443213D01*
X512716Y442785D01*
X512668Y442358D01*
X512611Y441932D01*
X512542Y441508D01*
X512464Y441086D01*
X512375Y440666D01*
X512276Y440248D01*
X512166Y439833D01*
X512046Y439420D01*
X511917Y439011D01*
X511777Y438604D01*
X511627Y438202D01*
X511468Y437803D01*
X511299Y437408D01*
X511120Y437018D01*
X510931Y436632D01*
X510734Y436251D01*
X510527Y435874D01*
X510310Y435503D01*
X510085Y435138D01*
X509851Y434778D01*
X509608Y434423D01*
X509356Y434075D01*
X509096Y433733D01*
X508828Y433398D01*
X508551Y433069D01*
X508267Y432748D01*
X507974Y432433D01*
X507674Y432126D01*
X507367Y431826D01*
X507052Y431533D01*
X506731Y431249D01*
X506402Y430972D01*
X506067Y430704D01*
X505725Y430444D01*
X505377Y430192D01*
X505022Y429949D01*
X504662Y429715D01*
X504297Y429490D01*
X503926Y429273D01*
X503549Y429066D01*
X503168Y428869D01*
X502782Y428680D01*
X502392Y428501D01*
X501997Y428332D01*
X501598Y428173D01*
X501196Y428023D01*
X500789Y427883D01*
X500380Y427754D01*
X499967Y427634D01*
X499552Y427524D01*
X499134Y427425D01*
X498714Y427336D01*
X498292Y427258D01*
X497868Y427189D01*
X497442Y427132D01*
X497015Y427084D01*
X496587Y427047D01*
X496159Y427021D01*
X495729Y427005D01*
X495300Y427000D01*
X494871Y427005D01*
X494441Y427021D01*
X494013Y427047D01*
X493585Y427084D01*
X493158Y427132D01*
X492732Y427189D01*
X492308Y427258D01*
X491886Y427336D01*
X491466Y427425D01*
X491048Y427524D01*
X490633Y427634D01*
X490220Y427754D01*
X489811Y427883D01*
X489404Y428023D01*
X489002Y428173D01*
X488603Y428332D01*
X488208Y428501D01*
X487818Y428680D01*
X487432Y428869D01*
X487051Y429066D01*
X486674Y429273D01*
X486303Y429490D01*
X485938Y429715D01*
X485578Y429949D01*
X485223Y430192D01*
X484875Y430444D01*
X484533Y430704D01*
X484198Y430972D01*
X483869Y431249D01*
X483548Y431533D01*
X483233Y431826D01*
X482926Y432126D01*
X482626Y432433D01*
X482333Y432748D01*
X482049Y433069D01*
X481772Y433398D01*
X481504Y433733D01*
X481244Y434075D01*
X480992Y434423D01*
X480749Y434778D01*
X480515Y435138D01*
X480290Y435503D01*
X480073Y435874D01*
X479866Y436251D01*
X479669Y436632D01*
X479480Y437018D01*
X479301Y437408D01*
X479132Y437803D01*
X478973Y438202D01*
X478823Y438604D01*
X478683Y439011D01*
X478554Y439420D01*
X478434Y439833D01*
X478324Y440248D01*
X478225Y440666D01*
X478136Y441086D01*
X478058Y441508D01*
X477989Y441932D01*
X477932Y442358D01*
X477884Y442785D01*
X477847Y443213D01*
X477821Y443641D01*
X477805Y444071D01*
X477800Y444500D01*
X14250Y546100D02*
X14255Y546529D01*
X14271Y546959D01*
X14297Y547387D01*
X14334Y547815D01*
X14382Y548242D01*
X14439Y548668D01*
X14508Y549092D01*
X14586Y549514D01*
X14675Y549934D01*
X14774Y550352D01*
X14884Y550767D01*
X15004Y551180D01*
X15133Y551589D01*
X15273Y551996D01*
X15423Y552398D01*
X15582Y552797D01*
X15751Y553192D01*
X15930Y553582D01*
X16119Y553968D01*
X16316Y554349D01*
X16523Y554726D01*
X16740Y555097D01*
X16965Y555462D01*
X17199Y555822D01*
X17442Y556177D01*
X17694Y556525D01*
X17954Y556867D01*
X18222Y557202D01*
X18499Y557531D01*
X18783Y557852D01*
X19076Y558167D01*
X19376Y558474D01*
X19683Y558774D01*
X19998Y559067D01*
X20319Y559351D01*
X20648Y559628D01*
X20983Y559896D01*
X21325Y560156D01*
X21673Y560408D01*
X22028Y560651D01*
X22388Y560885D01*
X22753Y561110D01*
X23124Y561327D01*
X23501Y561534D01*
X23882Y561731D01*
X24268Y561920D01*
X24658Y562099D01*
X25053Y562268D01*
X25452Y562427D01*
X25854Y562577D01*
X26261Y562717D01*
X26670Y562846D01*
X27083Y562966D01*
X27498Y563076D01*
X27916Y563175D01*
X28336Y563264D01*
X28758Y563342D01*
X29182Y563411D01*
X29608Y563468D01*
X30035Y563516D01*
X30463Y563553D01*
X30891Y563579D01*
X31321Y563595D01*
X31750Y563600D01*
X32179Y563595D01*
X32609Y563579D01*
X33037Y563553D01*
X33465Y563516D01*
X33892Y563468D01*
X34318Y563411D01*
X34742Y563342D01*
X35164Y563264D01*
X35584Y563175D01*
X36002Y563076D01*
X36417Y562966D01*
X36830Y562846D01*
X37239Y562717D01*
X37646Y562577D01*
X38048Y562427D01*
X38447Y562268D01*
X38842Y562099D01*
X39232Y561920D01*
X39618Y561731D01*
X39999Y561534D01*
X40376Y561327D01*
X40747Y561110D01*
X41112Y560885D01*
X41472Y560651D01*
X41827Y560408D01*
X42175Y560156D01*
X42517Y559896D01*
X42852Y559628D01*
X43181Y559351D01*
X43502Y559067D01*
X43817Y558774D01*
X44124Y558474D01*
X44424Y558167D01*
X44717Y557852D01*
X45001Y557531D01*
X45278Y557202D01*
X45546Y556867D01*
X45806Y556525D01*
X46058Y556177D01*
X46301Y555822D01*
X46535Y555462D01*
X46760Y555097D01*
X46977Y554726D01*
X47184Y554349D01*
X47381Y553968D01*
X47570Y553582D01*
X47749Y553192D01*
X47918Y552797D01*
X48077Y552398D01*
X48227Y551996D01*
X48367Y551589D01*
X48496Y551180D01*
X48616Y550767D01*
X48726Y550352D01*
X48825Y549934D01*
X48914Y549514D01*
X48992Y549092D01*
X49061Y548668D01*
X49118Y548242D01*
X49166Y547815D01*
X49203Y547387D01*
X49229Y546959D01*
X49245Y546529D01*
X49250Y546100D01*
X49245Y545671D01*
X49229Y545241D01*
X49203Y544813D01*
X49166Y544385D01*
X49118Y543958D01*
X49061Y543532D01*
X48992Y543108D01*
X48914Y542686D01*
X48825Y542266D01*
X48726Y541848D01*
X48616Y541433D01*
X48496Y541020D01*
X48367Y540611D01*
X48227Y540204D01*
X48077Y539802D01*
X47918Y539403D01*
X47749Y539008D01*
X47570Y538618D01*
X47381Y538232D01*
X47184Y537851D01*
X46977Y537474D01*
X46760Y537103D01*
X46535Y536738D01*
X46301Y536378D01*
X46058Y536023D01*
X45806Y535675D01*
X45546Y535333D01*
X45278Y534998D01*
X45001Y534669D01*
X44717Y534348D01*
X44424Y534033D01*
X44124Y533726D01*
X43817Y533426D01*
X43502Y533133D01*
X43181Y532849D01*
X42852Y532572D01*
X42517Y532304D01*
X42175Y532044D01*
X41827Y531792D01*
X41472Y531549D01*
X41112Y531315D01*
X40747Y531090D01*
X40376Y530873D01*
X39999Y530666D01*
X39618Y530469D01*
X39232Y530280D01*
X38842Y530101D01*
X38447Y529932D01*
X38048Y529773D01*
X37646Y529623D01*
X37239Y529483D01*
X36830Y529354D01*
X36417Y529234D01*
X36002Y529124D01*
X35584Y529025D01*
X35164Y528936D01*
X34742Y528858D01*
X34318Y528789D01*
X33892Y528732D01*
X33465Y528684D01*
X33037Y528647D01*
X32609Y528621D01*
X32179Y528605D01*
X31750Y528600D01*
X31321Y528605D01*
X30891Y528621D01*
X30463Y528647D01*
X30035Y528684D01*
X29608Y528732D01*
X29182Y528789D01*
X28758Y528858D01*
X28336Y528936D01*
X27916Y529025D01*
X27498Y529124D01*
X27083Y529234D01*
X26670Y529354D01*
X26261Y529483D01*
X25854Y529623D01*
X25452Y529773D01*
X25053Y529932D01*
X24658Y530101D01*
X24268Y530280D01*
X23882Y530469D01*
X23501Y530666D01*
X23124Y530873D01*
X22753Y531090D01*
X22388Y531315D01*
X22028Y531549D01*
X21673Y531792D01*
X21325Y532044D01*
X20983Y532304D01*
X20648Y532572D01*
X20319Y532849D01*
X19998Y533133D01*
X19683Y533426D01*
X19376Y533726D01*
X19076Y534033D01*
X18783Y534348D01*
X18499Y534669D01*
X18222Y534998D01*
X17954Y535333D01*
X17694Y535675D01*
X17442Y536023D01*
X17199Y536378D01*
X16965Y536738D01*
X16740Y537103D01*
X16523Y537474D01*
X16316Y537851D01*
X16119Y538232D01*
X15930Y538618D01*
X15751Y539008D01*
X15582Y539403D01*
X15423Y539802D01*
X15273Y540204D01*
X15133Y540611D01*
X15004Y541020D01*
X14884Y541433D01*
X14774Y541848D01*
X14675Y542266D01*
X14586Y542686D01*
X14508Y543108D01*
X14439Y543532D01*
X14382Y543958D01*
X14334Y544385D01*
X14297Y544813D01*
X14271Y545241D01*
X14255Y545671D01*
X14250Y546100D01*
X134900Y222250D02*
X134905Y222679D01*
X134921Y223109D01*
X134947Y223537D01*
X134984Y223965D01*
X135032Y224392D01*
X135089Y224818D01*
X135158Y225242D01*
X135236Y225664D01*
X135325Y226084D01*
X135424Y226502D01*
X135534Y226917D01*
X135654Y227330D01*
X135783Y227739D01*
X135923Y228146D01*
X136073Y228548D01*
X136232Y228947D01*
X136401Y229342D01*
X136580Y229732D01*
X136769Y230118D01*
X136966Y230499D01*
X137173Y230876D01*
X137390Y231247D01*
X137615Y231612D01*
X137849Y231972D01*
X138092Y232327D01*
X138344Y232675D01*
X138604Y233017D01*
X138872Y233352D01*
X139149Y233681D01*
X139433Y234002D01*
X139726Y234317D01*
X140026Y234624D01*
X140333Y234924D01*
X140648Y235217D01*
X140969Y235501D01*
X141298Y235778D01*
X141633Y236046D01*
X141975Y236306D01*
X142323Y236558D01*
X142678Y236801D01*
X143038Y237035D01*
X143403Y237260D01*
X143774Y237477D01*
X144151Y237684D01*
X144532Y237881D01*
X144918Y238070D01*
X145308Y238249D01*
X145703Y238418D01*
X146102Y238577D01*
X146504Y238727D01*
X146911Y238867D01*
X147320Y238996D01*
X147733Y239116D01*
X148148Y239226D01*
X148566Y239325D01*
X148986Y239414D01*
X149408Y239492D01*
X149832Y239561D01*
X150258Y239618D01*
X150685Y239666D01*
X151113Y239703D01*
X151541Y239729D01*
X151971Y239745D01*
X152400Y239750D01*
X152829Y239745D01*
X153259Y239729D01*
X153687Y239703D01*
X154115Y239666D01*
X154542Y239618D01*
X154968Y239561D01*
X155392Y239492D01*
X155814Y239414D01*
X156234Y239325D01*
X156652Y239226D01*
X157067Y239116D01*
X157480Y238996D01*
X157889Y238867D01*
X158296Y238727D01*
X158698Y238577D01*
X159097Y238418D01*
X159492Y238249D01*
X159882Y238070D01*
X160268Y237881D01*
X160649Y237684D01*
X161026Y237477D01*
X161397Y237260D01*
X161762Y237035D01*
X162122Y236801D01*
X162477Y236558D01*
X162825Y236306D01*
X163167Y236046D01*
X163502Y235778D01*
X163831Y235501D01*
X164152Y235217D01*
X164467Y234924D01*
X164774Y234624D01*
X165074Y234317D01*
X165367Y234002D01*
X165651Y233681D01*
X165928Y233352D01*
X166196Y233017D01*
X166456Y232675D01*
X166708Y232327D01*
X166951Y231972D01*
X167185Y231612D01*
X167410Y231247D01*
X167627Y230876D01*
X167834Y230499D01*
X168031Y230118D01*
X168220Y229732D01*
X168399Y229342D01*
X168568Y228947D01*
X168727Y228548D01*
X168877Y228146D01*
X169017Y227739D01*
X169146Y227330D01*
X169266Y226917D01*
X169376Y226502D01*
X169475Y226084D01*
X169564Y225664D01*
X169642Y225242D01*
X169711Y224818D01*
X169768Y224392D01*
X169816Y223965D01*
X169853Y223537D01*
X169879Y223109D01*
X169895Y222679D01*
X169900Y222250D01*
X169895Y221821D01*
X169879Y221391D01*
X169853Y220963D01*
X169816Y220535D01*
X169768Y220108D01*
X169711Y219682D01*
X169642Y219258D01*
X169564Y218836D01*
X169475Y218416D01*
X169376Y217998D01*
X169266Y217583D01*
X169146Y217170D01*
X169017Y216761D01*
X168877Y216354D01*
X168727Y215952D01*
X168568Y215553D01*
X168399Y215158D01*
X168220Y214768D01*
X168031Y214382D01*
X167834Y214001D01*
X167627Y213624D01*
X167410Y213253D01*
X167185Y212888D01*
X166951Y212528D01*
X166708Y212173D01*
X166456Y211825D01*
X166196Y211483D01*
X165928Y211148D01*
X165651Y210819D01*
X165367Y210498D01*
X165074Y210183D01*
X164774Y209876D01*
X164467Y209576D01*
X164152Y209283D01*
X163831Y208999D01*
X163502Y208722D01*
X163167Y208454D01*
X162825Y208194D01*
X162477Y207942D01*
X162122Y207699D01*
X161762Y207465D01*
X161397Y207240D01*
X161026Y207023D01*
X160649Y206816D01*
X160268Y206619D01*
X159882Y206430D01*
X159492Y206251D01*
X159097Y206082D01*
X158698Y205923D01*
X158296Y205773D01*
X157889Y205633D01*
X157480Y205504D01*
X157067Y205384D01*
X156652Y205274D01*
X156234Y205175D01*
X155814Y205086D01*
X155392Y205008D01*
X154968Y204939D01*
X154542Y204882D01*
X154115Y204834D01*
X153687Y204797D01*
X153259Y204771D01*
X152829Y204755D01*
X152400Y204750D01*
X151971Y204755D01*
X151541Y204771D01*
X151113Y204797D01*
X150685Y204834D01*
X150258Y204882D01*
X149832Y204939D01*
X149408Y205008D01*
X148986Y205086D01*
X148566Y205175D01*
X148148Y205274D01*
X147733Y205384D01*
X147320Y205504D01*
X146911Y205633D01*
X146504Y205773D01*
X146102Y205923D01*
X145703Y206082D01*
X145308Y206251D01*
X144918Y206430D01*
X144532Y206619D01*
X144151Y206816D01*
X143774Y207023D01*
X143403Y207240D01*
X143038Y207465D01*
X142678Y207699D01*
X142323Y207942D01*
X141975Y208194D01*
X141633Y208454D01*
X141298Y208722D01*
X140969Y208999D01*
X140648Y209283D01*
X140333Y209576D01*
X140026Y209876D01*
X139726Y210183D01*
X139433Y210498D01*
X139149Y210819D01*
X138872Y211148D01*
X138604Y211483D01*
X138344Y211825D01*
X138092Y212173D01*
X137849Y212528D01*
X137615Y212888D01*
X137390Y213253D01*
X137173Y213624D01*
X136966Y214001D01*
X136769Y214382D01*
X136580Y214768D01*
X136401Y215158D01*
X136232Y215553D01*
X136073Y215952D01*
X135923Y216354D01*
X135783Y216761D01*
X135654Y217170D01*
X135534Y217583D01*
X135424Y217998D01*
X135325Y218416D01*
X135236Y218836D01*
X135158Y219258D01*
X135089Y219682D01*
X135032Y220108D01*
X134984Y220535D01*
X134947Y220963D01*
X134921Y221391D01*
X134905Y221821D01*
X134900Y222250D01*
M02*
