G04 EAGLE Gerber RS-274X export*
G75*
%MOMM*%
%FSLAX34Y34*%
%LPD*%
%INTop Layer*%
%IPPOS*%
%AMOC8*
5,1,8,0,0,1.08239X$1,22.5*%
G01*
%ADD10C,0.304800*%
%ADD11C,0.000000*%
%ADD12C,1.950000*%
%ADD13R,1.950000X1.950000*%
%ADD14C,1.508000*%
%ADD15C,2.000000*%
%ADD16C,0.812800*%
%ADD17C,0.152400*%


D10*
X0Y0D02*
X587250Y0D01*
D11*
X587250Y609500D01*
X0Y609500D01*
D10*
X0Y0D01*
D12*
X355400Y138500D03*
X320400Y63500D03*
X390400Y63500D03*
D13*
X152400Y63500D03*
D12*
X152400Y138500D03*
X355400Y557600D03*
X320400Y482600D03*
X390400Y482600D03*
D13*
X152400Y482600D03*
D12*
X152400Y557600D03*
X355400Y341700D03*
X320400Y266700D03*
X390400Y266700D03*
D13*
X152400Y266700D03*
D12*
X152400Y341700D03*
D14*
X538560Y342900D02*
X553640Y342900D01*
X553640Y317500D02*
X538560Y317500D01*
X538560Y292100D02*
X553640Y292100D01*
X553640Y266700D02*
X538560Y266700D01*
D15*
X63250Y120439D03*
X63250Y171239D03*
X63250Y463339D03*
X63250Y514139D03*
X63250Y279189D03*
X63250Y329989D03*
D10*
X355092Y341376D02*
X355092Y138684D01*
X355400Y138500D01*
X355092Y341376D02*
X355400Y341700D01*
X355092Y342900D02*
X355092Y556260D01*
X355400Y557600D01*
X355092Y342900D02*
X355400Y341700D01*
D16*
X152400Y64008D02*
X138176Y64008D01*
X81745Y120439D01*
X63250Y120439D01*
D10*
X152400Y64008D02*
X152400Y63500D01*
D16*
X152400Y483108D02*
X108419Y483108D01*
X88650Y463339D01*
X63250Y463339D01*
D10*
X152400Y482600D02*
X152400Y483108D01*
D16*
X152400Y266700D02*
X120650Y266700D01*
X108161Y279189D02*
X63250Y279189D01*
X108161Y279189D02*
X120650Y266700D01*
D10*
X390400Y130050D02*
X390400Y63500D01*
X390400Y130050D02*
X527050Y266700D01*
X546100Y266700D01*
D17*
X545592Y291084D02*
X546100Y292100D01*
X391668Y266700D02*
X390400Y266700D01*
D10*
X488950Y292100D02*
X546100Y292100D01*
X488950Y292100D02*
X463550Y266700D01*
X390400Y266700D01*
X390400Y454150D02*
X390400Y482600D01*
X390400Y454150D02*
X527050Y317500D01*
X546100Y317500D01*
D16*
X152400Y137160D02*
X129079Y137160D01*
X95000Y171239D01*
X63250Y171239D01*
D10*
X152400Y138500D02*
X152400Y137160D01*
D16*
X152400Y341376D02*
X119126Y341376D01*
X107739Y329989D01*
X63250Y329989D01*
D10*
X152400Y341376D02*
X152400Y341700D01*
D16*
X152400Y556260D02*
X136652Y556260D01*
X94531Y514139D01*
X63250Y514139D01*
D10*
X152400Y556260D02*
X152400Y557600D01*
M02*
