G04 EAGLE Gerber RS-274X export*
G75*
%MOMM*%
%FSLAX34Y34*%
%LPD*%
%INBottom Copper*%
%IPPOS*%
%AMOC8*
5,1,8,0,0,1.08239X$1,22.5*%
G01*
%ADD10P,1.649562X8X22.500000*%
%ADD11P,1.649562X8X112.500000*%
%ADD12C,3.810000*%
%ADD13C,5.080000*%
%ADD14C,1.508000*%
%ADD15C,0.304800*%
%ADD16C,0.508000*%
%ADD17C,0.756400*%

G36*
X451861Y220741D02*
X451861Y220741D01*
X451987Y220748D01*
X452034Y220761D01*
X452082Y220767D01*
X452201Y220809D01*
X452322Y220844D01*
X452364Y220868D01*
X452410Y220884D01*
X452516Y220953D01*
X452627Y221014D01*
X452673Y221054D01*
X452703Y221073D01*
X452736Y221108D01*
X452813Y221173D01*
X453331Y221691D01*
X455841Y222731D01*
X458559Y222731D01*
X461277Y221605D01*
X461279Y221604D01*
X461281Y221603D01*
X461443Y221557D01*
X461612Y221509D01*
X461614Y221509D01*
X461616Y221508D01*
X461860Y221489D01*
X464662Y221489D01*
X466221Y220843D01*
X466223Y220842D01*
X466225Y220841D01*
X466390Y220795D01*
X466556Y220747D01*
X466559Y220747D01*
X466560Y220746D01*
X466804Y220727D01*
X482600Y220727D01*
X482726Y220741D01*
X482852Y220748D01*
X482898Y220761D01*
X482946Y220767D01*
X483065Y220809D01*
X483187Y220844D01*
X483229Y220868D01*
X483274Y220884D01*
X483381Y220953D01*
X483491Y221014D01*
X483537Y221054D01*
X483567Y221073D01*
X483601Y221108D01*
X483677Y221173D01*
X490027Y227523D01*
X490106Y227622D01*
X490190Y227716D01*
X490214Y227758D01*
X490244Y227796D01*
X490298Y227910D01*
X490359Y228021D01*
X490372Y228067D01*
X490393Y228111D01*
X490419Y228234D01*
X490454Y228356D01*
X490459Y228417D01*
X490466Y228452D01*
X490465Y228500D01*
X490473Y228600D01*
X490473Y381000D01*
X490459Y381126D01*
X490452Y381252D01*
X490439Y381298D01*
X490433Y381346D01*
X490391Y381465D01*
X490356Y381587D01*
X490332Y381629D01*
X490316Y381674D01*
X490247Y381781D01*
X490186Y381891D01*
X490146Y381937D01*
X490127Y381967D01*
X490092Y382001D01*
X490027Y382077D01*
X483677Y388427D01*
X483578Y388506D01*
X483484Y388590D01*
X483442Y388614D01*
X483404Y388644D01*
X483290Y388698D01*
X483179Y388759D01*
X483133Y388772D01*
X483089Y388793D01*
X482966Y388819D01*
X482844Y388854D01*
X482783Y388859D01*
X482748Y388866D01*
X482700Y388865D01*
X482600Y388873D01*
X425450Y388873D01*
X425324Y388859D01*
X425198Y388852D01*
X425152Y388839D01*
X425104Y388833D01*
X424985Y388791D01*
X424863Y388756D01*
X424821Y388732D01*
X424776Y388716D01*
X424669Y388647D01*
X424559Y388586D01*
X424513Y388546D01*
X424483Y388527D01*
X424449Y388492D01*
X424373Y388427D01*
X418023Y382077D01*
X417944Y381978D01*
X417860Y381884D01*
X417836Y381842D01*
X417806Y381804D01*
X417752Y381690D01*
X417691Y381579D01*
X417678Y381533D01*
X417657Y381489D01*
X417631Y381366D01*
X417596Y381244D01*
X417592Y381183D01*
X417584Y381148D01*
X417585Y381100D01*
X417577Y381000D01*
X417577Y228600D01*
X417591Y228474D01*
X417598Y228348D01*
X417611Y228302D01*
X417617Y228254D01*
X417659Y228135D01*
X417694Y228013D01*
X417718Y227971D01*
X417734Y227926D01*
X417803Y227819D01*
X417864Y227709D01*
X417904Y227663D01*
X417923Y227633D01*
X417958Y227599D01*
X418023Y227523D01*
X424373Y221173D01*
X424472Y221094D01*
X424566Y221010D01*
X424608Y220986D01*
X424646Y220956D01*
X424760Y220902D01*
X424871Y220841D01*
X424917Y220828D01*
X424961Y220807D01*
X425084Y220781D01*
X425206Y220746D01*
X425267Y220742D01*
X425302Y220734D01*
X425350Y220735D01*
X425450Y220727D01*
X451736Y220727D01*
X451861Y220741D01*
G37*
D10*
X158750Y31750D03*
X184150Y31750D03*
D11*
X546100Y158750D03*
X520700Y158750D03*
X546100Y184150D03*
X520700Y184150D03*
X546100Y209550D03*
X520700Y209550D03*
D10*
X127000Y254000D03*
X127000Y381000D03*
X127000Y279400D03*
X127000Y304800D03*
X127000Y330200D03*
X127000Y355600D03*
X158750Y431800D03*
X234950Y488950D03*
X247650Y165100D03*
X57150Y495300D03*
X158750Y209550D03*
X158750Y184150D03*
D12*
X101600Y577850D03*
X127000Y527050D03*
D13*
X158750Y577850D03*
D10*
X82550Y495300D03*
D14*
X64690Y254000D02*
X49610Y254000D01*
X49610Y279400D02*
X64690Y279400D01*
X64690Y304800D02*
X49610Y304800D01*
X49610Y330200D02*
X64690Y330200D01*
X64690Y355600D02*
X49610Y355600D01*
X49610Y381000D02*
X64690Y381000D01*
X64690Y133350D02*
X49610Y133350D01*
X49610Y158750D02*
X64690Y158750D01*
X64690Y184150D02*
X49610Y184150D01*
X49610Y209550D02*
X64690Y209550D01*
X64690Y38100D02*
X49610Y38100D01*
X49610Y63500D02*
X64690Y63500D01*
X64690Y88900D02*
X49610Y88900D01*
X49610Y425450D02*
X64690Y425450D01*
X64690Y450850D02*
X49610Y450850D01*
X527050Y595710D02*
X527050Y610790D01*
X501650Y610790D02*
X501650Y595710D01*
X476250Y595710D02*
X476250Y610790D01*
X450850Y610790D02*
X450850Y595710D01*
X425450Y595710D02*
X425450Y610790D01*
X400050Y610790D02*
X400050Y595710D01*
X374650Y595710D02*
X374650Y610790D01*
X349250Y610790D02*
X349250Y595710D01*
D15*
X127000Y279400D02*
X57150Y279400D01*
D16*
X57150Y63500D02*
X76200Y63500D01*
X82550Y69850D01*
X82550Y152400D01*
X82550Y153670D02*
X82550Y158750D01*
X82550Y153670D02*
X82550Y152400D01*
X82550Y165100D02*
X82550Y215900D01*
X82550Y165100D02*
X82550Y163830D01*
X82550Y161290D01*
X82550Y158750D01*
X63500Y234950D02*
X44450Y234950D01*
X31750Y247650D02*
X31750Y273050D01*
X38100Y279400D01*
X57150Y279400D01*
X63500Y234950D02*
X82550Y215900D01*
X44450Y234950D02*
X31750Y247650D01*
D15*
X57150Y158750D02*
X76200Y158750D01*
X81280Y158750D02*
X82550Y158750D01*
X79375Y155575D02*
X76200Y158750D01*
X79375Y155575D02*
X81280Y153670D01*
X82550Y152400D01*
X81280Y153670D02*
X81280Y156210D01*
X81280Y157480D01*
X81280Y158750D01*
X81280Y157480D02*
X79375Y155575D01*
X82550Y153670D02*
X77470Y158750D01*
X78740Y158750D01*
X79375Y158115D01*
X81280Y156210D01*
X80645Y158750D02*
X78740Y158750D01*
X77470Y158750D02*
X76200Y158750D01*
X77470Y158750D02*
X79375Y160655D01*
X80010Y161290D02*
X82550Y163830D01*
X80010Y161290D02*
X79375Y160655D01*
X79375Y160020D01*
X79375Y158115D01*
X80645Y158750D02*
X81280Y158750D01*
X80645Y158750D02*
X79375Y160020D01*
X80010Y161290D02*
X82550Y158750D01*
X82550Y161290D02*
X80010Y161290D01*
X76200Y158750D02*
X82550Y165100D01*
D17*
X425450Y374650D03*
X425450Y203200D03*
D16*
X425450Y133350D01*
X393700Y101600D01*
X342900Y101600D01*
D17*
X342900Y101600D03*
D16*
X495300Y158750D02*
X520700Y158750D01*
X495300Y158750D02*
X450850Y203200D01*
X425450Y203200D01*
D17*
X425450Y234950D03*
X400050Y349250D03*
X406400Y323850D03*
D15*
X406400Y222250D01*
X425450Y203200D01*
X419100Y349250D02*
X400050Y349250D01*
D17*
X476250Y63500D03*
D16*
X520700Y107950D01*
X520700Y158750D01*
D17*
X196850Y165100D03*
X196850Y254000D03*
X273050Y266700D03*
X387350Y266700D03*
D15*
X127000Y254000D02*
X57150Y254000D01*
X196850Y254000D02*
X196850Y165100D01*
D16*
X273050Y266700D02*
X387350Y266700D01*
D15*
X488950Y190500D02*
X501650Y203200D01*
X501650Y603250D01*
D16*
X463550Y215900D02*
X488950Y190500D01*
X463550Y215900D02*
X457200Y215900D01*
D17*
X457200Y215900D03*
X488950Y190500D03*
D15*
X57150Y88900D02*
X19050Y88900D01*
X12700Y95250D01*
D16*
X12700Y86360D02*
X12700Y82550D01*
X12700Y50800D01*
X50800Y12700D01*
X196850Y12700D01*
X234950Y488950D02*
X222250Y501650D01*
X146050Y501650D01*
X114300Y469900D01*
X44450Y469900D01*
X12700Y438150D01*
X12700Y95250D01*
D15*
X19050Y88900D02*
X17145Y86995D01*
X16510Y86360D02*
X15240Y85090D01*
X14605Y84455D01*
X12700Y82550D01*
X12700Y93980D02*
X12700Y95250D01*
D16*
X12700Y93980D02*
X12700Y92710D01*
D15*
X12700Y91440D01*
D16*
X12700Y90170D01*
X12700Y88900D01*
X12700Y86360D01*
D15*
X14605Y84455D01*
X15240Y85090D02*
X15240Y86360D01*
X12700Y88900D01*
X15240Y88900D02*
X17145Y86995D01*
X16510Y86360D01*
X12700Y86360D01*
X15240Y88900D02*
X16510Y88900D01*
X13970Y88900D02*
X12700Y88900D01*
X17780Y88900D02*
X19050Y88900D01*
X17780Y88900D02*
X12700Y93980D01*
D16*
X12700Y92710D02*
X16510Y88900D01*
D15*
X15240Y88900D02*
X13970Y88900D01*
X12700Y90170D01*
X16510Y88900D02*
X17780Y88900D01*
X15240Y88900D02*
X12700Y91440D01*
X13970Y88900D02*
X16510Y86360D01*
D16*
X196850Y12700D02*
X342900Y158750D01*
X342900Y184150D01*
D17*
X342900Y184150D03*
X406400Y393700D03*
D15*
X393700Y381000D01*
D17*
X311150Y381000D03*
D15*
X393700Y381000D01*
X127000Y355600D02*
X57150Y355600D01*
D17*
X254000Y342900D03*
D15*
X241300Y342900D01*
X228600Y355600D01*
X127000Y355600D01*
X387350Y431800D02*
X425450Y469900D01*
X387350Y431800D02*
X381000Y431800D01*
X425450Y469900D02*
X425450Y603250D01*
D17*
X254000Y419100D03*
D15*
X254000Y342900D01*
D17*
X381000Y431800D03*
D15*
X127000Y330200D02*
X57150Y330200D01*
D17*
X266700Y330200D03*
D15*
X127000Y330200D01*
X266700Y330200D02*
X266700Y406400D01*
D17*
X266700Y406400D03*
X381000Y406400D03*
D15*
X387350Y406400D01*
X476250Y495300D01*
X476250Y603250D01*
X127000Y304800D02*
X57150Y304800D01*
D17*
X279400Y342900D03*
D15*
X279400Y330200D01*
X254000Y304800D01*
X279400Y342900D02*
X279400Y419100D01*
D17*
X279400Y419100D03*
X381000Y419100D03*
D15*
X387350Y419100D01*
X450850Y482600D02*
X450850Y603250D01*
X450850Y482600D02*
X387350Y419100D01*
X254000Y304800D02*
X190500Y304800D01*
X184150Y311150D01*
X133350Y311150D01*
X127000Y304800D01*
X330200Y520700D02*
X349250Y539750D01*
X349250Y603250D01*
D17*
X330200Y393700D03*
D15*
X330200Y520700D01*
D17*
X286900Y297300D03*
D15*
X286900Y305950D01*
X292100Y311150D01*
X292100Y349250D01*
X285750Y355600D01*
X292100Y419100D02*
X279400Y431800D01*
X292100Y419100D02*
X292100Y400050D01*
X285750Y393700D01*
X285750Y355600D01*
X279400Y431800D02*
X158750Y431800D01*
X158750Y31750D02*
X88900Y31750D01*
X82550Y38100D01*
X57150Y38100D01*
X184150Y31750D02*
X184150Y63500D01*
D17*
X184150Y63500D03*
D15*
X273050Y279400D02*
X285750Y279400D01*
X273050Y279400D02*
X228600Y234950D01*
X228600Y171450D01*
X184150Y127000D01*
X184150Y101600D01*
D17*
X184150Y101600D03*
X298450Y387350D03*
D15*
X298450Y374650D01*
X304800Y368300D01*
X304800Y298450D01*
X285750Y279400D01*
D16*
X82550Y495300D02*
X82550Y520700D01*
X139700Y577850D02*
X158750Y577850D01*
X139700Y577850D02*
X82550Y520700D01*
D17*
X368300Y393700D03*
D15*
X368300Y514350D01*
X400050Y546100D01*
X400050Y603250D01*
X355600Y527050D02*
X355600Y393700D01*
D17*
X355600Y393700D03*
D15*
X355600Y527050D02*
X374650Y546100D01*
X374650Y603250D01*
X127000Y381000D02*
X57150Y381000D01*
D17*
X184150Y381000D03*
D15*
X127000Y381000D01*
D17*
X177800Y628650D03*
D15*
X254000Y628650D01*
X273050Y609600D01*
D17*
X273050Y609600D03*
M02*
