G04 EAGLE Gerber RS-274X export*
G75*
%MOMM*%
%FSLAX34Y34*%
%LPD*%
%INSilkscreen Bottom*%
%IPPOS*%
%AMOC8*
5,1,8,0,0,1.08239X$1,22.5*%
G01*
%ADD10C,0.000000*%
%ADD11C,0.152400*%
%ADD12R,0.303694X0.013800*%
%ADD13R,0.745431X0.013806*%
%ADD14R,1.049131X0.013800*%
%ADD15R,1.642719X0.013800*%
%ADD16R,1.863581X0.013806*%
%ADD17R,0.952500X0.013800*%
%ADD18R,0.386519X0.013800*%
%ADD19R,0.773044X0.013800*%
%ADD20R,0.345106X0.013800*%
%ADD21R,0.262281X0.013806*%
%ADD22R,0.317500X0.013806*%
%ADD23R,0.179456X0.013800*%
%ADD24R,0.289888X0.013800*%
%ADD25R,0.151844X0.013806*%
%ADD26R,0.276087X0.013806*%
%ADD27R,0.124238X0.013800*%
%ADD28R,0.248475X0.013800*%
%ADD29R,0.110431X0.013800*%
%ADD30R,0.262281X0.013800*%
%ADD31R,0.069019X0.013806*%
%ADD32R,0.055213X0.013800*%
%ADD33R,0.276087X0.013800*%
%ADD34R,0.041413X0.013806*%
%ADD35R,0.289888X0.013806*%
%ADD36R,0.055219X0.013800*%
%ADD37R,0.317500X0.013800*%
%ADD38R,0.331306X0.013800*%
%ADD39R,0.055219X0.013806*%
%ADD40R,0.345113X0.013806*%
%ADD41R,0.069019X0.013800*%
%ADD42R,0.345113X0.013800*%
%ADD43R,0.055213X0.013806*%
%ADD44R,0.303694X0.013806*%
%ADD45R,0.289894X0.013800*%
%ADD46R,0.041413X0.013800*%
%ADD47R,0.041406X0.013800*%
%ADD48R,0.331300X0.013800*%
%ADD49R,0.041406X0.013806*%
%ADD50R,0.358913X0.013806*%
%ADD51R,0.207063X0.013800*%
%ADD52R,0.358913X0.013800*%
%ADD53R,0.441738X0.013806*%
%ADD54R,0.593581X0.013800*%
%ADD55R,0.331300X0.013806*%
%ADD56R,0.386519X0.013806*%
%ADD57R,0.372719X0.013800*%
%ADD58R,0.220869X0.013800*%
%ADD59R,0.427931X0.013800*%
%ADD60R,0.441738X0.013800*%
%ADD61R,0.193256X0.013800*%
%ADD62R,0.455544X0.013806*%
%ADD63R,0.372719X0.013806*%
%ADD64R,0.179456X0.013806*%
%ADD65R,0.151850X0.013800*%
%ADD66R,0.138044X0.013800*%
%ADD67R,0.096631X0.013800*%
%ADD68R,0.234675X0.013800*%
%ADD69R,0.082825X0.013806*%
%ADD70R,0.138044X0.013806*%
%ADD71R,0.110431X0.013806*%
%ADD72R,0.013806X0.013800*%
%ADD73R,0.124238X0.013806*%
%ADD74R,0.096631X0.013806*%
%ADD75R,0.138038X0.013800*%
%ADD76R,0.096625X0.013800*%
%ADD77R,0.096625X0.013806*%
%ADD78R,0.248475X0.013806*%
%ADD79R,0.234669X0.013800*%
%ADD80R,0.234675X0.013806*%
%ADD81R,0.151844X0.013800*%
%ADD82R,0.082825X0.013800*%
%ADD83R,0.165650X0.013800*%
%ADD84R,0.234669X0.013806*%
%ADD85R,0.496956X0.013800*%
%ADD86R,0.303700X0.013800*%
%ADD87R,0.082819X0.013806*%
%ADD88R,0.276081X0.013806*%
%ADD89R,0.220863X0.013800*%
%ADD90R,0.207063X0.013806*%
%ADD91R,0.179450X0.013806*%
%ADD92R,0.165650X0.013806*%
%ADD93R,0.193263X0.013800*%
%ADD94R,0.193263X0.013806*%
%ADD95R,0.193256X0.013806*%
%ADD96R,0.110438X0.013800*%
%ADD97R,0.151850X0.013806*%
%ADD98R,0.165656X0.013800*%
%ADD99R,0.027606X0.013800*%
%ADD100R,0.124244X0.013806*%
%ADD101R,0.069025X0.013806*%
%ADD102R,0.082819X0.013800*%
%ADD103R,0.027613X0.013800*%
%ADD104R,0.220869X0.013806*%
%ADD105R,0.027606X0.013806*%
%ADD106R,0.013800X0.013800*%
%ADD107R,0.276081X0.013800*%
%ADD108R,0.289894X0.013806*%
%ADD109R,0.331306X0.013806*%
%ADD110R,0.372713X0.013800*%
%ADD111R,0.400325X0.013806*%
%ADD112R,0.427938X0.013800*%
%ADD113R,0.414131X0.013800*%
%ADD114R,0.469350X0.013800*%
%ADD115R,0.469344X0.013800*%
%ADD116R,0.483150X0.013806*%
%ADD117R,0.455544X0.013800*%
%ADD118R,0.496950X0.013800*%
%ADD119R,0.496956X0.013806*%
%ADD120R,0.510763X0.013800*%
%ADD121R,0.510756X0.013806*%
%ADD122R,0.483150X0.013800*%
%ADD123R,0.510756X0.013800*%
%ADD124R,0.524569X0.013806*%
%ADD125R,0.524563X0.013800*%
%ADD126R,0.538369X0.013800*%
%ADD127R,0.538369X0.013806*%
%ADD128R,0.565975X0.013806*%
%ADD129R,0.552175X0.013800*%
%ADD130R,0.565975X0.013800*%
%ADD131R,0.552175X0.013806*%
%ADD132R,0.579781X0.013806*%
%ADD133R,0.579781X0.013800*%
%ADD134R,0.607388X0.013800*%
%ADD135R,0.607394X0.013806*%
%ADD136R,0.593588X0.013800*%
%ADD137R,0.621194X0.013800*%
%ADD138R,0.593588X0.013806*%
%ADD139R,0.621194X0.013806*%
%ADD140R,0.607394X0.013800*%
%ADD141R,0.635000X0.013800*%
%ADD142R,0.648806X0.013800*%
%ADD143R,0.662606X0.013806*%
%ADD144R,0.676406X0.013800*%
%ADD145R,0.690219X0.013800*%
%ADD146R,0.648800X0.013806*%
%ADD147R,0.690213X0.013806*%
%ADD148R,0.648800X0.013800*%
%ADD149R,0.690219X0.013806*%
%ADD150R,0.690213X0.013800*%
%ADD151R,0.648806X0.013806*%
%ADD152R,0.676413X0.013806*%
%ADD153R,0.662613X0.013800*%
%ADD154R,0.662606X0.013800*%
%ADD155R,0.635000X0.013806*%
%ADD156R,0.621200X0.013806*%
%ADD157R,0.510763X0.013806*%
%ADD158R,0.069025X0.013800*%
%ADD159R,0.427931X0.013806*%
%ADD160R,0.400325X0.013800*%
%ADD161R,0.220863X0.013806*%
%ADD162R,0.911088X0.013800*%
%ADD163R,1.076738X0.013806*%
%ADD164R,1.200975X0.013800*%
%ADD165R,1.311406X0.013806*%
%ADD166R,0.124244X0.013800*%
%ADD167R,0.110438X0.013806*%
%ADD168R,0.165656X0.013806*%
%ADD169R,0.717825X0.013800*%
%ADD170R,0.745438X0.013800*%
%ADD171R,0.786844X0.013806*%
%ADD172R,0.800650X0.013800*%
%ADD173R,0.828256X0.013800*%
%ADD174R,0.855869X0.013806*%
%ADD175R,0.869669X0.013800*%
%ADD176R,0.897281X0.013806*%
%ADD177R,0.924888X0.013806*%
%ADD178R,0.938694X0.013800*%
%ADD179R,0.966306X0.013806*%
%ADD180R,0.607388X0.013806*%
%ADD181R,0.966306X0.013800*%
%ADD182R,0.704019X0.013800*%
%ADD183R,0.980106X0.013800*%
%ADD184R,0.993906X0.013806*%
%ADD185R,0.993906X0.013800*%
%ADD186R,0.842063X0.013800*%
%ADD187R,1.007713X0.013806*%
%ADD188R,0.883475X0.013806*%
%ADD189R,1.007713X0.013800*%
%ADD190R,0.786844X0.013800*%
%ADD191R,1.021519X0.013806*%
%ADD192R,1.035325X0.013800*%
%ADD193R,1.035325X0.013806*%
%ADD194R,0.524563X0.013806*%
%ADD195R,0.345106X0.013806*%
%ADD196R,0.745431X0.013800*%
%ADD197R,0.842063X0.013806*%
%ADD198R,0.386525X0.013806*%
%ADD199R,1.021519X0.013800*%
%ADD200R,0.372713X0.013806*%
%ADD201R,0.469350X0.013806*%
%ADD202R,1.007719X0.013806*%
%ADD203R,1.007719X0.013800*%
%ADD204R,0.013800X0.013806*%
%ADD205R,0.980106X0.013806*%
%ADD206R,0.013806X0.013806*%
%ADD207R,0.538363X0.013806*%
%ADD208R,0.938694X0.013806*%
%ADD209R,0.538363X0.013800*%
%ADD210R,0.924888X0.013800*%
%ADD211R,0.704019X0.013806*%
%ADD212R,0.138038X0.013806*%
%ADD213R,0.911088X0.013806*%
%ADD214R,0.786850X0.013800*%
%ADD215R,0.897281X0.013800*%
%ADD216R,0.842069X0.013806*%
%ADD217R,0.869675X0.013800*%
%ADD218R,0.731631X0.013800*%
%ADD219R,0.179450X0.013800*%
%ADD220R,0.469344X0.013806*%
%ADD221R,0.455538X0.013800*%
%ADD222R,0.455538X0.013806*%
%ADD223R,0.414131X0.013806*%
%ADD224R,0.414125X0.013800*%
%ADD225R,0.869675X0.013806*%
%ADD226R,0.027613X0.013806*%
%ADD227R,0.717819X0.013806*%
%ADD228R,1.228588X0.013806*%
%ADD229R,1.270000X0.013800*%
%ADD230R,1.283800X0.013800*%
%ADD231R,1.242394X0.013806*%
%ADD232R,0.207069X0.013800*%
%ADD233R,0.828256X0.013806*%
%ADD234R,0.676413X0.013800*%
%ADD235R,1.131956X0.013800*%
%ADD236R,0.980113X0.013806*%
%ADD237R,1.214781X0.013800*%
%ADD238R,0.427938X0.013806*%
%ADD239R,0.759244X0.013800*%
%ADD240R,0.759244X0.013806*%
%ADD241R,0.552169X0.013800*%
%ADD242R,1.311413X0.013800*%
%ADD243R,1.311413X0.013806*%
%ADD244R,0.593581X0.013806*%
%ADD245R,0.731625X0.013806*%
%ADD246R,0.731625X0.013800*%
%ADD247R,0.759238X0.013800*%
%ADD248R,0.759238X0.013806*%
%ADD249R,0.773044X0.013806*%
%ADD250R,0.786850X0.013806*%
%ADD251R,0.717819X0.013800*%


D10*
X0Y0D02*
X574550Y0D01*
X574550Y647600D01*
X0Y647600D01*
X0Y0D01*
D11*
X551688Y93472D02*
X551688Y109728D01*
X544463Y109728D01*
X544463Y102503D02*
X551688Y102503D01*
X533794Y93472D02*
X533676Y93474D01*
X533558Y93480D01*
X533440Y93489D01*
X533323Y93503D01*
X533206Y93520D01*
X533089Y93541D01*
X532974Y93566D01*
X532859Y93595D01*
X532745Y93628D01*
X532633Y93664D01*
X532522Y93704D01*
X532412Y93747D01*
X532303Y93794D01*
X532196Y93844D01*
X532091Y93899D01*
X531988Y93956D01*
X531887Y94017D01*
X531787Y94081D01*
X531690Y94148D01*
X531595Y94218D01*
X531503Y94292D01*
X531412Y94368D01*
X531325Y94448D01*
X531240Y94530D01*
X531158Y94615D01*
X531078Y94702D01*
X531002Y94793D01*
X530928Y94885D01*
X530858Y94980D01*
X530791Y95077D01*
X530727Y95177D01*
X530666Y95278D01*
X530609Y95381D01*
X530554Y95486D01*
X530504Y95593D01*
X530457Y95702D01*
X530414Y95812D01*
X530374Y95923D01*
X530338Y96035D01*
X530305Y96149D01*
X530276Y96264D01*
X530251Y96379D01*
X530230Y96496D01*
X530213Y96613D01*
X530199Y96730D01*
X530190Y96848D01*
X530184Y96966D01*
X530182Y97084D01*
X533794Y93472D02*
X533977Y93474D01*
X534159Y93481D01*
X534341Y93492D01*
X534523Y93507D01*
X534705Y93527D01*
X534886Y93551D01*
X535066Y93579D01*
X535246Y93611D01*
X535425Y93648D01*
X535602Y93689D01*
X535779Y93735D01*
X535955Y93784D01*
X536130Y93838D01*
X536303Y93896D01*
X536474Y93958D01*
X536645Y94024D01*
X536813Y94095D01*
X536980Y94169D01*
X537145Y94247D01*
X537308Y94329D01*
X537469Y94415D01*
X537628Y94505D01*
X537785Y94599D01*
X537939Y94696D01*
X538091Y94797D01*
X538241Y94902D01*
X538388Y95010D01*
X538532Y95121D01*
X538674Y95236D01*
X538813Y95355D01*
X538949Y95477D01*
X539082Y95602D01*
X539212Y95730D01*
X538761Y106116D02*
X538759Y106234D01*
X538753Y106352D01*
X538744Y106470D01*
X538730Y106587D01*
X538713Y106704D01*
X538692Y106821D01*
X538667Y106936D01*
X538638Y107051D01*
X538605Y107165D01*
X538569Y107277D01*
X538529Y107388D01*
X538486Y107498D01*
X538439Y107607D01*
X538389Y107714D01*
X538334Y107819D01*
X538277Y107922D01*
X538216Y108023D01*
X538152Y108123D01*
X538085Y108220D01*
X538015Y108315D01*
X537941Y108407D01*
X537865Y108498D01*
X537785Y108585D01*
X537703Y108670D01*
X537618Y108752D01*
X537531Y108832D01*
X537440Y108908D01*
X537348Y108982D01*
X537253Y109052D01*
X537156Y109119D01*
X537056Y109183D01*
X536955Y109244D01*
X536852Y109301D01*
X536747Y109356D01*
X536640Y109406D01*
X536531Y109453D01*
X536421Y109496D01*
X536310Y109536D01*
X536198Y109572D01*
X536084Y109605D01*
X535969Y109634D01*
X535854Y109659D01*
X535737Y109680D01*
X535620Y109697D01*
X535503Y109711D01*
X535385Y109720D01*
X535267Y109726D01*
X535149Y109728D01*
X534988Y109726D01*
X534826Y109720D01*
X534665Y109711D01*
X534504Y109697D01*
X534344Y109680D01*
X534184Y109659D01*
X534024Y109634D01*
X533865Y109605D01*
X533707Y109573D01*
X533550Y109537D01*
X533394Y109497D01*
X533238Y109453D01*
X533084Y109405D01*
X532931Y109354D01*
X532779Y109300D01*
X532628Y109241D01*
X532479Y109180D01*
X532332Y109114D01*
X532186Y109045D01*
X532041Y108973D01*
X531899Y108897D01*
X531758Y108818D01*
X531619Y108736D01*
X531483Y108650D01*
X531348Y108561D01*
X531215Y108469D01*
X531085Y108373D01*
X536955Y102955D02*
X537056Y103017D01*
X537156Y103082D01*
X537253Y103151D01*
X537348Y103223D01*
X537441Y103297D01*
X537531Y103375D01*
X537619Y103456D01*
X537704Y103539D01*
X537786Y103625D01*
X537865Y103714D01*
X537942Y103805D01*
X538015Y103899D01*
X538086Y103995D01*
X538153Y104093D01*
X538217Y104193D01*
X538278Y104296D01*
X538335Y104400D01*
X538389Y104506D01*
X538439Y104614D01*
X538486Y104723D01*
X538530Y104834D01*
X538570Y104946D01*
X538606Y105060D01*
X538638Y105174D01*
X538667Y105290D01*
X538692Y105406D01*
X538713Y105523D01*
X538730Y105641D01*
X538744Y105759D01*
X538753Y105878D01*
X538759Y105997D01*
X538761Y106116D01*
X531988Y100245D02*
X531887Y100183D01*
X531787Y100118D01*
X531690Y100049D01*
X531595Y99977D01*
X531502Y99903D01*
X531412Y99825D01*
X531324Y99744D01*
X531239Y99661D01*
X531157Y99575D01*
X531078Y99486D01*
X531001Y99395D01*
X530928Y99301D01*
X530857Y99205D01*
X530790Y99107D01*
X530726Y99007D01*
X530665Y98904D01*
X530608Y98800D01*
X530554Y98694D01*
X530504Y98586D01*
X530457Y98477D01*
X530413Y98366D01*
X530373Y98254D01*
X530337Y98140D01*
X530305Y98026D01*
X530276Y97910D01*
X530251Y97794D01*
X530230Y97677D01*
X530213Y97559D01*
X530199Y97441D01*
X530190Y97322D01*
X530184Y97203D01*
X530182Y97084D01*
X531988Y100245D02*
X536955Y102955D01*
X519205Y93472D02*
X519087Y93474D01*
X518969Y93480D01*
X518851Y93489D01*
X518734Y93503D01*
X518617Y93520D01*
X518500Y93541D01*
X518385Y93566D01*
X518270Y93595D01*
X518156Y93628D01*
X518044Y93664D01*
X517933Y93704D01*
X517823Y93747D01*
X517714Y93794D01*
X517607Y93844D01*
X517502Y93899D01*
X517399Y93956D01*
X517298Y94017D01*
X517198Y94081D01*
X517101Y94148D01*
X517006Y94218D01*
X516914Y94292D01*
X516823Y94368D01*
X516736Y94448D01*
X516651Y94530D01*
X516569Y94615D01*
X516489Y94702D01*
X516413Y94793D01*
X516339Y94885D01*
X516269Y94980D01*
X516202Y95077D01*
X516138Y95177D01*
X516077Y95278D01*
X516020Y95381D01*
X515965Y95486D01*
X515915Y95593D01*
X515868Y95702D01*
X515825Y95812D01*
X515785Y95923D01*
X515749Y96035D01*
X515716Y96149D01*
X515687Y96264D01*
X515662Y96379D01*
X515641Y96496D01*
X515624Y96613D01*
X515610Y96730D01*
X515601Y96848D01*
X515595Y96966D01*
X515593Y97084D01*
X519205Y93472D02*
X519388Y93474D01*
X519570Y93481D01*
X519752Y93492D01*
X519934Y93507D01*
X520116Y93527D01*
X520297Y93551D01*
X520477Y93579D01*
X520657Y93611D01*
X520836Y93648D01*
X521013Y93689D01*
X521190Y93735D01*
X521366Y93784D01*
X521541Y93838D01*
X521714Y93896D01*
X521885Y93958D01*
X522056Y94024D01*
X522224Y94095D01*
X522391Y94169D01*
X522556Y94247D01*
X522719Y94329D01*
X522880Y94415D01*
X523039Y94505D01*
X523196Y94599D01*
X523350Y94696D01*
X523502Y94797D01*
X523652Y94902D01*
X523799Y95010D01*
X523943Y95121D01*
X524085Y95236D01*
X524224Y95355D01*
X524360Y95477D01*
X524493Y95602D01*
X524623Y95730D01*
X524172Y106116D02*
X524170Y106234D01*
X524164Y106352D01*
X524155Y106470D01*
X524141Y106587D01*
X524124Y106704D01*
X524103Y106821D01*
X524078Y106936D01*
X524049Y107051D01*
X524016Y107165D01*
X523980Y107277D01*
X523940Y107388D01*
X523897Y107498D01*
X523850Y107607D01*
X523800Y107714D01*
X523745Y107819D01*
X523688Y107922D01*
X523627Y108023D01*
X523563Y108123D01*
X523496Y108220D01*
X523426Y108315D01*
X523352Y108407D01*
X523276Y108498D01*
X523196Y108585D01*
X523114Y108670D01*
X523029Y108752D01*
X522942Y108832D01*
X522851Y108908D01*
X522759Y108982D01*
X522664Y109052D01*
X522567Y109119D01*
X522467Y109183D01*
X522366Y109244D01*
X522263Y109301D01*
X522158Y109356D01*
X522051Y109406D01*
X521942Y109453D01*
X521832Y109496D01*
X521721Y109536D01*
X521609Y109572D01*
X521495Y109605D01*
X521380Y109634D01*
X521265Y109659D01*
X521148Y109680D01*
X521031Y109697D01*
X520914Y109711D01*
X520796Y109720D01*
X520678Y109726D01*
X520560Y109728D01*
X520399Y109726D01*
X520237Y109720D01*
X520076Y109711D01*
X519915Y109697D01*
X519755Y109680D01*
X519595Y109659D01*
X519435Y109634D01*
X519276Y109605D01*
X519118Y109573D01*
X518961Y109537D01*
X518805Y109497D01*
X518649Y109453D01*
X518495Y109405D01*
X518342Y109354D01*
X518190Y109300D01*
X518039Y109241D01*
X517890Y109180D01*
X517743Y109114D01*
X517597Y109045D01*
X517452Y108973D01*
X517310Y108897D01*
X517169Y108818D01*
X517030Y108736D01*
X516894Y108650D01*
X516759Y108561D01*
X516626Y108469D01*
X516496Y108373D01*
X522366Y102955D02*
X522467Y103017D01*
X522567Y103082D01*
X522664Y103151D01*
X522759Y103223D01*
X522852Y103297D01*
X522942Y103375D01*
X523030Y103456D01*
X523115Y103539D01*
X523197Y103625D01*
X523276Y103714D01*
X523353Y103805D01*
X523426Y103899D01*
X523497Y103995D01*
X523564Y104093D01*
X523628Y104193D01*
X523689Y104296D01*
X523746Y104400D01*
X523800Y104506D01*
X523850Y104614D01*
X523897Y104723D01*
X523941Y104834D01*
X523981Y104946D01*
X524017Y105060D01*
X524049Y105174D01*
X524078Y105290D01*
X524103Y105406D01*
X524124Y105523D01*
X524141Y105641D01*
X524155Y105759D01*
X524164Y105878D01*
X524170Y105997D01*
X524172Y106116D01*
X517398Y100245D02*
X517297Y100183D01*
X517197Y100118D01*
X517100Y100049D01*
X517005Y99977D01*
X516912Y99903D01*
X516822Y99825D01*
X516734Y99744D01*
X516649Y99661D01*
X516567Y99575D01*
X516488Y99486D01*
X516411Y99395D01*
X516338Y99301D01*
X516267Y99205D01*
X516200Y99107D01*
X516136Y99007D01*
X516075Y98904D01*
X516018Y98800D01*
X515964Y98694D01*
X515914Y98586D01*
X515867Y98477D01*
X515823Y98366D01*
X515783Y98254D01*
X515747Y98140D01*
X515715Y98026D01*
X515686Y97910D01*
X515661Y97794D01*
X515640Y97677D01*
X515623Y97559D01*
X515609Y97441D01*
X515600Y97322D01*
X515594Y97203D01*
X515592Y97084D01*
X517399Y100245D02*
X522366Y102955D01*
X546269Y83058D02*
X551688Y66802D01*
X540851Y66802D02*
X546269Y83058D01*
X542205Y70866D02*
X550333Y70866D01*
X534772Y66802D02*
X534772Y77639D01*
X530256Y77639D01*
X530152Y77637D01*
X530049Y77631D01*
X529945Y77621D01*
X529842Y77607D01*
X529740Y77589D01*
X529639Y77568D01*
X529538Y77542D01*
X529439Y77513D01*
X529340Y77480D01*
X529243Y77443D01*
X529148Y77402D01*
X529054Y77358D01*
X528962Y77310D01*
X528872Y77259D01*
X528783Y77204D01*
X528697Y77146D01*
X528614Y77084D01*
X528532Y77020D01*
X528454Y76952D01*
X528378Y76882D01*
X528304Y76809D01*
X528234Y76732D01*
X528166Y76654D01*
X528102Y76572D01*
X528040Y76489D01*
X527982Y76403D01*
X527927Y76314D01*
X527876Y76224D01*
X527828Y76132D01*
X527784Y76038D01*
X527743Y75943D01*
X527706Y75846D01*
X527673Y75747D01*
X527644Y75648D01*
X527618Y75547D01*
X527597Y75446D01*
X527579Y75344D01*
X527565Y75241D01*
X527555Y75137D01*
X527549Y75034D01*
X527547Y74930D01*
X527547Y66802D01*
X513552Y66802D02*
X513552Y83058D01*
X513552Y66802D02*
X518067Y66802D01*
X518168Y66804D01*
X518269Y66810D01*
X518370Y66819D01*
X518471Y66832D01*
X518571Y66849D01*
X518670Y66870D01*
X518768Y66894D01*
X518865Y66922D01*
X518962Y66954D01*
X519057Y66989D01*
X519150Y67028D01*
X519242Y67070D01*
X519333Y67116D01*
X519422Y67165D01*
X519508Y67217D01*
X519593Y67273D01*
X519676Y67331D01*
X519756Y67393D01*
X519834Y67458D01*
X519910Y67525D01*
X519983Y67595D01*
X520053Y67668D01*
X520120Y67744D01*
X520185Y67822D01*
X520247Y67902D01*
X520305Y67985D01*
X520361Y68070D01*
X520413Y68156D01*
X520462Y68245D01*
X520508Y68336D01*
X520550Y68428D01*
X520589Y68521D01*
X520624Y68616D01*
X520656Y68713D01*
X520684Y68810D01*
X520708Y68908D01*
X520729Y69007D01*
X520746Y69107D01*
X520759Y69208D01*
X520768Y69309D01*
X520774Y69410D01*
X520776Y69511D01*
X520777Y69511D02*
X520777Y74930D01*
X520776Y74930D02*
X520774Y75031D01*
X520768Y75132D01*
X520759Y75233D01*
X520746Y75334D01*
X520729Y75434D01*
X520708Y75533D01*
X520684Y75631D01*
X520656Y75728D01*
X520624Y75825D01*
X520589Y75920D01*
X520550Y76013D01*
X520508Y76105D01*
X520462Y76196D01*
X520413Y76285D01*
X520361Y76371D01*
X520305Y76456D01*
X520247Y76539D01*
X520185Y76619D01*
X520120Y76697D01*
X520053Y76773D01*
X519983Y76846D01*
X519910Y76916D01*
X519834Y76983D01*
X519756Y77048D01*
X519676Y77110D01*
X519593Y77168D01*
X519508Y77224D01*
X519422Y77276D01*
X519333Y77325D01*
X519242Y77371D01*
X519150Y77413D01*
X519057Y77452D01*
X518962Y77487D01*
X518865Y77519D01*
X518768Y77547D01*
X518670Y77571D01*
X518571Y77592D01*
X518471Y77609D01*
X518370Y77622D01*
X518269Y77631D01*
X518168Y77637D01*
X518067Y77639D01*
X513552Y77639D01*
X506030Y77639D02*
X506030Y66802D01*
X506030Y77639D02*
X500611Y77639D01*
X500611Y75833D01*
X492984Y66802D02*
X488469Y66802D01*
X492984Y66802D02*
X493085Y66804D01*
X493186Y66810D01*
X493287Y66819D01*
X493388Y66832D01*
X493488Y66849D01*
X493587Y66870D01*
X493685Y66894D01*
X493782Y66922D01*
X493879Y66954D01*
X493974Y66989D01*
X494067Y67028D01*
X494159Y67070D01*
X494250Y67116D01*
X494339Y67165D01*
X494425Y67217D01*
X494510Y67273D01*
X494593Y67331D01*
X494673Y67393D01*
X494751Y67458D01*
X494827Y67525D01*
X494900Y67595D01*
X494970Y67668D01*
X495037Y67744D01*
X495102Y67822D01*
X495164Y67902D01*
X495222Y67985D01*
X495278Y68070D01*
X495330Y68156D01*
X495379Y68245D01*
X495425Y68336D01*
X495467Y68428D01*
X495506Y68521D01*
X495541Y68616D01*
X495573Y68713D01*
X495601Y68810D01*
X495625Y68908D01*
X495646Y69007D01*
X495663Y69107D01*
X495676Y69208D01*
X495685Y69309D01*
X495691Y69410D01*
X495693Y69511D01*
X495694Y69511D02*
X495694Y74027D01*
X495693Y74027D02*
X495691Y74146D01*
X495685Y74266D01*
X495675Y74385D01*
X495661Y74503D01*
X495644Y74622D01*
X495622Y74739D01*
X495597Y74856D01*
X495567Y74971D01*
X495534Y75086D01*
X495497Y75200D01*
X495457Y75312D01*
X495412Y75423D01*
X495364Y75532D01*
X495313Y75640D01*
X495258Y75746D01*
X495199Y75850D01*
X495137Y75952D01*
X495072Y76052D01*
X495003Y76150D01*
X494931Y76246D01*
X494856Y76339D01*
X494779Y76429D01*
X494698Y76517D01*
X494614Y76602D01*
X494527Y76684D01*
X494438Y76764D01*
X494346Y76840D01*
X494252Y76914D01*
X494155Y76984D01*
X494057Y77051D01*
X493956Y77115D01*
X493852Y77175D01*
X493747Y77232D01*
X493640Y77285D01*
X493532Y77335D01*
X493422Y77381D01*
X493310Y77423D01*
X493197Y77462D01*
X493083Y77497D01*
X492968Y77528D01*
X492851Y77556D01*
X492734Y77579D01*
X492617Y77599D01*
X492498Y77615D01*
X492379Y77627D01*
X492260Y77635D01*
X492141Y77639D01*
X492021Y77639D01*
X491902Y77635D01*
X491783Y77627D01*
X491664Y77615D01*
X491545Y77599D01*
X491428Y77579D01*
X491311Y77556D01*
X491194Y77528D01*
X491079Y77497D01*
X490965Y77462D01*
X490852Y77423D01*
X490740Y77381D01*
X490630Y77335D01*
X490522Y77285D01*
X490415Y77232D01*
X490310Y77175D01*
X490206Y77115D01*
X490105Y77051D01*
X490007Y76984D01*
X489910Y76914D01*
X489816Y76840D01*
X489724Y76764D01*
X489635Y76684D01*
X489548Y76602D01*
X489464Y76517D01*
X489383Y76429D01*
X489306Y76339D01*
X489231Y76246D01*
X489159Y76150D01*
X489090Y76052D01*
X489025Y75952D01*
X488963Y75850D01*
X488904Y75746D01*
X488849Y75640D01*
X488798Y75532D01*
X488750Y75423D01*
X488705Y75312D01*
X488665Y75200D01*
X488628Y75086D01*
X488595Y74971D01*
X488565Y74856D01*
X488540Y74739D01*
X488518Y74622D01*
X488501Y74503D01*
X488487Y74385D01*
X488477Y74266D01*
X488471Y74146D01*
X488469Y74027D01*
X488469Y72221D01*
X495694Y72221D01*
X479059Y73124D02*
X474995Y73124D01*
X479059Y73124D02*
X479171Y73122D01*
X479282Y73116D01*
X479393Y73106D01*
X479504Y73093D01*
X479614Y73075D01*
X479723Y73053D01*
X479832Y73028D01*
X479940Y72999D01*
X480046Y72966D01*
X480152Y72929D01*
X480256Y72889D01*
X480358Y72845D01*
X480459Y72797D01*
X480558Y72746D01*
X480656Y72691D01*
X480751Y72633D01*
X480844Y72572D01*
X480935Y72507D01*
X481024Y72439D01*
X481110Y72368D01*
X481193Y72295D01*
X481274Y72218D01*
X481353Y72138D01*
X481428Y72056D01*
X481500Y71971D01*
X481570Y71884D01*
X481636Y71794D01*
X481699Y71702D01*
X481759Y71607D01*
X481815Y71511D01*
X481868Y71413D01*
X481917Y71313D01*
X481963Y71211D01*
X482005Y71108D01*
X482044Y71003D01*
X482079Y70897D01*
X482110Y70790D01*
X482137Y70682D01*
X482161Y70573D01*
X482180Y70463D01*
X482196Y70353D01*
X482208Y70242D01*
X482216Y70130D01*
X482220Y70019D01*
X482220Y69907D01*
X482216Y69796D01*
X482208Y69684D01*
X482196Y69573D01*
X482180Y69463D01*
X482161Y69353D01*
X482137Y69244D01*
X482110Y69136D01*
X482079Y69029D01*
X482044Y68923D01*
X482005Y68818D01*
X481963Y68715D01*
X481917Y68613D01*
X481868Y68513D01*
X481815Y68415D01*
X481759Y68319D01*
X481699Y68224D01*
X481636Y68132D01*
X481570Y68042D01*
X481500Y67955D01*
X481428Y67870D01*
X481353Y67788D01*
X481274Y67708D01*
X481193Y67631D01*
X481110Y67558D01*
X481024Y67487D01*
X480935Y67419D01*
X480844Y67354D01*
X480751Y67293D01*
X480656Y67235D01*
X480558Y67180D01*
X480459Y67129D01*
X480358Y67081D01*
X480256Y67037D01*
X480152Y66997D01*
X480046Y66960D01*
X479940Y66927D01*
X479832Y66898D01*
X479723Y66873D01*
X479614Y66851D01*
X479504Y66833D01*
X479393Y66820D01*
X479282Y66810D01*
X479171Y66804D01*
X479059Y66802D01*
X474995Y66802D01*
X474995Y74930D01*
X474997Y75031D01*
X475003Y75132D01*
X475012Y75233D01*
X475025Y75334D01*
X475042Y75434D01*
X475063Y75533D01*
X475087Y75631D01*
X475115Y75728D01*
X475147Y75825D01*
X475182Y75920D01*
X475221Y76013D01*
X475263Y76105D01*
X475309Y76196D01*
X475358Y76285D01*
X475410Y76371D01*
X475466Y76456D01*
X475524Y76539D01*
X475586Y76619D01*
X475651Y76697D01*
X475718Y76773D01*
X475788Y76846D01*
X475861Y76916D01*
X475937Y76983D01*
X476015Y77048D01*
X476095Y77110D01*
X476178Y77168D01*
X476263Y77224D01*
X476350Y77276D01*
X476438Y77325D01*
X476529Y77371D01*
X476621Y77413D01*
X476714Y77452D01*
X476809Y77487D01*
X476906Y77519D01*
X477003Y77547D01*
X477101Y77571D01*
X477200Y77592D01*
X477300Y77609D01*
X477401Y77622D01*
X477502Y77631D01*
X477603Y77637D01*
X477704Y77639D01*
X481317Y77639D01*
X466724Y73124D02*
X462208Y71318D01*
X466724Y73124D02*
X466812Y73161D01*
X466898Y73202D01*
X466983Y73246D01*
X467066Y73294D01*
X467146Y73345D01*
X467225Y73399D01*
X467301Y73457D01*
X467375Y73517D01*
X467447Y73581D01*
X467515Y73647D01*
X467581Y73717D01*
X467644Y73788D01*
X467705Y73863D01*
X467762Y73939D01*
X467815Y74018D01*
X467866Y74099D01*
X467913Y74182D01*
X467957Y74267D01*
X467997Y74354D01*
X468034Y74442D01*
X468067Y74532D01*
X468097Y74623D01*
X468122Y74715D01*
X468144Y74808D01*
X468162Y74902D01*
X468177Y74996D01*
X468187Y75091D01*
X468193Y75187D01*
X468196Y75282D01*
X468195Y75378D01*
X468189Y75473D01*
X468180Y75569D01*
X468167Y75663D01*
X468151Y75757D01*
X468130Y75851D01*
X468105Y75943D01*
X468077Y76034D01*
X468045Y76124D01*
X468010Y76213D01*
X467971Y76300D01*
X467928Y76386D01*
X467882Y76470D01*
X467832Y76551D01*
X467780Y76631D01*
X467724Y76709D01*
X467664Y76784D01*
X467602Y76856D01*
X467537Y76926D01*
X467469Y76994D01*
X467399Y77058D01*
X467326Y77120D01*
X467250Y77178D01*
X467172Y77234D01*
X467092Y77286D01*
X467010Y77335D01*
X466926Y77380D01*
X466840Y77422D01*
X466753Y77461D01*
X466664Y77496D01*
X466573Y77527D01*
X466482Y77554D01*
X466389Y77578D01*
X466296Y77598D01*
X466202Y77614D01*
X466107Y77626D01*
X466012Y77635D01*
X465916Y77639D01*
X465821Y77640D01*
X465574Y77633D01*
X465328Y77621D01*
X465082Y77603D01*
X464836Y77578D01*
X464592Y77548D01*
X464348Y77512D01*
X464105Y77471D01*
X463863Y77423D01*
X463622Y77369D01*
X463383Y77310D01*
X463145Y77245D01*
X462909Y77174D01*
X462674Y77098D01*
X462441Y77016D01*
X462211Y76928D01*
X461983Y76835D01*
X461756Y76737D01*
X462208Y71317D02*
X462120Y71280D01*
X462034Y71239D01*
X461949Y71195D01*
X461866Y71147D01*
X461786Y71096D01*
X461707Y71042D01*
X461631Y70984D01*
X461557Y70924D01*
X461485Y70860D01*
X461417Y70794D01*
X461351Y70724D01*
X461288Y70653D01*
X461227Y70578D01*
X461170Y70502D01*
X461117Y70423D01*
X461066Y70342D01*
X461019Y70259D01*
X460975Y70174D01*
X460935Y70087D01*
X460898Y69999D01*
X460865Y69909D01*
X460835Y69818D01*
X460810Y69726D01*
X460788Y69633D01*
X460770Y69539D01*
X460755Y69445D01*
X460745Y69350D01*
X460739Y69254D01*
X460736Y69159D01*
X460737Y69063D01*
X460743Y68968D01*
X460752Y68872D01*
X460765Y68778D01*
X460781Y68684D01*
X460802Y68590D01*
X460827Y68498D01*
X460855Y68407D01*
X460887Y68317D01*
X460922Y68228D01*
X460961Y68141D01*
X461004Y68055D01*
X461050Y67971D01*
X461100Y67890D01*
X461152Y67810D01*
X461208Y67732D01*
X461268Y67657D01*
X461330Y67585D01*
X461395Y67515D01*
X461463Y67447D01*
X461533Y67383D01*
X461606Y67321D01*
X461682Y67263D01*
X461760Y67207D01*
X461840Y67155D01*
X461922Y67106D01*
X462006Y67061D01*
X462092Y67019D01*
X462179Y66980D01*
X462268Y66945D01*
X462359Y66914D01*
X462450Y66887D01*
X462543Y66863D01*
X462636Y66843D01*
X462730Y66827D01*
X462825Y66815D01*
X462920Y66806D01*
X463016Y66802D01*
X463111Y66801D01*
X463112Y66802D02*
X463474Y66811D01*
X463836Y66829D01*
X464197Y66856D01*
X464557Y66891D01*
X464917Y66934D01*
X465276Y66986D01*
X465633Y67047D01*
X465988Y67116D01*
X466342Y67193D01*
X466694Y67279D01*
X467044Y67373D01*
X467392Y67476D01*
X467737Y67586D01*
X468079Y67705D01*
X446959Y66802D02*
X441540Y83058D01*
X436122Y66802D01*
X437476Y70866D02*
X445604Y70866D01*
X430042Y69511D02*
X430042Y77639D01*
X430042Y69511D02*
X430040Y69410D01*
X430034Y69309D01*
X430025Y69208D01*
X430012Y69107D01*
X429995Y69007D01*
X429974Y68908D01*
X429950Y68810D01*
X429922Y68713D01*
X429890Y68616D01*
X429855Y68521D01*
X429816Y68428D01*
X429774Y68336D01*
X429728Y68245D01*
X429679Y68156D01*
X429627Y68070D01*
X429571Y67985D01*
X429513Y67902D01*
X429451Y67822D01*
X429386Y67744D01*
X429319Y67668D01*
X429249Y67595D01*
X429176Y67525D01*
X429100Y67458D01*
X429022Y67393D01*
X428942Y67331D01*
X428859Y67273D01*
X428774Y67217D01*
X428688Y67165D01*
X428599Y67116D01*
X428508Y67070D01*
X428416Y67028D01*
X428323Y66989D01*
X428228Y66954D01*
X428131Y66922D01*
X428034Y66894D01*
X427936Y66870D01*
X427837Y66849D01*
X427737Y66832D01*
X427636Y66819D01*
X427535Y66810D01*
X427434Y66804D01*
X427333Y66802D01*
X422818Y66802D01*
X422818Y77639D01*
X413265Y66802D02*
X408749Y66802D01*
X413265Y66802D02*
X413366Y66804D01*
X413467Y66810D01*
X413568Y66819D01*
X413669Y66832D01*
X413769Y66849D01*
X413868Y66870D01*
X413966Y66894D01*
X414063Y66922D01*
X414160Y66954D01*
X414255Y66989D01*
X414348Y67028D01*
X414440Y67070D01*
X414531Y67116D01*
X414620Y67165D01*
X414706Y67217D01*
X414791Y67273D01*
X414874Y67331D01*
X414954Y67393D01*
X415032Y67458D01*
X415108Y67525D01*
X415181Y67595D01*
X415251Y67668D01*
X415318Y67744D01*
X415383Y67822D01*
X415445Y67902D01*
X415503Y67985D01*
X415559Y68070D01*
X415611Y68156D01*
X415660Y68245D01*
X415706Y68336D01*
X415748Y68428D01*
X415787Y68521D01*
X415822Y68616D01*
X415854Y68713D01*
X415882Y68810D01*
X415906Y68908D01*
X415927Y69007D01*
X415944Y69107D01*
X415957Y69208D01*
X415966Y69309D01*
X415972Y69410D01*
X415974Y69511D01*
X415974Y74027D01*
X415972Y74146D01*
X415966Y74266D01*
X415956Y74385D01*
X415942Y74503D01*
X415925Y74622D01*
X415903Y74739D01*
X415878Y74856D01*
X415848Y74971D01*
X415815Y75086D01*
X415778Y75200D01*
X415738Y75312D01*
X415693Y75423D01*
X415645Y75532D01*
X415594Y75640D01*
X415539Y75746D01*
X415480Y75850D01*
X415418Y75952D01*
X415353Y76052D01*
X415284Y76150D01*
X415212Y76246D01*
X415137Y76339D01*
X415060Y76429D01*
X414979Y76517D01*
X414895Y76602D01*
X414808Y76684D01*
X414719Y76764D01*
X414627Y76840D01*
X414533Y76914D01*
X414436Y76984D01*
X414338Y77051D01*
X414237Y77115D01*
X414133Y77175D01*
X414028Y77232D01*
X413921Y77285D01*
X413813Y77335D01*
X413703Y77381D01*
X413591Y77423D01*
X413478Y77462D01*
X413364Y77497D01*
X413249Y77528D01*
X413132Y77556D01*
X413015Y77579D01*
X412898Y77599D01*
X412779Y77615D01*
X412660Y77627D01*
X412541Y77635D01*
X412422Y77639D01*
X412302Y77639D01*
X412183Y77635D01*
X412064Y77627D01*
X411945Y77615D01*
X411826Y77599D01*
X411709Y77579D01*
X411592Y77556D01*
X411475Y77528D01*
X411360Y77497D01*
X411246Y77462D01*
X411133Y77423D01*
X411021Y77381D01*
X410911Y77335D01*
X410803Y77285D01*
X410696Y77232D01*
X410591Y77175D01*
X410487Y77115D01*
X410386Y77051D01*
X410288Y76984D01*
X410191Y76914D01*
X410097Y76840D01*
X410005Y76764D01*
X409916Y76684D01*
X409829Y76602D01*
X409745Y76517D01*
X409664Y76429D01*
X409587Y76339D01*
X409512Y76246D01*
X409440Y76150D01*
X409371Y76052D01*
X409306Y75952D01*
X409244Y75850D01*
X409185Y75746D01*
X409130Y75640D01*
X409079Y75532D01*
X409031Y75423D01*
X408986Y75312D01*
X408946Y75200D01*
X408909Y75086D01*
X408876Y74971D01*
X408846Y74856D01*
X408821Y74739D01*
X408799Y74622D01*
X408782Y74503D01*
X408768Y74385D01*
X408758Y74266D01*
X408752Y74146D01*
X408750Y74027D01*
X408749Y74027D02*
X408749Y72221D01*
X415974Y72221D01*
X401821Y66802D02*
X401821Y77639D01*
X396403Y77639D01*
X396403Y75833D01*
X542657Y52324D02*
X542659Y52449D01*
X542665Y52574D01*
X542674Y52699D01*
X542688Y52823D01*
X542705Y52947D01*
X542726Y53071D01*
X542751Y53193D01*
X542780Y53315D01*
X542812Y53436D01*
X542848Y53556D01*
X542888Y53675D01*
X542931Y53792D01*
X542978Y53908D01*
X543029Y54023D01*
X543083Y54135D01*
X543141Y54247D01*
X543201Y54356D01*
X543266Y54463D01*
X543333Y54569D01*
X543404Y54672D01*
X543478Y54773D01*
X543555Y54872D01*
X543635Y54968D01*
X543718Y55062D01*
X543803Y55153D01*
X543892Y55242D01*
X543983Y55327D01*
X544077Y55410D01*
X544173Y55490D01*
X544272Y55567D01*
X544373Y55641D01*
X544476Y55712D01*
X544582Y55779D01*
X544689Y55844D01*
X544798Y55904D01*
X544910Y55962D01*
X545022Y56016D01*
X545137Y56067D01*
X545253Y56114D01*
X545370Y56157D01*
X545489Y56197D01*
X545609Y56233D01*
X545730Y56265D01*
X545852Y56294D01*
X545974Y56319D01*
X546098Y56340D01*
X546222Y56357D01*
X546346Y56371D01*
X546471Y56380D01*
X546596Y56386D01*
X546721Y56388D01*
X546864Y56386D01*
X547006Y56380D01*
X547149Y56370D01*
X547291Y56357D01*
X547432Y56339D01*
X547574Y56318D01*
X547714Y56293D01*
X547854Y56264D01*
X547993Y56231D01*
X548131Y56194D01*
X548268Y56154D01*
X548403Y56110D01*
X548538Y56062D01*
X548671Y56010D01*
X548803Y55955D01*
X548933Y55896D01*
X549061Y55834D01*
X549188Y55768D01*
X549313Y55699D01*
X549436Y55627D01*
X549557Y55551D01*
X549675Y55472D01*
X549792Y55389D01*
X549906Y55304D01*
X550018Y55215D01*
X550127Y55124D01*
X550234Y55029D01*
X550339Y54932D01*
X550440Y54831D01*
X550539Y54728D01*
X550635Y54623D01*
X550728Y54514D01*
X550818Y54403D01*
X550905Y54290D01*
X550989Y54175D01*
X551069Y54057D01*
X551147Y53937D01*
X551221Y53815D01*
X551291Y53691D01*
X551359Y53565D01*
X551422Y53437D01*
X551483Y53308D01*
X551540Y53177D01*
X551593Y53045D01*
X551642Y52911D01*
X551688Y52776D01*
X544012Y49163D02*
X543918Y49255D01*
X543828Y49349D01*
X543740Y49446D01*
X543655Y49546D01*
X543573Y49648D01*
X543494Y49753D01*
X543419Y49860D01*
X543347Y49969D01*
X543278Y50080D01*
X543212Y50194D01*
X543150Y50309D01*
X543091Y50426D01*
X543036Y50545D01*
X542985Y50665D01*
X542937Y50787D01*
X542892Y50910D01*
X542852Y51034D01*
X542815Y51160D01*
X542782Y51287D01*
X542753Y51414D01*
X542727Y51543D01*
X542706Y51672D01*
X542688Y51802D01*
X542675Y51932D01*
X542665Y52062D01*
X542659Y52193D01*
X542657Y52324D01*
X544012Y49163D02*
X551688Y40132D01*
X542657Y40132D01*
X536057Y48260D02*
X536053Y48580D01*
X536042Y48899D01*
X536023Y49219D01*
X535996Y49537D01*
X535962Y49855D01*
X535920Y50172D01*
X535870Y50488D01*
X535813Y50803D01*
X535749Y51116D01*
X535677Y51428D01*
X535598Y51738D01*
X535511Y52045D01*
X535417Y52351D01*
X535316Y52654D01*
X535207Y52955D01*
X535092Y53253D01*
X534969Y53549D01*
X534839Y53841D01*
X534702Y54130D01*
X534702Y54131D02*
X534663Y54239D01*
X534620Y54346D01*
X534574Y54451D01*
X534523Y54555D01*
X534470Y54657D01*
X534413Y54757D01*
X534352Y54855D01*
X534288Y54950D01*
X534221Y55044D01*
X534150Y55135D01*
X534077Y55224D01*
X534000Y55310D01*
X533921Y55393D01*
X533839Y55474D01*
X533754Y55552D01*
X533666Y55626D01*
X533576Y55698D01*
X533484Y55766D01*
X533389Y55832D01*
X533292Y55894D01*
X533193Y55952D01*
X533091Y56008D01*
X532989Y56059D01*
X532884Y56107D01*
X532778Y56152D01*
X532670Y56193D01*
X532561Y56230D01*
X532451Y56263D01*
X532339Y56292D01*
X532227Y56318D01*
X532114Y56340D01*
X532000Y56357D01*
X531886Y56371D01*
X531771Y56381D01*
X531656Y56387D01*
X531541Y56389D01*
X531541Y56388D02*
X531426Y56386D01*
X531311Y56380D01*
X531196Y56370D01*
X531082Y56356D01*
X530968Y56339D01*
X530855Y56317D01*
X530743Y56291D01*
X530631Y56262D01*
X530521Y56229D01*
X530412Y56192D01*
X530304Y56151D01*
X530198Y56106D01*
X530094Y56058D01*
X529991Y56007D01*
X529890Y55951D01*
X529790Y55893D01*
X529693Y55831D01*
X529599Y55766D01*
X529506Y55697D01*
X529416Y55625D01*
X529328Y55551D01*
X529243Y55473D01*
X529161Y55392D01*
X529082Y55309D01*
X529005Y55223D01*
X528932Y55134D01*
X528861Y55043D01*
X528794Y54949D01*
X528730Y54854D01*
X528669Y54756D01*
X528612Y54656D01*
X528559Y54554D01*
X528508Y54450D01*
X528462Y54345D01*
X528419Y54238D01*
X528380Y54130D01*
X528381Y54130D02*
X528244Y53841D01*
X528114Y53549D01*
X527991Y53253D01*
X527876Y52955D01*
X527767Y52654D01*
X527666Y52351D01*
X527572Y52045D01*
X527485Y51738D01*
X527406Y51428D01*
X527334Y51116D01*
X527270Y50803D01*
X527213Y50488D01*
X527163Y50172D01*
X527121Y49855D01*
X527087Y49537D01*
X527060Y49219D01*
X527041Y48899D01*
X527030Y48580D01*
X527026Y48260D01*
X536056Y48260D02*
X536052Y47940D01*
X536041Y47621D01*
X536022Y47301D01*
X535995Y46983D01*
X535961Y46665D01*
X535919Y46348D01*
X535869Y46032D01*
X535812Y45717D01*
X535748Y45404D01*
X535676Y45092D01*
X535597Y44782D01*
X535510Y44475D01*
X535416Y44169D01*
X535315Y43866D01*
X535206Y43565D01*
X535091Y43267D01*
X534968Y42971D01*
X534838Y42679D01*
X534701Y42390D01*
X534702Y42390D02*
X534663Y42282D01*
X534620Y42175D01*
X534574Y42070D01*
X534523Y41966D01*
X534470Y41864D01*
X534413Y41764D01*
X534352Y41666D01*
X534288Y41571D01*
X534221Y41477D01*
X534150Y41386D01*
X534077Y41297D01*
X534000Y41211D01*
X533921Y41128D01*
X533839Y41047D01*
X533754Y40969D01*
X533666Y40895D01*
X533576Y40823D01*
X533483Y40754D01*
X533389Y40689D01*
X533292Y40627D01*
X533192Y40569D01*
X533091Y40513D01*
X532989Y40462D01*
X532884Y40414D01*
X532778Y40369D01*
X532670Y40328D01*
X532561Y40291D01*
X532451Y40258D01*
X532339Y40229D01*
X532227Y40203D01*
X532114Y40181D01*
X532000Y40164D01*
X531886Y40150D01*
X531771Y40140D01*
X531656Y40134D01*
X531541Y40132D01*
X528381Y42390D02*
X528244Y42679D01*
X528114Y42971D01*
X527991Y43267D01*
X527876Y43565D01*
X527767Y43866D01*
X527666Y44169D01*
X527572Y44475D01*
X527485Y44782D01*
X527406Y45092D01*
X527334Y45404D01*
X527270Y45717D01*
X527213Y46032D01*
X527163Y46348D01*
X527121Y46665D01*
X527087Y46983D01*
X527060Y47301D01*
X527041Y47621D01*
X527030Y47940D01*
X527026Y48260D01*
X528380Y42390D02*
X528419Y42282D01*
X528462Y42175D01*
X528508Y42070D01*
X528559Y41966D01*
X528612Y41864D01*
X528670Y41764D01*
X528730Y41666D01*
X528794Y41571D01*
X528861Y41477D01*
X528932Y41386D01*
X529005Y41297D01*
X529082Y41211D01*
X529161Y41128D01*
X529243Y41047D01*
X529328Y40969D01*
X529416Y40895D01*
X529506Y40823D01*
X529599Y40754D01*
X529693Y40689D01*
X529790Y40627D01*
X529890Y40569D01*
X529991Y40513D01*
X530094Y40462D01*
X530198Y40414D01*
X530304Y40369D01*
X530412Y40328D01*
X530521Y40291D01*
X530631Y40258D01*
X530743Y40229D01*
X530855Y40203D01*
X530968Y40181D01*
X531082Y40164D01*
X531196Y40150D01*
X531311Y40140D01*
X531426Y40134D01*
X531541Y40132D01*
X535154Y43744D02*
X527929Y52776D01*
X515458Y56388D02*
X515333Y56386D01*
X515208Y56380D01*
X515083Y56371D01*
X514959Y56357D01*
X514835Y56340D01*
X514711Y56319D01*
X514589Y56294D01*
X514467Y56265D01*
X514346Y56233D01*
X514226Y56197D01*
X514107Y56157D01*
X513990Y56114D01*
X513874Y56067D01*
X513759Y56016D01*
X513647Y55962D01*
X513535Y55904D01*
X513426Y55844D01*
X513319Y55779D01*
X513213Y55712D01*
X513110Y55641D01*
X513009Y55567D01*
X512910Y55490D01*
X512814Y55410D01*
X512720Y55327D01*
X512629Y55242D01*
X512540Y55153D01*
X512455Y55062D01*
X512372Y54968D01*
X512292Y54872D01*
X512215Y54773D01*
X512141Y54672D01*
X512070Y54569D01*
X512003Y54463D01*
X511938Y54356D01*
X511878Y54247D01*
X511820Y54135D01*
X511766Y54023D01*
X511715Y53908D01*
X511668Y53792D01*
X511625Y53675D01*
X511585Y53556D01*
X511549Y53436D01*
X511517Y53315D01*
X511488Y53193D01*
X511463Y53071D01*
X511442Y52947D01*
X511425Y52823D01*
X511411Y52699D01*
X511402Y52574D01*
X511396Y52449D01*
X511394Y52324D01*
X515458Y56388D02*
X515601Y56386D01*
X515743Y56380D01*
X515886Y56370D01*
X516028Y56357D01*
X516169Y56339D01*
X516311Y56318D01*
X516451Y56293D01*
X516591Y56264D01*
X516730Y56231D01*
X516868Y56194D01*
X517005Y56154D01*
X517140Y56110D01*
X517275Y56062D01*
X517408Y56010D01*
X517540Y55955D01*
X517670Y55896D01*
X517798Y55834D01*
X517925Y55768D01*
X518050Y55699D01*
X518173Y55627D01*
X518294Y55551D01*
X518412Y55472D01*
X518529Y55389D01*
X518643Y55304D01*
X518755Y55215D01*
X518864Y55124D01*
X518971Y55029D01*
X519076Y54932D01*
X519177Y54831D01*
X519276Y54728D01*
X519372Y54623D01*
X519465Y54514D01*
X519555Y54403D01*
X519642Y54290D01*
X519726Y54175D01*
X519806Y54057D01*
X519884Y53937D01*
X519958Y53815D01*
X520028Y53691D01*
X520096Y53565D01*
X520159Y53437D01*
X520220Y53308D01*
X520277Y53177D01*
X520330Y53045D01*
X520379Y52911D01*
X520425Y52776D01*
X512750Y49163D02*
X512656Y49255D01*
X512566Y49349D01*
X512478Y49446D01*
X512393Y49546D01*
X512311Y49648D01*
X512232Y49753D01*
X512157Y49860D01*
X512085Y49969D01*
X512016Y50080D01*
X511950Y50194D01*
X511888Y50309D01*
X511829Y50426D01*
X511774Y50545D01*
X511723Y50665D01*
X511675Y50787D01*
X511630Y50910D01*
X511590Y51034D01*
X511553Y51160D01*
X511520Y51287D01*
X511491Y51414D01*
X511465Y51543D01*
X511444Y51672D01*
X511426Y51802D01*
X511413Y51932D01*
X511403Y52062D01*
X511397Y52193D01*
X511395Y52324D01*
X512749Y49163D02*
X520426Y40132D01*
X511394Y40132D01*
X504794Y52776D02*
X500279Y56388D01*
X500279Y40132D01*
X504794Y40132D02*
X495763Y40132D01*
X547172Y29718D02*
X547172Y13462D01*
X551688Y29718D02*
X542657Y29718D01*
X536548Y29718D02*
X536548Y13462D01*
X536548Y29718D02*
X529323Y29718D01*
X529323Y22493D02*
X536548Y22493D01*
X523552Y25202D02*
X523552Y17978D01*
X523552Y25202D02*
X523550Y25335D01*
X523544Y25467D01*
X523534Y25599D01*
X523521Y25731D01*
X523503Y25863D01*
X523482Y25993D01*
X523457Y26124D01*
X523428Y26253D01*
X523395Y26381D01*
X523359Y26509D01*
X523319Y26635D01*
X523275Y26760D01*
X523227Y26884D01*
X523176Y27006D01*
X523121Y27127D01*
X523063Y27246D01*
X523001Y27364D01*
X522936Y27479D01*
X522867Y27593D01*
X522796Y27704D01*
X522720Y27813D01*
X522642Y27920D01*
X522561Y28025D01*
X522476Y28127D01*
X522389Y28227D01*
X522299Y28324D01*
X522206Y28419D01*
X522110Y28510D01*
X522012Y28599D01*
X521911Y28685D01*
X521807Y28768D01*
X521701Y28848D01*
X521593Y28924D01*
X521483Y28998D01*
X521370Y29068D01*
X521256Y29135D01*
X521139Y29198D01*
X521021Y29258D01*
X520901Y29315D01*
X520779Y29368D01*
X520656Y29417D01*
X520532Y29463D01*
X520406Y29505D01*
X520279Y29543D01*
X520151Y29578D01*
X520022Y29609D01*
X519893Y29636D01*
X519762Y29659D01*
X519631Y29679D01*
X519499Y29694D01*
X519367Y29706D01*
X519235Y29714D01*
X519102Y29718D01*
X518970Y29718D01*
X518837Y29714D01*
X518705Y29706D01*
X518573Y29694D01*
X518441Y29679D01*
X518310Y29659D01*
X518179Y29636D01*
X518050Y29609D01*
X517921Y29578D01*
X517793Y29543D01*
X517666Y29505D01*
X517540Y29463D01*
X517416Y29417D01*
X517293Y29368D01*
X517171Y29315D01*
X517051Y29258D01*
X516933Y29198D01*
X516816Y29135D01*
X516702Y29068D01*
X516589Y28998D01*
X516479Y28924D01*
X516371Y28848D01*
X516265Y28768D01*
X516161Y28685D01*
X516060Y28599D01*
X515962Y28510D01*
X515866Y28419D01*
X515773Y28324D01*
X515683Y28227D01*
X515596Y28127D01*
X515511Y28025D01*
X515430Y27920D01*
X515352Y27813D01*
X515276Y27704D01*
X515205Y27593D01*
X515136Y27479D01*
X515071Y27364D01*
X515009Y27246D01*
X514951Y27127D01*
X514896Y27006D01*
X514845Y26884D01*
X514797Y26760D01*
X514753Y26635D01*
X514713Y26509D01*
X514677Y26381D01*
X514644Y26253D01*
X514615Y26124D01*
X514590Y25993D01*
X514569Y25863D01*
X514551Y25731D01*
X514538Y25599D01*
X514528Y25467D01*
X514522Y25335D01*
X514520Y25202D01*
X514521Y25202D02*
X514521Y17978D01*
X514520Y17978D02*
X514522Y17845D01*
X514528Y17713D01*
X514538Y17581D01*
X514551Y17449D01*
X514569Y17317D01*
X514590Y17187D01*
X514615Y17056D01*
X514644Y16927D01*
X514677Y16799D01*
X514713Y16671D01*
X514753Y16545D01*
X514797Y16420D01*
X514845Y16296D01*
X514896Y16174D01*
X514951Y16053D01*
X515009Y15934D01*
X515071Y15816D01*
X515136Y15701D01*
X515205Y15587D01*
X515276Y15476D01*
X515352Y15367D01*
X515430Y15260D01*
X515511Y15155D01*
X515596Y15053D01*
X515683Y14953D01*
X515773Y14856D01*
X515866Y14761D01*
X515962Y14670D01*
X516060Y14581D01*
X516161Y14495D01*
X516265Y14412D01*
X516371Y14332D01*
X516479Y14256D01*
X516589Y14182D01*
X516702Y14112D01*
X516816Y14045D01*
X516933Y13982D01*
X517051Y13922D01*
X517171Y13865D01*
X517293Y13812D01*
X517416Y13763D01*
X517540Y13717D01*
X517666Y13675D01*
X517793Y13637D01*
X517921Y13602D01*
X518050Y13571D01*
X518179Y13544D01*
X518310Y13521D01*
X518441Y13501D01*
X518573Y13486D01*
X518705Y13474D01*
X518837Y13466D01*
X518970Y13462D01*
X519102Y13462D01*
X519235Y13466D01*
X519367Y13474D01*
X519499Y13486D01*
X519631Y13501D01*
X519762Y13521D01*
X519893Y13544D01*
X520022Y13571D01*
X520151Y13602D01*
X520279Y13637D01*
X520406Y13675D01*
X520532Y13717D01*
X520656Y13763D01*
X520779Y13812D01*
X520901Y13865D01*
X521021Y13922D01*
X521139Y13982D01*
X521256Y14045D01*
X521370Y14112D01*
X521483Y14182D01*
X521593Y14256D01*
X521701Y14332D01*
X521807Y14412D01*
X521911Y14495D01*
X522012Y14581D01*
X522110Y14670D01*
X522206Y14761D01*
X522299Y14856D01*
X522389Y14953D01*
X522476Y15053D01*
X522561Y15155D01*
X522642Y15260D01*
X522720Y15367D01*
X522796Y15476D01*
X522867Y15587D01*
X522936Y15701D01*
X523001Y15816D01*
X523063Y15934D01*
X523121Y16053D01*
X523176Y16174D01*
X523227Y16296D01*
X523275Y16420D01*
X523319Y16545D01*
X523359Y16671D01*
X523395Y16799D01*
X523428Y16927D01*
X523457Y17056D01*
X523482Y17187D01*
X523503Y17317D01*
X523521Y17449D01*
X523534Y17581D01*
X523544Y17713D01*
X523550Y17845D01*
X523552Y17978D01*
X507782Y19784D02*
X496944Y19784D01*
X489545Y13462D02*
X489545Y29718D01*
X484127Y20687D01*
X478708Y29718D01*
X478708Y13462D01*
X468877Y13462D02*
X464362Y13462D01*
X468877Y13462D02*
X468978Y13464D01*
X469079Y13470D01*
X469180Y13479D01*
X469281Y13492D01*
X469381Y13509D01*
X469480Y13530D01*
X469578Y13554D01*
X469675Y13582D01*
X469772Y13614D01*
X469867Y13649D01*
X469960Y13688D01*
X470052Y13730D01*
X470143Y13776D01*
X470232Y13825D01*
X470318Y13877D01*
X470403Y13933D01*
X470486Y13991D01*
X470566Y14053D01*
X470644Y14118D01*
X470720Y14185D01*
X470793Y14255D01*
X470863Y14328D01*
X470930Y14404D01*
X470995Y14482D01*
X471057Y14562D01*
X471115Y14645D01*
X471171Y14730D01*
X471223Y14816D01*
X471272Y14905D01*
X471318Y14996D01*
X471360Y15088D01*
X471399Y15181D01*
X471434Y15276D01*
X471466Y15373D01*
X471494Y15470D01*
X471518Y15568D01*
X471539Y15667D01*
X471556Y15767D01*
X471569Y15868D01*
X471578Y15969D01*
X471584Y16070D01*
X471586Y16171D01*
X471587Y16171D02*
X471587Y20687D01*
X471586Y20687D02*
X471584Y20806D01*
X471578Y20926D01*
X471568Y21045D01*
X471554Y21163D01*
X471537Y21282D01*
X471515Y21399D01*
X471490Y21516D01*
X471460Y21631D01*
X471427Y21746D01*
X471390Y21860D01*
X471350Y21972D01*
X471305Y22083D01*
X471257Y22192D01*
X471206Y22300D01*
X471151Y22406D01*
X471092Y22510D01*
X471030Y22612D01*
X470965Y22712D01*
X470896Y22810D01*
X470824Y22906D01*
X470749Y22999D01*
X470672Y23089D01*
X470591Y23177D01*
X470507Y23262D01*
X470420Y23344D01*
X470331Y23424D01*
X470239Y23500D01*
X470145Y23574D01*
X470048Y23644D01*
X469950Y23711D01*
X469849Y23775D01*
X469745Y23835D01*
X469640Y23892D01*
X469533Y23945D01*
X469425Y23995D01*
X469315Y24041D01*
X469203Y24083D01*
X469090Y24122D01*
X468976Y24157D01*
X468861Y24188D01*
X468744Y24216D01*
X468627Y24239D01*
X468510Y24259D01*
X468391Y24275D01*
X468272Y24287D01*
X468153Y24295D01*
X468034Y24299D01*
X467914Y24299D01*
X467795Y24295D01*
X467676Y24287D01*
X467557Y24275D01*
X467438Y24259D01*
X467321Y24239D01*
X467204Y24216D01*
X467087Y24188D01*
X466972Y24157D01*
X466858Y24122D01*
X466745Y24083D01*
X466633Y24041D01*
X466523Y23995D01*
X466415Y23945D01*
X466308Y23892D01*
X466203Y23835D01*
X466099Y23775D01*
X465998Y23711D01*
X465900Y23644D01*
X465803Y23574D01*
X465709Y23500D01*
X465617Y23424D01*
X465528Y23344D01*
X465441Y23262D01*
X465357Y23177D01*
X465276Y23089D01*
X465199Y22999D01*
X465124Y22906D01*
X465052Y22810D01*
X464983Y22712D01*
X464918Y22612D01*
X464856Y22510D01*
X464797Y22406D01*
X464742Y22300D01*
X464691Y22192D01*
X464643Y22083D01*
X464598Y21972D01*
X464558Y21860D01*
X464521Y21746D01*
X464488Y21631D01*
X464458Y21516D01*
X464433Y21399D01*
X464411Y21282D01*
X464394Y21163D01*
X464380Y21045D01*
X464370Y20926D01*
X464364Y20806D01*
X464362Y20687D01*
X464362Y18881D01*
X471587Y18881D01*
X457434Y13462D02*
X457434Y24299D01*
X452015Y24299D01*
X452015Y22493D01*
X444010Y19784D02*
X439946Y19784D01*
X444010Y19784D02*
X444122Y19782D01*
X444233Y19776D01*
X444344Y19766D01*
X444455Y19753D01*
X444565Y19735D01*
X444674Y19713D01*
X444783Y19688D01*
X444891Y19659D01*
X444997Y19626D01*
X445103Y19589D01*
X445207Y19549D01*
X445309Y19505D01*
X445410Y19457D01*
X445509Y19406D01*
X445607Y19351D01*
X445702Y19293D01*
X445795Y19232D01*
X445886Y19167D01*
X445975Y19099D01*
X446061Y19028D01*
X446144Y18955D01*
X446225Y18878D01*
X446304Y18798D01*
X446379Y18716D01*
X446451Y18631D01*
X446521Y18544D01*
X446587Y18454D01*
X446650Y18362D01*
X446710Y18267D01*
X446766Y18171D01*
X446819Y18073D01*
X446868Y17973D01*
X446914Y17871D01*
X446956Y17768D01*
X446995Y17663D01*
X447030Y17557D01*
X447061Y17450D01*
X447088Y17342D01*
X447112Y17233D01*
X447131Y17123D01*
X447147Y17013D01*
X447159Y16902D01*
X447167Y16790D01*
X447171Y16679D01*
X447171Y16567D01*
X447167Y16456D01*
X447159Y16344D01*
X447147Y16233D01*
X447131Y16123D01*
X447112Y16013D01*
X447088Y15904D01*
X447061Y15796D01*
X447030Y15689D01*
X446995Y15583D01*
X446956Y15478D01*
X446914Y15375D01*
X446868Y15273D01*
X446819Y15173D01*
X446766Y15075D01*
X446710Y14979D01*
X446650Y14884D01*
X446587Y14792D01*
X446521Y14702D01*
X446451Y14615D01*
X446379Y14530D01*
X446304Y14448D01*
X446225Y14368D01*
X446144Y14291D01*
X446061Y14218D01*
X445975Y14147D01*
X445886Y14079D01*
X445795Y14014D01*
X445702Y13953D01*
X445607Y13895D01*
X445509Y13840D01*
X445410Y13789D01*
X445309Y13741D01*
X445207Y13697D01*
X445103Y13657D01*
X444997Y13620D01*
X444891Y13587D01*
X444783Y13558D01*
X444674Y13533D01*
X444565Y13511D01*
X444455Y13493D01*
X444344Y13480D01*
X444233Y13470D01*
X444122Y13464D01*
X444010Y13462D01*
X439946Y13462D01*
X439946Y21590D01*
X439948Y21691D01*
X439954Y21792D01*
X439963Y21893D01*
X439976Y21994D01*
X439993Y22094D01*
X440014Y22193D01*
X440038Y22291D01*
X440066Y22388D01*
X440098Y22485D01*
X440133Y22580D01*
X440172Y22673D01*
X440214Y22765D01*
X440260Y22856D01*
X440309Y22945D01*
X440361Y23031D01*
X440417Y23116D01*
X440475Y23199D01*
X440537Y23279D01*
X440602Y23357D01*
X440669Y23433D01*
X440739Y23506D01*
X440812Y23576D01*
X440888Y23643D01*
X440966Y23708D01*
X441046Y23770D01*
X441129Y23828D01*
X441214Y23884D01*
X441301Y23936D01*
X441389Y23985D01*
X441480Y24031D01*
X441572Y24073D01*
X441665Y24112D01*
X441760Y24147D01*
X441857Y24179D01*
X441954Y24207D01*
X442052Y24231D01*
X442151Y24252D01*
X442251Y24269D01*
X442352Y24282D01*
X442453Y24291D01*
X442554Y24297D01*
X442655Y24299D01*
X442656Y24299D02*
X446268Y24299D01*
X432509Y24299D02*
X432509Y13462D01*
X432509Y24299D02*
X427993Y24299D01*
X427889Y24297D01*
X427786Y24291D01*
X427682Y24281D01*
X427579Y24267D01*
X427477Y24249D01*
X427376Y24228D01*
X427275Y24202D01*
X427176Y24173D01*
X427077Y24140D01*
X426980Y24103D01*
X426885Y24062D01*
X426791Y24018D01*
X426699Y23970D01*
X426609Y23919D01*
X426520Y23864D01*
X426434Y23806D01*
X426351Y23744D01*
X426269Y23680D01*
X426191Y23612D01*
X426115Y23542D01*
X426041Y23469D01*
X425971Y23392D01*
X425903Y23314D01*
X425839Y23232D01*
X425777Y23149D01*
X425719Y23063D01*
X425664Y22974D01*
X425613Y22884D01*
X425565Y22792D01*
X425521Y22698D01*
X425480Y22603D01*
X425443Y22506D01*
X425410Y22407D01*
X425381Y22308D01*
X425355Y22207D01*
X425334Y22106D01*
X425316Y22004D01*
X425302Y21901D01*
X425292Y21797D01*
X425286Y21694D01*
X425284Y21590D01*
X425284Y13462D01*
D12*
X406469Y446156D03*
D13*
X405779Y446294D03*
D14*
X405226Y446432D03*
D15*
X403087Y446570D03*
D16*
X402673Y446709D03*
D17*
X397565Y446847D03*
D18*
X410748Y446847D03*
D19*
X396254Y446985D03*
D20*
X411507Y446985D03*
D21*
X393286Y447123D03*
D22*
X412198Y447123D03*
D23*
X392457Y447261D03*
D24*
X412888Y447261D03*
D25*
X392043Y447399D03*
D26*
X413509Y447399D03*
D27*
X391767Y447537D03*
D28*
X414061Y447537D03*
D29*
X391284Y447675D03*
D30*
X414544Y447675D03*
D31*
X391077Y447813D03*
D21*
X415097Y447813D03*
D32*
X390870Y447951D03*
D33*
X415718Y447951D03*
D34*
X390663Y448089D03*
D35*
X416339Y448089D03*
D36*
X390594Y448227D03*
D37*
X416891Y448227D03*
D32*
X390456Y448365D03*
D38*
X417512Y448365D03*
D39*
X390318Y448503D03*
D40*
X418134Y448503D03*
D41*
X390249Y448641D03*
D42*
X418824Y448641D03*
D32*
X390180Y448779D03*
D38*
X419445Y448779D03*
D43*
X390042Y448917D03*
D22*
X420066Y448917D03*
D36*
X389904Y449055D03*
D37*
X420756Y449055D03*
D31*
X389835Y449193D03*
D44*
X421378Y449193D03*
D32*
X389766Y449331D03*
D24*
X421999Y449331D03*
D39*
X389628Y449469D03*
D35*
X422551Y449469D03*
D36*
X389489Y449607D03*
D24*
X423103Y449607D03*
D36*
X389489Y449745D03*
D45*
X423655Y449745D03*
D43*
X389351Y449884D03*
D26*
X424276Y449884D03*
D46*
X389282Y450022D03*
D45*
X424898Y450022D03*
D36*
X389213Y450160D03*
D12*
X425519Y450160D03*
D34*
X389144Y450298D03*
D22*
X426140Y450298D03*
D47*
X389006Y450436D03*
D48*
X426761Y450436D03*
D49*
X389006Y450574D03*
X408056Y450574D03*
D50*
X427451Y450574D03*
D46*
X388868Y450712D03*
D51*
X408056Y450712D03*
D52*
X428142Y450712D03*
D36*
X388799Y450850D03*
D37*
X408056Y450850D03*
D52*
X428832Y450850D03*
D43*
X388661Y450988D03*
D53*
X407849Y450988D03*
D50*
X429522Y450988D03*
D41*
X388592Y451126D03*
D23*
X390249Y451126D03*
D54*
X407642Y451126D03*
D42*
X430143Y451126D03*
D55*
X389904Y451264D03*
D56*
X405917Y451264D03*
D21*
X409713Y451264D03*
D22*
X430834Y451264D03*
D57*
X390111Y451402D03*
D41*
X402949Y451402D03*
D52*
X405364Y451402D03*
D58*
X410196Y451402D03*
D12*
X431455Y451402D03*
D59*
X390111Y451540D03*
D60*
X404398Y451540D03*
D61*
X410610Y451540D03*
D24*
X432076Y451540D03*
D62*
X390249Y451678D03*
D63*
X403777Y451678D03*
D64*
X410955Y451678D03*
D35*
X432766Y451678D03*
D65*
X388592Y451816D03*
D66*
X391974Y451816D03*
D30*
X402811Y451816D03*
D65*
X411369Y451816D03*
D24*
X433318Y451816D03*
D67*
X388316Y451954D03*
D66*
X392250Y451954D03*
D68*
X402397Y451954D03*
D27*
X411645Y451954D03*
D33*
X433801Y451954D03*
D69*
X388109Y452092D03*
D70*
X392526Y452092D03*
D64*
X401844Y452092D03*
D71*
X411991Y452092D03*
D26*
X434354Y452092D03*
D41*
X388040Y452230D03*
D66*
X392803Y452230D03*
D65*
X401430Y452230D03*
D72*
X402397Y452230D03*
D29*
X412129Y452230D03*
D30*
X434837Y452230D03*
D31*
X388040Y452368D03*
D73*
X393010Y452368D03*
D25*
X401154Y452368D03*
D74*
X412336Y452368D03*
D21*
X435389Y452368D03*
D46*
X388040Y452506D03*
D27*
X393286Y452506D03*
D75*
X400947Y452506D03*
D76*
X412612Y452506D03*
D28*
X435872Y452506D03*
D39*
X387971Y452644D03*
D70*
X393493Y452644D03*
X400671Y452644D03*
D77*
X412750Y452644D03*
D78*
X436424Y452644D03*
D46*
X387902Y452782D03*
D27*
X393700Y452782D03*
D75*
X400395Y452782D03*
D76*
X412888Y452782D03*
D79*
X436907Y452782D03*
D36*
X387833Y452920D03*
D27*
X393976Y452920D03*
D66*
X400119Y452920D03*
D67*
X413164Y452920D03*
D68*
X437322Y452920D03*
D39*
X387833Y453059D03*
D70*
X394183Y453059D03*
X399843Y453059D03*
D77*
X413302Y453059D03*
D80*
X437736Y453059D03*
D46*
X387764Y453197D03*
D81*
X394528Y453197D03*
X399636Y453197D03*
D82*
X413509Y453197D03*
D79*
X438288Y453197D03*
D32*
X387695Y453335D03*
D83*
X394873Y453335D03*
D23*
X399222Y453335D03*
D82*
X413647Y453335D03*
D79*
X438702Y453335D03*
D49*
X387626Y453473D03*
D84*
X395494Y453473D03*
X398669Y453473D03*
D77*
X413854Y453473D03*
D78*
X439185Y453473D03*
D32*
X387557Y453611D03*
D85*
X397082Y453611D03*
D82*
X414061Y453611D03*
D30*
X439668Y453611D03*
D34*
X387488Y453749D03*
D53*
X397082Y453749D03*
D69*
X414199Y453749D03*
D21*
X440220Y453749D03*
D36*
X387419Y453887D03*
D52*
X397082Y453887D03*
D82*
X414337Y453887D03*
D45*
X440773Y453887D03*
D46*
X387350Y454025D03*
D28*
X397082Y454025D03*
D82*
X414475Y454025D03*
D86*
X441256Y454025D03*
D43*
X387281Y454163D03*
D87*
X414613Y454163D03*
D44*
X441808Y454163D03*
D46*
X387212Y454301D03*
D82*
X414889Y454301D03*
D12*
X442360Y454301D03*
D39*
X387143Y454439D03*
D69*
X415028Y454439D03*
D88*
X442912Y454439D03*
D46*
X387074Y454577D03*
D82*
X415166Y454577D03*
D36*
X416408Y454577D03*
D30*
X443395Y454577D03*
D32*
X387005Y454715D03*
D28*
X416132Y454715D03*
D89*
X443879Y454715D03*
D43*
X387005Y454853D03*
D21*
X416477Y454853D03*
D90*
X444362Y454853D03*
D47*
X386936Y454991D03*
D33*
X416684Y454991D03*
D51*
X444776Y454991D03*
D32*
X386867Y455129D03*
D37*
X416891Y455129D03*
D61*
X445121Y455129D03*
D34*
X386798Y455267D03*
D43*
X415580Y455267D03*
D90*
X417719Y455267D03*
D91*
X445466Y455267D03*
D46*
X386798Y455405D03*
D41*
X415649Y455405D03*
D58*
X417926Y455405D03*
D23*
X445742Y455405D03*
D39*
X386729Y455543D03*
X415718Y455543D03*
D90*
X418272Y455543D03*
D92*
X446087Y455543D03*
D46*
X386660Y455681D03*
D41*
X415787Y455681D03*
D51*
X418548Y455681D03*
D93*
X446639Y455681D03*
D43*
X386591Y455819D03*
D77*
X416063Y455819D03*
D94*
X418893Y455819D03*
D90*
X446985Y455819D03*
D46*
X386522Y455957D03*
D67*
X416201Y455957D03*
D93*
X419169Y455957D03*
D61*
X447192Y455957D03*
D46*
X386522Y456095D03*
D67*
X416339Y456095D03*
D61*
X419445Y456095D03*
D23*
X447399Y456095D03*
D39*
X386453Y456234D03*
D71*
X416408Y456234D03*
D95*
X419721Y456234D03*
D64*
X447675Y456234D03*
D46*
X386384Y456372D03*
D76*
X416477Y456372D03*
D23*
X419928Y456372D03*
D83*
X447882Y456372D03*
D46*
X386384Y456510D03*
D29*
X416546Y456510D03*
D23*
X420204Y456510D03*
D27*
X448227Y456510D03*
D39*
X386314Y456648D03*
D77*
X416615Y456648D03*
D64*
X420480Y456648D03*
D73*
X448365Y456648D03*
D46*
X386245Y456786D03*
D67*
X416753Y456786D03*
D83*
X420687Y456786D03*
D96*
X448572Y456786D03*
D34*
X386245Y456924D03*
D74*
X416753Y456924D03*
D97*
X420894Y456924D03*
D71*
X448710Y456924D03*
D32*
X386176Y457062D03*
D82*
X416822Y457062D03*
D98*
X421101Y457062D03*
D76*
X448779Y457062D03*
D46*
X386107Y457200D03*
D82*
X416960Y457200D03*
D29*
X421101Y457200D03*
D99*
X421930Y457200D03*
D76*
X448917Y457200D03*
D34*
X386107Y457338D03*
D69*
X416960Y457338D03*
D100*
X421309Y457338D03*
D77*
X449055Y457338D03*
D36*
X386038Y457476D03*
D41*
X417029Y457476D03*
D27*
X421447Y457476D03*
D82*
X449124Y457476D03*
D34*
X385969Y457614D03*
D31*
X417029Y457614D03*
D73*
X421723Y457614D03*
D31*
X449331Y457614D03*
D46*
X385969Y457752D03*
D41*
X417029Y457752D03*
D27*
X421861Y457752D03*
D82*
X449400Y457752D03*
D46*
X385969Y457890D03*
X417167Y457890D03*
D27*
X421999Y457890D03*
D41*
X449469Y457890D03*
D43*
X385900Y458028D03*
X417236Y458028D03*
D71*
X422206Y458028D03*
D31*
X449607Y458028D03*
D47*
X385831Y458166D03*
D32*
X417236Y458166D03*
D29*
X422344Y458166D03*
D41*
X449607Y458166D03*
D47*
X385831Y458304D03*
D32*
X417236Y458304D03*
D76*
X422413Y458304D03*
D32*
X449676Y458304D03*
D49*
X385831Y458442D03*
D43*
X417236Y458442D03*
D74*
X422551Y458442D03*
D31*
X449745Y458442D03*
D47*
X385831Y458580D03*
D46*
X417305Y458580D03*
D67*
X422689Y458580D03*
D36*
X449814Y458580D03*
D43*
X385762Y458718D03*
D39*
X417374Y458718D03*
D69*
X422758Y458718D03*
D101*
X449884Y458718D03*
D46*
X385693Y458856D03*
D36*
X417374Y458856D03*
D82*
X422896Y458856D03*
D41*
X450022Y458856D03*
D34*
X385693Y458994D03*
D39*
X417374Y458994D03*
D31*
X422965Y458994D03*
X450022Y458994D03*
D46*
X385693Y459132D03*
D36*
X417374Y459132D03*
D41*
X423103Y459132D03*
X450160Y459132D03*
D46*
X385693Y459270D03*
D36*
X417374Y459270D03*
D41*
X423103Y459270D03*
X450160Y459270D03*
D34*
X385693Y459409D03*
X392734Y459409D03*
D39*
X417374Y459409D03*
D31*
X423241Y459409D03*
D87*
X450229Y459409D03*
D36*
X385624Y459547D03*
D67*
X392872Y459547D03*
D36*
X417374Y459547D03*
D32*
X423310Y459547D03*
D102*
X450229Y459547D03*
D36*
X385624Y459685D03*
D66*
X392803Y459685D03*
D36*
X417374Y459685D03*
X423448Y459685D03*
D41*
X450298Y459685D03*
D34*
X385555Y459823D03*
D92*
X392803Y459823D03*
D39*
X417374Y459823D03*
D34*
X423517Y459823D03*
D69*
X450367Y459823D03*
D46*
X385555Y459961D03*
D93*
X392803Y459961D03*
D36*
X417374Y459961D03*
D103*
X423586Y459961D03*
D82*
X450367Y459961D03*
D34*
X385555Y460099D03*
D104*
X392664Y460099D03*
D39*
X417374Y460099D03*
D105*
X423724Y460099D03*
D69*
X450505Y460099D03*
D46*
X385555Y460237D03*
D28*
X392664Y460237D03*
D106*
X405019Y460237D03*
D36*
X417374Y460237D03*
D82*
X450505Y460237D03*
D46*
X385555Y460375D03*
D107*
X392664Y460375D03*
D68*
X404743Y460375D03*
D36*
X417374Y460375D03*
D82*
X450505Y460375D03*
D34*
X385555Y460513D03*
D108*
X392457Y460513D03*
D109*
X404674Y460513D03*
D39*
X417374Y460513D03*
D49*
X450436Y460513D03*
D105*
X450919Y460513D03*
D46*
X385555Y460651D03*
D37*
X392319Y460651D03*
D110*
X404743Y460651D03*
D46*
X417305Y460651D03*
D82*
X450643Y460651D03*
D34*
X385555Y460789D03*
D55*
X392250Y460789D03*
D111*
X405019Y460789D03*
D43*
X417236Y460789D03*
D69*
X450643Y460789D03*
D46*
X385555Y460927D03*
D52*
X392112Y460927D03*
D112*
X405157Y460927D03*
D46*
X417305Y460927D03*
D82*
X450643Y460927D03*
D46*
X385555Y461065D03*
D110*
X392043Y461065D03*
D60*
X405364Y461065D03*
D32*
X417236Y461065D03*
D76*
X450712Y461065D03*
D34*
X385555Y461203D03*
D111*
X391905Y461203D03*
D62*
X405434Y461203D03*
D43*
X417236Y461203D03*
D69*
X450781Y461203D03*
D46*
X385555Y461341D03*
D113*
X391836Y461341D03*
D114*
X405503Y461341D03*
D32*
X417236Y461341D03*
D82*
X450781Y461341D03*
D46*
X385555Y461479D03*
D112*
X391767Y461479D03*
D115*
X405641Y461479D03*
D32*
X417236Y461479D03*
D82*
X450781Y461479D03*
D34*
X385555Y461617D03*
D53*
X391698Y461617D03*
D116*
X405710Y461617D03*
D43*
X417236Y461617D03*
D31*
X450712Y461617D03*
D46*
X385555Y461755D03*
D117*
X391629Y461755D03*
D118*
X405779Y461755D03*
D32*
X417236Y461755D03*
D41*
X450712Y461755D03*
D106*
X451264Y461755D03*
D34*
X385555Y461893D03*
D62*
X391629Y461893D03*
D119*
X405917Y461893D03*
D43*
X417236Y461893D03*
D31*
X450712Y461893D03*
D46*
X385555Y462031D03*
D114*
X391560Y462031D03*
D120*
X405986Y462031D03*
D32*
X417236Y462031D03*
D41*
X450712Y462031D03*
D34*
X385555Y462169D03*
D116*
X391491Y462169D03*
D121*
X406124Y462169D03*
D43*
X417236Y462169D03*
X450781Y462169D03*
D46*
X385555Y462307D03*
D122*
X391491Y462307D03*
D123*
X406124Y462307D03*
D32*
X417236Y462307D03*
D41*
X450850Y462307D03*
D46*
X385555Y462445D03*
D85*
X391422Y462445D03*
D120*
X406262Y462445D03*
D46*
X417167Y462445D03*
D41*
X450850Y462445D03*
D34*
X385555Y462584D03*
D121*
X391353Y462584D03*
D124*
X406331Y462584D03*
D39*
X417098Y462584D03*
D31*
X450850Y462584D03*
D46*
X385555Y462722D03*
D125*
X391284Y462722D03*
D126*
X406400Y462722D03*
D36*
X417098Y462722D03*
D41*
X450850Y462722D03*
D46*
X385555Y462860D03*
D125*
X391284Y462860D03*
D126*
X406538Y462860D03*
D36*
X417098Y462860D03*
X450919Y462860D03*
D34*
X385555Y462998D03*
D127*
X391215Y462998D03*
D128*
X406676Y462998D03*
D39*
X417098Y462998D03*
X450919Y462998D03*
D46*
X385555Y463136D03*
D129*
X391146Y463136D03*
D130*
X406814Y463136D03*
D36*
X417098Y463136D03*
X450919Y463136D03*
D34*
X385555Y463274D03*
D131*
X391146Y463274D03*
D132*
X406883Y463274D03*
D34*
X417029Y463274D03*
D39*
X450919Y463274D03*
D46*
X385555Y463412D03*
D130*
X391077Y463412D03*
D133*
X407021Y463412D03*
D32*
X416960Y463412D03*
D36*
X450919Y463412D03*
D46*
X385555Y463550D03*
D130*
X391077Y463550D03*
D134*
X407159Y463550D03*
D32*
X416960Y463550D03*
D36*
X450919Y463550D03*
D34*
X385555Y463688D03*
D132*
X391008Y463688D03*
D135*
X407297Y463688D03*
D43*
X416960Y463688D03*
D39*
X450919Y463688D03*
D46*
X385555Y463826D03*
D136*
X390939Y463826D03*
D137*
X407366Y463826D03*
D32*
X416960Y463826D03*
D41*
X450988Y463826D03*
D34*
X385555Y463964D03*
D138*
X390939Y463964D03*
D139*
X407504Y463964D03*
D49*
X416891Y463964D03*
D31*
X450988Y463964D03*
D46*
X385555Y464102D03*
D140*
X390870Y464102D03*
D141*
X407711Y464102D03*
D32*
X416822Y464102D03*
D41*
X450988Y464102D03*
D46*
X385555Y464240D03*
D137*
X390801Y464240D03*
D142*
X407780Y464240D03*
D32*
X416822Y464240D03*
D41*
X450988Y464240D03*
D34*
X385555Y464378D03*
D139*
X390801Y464378D03*
D143*
X407987Y464378D03*
D43*
X416822Y464378D03*
D31*
X450988Y464378D03*
D46*
X385555Y464516D03*
D141*
X390732Y464516D03*
D144*
X408056Y464516D03*
D36*
X416684Y464516D03*
D41*
X450988Y464516D03*
D46*
X385555Y464654D03*
D141*
X390732Y464654D03*
D145*
X408263Y464654D03*
D36*
X416684Y464654D03*
D41*
X450988Y464654D03*
D34*
X385555Y464792D03*
D146*
X390663Y464792D03*
D147*
X408401Y464792D03*
D39*
X416684Y464792D03*
D31*
X450988Y464792D03*
D46*
X385555Y464930D03*
D148*
X390663Y464930D03*
D145*
X408539Y464930D03*
D36*
X416546Y464930D03*
D41*
X450988Y464930D03*
D34*
X385555Y465068D03*
D143*
X390594Y465068D03*
D149*
X408678Y465068D03*
D39*
X416546Y465068D03*
D31*
X450988Y465068D03*
D46*
X385555Y465206D03*
D142*
X390525Y465206D03*
D150*
X408816Y465206D03*
D36*
X416408Y465206D03*
D41*
X450988Y465206D03*
D39*
X385624Y465344D03*
D151*
X390525Y465344D03*
D152*
X408885Y465344D03*
D39*
X416408Y465344D03*
D31*
X451126Y465344D03*
D36*
X385624Y465482D03*
D153*
X390456Y465482D03*
D154*
X408954Y465482D03*
D41*
X416339Y465482D03*
X451126Y465482D03*
D36*
X385624Y465620D03*
D153*
X390456Y465620D03*
D154*
X409092Y465620D03*
D32*
X416270Y465620D03*
D41*
X451126Y465620D03*
D34*
X385693Y465759D03*
D151*
X390387Y465759D03*
X409161Y465759D03*
D31*
X416201Y465759D03*
X451126Y465759D03*
D46*
X385693Y465897D03*
D142*
X390387Y465897D03*
D140*
X409230Y465897D03*
D32*
X416132Y465897D03*
D41*
X451126Y465897D03*
D46*
X385693Y466035D03*
D142*
X390387Y466035D03*
D136*
X409299Y466035D03*
D41*
X416063Y466035D03*
X451126Y466035D03*
D34*
X385693Y466173D03*
D155*
X390318Y466173D03*
D128*
X409299Y466173D03*
D39*
X415994Y466173D03*
D31*
X451126Y466173D03*
D46*
X385693Y466311D03*
D141*
X390318Y466311D03*
D126*
X409437Y466311D03*
D32*
X415856Y466311D03*
D41*
X451126Y466311D03*
D43*
X385762Y466449D03*
D156*
X390249Y466449D03*
D157*
X409437Y466449D03*
D31*
X415787Y466449D03*
X451126Y466449D03*
D32*
X385762Y466587D03*
D140*
X390180Y466587D03*
D122*
X409437Y466587D03*
D36*
X415718Y466587D03*
D41*
X451126Y466587D03*
D47*
X385831Y466725D03*
D140*
X390180Y466725D03*
D117*
X409437Y466725D03*
D32*
X415580Y466725D03*
D41*
X451264Y466725D03*
D49*
X385831Y466863D03*
D138*
X390111Y466863D03*
D111*
X409437Y466863D03*
D31*
X415511Y466863D03*
X451264Y466863D03*
D47*
X385831Y467001D03*
D133*
X390042Y467001D03*
D42*
X409299Y467001D03*
D41*
X415373Y467001D03*
X451264Y467001D03*
D49*
X385831Y467139D03*
D128*
X389973Y467139D03*
D21*
X409161Y467139D03*
D31*
X415235Y467139D03*
X451264Y467139D03*
D47*
X385831Y467277D03*
D130*
X389973Y467277D03*
D23*
X408885Y467277D03*
D41*
X415097Y467277D03*
X451264Y467277D03*
D32*
X385900Y467415D03*
D129*
X389904Y467415D03*
D99*
X408125Y467415D03*
D158*
X414959Y467415D03*
D41*
X451264Y467415D03*
D34*
X385969Y467553D03*
D127*
X389835Y467553D03*
D39*
X414889Y467553D03*
X451333Y467553D03*
D46*
X385969Y467691D03*
D123*
X389835Y467691D03*
D32*
X414751Y467691D03*
D36*
X451333Y467691D03*
X386038Y467829D03*
D85*
X389766Y467829D03*
D41*
X414682Y467829D03*
D36*
X451333Y467829D03*
D39*
X386038Y467967D03*
D116*
X389697Y467967D03*
D31*
X414544Y467967D03*
X451402Y467967D03*
D41*
X386107Y468105D03*
D114*
X389628Y468105D03*
D41*
X414406Y468105D03*
X451402Y468105D03*
D43*
X386176Y468243D03*
D53*
X389628Y468243D03*
D31*
X414268Y468243D03*
D39*
X451471Y468243D03*
D41*
X386245Y468381D03*
D60*
X389628Y468381D03*
D41*
X414130Y468381D03*
D36*
X451471Y468381D03*
D34*
X386384Y468519D03*
D159*
X389559Y468519D03*
D87*
X413923Y468519D03*
D39*
X451471Y468519D03*
D46*
X386384Y468657D03*
D160*
X389559Y468657D03*
D82*
X413785Y468657D03*
D41*
X451540Y468657D03*
D36*
X386453Y468795D03*
D18*
X389489Y468795D03*
D82*
X413647Y468795D03*
D36*
X451609Y468795D03*
D34*
X386522Y468934D03*
D50*
X389489Y468934D03*
D69*
X413371Y468934D03*
D39*
X451609Y468934D03*
D32*
X386591Y469072D03*
D20*
X389420Y469072D03*
D82*
X413233Y469072D03*
D36*
X451609Y469072D03*
D46*
X386660Y469210D03*
D12*
X389351Y469210D03*
D67*
X413026Y469210D03*
D36*
X451609Y469210D03*
D39*
X386729Y469348D03*
D108*
X389282Y469348D03*
D70*
X398186Y469348D03*
D77*
X412750Y469348D03*
D39*
X451609Y469348D03*
D46*
X386798Y469486D03*
D28*
X389213Y469486D03*
X398186Y469486D03*
D29*
X412543Y469486D03*
D41*
X451678Y469486D03*
D43*
X386867Y469624D03*
D92*
X389075Y469624D03*
D22*
X398255Y469624D03*
D71*
X412267Y469624D03*
D31*
X451678Y469624D03*
D47*
X386936Y469762D03*
D81*
X397151Y469762D03*
D65*
X399360Y469762D03*
D27*
X411922Y469762D03*
D41*
X451678Y469762D03*
D47*
X386936Y469900D03*
D76*
X396737Y469900D03*
D66*
X399843Y469900D03*
D27*
X411645Y469900D03*
D32*
X451747Y469900D03*
D43*
X387005Y470038D03*
D69*
X396392Y470038D03*
D70*
X400257Y470038D03*
X411300Y470038D03*
D43*
X451747Y470038D03*
D36*
X387143Y470176D03*
D41*
X396185Y470176D03*
D65*
X400602Y470176D03*
D66*
X410886Y470176D03*
D41*
X451816Y470176D03*
D43*
X387281Y470314D03*
D31*
X396047Y470314D03*
D25*
X401016Y470314D03*
X410541Y470314D03*
D31*
X451816Y470314D03*
D32*
X387281Y470452D03*
D82*
X395839Y470452D03*
D23*
X401430Y470452D03*
D65*
X410127Y470452D03*
D41*
X451816Y470452D03*
D36*
X387419Y470590D03*
D41*
X395632Y470590D03*
D93*
X401913Y470590D03*
D66*
X409782Y470590D03*
D41*
X451816Y470590D03*
D34*
X387488Y470728D03*
D31*
X395494Y470728D03*
D95*
X402466Y470728D03*
D70*
X409368Y470728D03*
D43*
X451885Y470728D03*
D41*
X387626Y470866D03*
X395356Y470866D03*
D58*
X403018Y470866D03*
D27*
X409023Y470866D03*
D41*
X451954Y470866D03*
D82*
X387833Y471004D03*
D41*
X395218Y471004D03*
D30*
X403777Y471004D03*
D66*
X408678Y471004D03*
D41*
X451954Y471004D03*
D69*
X387971Y471142D03*
D31*
X395080Y471142D03*
D50*
X404812Y471142D03*
D97*
X408194Y471142D03*
D31*
X451954Y471142D03*
D41*
X388178Y471280D03*
X394942Y471280D03*
D85*
X406193Y471280D03*
D41*
X451954Y471280D03*
D69*
X388385Y471418D03*
D31*
X394804Y471418D03*
D56*
X406331Y471418D03*
D31*
X452092Y471418D03*
D76*
X388592Y471556D03*
D41*
X394666Y471556D03*
D58*
X406745Y471556D03*
D41*
X452092Y471556D03*
D77*
X388730Y471694D03*
D31*
X394390Y471694D03*
X452092Y471694D03*
D96*
X388937Y471832D03*
D36*
X389904Y471832D03*
D41*
X394252Y471832D03*
X452092Y471832D03*
D51*
X389697Y471970D03*
D82*
X394045Y471970D03*
D41*
X452230Y471970D03*
D78*
X390042Y472109D03*
D77*
X393838Y472109D03*
D31*
X452230Y472109D03*
D96*
X389489Y472247D03*
D98*
X391146Y472247D03*
D29*
X393493Y472247D03*
D32*
X452161Y472247D03*
D29*
X389766Y472385D03*
D12*
X392250Y472385D03*
D41*
X452230Y472385D03*
D77*
X389973Y472523D03*
D161*
X392388Y472523D03*
D31*
X452230Y472523D03*
D67*
X390249Y472661D03*
D29*
X392526Y472661D03*
D41*
X452230Y472661D03*
D77*
X390387Y472799D03*
D31*
X452230Y472799D03*
D76*
X390663Y472937D03*
D82*
X452299Y472937D03*
D96*
X390870Y473075D03*
D82*
X452299Y473075D03*
D71*
X391146Y473213D03*
D69*
X452299Y473213D03*
D67*
X391353Y473351D03*
D82*
X452299Y473351D03*
D69*
X391560Y473489D03*
D74*
X452368Y473489D03*
D102*
X391698Y473627D03*
D67*
X452368Y473627D03*
D82*
X391974Y473765D03*
D67*
X452368Y473765D03*
D74*
X392181Y473903D03*
D69*
X452437Y473903D03*
D29*
X392388Y474041D03*
D67*
X452506Y474041D03*
X392595Y474179D03*
X452506Y474179D03*
D69*
X392803Y474317D03*
X452575Y474317D03*
D82*
X392941Y474455D03*
X452575Y474455D03*
D69*
X393217Y474593D03*
D87*
X452713Y474593D03*
D82*
X393355Y474731D03*
D102*
X452713Y474731D03*
D77*
X393562Y474869D03*
D31*
X452782Y474869D03*
D102*
X393769Y475007D03*
D82*
X452851Y475007D03*
X393907Y475145D03*
X452851Y475145D03*
D31*
X394114Y475284D03*
X452920Y475284D03*
D41*
X394252Y475422D03*
X452920Y475422D03*
D82*
X394321Y475560D03*
D41*
X452920Y475560D03*
D162*
X464861Y475560D03*
D69*
X394459Y475698D03*
D39*
X452989Y475698D03*
D163*
X464999Y475698D03*
D82*
X394597Y475836D03*
D36*
X452989Y475836D03*
D164*
X465068Y475836D03*
D69*
X394735Y475974D03*
D39*
X452989Y475974D03*
D165*
X465206Y475974D03*
D82*
X394735Y476112D03*
D41*
X452920Y476112D03*
D45*
X459823Y476112D03*
D18*
X470383Y476112D03*
D102*
X394873Y476250D03*
D41*
X452920Y476250D03*
D58*
X459201Y476250D03*
D12*
X471349Y476250D03*
D69*
X395011Y476388D03*
D39*
X452989Y476388D03*
D64*
X458718Y476388D03*
D78*
X472039Y476388D03*
D82*
X395149Y476526D03*
D158*
X453059Y476526D03*
D83*
X458373Y476526D03*
D51*
X472523Y476526D03*
D74*
X395218Y476664D03*
D101*
X453059Y476664D03*
D25*
X458028Y476664D03*
D95*
X473006Y476664D03*
D67*
X395356Y476802D03*
D158*
X453059Y476802D03*
D65*
X457752Y476802D03*
D83*
X473420Y476802D03*
D82*
X395425Y476940D03*
D158*
X453059Y476940D03*
D81*
X457476Y476940D03*
D65*
X473765Y476940D03*
D77*
X395494Y477078D03*
D101*
X453059Y477078D03*
D70*
X457269Y477078D03*
X474110Y477078D03*
D76*
X395632Y477216D03*
D36*
X453128Y477216D03*
D29*
X457131Y477216D03*
D66*
X474386Y477216D03*
D82*
X395701Y477354D03*
D36*
X453128Y477354D03*
D96*
X456855Y477354D03*
D27*
X474593Y477354D03*
D74*
X395770Y477492D03*
D39*
X453128Y477492D03*
D73*
X456510Y477492D03*
X474869Y477492D03*
D82*
X395839Y477630D03*
D36*
X453128Y477630D03*
D166*
X456234Y477630D03*
D29*
X475076Y477630D03*
D69*
X395978Y477768D03*
D31*
X453197Y477768D03*
D71*
X456026Y477768D03*
D167*
X475353Y477768D03*
D82*
X395978Y477906D03*
D46*
X411369Y477906D03*
D29*
X435458Y477906D03*
D41*
X453197Y477906D03*
D27*
X455819Y477906D03*
D76*
X475560Y477906D03*
D69*
X396116Y478044D03*
D31*
X411369Y478044D03*
D50*
X435596Y478044D03*
D43*
X453266Y478044D03*
D73*
X455543Y478044D03*
D77*
X475698Y478044D03*
D82*
X396116Y478182D03*
D76*
X411369Y478182D03*
D130*
X435941Y478182D03*
D32*
X453266Y478182D03*
D27*
X455267Y478182D03*
D82*
X475905Y478182D03*
D41*
X396185Y478320D03*
D76*
X411369Y478320D03*
D134*
X435734Y478320D03*
D32*
X453266Y478320D03*
D75*
X454922Y478320D03*
D82*
X476043Y478320D03*
D87*
X396254Y478459D03*
D105*
X411162Y478459D03*
D39*
X411853Y478459D03*
D147*
X435872Y478459D03*
D31*
X453335Y478459D03*
D97*
X454577Y478459D03*
D69*
X476181Y478459D03*
D41*
X396323Y478597D03*
D47*
X411231Y478597D03*
D41*
X411922Y478597D03*
D33*
X433525Y478597D03*
D110*
X437874Y478597D03*
D51*
X454025Y478597D03*
D76*
X476388Y478597D03*
D41*
X396323Y478735D03*
D47*
X411231Y478735D03*
D46*
X412060Y478735D03*
D61*
X432835Y478735D03*
D38*
X438495Y478735D03*
D23*
X453887Y478735D03*
D82*
X476595Y478735D03*
D31*
X396461Y478873D03*
D43*
X411300Y478873D03*
D34*
X412198Y478873D03*
D168*
X432421Y478873D03*
D111*
X438564Y478873D03*
D73*
X453749Y478873D03*
D69*
X476733Y478873D03*
D41*
X396461Y479011D03*
D46*
X411369Y479011D03*
D32*
X412267Y479011D03*
D81*
X432076Y479011D03*
D60*
X438633Y479011D03*
D41*
X453473Y479011D03*
D82*
X476871Y479011D03*
D43*
X396530Y479149D03*
D34*
X411369Y479149D03*
D31*
X412336Y479149D03*
D70*
X431869Y479149D03*
D119*
X438771Y479149D03*
D39*
X453404Y479149D03*
D69*
X477009Y479149D03*
D32*
X396530Y479287D03*
D36*
X411438Y479287D03*
D32*
X412405Y479287D03*
D66*
X431593Y479287D03*
D126*
X438840Y479287D03*
D41*
X453473Y479287D03*
D82*
X477147Y479287D03*
D41*
X396599Y479425D03*
D46*
X411507Y479425D03*
D41*
X412474Y479425D03*
D27*
X431386Y479425D03*
D54*
X438840Y479425D03*
D41*
X453473Y479425D03*
D82*
X477285Y479425D03*
D39*
X396668Y479563D03*
D43*
X411576Y479563D03*
D31*
X412612Y479563D03*
D71*
X431179Y479563D03*
D139*
X438840Y479563D03*
D43*
X453542Y479563D03*
D87*
X477423Y479563D03*
D36*
X396668Y479701D03*
D32*
X411576Y479701D03*
D41*
X412750Y479701D03*
D29*
X431041Y479701D03*
D154*
X438909Y479701D03*
D32*
X453542Y479701D03*
D82*
X477561Y479701D03*
D39*
X396668Y479839D03*
X411714Y479839D03*
D31*
X412888Y479839D03*
D74*
X430834Y479839D03*
D147*
X439047Y479839D03*
D43*
X453542Y479839D03*
D69*
X477699Y479839D03*
D46*
X396737Y479977D03*
D36*
X411714Y479977D03*
D41*
X413026Y479977D03*
D67*
X430695Y479977D03*
D169*
X439047Y479977D03*
D41*
X453611Y479977D03*
D82*
X477837Y479977D03*
D32*
X396806Y480115D03*
D46*
X411784Y480115D03*
D41*
X413026Y480115D03*
D76*
X430557Y480115D03*
D170*
X439047Y480115D03*
D41*
X453611Y480115D03*
D82*
X477975Y480115D03*
D43*
X396806Y480253D03*
D34*
X411922Y480253D03*
D31*
X413164Y480253D03*
D87*
X430488Y480253D03*
D171*
X439116Y480253D03*
D31*
X453611Y480253D03*
D87*
X478113Y480253D03*
D46*
X396875Y480391D03*
X411922Y480391D03*
D41*
X413164Y480391D03*
D82*
X430350Y480391D03*
D172*
X439185Y480391D03*
D32*
X453680Y480391D03*
D41*
X478182Y480391D03*
D46*
X396875Y480529D03*
D103*
X411991Y480529D03*
D106*
X413026Y480529D03*
D46*
X413440Y480529D03*
D82*
X430212Y480529D03*
D173*
X439185Y480529D03*
D32*
X453680Y480529D03*
D41*
X478320Y480529D03*
D39*
X396944Y480667D03*
X412129Y480667D03*
D31*
X413440Y480667D03*
X430143Y480667D03*
D174*
X439185Y480667D03*
D31*
X453749Y480667D03*
D101*
X478459Y480667D03*
D36*
X396944Y480805D03*
X412129Y480805D03*
X413509Y480805D03*
D82*
X430074Y480805D03*
D175*
X439254Y480805D03*
D41*
X453749Y480805D03*
X478597Y480805D03*
D39*
X396944Y480943D03*
D34*
X412198Y480943D03*
D43*
X413647Y480943D03*
D31*
X430005Y480943D03*
D176*
X439254Y480943D03*
D39*
X453818Y480943D03*
D31*
X478735Y480943D03*
D46*
X397013Y481081D03*
X412198Y481081D03*
D32*
X413785Y481081D03*
D82*
X429936Y481081D03*
D162*
X439323Y481081D03*
D36*
X453818Y481081D03*
D102*
X478804Y481081D03*
D34*
X397013Y481219D03*
D43*
X412267Y481219D03*
X413785Y481219D03*
D31*
X429867Y481219D03*
D177*
X439254Y481219D03*
D39*
X453818Y481219D03*
D69*
X478942Y481219D03*
D46*
X397013Y481357D03*
D32*
X412267Y481357D03*
D36*
X413923Y481357D03*
D41*
X429867Y481357D03*
D178*
X439323Y481357D03*
D36*
X453818Y481357D03*
D41*
X479011Y481357D03*
D46*
X397013Y481495D03*
D32*
X412405Y481495D03*
D41*
X413992Y481495D03*
X429729Y481495D03*
D178*
X439323Y481495D03*
D36*
X453818Y481495D03*
D67*
X463274Y481495D03*
D37*
X465482Y481495D03*
D41*
X467553Y481495D03*
X479149Y481495D03*
D34*
X397013Y481634D03*
D43*
X412405Y481634D03*
X414061Y481634D03*
D31*
X429729Y481634D03*
D179*
X439323Y481634D03*
D31*
X453887Y481634D03*
D180*
X465413Y481634D03*
D31*
X479287Y481634D03*
D32*
X397082Y481772D03*
D82*
X412543Y481772D03*
D36*
X414199Y481772D03*
D41*
X429729Y481772D03*
D181*
X439323Y481772D03*
D41*
X453887Y481772D03*
D182*
X465482Y481772D03*
D41*
X479425Y481772D03*
X397151Y481910D03*
X412612Y481910D03*
X414268Y481910D03*
X429729Y481910D03*
D183*
X439392Y481910D03*
D41*
X453887Y481910D03*
D76*
X460237Y481910D03*
D28*
X462791Y481910D03*
D68*
X468105Y481910D03*
D41*
X479563Y481910D03*
D31*
X397151Y482048D03*
X412612Y482048D03*
X414406Y482048D03*
D43*
X429660Y482048D03*
D184*
X439323Y482048D03*
D31*
X453887Y482048D03*
D105*
X455888Y482048D03*
D92*
X460030Y482048D03*
D90*
X462031Y482048D03*
D92*
X468588Y482048D03*
D69*
X479632Y482048D03*
D41*
X397151Y482186D03*
D82*
X412681Y482186D03*
D41*
X414544Y482186D03*
X429591Y482186D03*
D185*
X439323Y482186D03*
D41*
X453887Y482186D03*
D186*
X458580Y482186D03*
D76*
X469210Y482186D03*
D41*
X479701Y482186D03*
D43*
X397082Y482324D03*
D31*
X412750Y482324D03*
D87*
X414613Y482324D03*
D31*
X429591Y482324D03*
D187*
X439392Y482324D03*
D188*
X457959Y482324D03*
D77*
X469348Y482324D03*
D31*
X479839Y482324D03*
D32*
X397082Y482462D03*
D23*
X398807Y482462D03*
D41*
X412750Y482462D03*
D32*
X414751Y482462D03*
D41*
X429591Y482462D03*
D189*
X439392Y482462D03*
D190*
X457338Y482462D03*
D41*
X461755Y482462D03*
D82*
X469555Y482462D03*
D41*
X479977Y482462D03*
D32*
X397082Y482600D03*
D30*
X398945Y482600D03*
D102*
X412819Y482600D03*
D41*
X414820Y482600D03*
X429591Y482600D03*
D189*
X439392Y482600D03*
D33*
X454784Y482600D03*
D81*
X460099Y482600D03*
D76*
X469762Y482600D03*
D41*
X480115Y482600D03*
D56*
X398600Y482738D03*
D31*
X412888Y482738D03*
D101*
X414959Y482738D03*
D31*
X429591Y482738D03*
D191*
X439323Y482738D03*
D73*
X454025Y482738D03*
D87*
X469969Y482738D03*
D31*
X480115Y482738D03*
D112*
X398807Y482876D03*
D82*
X412957Y482876D03*
D41*
X415097Y482876D03*
X429591Y482876D03*
D192*
X439392Y482876D03*
D41*
X453887Y482876D03*
D82*
X470107Y482876D03*
D41*
X480253Y482876D03*
D62*
X398945Y483014D03*
D31*
X413026Y483014D03*
D43*
X415166Y483014D03*
D31*
X429591Y483014D03*
D193*
X439392Y483014D03*
D31*
X453887Y483014D03*
D69*
X470245Y483014D03*
D31*
X480391Y483014D03*
D65*
X397427Y483152D03*
D68*
X400326Y483152D03*
D82*
X413095Y483152D03*
D41*
X415235Y483152D03*
X429591Y483152D03*
D192*
X439392Y483152D03*
D41*
X453887Y483152D03*
X470452Y483152D03*
X480529Y483152D03*
D27*
X397289Y483290D03*
D28*
X400395Y483290D03*
D41*
X413164Y483290D03*
X415373Y483290D03*
X429591Y483290D03*
D192*
X439392Y483290D03*
D36*
X453818Y483290D03*
D41*
X470590Y483290D03*
X480529Y483290D03*
D74*
X397151Y483428D03*
D35*
X400464Y483428D03*
D31*
X413164Y483428D03*
X415511Y483428D03*
X429591Y483428D03*
D193*
X439392Y483428D03*
D39*
X453818Y483428D03*
D31*
X470728Y483428D03*
X480667Y483428D03*
D82*
X397082Y483566D03*
D12*
X400533Y483566D03*
D82*
X413233Y483566D03*
D41*
X415649Y483566D03*
X429591Y483566D03*
D192*
X439392Y483566D03*
D36*
X453818Y483566D03*
D82*
X470935Y483566D03*
D41*
X480805Y483566D03*
D30*
X393700Y483704D03*
D102*
X396944Y483704D03*
D38*
X400533Y483704D03*
D41*
X413302Y483704D03*
D36*
X415718Y483704D03*
D41*
X429591Y483704D03*
D192*
X439392Y483704D03*
D36*
X453818Y483704D03*
D41*
X471004Y483704D03*
X480805Y483704D03*
D194*
X393493Y483842D03*
D87*
X396944Y483842D03*
D195*
X400602Y483842D03*
D31*
X413302Y483842D03*
X415787Y483842D03*
X429591Y483842D03*
D193*
X439392Y483842D03*
D39*
X453818Y483842D03*
D31*
X471142Y483842D03*
X480943Y483842D03*
D196*
X393493Y483980D03*
D52*
X400671Y483980D03*
D36*
X413371Y483980D03*
D41*
X415925Y483980D03*
X429591Y483980D03*
D192*
X439392Y483980D03*
D36*
X453818Y483980D03*
D82*
X471349Y483980D03*
D41*
X481081Y483980D03*
D197*
X392872Y484118D03*
D198*
X400671Y484118D03*
D39*
X413371Y484118D03*
D31*
X416063Y484118D03*
X429591Y484118D03*
D193*
X439392Y484118D03*
D39*
X453818Y484118D03*
D74*
X471556Y484118D03*
D31*
X481081Y484118D03*
D189*
X392043Y484256D03*
D160*
X400740Y484256D03*
D41*
X413440Y484256D03*
D32*
X416132Y484256D03*
D41*
X429591Y484256D03*
D192*
X439392Y484256D03*
D36*
X453818Y484256D03*
D76*
X471694Y484256D03*
D41*
X481219Y484256D03*
D131*
X388661Y484394D03*
D97*
X396323Y484394D03*
D111*
X400740Y484394D03*
D39*
X413509Y484394D03*
D31*
X416201Y484394D03*
X429591Y484394D03*
D193*
X439392Y484394D03*
D39*
X453818Y484394D03*
D77*
X471832Y484394D03*
D39*
X481288Y484394D03*
D125*
X387695Y484532D03*
D41*
X396599Y484532D03*
D112*
X400740Y484532D03*
D36*
X413509Y484532D03*
D41*
X416339Y484532D03*
D32*
X429660Y484532D03*
D199*
X439461Y484532D03*
D36*
X453818Y484532D03*
D96*
X472039Y484532D03*
D41*
X481357Y484532D03*
D122*
X386798Y484670D03*
D36*
X396668Y484670D03*
D112*
X400740Y484670D03*
D41*
X413578Y484670D03*
X416477Y484670D03*
D32*
X429660Y484670D03*
D199*
X439461Y484670D03*
D36*
X453818Y484670D03*
D96*
X472178Y484670D03*
D41*
X481495Y484670D03*
D200*
X385693Y484809D03*
D39*
X396668Y484809D03*
D53*
X400809Y484809D03*
D43*
X413647Y484809D03*
D31*
X416615Y484809D03*
X429729Y484809D03*
D191*
X439461Y484809D03*
D39*
X453818Y484809D03*
D71*
X472316Y484809D03*
D39*
X481564Y484809D03*
D45*
X384727Y484947D03*
D36*
X396668Y484947D03*
D117*
X400740Y484947D03*
D41*
X413716Y484947D03*
D36*
X416684Y484947D03*
D41*
X429729Y484947D03*
D199*
X439461Y484947D03*
D36*
X453818Y484947D03*
D27*
X472523Y484947D03*
D158*
X481634Y484947D03*
D28*
X384106Y485085D03*
D36*
X396668Y485085D03*
D114*
X400809Y485085D03*
D32*
X413785Y485085D03*
D41*
X416753Y485085D03*
X429729Y485085D03*
D199*
X439461Y485085D03*
D36*
X453818Y485085D03*
D27*
X472661Y485085D03*
D36*
X481703Y485085D03*
D161*
X383554Y485223D03*
D39*
X396668Y485223D03*
D201*
X400809Y485223D03*
D31*
X413854Y485223D03*
X416891Y485223D03*
X429729Y485223D03*
D191*
X439461Y485223D03*
D39*
X453818Y485223D03*
D71*
X472868Y485223D03*
D31*
X481772Y485223D03*
D23*
X383070Y485361D03*
D36*
X396668Y485361D03*
D85*
X400809Y485361D03*
D41*
X413854Y485361D03*
X417029Y485361D03*
X429729Y485361D03*
D199*
X439461Y485361D03*
D36*
X453818Y485361D03*
D27*
X473075Y485361D03*
D32*
X481841Y485361D03*
D25*
X382656Y485499D03*
D31*
X396737Y485499D03*
D119*
X400809Y485499D03*
D39*
X413923Y485499D03*
X417098Y485499D03*
D31*
X429867Y485499D03*
D202*
X439530Y485499D03*
D39*
X453818Y485499D03*
D70*
X473282Y485499D03*
D39*
X481979Y485499D03*
D66*
X382311Y485637D03*
D41*
X396737Y485637D03*
D85*
X400809Y485637D03*
D41*
X413992Y485637D03*
X417167Y485637D03*
X429867Y485637D03*
D203*
X439530Y485637D03*
D46*
X453749Y485637D03*
D72*
X472937Y485637D03*
D76*
X473627Y485637D03*
D41*
X482048Y485637D03*
D66*
X382035Y485775D03*
D41*
X396737Y485775D03*
D125*
X400809Y485775D03*
D32*
X414061Y485775D03*
D41*
X417305Y485775D03*
X429867Y485775D03*
D203*
X439530Y485775D03*
D46*
X453749Y485775D03*
D72*
X473075Y485775D03*
D76*
X473765Y485775D03*
D32*
X482117Y485775D03*
D71*
X381759Y485913D03*
D31*
X396737Y485913D03*
D194*
X400809Y485913D03*
D31*
X414130Y485913D03*
X417443Y485913D03*
X429867Y485913D03*
D202*
X439530Y485913D03*
D34*
X453749Y485913D03*
D204*
X473213Y485913D03*
D31*
X473903Y485913D03*
X482186Y485913D03*
D29*
X381483Y486051D03*
D36*
X396668Y486051D03*
D125*
X400809Y486051D03*
D41*
X414130Y486051D03*
X417581Y486051D03*
X430005Y486051D03*
D183*
X439530Y486051D03*
D32*
X453680Y486051D03*
D82*
X474110Y486051D03*
D32*
X482255Y486051D03*
D71*
X381207Y486189D03*
D39*
X396668Y486189D03*
D194*
X400809Y486189D03*
D39*
X414199Y486189D03*
D43*
X417650Y486189D03*
D31*
X430005Y486189D03*
D205*
X439530Y486189D03*
D43*
X453680Y486189D03*
D206*
X473627Y486189D03*
D87*
X474248Y486189D03*
D31*
X482324Y486189D03*
D27*
X381000Y486327D03*
D36*
X396668Y486327D03*
D126*
X400878Y486327D03*
D41*
X414268Y486327D03*
X417719Y486327D03*
D82*
X430074Y486327D03*
D183*
X439530Y486327D03*
D32*
X453680Y486327D03*
D82*
X474386Y486327D03*
D36*
X482393Y486327D03*
D29*
X380793Y486465D03*
D36*
X396668Y486465D03*
D126*
X400878Y486465D03*
D82*
X414199Y486465D03*
D41*
X417857Y486465D03*
X430143Y486465D03*
D181*
X439599Y486465D03*
D32*
X453680Y486465D03*
D76*
X474455Y486465D03*
D41*
X482462Y486465D03*
D71*
X380517Y486603D03*
D39*
X396668Y486603D03*
D194*
X400947Y486603D03*
D92*
X413923Y486603D03*
D31*
X417995Y486603D03*
X430143Y486603D03*
D179*
X439599Y486603D03*
D43*
X453680Y486603D03*
D204*
X474179Y486603D03*
D31*
X474731Y486603D03*
D43*
X482531Y486603D03*
D29*
X380241Y486741D03*
D36*
X396668Y486741D03*
D125*
X400947Y486741D03*
D79*
X413578Y486741D03*
D41*
X417995Y486741D03*
X430281Y486741D03*
D17*
X439530Y486741D03*
D32*
X453680Y486741D03*
D67*
X474731Y486741D03*
D36*
X482669Y486741D03*
D96*
X380103Y486879D03*
D36*
X396668Y486879D03*
D125*
X400947Y486879D03*
D57*
X413026Y486879D03*
D158*
X418134Y486879D03*
D82*
X430350Y486879D03*
D178*
X439599Y486879D03*
D32*
X453680Y486879D03*
D102*
X474938Y486879D03*
D41*
X482738Y486879D03*
D71*
X379826Y487017D03*
D26*
X395563Y487017D03*
D207*
X401016Y487017D03*
D111*
X412474Y487017D03*
D206*
X414682Y487017D03*
D31*
X418272Y487017D03*
X430419Y487017D03*
D208*
X439599Y487017D03*
D43*
X453680Y487017D03*
D69*
X475076Y487017D03*
D43*
X482807Y487017D03*
D76*
X379619Y487155D03*
D114*
X394597Y487155D03*
D209*
X401016Y487155D03*
D48*
X412129Y487155D03*
D82*
X418341Y487155D03*
D102*
X430488Y487155D03*
D210*
X439668Y487155D03*
D32*
X453680Y487155D03*
D82*
X475214Y487155D03*
D41*
X482876Y487155D03*
D74*
X379343Y487293D03*
D211*
X393424Y487293D03*
D207*
X401016Y487293D03*
D212*
X411162Y487293D03*
D87*
X418479Y487293D03*
D69*
X430626Y487293D03*
D213*
X439599Y487293D03*
D49*
X453611Y487293D03*
D69*
X475353Y487293D03*
D43*
X482945Y487293D03*
D76*
X379205Y487431D03*
D214*
X393010Y487431D03*
D209*
X401016Y487431D03*
D82*
X411024Y487431D03*
D41*
X418548Y487431D03*
D82*
X430626Y487431D03*
D215*
X439668Y487431D03*
D47*
X453611Y487431D03*
D41*
X475422Y487431D03*
X483014Y487431D03*
D77*
X378929Y487569D03*
D216*
X392734Y487569D03*
D194*
X401085Y487569D03*
D69*
X411024Y487569D03*
D31*
X418686Y487569D03*
D69*
X430764Y487569D03*
D176*
X439668Y487569D03*
D43*
X453542Y487569D03*
D69*
X475491Y487569D03*
D39*
X483083Y487569D03*
D67*
X378791Y487707D03*
D133*
X391008Y487707D03*
D36*
X396668Y487707D03*
D125*
X401085Y487707D03*
D82*
X411162Y487707D03*
X418755Y487707D03*
X430903Y487707D03*
D217*
X439668Y487707D03*
D32*
X453542Y487707D03*
D102*
X475629Y487707D03*
D36*
X483221Y487707D03*
D76*
X378515Y487845D03*
D160*
X389697Y487845D03*
D36*
X396668Y487845D03*
D123*
X401154Y487845D03*
D82*
X411300Y487845D03*
X418893Y487845D03*
X431041Y487845D03*
D218*
X439116Y487845D03*
D67*
X443534Y487845D03*
D32*
X453542Y487845D03*
D82*
X475767Y487845D03*
D36*
X483221Y487845D03*
D69*
X378308Y487984D03*
D78*
X388523Y487984D03*
D34*
X396737Y487984D03*
D121*
X401154Y487984D03*
D77*
X411369Y487984D03*
D212*
X418755Y487984D03*
D77*
X431110Y487984D03*
D147*
X439047Y487984D03*
D74*
X443395Y487984D03*
D43*
X453542Y487984D03*
D31*
X475836Y487984D03*
D39*
X483359Y487984D03*
D82*
X378170Y488122D03*
D51*
X388040Y488122D03*
D46*
X396737Y488122D03*
D85*
X401223Y488122D03*
D102*
X411438Y488122D03*
D58*
X418341Y488122D03*
D76*
X431248Y488122D03*
D148*
X438978Y488122D03*
D67*
X443395Y488122D03*
D46*
X453473Y488122D03*
D41*
X475974Y488122D03*
X483428Y488122D03*
D82*
X378032Y488260D03*
D219*
X387626Y488260D03*
D46*
X396737Y488260D03*
D85*
X401223Y488260D03*
D82*
X411576Y488260D03*
D47*
X415511Y488260D03*
D20*
X417581Y488260D03*
D67*
X431386Y488260D03*
D134*
X438909Y488260D03*
D76*
X443257Y488260D03*
D36*
X453404Y488260D03*
D41*
X476112Y488260D03*
D32*
X483497Y488260D03*
D31*
X377825Y488398D03*
D168*
X387281Y488398D03*
D34*
X396737Y488398D03*
D220*
X401223Y488398D03*
D69*
X411714Y488398D03*
D111*
X417167Y488398D03*
D74*
X431524Y488398D03*
D127*
X438840Y488398D03*
D77*
X443257Y488398D03*
D39*
X453404Y488398D03*
D43*
X476181Y488398D03*
D31*
X483566Y488398D03*
D82*
X377618Y488536D03*
D81*
X386936Y488536D03*
D46*
X396737Y488536D03*
D221*
X401292Y488536D03*
D67*
X411784Y488536D03*
D20*
X417029Y488536D03*
D29*
X431731Y488536D03*
D122*
X438840Y488536D03*
D76*
X443119Y488536D03*
D36*
X453404Y488536D03*
X476319Y488536D03*
D32*
X483635Y488536D03*
D69*
X377480Y488674D03*
D97*
X386660Y488674D03*
D34*
X396737Y488674D03*
D222*
X401292Y488674D03*
D69*
X411853Y488674D03*
D21*
X416615Y488674D03*
D77*
X431800Y488674D03*
D223*
X438771Y488674D03*
D71*
X443050Y488674D03*
D39*
X453404Y488674D03*
X476319Y488674D03*
D31*
X483704Y488674D03*
D41*
X377411Y488812D03*
D81*
X386384Y488812D03*
D46*
X396737Y488812D03*
D60*
X401361Y488812D03*
D82*
X411991Y488812D03*
D23*
X416339Y488812D03*
D67*
X432076Y488812D03*
D37*
X438702Y488812D03*
D67*
X442981Y488812D03*
D46*
X453335Y488812D03*
D32*
X476457Y488812D03*
D36*
X483773Y488812D03*
D41*
X377273Y488950D03*
D65*
X386107Y488950D03*
D32*
X396806Y488950D03*
D59*
X401430Y488950D03*
D102*
X412129Y488950D03*
D41*
X415925Y488950D03*
D67*
X432214Y488950D03*
D51*
X438564Y488950D03*
D96*
X442912Y488950D03*
D32*
X453266Y488950D03*
D47*
X476526Y488950D03*
D41*
X483842Y488950D03*
D31*
X377135Y489088D03*
D25*
X385831Y489088D03*
D43*
X396806Y489088D03*
D159*
X401430Y489088D03*
D77*
X412198Y489088D03*
D39*
X415994Y489088D03*
D77*
X432352Y489088D03*
D71*
X442774Y489088D03*
D43*
X453266Y489088D03*
X476595Y489088D03*
X483911Y489088D03*
D41*
X376997Y489226D03*
D66*
X385624Y489226D03*
D36*
X396944Y489226D03*
D224*
X401499Y489226D03*
D67*
X412336Y489226D03*
D32*
X416132Y489226D03*
D82*
X432559Y489226D03*
D29*
X442636Y489226D03*
D32*
X453266Y489226D03*
D46*
X476664Y489226D03*
D32*
X483911Y489226D03*
D101*
X376859Y489364D03*
D70*
X385348Y489364D03*
D39*
X396944Y489364D03*
D111*
X401568Y489364D03*
D69*
X412405Y489364D03*
D31*
X416201Y489364D03*
D69*
X432697Y489364D03*
D71*
X442498Y489364D03*
D43*
X453266Y489364D03*
D39*
X476733Y489364D03*
X484049Y489364D03*
D36*
X376789Y489502D03*
D27*
X385141Y489502D03*
D36*
X396944Y489502D03*
D110*
X401568Y489502D03*
D82*
X412543Y489502D03*
D41*
X416339Y489502D03*
D76*
X432904Y489502D03*
D27*
X442429Y489502D03*
D46*
X453197Y489502D03*
X476802Y489502D03*
D36*
X484049Y489502D03*
D41*
X376720Y489640D03*
D27*
X384865Y489640D03*
D36*
X396944Y489640D03*
D52*
X401637Y489640D03*
D82*
X412681Y489640D03*
D41*
X416477Y489640D03*
D76*
X433042Y489640D03*
D27*
X442291Y489640D03*
D46*
X453197Y489640D03*
X476802Y489640D03*
D32*
X484187Y489640D03*
D43*
X376651Y489778D03*
D70*
X384658Y489778D03*
D34*
X397013Y489778D03*
D195*
X401706Y489778D03*
D87*
X412819Y489778D03*
D39*
X416546Y489778D03*
D77*
X433180Y489778D03*
D73*
X442153Y489778D03*
D39*
X453128Y489778D03*
D34*
X468243Y489778D03*
D206*
X469210Y489778D03*
D39*
X476871Y489778D03*
D43*
X484187Y489778D03*
D36*
X376513Y489916D03*
D27*
X384451Y489916D03*
D46*
X397013Y489916D03*
D48*
X401775Y489916D03*
D76*
X412888Y489916D03*
D41*
X416615Y489916D03*
D96*
X433387Y489916D03*
D27*
X442015Y489916D03*
D36*
X453128Y489916D03*
D66*
X468174Y489916D03*
D86*
X470521Y489916D03*
D46*
X476940Y489916D03*
D32*
X484187Y489916D03*
D41*
X376444Y490054D03*
D27*
X384175Y490054D03*
D46*
X397013Y490054D03*
D12*
X401775Y490054D03*
D67*
X413026Y490054D03*
D41*
X416753Y490054D03*
D29*
X433525Y490054D03*
D27*
X441877Y490054D03*
D46*
X453059Y490054D03*
D140*
X470107Y490054D03*
D46*
X474455Y490054D03*
X476940Y490054D03*
D32*
X484325Y490054D03*
D43*
X376375Y490192D03*
D73*
X384037Y490192D03*
D34*
X397013Y490192D03*
D26*
X401913Y490192D03*
D69*
X413095Y490192D03*
D31*
X416891Y490192D03*
D73*
X433732Y490192D03*
D212*
X441670Y490192D03*
D34*
X453059Y490192D03*
D225*
X470866Y490192D03*
D34*
X476940Y490192D03*
D43*
X484325Y490192D03*
D32*
X376237Y490330D03*
D27*
X383761Y490330D03*
D32*
X397082Y490330D03*
D30*
X401982Y490330D03*
D82*
X413233Y490330D03*
D32*
X416960Y490330D03*
D166*
X434009Y490330D03*
D66*
X441532Y490330D03*
D158*
X453059Y490330D03*
D60*
X468312Y490330D03*
D106*
X470728Y490330D03*
X471004Y490330D03*
D57*
X473765Y490330D03*
D46*
X476940Y490330D03*
D32*
X484325Y490330D03*
D31*
X376168Y490468D03*
D73*
X383623Y490468D03*
D43*
X397082Y490468D03*
D90*
X402120Y490468D03*
D69*
X413371Y490468D03*
D39*
X417098Y490468D03*
D73*
X434147Y490468D03*
D97*
X441325Y490468D03*
D74*
X453197Y490468D03*
D92*
X466380Y490468D03*
D226*
X469141Y490468D03*
D55*
X474386Y490468D03*
D34*
X477078Y490468D03*
D43*
X484325Y490468D03*
D36*
X376099Y490606D03*
D29*
X383416Y490606D03*
D32*
X397082Y490606D03*
D23*
X402259Y490606D03*
D82*
X413371Y490606D03*
D41*
X417167Y490606D03*
D65*
X434423Y490606D03*
D83*
X441118Y490606D03*
D27*
X453335Y490606D03*
D81*
X465759Y490606D03*
D30*
X475145Y490606D03*
D46*
X477078Y490606D03*
X484394Y490606D03*
D31*
X376030Y490744D03*
D100*
X383209Y490744D03*
D43*
X397082Y490744D03*
X402742Y490744D03*
D69*
X413509Y490744D03*
D31*
X417305Y490744D03*
D92*
X434768Y490744D03*
X440842Y490744D03*
X453404Y490744D03*
D64*
X465344Y490744D03*
D95*
X475767Y490744D03*
D34*
X477078Y490744D03*
X484394Y490744D03*
D32*
X375961Y490882D03*
D29*
X383001Y490882D03*
D47*
X397151Y490882D03*
D41*
X402673Y490882D03*
D82*
X413647Y490882D03*
D41*
X417443Y490882D03*
D81*
X435113Y490882D03*
D61*
X440566Y490882D03*
D32*
X452851Y490882D03*
D66*
X454094Y490882D03*
D51*
X464654Y490882D03*
D76*
X476802Y490882D03*
D46*
X484394Y490882D03*
D36*
X375823Y491020D03*
D27*
X382794Y491020D03*
D47*
X397151Y491020D03*
D41*
X402535Y491020D03*
X413716Y491020D03*
D32*
X417512Y491020D03*
D23*
X435527Y491020D03*
D58*
X440151Y491020D03*
D32*
X452851Y491020D03*
D83*
X454508Y491020D03*
D37*
X463964Y491020D03*
D99*
X477009Y491020D03*
D36*
X484463Y491020D03*
D31*
X375754Y491159D03*
D167*
X382587Y491159D03*
D43*
X397220Y491159D03*
X402466Y491159D03*
D69*
X413785Y491159D03*
D43*
X417650Y491159D03*
D138*
X438012Y491159D03*
D34*
X452782Y491159D03*
D95*
X454922Y491159D03*
D22*
X463688Y491159D03*
D105*
X477009Y491159D03*
D39*
X484463Y491159D03*
D32*
X375685Y491297D03*
D29*
X382449Y491297D03*
D32*
X397220Y491297D03*
D41*
X402397Y491297D03*
D102*
X413923Y491297D03*
D41*
X417719Y491297D03*
D120*
X438150Y491297D03*
D36*
X452713Y491297D03*
D23*
X455405Y491297D03*
D66*
X458925Y491297D03*
D37*
X462445Y491297D03*
D46*
X476940Y491297D03*
D36*
X484463Y491297D03*
D41*
X375616Y491435D03*
D29*
X382173Y491435D03*
D82*
X397358Y491435D03*
D158*
X402259Y491435D03*
D41*
X413992Y491435D03*
X417857Y491435D03*
D112*
X438150Y491435D03*
D36*
X452713Y491435D03*
D186*
X459270Y491435D03*
D46*
X484394Y491435D03*
D43*
X375547Y491573D03*
D71*
X382035Y491573D03*
D77*
X397565Y491573D03*
D31*
X402120Y491573D03*
D69*
X414061Y491573D03*
D43*
X417926Y491573D03*
D195*
X438150Y491573D03*
D39*
X452713Y491573D03*
D227*
X459063Y491573D03*
D34*
X484394Y491573D03*
D36*
X375409Y491711D03*
D96*
X381897Y491711D03*
D76*
X397565Y491711D03*
X401982Y491711D03*
D41*
X414130Y491711D03*
D36*
X418064Y491711D03*
D79*
X438150Y491711D03*
D46*
X452644Y491711D03*
D117*
X458856Y491711D03*
D46*
X484394Y491711D03*
D31*
X375340Y491849D03*
D71*
X381621Y491849D03*
D212*
X397772Y491849D03*
D71*
X401775Y491849D03*
D31*
X414268Y491849D03*
D101*
X418134Y491849D03*
D43*
X452575Y491849D03*
X484325Y491849D03*
D36*
X375271Y491987D03*
D29*
X381483Y491987D03*
D81*
X397841Y491987D03*
D66*
X401499Y491987D03*
D82*
X414337Y491987D03*
D41*
X418272Y491987D03*
D32*
X452575Y491987D03*
X484325Y491987D03*
D41*
X375202Y492125D03*
D96*
X381345Y492125D03*
D93*
X398048Y492125D03*
D81*
X401154Y492125D03*
D41*
X414406Y492125D03*
X418410Y492125D03*
D47*
X452506Y492125D03*
D32*
X484325Y492125D03*
D39*
X375133Y492263D03*
D77*
X381138Y492263D03*
D34*
X397427Y492263D03*
D50*
X399843Y492263D03*
D69*
X414475Y492263D03*
D43*
X418617Y492263D03*
X452437Y492263D03*
D49*
X484256Y492263D03*
D32*
X374995Y492401D03*
D76*
X381000Y492401D03*
D36*
X397496Y492401D03*
D24*
X399774Y492401D03*
D102*
X414613Y492401D03*
D41*
X418686Y492401D03*
D46*
X452368Y492401D03*
D32*
X484187Y492401D03*
D31*
X374926Y492539D03*
D77*
X380862Y492539D03*
D39*
X397496Y492539D03*
D80*
X399774Y492539D03*
D31*
X414682Y492539D03*
X418824Y492539D03*
D39*
X452299Y492539D03*
D43*
X484187Y492539D03*
D32*
X374857Y492677D03*
D96*
X380655Y492677D03*
D36*
X397496Y492677D03*
D75*
X399705Y492677D03*
D41*
X414820Y492677D03*
X418962Y492677D03*
D36*
X452299Y492677D03*
D32*
X484187Y492677D03*
D36*
X374719Y492815D03*
D29*
X380517Y492815D03*
D46*
X397565Y492815D03*
D82*
X414889Y492815D03*
X419031Y492815D03*
D32*
X452161Y492815D03*
D36*
X484049Y492815D03*
D39*
X374719Y492953D03*
D77*
X380310Y492953D03*
D39*
X397634Y492953D03*
D69*
X415028Y492953D03*
D31*
X419100Y492953D03*
D43*
X452161Y492953D03*
D39*
X484049Y492953D03*
D32*
X374581Y493091D03*
D67*
X380172Y493091D03*
D36*
X397634Y493091D03*
D82*
X415166Y493091D03*
D41*
X419238Y493091D03*
D36*
X452023Y493091D03*
D46*
X483980Y493091D03*
D41*
X374512Y493229D03*
D67*
X380034Y493229D03*
D46*
X397703Y493229D03*
D41*
X415235Y493229D03*
X419376Y493229D03*
D46*
X451954Y493229D03*
D32*
X483911Y493229D03*
D39*
X374443Y493367D03*
D74*
X379895Y493367D03*
D43*
X397772Y493367D03*
D31*
X415373Y493367D03*
D108*
X418410Y493367D03*
D43*
X451885Y493367D03*
X483911Y493367D03*
D32*
X374305Y493505D03*
D76*
X379757Y493505D03*
D32*
X397772Y493505D03*
D82*
X415442Y493505D03*
D57*
X417995Y493505D03*
D32*
X451747Y493505D03*
D36*
X483773Y493505D03*
D43*
X374305Y493643D03*
D77*
X379619Y493643D03*
D43*
X397772Y493643D03*
D201*
X417512Y493643D03*
D43*
X451747Y493643D03*
D39*
X483773Y493643D03*
D32*
X374167Y493781D03*
D67*
X379481Y493781D03*
D32*
X397910Y493781D03*
D60*
X417512Y493781D03*
D36*
X451609Y493781D03*
D32*
X483635Y493781D03*
D43*
X374167Y493919D03*
D74*
X379343Y493919D03*
D43*
X397910Y493919D03*
D92*
X416270Y493919D03*
D34*
X451540Y493919D03*
D49*
X483566Y493919D03*
D36*
X374029Y494057D03*
D76*
X379205Y494057D03*
D32*
X397910Y494057D03*
X415856Y494057D03*
D36*
X451471Y494057D03*
D32*
X483497Y494057D03*
D36*
X374029Y494195D03*
D76*
X379067Y494195D03*
D36*
X398048Y494195D03*
D41*
X451540Y494195D03*
D106*
X482324Y494195D03*
D46*
X483428Y494195D03*
D43*
X373891Y494334D03*
D77*
X378929Y494334D03*
D31*
X398117Y494334D03*
D69*
X451609Y494334D03*
D43*
X482531Y494334D03*
D39*
X483359Y494334D03*
D32*
X373891Y494472D03*
D67*
X378791Y494472D03*
D32*
X398186Y494472D03*
D29*
X451609Y494472D03*
D106*
X482876Y494472D03*
D46*
X483290Y494472D03*
D36*
X373753Y494610D03*
D67*
X378653Y494610D03*
D41*
X398117Y494610D03*
D81*
X451678Y494610D03*
D36*
X483083Y494610D03*
D101*
X373684Y494748D03*
D77*
X378515Y494748D03*
D71*
X398048Y494748D03*
D43*
X451057Y494748D03*
D69*
X452161Y494748D03*
D168*
X482531Y494748D03*
D36*
X373614Y494886D03*
D76*
X378377Y494886D03*
D27*
X397841Y494886D03*
D41*
X450988Y494886D03*
D82*
X452299Y494886D03*
D51*
X482186Y494886D03*
D43*
X373476Y495024D03*
D74*
X378239Y495024D03*
D92*
X397772Y495024D03*
D39*
X450919Y495024D03*
D69*
X452437Y495024D03*
D80*
X481772Y495024D03*
D32*
X373476Y495162D03*
D67*
X378101Y495162D03*
D27*
X397289Y495162D03*
D36*
X398324Y495162D03*
D32*
X450781Y495162D03*
D102*
X452713Y495162D03*
D28*
X481288Y495162D03*
D36*
X373338Y495300D03*
D76*
X377963Y495300D03*
D66*
X397082Y495300D03*
D46*
X398393Y495300D03*
D32*
X450781Y495300D03*
D82*
X452851Y495300D03*
D28*
X480736Y495300D03*
D39*
X373338Y495438D03*
D77*
X377825Y495438D03*
D73*
X396875Y495438D03*
D43*
X398462Y495438D03*
D31*
X450712Y495438D03*
D69*
X452989Y495438D03*
D78*
X480184Y495438D03*
D32*
X373200Y495576D03*
D76*
X377687Y495576D03*
X396737Y495576D03*
D32*
X398462Y495576D03*
D82*
X450643Y495576D03*
D67*
X453197Y495576D03*
D86*
X479356Y495576D03*
D43*
X373200Y495714D03*
D74*
X377549Y495714D03*
X396461Y495714D03*
D43*
X398600Y495714D03*
D74*
X450574Y495714D03*
D87*
X453404Y495714D03*
D228*
X474179Y495714D03*
D32*
X373062Y495852D03*
D82*
X377480Y495852D03*
D76*
X396323Y495852D03*
D32*
X398600Y495852D03*
D82*
X450505Y495852D03*
X453542Y495852D03*
D229*
X473420Y495852D03*
D32*
X373062Y495990D03*
D82*
X377342Y495990D03*
D29*
X396116Y495990D03*
D46*
X398669Y495990D03*
D67*
X450436Y495990D03*
X453749Y495990D03*
D230*
X472799Y495990D03*
D39*
X372924Y496128D03*
D87*
X377204Y496128D03*
D97*
X395632Y496128D03*
D39*
X398738Y496128D03*
D77*
X450298Y496128D03*
D69*
X453956Y496128D03*
D231*
X472039Y496128D03*
D36*
X372924Y496266D03*
D82*
X377066Y496266D03*
D23*
X395356Y496266D03*
D36*
X398738Y496266D03*
D76*
X450298Y496266D03*
X454163Y496266D03*
D33*
X466794Y496266D03*
D46*
X372855Y496404D03*
D41*
X376997Y496404D03*
D23*
X395080Y496404D03*
D46*
X398807Y496404D03*
D29*
X450229Y496404D03*
D67*
X454301Y496404D03*
D51*
X466035Y496404D03*
D43*
X372786Y496542D03*
D101*
X376859Y496542D03*
D90*
X394666Y496542D03*
D43*
X398876Y496542D03*
D71*
X450091Y496542D03*
D77*
X454577Y496542D03*
D168*
X465551Y496542D03*
D32*
X372786Y496680D03*
D41*
X376720Y496680D03*
D61*
X394321Y496680D03*
D32*
X398876Y496680D03*
D29*
X450091Y496680D03*
D76*
X454715Y496680D03*
D81*
X465068Y496680D03*
D34*
X372717Y496818D03*
X376582Y496818D03*
D94*
X393769Y496818D03*
D39*
X399014Y496818D03*
D167*
X449953Y496818D03*
D74*
X454991Y496818D03*
D70*
X464723Y496818D03*
D36*
X372648Y496956D03*
X376513Y496956D03*
D232*
X393424Y496956D03*
D36*
X399014Y496956D03*
D96*
X449814Y496956D03*
D29*
X455198Y496956D03*
D75*
X464447Y496956D03*
D39*
X372648Y497094D03*
D43*
X376375Y497094D03*
D74*
X378653Y497094D03*
D94*
X393079Y497094D03*
D39*
X399153Y497094D03*
D74*
X449745Y497094D03*
D71*
X455474Y497094D03*
X464171Y497094D03*
D46*
X372579Y497232D03*
D41*
X376306Y497232D03*
D24*
X378929Y497232D03*
D23*
X392595Y497232D03*
D36*
X399153Y497232D03*
D76*
X449607Y497232D03*
D29*
X455750Y497232D03*
D96*
X463895Y497232D03*
D32*
X372510Y497370D03*
X376237Y497370D03*
D117*
X379205Y497370D03*
D68*
X392043Y497370D03*
D46*
X399222Y497370D03*
D102*
X449538Y497370D03*
D29*
X456026Y497370D03*
X463619Y497370D03*
D43*
X372510Y497509D03*
D31*
X376168Y497509D03*
D128*
X379481Y497509D03*
D95*
X391560Y497509D03*
D43*
X399291Y497509D03*
D73*
X449745Y497509D03*
D100*
X456234Y497509D03*
D71*
X463343Y497509D03*
D47*
X372441Y497647D03*
D218*
X379481Y497647D03*
D51*
X391215Y497647D03*
D32*
X399291Y497647D03*
D23*
X449884Y497647D03*
D27*
X456510Y497647D03*
D67*
X463136Y497647D03*
D47*
X372441Y497785D03*
D23*
X376720Y497785D03*
D125*
X382035Y497785D03*
D28*
X390594Y497785D03*
D36*
X399429Y497785D03*
X449124Y497785D03*
D65*
X450298Y497785D03*
D27*
X456786Y497785D03*
D29*
X462929Y497785D03*
D43*
X372372Y497923D03*
D73*
X376444Y497923D03*
D121*
X383485Y497923D03*
D21*
X390111Y497923D03*
D39*
X399429Y497923D03*
D69*
X449124Y497923D03*
D73*
X450712Y497923D03*
D70*
X457131Y497923D03*
D167*
X462653Y497923D03*
D32*
X372372Y498061D03*
D82*
X376237Y498061D03*
D178*
X386314Y498061D03*
D32*
X399567Y498061D03*
D102*
X448848Y498061D03*
D76*
X450988Y498061D03*
D81*
X457476Y498061D03*
D27*
X462307Y498061D03*
D34*
X372303Y498199D03*
D43*
X376237Y498199D03*
D233*
X386591Y498199D03*
D43*
X399567Y498199D03*
D39*
X448848Y498199D03*
D74*
X451264Y498199D03*
D92*
X457959Y498199D03*
D25*
X462031Y498199D03*
D46*
X372303Y498337D03*
D234*
X386798Y498337D03*
D32*
X399705Y498337D03*
D41*
X448779Y498337D03*
D76*
X451402Y498337D03*
D85*
X459892Y498337D03*
D46*
X372303Y498475D03*
D60*
X387143Y498475D03*
D32*
X399705Y498475D03*
D46*
X416339Y498475D03*
D41*
X448641Y498475D03*
D67*
X451678Y498475D03*
D59*
X459961Y498475D03*
D34*
X372303Y498613D03*
D21*
X387488Y498613D03*
D39*
X399843Y498613D03*
D69*
X416408Y498613D03*
X448572Y498613D03*
X451885Y498613D03*
D50*
X460030Y498613D03*
D46*
X372303Y498751D03*
D36*
X399843Y498751D03*
D29*
X416546Y498751D03*
D41*
X448503Y498751D03*
D76*
X452092Y498751D03*
D68*
X460099Y498751D03*
D34*
X372303Y498889D03*
D43*
X399981Y498889D03*
D70*
X416684Y498889D03*
D31*
X448365Y498889D03*
D69*
X452299Y498889D03*
D46*
X372303Y499027D03*
D32*
X399981Y499027D03*
D81*
X416891Y499027D03*
D82*
X448296Y499027D03*
X452437Y499027D03*
D46*
X372303Y499165D03*
D36*
X400119Y499165D03*
D83*
X416960Y499165D03*
D82*
X448158Y499165D03*
D41*
X452644Y499165D03*
D34*
X372303Y499303D03*
D31*
X400188Y499303D03*
D39*
X416546Y499303D03*
D167*
X417512Y499303D03*
D31*
X448089Y499303D03*
D69*
X452851Y499303D03*
D46*
X372303Y499441D03*
D41*
X400326Y499441D03*
D36*
X416546Y499441D03*
D29*
X417788Y499441D03*
D41*
X447951Y499441D03*
X452920Y499441D03*
D46*
X372303Y499579D03*
D29*
X400257Y499579D03*
D36*
X416684Y499579D03*
D67*
X417995Y499579D03*
D82*
X447882Y499579D03*
D158*
X453059Y499579D03*
D34*
X372303Y499717D03*
D73*
X400050Y499717D03*
D39*
X416684Y499717D03*
D74*
X418272Y499717D03*
D34*
X427659Y499717D03*
D87*
X447744Y499717D03*
D31*
X453197Y499717D03*
D46*
X372303Y499855D03*
D66*
X399981Y499855D03*
D32*
X416822Y499855D03*
D29*
X418479Y499855D03*
D82*
X427589Y499855D03*
X447606Y499855D03*
D41*
X453335Y499855D03*
D34*
X372303Y499993D03*
D71*
X399567Y499993D03*
D39*
X400533Y499993D03*
D43*
X416822Y499993D03*
D74*
X418686Y499993D03*
D71*
X427451Y499993D03*
D31*
X447537Y499993D03*
X453473Y499993D03*
D32*
X372372Y500131D03*
D29*
X399291Y500131D03*
D36*
X400533Y500131D03*
D41*
X416891Y500131D03*
D76*
X418962Y500131D03*
D66*
X427451Y500131D03*
D41*
X447399Y500131D03*
D32*
X453542Y500131D03*
D43*
X372372Y500269D03*
D100*
X399084Y500269D03*
D39*
X400671Y500269D03*
D34*
X405848Y500269D03*
D43*
X416960Y500269D03*
D77*
X419100Y500269D03*
D92*
X427313Y500269D03*
D69*
X447330Y500269D03*
D43*
X453680Y500269D03*
D32*
X372372Y500407D03*
D29*
X398876Y500407D03*
D36*
X400809Y500407D03*
D67*
X405986Y500407D03*
D32*
X416960Y500407D03*
D82*
X419307Y500407D03*
D76*
X426830Y500407D03*
D32*
X427866Y500407D03*
D82*
X447192Y500407D03*
D32*
X453680Y500407D03*
X372372Y500545D03*
D27*
X398531Y500545D03*
D36*
X400809Y500545D03*
D66*
X406193Y500545D03*
D36*
X417098Y500545D03*
D67*
X419514Y500545D03*
D76*
X426692Y500545D03*
D32*
X427866Y500545D03*
D102*
X447054Y500545D03*
D36*
X453818Y500545D03*
D49*
X372441Y500684D03*
D73*
X398393Y500684D03*
D43*
X400947Y500684D03*
D64*
X406400Y500684D03*
D39*
X417098Y500684D03*
D69*
X419721Y500684D03*
X426485Y500684D03*
D31*
X427935Y500684D03*
D74*
X446847Y500684D03*
D39*
X453818Y500684D03*
D47*
X372441Y500822D03*
D66*
X398048Y500822D03*
D32*
X400947Y500822D03*
D61*
X406745Y500822D03*
D41*
X417167Y500822D03*
D82*
X419859Y500822D03*
X426347Y500822D03*
D36*
X428004Y500822D03*
D45*
X434837Y500822D03*
D67*
X446709Y500822D03*
D36*
X453818Y500822D03*
D47*
X372441Y500960D03*
D75*
X397772Y500960D03*
D32*
X401085Y500960D03*
D58*
X407021Y500960D03*
D32*
X417236Y500960D03*
D82*
X419997Y500960D03*
D41*
X426278Y500960D03*
D36*
X428004Y500960D03*
D18*
X434354Y500960D03*
D67*
X446570Y500960D03*
D46*
X453887Y500960D03*
D43*
X372510Y501098D03*
D70*
X397496Y501098D03*
D69*
X400947Y501098D03*
D78*
X407297Y501098D03*
D31*
X417305Y501098D03*
D87*
X420273Y501098D03*
D31*
X426140Y501098D03*
D39*
X428004Y501098D03*
D53*
X434216Y501098D03*
D77*
X446432Y501098D03*
D43*
X453956Y501098D03*
D32*
X372510Y501236D03*
D27*
X397151Y501236D03*
D96*
X400947Y501236D03*
D82*
X406745Y501236D03*
D83*
X408125Y501236D03*
D36*
X417374Y501236D03*
D82*
X420411Y501236D03*
D41*
X426002Y501236D03*
D36*
X428004Y501236D03*
D117*
X434009Y501236D03*
D67*
X446156Y501236D03*
D32*
X453956Y501236D03*
D43*
X372510Y501374D03*
D73*
X396875Y501374D03*
D25*
X400878Y501374D03*
D69*
X406883Y501374D03*
D92*
X408539Y501374D03*
D39*
X417374Y501374D03*
D69*
X420549Y501374D03*
D31*
X425864Y501374D03*
D39*
X428004Y501374D03*
D84*
X432628Y501374D03*
D31*
X435941Y501374D03*
D74*
X446018Y501374D03*
D43*
X453956Y501374D03*
D46*
X372579Y501512D03*
D27*
X396599Y501512D03*
X400326Y501512D03*
D32*
X401361Y501512D03*
D82*
X407021Y501512D03*
D83*
X408954Y501512D03*
D32*
X417512Y501512D03*
D82*
X420687Y501512D03*
D41*
X425726Y501512D03*
X428073Y501512D03*
D81*
X431938Y501512D03*
D41*
X435941Y501512D03*
D76*
X445880Y501512D03*
D46*
X454025Y501512D03*
X372579Y501650D03*
D27*
X396323Y501650D03*
X400050Y501650D03*
D36*
X401499Y501650D03*
D82*
X407159Y501650D03*
D83*
X409368Y501650D03*
D32*
X417512Y501650D03*
D82*
X420825Y501650D03*
X425657Y501650D03*
D41*
X428073Y501650D03*
D27*
X431662Y501650D03*
D41*
X435803Y501650D03*
D29*
X445673Y501650D03*
D46*
X454025Y501650D03*
D34*
X372579Y501788D03*
D71*
X396116Y501788D03*
D74*
X399774Y501788D03*
D31*
X401568Y501788D03*
D69*
X407435Y501788D03*
D95*
X409920Y501788D03*
D31*
X417581Y501788D03*
X421032Y501788D03*
D87*
X425519Y501788D03*
D43*
X428142Y501788D03*
D71*
X431317Y501788D03*
D31*
X435803Y501788D03*
D74*
X445466Y501788D03*
D34*
X454025Y501788D03*
D36*
X372648Y501926D03*
D96*
X395839Y501926D03*
D102*
X399429Y501926D03*
D32*
X401637Y501926D03*
D102*
X407573Y501926D03*
D58*
X410472Y501926D03*
D32*
X417650Y501926D03*
D41*
X421170Y501926D03*
D82*
X425381Y501926D03*
D32*
X428142Y501926D03*
D76*
X431110Y501926D03*
D41*
X435803Y501926D03*
D29*
X445259Y501926D03*
D36*
X454094Y501926D03*
D39*
X372648Y502064D03*
D77*
X395632Y502064D03*
D31*
X399222Y502064D03*
D43*
X401775Y502064D03*
D69*
X407711Y502064D03*
D21*
X411093Y502064D03*
D31*
X417719Y502064D03*
D101*
X421309Y502064D03*
D31*
X425312Y502064D03*
D43*
X428142Y502064D03*
D74*
X430972Y502064D03*
D39*
X435734Y502064D03*
D77*
X445052Y502064D03*
D39*
X454094Y502064D03*
D36*
X372648Y502202D03*
D29*
X395425Y502202D03*
D36*
X399014Y502202D03*
X401913Y502202D03*
D82*
X407849Y502202D03*
D24*
X411784Y502202D03*
D36*
X417788Y502202D03*
D41*
X421447Y502202D03*
X425174Y502202D03*
D32*
X428142Y502202D03*
D67*
X430695Y502202D03*
D41*
X435665Y502202D03*
D96*
X444845Y502202D03*
D36*
X454094Y502202D03*
X372648Y502340D03*
D67*
X395218Y502340D03*
D41*
X398807Y502340D03*
D36*
X401913Y502340D03*
D82*
X407987Y502340D03*
D12*
X412405Y502340D03*
D41*
X417857Y502340D03*
X421585Y502340D03*
D82*
X424967Y502340D03*
D32*
X428142Y502340D03*
D76*
X430557Y502340D03*
D41*
X435665Y502340D03*
D76*
X444638Y502340D03*
D36*
X454094Y502340D03*
D31*
X372717Y502478D03*
D77*
X394942Y502478D03*
D31*
X398669Y502478D03*
D43*
X402051Y502478D03*
D31*
X408194Y502478D03*
D35*
X413164Y502478D03*
D31*
X417995Y502478D03*
D69*
X421792Y502478D03*
D87*
X424829Y502478D03*
D43*
X428142Y502478D03*
D77*
X430419Y502478D03*
D31*
X435665Y502478D03*
D77*
X444500Y502478D03*
D39*
X454094Y502478D03*
D32*
X372786Y502616D03*
D29*
X394735Y502616D03*
D41*
X398531Y502616D03*
D36*
X402189Y502616D03*
D41*
X408332Y502616D03*
D30*
X413854Y502616D03*
D36*
X418064Y502616D03*
D82*
X421930Y502616D03*
X424691Y502616D03*
D32*
X428142Y502616D03*
D82*
X430212Y502616D03*
D41*
X435527Y502616D03*
D67*
X444224Y502616D03*
D36*
X454094Y502616D03*
D32*
X372786Y502754D03*
D29*
X394459Y502754D03*
D36*
X398324Y502754D03*
X402189Y502754D03*
D41*
X408470Y502754D03*
D28*
X414475Y502754D03*
D158*
X418134Y502754D03*
D82*
X422068Y502754D03*
D67*
X424484Y502754D03*
D32*
X428142Y502754D03*
D82*
X430074Y502754D03*
D41*
X435527Y502754D03*
D67*
X444086Y502754D03*
D36*
X454094Y502754D03*
D43*
X372786Y502892D03*
D71*
X379136Y502892D03*
D73*
X394252Y502892D03*
D43*
X398186Y502892D03*
D39*
X402328Y502892D03*
D101*
X408609Y502892D03*
D80*
X415097Y502892D03*
D31*
X418272Y502892D03*
D69*
X422206Y502892D03*
X424414Y502892D03*
D31*
X428211Y502892D03*
D69*
X429936Y502892D03*
D31*
X435527Y502892D03*
D87*
X443879Y502892D03*
D39*
X454094Y502892D03*
D46*
X372855Y503030D03*
D45*
X379205Y503030D03*
D81*
X382104Y503030D03*
D27*
X393976Y503030D03*
D36*
X398048Y503030D03*
D32*
X402466Y503030D03*
D41*
X408747Y503030D03*
D232*
X415649Y503030D03*
D32*
X418341Y503030D03*
D102*
X422344Y503030D03*
D82*
X424276Y503030D03*
D41*
X428211Y503030D03*
D102*
X429798Y503030D03*
D36*
X435458Y503030D03*
D67*
X443672Y503030D03*
D36*
X454094Y503030D03*
D31*
X372993Y503168D03*
D147*
X380517Y503168D03*
D73*
X393700Y503168D03*
D43*
X397910Y503168D03*
D39*
X402604Y503168D03*
D31*
X408885Y503168D03*
D95*
X416132Y503168D03*
D31*
X418410Y503168D03*
D69*
X422482Y503168D03*
D39*
X424138Y503168D03*
D31*
X428211Y503168D03*
D69*
X429660Y503168D03*
D31*
X435389Y503168D03*
D74*
X443534Y503168D03*
D39*
X454094Y503168D03*
D82*
X373062Y503306D03*
D235*
X382035Y503306D03*
D81*
X393286Y503306D03*
D32*
X397772Y503306D03*
D36*
X402604Y503306D03*
D46*
X406814Y503306D03*
D99*
X407297Y503306D03*
D102*
X408954Y503306D03*
D98*
X416546Y503306D03*
D41*
X418548Y503306D03*
D82*
X422620Y503306D03*
D41*
X424069Y503306D03*
X428211Y503306D03*
X429453Y503306D03*
X435389Y503306D03*
D82*
X443326Y503306D03*
D36*
X454094Y503306D03*
D69*
X373200Y503444D03*
D104*
X377342Y503444D03*
D236*
X384589Y503444D03*
D80*
X392595Y503444D03*
D39*
X397634Y503444D03*
D43*
X402742Y503444D03*
D63*
X406676Y503444D03*
D31*
X409023Y503444D03*
D25*
X417029Y503444D03*
D31*
X418686Y503444D03*
D69*
X422758Y503444D03*
D31*
X424069Y503444D03*
X428211Y503444D03*
X429315Y503444D03*
X435389Y503444D03*
D87*
X443188Y503444D03*
D39*
X454094Y503444D03*
D76*
X373269Y503582D03*
D83*
X376789Y503582D03*
D237*
X387419Y503582D03*
D36*
X397496Y503582D03*
D32*
X402880Y503582D03*
D129*
X406883Y503582D03*
D66*
X417374Y503582D03*
D41*
X418686Y503582D03*
D82*
X422896Y503582D03*
D41*
X423931Y503582D03*
X428211Y503582D03*
D82*
X429246Y503582D03*
D32*
X435320Y503582D03*
D67*
X442981Y503582D03*
D36*
X454094Y503582D03*
D76*
X373407Y503720D03*
D27*
X376306Y503720D03*
D17*
X388316Y503720D03*
D36*
X397358Y503720D03*
X403018Y503720D03*
D136*
X406676Y503720D03*
D66*
X417650Y503720D03*
D41*
X418824Y503720D03*
D82*
X423034Y503720D03*
D41*
X423931Y503720D03*
X428211Y503720D03*
X429177Y503720D03*
X435251Y503720D03*
D82*
X442774Y503720D03*
D36*
X454094Y503720D03*
D195*
X374788Y503859D03*
D71*
X384658Y503859D03*
D62*
X390249Y503859D03*
D43*
X397220Y503859D03*
D161*
X403984Y503859D03*
D64*
X408885Y503859D03*
D95*
X418341Y503859D03*
D70*
X423448Y503859D03*
D31*
X428211Y503859D03*
X429039Y503859D03*
X435251Y503859D03*
X442567Y503859D03*
D39*
X454094Y503859D03*
D12*
X374719Y503997D03*
D23*
X390525Y503997D03*
D32*
X397082Y503997D03*
D81*
X403639Y503997D03*
D27*
X409299Y503997D03*
D23*
X418548Y503997D03*
D27*
X423517Y503997D03*
D32*
X428142Y503997D03*
D41*
X428901Y503997D03*
X435251Y503997D03*
X442429Y503997D03*
D36*
X454094Y503997D03*
D30*
X374650Y504135D03*
D36*
X396944Y504135D03*
D27*
X403225Y504135D03*
X409575Y504135D03*
D83*
X418755Y504135D03*
D76*
X423517Y504135D03*
D32*
X428142Y504135D03*
D41*
X428901Y504135D03*
X435251Y504135D03*
X442291Y504135D03*
D36*
X454094Y504135D03*
D87*
X374029Y504273D03*
D49*
X375616Y504273D03*
D43*
X396806Y504273D03*
D74*
X402811Y504273D03*
D71*
X409782Y504273D03*
D70*
X419031Y504273D03*
D69*
X423586Y504273D03*
D73*
X428487Y504273D03*
D31*
X435251Y504273D03*
D69*
X442222Y504273D03*
D39*
X454094Y504273D03*
D36*
X396668Y504411D03*
D76*
X402535Y504411D03*
D67*
X409989Y504411D03*
D66*
X419169Y504411D03*
D41*
X423517Y504411D03*
D29*
X428418Y504411D03*
D32*
X435182Y504411D03*
D41*
X442015Y504411D03*
D36*
X454094Y504411D03*
D34*
X396599Y504549D03*
D39*
X402189Y504549D03*
D69*
X410196Y504549D03*
D73*
X419376Y504549D03*
D31*
X423517Y504549D03*
D71*
X428418Y504549D03*
D31*
X435113Y504549D03*
D77*
X441877Y504549D03*
D39*
X454094Y504549D03*
D47*
X396461Y504687D03*
D82*
X402328Y504687D03*
X410334Y504687D03*
D29*
X419583Y504687D03*
D46*
X423517Y504687D03*
D67*
X428349Y504687D03*
D41*
X435113Y504687D03*
D33*
X442636Y504687D03*
D36*
X454094Y504687D03*
D32*
X396392Y504825D03*
D27*
X402397Y504825D03*
D67*
X410541Y504825D03*
D82*
X419721Y504825D03*
D72*
X423517Y504825D03*
D67*
X428349Y504825D03*
D41*
X435113Y504825D03*
D38*
X442774Y504825D03*
D36*
X454094Y504825D03*
D39*
X396254Y504963D03*
D70*
X402604Y504963D03*
D77*
X410817Y504963D03*
D34*
X419790Y504963D03*
D69*
X428280Y504963D03*
D31*
X435113Y504963D03*
D111*
X442843Y504963D03*
D39*
X454094Y504963D03*
D46*
X396185Y505101D03*
D27*
X402811Y505101D03*
D76*
X410955Y505101D03*
D82*
X428142Y505101D03*
D41*
X435113Y505101D03*
D60*
X442912Y505101D03*
D36*
X454094Y505101D03*
D34*
X396047Y505239D03*
D77*
X403087Y505239D03*
D167*
X411162Y505239D03*
D69*
X428142Y505239D03*
D31*
X435113Y505239D03*
D119*
X442774Y505239D03*
D39*
X454094Y505239D03*
D36*
X395978Y505377D03*
D41*
X403363Y505377D03*
D27*
X411369Y505377D03*
D41*
X428073Y505377D03*
X435113Y505377D03*
D232*
X441049Y505377D03*
D27*
X444776Y505377D03*
D36*
X454094Y505377D03*
X395839Y505515D03*
D32*
X403570Y505515D03*
D66*
X411576Y505515D03*
D41*
X428073Y505515D03*
X435113Y505515D03*
D23*
X440635Y505515D03*
D76*
X445052Y505515D03*
D36*
X454094Y505515D03*
D34*
X395770Y505653D03*
D39*
X403708Y505653D03*
D100*
X411784Y505653D03*
D39*
X428004Y505653D03*
D31*
X435113Y505653D03*
D92*
X440428Y505653D03*
D77*
X445190Y505653D03*
D34*
X454025Y505653D03*
D46*
X395632Y505791D03*
D36*
X403846Y505791D03*
D66*
X411991Y505791D03*
D36*
X428004Y505791D03*
D41*
X435113Y505791D03*
D27*
X440082Y505791D03*
D67*
X445328Y505791D03*
D46*
X454025Y505791D03*
D36*
X395563Y505929D03*
X403984Y505929D03*
D66*
X412129Y505929D03*
D36*
X428004Y505929D03*
D41*
X435113Y505929D03*
D23*
X437322Y505929D03*
D82*
X439875Y505929D03*
D67*
X445466Y505929D03*
D46*
X454025Y505929D03*
D34*
X395494Y506067D03*
D43*
X404122Y506067D03*
D73*
X412336Y506067D03*
D31*
X435113Y506067D03*
D21*
X437322Y506067D03*
D69*
X439737Y506067D03*
D77*
X445604Y506067D03*
D34*
X454025Y506067D03*
D32*
X395425Y506205D03*
X404260Y506205D03*
D96*
X412405Y506205D03*
D41*
X435113Y506205D03*
D38*
X437253Y506205D03*
D41*
X439668Y506205D03*
D102*
X445673Y506205D03*
D46*
X454025Y506205D03*
D49*
X395356Y506343D03*
D34*
X404467Y506343D03*
D77*
X412612Y506343D03*
D238*
X436907Y506343D03*
D69*
X439599Y506343D03*
X445811Y506343D03*
D34*
X454025Y506343D03*
D46*
X395218Y506481D03*
X404605Y506481D03*
D32*
X412681Y506481D03*
D51*
X435803Y506481D03*
D89*
X438909Y506481D03*
D82*
X445949Y506481D03*
D32*
X453956Y506481D03*
D39*
X395149Y506619D03*
D34*
X404743Y506619D03*
D97*
X435527Y506619D03*
D64*
X439254Y506619D03*
D31*
X446018Y506619D03*
D43*
X453956Y506619D03*
D46*
X395080Y506757D03*
D47*
X404881Y506757D03*
D96*
X435320Y506757D03*
D65*
X439530Y506757D03*
D82*
X446087Y506757D03*
D32*
X453956Y506757D03*
X395011Y506895D03*
D46*
X405019Y506895D03*
D82*
X435182Y506895D03*
D27*
X439668Y506895D03*
D41*
X446156Y506895D03*
D32*
X453956Y506895D03*
D34*
X394942Y507034D03*
X405157Y507034D03*
D31*
X435113Y507034D03*
D167*
X439737Y507034D03*
D31*
X446294Y507034D03*
D43*
X453956Y507034D03*
D46*
X394804Y507172D03*
D36*
X405364Y507172D03*
D106*
X435113Y507172D03*
D29*
X439875Y507172D03*
D41*
X446294Y507172D03*
D32*
X453956Y507172D03*
X394735Y507310D03*
X405641Y507310D03*
D29*
X440151Y507310D03*
D36*
X446363Y507310D03*
D46*
X453887Y507310D03*
D49*
X394666Y507448D03*
D69*
X405503Y507448D03*
D167*
X440289Y507448D03*
D31*
X446432Y507448D03*
D34*
X453887Y507448D03*
D46*
X394528Y507586D03*
D41*
X405157Y507586D03*
D99*
X405917Y507586D03*
D76*
X440635Y507586D03*
D41*
X446432Y507586D03*
D46*
X453887Y507586D03*
D39*
X394459Y507724D03*
D31*
X404881Y507724D03*
D105*
X406055Y507724D03*
D77*
X440773Y507724D03*
D43*
X446501Y507724D03*
D34*
X453887Y507724D03*
D46*
X394390Y507862D03*
D82*
X404674Y507862D03*
D46*
X406262Y507862D03*
D67*
X440911Y507862D03*
D41*
X446570Y507862D03*
D36*
X453818Y507862D03*
X394321Y508000D03*
D102*
X404398Y508000D03*
D41*
X406538Y508000D03*
D76*
X441187Y508000D03*
D41*
X446570Y508000D03*
D36*
X453818Y508000D03*
D34*
X394252Y508138D03*
D69*
X404260Y508138D03*
D31*
X406676Y508138D03*
D77*
X441325Y508138D03*
D39*
X446639Y508138D03*
X453818Y508138D03*
D46*
X394252Y508276D03*
D82*
X403984Y508276D03*
D41*
X406814Y508276D03*
D76*
X441463Y508276D03*
D158*
X446709Y508276D03*
D36*
X453818Y508276D03*
D34*
X394114Y508414D03*
D69*
X403846Y508414D03*
D31*
X406814Y508414D03*
D71*
X441532Y508414D03*
D101*
X446709Y508414D03*
D34*
X453749Y508414D03*
D46*
X394114Y508552D03*
D41*
X403639Y508552D03*
D36*
X407021Y508552D03*
D96*
X441670Y508552D03*
D82*
X446778Y508552D03*
D46*
X453749Y508552D03*
D47*
X393976Y508690D03*
D82*
X403432Y508690D03*
D36*
X407159Y508690D03*
D67*
X441739Y508690D03*
D41*
X446847Y508690D03*
D46*
X453749Y508690D03*
D49*
X393976Y508828D03*
D31*
X403225Y508828D03*
D43*
X407435Y508828D03*
D77*
X441877Y508828D03*
D31*
X446847Y508828D03*
D43*
X453680Y508828D03*
D47*
X393976Y508966D03*
D41*
X403087Y508966D03*
D36*
X407573Y508966D03*
D51*
X439392Y508966D03*
D76*
X441877Y508966D03*
D82*
X446916Y508966D03*
D32*
X453680Y508966D03*
D46*
X393838Y509104D03*
D41*
X402949Y509104D03*
D32*
X407711Y509104D03*
D20*
X439254Y509104D03*
D76*
X442015Y509104D03*
D41*
X446985Y509104D03*
D32*
X453680Y509104D03*
D34*
X393838Y509242D03*
D31*
X402811Y509242D03*
D39*
X407849Y509242D03*
D62*
X438978Y509242D03*
D77*
X442015Y509242D03*
D31*
X446985Y509242D03*
D43*
X453680Y509242D03*
D46*
X393838Y509380D03*
D41*
X402673Y509380D03*
D32*
X407987Y509380D03*
D79*
X437460Y509380D03*
X441325Y509380D03*
D41*
X446985Y509380D03*
D47*
X453611Y509380D03*
D34*
X393838Y509518D03*
D31*
X402535Y509518D03*
D49*
X408056Y509518D03*
D64*
X436769Y509518D03*
D91*
X441601Y509518D03*
D87*
X447054Y509518D03*
D49*
X453611Y509518D03*
D46*
X393838Y509656D03*
D36*
X402328Y509656D03*
D46*
X408194Y509656D03*
D27*
X436217Y509656D03*
X441601Y509656D03*
D41*
X447123Y509656D03*
D47*
X453611Y509656D03*
D34*
X393700Y509794D03*
D39*
X402189Y509794D03*
D34*
X408332Y509794D03*
D167*
X435872Y509794D03*
D43*
X441670Y509794D03*
D31*
X447123Y509794D03*
D43*
X453542Y509794D03*
D46*
X393700Y509932D03*
D32*
X402051Y509932D03*
D46*
X408470Y509932D03*
D76*
X435527Y509932D03*
D41*
X447261Y509932D03*
D32*
X453542Y509932D03*
D46*
X393700Y510070D03*
D36*
X401913Y510070D03*
X408539Y510070D03*
D67*
X435251Y510070D03*
D41*
X447261Y510070D03*
D32*
X453542Y510070D03*
D34*
X393700Y510209D03*
D31*
X401844Y510209D03*
D39*
X408678Y510209D03*
D69*
X434906Y510209D03*
D31*
X447261Y510209D03*
D43*
X453542Y510209D03*
D46*
X393700Y510347D03*
D41*
X401706Y510347D03*
D32*
X408816Y510347D03*
D41*
X434699Y510347D03*
X447399Y510347D03*
D46*
X453473Y510347D03*
X393700Y510485D03*
D32*
X401637Y510485D03*
D36*
X408954Y510485D03*
D82*
X434492Y510485D03*
D41*
X447399Y510485D03*
D46*
X453473Y510485D03*
D34*
X393562Y510623D03*
D39*
X401499Y510623D03*
D43*
X409092Y510623D03*
D31*
X434285Y510623D03*
X447399Y510623D03*
D34*
X453473Y510623D03*
D46*
X393562Y510761D03*
D32*
X401361Y510761D03*
X409230Y510761D03*
D158*
X434009Y510761D03*
D41*
X447399Y510761D03*
D46*
X453473Y510761D03*
D34*
X393562Y510899D03*
X401292Y510899D03*
D39*
X409368Y510899D03*
D31*
X433870Y510899D03*
D39*
X447468Y510899D03*
X453404Y510899D03*
D46*
X393562Y511037D03*
D36*
X401223Y511037D03*
D32*
X409506Y511037D03*
D41*
X433732Y511037D03*
D36*
X447468Y511037D03*
X453404Y511037D03*
D46*
X393562Y511175D03*
X401154Y511175D03*
D36*
X409644Y511175D03*
D32*
X433525Y511175D03*
D36*
X447468Y511175D03*
X453404Y511175D03*
D34*
X393562Y511313D03*
D43*
X401085Y511313D03*
X409920Y511313D03*
D31*
X433318Y511313D03*
D39*
X447468Y511313D03*
X453404Y511313D03*
D46*
X393562Y511451D03*
D47*
X401016Y511451D03*
D36*
X410058Y511451D03*
D41*
X433180Y511451D03*
D32*
X447606Y511451D03*
D36*
X453404Y511451D03*
D34*
X393562Y511589D03*
D43*
X400947Y511589D03*
D31*
X410265Y511589D03*
D39*
X432973Y511589D03*
D43*
X447606Y511589D03*
D39*
X453404Y511589D03*
D46*
X393562Y511727D03*
X400878Y511727D03*
D32*
X410472Y511727D03*
D41*
X432766Y511727D03*
D32*
X447606Y511727D03*
D36*
X453404Y511727D03*
D99*
X393493Y511865D03*
D36*
X400809Y511865D03*
D41*
X410679Y511865D03*
X432628Y511865D03*
D36*
X447744Y511865D03*
X453404Y511865D03*
D105*
X393493Y512003D03*
D39*
X400671Y512003D03*
D31*
X410955Y512003D03*
X432352Y512003D03*
D39*
X447744Y512003D03*
D34*
X453335Y512003D03*
D99*
X393493Y512141D03*
D46*
X400602Y512141D03*
D41*
X411093Y512141D03*
D82*
X432145Y512141D03*
D36*
X447744Y512141D03*
D46*
X453335Y512141D03*
D99*
X393493Y512279D03*
D36*
X400533Y512279D03*
D41*
X411369Y512279D03*
D102*
X431869Y512279D03*
D46*
X447813Y512279D03*
X453335Y512279D03*
D34*
X393562Y512417D03*
X400464Y512417D03*
D69*
X411576Y512417D03*
D43*
X421516Y512417D03*
D69*
X431593Y512417D03*
D43*
X447882Y512417D03*
D34*
X453335Y512417D03*
D46*
X393562Y512555D03*
X400464Y512555D03*
D158*
X411784Y512555D03*
D66*
X421516Y512555D03*
D76*
X431248Y512555D03*
D47*
X447951Y512555D03*
D46*
X453335Y512555D03*
D34*
X393562Y512693D03*
D43*
X400257Y512693D03*
D31*
X412060Y512693D03*
D64*
X421585Y512693D03*
D167*
X430903Y512693D03*
D49*
X447951Y512693D03*
D34*
X453335Y512693D03*
D46*
X393562Y512831D03*
D32*
X400257Y512831D03*
D41*
X412336Y512831D03*
X420756Y512831D03*
X422275Y512831D03*
D29*
X430626Y512831D03*
D32*
X448020Y512831D03*
D46*
X453335Y512831D03*
D34*
X393562Y512969D03*
D43*
X400257Y512969D03*
D69*
X412543Y512969D03*
D31*
X420618Y512969D03*
X422551Y512969D03*
D167*
X430212Y512969D03*
D43*
X448020Y512969D03*
D34*
X453335Y512969D03*
D46*
X393562Y513107D03*
X400188Y513107D03*
D102*
X412819Y513107D03*
D41*
X420342Y513107D03*
X422689Y513107D03*
D29*
X429798Y513107D03*
D36*
X448158Y513107D03*
D46*
X453335Y513107D03*
X393562Y513245D03*
X400188Y513245D03*
D82*
X413095Y513245D03*
D30*
X421170Y513245D03*
D36*
X422896Y513245D03*
D67*
X429453Y513245D03*
D36*
X448158Y513245D03*
D46*
X453335Y513245D03*
D34*
X393562Y513384D03*
X400188Y513384D03*
D69*
X413371Y513384D03*
D56*
X421516Y513384D03*
D77*
X429177Y513384D03*
D39*
X448158Y513384D03*
D34*
X453335Y513384D03*
D104*
X465966Y513384D03*
D46*
X393562Y513522D03*
D36*
X400119Y513522D03*
D82*
X413647Y513522D03*
D60*
X421516Y513522D03*
D76*
X428763Y513522D03*
D46*
X448227Y513522D03*
X453335Y513522D03*
D48*
X465966Y513522D03*
D66*
X376928Y513660D03*
D46*
X393562Y513660D03*
D36*
X400119Y513660D03*
D102*
X413923Y513660D03*
D122*
X421447Y513660D03*
D76*
X428487Y513660D03*
D36*
X448296Y513660D03*
D46*
X453335Y513660D03*
D113*
X465966Y513660D03*
D70*
X376928Y513798D03*
D226*
X393631Y513798D03*
D39*
X400119Y513798D03*
D69*
X414199Y513798D03*
D128*
X421447Y513798D03*
D71*
X428142Y513798D03*
D39*
X448296Y513798D03*
D34*
X453335Y513798D03*
D116*
X466035Y513798D03*
D66*
X376928Y513936D03*
D46*
X393700Y513936D03*
D36*
X400119Y513936D03*
D76*
X414544Y513936D03*
D30*
X419514Y513936D03*
D28*
X423310Y513936D03*
D96*
X427728Y513936D03*
D36*
X448434Y513936D03*
D46*
X453335Y513936D03*
D129*
X466104Y513936D03*
D70*
X376928Y514074D03*
D34*
X393700Y514074D03*
D39*
X400119Y514074D03*
D100*
X414959Y514074D03*
D78*
X418893Y514074D03*
D104*
X423862Y514074D03*
D97*
X427244Y514074D03*
D31*
X448503Y514074D03*
D34*
X453335Y514074D03*
D84*
X464240Y514074D03*
D78*
X467898Y514074D03*
D66*
X376928Y514212D03*
D46*
X393700Y514212D03*
D36*
X400119Y514212D03*
D85*
X417236Y514212D03*
D60*
X425381Y514212D03*
D41*
X448503Y514212D03*
D46*
X453335Y514212D03*
D61*
X463757Y514212D03*
D51*
X468381Y514212D03*
D66*
X376928Y514350D03*
D46*
X393700Y514350D03*
D36*
X400119Y514350D03*
D59*
X417305Y514350D03*
D20*
X425312Y514350D03*
D41*
X448641Y514350D03*
D46*
X453335Y514350D03*
D23*
X463412Y514350D03*
D61*
X468726Y514350D03*
D70*
X376928Y514488D03*
D34*
X393700Y514488D03*
D39*
X400119Y514488D03*
D97*
X416615Y514488D03*
X418410Y514488D03*
D80*
X425174Y514488D03*
D31*
X448641Y514488D03*
D34*
X453335Y514488D03*
D92*
X463205Y514488D03*
D64*
X469072Y514488D03*
D66*
X376928Y514626D03*
D46*
X393838Y514626D03*
D36*
X400119Y514626D03*
D81*
X418134Y514626D03*
X425036Y514626D03*
D41*
X448779Y514626D03*
D46*
X453335Y514626D03*
D65*
X462998Y514626D03*
X469348Y514626D03*
D70*
X376928Y514764D03*
D34*
X393838Y514764D03*
D39*
X400119Y514764D03*
D70*
X417926Y514764D03*
X425243Y514764D03*
D31*
X448779Y514764D03*
D43*
X453266Y514764D03*
D97*
X462722Y514764D03*
D25*
X469624Y514764D03*
D66*
X376928Y514902D03*
D46*
X393838Y514902D03*
X400188Y514902D03*
D27*
X417719Y514902D03*
D66*
X425519Y514902D03*
D41*
X448917Y514902D03*
D32*
X453266Y514902D03*
D66*
X462515Y514902D03*
X469831Y514902D03*
X376928Y515040D03*
D46*
X393838Y515040D03*
X400188Y515040D03*
D27*
X417581Y515040D03*
X425726Y515040D03*
D41*
X449055Y515040D03*
D32*
X453266Y515040D03*
D27*
X462307Y515040D03*
D66*
X470107Y515040D03*
D70*
X376928Y515178D03*
D49*
X393976Y515178D03*
D34*
X400188Y515178D03*
D73*
X417443Y515178D03*
D71*
X425933Y515178D03*
D69*
X449124Y515178D03*
D43*
X453266Y515178D03*
D73*
X462169Y515178D03*
X470314Y515178D03*
D66*
X376928Y515316D03*
D47*
X393976Y515316D03*
D46*
X400188Y515316D03*
D29*
X417236Y515316D03*
X426071Y515316D03*
D82*
X449262Y515316D03*
D32*
X453266Y515316D03*
D27*
X462031Y515316D03*
D29*
X470521Y515316D03*
D66*
X376928Y515454D03*
D47*
X393976Y515454D03*
D46*
X400050Y515454D03*
D29*
X417098Y515454D03*
X426209Y515454D03*
D82*
X449400Y515454D03*
D32*
X453266Y515454D03*
D29*
X461824Y515454D03*
X470659Y515454D03*
D70*
X376928Y515592D03*
D49*
X393976Y515592D03*
D34*
X400050Y515592D03*
D71*
X416960Y515592D03*
D74*
X426416Y515592D03*
D77*
X449607Y515592D03*
D34*
X453197Y515592D03*
D71*
X461686Y515592D03*
D167*
X470797Y515592D03*
D66*
X376928Y515730D03*
D46*
X394114Y515730D03*
X400050Y515730D03*
D96*
X416822Y515730D03*
D76*
X426554Y515730D03*
D82*
X449814Y515730D03*
D46*
X453197Y515730D03*
D29*
X461548Y515730D03*
D76*
X471004Y515730D03*
D70*
X376928Y515868D03*
D34*
X394114Y515868D03*
X400050Y515868D03*
D71*
X416684Y515868D03*
D77*
X426692Y515868D03*
D74*
X450022Y515868D03*
D34*
X453197Y515868D03*
D71*
X461410Y515868D03*
D77*
X471142Y515868D03*
D66*
X376928Y516006D03*
D46*
X394114Y516006D03*
X399912Y516006D03*
D76*
X416615Y516006D03*
X426830Y516006D03*
D102*
X450229Y516006D03*
D36*
X453128Y516006D03*
D96*
X461272Y516006D03*
D76*
X471280Y516006D03*
D70*
X376928Y516144D03*
D34*
X394252Y516144D03*
X399912Y516144D03*
D77*
X416477Y516144D03*
D69*
X426899Y516144D03*
D74*
X450436Y516144D03*
D39*
X453128Y516144D03*
D74*
X461203Y516144D03*
X471418Y516144D03*
D66*
X376928Y516282D03*
D46*
X394252Y516282D03*
X399912Y516282D03*
D67*
X416339Y516282D03*
D82*
X427037Y516282D03*
D76*
X450712Y516282D03*
D36*
X453128Y516282D03*
D76*
X461065Y516282D03*
D82*
X471487Y516282D03*
D66*
X376928Y516420D03*
D36*
X394321Y516420D03*
D46*
X399774Y516420D03*
D82*
X416270Y516420D03*
D67*
X427106Y516420D03*
D29*
X450919Y516420D03*
D36*
X453128Y516420D03*
D76*
X460927Y516420D03*
D82*
X471625Y516420D03*
D70*
X376928Y516559D03*
D34*
X394390Y516559D03*
X399774Y516559D03*
D69*
X416132Y516559D03*
D77*
X427244Y516559D03*
D167*
X451195Y516559D03*
D34*
X453059Y516559D03*
D69*
X460858Y516559D03*
D77*
X471694Y516559D03*
D66*
X376928Y516697D03*
D46*
X394390Y516697D03*
D32*
X399705Y516697D03*
D41*
X416063Y516697D03*
D76*
X427382Y516697D03*
D29*
X451471Y516697D03*
D36*
X452989Y516697D03*
D82*
X460720Y516697D03*
D76*
X471832Y516697D03*
D66*
X376928Y516835D03*
D46*
X394528Y516835D03*
D47*
X399636Y516835D03*
D102*
X415994Y516835D03*
D82*
X427451Y516835D03*
D51*
X452230Y516835D03*
D41*
X460651Y516835D03*
D67*
X471970Y516835D03*
D70*
X376928Y516973D03*
D34*
X394528Y516973D03*
D43*
X399567Y516973D03*
D31*
X415925Y516973D03*
D69*
X427589Y516973D03*
D64*
X452368Y516973D03*
D69*
X460582Y516973D03*
X472039Y516973D03*
D66*
X376928Y517111D03*
D47*
X394666Y517111D03*
D46*
X399498Y517111D03*
D41*
X415787Y517111D03*
D67*
X427659Y517111D03*
D81*
X452368Y517111D03*
D41*
X460513Y517111D03*
D82*
X472178Y517111D03*
D70*
X376928Y517249D03*
D49*
X394666Y517249D03*
D39*
X399429Y517249D03*
X415718Y517249D03*
D69*
X427728Y517249D03*
D74*
X452506Y517249D03*
D31*
X460375Y517249D03*
D74*
X472247Y517249D03*
D66*
X376928Y517387D03*
D46*
X394804Y517387D03*
X399360Y517387D03*
D41*
X415649Y517387D03*
D82*
X427866Y517387D03*
D32*
X460306Y517387D03*
D82*
X472316Y517387D03*
D66*
X376928Y517525D03*
D36*
X394873Y517525D03*
D32*
X399291Y517525D03*
X415580Y517525D03*
D41*
X427935Y517525D03*
X460237Y517525D03*
D102*
X472454Y517525D03*
D70*
X376928Y517663D03*
D34*
X394942Y517663D03*
X399222Y517663D03*
D49*
X415511Y517663D03*
D87*
X428004Y517663D03*
D39*
X460168Y517663D03*
D31*
X472523Y517663D03*
D66*
X376928Y517801D03*
D32*
X395011Y517801D03*
D46*
X399084Y517801D03*
D32*
X415442Y517801D03*
D82*
X428142Y517801D03*
D46*
X460099Y517801D03*
D82*
X472592Y517801D03*
D70*
X376928Y517939D03*
D39*
X395149Y517939D03*
X399014Y517939D03*
D34*
X415373Y517939D03*
D69*
X428142Y517939D03*
D43*
X460030Y517939D03*
D69*
X472730Y517939D03*
D66*
X376928Y518077D03*
D46*
X395218Y518077D03*
D32*
X398876Y518077D03*
D36*
X415304Y518077D03*
D41*
X428211Y518077D03*
D47*
X459961Y518077D03*
D82*
X472730Y518077D03*
D66*
X376928Y518215D03*
D32*
X395287Y518215D03*
D46*
X398807Y518215D03*
X415235Y518215D03*
D82*
X428280Y518215D03*
D32*
X459892Y518215D03*
D41*
X472799Y518215D03*
D70*
X376928Y518353D03*
D43*
X395425Y518353D03*
D39*
X398738Y518353D03*
D226*
X415166Y518353D03*
D31*
X428349Y518353D03*
D34*
X459823Y518353D03*
D69*
X472868Y518353D03*
D66*
X376928Y518491D03*
D36*
X395563Y518491D03*
D32*
X398600Y518491D03*
D103*
X415166Y518491D03*
D82*
X428418Y518491D03*
D99*
X459754Y518491D03*
D41*
X472937Y518491D03*
D66*
X376928Y518629D03*
D32*
X395701Y518629D03*
X398462Y518629D03*
D99*
X415028Y518629D03*
D82*
X428418Y518629D03*
D99*
X459754Y518629D03*
D82*
X473006Y518629D03*
D70*
X376928Y518767D03*
D39*
X395839Y518767D03*
X398324Y518767D03*
D105*
X415028Y518767D03*
D31*
X428487Y518767D03*
D226*
X459616Y518767D03*
D69*
X473006Y518767D03*
D66*
X376928Y518905D03*
D41*
X396047Y518905D03*
D32*
X398186Y518905D03*
D106*
X414959Y518905D03*
D41*
X428487Y518905D03*
D103*
X459616Y518905D03*
D41*
X473075Y518905D03*
D70*
X376928Y519043D03*
D77*
X396323Y519043D03*
D74*
X397841Y519043D03*
D31*
X428487Y519043D03*
D206*
X459547Y519043D03*
D31*
X473075Y519043D03*
D66*
X376928Y519181D03*
D58*
X397082Y519181D03*
D41*
X428625Y519181D03*
X473075Y519181D03*
D70*
X376928Y519319D03*
D92*
X397082Y519319D03*
D31*
X428625Y519319D03*
X473213Y519319D03*
D66*
X376928Y519457D03*
D32*
X397082Y519457D03*
D41*
X428625Y519457D03*
X473213Y519457D03*
D66*
X376928Y519595D03*
D41*
X428625Y519595D03*
X473213Y519595D03*
D70*
X376928Y519734D03*
D31*
X428625Y519734D03*
X473213Y519734D03*
D66*
X376928Y519872D03*
D41*
X428625Y519872D03*
X473213Y519872D03*
D66*
X376928Y520010D03*
D41*
X428625Y520010D03*
X473213Y520010D03*
D70*
X376928Y520148D03*
D31*
X428625Y520148D03*
X473213Y520148D03*
D66*
X376928Y520286D03*
D41*
X428625Y520286D03*
X473213Y520286D03*
D70*
X376928Y520424D03*
D31*
X428625Y520424D03*
X473213Y520424D03*
D66*
X376928Y520562D03*
D41*
X428625Y520562D03*
X473213Y520562D03*
D66*
X376928Y520700D03*
D41*
X428625Y520700D03*
X473213Y520700D03*
D70*
X376928Y520838D03*
D31*
X428625Y520838D03*
X473213Y520838D03*
D66*
X376928Y520976D03*
D41*
X428625Y520976D03*
X473213Y520976D03*
D70*
X376928Y521114D03*
D31*
X428625Y521114D03*
X473213Y521114D03*
D66*
X376928Y521252D03*
D82*
X428556Y521252D03*
D41*
X473213Y521252D03*
D66*
X376928Y521390D03*
D41*
X428487Y521390D03*
D102*
X473144Y521390D03*
D70*
X376928Y521528D03*
D31*
X428487Y521528D03*
X473075Y521528D03*
D66*
X376928Y521666D03*
D41*
X428487Y521666D03*
X473075Y521666D03*
D66*
X376928Y521804D03*
D41*
X428487Y521804D03*
X473075Y521804D03*
D70*
X376928Y521942D03*
D69*
X428418Y521942D03*
D31*
X473075Y521942D03*
D66*
X376928Y522080D03*
D41*
X428349Y522080D03*
D82*
X473006Y522080D03*
D70*
X376928Y522218D03*
D31*
X428349Y522218D03*
X472937Y522218D03*
D66*
X376928Y522356D03*
D82*
X428280Y522356D03*
D41*
X472937Y522356D03*
D70*
X376928Y522494D03*
D31*
X428211Y522494D03*
D69*
X472868Y522494D03*
D66*
X376928Y522632D03*
D41*
X428211Y522632D03*
X472799Y522632D03*
D66*
X376928Y522770D03*
D82*
X428142Y522770D03*
D41*
X472799Y522770D03*
D70*
X376928Y522909D03*
D31*
X428073Y522909D03*
D69*
X472730Y522909D03*
D66*
X376928Y523047D03*
D41*
X428073Y523047D03*
X472661Y523047D03*
D66*
X376928Y523185D03*
D102*
X428004Y523185D03*
D41*
X472661Y523185D03*
D70*
X376928Y523323D03*
D31*
X427935Y523323D03*
D69*
X472592Y523323D03*
D66*
X376928Y523461D03*
D82*
X427866Y523461D03*
D41*
X472523Y523461D03*
D70*
X376928Y523599D03*
D31*
X427797Y523599D03*
D87*
X472454Y523599D03*
D66*
X376928Y523737D03*
D82*
X427728Y523737D03*
D41*
X472385Y523737D03*
D66*
X376928Y523875D03*
D158*
X427659Y523875D03*
D82*
X472316Y523875D03*
D70*
X376928Y524013D03*
D69*
X427589Y524013D03*
D31*
X472247Y524013D03*
D66*
X376928Y524151D03*
D82*
X427451Y524151D03*
X472178Y524151D03*
D70*
X376928Y524289D03*
D69*
X427451Y524289D03*
X472039Y524289D03*
D66*
X376928Y524427D03*
D102*
X427313Y524427D03*
D82*
X472039Y524427D03*
D66*
X376928Y524565D03*
D41*
X427244Y524565D03*
D82*
X471901Y524565D03*
D70*
X376928Y524703D03*
D69*
X427175Y524703D03*
D31*
X471832Y524703D03*
D66*
X376928Y524841D03*
D82*
X427037Y524841D03*
D102*
X471763Y524841D03*
D66*
X376928Y524979D03*
D82*
X427037Y524979D03*
X471625Y524979D03*
D70*
X376928Y525117D03*
D69*
X426899Y525117D03*
X471625Y525117D03*
D66*
X376928Y525255D03*
D82*
X426761Y525255D03*
X471487Y525255D03*
D70*
X376928Y525393D03*
D77*
X426692Y525393D03*
D69*
X471349Y525393D03*
D66*
X376928Y525531D03*
D76*
X426554Y525531D03*
X471280Y525531D03*
D70*
X376928Y525669D03*
D69*
X426485Y525669D03*
D77*
X471142Y525669D03*
D66*
X376928Y525807D03*
D82*
X426347Y525807D03*
D102*
X471073Y525807D03*
D66*
X376928Y525945D03*
D82*
X426209Y525945D03*
X470935Y525945D03*
D70*
X376928Y526084D03*
D77*
X426140Y526084D03*
D69*
X470797Y526084D03*
D66*
X376928Y526222D03*
D76*
X426002Y526222D03*
D67*
X470728Y526222D03*
D66*
X376928Y526360D03*
D67*
X425864Y526360D03*
D76*
X470590Y526360D03*
D70*
X376928Y526498D03*
D74*
X425726Y526498D03*
D77*
X470452Y526498D03*
D66*
X376928Y526636D03*
D29*
X425519Y526636D03*
D67*
X470314Y526636D03*
D70*
X376928Y526774D03*
D71*
X425381Y526774D03*
X470107Y526774D03*
D66*
X376928Y526912D03*
D29*
X425243Y526912D03*
X469969Y526912D03*
D66*
X376928Y527050D03*
D27*
X425036Y527050D03*
D29*
X469831Y527050D03*
D70*
X376928Y527188D03*
D71*
X424829Y527188D03*
D73*
X469624Y527188D03*
D66*
X376928Y527326D03*
D27*
X424622Y527326D03*
D29*
X469417Y527326D03*
D70*
X376928Y527464D03*
D100*
X424484Y527464D03*
D73*
X469210Y527464D03*
D66*
X376928Y527602D03*
D27*
X424207Y527602D03*
X469072Y527602D03*
D66*
X376928Y527740D03*
X424000Y527740D03*
D27*
X468795Y527740D03*
D70*
X376928Y527878D03*
D73*
X423793Y527878D03*
D70*
X468588Y527878D03*
D66*
X376928Y528016D03*
X423586Y528016D03*
D27*
X468381Y528016D03*
D66*
X376928Y528154D03*
X423310Y528154D03*
X468174Y528154D03*
D70*
X376928Y528292D03*
D73*
X423103Y528292D03*
D70*
X467898Y528292D03*
D66*
X376928Y528430D03*
X422896Y528430D03*
D27*
X467691Y528430D03*
D70*
X376928Y528568D03*
D212*
X422620Y528568D03*
D70*
X467484Y528568D03*
D66*
X376928Y528706D03*
D27*
X422413Y528706D03*
D66*
X467208Y528706D03*
D70*
X376928Y528844D03*
X422206Y528844D03*
D73*
X467001Y528844D03*
D66*
X376928Y528982D03*
D27*
X421999Y528982D03*
D66*
X466794Y528982D03*
X376928Y529120D03*
D27*
X421723Y529120D03*
X466587Y529120D03*
D70*
X376928Y529259D03*
D73*
X421585Y529259D03*
X466311Y529259D03*
D66*
X376928Y529397D03*
D96*
X421378Y529397D03*
D27*
X466173Y529397D03*
D239*
X380034Y529535D03*
D96*
X421239Y529535D03*
D29*
X465966Y529535D03*
D240*
X380034Y529673D03*
D71*
X420963Y529673D03*
D167*
X465828Y529673D03*
D239*
X380034Y529811D03*
D29*
X420825Y529811D03*
X465551Y529811D03*
D240*
X380034Y529949D03*
D167*
X420687Y529949D03*
D71*
X465413Y529949D03*
D239*
X380034Y530087D03*
D76*
X420480Y530087D03*
D29*
X465275Y530087D03*
D239*
X380034Y530225D03*
D76*
X420342Y530225D03*
D67*
X465068Y530225D03*
D70*
X376928Y530363D03*
D77*
X420204Y530363D03*
X464930Y530363D03*
D66*
X376928Y530501D03*
D67*
X420066Y530501D03*
D76*
X464792Y530501D03*
D70*
X376928Y530639D03*
D74*
X419928Y530639D03*
D77*
X464654Y530639D03*
D66*
X376928Y530777D03*
D76*
X419790Y530777D03*
D67*
X464516Y530777D03*
D66*
X376928Y530915D03*
D76*
X419652Y530915D03*
D67*
X464378Y530915D03*
D70*
X376928Y531053D03*
D74*
X419514Y531053D03*
D77*
X464240Y531053D03*
D66*
X376928Y531191D03*
D82*
X419445Y531191D03*
D76*
X464102Y531191D03*
D66*
X376928Y531329D03*
D82*
X419307Y531329D03*
X464033Y531329D03*
D70*
X376928Y531467D03*
D87*
X419169Y531467D03*
D69*
X463895Y531467D03*
D66*
X376928Y531605D03*
D102*
X419169Y531605D03*
D82*
X463757Y531605D03*
D70*
X376928Y531743D03*
D69*
X419031Y531743D03*
X463757Y531743D03*
D66*
X376928Y531881D03*
D41*
X418962Y531881D03*
D102*
X463619Y531881D03*
D70*
X376928Y532019D03*
D69*
X418893Y532019D03*
D31*
X463550Y532019D03*
D66*
X376928Y532157D03*
D41*
X418824Y532157D03*
D82*
X463481Y532157D03*
D66*
X376928Y532295D03*
D82*
X418755Y532295D03*
D41*
X463412Y532295D03*
D70*
X376928Y532434D03*
D31*
X418686Y532434D03*
D69*
X463343Y532434D03*
D66*
X376928Y532572D03*
D41*
X418686Y532572D03*
X463274Y532572D03*
D66*
X376928Y532710D03*
D82*
X418617Y532710D03*
D41*
X463274Y532710D03*
D70*
X376928Y532848D03*
D31*
X418548Y532848D03*
D69*
X463205Y532848D03*
D66*
X376928Y532986D03*
D41*
X418548Y532986D03*
X463136Y532986D03*
D70*
X376928Y533124D03*
D31*
X418548Y533124D03*
X463136Y533124D03*
D66*
X376928Y533262D03*
D102*
X418479Y533262D03*
D41*
X463136Y533262D03*
D66*
X376928Y533400D03*
D41*
X418410Y533400D03*
D82*
X463067Y533400D03*
D70*
X376928Y533538D03*
D31*
X418410Y533538D03*
X462998Y533538D03*
D66*
X376928Y533676D03*
D41*
X418410Y533676D03*
X462998Y533676D03*
D70*
X376928Y533814D03*
D31*
X418410Y533814D03*
X462998Y533814D03*
D66*
X376928Y533952D03*
D41*
X418410Y533952D03*
X462998Y533952D03*
D66*
X376928Y534090D03*
D41*
X418410Y534090D03*
X462998Y534090D03*
D70*
X376928Y534228D03*
D31*
X418410Y534228D03*
X462998Y534228D03*
D66*
X376928Y534366D03*
D41*
X418410Y534366D03*
X462998Y534366D03*
D66*
X376928Y534504D03*
D41*
X418410Y534504D03*
X462998Y534504D03*
D70*
X376928Y534642D03*
D31*
X418410Y534642D03*
X462998Y534642D03*
D66*
X376928Y534780D03*
D41*
X418410Y534780D03*
X462998Y534780D03*
D70*
X376928Y534918D03*
D87*
X418479Y534918D03*
D31*
X462998Y534918D03*
D66*
X376928Y535056D03*
D41*
X418548Y535056D03*
D82*
X463067Y535056D03*
D70*
X376928Y535194D03*
D31*
X418548Y535194D03*
X463136Y535194D03*
D66*
X376928Y535332D03*
D82*
X418617Y535332D03*
D41*
X463136Y535332D03*
D66*
X376928Y535470D03*
D41*
X418686Y535470D03*
D82*
X463205Y535470D03*
D70*
X376928Y535609D03*
D31*
X418686Y535609D03*
X463274Y535609D03*
D66*
X376928Y535747D03*
D82*
X418755Y535747D03*
D46*
X429177Y535747D03*
D41*
X463274Y535747D03*
D66*
X376928Y535885D03*
D41*
X418824Y535885D03*
D36*
X429108Y535885D03*
D82*
X463343Y535885D03*
D46*
X473765Y535885D03*
D70*
X376928Y536023D03*
D69*
X418893Y536023D03*
D31*
X429039Y536023D03*
X463412Y536023D03*
D39*
X473696Y536023D03*
D66*
X376928Y536161D03*
D82*
X419031Y536161D03*
X428970Y536161D03*
X463481Y536161D03*
D41*
X473627Y536161D03*
D70*
X376928Y536299D03*
D31*
X419100Y536299D03*
D74*
X428901Y536299D03*
D87*
X463619Y536299D03*
D69*
X473558Y536299D03*
D66*
X376928Y536437D03*
D102*
X419169Y536437D03*
D29*
X428832Y536437D03*
D41*
X438978Y536437D03*
X463688Y536437D03*
D82*
X473420Y536437D03*
D66*
X376928Y536575D03*
D82*
X419307Y536575D03*
D29*
X428694Y536575D03*
D41*
X439116Y536575D03*
D82*
X463757Y536575D03*
X473282Y536575D03*
D70*
X376928Y536713D03*
D69*
X419445Y536713D03*
D73*
X428487Y536713D03*
D31*
X439254Y536713D03*
D69*
X463895Y536713D03*
D87*
X473144Y536713D03*
D66*
X376928Y536851D03*
D67*
X419514Y536851D03*
D27*
X428349Y536851D03*
D41*
X439254Y536851D03*
D82*
X464033Y536851D03*
D76*
X472937Y536851D03*
D70*
X376928Y536989D03*
D77*
X419652Y536989D03*
D73*
X428211Y536989D03*
D31*
X439392Y536989D03*
D77*
X464102Y536989D03*
D74*
X472799Y536989D03*
D66*
X376928Y537127D03*
D106*
X409851Y537127D03*
D76*
X419790Y537127D03*
D27*
X427935Y537127D03*
D41*
X439530Y537127D03*
D76*
X464240Y537127D03*
D67*
X472661Y537127D03*
D66*
X376928Y537265D03*
D47*
X409851Y537265D03*
D67*
X419928Y537265D03*
D66*
X427728Y537265D03*
D41*
X439530Y537265D03*
D67*
X464378Y537265D03*
D29*
X472454Y537265D03*
D70*
X376928Y537403D03*
D43*
X409920Y537403D03*
D74*
X420066Y537403D03*
D70*
X427590Y537403D03*
D31*
X439668Y537403D03*
D74*
X464516Y537403D03*
D73*
X472247Y537403D03*
D66*
X376928Y537541D03*
D82*
X409920Y537541D03*
D29*
X420273Y537541D03*
D66*
X427313Y537541D03*
D32*
X439737Y537541D03*
D76*
X464654Y537541D03*
D166*
X472109Y537541D03*
D66*
X376928Y537679D03*
D82*
X409782Y537679D03*
D29*
X420411Y537679D03*
D81*
X427106Y537679D03*
D41*
X439806Y537679D03*
D29*
X464861Y537679D03*
D27*
X471832Y537679D03*
D70*
X376928Y537817D03*
D31*
X409713Y537817D03*
D73*
X420618Y537817D03*
D92*
X426899Y537817D03*
D31*
X439944Y537817D03*
D71*
X464999Y537817D03*
D70*
X471625Y537817D03*
D66*
X376928Y537955D03*
D102*
X409644Y537955D03*
D27*
X420894Y537955D03*
D83*
X426623Y537955D03*
D41*
X439944Y537955D03*
D27*
X465206Y537955D03*
D66*
X471349Y537955D03*
D70*
X376928Y538093D03*
D69*
X409506Y538093D03*
D70*
X421101Y538093D03*
D95*
X426347Y538093D03*
D31*
X440082Y538093D03*
D73*
X465482Y538093D03*
D70*
X471073Y538093D03*
D66*
X376928Y538231D03*
D82*
X409506Y538231D03*
D81*
X421309Y538231D03*
D51*
X426002Y538231D03*
D32*
X440151Y538231D03*
D66*
X465690Y538231D03*
D83*
X470797Y538231D03*
D70*
X376928Y538369D03*
D69*
X409368Y538369D03*
D64*
X421723Y538369D03*
D21*
X425588Y538369D03*
D31*
X440220Y538369D03*
D97*
X465897Y538369D03*
D64*
X470452Y538369D03*
D65*
X376997Y538507D03*
D41*
X409299Y538507D03*
D241*
X423862Y538507D03*
D36*
X440289Y538507D03*
D23*
X466311Y538507D03*
D89*
X469969Y538507D03*
D98*
X377066Y538645D03*
D82*
X409230Y538645D03*
D85*
X423862Y538645D03*
D158*
X440359Y538645D03*
D123*
X468243Y538645D03*
D64*
X377135Y538784D03*
D69*
X409092Y538784D03*
D62*
X423793Y538784D03*
D39*
X440428Y538784D03*
D62*
X468243Y538784D03*
D242*
X382794Y538922D03*
D82*
X409092Y538922D03*
D160*
X423793Y538922D03*
D99*
X435320Y538922D03*
D41*
X440497Y538922D03*
D18*
X468174Y538922D03*
D242*
X382794Y539060D03*
D102*
X408954Y539060D03*
D42*
X423793Y539060D03*
D41*
X435251Y539060D03*
D32*
X440566Y539060D03*
D12*
X468174Y539060D03*
D243*
X382794Y539198D03*
D31*
X408885Y539198D03*
D21*
X423793Y539198D03*
D31*
X435389Y539198D03*
X440635Y539198D03*
D168*
X468036Y539198D03*
D242*
X382794Y539336D03*
D82*
X408816Y539336D03*
D41*
X435527Y539336D03*
D36*
X440704Y539336D03*
D243*
X382794Y539474D03*
D31*
X408747Y539474D03*
X435527Y539474D03*
X440773Y539474D03*
D242*
X382794Y539612D03*
D82*
X408678Y539612D03*
D41*
X435665Y539612D03*
D32*
X440842Y539612D03*
D242*
X382794Y539750D03*
D158*
X408609Y539750D03*
D41*
X435803Y539750D03*
X440911Y539750D03*
D69*
X408539Y539888D03*
D31*
X435803Y539888D03*
D43*
X440980Y539888D03*
D41*
X408470Y540026D03*
X435941Y540026D03*
X441049Y540026D03*
D69*
X408401Y540164D03*
D105*
X413509Y540164D03*
D31*
X435941Y540164D03*
X441049Y540164D03*
D41*
X408332Y540302D03*
D46*
X413578Y540302D03*
D41*
X436079Y540302D03*
D36*
X441118Y540302D03*
D41*
X408332Y540440D03*
X413578Y540440D03*
X436217Y540440D03*
X441187Y540440D03*
D87*
X408263Y540578D03*
D69*
X413509Y540578D03*
D31*
X436217Y540578D03*
D43*
X441256Y540578D03*
D41*
X408194Y540716D03*
X413440Y540716D03*
X436355Y540716D03*
X441325Y540716D03*
D82*
X408125Y540854D03*
X413371Y540854D03*
D41*
X436355Y540854D03*
X441325Y540854D03*
D31*
X408056Y540992D03*
X413302Y540992D03*
X436493Y540992D03*
D39*
X441394Y540992D03*
D41*
X408056Y541130D03*
X413164Y541130D03*
X436493Y541130D03*
X441463Y541130D03*
D69*
X407987Y541268D03*
X413095Y541268D03*
D31*
X436631Y541268D03*
D43*
X441532Y541268D03*
D41*
X407918Y541406D03*
X413026Y541406D03*
X436631Y541406D03*
D32*
X441532Y541406D03*
D69*
X407849Y541544D03*
X412957Y541544D03*
D31*
X436769Y541544D03*
X441601Y541544D03*
D41*
X407780Y541682D03*
X412888Y541682D03*
X436769Y541682D03*
D32*
X441670Y541682D03*
D41*
X407780Y541820D03*
D102*
X412819Y541820D03*
D36*
X436838Y541820D03*
D32*
X441670Y541820D03*
D69*
X407711Y541959D03*
D31*
X412750Y541959D03*
D206*
X431662Y541959D03*
D31*
X436907Y541959D03*
X441739Y541959D03*
D41*
X407642Y542097D03*
X412750Y542097D03*
D46*
X431662Y542097D03*
D41*
X436907Y542097D03*
X441739Y542097D03*
X407642Y542235D03*
X412612Y542235D03*
D46*
X417167Y542235D03*
D41*
X431662Y542235D03*
X437045Y542235D03*
D36*
X441808Y542235D03*
D31*
X407642Y542373D03*
X412612Y542373D03*
D87*
X417098Y542373D03*
D31*
X431662Y542373D03*
X437045Y542373D03*
D39*
X441808Y542373D03*
D41*
X407504Y542511D03*
X412474Y542511D03*
D102*
X417098Y542511D03*
D41*
X431800Y542511D03*
D36*
X437114Y542511D03*
D41*
X441877Y542511D03*
D31*
X407504Y542649D03*
X412474Y542649D03*
D69*
X416960Y542649D03*
D31*
X431800Y542649D03*
D101*
X437184Y542649D03*
D39*
X441946Y542649D03*
D41*
X407504Y542787D03*
D82*
X412405Y542787D03*
D41*
X416891Y542787D03*
X431938Y542787D03*
D158*
X437184Y542787D03*
D36*
X441946Y542787D03*
D82*
X407435Y542925D03*
D41*
X412336Y542925D03*
D82*
X416822Y542925D03*
D32*
X432007Y542925D03*
D36*
X437253Y542925D03*
X441946Y542925D03*
D31*
X407366Y543063D03*
X412336Y543063D03*
D69*
X416684Y543063D03*
D31*
X432076Y543063D03*
X437322Y543063D03*
X442015Y543063D03*
D41*
X407366Y543201D03*
X412198Y543201D03*
X416615Y543201D03*
D32*
X432145Y543201D03*
D41*
X437322Y543201D03*
D36*
X442084Y543201D03*
D31*
X407366Y543339D03*
X412198Y543339D03*
D69*
X416546Y543339D03*
D31*
X432214Y543339D03*
D43*
X437391Y543339D03*
D39*
X442084Y543339D03*
D41*
X407366Y543477D03*
X412198Y543477D03*
X416477Y543477D03*
D36*
X432283Y543477D03*
D32*
X437391Y543477D03*
D36*
X442084Y543477D03*
D41*
X407228Y543615D03*
X412060Y543615D03*
D82*
X416408Y543615D03*
D41*
X432352Y543615D03*
X437460Y543615D03*
D36*
X442084Y543615D03*
D31*
X407228Y543753D03*
X412060Y543753D03*
X416339Y543753D03*
D39*
X432421Y543753D03*
X437529Y543753D03*
D31*
X442153Y543753D03*
D41*
X407228Y543891D03*
X412060Y543891D03*
D82*
X416270Y543891D03*
D83*
X424138Y543891D03*
D41*
X432490Y543891D03*
D36*
X437529Y543891D03*
D32*
X442222Y543891D03*
D41*
X407228Y544029D03*
X412060Y544029D03*
X416201Y544029D03*
D30*
X424207Y544029D03*
D36*
X432559Y544029D03*
X437529Y544029D03*
D32*
X442222Y544029D03*
D31*
X407228Y544167D03*
X411922Y544167D03*
X416201Y544167D03*
D55*
X424138Y544167D03*
D39*
X432559Y544167D03*
D31*
X437598Y544167D03*
D43*
X442222Y544167D03*
D41*
X407090Y544305D03*
X411922Y544305D03*
X416063Y544305D03*
D18*
X424138Y544305D03*
D41*
X432628Y544305D03*
D32*
X437667Y544305D03*
X442222Y544305D03*
D31*
X407090Y544443D03*
X411922Y544443D03*
X416063Y544443D03*
D238*
X424207Y544443D03*
D43*
X432697Y544443D03*
X437667Y544443D03*
X442222Y544443D03*
D41*
X407090Y544581D03*
X411922Y544581D03*
X416063Y544581D03*
D115*
X424138Y544581D03*
D32*
X432697Y544581D03*
X437667Y544581D03*
X442360Y544581D03*
D31*
X407090Y544719D03*
D101*
X411784Y544719D03*
D31*
X415925Y544719D03*
D121*
X424207Y544719D03*
D31*
X432766Y544719D03*
D43*
X437667Y544719D03*
X442360Y544719D03*
D41*
X407090Y544857D03*
D158*
X411784Y544857D03*
D41*
X415925Y544857D03*
D126*
X424207Y544857D03*
D32*
X432835Y544857D03*
D41*
X437736Y544857D03*
D32*
X442360Y544857D03*
D41*
X407090Y544995D03*
D158*
X411784Y544995D03*
D41*
X415925Y544995D03*
D130*
X424207Y544995D03*
D32*
X432835Y544995D03*
D41*
X437736Y544995D03*
D32*
X442360Y544995D03*
D31*
X406952Y545134D03*
D101*
X411784Y545134D03*
D43*
X415856Y545134D03*
D244*
X424207Y545134D03*
D43*
X432835Y545134D03*
X437805Y545134D03*
X442360Y545134D03*
D41*
X406952Y545272D03*
D158*
X411784Y545272D03*
D41*
X415787Y545272D03*
D137*
X424207Y545272D03*
D41*
X432904Y545272D03*
D32*
X437805Y545272D03*
X442360Y545272D03*
D41*
X406952Y545410D03*
D36*
X411714Y545410D03*
D41*
X415787Y545410D03*
D141*
X424138Y545410D03*
D36*
X432973Y545410D03*
D32*
X437805Y545410D03*
X442360Y545410D03*
D31*
X406952Y545548D03*
X411645Y545548D03*
X415787Y545548D03*
D151*
X424207Y545548D03*
D39*
X432973Y545548D03*
D43*
X437805Y545548D03*
X442360Y545548D03*
D41*
X406952Y545686D03*
X411645Y545686D03*
X415787Y545686D03*
D234*
X424207Y545686D03*
D36*
X432973Y545686D03*
D41*
X437874Y545686D03*
X442429Y545686D03*
D31*
X406952Y545824D03*
X411645Y545824D03*
X415649Y545824D03*
D149*
X424138Y545824D03*
D39*
X432973Y545824D03*
D31*
X437874Y545824D03*
D39*
X442498Y545824D03*
D41*
X406952Y545962D03*
X411645Y545962D03*
X415649Y545962D03*
D182*
X424207Y545962D03*
D36*
X432973Y545962D03*
D41*
X437874Y545962D03*
D36*
X442498Y545962D03*
D41*
X406952Y546100D03*
X411645Y546100D03*
X415649Y546100D03*
D182*
X424207Y546100D03*
D36*
X432973Y546100D03*
X437943Y546100D03*
X442498Y546100D03*
D31*
X406952Y546238D03*
X411645Y546238D03*
X415649Y546238D03*
D245*
X424207Y546238D03*
D43*
X433111Y546238D03*
D39*
X437943Y546238D03*
X442498Y546238D03*
D41*
X406952Y546376D03*
X411645Y546376D03*
X415649Y546376D03*
D246*
X424207Y546376D03*
D32*
X433111Y546376D03*
D36*
X437943Y546376D03*
X442498Y546376D03*
D31*
X406952Y546514D03*
X411645Y546514D03*
X415649Y546514D03*
D13*
X424138Y546514D03*
D43*
X433111Y546514D03*
D39*
X437943Y546514D03*
X442498Y546514D03*
D41*
X406952Y546652D03*
D32*
X411576Y546652D03*
D41*
X415649Y546652D03*
D247*
X424207Y546652D03*
D32*
X433111Y546652D03*
D36*
X437943Y546652D03*
X442498Y546652D03*
D41*
X406952Y546790D03*
D32*
X411576Y546790D03*
X415580Y546790D03*
D247*
X424207Y546790D03*
D32*
X433111Y546790D03*
D36*
X437943Y546790D03*
X442498Y546790D03*
D31*
X406952Y546928D03*
D43*
X411576Y546928D03*
X415580Y546928D03*
D248*
X424207Y546928D03*
D43*
X433111Y546928D03*
D39*
X437943Y546928D03*
X442498Y546928D03*
D41*
X406952Y547066D03*
D32*
X411576Y547066D03*
X415580Y547066D03*
D19*
X424138Y547066D03*
D32*
X433111Y547066D03*
D36*
X437943Y547066D03*
X442498Y547066D03*
D41*
X406814Y547204D03*
D32*
X411576Y547204D03*
X415580Y547204D03*
D19*
X424138Y547204D03*
D32*
X433111Y547204D03*
D36*
X437943Y547204D03*
X442498Y547204D03*
D31*
X406814Y547342D03*
D43*
X411576Y547342D03*
X415580Y547342D03*
D249*
X424138Y547342D03*
D43*
X433111Y547342D03*
D39*
X437943Y547342D03*
X442498Y547342D03*
D41*
X406952Y547480D03*
D32*
X411576Y547480D03*
X415580Y547480D03*
D19*
X424138Y547480D03*
D32*
X433111Y547480D03*
D36*
X437943Y547480D03*
X442498Y547480D03*
D31*
X406952Y547618D03*
D43*
X411576Y547618D03*
X415580Y547618D03*
D250*
X424207Y547618D03*
D43*
X433111Y547618D03*
D39*
X437943Y547618D03*
X442498Y547618D03*
D41*
X406952Y547756D03*
D32*
X411576Y547756D03*
X415580Y547756D03*
D214*
X424207Y547756D03*
D32*
X433111Y547756D03*
D36*
X437943Y547756D03*
X442498Y547756D03*
D31*
X406952Y547894D03*
D43*
X411576Y547894D03*
X415580Y547894D03*
D249*
X424138Y547894D03*
D43*
X433111Y547894D03*
D39*
X437943Y547894D03*
X442498Y547894D03*
D41*
X406952Y548032D03*
D32*
X411576Y548032D03*
D41*
X415649Y548032D03*
D19*
X424138Y548032D03*
D32*
X433111Y548032D03*
D36*
X437943Y548032D03*
X442498Y548032D03*
D41*
X406952Y548170D03*
X411645Y548170D03*
X415649Y548170D03*
D19*
X424138Y548170D03*
D32*
X433111Y548170D03*
D36*
X437943Y548170D03*
X442498Y548170D03*
D31*
X406952Y548309D03*
X411645Y548309D03*
X415649Y548309D03*
D248*
X424207Y548309D03*
D43*
X433111Y548309D03*
D39*
X437943Y548309D03*
X442498Y548309D03*
D41*
X406952Y548447D03*
X411645Y548447D03*
X415649Y548447D03*
D247*
X424207Y548447D03*
D36*
X432973Y548447D03*
X437943Y548447D03*
X442498Y548447D03*
D41*
X406952Y548585D03*
X411645Y548585D03*
X415649Y548585D03*
D247*
X424207Y548585D03*
D36*
X432973Y548585D03*
D41*
X437874Y548585D03*
D36*
X442498Y548585D03*
D31*
X406952Y548723D03*
X411645Y548723D03*
D39*
X415718Y548723D03*
D248*
X424207Y548723D03*
D39*
X432973Y548723D03*
D31*
X437874Y548723D03*
D39*
X442498Y548723D03*
D41*
X406952Y548861D03*
X411645Y548861D03*
D36*
X415718Y548861D03*
D196*
X424138Y548861D03*
D36*
X432973Y548861D03*
D32*
X437805Y548861D03*
D46*
X442429Y548861D03*
D31*
X406952Y548999D03*
D39*
X411714Y548999D03*
D31*
X415787Y548999D03*
D245*
X424207Y548999D03*
D39*
X432973Y548999D03*
D43*
X437805Y548999D03*
X442360Y548999D03*
D41*
X406952Y549137D03*
D36*
X411714Y549137D03*
D41*
X415787Y549137D03*
D251*
X424138Y549137D03*
D36*
X432973Y549137D03*
D32*
X437805Y549137D03*
X442360Y549137D03*
D41*
X406952Y549275D03*
D36*
X411714Y549275D03*
D41*
X415787Y549275D03*
D182*
X424207Y549275D03*
D32*
X432835Y549275D03*
X437805Y549275D03*
X442360Y549275D03*
D39*
X407021Y549413D03*
D101*
X411784Y549413D03*
D43*
X415856Y549413D03*
D211*
X424207Y549413D03*
D43*
X432835Y549413D03*
X437805Y549413D03*
X442360Y549413D03*
D41*
X407090Y549551D03*
D158*
X411784Y549551D03*
D41*
X415925Y549551D03*
D234*
X424207Y549551D03*
D32*
X432835Y549551D03*
X437805Y549551D03*
X442360Y549551D03*
D31*
X407090Y549689D03*
D101*
X411784Y549689D03*
D31*
X415925Y549689D03*
D152*
X424207Y549689D03*
D43*
X432835Y549689D03*
D31*
X437736Y549689D03*
D43*
X442360Y549689D03*
D41*
X407090Y549827D03*
D36*
X411853Y549827D03*
X415994Y549827D03*
D142*
X424207Y549827D03*
D32*
X432697Y549827D03*
X437667Y549827D03*
X442360Y549827D03*
D41*
X407090Y549965D03*
D36*
X411853Y549965D03*
D41*
X416063Y549965D03*
D137*
X424207Y549965D03*
D32*
X432697Y549965D03*
X437667Y549965D03*
X442360Y549965D03*
D31*
X407090Y550103D03*
X411922Y550103D03*
X416063Y550103D03*
D180*
X424138Y550103D03*
D43*
X432697Y550103D03*
X437667Y550103D03*
X442222Y550103D03*
D41*
X407090Y550241D03*
X411922Y550241D03*
D32*
X416132Y550241D03*
D54*
X424207Y550241D03*
D36*
X432559Y550241D03*
D32*
X437667Y550241D03*
X442222Y550241D03*
D41*
X407228Y550379D03*
D32*
X411991Y550379D03*
D41*
X416201Y550379D03*
D130*
X424207Y550379D03*
D36*
X432559Y550379D03*
D41*
X437598Y550379D03*
D32*
X442222Y550379D03*
D31*
X407228Y550517D03*
D43*
X411991Y550517D03*
D31*
X416201Y550517D03*
D127*
X424207Y550517D03*
D39*
X432559Y550517D03*
X437529Y550517D03*
D43*
X442222Y550517D03*
D41*
X407228Y550655D03*
X412060Y550655D03*
D32*
X416270Y550655D03*
D123*
X424207Y550655D03*
D36*
X432421Y550655D03*
X437529Y550655D03*
D32*
X442222Y550655D03*
D31*
X407228Y550793D03*
X412060Y550793D03*
X416339Y550793D03*
D220*
X424276Y550793D03*
D39*
X432421Y550793D03*
X437529Y550793D03*
D34*
X442153Y550793D03*
D41*
X407228Y550931D03*
D36*
X412129Y550931D03*
X416408Y550931D03*
D112*
X424207Y550931D03*
D46*
X432352Y550931D03*
D41*
X437460Y550931D03*
D36*
X442084Y550931D03*
D31*
X407366Y551069D03*
X412198Y551069D03*
X416477Y551069D03*
D56*
X424276Y551069D03*
D39*
X432283Y551069D03*
D43*
X437391Y551069D03*
D39*
X442084Y551069D03*
D41*
X407366Y551207D03*
X412198Y551207D03*
D36*
X416546Y551207D03*
D48*
X424276Y551207D03*
D46*
X432214Y551207D03*
D32*
X437391Y551207D03*
D36*
X442084Y551207D03*
D41*
X407366Y551345D03*
D32*
X412267Y551345D03*
D41*
X416615Y551345D03*
D28*
X424276Y551345D03*
D32*
X432145Y551345D03*
X437391Y551345D03*
D36*
X442084Y551345D03*
D31*
X407366Y551484D03*
X412336Y551484D03*
X416753Y551484D03*
D70*
X424276Y551484D03*
D49*
X432076Y551484D03*
D39*
X437253Y551484D03*
X441946Y551484D03*
D41*
X407504Y551622D03*
X412336Y551622D03*
X416753Y551622D03*
D32*
X432007Y551622D03*
D36*
X437253Y551622D03*
X441946Y551622D03*
D41*
X407504Y551760D03*
D32*
X412405Y551760D03*
D41*
X416891Y551760D03*
D46*
X431938Y551760D03*
D36*
X437253Y551760D03*
X441946Y551760D03*
D31*
X407504Y551898D03*
X412474Y551898D03*
D43*
X416960Y551898D03*
D39*
X431869Y551898D03*
X437114Y551898D03*
X441946Y551898D03*
D41*
X407504Y552036D03*
D36*
X412543Y552036D03*
D41*
X417029Y552036D03*
D32*
X431731Y552036D03*
D36*
X437114Y552036D03*
D46*
X441877Y552036D03*
D31*
X407642Y552174D03*
X412612Y552174D03*
D39*
X417098Y552174D03*
D34*
X431662Y552174D03*
D31*
X437045Y552174D03*
D39*
X441808Y552174D03*
D41*
X407642Y552312D03*
X412612Y552312D03*
D106*
X417029Y552312D03*
D36*
X431593Y552312D03*
D32*
X436976Y552312D03*
D36*
X441808Y552312D03*
D41*
X407642Y552450D03*
D32*
X412681Y552450D03*
D46*
X431524Y552450D03*
D32*
X436976Y552450D03*
D36*
X441808Y552450D03*
D31*
X407780Y552588D03*
X412750Y552588D03*
D49*
X431386Y552588D03*
D39*
X436838Y552588D03*
D43*
X441670Y552588D03*
D41*
X407780Y552726D03*
D36*
X412819Y552726D03*
D106*
X431524Y552726D03*
D36*
X436838Y552726D03*
D32*
X441670Y552726D03*
D31*
X407780Y552864D03*
X412888Y552864D03*
X436769Y552864D03*
D43*
X441670Y552864D03*
D41*
X407918Y553002D03*
D32*
X412957Y553002D03*
X436700Y553002D03*
X441532Y553002D03*
D41*
X407918Y553140D03*
X413026Y553140D03*
X436631Y553140D03*
D32*
X441532Y553140D03*
D31*
X407918Y553278D03*
X413164Y553278D03*
D43*
X436562Y553278D03*
X441532Y553278D03*
D41*
X408056Y553416D03*
D36*
X413233Y553416D03*
D32*
X436562Y553416D03*
D36*
X441394Y553416D03*
D41*
X408056Y553554D03*
X413302Y553554D03*
D36*
X436424Y553554D03*
X441394Y553554D03*
D31*
X408194Y553692D03*
D39*
X413371Y553692D03*
D31*
X436355Y553692D03*
D39*
X441394Y553692D03*
D41*
X408194Y553830D03*
X413440Y553830D03*
D32*
X436286Y553830D03*
X441256Y553830D03*
D31*
X408194Y553968D03*
D39*
X413509Y553968D03*
D31*
X436217Y553968D03*
D43*
X441256Y553968D03*
D41*
X408332Y554106D03*
D32*
X413647Y554106D03*
D36*
X436148Y554106D03*
D41*
X441187Y554106D03*
D31*
X408332Y554244D03*
X413716Y554244D03*
X436079Y554244D03*
D39*
X441118Y554244D03*
D41*
X408470Y554382D03*
D47*
X413716Y554382D03*
D32*
X436010Y554382D03*
D36*
X441118Y554382D03*
D41*
X408470Y554520D03*
D32*
X435872Y554520D03*
X440980Y554520D03*
D101*
X408609Y554659D03*
D31*
X435803Y554659D03*
D43*
X440980Y554659D03*
D158*
X408609Y554797D03*
D36*
X435734Y554797D03*
D32*
X440842Y554797D03*
D41*
X408747Y554935D03*
X435665Y554935D03*
D32*
X440842Y554935D03*
D31*
X408747Y555073D03*
X435527Y555073D03*
D39*
X440704Y555073D03*
D41*
X408885Y555211D03*
D72*
X435665Y555211D03*
D36*
X440704Y555211D03*
D31*
X408885Y555349D03*
X440635Y555349D03*
D41*
X409023Y555487D03*
D32*
X440566Y555487D03*
D41*
X409023Y555625D03*
X440497Y555625D03*
D31*
X409161Y555763D03*
D39*
X440428Y555763D03*
D41*
X409161Y555901D03*
D158*
X440359Y555901D03*
D31*
X409299Y556039D03*
D39*
X440289Y556039D03*
D41*
X409437Y556177D03*
X440220Y556177D03*
X409437Y556315D03*
D32*
X440151Y556315D03*
D31*
X409575Y556453D03*
D39*
X440013Y556453D03*
D36*
X409644Y556591D03*
X440013Y556591D03*
D41*
X409713Y556729D03*
D32*
X439875Y556729D03*
D31*
X409851Y556867D03*
X439806Y556867D03*
D32*
X409920Y557005D03*
X439737Y557005D03*
D49*
X409851Y557143D03*
D39*
X439599Y557143D03*
D41*
X439530Y557281D03*
D43*
X439461Y557419D03*
D36*
X439323Y557557D03*
X439323Y557695D03*
D43*
X439185Y557834D03*
D106*
X439254Y557972D03*
D10*
X-61Y-690D02*
X-123Y-690D01*
X-61Y-690D02*
X-47Y-688D01*
X-35Y-684D01*
X-23Y-677D01*
X-13Y-667D01*
X-6Y-655D01*
X-2Y-643D01*
X0Y-629D01*
X0Y-476D01*
X-2Y-462D01*
X-6Y-450D01*
X-13Y-438D01*
X-23Y-428D01*
X-35Y-421D01*
X-47Y-417D01*
X-61Y-415D01*
X-61Y-414D02*
X-123Y-414D01*
X-210Y-652D02*
X-210Y-667D01*
X-210Y-652D02*
X-225Y-652D01*
X-225Y-667D01*
X-210Y-667D01*
X-210Y-545D02*
X-210Y-529D01*
X-225Y-529D01*
X-225Y-545D01*
X-210Y-545D01*
X-314Y-721D02*
X-437Y-383D01*
X-530Y-414D02*
X-530Y-614D01*
X-532Y-630D01*
X-537Y-645D01*
X-545Y-659D01*
X-555Y-671D01*
X-568Y-681D01*
X-583Y-687D01*
X-599Y-691D01*
X-615Y-691D01*
X-631Y-687D01*
X-646Y-681D01*
X-659Y-671D01*
X-669Y-659D01*
X-677Y-645D01*
X-682Y-630D01*
X-684Y-614D01*
X-684Y-414D01*
X-809Y-583D02*
X-886Y-614D01*
X-809Y-583D02*
X-799Y-577D01*
X-790Y-568D01*
X-785Y-556D01*
X-784Y-544D01*
X-786Y-532D01*
X-792Y-521D01*
X-801Y-513D01*
X-812Y-508D01*
X-825Y-506D01*
X-824Y-506D02*
X-848Y-508D01*
X-871Y-513D01*
X-894Y-521D01*
X-886Y-613D02*
X-896Y-619D01*
X-905Y-628D01*
X-910Y-640D01*
X-911Y-652D01*
X-909Y-664D01*
X-903Y-675D01*
X-894Y-683D01*
X-883Y-688D01*
X-870Y-690D01*
X-842Y-688D01*
X-814Y-683D01*
X-786Y-675D01*
X-1047Y-690D02*
X-1124Y-690D01*
X-1047Y-690D02*
X-1035Y-688D01*
X-1024Y-684D01*
X-1014Y-677D01*
X-1007Y-667D01*
X-1003Y-656D01*
X-1001Y-644D01*
X-1001Y-568D01*
X-1002Y-568D02*
X-1004Y-553D01*
X-1009Y-540D01*
X-1017Y-528D01*
X-1028Y-518D01*
X-1041Y-511D01*
X-1056Y-507D01*
X-1070Y-507D01*
X-1085Y-511D01*
X-1098Y-518D01*
X-1109Y-528D01*
X-1117Y-540D01*
X-1122Y-553D01*
X-1124Y-568D01*
X-1124Y-598D01*
X-1001Y-598D01*
X-1226Y-690D02*
X-1226Y-506D01*
X-1318Y-506D01*
X-1318Y-537D01*
X-1413Y-583D02*
X-1490Y-614D01*
X-1413Y-583D02*
X-1403Y-577D01*
X-1394Y-568D01*
X-1389Y-556D01*
X-1388Y-544D01*
X-1390Y-532D01*
X-1396Y-521D01*
X-1405Y-513D01*
X-1416Y-508D01*
X-1429Y-506D01*
X-1428Y-506D02*
X-1452Y-508D01*
X-1475Y-513D01*
X-1498Y-521D01*
X-1490Y-613D02*
X-1500Y-619D01*
X-1509Y-628D01*
X-1514Y-640D01*
X-1515Y-652D01*
X-1513Y-664D01*
X-1507Y-675D01*
X-1498Y-683D01*
X-1487Y-688D01*
X-1474Y-690D01*
X-1446Y-688D01*
X-1418Y-683D01*
X-1390Y-675D01*
X-1597Y-721D02*
X-1720Y-383D01*
X-1816Y-414D02*
X-1816Y-690D01*
X-1816Y-583D02*
X-1969Y-414D01*
X-1877Y-522D02*
X-1969Y-690D01*
X-2061Y-690D02*
X-2061Y-506D01*
X-2138Y-506D01*
X-2150Y-508D01*
X-2161Y-512D01*
X-2171Y-519D01*
X-2178Y-529D01*
X-2182Y-540D01*
X-2184Y-552D01*
X-2184Y-690D01*
X-2331Y-690D02*
X-2408Y-690D01*
X-2331Y-690D02*
X-2319Y-688D01*
X-2308Y-684D01*
X-2298Y-677D01*
X-2291Y-667D01*
X-2287Y-656D01*
X-2285Y-644D01*
X-2285Y-568D01*
X-2287Y-553D01*
X-2292Y-540D01*
X-2300Y-528D01*
X-2311Y-518D01*
X-2324Y-511D01*
X-2339Y-507D01*
X-2353Y-507D01*
X-2368Y-511D01*
X-2381Y-518D01*
X-2392Y-528D01*
X-2400Y-540D01*
X-2405Y-553D01*
X-2407Y-568D01*
X-2408Y-568D02*
X-2408Y-598D01*
X-2285Y-598D01*
X-2504Y-690D02*
X-2504Y-506D01*
X-2496Y-429D02*
X-2496Y-414D01*
X-2511Y-414D01*
X-2511Y-429D01*
X-2496Y-429D01*
X-2722Y-414D02*
X-2722Y-690D01*
X-2645Y-690D01*
X-2633Y-688D01*
X-2622Y-684D01*
X-2612Y-677D01*
X-2605Y-667D01*
X-2601Y-656D01*
X-2599Y-644D01*
X-2599Y-552D01*
X-2601Y-540D01*
X-2605Y-529D01*
X-2612Y-519D01*
X-2622Y-512D01*
X-2633Y-508D01*
X-2645Y-506D01*
X-2722Y-506D01*
X-2829Y-414D02*
X-2829Y-644D01*
X-2831Y-656D01*
X-2835Y-667D01*
X-2842Y-677D01*
X-2852Y-684D01*
X-2863Y-688D01*
X-2875Y-690D01*
X-2947Y-721D02*
X-3070Y-383D01*
X-3156Y-491D02*
X-3156Y-614D01*
X-3155Y-491D02*
X-3157Y-475D01*
X-3162Y-460D01*
X-3170Y-446D01*
X-3180Y-434D01*
X-3194Y-424D01*
X-3208Y-418D01*
X-3224Y-414D01*
X-3240Y-414D01*
X-3256Y-418D01*
X-3271Y-424D01*
X-3284Y-434D01*
X-3294Y-446D01*
X-3302Y-460D01*
X-3307Y-475D01*
X-3309Y-491D01*
X-3309Y-614D01*
X-3307Y-630D01*
X-3302Y-645D01*
X-3294Y-659D01*
X-3284Y-671D01*
X-3271Y-681D01*
X-3256Y-687D01*
X-3240Y-691D01*
X-3224Y-691D01*
X-3208Y-687D01*
X-3194Y-681D01*
X-3180Y-671D01*
X-3170Y-659D01*
X-3162Y-645D01*
X-3157Y-630D01*
X-3155Y-614D01*
X-3411Y-690D02*
X-3411Y-506D01*
X-3488Y-506D01*
X-3500Y-508D01*
X-3511Y-512D01*
X-3521Y-519D01*
X-3528Y-529D01*
X-3532Y-540D01*
X-3534Y-552D01*
X-3534Y-690D01*
X-3681Y-690D02*
X-3757Y-690D01*
X-3681Y-690D02*
X-3669Y-688D01*
X-3658Y-684D01*
X-3648Y-677D01*
X-3641Y-667D01*
X-3637Y-656D01*
X-3635Y-644D01*
X-3635Y-568D01*
X-3637Y-553D01*
X-3642Y-540D01*
X-3650Y-528D01*
X-3661Y-518D01*
X-3674Y-511D01*
X-3689Y-507D01*
X-3703Y-507D01*
X-3718Y-511D01*
X-3731Y-518D01*
X-3742Y-528D01*
X-3750Y-540D01*
X-3755Y-553D01*
X-3757Y-568D01*
X-3757Y-598D01*
X-3635Y-598D01*
X-3860Y-690D02*
X-3860Y-414D01*
X-3936Y-414D01*
X-3951Y-415D01*
X-3965Y-420D01*
X-3979Y-427D01*
X-3990Y-437D01*
X-4000Y-448D01*
X-4007Y-462D01*
X-4012Y-476D01*
X-4013Y-491D01*
X-4013Y-614D01*
X-4012Y-629D01*
X-4007Y-643D01*
X-4000Y-657D01*
X-3990Y-668D01*
X-3979Y-678D01*
X-3965Y-685D01*
X-3951Y-690D01*
X-3936Y-691D01*
X-3936Y-690D02*
X-3860Y-690D01*
X-4124Y-690D02*
X-4124Y-506D01*
X-4216Y-506D01*
X-4216Y-537D01*
X-4292Y-506D02*
X-4292Y-690D01*
X-4285Y-429D02*
X-4285Y-414D01*
X-4300Y-414D01*
X-4300Y-429D01*
X-4285Y-429D01*
X-4380Y-506D02*
X-4441Y-690D01*
X-4503Y-506D01*
X-4633Y-690D02*
X-4710Y-690D01*
X-4633Y-690D02*
X-4621Y-688D01*
X-4610Y-684D01*
X-4600Y-677D01*
X-4593Y-667D01*
X-4589Y-656D01*
X-4587Y-644D01*
X-4587Y-568D01*
X-4589Y-553D01*
X-4594Y-540D01*
X-4602Y-528D01*
X-4613Y-518D01*
X-4626Y-511D01*
X-4641Y-507D01*
X-4655Y-507D01*
X-4670Y-511D01*
X-4683Y-518D01*
X-4694Y-528D01*
X-4702Y-540D01*
X-4707Y-553D01*
X-4709Y-568D01*
X-4710Y-568D02*
X-4710Y-598D01*
X-4587Y-598D01*
X-4937Y-583D02*
X-5121Y-583D01*
X-5360Y-537D02*
X-5437Y-537D01*
X-5453Y-539D01*
X-5468Y-544D01*
X-5482Y-552D01*
X-5494Y-562D01*
X-5504Y-576D01*
X-5510Y-590D01*
X-5514Y-606D01*
X-5514Y-622D01*
X-5510Y-638D01*
X-5504Y-652D01*
X-5494Y-666D01*
X-5482Y-676D01*
X-5468Y-684D01*
X-5453Y-689D01*
X-5437Y-691D01*
X-5437Y-690D02*
X-5360Y-690D01*
X-5360Y-414D01*
X-5437Y-414D01*
X-5452Y-416D01*
X-5465Y-421D01*
X-5477Y-429D01*
X-5487Y-440D01*
X-5494Y-453D01*
X-5498Y-468D01*
X-5498Y-482D01*
X-5494Y-497D01*
X-5487Y-510D01*
X-5477Y-521D01*
X-5465Y-529D01*
X-5452Y-534D01*
X-5437Y-536D01*
X-5601Y-506D02*
X-5601Y-690D01*
X-5593Y-429D02*
X-5593Y-414D01*
X-5608Y-414D01*
X-5608Y-429D01*
X-5593Y-429D01*
X-5703Y-414D02*
X-5703Y-644D01*
X-5705Y-656D01*
X-5709Y-667D01*
X-5716Y-677D01*
X-5726Y-684D01*
X-5737Y-688D01*
X-5749Y-690D01*
X-5951Y-690D02*
X-5951Y-414D01*
X-5951Y-690D02*
X-5875Y-690D01*
X-5863Y-688D01*
X-5852Y-684D01*
X-5842Y-677D01*
X-5835Y-667D01*
X-5831Y-656D01*
X-5829Y-644D01*
X-5829Y-552D01*
X-5831Y-540D01*
X-5835Y-529D01*
X-5842Y-519D01*
X-5852Y-512D01*
X-5863Y-508D01*
X-5875Y-506D01*
X-5951Y-506D01*
X-6061Y-506D02*
X-6061Y-644D01*
X-6063Y-656D01*
X-6067Y-667D01*
X-6074Y-677D01*
X-6084Y-684D01*
X-6095Y-688D01*
X-6107Y-690D01*
X-6184Y-690D01*
X-6184Y-506D01*
X-6293Y-506D02*
X-6293Y-690D01*
X-6293Y-506D02*
X-6370Y-506D01*
X-6382Y-508D01*
X-6393Y-512D01*
X-6403Y-519D01*
X-6410Y-529D01*
X-6414Y-540D01*
X-6416Y-552D01*
X-6416Y-690D01*
X-6562Y-690D02*
X-6639Y-690D01*
X-6562Y-690D02*
X-6550Y-688D01*
X-6539Y-684D01*
X-6529Y-677D01*
X-6522Y-667D01*
X-6518Y-656D01*
X-6516Y-644D01*
X-6516Y-552D01*
X-6518Y-540D01*
X-6522Y-529D01*
X-6529Y-519D01*
X-6539Y-512D01*
X-6550Y-508D01*
X-6562Y-506D01*
X-6639Y-506D01*
X-6639Y-736D01*
X-6637Y-748D01*
X-6633Y-759D01*
X-6626Y-769D01*
X-6616Y-776D01*
X-6605Y-780D01*
X-6593Y-782D01*
X-6531Y-782D01*
X-6763Y-583D02*
X-6840Y-614D01*
X-6763Y-583D02*
X-6753Y-577D01*
X-6744Y-568D01*
X-6739Y-556D01*
X-6738Y-544D01*
X-6740Y-532D01*
X-6746Y-521D01*
X-6755Y-513D01*
X-6766Y-508D01*
X-6779Y-506D01*
X-6778Y-506D02*
X-6802Y-508D01*
X-6825Y-513D01*
X-6848Y-521D01*
X-6840Y-613D02*
X-6850Y-619D01*
X-6859Y-628D01*
X-6864Y-640D01*
X-6865Y-652D01*
X-6863Y-664D01*
X-6857Y-675D01*
X-6848Y-683D01*
X-6837Y-688D01*
X-6824Y-690D01*
X-6796Y-688D01*
X-6768Y-683D01*
X-6740Y-675D01*
X-7078Y-690D02*
X-7078Y-414D01*
X-7078Y-690D02*
X-7001Y-690D01*
X-6989Y-688D01*
X-6978Y-684D01*
X-6968Y-677D01*
X-6961Y-667D01*
X-6957Y-656D01*
X-6955Y-644D01*
X-6955Y-552D01*
X-6957Y-540D01*
X-6961Y-529D01*
X-6968Y-519D01*
X-6978Y-512D01*
X-6989Y-508D01*
X-7001Y-506D01*
X-7078Y-506D01*
X-7183Y-506D02*
X-7183Y-690D01*
X-7175Y-429D02*
X-7175Y-414D01*
X-7190Y-414D01*
X-7190Y-429D01*
X-7175Y-429D01*
X-7288Y-506D02*
X-7288Y-690D01*
X-7288Y-506D02*
X-7380Y-506D01*
X-7380Y-537D01*
X-7498Y-690D02*
X-7575Y-690D01*
X-7498Y-690D02*
X-7486Y-688D01*
X-7475Y-684D01*
X-7465Y-677D01*
X-7458Y-667D01*
X-7454Y-656D01*
X-7452Y-644D01*
X-7452Y-568D01*
X-7453Y-568D02*
X-7455Y-553D01*
X-7460Y-540D01*
X-7468Y-528D01*
X-7479Y-518D01*
X-7492Y-511D01*
X-7507Y-507D01*
X-7521Y-507D01*
X-7536Y-511D01*
X-7549Y-518D01*
X-7560Y-528D01*
X-7568Y-540D01*
X-7573Y-553D01*
X-7575Y-568D01*
X-7575Y-598D01*
X-7452Y-598D01*
X-7678Y-690D02*
X-7678Y-414D01*
X-7800Y-506D02*
X-7678Y-598D01*
X-7731Y-560D02*
X-7800Y-690D01*
X-7864Y-506D02*
X-7956Y-506D01*
X-7895Y-414D02*
X-7895Y-644D01*
X-7897Y-656D01*
X-7901Y-667D01*
X-7908Y-677D01*
X-7918Y-684D01*
X-7929Y-688D01*
X-7941Y-690D01*
X-7956Y-690D01*
X-8044Y-690D02*
X-8044Y-506D01*
X-8036Y-429D02*
X-8036Y-414D01*
X-8051Y-414D01*
X-8051Y-429D01*
X-8036Y-429D01*
X-8140Y-568D02*
X-8140Y-629D01*
X-8140Y-568D02*
X-8142Y-553D01*
X-8147Y-540D01*
X-8155Y-528D01*
X-8166Y-518D01*
X-8179Y-511D01*
X-8194Y-507D01*
X-8208Y-507D01*
X-8223Y-511D01*
X-8236Y-518D01*
X-8247Y-528D01*
X-8255Y-540D01*
X-8260Y-553D01*
X-8262Y-568D01*
X-8263Y-568D02*
X-8263Y-629D01*
X-8262Y-629D02*
X-8260Y-644D01*
X-8255Y-657D01*
X-8247Y-669D01*
X-8236Y-679D01*
X-8223Y-686D01*
X-8208Y-690D01*
X-8194Y-690D01*
X-8179Y-686D01*
X-8166Y-679D01*
X-8155Y-669D01*
X-8147Y-657D01*
X-8142Y-644D01*
X-8140Y-629D01*
X-8363Y-690D02*
X-8363Y-506D01*
X-8440Y-506D01*
X-8452Y-508D01*
X-8463Y-512D01*
X-8473Y-519D01*
X-8480Y-529D01*
X-8484Y-540D01*
X-8486Y-552D01*
X-8486Y-690D01*
X-8579Y-721D02*
X-8701Y-383D01*
X-8864Y-414D02*
X-8772Y-690D01*
X-8956Y-690D02*
X-8864Y-414D01*
X-8933Y-621D02*
X-8795Y-621D01*
X-9042Y-690D02*
X-9042Y-506D01*
X-9119Y-506D01*
X-9131Y-508D01*
X-9142Y-512D01*
X-9152Y-519D01*
X-9159Y-529D01*
X-9163Y-540D01*
X-9165Y-552D01*
X-9165Y-690D01*
X-9388Y-690D02*
X-9388Y-414D01*
X-9388Y-690D02*
X-9311Y-690D01*
X-9299Y-688D01*
X-9288Y-684D01*
X-9278Y-677D01*
X-9271Y-667D01*
X-9267Y-656D01*
X-9265Y-644D01*
X-9265Y-552D01*
X-9266Y-552D02*
X-9268Y-540D01*
X-9272Y-529D01*
X-9279Y-519D01*
X-9289Y-512D01*
X-9300Y-508D01*
X-9312Y-506D01*
X-9311Y-506D02*
X-9388Y-506D01*
X-9499Y-506D02*
X-9499Y-690D01*
X-9499Y-506D02*
X-9591Y-506D01*
X-9591Y-537D01*
X-9710Y-690D02*
X-9786Y-690D01*
X-9710Y-690D02*
X-9698Y-688D01*
X-9687Y-684D01*
X-9677Y-677D01*
X-9670Y-667D01*
X-9666Y-656D01*
X-9664Y-644D01*
X-9664Y-568D01*
X-9666Y-553D01*
X-9671Y-540D01*
X-9679Y-528D01*
X-9690Y-518D01*
X-9703Y-511D01*
X-9718Y-507D01*
X-9732Y-507D01*
X-9747Y-511D01*
X-9760Y-518D01*
X-9771Y-528D01*
X-9779Y-540D01*
X-9784Y-553D01*
X-9786Y-568D01*
X-9786Y-598D01*
X-9664Y-598D01*
X-9932Y-583D02*
X-10001Y-583D01*
X-9932Y-583D02*
X-9919Y-585D01*
X-9907Y-589D01*
X-9896Y-597D01*
X-9888Y-606D01*
X-9882Y-618D01*
X-9878Y-630D01*
X-9878Y-644D01*
X-9882Y-656D01*
X-9888Y-668D01*
X-9896Y-677D01*
X-9907Y-685D01*
X-9919Y-689D01*
X-9932Y-691D01*
X-9932Y-690D02*
X-10001Y-690D01*
X-10001Y-552D01*
X-9999Y-540D01*
X-9995Y-529D01*
X-9988Y-519D01*
X-9978Y-512D01*
X-9967Y-508D01*
X-9955Y-506D01*
X-9894Y-506D01*
X-10126Y-583D02*
X-10202Y-614D01*
X-10125Y-583D02*
X-10115Y-577D01*
X-10106Y-568D01*
X-10101Y-556D01*
X-10100Y-544D01*
X-10102Y-532D01*
X-10108Y-521D01*
X-10117Y-513D01*
X-10128Y-508D01*
X-10141Y-506D01*
X-10140Y-506D02*
X-10164Y-508D01*
X-10187Y-513D01*
X-10210Y-521D01*
X-10202Y-613D02*
X-10212Y-619D01*
X-10221Y-628D01*
X-10226Y-640D01*
X-10227Y-652D01*
X-10225Y-664D01*
X-10219Y-675D01*
X-10210Y-683D01*
X-10199Y-688D01*
X-10186Y-690D01*
X-10187Y-690D02*
X-10159Y-688D01*
X-10131Y-683D01*
X-10103Y-675D01*
X-10310Y-721D02*
X-10432Y-383D01*
X-10518Y-491D02*
X-10518Y-614D01*
X-10518Y-491D02*
X-10520Y-475D01*
X-10525Y-460D01*
X-10533Y-446D01*
X-10543Y-434D01*
X-10557Y-424D01*
X-10571Y-418D01*
X-10587Y-414D01*
X-10603Y-414D01*
X-10619Y-418D01*
X-10634Y-424D01*
X-10647Y-434D01*
X-10657Y-446D01*
X-10665Y-460D01*
X-10670Y-475D01*
X-10672Y-491D01*
X-10671Y-491D02*
X-10671Y-614D01*
X-10672Y-614D02*
X-10670Y-630D01*
X-10665Y-645D01*
X-10657Y-659D01*
X-10647Y-671D01*
X-10634Y-681D01*
X-10619Y-687D01*
X-10603Y-691D01*
X-10587Y-691D01*
X-10571Y-687D01*
X-10557Y-681D01*
X-10543Y-671D01*
X-10533Y-659D01*
X-10525Y-645D01*
X-10520Y-630D01*
X-10518Y-614D01*
X-10774Y-690D02*
X-10774Y-414D01*
X-10774Y-690D02*
X-10851Y-690D01*
X-10863Y-688D01*
X-10874Y-684D01*
X-10884Y-677D01*
X-10891Y-667D01*
X-10895Y-656D01*
X-10897Y-644D01*
X-10897Y-552D01*
X-10895Y-540D01*
X-10891Y-529D01*
X-10884Y-519D01*
X-10874Y-512D01*
X-10863Y-508D01*
X-10851Y-506D01*
X-10774Y-506D01*
X-11035Y-690D02*
X-11111Y-690D01*
X-11035Y-690D02*
X-11023Y-688D01*
X-11012Y-684D01*
X-11002Y-677D01*
X-10995Y-667D01*
X-10991Y-656D01*
X-10989Y-644D01*
X-10989Y-568D01*
X-10991Y-553D01*
X-10996Y-540D01*
X-11004Y-528D01*
X-11015Y-518D01*
X-11028Y-511D01*
X-11043Y-507D01*
X-11057Y-507D01*
X-11072Y-511D01*
X-11085Y-518D01*
X-11096Y-528D01*
X-11104Y-540D01*
X-11109Y-553D01*
X-11111Y-568D01*
X-11111Y-598D01*
X-10989Y-598D01*
X-11213Y-690D02*
X-11213Y-506D01*
X-11305Y-506D01*
X-11305Y-537D01*
X-11401Y-583D02*
X-11478Y-614D01*
X-11401Y-583D02*
X-11391Y-577D01*
X-11382Y-568D01*
X-11377Y-556D01*
X-11376Y-544D01*
X-11378Y-532D01*
X-11384Y-521D01*
X-11393Y-513D01*
X-11404Y-508D01*
X-11417Y-506D01*
X-11416Y-506D02*
X-11440Y-508D01*
X-11463Y-513D01*
X-11486Y-521D01*
X-11478Y-613D02*
X-11488Y-619D01*
X-11497Y-628D01*
X-11502Y-640D01*
X-11503Y-652D01*
X-11501Y-664D01*
X-11495Y-675D01*
X-11486Y-683D01*
X-11475Y-688D01*
X-11462Y-690D01*
X-11434Y-688D01*
X-11406Y-683D01*
X-11378Y-675D01*
X-11639Y-690D02*
X-11701Y-690D01*
X-11639Y-690D02*
X-11627Y-688D01*
X-11616Y-684D01*
X-11606Y-677D01*
X-11599Y-667D01*
X-11595Y-656D01*
X-11593Y-644D01*
X-11593Y-552D01*
X-11595Y-540D01*
X-11599Y-529D01*
X-11606Y-519D01*
X-11616Y-512D01*
X-11627Y-508D01*
X-11639Y-506D01*
X-11701Y-506D01*
X-11792Y-414D02*
X-11792Y-690D01*
X-11792Y-506D02*
X-11869Y-506D01*
X-11881Y-508D01*
X-11892Y-512D01*
X-11902Y-519D01*
X-11909Y-529D01*
X-11913Y-540D01*
X-11915Y-552D01*
X-11915Y-690D01*
X-12024Y-644D02*
X-12024Y-506D01*
X-12024Y-644D02*
X-12026Y-656D01*
X-12030Y-667D01*
X-12037Y-677D01*
X-12047Y-684D01*
X-12058Y-688D01*
X-12070Y-690D01*
X-12147Y-690D01*
X-12147Y-506D01*
X-12253Y-414D02*
X-12253Y-644D01*
X-12255Y-656D01*
X-12259Y-667D01*
X-12266Y-677D01*
X-12276Y-684D01*
X-12287Y-688D01*
X-12299Y-690D01*
X-12426Y-690D02*
X-12503Y-690D01*
X-12426Y-690D02*
X-12414Y-688D01*
X-12403Y-684D01*
X-12393Y-677D01*
X-12386Y-667D01*
X-12382Y-656D01*
X-12380Y-644D01*
X-12380Y-568D01*
X-12382Y-553D01*
X-12387Y-540D01*
X-12395Y-528D01*
X-12406Y-518D01*
X-12419Y-511D01*
X-12434Y-507D01*
X-12448Y-507D01*
X-12463Y-511D01*
X-12476Y-518D01*
X-12487Y-528D01*
X-12495Y-540D01*
X-12500Y-553D01*
X-12502Y-568D01*
X-12503Y-568D02*
X-12503Y-598D01*
X-12380Y-598D01*
X-12587Y-721D02*
X-12710Y-383D01*
X-12795Y-690D02*
X-12887Y-690D01*
X-12901Y-688D01*
X-12913Y-684D01*
X-12925Y-677D01*
X-12935Y-667D01*
X-12942Y-655D01*
X-12946Y-643D01*
X-12948Y-629D01*
X-12949Y-629D02*
X-12949Y-598D01*
X-12948Y-598D02*
X-12946Y-584D01*
X-12942Y-572D01*
X-12935Y-560D01*
X-12925Y-550D01*
X-12913Y-543D01*
X-12901Y-539D01*
X-12887Y-537D01*
X-12795Y-537D01*
X-12795Y-414D01*
X-12949Y-414D01*
X-13038Y-675D02*
X-13038Y-690D01*
X-13038Y-675D02*
X-13054Y-675D01*
X-13054Y-690D01*
X-13038Y-690D01*
X-13276Y-614D02*
X-13276Y-491D01*
X-13275Y-491D02*
X-13277Y-475D01*
X-13282Y-460D01*
X-13290Y-446D01*
X-13300Y-434D01*
X-13314Y-424D01*
X-13328Y-418D01*
X-13344Y-414D01*
X-13360Y-414D01*
X-13376Y-418D01*
X-13391Y-424D01*
X-13404Y-434D01*
X-13414Y-446D01*
X-13422Y-460D01*
X-13427Y-475D01*
X-13429Y-491D01*
X-13429Y-614D01*
X-13427Y-630D01*
X-13422Y-645D01*
X-13414Y-659D01*
X-13404Y-671D01*
X-13391Y-681D01*
X-13376Y-687D01*
X-13360Y-691D01*
X-13344Y-691D01*
X-13328Y-687D01*
X-13314Y-681D01*
X-13300Y-671D01*
X-13290Y-659D01*
X-13282Y-645D01*
X-13277Y-630D01*
X-13275Y-614D01*
X-13532Y-690D02*
X-13532Y-414D01*
X-13532Y-690D02*
X-13608Y-690D01*
X-13620Y-688D01*
X-13631Y-684D01*
X-13641Y-677D01*
X-13648Y-667D01*
X-13652Y-656D01*
X-13654Y-644D01*
X-13654Y-552D01*
X-13652Y-540D01*
X-13648Y-529D01*
X-13641Y-519D01*
X-13631Y-512D01*
X-13620Y-508D01*
X-13608Y-506D01*
X-13532Y-506D01*
X-13792Y-690D02*
X-13869Y-690D01*
X-13792Y-690D02*
X-13780Y-688D01*
X-13769Y-684D01*
X-13759Y-677D01*
X-13752Y-667D01*
X-13748Y-656D01*
X-13746Y-644D01*
X-13746Y-568D01*
X-13747Y-568D02*
X-13749Y-553D01*
X-13754Y-540D01*
X-13762Y-528D01*
X-13773Y-518D01*
X-13786Y-511D01*
X-13801Y-507D01*
X-13815Y-507D01*
X-13830Y-511D01*
X-13843Y-518D01*
X-13854Y-528D01*
X-13862Y-540D01*
X-13867Y-553D01*
X-13869Y-568D01*
X-13869Y-598D01*
X-13746Y-598D01*
X-13971Y-690D02*
X-13971Y-506D01*
X-14063Y-506D01*
X-14063Y-537D01*
X-14159Y-583D02*
X-14235Y-614D01*
X-14158Y-583D02*
X-14148Y-577D01*
X-14139Y-568D01*
X-14134Y-556D01*
X-14133Y-544D01*
X-14135Y-532D01*
X-14141Y-521D01*
X-14150Y-513D01*
X-14161Y-508D01*
X-14174Y-506D01*
X-14198Y-508D01*
X-14221Y-513D01*
X-14244Y-521D01*
X-14236Y-613D02*
X-14246Y-619D01*
X-14255Y-628D01*
X-14260Y-640D01*
X-14261Y-652D01*
X-14259Y-664D01*
X-14253Y-675D01*
X-14244Y-683D01*
X-14233Y-688D01*
X-14220Y-690D01*
X-14192Y-688D01*
X-14164Y-683D01*
X-14136Y-675D01*
X-14397Y-690D02*
X-14458Y-690D01*
X-14397Y-690D02*
X-14385Y-688D01*
X-14374Y-684D01*
X-14364Y-677D01*
X-14357Y-667D01*
X-14353Y-656D01*
X-14351Y-644D01*
X-14351Y-552D01*
X-14353Y-540D01*
X-14357Y-529D01*
X-14364Y-519D01*
X-14374Y-512D01*
X-14385Y-508D01*
X-14397Y-506D01*
X-14458Y-506D01*
X-14550Y-414D02*
X-14550Y-690D01*
X-14550Y-506D02*
X-14626Y-506D01*
X-14638Y-508D01*
X-14649Y-512D01*
X-14659Y-519D01*
X-14666Y-529D01*
X-14670Y-540D01*
X-14672Y-552D01*
X-14672Y-690D01*
X-14782Y-644D02*
X-14782Y-506D01*
X-14782Y-644D02*
X-14784Y-656D01*
X-14788Y-667D01*
X-14795Y-677D01*
X-14805Y-684D01*
X-14816Y-688D01*
X-14828Y-690D01*
X-14904Y-690D01*
X-14904Y-506D01*
X-15011Y-414D02*
X-15011Y-644D01*
X-15013Y-656D01*
X-15017Y-667D01*
X-15024Y-677D01*
X-15034Y-684D01*
X-15045Y-688D01*
X-15057Y-690D01*
X-15184Y-690D02*
X-15260Y-690D01*
X-15184Y-690D02*
X-15172Y-688D01*
X-15161Y-684D01*
X-15151Y-677D01*
X-15144Y-667D01*
X-15140Y-656D01*
X-15138Y-644D01*
X-15138Y-568D01*
X-15140Y-553D01*
X-15145Y-540D01*
X-15153Y-528D01*
X-15164Y-518D01*
X-15177Y-511D01*
X-15192Y-507D01*
X-15206Y-507D01*
X-15221Y-511D01*
X-15234Y-518D01*
X-15245Y-528D01*
X-15253Y-540D01*
X-15258Y-553D01*
X-15260Y-568D01*
X-15260Y-598D01*
X-15138Y-598D01*
X-15571Y-414D02*
X-15586Y-416D01*
X-15601Y-421D01*
X-15614Y-429D01*
X-15625Y-440D01*
X-15633Y-453D01*
X-15638Y-468D01*
X-15640Y-483D01*
X-15571Y-414D02*
X-15555Y-415D01*
X-15540Y-420D01*
X-15525Y-427D01*
X-15512Y-436D01*
X-15501Y-448D01*
X-15493Y-461D01*
X-15486Y-476D01*
X-15617Y-537D02*
X-15627Y-525D01*
X-15634Y-512D01*
X-15638Y-498D01*
X-15640Y-483D01*
X-15617Y-537D02*
X-15487Y-690D01*
X-15640Y-690D01*
X-15735Y-552D02*
X-15736Y-526D01*
X-15741Y-501D01*
X-15748Y-476D01*
X-15758Y-452D01*
X-15758Y-453D02*
X-15764Y-440D01*
X-15773Y-429D01*
X-15785Y-421D01*
X-15798Y-416D01*
X-15812Y-414D01*
X-15826Y-416D01*
X-15839Y-421D01*
X-15851Y-429D01*
X-15860Y-440D01*
X-15866Y-453D01*
X-15866Y-452D02*
X-15876Y-476D01*
X-15883Y-501D01*
X-15888Y-526D01*
X-15889Y-552D01*
X-15735Y-552D02*
X-15736Y-578D01*
X-15741Y-603D01*
X-15748Y-628D01*
X-15758Y-652D01*
X-15764Y-664D01*
X-15773Y-675D01*
X-15785Y-683D01*
X-15798Y-688D01*
X-15812Y-690D01*
X-15866Y-652D02*
X-15876Y-628D01*
X-15883Y-603D01*
X-15888Y-578D01*
X-15889Y-552D01*
X-15866Y-652D02*
X-15860Y-664D01*
X-15851Y-675D01*
X-15839Y-683D01*
X-15826Y-688D01*
X-15812Y-690D01*
X-15750Y-629D02*
X-15873Y-476D01*
X-16068Y-414D02*
X-16083Y-416D01*
X-16098Y-421D01*
X-16111Y-429D01*
X-16122Y-440D01*
X-16130Y-453D01*
X-16135Y-468D01*
X-16137Y-483D01*
X-16068Y-414D02*
X-16052Y-415D01*
X-16037Y-420D01*
X-16022Y-427D01*
X-16009Y-436D01*
X-15998Y-448D01*
X-15990Y-461D01*
X-15983Y-476D01*
X-16114Y-537D02*
X-16124Y-525D01*
X-16131Y-512D01*
X-16135Y-498D01*
X-16137Y-483D01*
X-16114Y-537D02*
X-15984Y-690D01*
X-16137Y-690D01*
X-16232Y-476D02*
X-16309Y-414D01*
X-16309Y-690D01*
X-16385Y-690D02*
X-16232Y-690D01*
X-16565Y-414D02*
X-16580Y-416D01*
X-16595Y-421D01*
X-16608Y-429D01*
X-16619Y-440D01*
X-16627Y-453D01*
X-16632Y-468D01*
X-16634Y-483D01*
X-16565Y-414D02*
X-16549Y-415D01*
X-16534Y-420D01*
X-16519Y-427D01*
X-16506Y-436D01*
X-16495Y-448D01*
X-16487Y-461D01*
X-16480Y-476D01*
X-16611Y-537D02*
X-16621Y-525D01*
X-16628Y-512D01*
X-16632Y-498D01*
X-16634Y-483D01*
X-16611Y-537D02*
X-16480Y-690D01*
X-16634Y-690D01*
X-16882Y-483D02*
X-16880Y-468D01*
X-16875Y-453D01*
X-16867Y-440D01*
X-16856Y-429D01*
X-16843Y-421D01*
X-16828Y-416D01*
X-16813Y-414D01*
X-16797Y-415D01*
X-16782Y-420D01*
X-16767Y-427D01*
X-16754Y-436D01*
X-16743Y-448D01*
X-16735Y-461D01*
X-16728Y-476D01*
X-16859Y-537D02*
X-16869Y-525D01*
X-16876Y-512D01*
X-16880Y-498D01*
X-16882Y-483D01*
X-16859Y-537D02*
X-16729Y-690D01*
X-16882Y-690D01*
X-16968Y-721D02*
X-17091Y-383D01*
X-17186Y-414D02*
X-17186Y-690D01*
X-17278Y-568D02*
X-17186Y-414D01*
X-17278Y-568D02*
X-17370Y-414D01*
X-17370Y-690D01*
X-17526Y-583D02*
X-17595Y-583D01*
X-17526Y-583D02*
X-17513Y-585D01*
X-17501Y-589D01*
X-17490Y-597D01*
X-17482Y-606D01*
X-17476Y-618D01*
X-17472Y-630D01*
X-17472Y-644D01*
X-17476Y-656D01*
X-17482Y-668D01*
X-17490Y-677D01*
X-17501Y-685D01*
X-17513Y-689D01*
X-17526Y-691D01*
X-17526Y-690D02*
X-17595Y-690D01*
X-17595Y-552D01*
X-17593Y-540D01*
X-17589Y-529D01*
X-17582Y-519D01*
X-17572Y-512D01*
X-17561Y-508D01*
X-17549Y-506D01*
X-17488Y-506D01*
X-17678Y-506D02*
X-17770Y-506D01*
X-17708Y-414D02*
X-17708Y-644D01*
X-17710Y-656D01*
X-17714Y-667D01*
X-17721Y-677D01*
X-17731Y-684D01*
X-17742Y-688D01*
X-17754Y-690D01*
X-17755Y-690D02*
X-17770Y-690D01*
X-17862Y-644D02*
X-17862Y-506D01*
X-17862Y-644D02*
X-17864Y-656D01*
X-17868Y-667D01*
X-17875Y-677D01*
X-17885Y-684D01*
X-17896Y-688D01*
X-17908Y-690D01*
X-17985Y-690D01*
X-17985Y-506D01*
X-18095Y-506D02*
X-18095Y-690D01*
X-18095Y-506D02*
X-18187Y-506D01*
X-18187Y-537D01*
X-18313Y-583D02*
X-18382Y-583D01*
X-18313Y-583D02*
X-18300Y-585D01*
X-18288Y-589D01*
X-18277Y-597D01*
X-18269Y-606D01*
X-18263Y-618D01*
X-18259Y-630D01*
X-18259Y-644D01*
X-18263Y-656D01*
X-18269Y-668D01*
X-18277Y-677D01*
X-18288Y-685D01*
X-18300Y-689D01*
X-18313Y-691D01*
X-18313Y-690D02*
X-18382Y-690D01*
X-18382Y-552D01*
X-18380Y-540D01*
X-18376Y-529D01*
X-18369Y-519D01*
X-18359Y-512D01*
X-18348Y-508D01*
X-18336Y-506D01*
X-18274Y-506D01*
X-18492Y-506D02*
X-18492Y-782D01*
X-18492Y-506D02*
X-18569Y-506D01*
X-18581Y-508D01*
X-18592Y-512D01*
X-18602Y-519D01*
X-18609Y-529D01*
X-18613Y-540D01*
X-18615Y-552D01*
X-18615Y-644D01*
X-18613Y-656D01*
X-18609Y-667D01*
X-18602Y-677D01*
X-18592Y-684D01*
X-18581Y-688D01*
X-18569Y-690D01*
X-18492Y-690D01*
X-18716Y-690D02*
X-18716Y-506D01*
X-18808Y-506D01*
X-18808Y-537D01*
X-18882Y-506D02*
X-18882Y-736D01*
X-18880Y-748D01*
X-18876Y-759D01*
X-18869Y-769D01*
X-18859Y-776D01*
X-18848Y-780D01*
X-18836Y-782D01*
X-18821Y-782D01*
X-18874Y-429D02*
X-18874Y-414D01*
X-18890Y-414D01*
X-18890Y-429D01*
X-18874Y-429D01*
X-18980Y-568D02*
X-18980Y-629D01*
X-18981Y-568D02*
X-18983Y-553D01*
X-18988Y-540D01*
X-18996Y-528D01*
X-19007Y-518D01*
X-19020Y-511D01*
X-19035Y-507D01*
X-19049Y-507D01*
X-19064Y-511D01*
X-19077Y-518D01*
X-19088Y-528D01*
X-19096Y-540D01*
X-19101Y-553D01*
X-19103Y-568D01*
X-19103Y-629D01*
X-19101Y-644D01*
X-19096Y-657D01*
X-19088Y-669D01*
X-19077Y-679D01*
X-19064Y-686D01*
X-19049Y-690D01*
X-19035Y-690D01*
X-19020Y-686D01*
X-19007Y-679D01*
X-18996Y-669D01*
X-18988Y-657D01*
X-18983Y-644D01*
X-18981Y-629D01*
X-19242Y-690D02*
X-19303Y-690D01*
X-19242Y-690D02*
X-19230Y-688D01*
X-19219Y-684D01*
X-19209Y-677D01*
X-19202Y-667D01*
X-19198Y-656D01*
X-19196Y-644D01*
X-19196Y-552D01*
X-19198Y-540D01*
X-19202Y-529D01*
X-19209Y-519D01*
X-19219Y-512D01*
X-19230Y-508D01*
X-19242Y-506D01*
X-19303Y-506D01*
X-19367Y-506D02*
X-19459Y-506D01*
X-19398Y-414D02*
X-19398Y-644D01*
X-19400Y-656D01*
X-19404Y-667D01*
X-19411Y-677D01*
X-19421Y-684D01*
X-19432Y-688D01*
X-19444Y-690D01*
X-19459Y-690D01*
X-19535Y-721D02*
X-19658Y-383D01*
X-19864Y-414D02*
X-19864Y-690D01*
X-19787Y-690D01*
X-19775Y-688D01*
X-19764Y-684D01*
X-19754Y-677D01*
X-19747Y-667D01*
X-19743Y-656D01*
X-19741Y-644D01*
X-19741Y-552D01*
X-19742Y-552D02*
X-19744Y-540D01*
X-19748Y-529D01*
X-19755Y-519D01*
X-19765Y-512D01*
X-19776Y-508D01*
X-19788Y-506D01*
X-19787Y-506D02*
X-19864Y-506D01*
X-19975Y-506D02*
X-19975Y-690D01*
X-19975Y-506D02*
X-20067Y-506D01*
X-20067Y-537D01*
X-20193Y-583D02*
X-20262Y-583D01*
X-20193Y-583D02*
X-20180Y-585D01*
X-20168Y-589D01*
X-20157Y-597D01*
X-20149Y-606D01*
X-20143Y-618D01*
X-20139Y-630D01*
X-20139Y-644D01*
X-20143Y-656D01*
X-20149Y-668D01*
X-20157Y-677D01*
X-20168Y-685D01*
X-20180Y-689D01*
X-20193Y-691D01*
X-20193Y-690D02*
X-20262Y-690D01*
X-20262Y-552D01*
X-20260Y-540D01*
X-20256Y-529D01*
X-20249Y-519D01*
X-20239Y-512D01*
X-20228Y-508D01*
X-20216Y-506D01*
X-20154Y-506D01*
X-20357Y-506D02*
X-20403Y-690D01*
X-20449Y-568D01*
X-20495Y-690D01*
X-20541Y-506D01*
X-20632Y-506D02*
X-20632Y-690D01*
X-20624Y-429D02*
X-20624Y-414D01*
X-20639Y-414D01*
X-20639Y-429D01*
X-20624Y-429D01*
X-20736Y-506D02*
X-20736Y-690D01*
X-20736Y-506D02*
X-20813Y-506D01*
X-20825Y-508D01*
X-20836Y-512D01*
X-20846Y-519D01*
X-20853Y-529D01*
X-20857Y-540D01*
X-20859Y-552D01*
X-20859Y-690D01*
X-21005Y-690D02*
X-21082Y-690D01*
X-21005Y-690D02*
X-20993Y-688D01*
X-20982Y-684D01*
X-20972Y-677D01*
X-20965Y-667D01*
X-20961Y-656D01*
X-20959Y-644D01*
X-20959Y-552D01*
X-20961Y-540D01*
X-20965Y-529D01*
X-20972Y-519D01*
X-20982Y-512D01*
X-20993Y-508D01*
X-21005Y-506D01*
X-21082Y-506D01*
X-21082Y-736D01*
X-21080Y-748D01*
X-21076Y-759D01*
X-21069Y-769D01*
X-21059Y-776D01*
X-21048Y-780D01*
X-21036Y-782D01*
X-20974Y-782D01*
X-21175Y-721D02*
X-21298Y-383D01*
X-21392Y-414D02*
X-21392Y-690D01*
X-21514Y-690D01*
X-21597Y-629D02*
X-21597Y-568D01*
X-21598Y-568D02*
X-21600Y-553D01*
X-21605Y-540D01*
X-21613Y-528D01*
X-21624Y-518D01*
X-21637Y-511D01*
X-21652Y-507D01*
X-21666Y-507D01*
X-21681Y-511D01*
X-21694Y-518D01*
X-21705Y-528D01*
X-21713Y-540D01*
X-21718Y-553D01*
X-21720Y-568D01*
X-21720Y-629D01*
X-21718Y-644D01*
X-21713Y-657D01*
X-21705Y-669D01*
X-21694Y-679D01*
X-21681Y-686D01*
X-21666Y-690D01*
X-21652Y-690D01*
X-21637Y-686D01*
X-21624Y-679D01*
X-21613Y-669D01*
X-21605Y-657D01*
X-21600Y-644D01*
X-21598Y-629D01*
X-21858Y-690D02*
X-21935Y-690D01*
X-21858Y-690D02*
X-21846Y-688D01*
X-21835Y-684D01*
X-21825Y-677D01*
X-21818Y-667D01*
X-21814Y-656D01*
X-21812Y-644D01*
X-21812Y-552D01*
X-21814Y-540D01*
X-21818Y-529D01*
X-21825Y-519D01*
X-21835Y-512D01*
X-21846Y-508D01*
X-21858Y-506D01*
X-21935Y-506D01*
X-21935Y-736D01*
X-21933Y-748D01*
X-21929Y-759D01*
X-21922Y-769D01*
X-21912Y-776D01*
X-21901Y-780D01*
X-21889Y-782D01*
X-21827Y-782D01*
X-22036Y-629D02*
X-22036Y-568D01*
X-22037Y-568D02*
X-22039Y-553D01*
X-22044Y-540D01*
X-22052Y-528D01*
X-22063Y-518D01*
X-22076Y-511D01*
X-22091Y-507D01*
X-22105Y-507D01*
X-22120Y-511D01*
X-22133Y-518D01*
X-22144Y-528D01*
X-22152Y-540D01*
X-22157Y-553D01*
X-22159Y-568D01*
X-22159Y-629D01*
X-22157Y-644D01*
X-22152Y-657D01*
X-22144Y-669D01*
X-22133Y-679D01*
X-22120Y-686D01*
X-22105Y-690D01*
X-22091Y-690D01*
X-22076Y-686D01*
X-22063Y-679D01*
X-22052Y-669D01*
X-22044Y-657D01*
X-22039Y-644D01*
X-22037Y-629D01*
X-22243Y-721D02*
X-22366Y-383D01*
X-22460Y-414D02*
X-22460Y-690D01*
X-22460Y-414D02*
X-22583Y-414D01*
X-22583Y-537D02*
X-22460Y-537D01*
X-22751Y-690D02*
X-22765Y-688D01*
X-22777Y-684D01*
X-22789Y-677D01*
X-22799Y-667D01*
X-22806Y-655D01*
X-22810Y-643D01*
X-22812Y-629D01*
X-22751Y-691D02*
X-22731Y-689D01*
X-22711Y-685D01*
X-22692Y-677D01*
X-22674Y-666D01*
X-22659Y-653D01*
X-22667Y-476D02*
X-22669Y-462D01*
X-22673Y-450D01*
X-22680Y-438D01*
X-22690Y-428D01*
X-22702Y-421D01*
X-22714Y-417D01*
X-22728Y-415D01*
X-22728Y-414D02*
X-22746Y-415D01*
X-22764Y-420D01*
X-22781Y-427D01*
X-22797Y-437D01*
X-22697Y-529D02*
X-22686Y-522D01*
X-22678Y-512D01*
X-22671Y-501D01*
X-22667Y-489D01*
X-22666Y-476D01*
X-22781Y-576D02*
X-22792Y-583D01*
X-22800Y-593D01*
X-22807Y-604D01*
X-22811Y-616D01*
X-22812Y-629D01*
X-22781Y-575D02*
X-22697Y-529D01*
X-22982Y-690D02*
X-22996Y-688D01*
X-23008Y-684D01*
X-23020Y-677D01*
X-23030Y-667D01*
X-23037Y-655D01*
X-23041Y-643D01*
X-23043Y-629D01*
X-22982Y-691D02*
X-22962Y-689D01*
X-22942Y-685D01*
X-22923Y-677D01*
X-22905Y-666D01*
X-22890Y-653D01*
X-22898Y-476D02*
X-22900Y-462D01*
X-22904Y-450D01*
X-22911Y-438D01*
X-22921Y-428D01*
X-22933Y-421D01*
X-22945Y-417D01*
X-22959Y-415D01*
X-22959Y-414D02*
X-22977Y-415D01*
X-22995Y-420D01*
X-23012Y-427D01*
X-23028Y-437D01*
X-22929Y-529D02*
X-22918Y-522D01*
X-22910Y-512D01*
X-22903Y-501D01*
X-22899Y-489D01*
X-22898Y-476D01*
X-23012Y-576D02*
X-23023Y-583D01*
X-23031Y-593D01*
X-23038Y-604D01*
X-23042Y-616D01*
X-23043Y-629D01*
X-23013Y-575D02*
X-22929Y-529D01*
X-23139Y-414D02*
X-23139Y-690D01*
X-23262Y-690D01*
X-23346Y-614D02*
X-23346Y-491D01*
X-23348Y-475D01*
X-23353Y-460D01*
X-23361Y-446D01*
X-23371Y-434D01*
X-23385Y-424D01*
X-23399Y-418D01*
X-23415Y-414D01*
X-23431Y-414D01*
X-23447Y-418D01*
X-23462Y-424D01*
X-23475Y-434D01*
X-23485Y-446D01*
X-23493Y-460D01*
X-23498Y-475D01*
X-23500Y-491D01*
X-23499Y-491D02*
X-23499Y-614D01*
X-23500Y-614D02*
X-23498Y-630D01*
X-23493Y-645D01*
X-23485Y-659D01*
X-23475Y-671D01*
X-23462Y-681D01*
X-23447Y-687D01*
X-23431Y-691D01*
X-23415Y-691D01*
X-23399Y-687D01*
X-23385Y-681D01*
X-23371Y-671D01*
X-23361Y-659D01*
X-23353Y-645D01*
X-23348Y-630D01*
X-23346Y-614D01*
X-23710Y-537D02*
X-23756Y-537D01*
X-23756Y-690D01*
X-23664Y-690D01*
X-23650Y-688D01*
X-23638Y-684D01*
X-23626Y-677D01*
X-23616Y-667D01*
X-23609Y-655D01*
X-23605Y-643D01*
X-23603Y-629D01*
X-23603Y-476D01*
X-23605Y-462D01*
X-23609Y-450D01*
X-23616Y-438D01*
X-23626Y-428D01*
X-23638Y-421D01*
X-23650Y-417D01*
X-23664Y-415D01*
X-23664Y-414D02*
X-23756Y-414D01*
X-23859Y-491D02*
X-23859Y-614D01*
X-23859Y-491D02*
X-23861Y-475D01*
X-23866Y-460D01*
X-23874Y-446D01*
X-23884Y-434D01*
X-23898Y-424D01*
X-23912Y-418D01*
X-23928Y-414D01*
X-23944Y-414D01*
X-23960Y-418D01*
X-23975Y-424D01*
X-23988Y-434D01*
X-23998Y-446D01*
X-24006Y-460D01*
X-24011Y-475D01*
X-24013Y-491D01*
X-24013Y-614D01*
X-24011Y-630D01*
X-24006Y-645D01*
X-23998Y-659D01*
X-23988Y-671D01*
X-23975Y-681D01*
X-23960Y-687D01*
X-23944Y-691D01*
X-23928Y-691D01*
X-23912Y-687D01*
X-23898Y-681D01*
X-23884Y-671D01*
X-23874Y-659D01*
X-23866Y-645D01*
X-23861Y-630D01*
X-23859Y-614D01*
X-24169Y-690D02*
X-24230Y-690D01*
X-24169Y-690D02*
X-24155Y-688D01*
X-24143Y-684D01*
X-24131Y-677D01*
X-24121Y-667D01*
X-24114Y-655D01*
X-24110Y-643D01*
X-24108Y-629D01*
X-24107Y-629D02*
X-24107Y-476D01*
X-24108Y-476D02*
X-24110Y-462D01*
X-24114Y-450D01*
X-24121Y-438D01*
X-24131Y-428D01*
X-24143Y-421D01*
X-24155Y-417D01*
X-24169Y-415D01*
X-24169Y-414D02*
X-24230Y-414D01*
X-24322Y-506D02*
X-24322Y-644D01*
X-24324Y-656D01*
X-24328Y-667D01*
X-24335Y-677D01*
X-24345Y-684D01*
X-24356Y-688D01*
X-24368Y-690D01*
X-24445Y-690D01*
X-24445Y-506D01*
X-24527Y-506D02*
X-24619Y-506D01*
X-24557Y-414D02*
X-24557Y-644D01*
X-24559Y-656D01*
X-24563Y-667D01*
X-24570Y-677D01*
X-24580Y-684D01*
X-24591Y-688D01*
X-24603Y-690D01*
X-24619Y-690D01*
X-24694Y-721D02*
X-24817Y-721D01*
X-24913Y-537D02*
X-24990Y-537D01*
X-25006Y-539D01*
X-25021Y-544D01*
X-25035Y-552D01*
X-25047Y-562D01*
X-25057Y-576D01*
X-25063Y-590D01*
X-25067Y-606D01*
X-25067Y-622D01*
X-25063Y-638D01*
X-25057Y-652D01*
X-25047Y-666D01*
X-25035Y-676D01*
X-25021Y-684D01*
X-25006Y-689D01*
X-24990Y-691D01*
X-24990Y-690D02*
X-24913Y-690D01*
X-24913Y-414D01*
X-24990Y-414D01*
X-25005Y-416D01*
X-25018Y-421D01*
X-25030Y-429D01*
X-25040Y-440D01*
X-25047Y-453D01*
X-25051Y-468D01*
X-25051Y-482D01*
X-25047Y-497D01*
X-25040Y-510D01*
X-25030Y-521D01*
X-25018Y-529D01*
X-25005Y-534D01*
X-24990Y-536D01*
X-25138Y-414D02*
X-25200Y-690D01*
X-25261Y-506D01*
X-25322Y-690D01*
X-25384Y-414D01*
X-25460Y-675D02*
X-25460Y-690D01*
X-25460Y-675D02*
X-25476Y-675D01*
X-25476Y-690D01*
X-25460Y-690D01*
X-25573Y-690D02*
X-25573Y-414D01*
X-25573Y-690D02*
X-25650Y-690D01*
X-25662Y-688D01*
X-25673Y-684D01*
X-25683Y-677D01*
X-25690Y-667D01*
X-25694Y-656D01*
X-25696Y-644D01*
X-25696Y-552D01*
X-25694Y-540D01*
X-25690Y-529D01*
X-25683Y-519D01*
X-25673Y-512D01*
X-25662Y-508D01*
X-25650Y-506D01*
X-25573Y-506D01*
X-25798Y-506D02*
X-25798Y-690D01*
X-25798Y-506D02*
X-25936Y-506D01*
X-25948Y-508D01*
X-25959Y-512D01*
X-25969Y-519D01*
X-25976Y-529D01*
X-25980Y-540D01*
X-25982Y-552D01*
X-25982Y-690D01*
X-25890Y-690D02*
X-25890Y-506D01*
X-26095Y-506D02*
X-26095Y-782D01*
X-26095Y-506D02*
X-26171Y-506D01*
X-26183Y-508D01*
X-26194Y-512D01*
X-26204Y-519D01*
X-26211Y-529D01*
X-26215Y-540D01*
X-26217Y-552D01*
X-26217Y-644D01*
X-26215Y-656D01*
X-26211Y-667D01*
X-26204Y-677D01*
X-26194Y-684D01*
X-26183Y-688D01*
X-26171Y-690D01*
X-26095Y-690D01*
M02*
