G04 EAGLE Gerber RS-274X export*
G75*
%MOMM*%
%FSLAX34Y34*%
%LPD*%
%INSMD-Paste Oberseite*%
%IPPOS*%
%AMOC8*
5,1,8,0,0,1.08239X$1,22.5*%
G01*
%ADD10C,0.000000*%
%ADD11R,1.500000X1.300000*%
%ADD12R,1.300000X1.500000*%
%ADD13R,0.300000X1.475000*%
%ADD14R,1.475000X0.300000*%
%ADD15R,0.600000X2.200000*%
%ADD16R,1.930400X5.334000*%
%ADD17R,4.826000X4.191000*%
%ADD18R,1.600200X2.997200*%
%ADD19R,1.117600X1.422400*%
%ADD20R,1.422400X1.117600*%
%ADD21R,2.540000X2.540000*%
%ADD22R,1.200000X1.200000*%
%ADD23R,1.400000X1.800000*%
%ADD24R,1.800000X1.400000*%


D10*
X0Y0D02*
X574550Y0D01*
X574550Y647600D01*
X0Y647600D01*
X0Y0D01*
D11*
X368300Y269850D03*
X368300Y250850D03*
D12*
X498500Y127000D03*
X517500Y127000D03*
D11*
X425450Y339750D03*
X425450Y358750D03*
X425450Y269850D03*
X425450Y250850D03*
X387350Y308000D03*
X387350Y327000D03*
D13*
X241900Y247420D03*
X246900Y247420D03*
X251900Y247420D03*
X256900Y247420D03*
X261900Y247420D03*
X266900Y247420D03*
X271900Y247420D03*
X276900Y247420D03*
X281900Y247420D03*
X286900Y247420D03*
X291900Y247420D03*
X296900Y247420D03*
X301900Y247420D03*
X306900Y247420D03*
X311900Y247420D03*
X316900Y247420D03*
D14*
X336780Y267300D03*
X336780Y272300D03*
X336780Y277300D03*
X336780Y282300D03*
X336780Y287300D03*
X336780Y292300D03*
X336780Y297300D03*
X336780Y302300D03*
X336780Y307300D03*
X336780Y312300D03*
X336780Y317300D03*
X336780Y322300D03*
X336780Y327300D03*
X336780Y332300D03*
X336780Y337300D03*
X336780Y342300D03*
D13*
X316900Y362180D03*
X311900Y362180D03*
X306900Y362180D03*
X301900Y362180D03*
X296900Y362180D03*
X291900Y362180D03*
X286900Y362180D03*
X281900Y362180D03*
X276900Y362180D03*
X271900Y362180D03*
X266900Y362180D03*
X261900Y362180D03*
X256900Y362180D03*
X251900Y362180D03*
X246900Y362180D03*
X241900Y362180D03*
D14*
X222020Y342300D03*
X222020Y337300D03*
X222020Y332300D03*
X222020Y327300D03*
X222020Y322300D03*
X222020Y317300D03*
X222020Y312300D03*
X222020Y307300D03*
X222020Y302300D03*
X222020Y297300D03*
X222020Y292300D03*
X222020Y287300D03*
X222020Y282300D03*
X222020Y277300D03*
X222020Y272300D03*
X222020Y267300D03*
D15*
X234950Y133950D03*
X234950Y81950D03*
X247650Y133950D03*
X222250Y133950D03*
X209550Y133950D03*
X247650Y81950D03*
X222250Y81950D03*
X209550Y81950D03*
X184150Y133950D03*
X184150Y81950D03*
X196850Y133950D03*
X171450Y133950D03*
X196850Y81950D03*
X171450Y81950D03*
D16*
X463550Y256540D03*
X463550Y353060D03*
D11*
X425450Y295300D03*
X425450Y314300D03*
D12*
X517500Y101600D03*
X498500Y101600D03*
X492100Y171450D03*
X473100Y171450D03*
D11*
X196850Y219100D03*
X196850Y238100D03*
D12*
X282550Y387350D03*
X263550Y387350D03*
X142850Y139700D03*
X123850Y139700D03*
X130150Y450850D03*
X111150Y450850D03*
X123800Y184150D03*
X104800Y184150D03*
X123800Y209550D03*
X104800Y209550D03*
D11*
X215900Y187300D03*
X215900Y168300D03*
X273050Y117450D03*
X273050Y98450D03*
X127000Y111100D03*
X127000Y92100D03*
X152400Y66700D03*
X152400Y85700D03*
X127000Y66650D03*
X127000Y47650D03*
D17*
X273050Y518922D03*
D18*
X250952Y601726D03*
X295656Y601726D03*
D19*
X219075Y609600D03*
X200025Y609600D03*
D20*
X317500Y549275D03*
X317500Y568325D03*
D21*
X209550Y584200D03*
X209550Y533400D03*
D17*
X381000Y125222D03*
D18*
X358902Y208026D03*
X403606Y208026D03*
D20*
X425450Y161925D03*
X425450Y180975D03*
D12*
X111150Y425450D03*
X130150Y425450D03*
D11*
X304800Y206350D03*
X304800Y187350D03*
X279400Y206350D03*
X279400Y187350D03*
D22*
X304800Y148250D03*
X304800Y169250D03*
X279400Y148250D03*
X279400Y169250D03*
D12*
X231750Y431800D03*
X212750Y431800D03*
D23*
X239250Y406400D03*
X205250Y406400D03*
D11*
X101600Y79350D03*
X101600Y60350D03*
D24*
X457200Y93200D03*
X457200Y59200D03*
D11*
X457200Y136500D03*
X457200Y117500D03*
M02*
