G04 EAGLE Gerber RS-274X export*
G75*
%MOMM*%
%FSLAX34Y34*%
%LPD*%
%INSilkscreen Top*%
%IPPOS*%
%AMOC8*
5,1,8,0,0,1.08239X$1,22.5*%
G01*
%ADD10C,0.304800*%
%ADD11C,0.076200*%
%ADD12C,0.200000*%
%ADD13C,0.100000*%
%ADD14C,0.100000*%
%ADD15R,0.300000X0.150000*%
%ADD16R,0.300000X0.300000*%
%ADD17C,0.127000*%
%ADD18C,0.152400*%


D10*
X-19050Y0D02*
X396750Y0D01*
X396750Y577750D01*
X-19050Y577750D01*
X-19050Y0D01*
D11*
X-7394Y216422D02*
X-5828Y216422D01*
X-5828Y211201D01*
X-8961Y211201D01*
X-9050Y211203D01*
X-9138Y211209D01*
X-9226Y211218D01*
X-9314Y211231D01*
X-9401Y211248D01*
X-9487Y211268D01*
X-9572Y211293D01*
X-9657Y211320D01*
X-9740Y211352D01*
X-9821Y211386D01*
X-9901Y211425D01*
X-9979Y211466D01*
X-10056Y211511D01*
X-10130Y211559D01*
X-10203Y211610D01*
X-10273Y211664D01*
X-10340Y211722D01*
X-10406Y211782D01*
X-10468Y211844D01*
X-10528Y211910D01*
X-10586Y211977D01*
X-10640Y212047D01*
X-10691Y212120D01*
X-10739Y212194D01*
X-10784Y212271D01*
X-10825Y212349D01*
X-10864Y212429D01*
X-10898Y212510D01*
X-10930Y212593D01*
X-10957Y212678D01*
X-10982Y212763D01*
X-11002Y212849D01*
X-11019Y212936D01*
X-11032Y213024D01*
X-11041Y213112D01*
X-11047Y213200D01*
X-11049Y213289D01*
X-11049Y218511D01*
X-11047Y218600D01*
X-11041Y218688D01*
X-11032Y218776D01*
X-11019Y218864D01*
X-11002Y218951D01*
X-10982Y219037D01*
X-10957Y219122D01*
X-10930Y219207D01*
X-10898Y219290D01*
X-10864Y219371D01*
X-10825Y219451D01*
X-10784Y219529D01*
X-10739Y219606D01*
X-10691Y219680D01*
X-10640Y219753D01*
X-10586Y219823D01*
X-10528Y219890D01*
X-10468Y219956D01*
X-10406Y220018D01*
X-10340Y220078D01*
X-10273Y220136D01*
X-10203Y220190D01*
X-10130Y220241D01*
X-10056Y220289D01*
X-9979Y220334D01*
X-9901Y220375D01*
X-9821Y220414D01*
X-9740Y220448D01*
X-9657Y220480D01*
X-9572Y220507D01*
X-9487Y220532D01*
X-9401Y220552D01*
X-9314Y220569D01*
X-9226Y220582D01*
X-9138Y220591D01*
X-9050Y220597D01*
X-8961Y220599D01*
X-5828Y220599D01*
X-1295Y220599D02*
X-1295Y211201D01*
X3926Y211201D02*
X-1295Y220599D01*
X3926Y220599D02*
X3926Y211201D01*
X8458Y211201D02*
X8458Y220599D01*
X11069Y220599D01*
X11169Y220597D01*
X11269Y220591D01*
X11368Y220582D01*
X11468Y220568D01*
X11566Y220551D01*
X11664Y220530D01*
X11761Y220506D01*
X11857Y220477D01*
X11952Y220445D01*
X12045Y220410D01*
X12137Y220371D01*
X12228Y220328D01*
X12316Y220282D01*
X12403Y220232D01*
X12488Y220180D01*
X12571Y220124D01*
X12652Y220065D01*
X12730Y220002D01*
X12806Y219937D01*
X12880Y219869D01*
X12950Y219799D01*
X13018Y219725D01*
X13083Y219649D01*
X13146Y219571D01*
X13205Y219490D01*
X13261Y219407D01*
X13313Y219322D01*
X13363Y219235D01*
X13409Y219147D01*
X13452Y219056D01*
X13491Y218964D01*
X13526Y218871D01*
X13558Y218776D01*
X13587Y218680D01*
X13611Y218583D01*
X13632Y218485D01*
X13649Y218387D01*
X13663Y218287D01*
X13672Y218188D01*
X13678Y218088D01*
X13680Y217988D01*
X13679Y217988D02*
X13679Y213812D01*
X13680Y213812D02*
X13678Y213712D01*
X13672Y213612D01*
X13663Y213513D01*
X13649Y213413D01*
X13632Y213315D01*
X13611Y213217D01*
X13587Y213120D01*
X13558Y213024D01*
X13526Y212929D01*
X13491Y212836D01*
X13452Y212744D01*
X13409Y212653D01*
X13363Y212565D01*
X13313Y212478D01*
X13261Y212393D01*
X13205Y212310D01*
X13146Y212229D01*
X13083Y212151D01*
X13018Y212075D01*
X12950Y212001D01*
X12880Y211931D01*
X12806Y211863D01*
X12730Y211798D01*
X12652Y211735D01*
X12571Y211676D01*
X12488Y211620D01*
X12403Y211568D01*
X12316Y211518D01*
X12228Y211472D01*
X12137Y211429D01*
X12045Y211390D01*
X11952Y211355D01*
X11857Y211323D01*
X11761Y211294D01*
X11664Y211270D01*
X11566Y211249D01*
X11468Y211232D01*
X11368Y211218D01*
X11269Y211209D01*
X11169Y211203D01*
X11069Y211201D01*
X8458Y211201D01*
X-8438Y312801D02*
X-11049Y312801D01*
X-8438Y312801D02*
X-8337Y312803D01*
X-8236Y312809D01*
X-8135Y312819D01*
X-8035Y312832D01*
X-7935Y312850D01*
X-7836Y312871D01*
X-7738Y312897D01*
X-7641Y312926D01*
X-7545Y312958D01*
X-7451Y312995D01*
X-7358Y313035D01*
X-7266Y313079D01*
X-7177Y313126D01*
X-7089Y313177D01*
X-7003Y313231D01*
X-6920Y313288D01*
X-6838Y313348D01*
X-6760Y313412D01*
X-6683Y313478D01*
X-6610Y313548D01*
X-6539Y313620D01*
X-6471Y313695D01*
X-6406Y313773D01*
X-6344Y313853D01*
X-6285Y313935D01*
X-6229Y314020D01*
X-6177Y314107D01*
X-6128Y314195D01*
X-6082Y314286D01*
X-6041Y314378D01*
X-6002Y314472D01*
X-5968Y314567D01*
X-5937Y314663D01*
X-5910Y314761D01*
X-5886Y314859D01*
X-5867Y314959D01*
X-5851Y315059D01*
X-5839Y315159D01*
X-5831Y315260D01*
X-5827Y315361D01*
X-5827Y315463D01*
X-5831Y315564D01*
X-5839Y315665D01*
X-5851Y315765D01*
X-5867Y315865D01*
X-5886Y315965D01*
X-5910Y316063D01*
X-5937Y316161D01*
X-5968Y316257D01*
X-6002Y316352D01*
X-6041Y316446D01*
X-6082Y316538D01*
X-6128Y316629D01*
X-6177Y316717D01*
X-6229Y316804D01*
X-6285Y316889D01*
X-6344Y316971D01*
X-6406Y317051D01*
X-6471Y317129D01*
X-6539Y317204D01*
X-6610Y317276D01*
X-6683Y317346D01*
X-6760Y317412D01*
X-6838Y317476D01*
X-6920Y317536D01*
X-7003Y317593D01*
X-7089Y317647D01*
X-7177Y317698D01*
X-7266Y317745D01*
X-7358Y317789D01*
X-7451Y317829D01*
X-7545Y317866D01*
X-7641Y317898D01*
X-7738Y317927D01*
X-7836Y317953D01*
X-7935Y317974D01*
X-8035Y317992D01*
X-8135Y318005D01*
X-8236Y318015D01*
X-8337Y318021D01*
X-8438Y318023D01*
X-7916Y322199D02*
X-11049Y322199D01*
X-7916Y322199D02*
X-7826Y322197D01*
X-7737Y322191D01*
X-7647Y322182D01*
X-7558Y322168D01*
X-7470Y322151D01*
X-7383Y322130D01*
X-7296Y322105D01*
X-7211Y322076D01*
X-7127Y322044D01*
X-7045Y322009D01*
X-6964Y321969D01*
X-6885Y321927D01*
X-6808Y321881D01*
X-6733Y321831D01*
X-6660Y321779D01*
X-6589Y321723D01*
X-6521Y321665D01*
X-6456Y321603D01*
X-6393Y321539D01*
X-6333Y321472D01*
X-6276Y321403D01*
X-6222Y321331D01*
X-6171Y321257D01*
X-6123Y321181D01*
X-6079Y321103D01*
X-6038Y321023D01*
X-6000Y320941D01*
X-5966Y320858D01*
X-5936Y320773D01*
X-5909Y320687D01*
X-5886Y320601D01*
X-5867Y320513D01*
X-5852Y320424D01*
X-5840Y320335D01*
X-5832Y320246D01*
X-5828Y320156D01*
X-5828Y320066D01*
X-5832Y319976D01*
X-5840Y319887D01*
X-5852Y319798D01*
X-5867Y319709D01*
X-5886Y319621D01*
X-5909Y319535D01*
X-5936Y319449D01*
X-5966Y319364D01*
X-6000Y319281D01*
X-6038Y319199D01*
X-6079Y319119D01*
X-6123Y319041D01*
X-6171Y318965D01*
X-6222Y318891D01*
X-6276Y318819D01*
X-6333Y318750D01*
X-6393Y318683D01*
X-6456Y318619D01*
X-6521Y318557D01*
X-6589Y318499D01*
X-6660Y318443D01*
X-6733Y318391D01*
X-6808Y318341D01*
X-6885Y318295D01*
X-6964Y318253D01*
X-7045Y318213D01*
X-7127Y318178D01*
X-7211Y318146D01*
X-7296Y318117D01*
X-7383Y318092D01*
X-7470Y318071D01*
X-7558Y318054D01*
X-7647Y318040D01*
X-7737Y318031D01*
X-7826Y318025D01*
X-7916Y318023D01*
X-7916Y318022D02*
X-10005Y318022D01*
X-2427Y322199D02*
X706Y312801D01*
X3838Y322199D01*
X7239Y312801D02*
X9849Y312801D01*
X9950Y312803D01*
X10051Y312809D01*
X10152Y312819D01*
X10252Y312832D01*
X10352Y312850D01*
X10451Y312871D01*
X10549Y312897D01*
X10646Y312926D01*
X10742Y312958D01*
X10836Y312995D01*
X10929Y313035D01*
X11021Y313079D01*
X11110Y313126D01*
X11198Y313177D01*
X11284Y313231D01*
X11367Y313288D01*
X11449Y313348D01*
X11527Y313412D01*
X11604Y313478D01*
X11677Y313548D01*
X11748Y313620D01*
X11816Y313695D01*
X11881Y313773D01*
X11943Y313853D01*
X12002Y313935D01*
X12058Y314020D01*
X12110Y314107D01*
X12159Y314195D01*
X12205Y314286D01*
X12246Y314378D01*
X12285Y314472D01*
X12319Y314567D01*
X12350Y314663D01*
X12377Y314761D01*
X12401Y314859D01*
X12420Y314959D01*
X12436Y315059D01*
X12448Y315159D01*
X12456Y315260D01*
X12460Y315361D01*
X12460Y315463D01*
X12456Y315564D01*
X12448Y315665D01*
X12436Y315765D01*
X12420Y315865D01*
X12401Y315965D01*
X12377Y316063D01*
X12350Y316161D01*
X12319Y316257D01*
X12285Y316352D01*
X12246Y316446D01*
X12205Y316538D01*
X12159Y316629D01*
X12110Y316717D01*
X12058Y316804D01*
X12002Y316889D01*
X11943Y316971D01*
X11881Y317051D01*
X11816Y317129D01*
X11748Y317204D01*
X11677Y317276D01*
X11604Y317346D01*
X11527Y317412D01*
X11449Y317476D01*
X11367Y317536D01*
X11284Y317593D01*
X11198Y317647D01*
X11110Y317698D01*
X11021Y317745D01*
X10929Y317789D01*
X10836Y317829D01*
X10742Y317866D01*
X10646Y317898D01*
X10549Y317927D01*
X10451Y317953D01*
X10352Y317974D01*
X10252Y317992D01*
X10152Y318005D01*
X10051Y318015D01*
X9950Y318021D01*
X9849Y318023D01*
X10372Y322199D02*
X7239Y322199D01*
X10372Y322199D02*
X10462Y322197D01*
X10551Y322191D01*
X10641Y322182D01*
X10730Y322168D01*
X10818Y322151D01*
X10905Y322130D01*
X10992Y322105D01*
X11077Y322076D01*
X11161Y322044D01*
X11243Y322009D01*
X11324Y321969D01*
X11403Y321927D01*
X11480Y321881D01*
X11555Y321831D01*
X11628Y321779D01*
X11699Y321723D01*
X11767Y321665D01*
X11832Y321603D01*
X11895Y321539D01*
X11955Y321472D01*
X12012Y321403D01*
X12066Y321331D01*
X12117Y321257D01*
X12165Y321181D01*
X12209Y321103D01*
X12250Y321023D01*
X12288Y320941D01*
X12322Y320858D01*
X12352Y320773D01*
X12379Y320687D01*
X12402Y320601D01*
X12421Y320513D01*
X12436Y320424D01*
X12448Y320335D01*
X12456Y320246D01*
X12460Y320156D01*
X12460Y320066D01*
X12456Y319976D01*
X12448Y319887D01*
X12436Y319798D01*
X12421Y319709D01*
X12402Y319621D01*
X12379Y319535D01*
X12352Y319449D01*
X12322Y319364D01*
X12288Y319281D01*
X12250Y319199D01*
X12209Y319119D01*
X12165Y319041D01*
X12117Y318965D01*
X12066Y318891D01*
X12012Y318819D01*
X11955Y318750D01*
X11895Y318683D01*
X11832Y318619D01*
X11767Y318557D01*
X11699Y318499D01*
X11628Y318443D01*
X11555Y318391D01*
X11480Y318341D01*
X11403Y318295D01*
X11324Y318253D01*
X11243Y318213D01*
X11161Y318178D01*
X11077Y318146D01*
X10992Y318117D01*
X10905Y318092D01*
X10818Y318071D01*
X10730Y318054D01*
X10641Y318040D01*
X10551Y318031D01*
X10462Y318025D01*
X10372Y318023D01*
X10372Y318022D02*
X8283Y318022D01*
X-5828Y289489D02*
X-5830Y289400D01*
X-5836Y289312D01*
X-5845Y289224D01*
X-5858Y289136D01*
X-5875Y289049D01*
X-5895Y288963D01*
X-5920Y288878D01*
X-5947Y288793D01*
X-5979Y288710D01*
X-6013Y288629D01*
X-6052Y288549D01*
X-6093Y288471D01*
X-6138Y288394D01*
X-6186Y288320D01*
X-6237Y288247D01*
X-6291Y288177D01*
X-6349Y288110D01*
X-6409Y288044D01*
X-6471Y287982D01*
X-6537Y287922D01*
X-6604Y287864D01*
X-6674Y287810D01*
X-6747Y287759D01*
X-6821Y287711D01*
X-6898Y287666D01*
X-6976Y287625D01*
X-7056Y287586D01*
X-7137Y287552D01*
X-7220Y287520D01*
X-7305Y287493D01*
X-7390Y287468D01*
X-7476Y287448D01*
X-7563Y287431D01*
X-7651Y287418D01*
X-7739Y287409D01*
X-7827Y287403D01*
X-7916Y287401D01*
X-8045Y287403D01*
X-8174Y287409D01*
X-8303Y287418D01*
X-8431Y287431D01*
X-8559Y287448D01*
X-8686Y287469D01*
X-8813Y287493D01*
X-8939Y287521D01*
X-9064Y287553D01*
X-9188Y287588D01*
X-9311Y287627D01*
X-9433Y287670D01*
X-9553Y287716D01*
X-9672Y287766D01*
X-9790Y287819D01*
X-9906Y287875D01*
X-10020Y287935D01*
X-10133Y287998D01*
X-10243Y288065D01*
X-10352Y288134D01*
X-10458Y288207D01*
X-10563Y288283D01*
X-10665Y288362D01*
X-10765Y288444D01*
X-10862Y288528D01*
X-10957Y288616D01*
X-11049Y288706D01*
X-10788Y294711D02*
X-10786Y294800D01*
X-10780Y294888D01*
X-10771Y294976D01*
X-10758Y295064D01*
X-10741Y295151D01*
X-10721Y295237D01*
X-10696Y295322D01*
X-10669Y295407D01*
X-10637Y295490D01*
X-10603Y295571D01*
X-10564Y295651D01*
X-10523Y295729D01*
X-10478Y295806D01*
X-10430Y295880D01*
X-10379Y295953D01*
X-10325Y296023D01*
X-10267Y296090D01*
X-10207Y296156D01*
X-10145Y296218D01*
X-10079Y296278D01*
X-10012Y296336D01*
X-9942Y296390D01*
X-9869Y296441D01*
X-9795Y296489D01*
X-9718Y296534D01*
X-9640Y296575D01*
X-9560Y296614D01*
X-9479Y296648D01*
X-9396Y296680D01*
X-9311Y296707D01*
X-9226Y296732D01*
X-9140Y296752D01*
X-9053Y296769D01*
X-8965Y296782D01*
X-8877Y296791D01*
X-8789Y296797D01*
X-8700Y296799D01*
X-8580Y296797D01*
X-8460Y296792D01*
X-8341Y296782D01*
X-8221Y296770D01*
X-8102Y296753D01*
X-7984Y296733D01*
X-7866Y296709D01*
X-7750Y296682D01*
X-7634Y296651D01*
X-7519Y296617D01*
X-7405Y296579D01*
X-7292Y296537D01*
X-7181Y296492D01*
X-7071Y296444D01*
X-6963Y296393D01*
X-6856Y296338D01*
X-6751Y296280D01*
X-6648Y296218D01*
X-6547Y296154D01*
X-6447Y296086D01*
X-6350Y296016D01*
X-9744Y292884D02*
X-9822Y292932D01*
X-9898Y292984D01*
X-9971Y293038D01*
X-10042Y293096D01*
X-10111Y293157D01*
X-10177Y293221D01*
X-10240Y293288D01*
X-10300Y293357D01*
X-10357Y293429D01*
X-10411Y293503D01*
X-10461Y293580D01*
X-10509Y293659D01*
X-10552Y293739D01*
X-10593Y293822D01*
X-10629Y293906D01*
X-10662Y293991D01*
X-10691Y294078D01*
X-10717Y294167D01*
X-10739Y294256D01*
X-10756Y294346D01*
X-10770Y294436D01*
X-10780Y294528D01*
X-10786Y294619D01*
X-10788Y294711D01*
X-6872Y291316D02*
X-6794Y291268D01*
X-6718Y291216D01*
X-6645Y291162D01*
X-6574Y291104D01*
X-6505Y291043D01*
X-6439Y290979D01*
X-6376Y290912D01*
X-6316Y290843D01*
X-6259Y290771D01*
X-6205Y290697D01*
X-6155Y290620D01*
X-6107Y290541D01*
X-6064Y290461D01*
X-6023Y290378D01*
X-5987Y290294D01*
X-5954Y290209D01*
X-5925Y290122D01*
X-5899Y290033D01*
X-5877Y289944D01*
X-5860Y289854D01*
X-5846Y289764D01*
X-5836Y289672D01*
X-5830Y289581D01*
X-5828Y289489D01*
X-6872Y291317D02*
X-9744Y292883D01*
X-1428Y296799D02*
X-1428Y287401D01*
X-2472Y287401D02*
X-384Y287401D01*
X-384Y296799D02*
X-2472Y296799D01*
X-5828Y238689D02*
X-5830Y238600D01*
X-5836Y238512D01*
X-5845Y238424D01*
X-5858Y238336D01*
X-5875Y238249D01*
X-5895Y238163D01*
X-5920Y238078D01*
X-5947Y237993D01*
X-5979Y237910D01*
X-6013Y237829D01*
X-6052Y237749D01*
X-6093Y237671D01*
X-6138Y237594D01*
X-6186Y237520D01*
X-6237Y237447D01*
X-6291Y237377D01*
X-6349Y237310D01*
X-6409Y237244D01*
X-6471Y237182D01*
X-6537Y237122D01*
X-6604Y237064D01*
X-6674Y237010D01*
X-6747Y236959D01*
X-6821Y236911D01*
X-6898Y236866D01*
X-6976Y236825D01*
X-7056Y236786D01*
X-7137Y236752D01*
X-7220Y236720D01*
X-7305Y236693D01*
X-7390Y236668D01*
X-7476Y236648D01*
X-7563Y236631D01*
X-7651Y236618D01*
X-7739Y236609D01*
X-7827Y236603D01*
X-7916Y236601D01*
X-8045Y236603D01*
X-8174Y236609D01*
X-8303Y236618D01*
X-8431Y236631D01*
X-8559Y236648D01*
X-8686Y236669D01*
X-8813Y236693D01*
X-8939Y236721D01*
X-9064Y236753D01*
X-9188Y236788D01*
X-9311Y236827D01*
X-9433Y236870D01*
X-9553Y236916D01*
X-9672Y236966D01*
X-9790Y237019D01*
X-9906Y237075D01*
X-10020Y237135D01*
X-10133Y237198D01*
X-10243Y237265D01*
X-10352Y237334D01*
X-10458Y237407D01*
X-10563Y237483D01*
X-10665Y237562D01*
X-10765Y237644D01*
X-10862Y237728D01*
X-10957Y237816D01*
X-11049Y237906D01*
X-10788Y243911D02*
X-10786Y244000D01*
X-10780Y244088D01*
X-10771Y244176D01*
X-10758Y244264D01*
X-10741Y244351D01*
X-10721Y244437D01*
X-10696Y244522D01*
X-10669Y244607D01*
X-10637Y244690D01*
X-10603Y244771D01*
X-10564Y244851D01*
X-10523Y244929D01*
X-10478Y245006D01*
X-10430Y245080D01*
X-10379Y245153D01*
X-10325Y245223D01*
X-10267Y245290D01*
X-10207Y245356D01*
X-10145Y245418D01*
X-10079Y245478D01*
X-10012Y245536D01*
X-9942Y245590D01*
X-9869Y245641D01*
X-9795Y245689D01*
X-9718Y245734D01*
X-9640Y245775D01*
X-9560Y245814D01*
X-9479Y245848D01*
X-9396Y245880D01*
X-9311Y245907D01*
X-9226Y245932D01*
X-9140Y245952D01*
X-9053Y245969D01*
X-8965Y245982D01*
X-8877Y245991D01*
X-8789Y245997D01*
X-8700Y245999D01*
X-8580Y245997D01*
X-8460Y245992D01*
X-8341Y245982D01*
X-8221Y245970D01*
X-8102Y245953D01*
X-7984Y245933D01*
X-7866Y245909D01*
X-7750Y245882D01*
X-7634Y245851D01*
X-7519Y245817D01*
X-7405Y245779D01*
X-7292Y245737D01*
X-7181Y245692D01*
X-7071Y245644D01*
X-6963Y245593D01*
X-6856Y245538D01*
X-6751Y245480D01*
X-6648Y245418D01*
X-6547Y245354D01*
X-6447Y245286D01*
X-6350Y245216D01*
X-9744Y242084D02*
X-9822Y242132D01*
X-9898Y242184D01*
X-9971Y242238D01*
X-10042Y242296D01*
X-10111Y242357D01*
X-10177Y242421D01*
X-10240Y242488D01*
X-10300Y242557D01*
X-10357Y242629D01*
X-10411Y242703D01*
X-10461Y242780D01*
X-10509Y242859D01*
X-10552Y242939D01*
X-10593Y243022D01*
X-10629Y243106D01*
X-10662Y243191D01*
X-10691Y243278D01*
X-10717Y243367D01*
X-10739Y243456D01*
X-10756Y243546D01*
X-10770Y243636D01*
X-10780Y243728D01*
X-10786Y243819D01*
X-10788Y243911D01*
X-6872Y240516D02*
X-6794Y240468D01*
X-6718Y240416D01*
X-6645Y240362D01*
X-6574Y240304D01*
X-6505Y240243D01*
X-6439Y240179D01*
X-6376Y240112D01*
X-6316Y240043D01*
X-6259Y239971D01*
X-6205Y239897D01*
X-6155Y239820D01*
X-6107Y239741D01*
X-6064Y239661D01*
X-6023Y239578D01*
X-5987Y239494D01*
X-5954Y239409D01*
X-5925Y239322D01*
X-5899Y239233D01*
X-5877Y239144D01*
X-5860Y239054D01*
X-5846Y238964D01*
X-5836Y238872D01*
X-5830Y238781D01*
X-5828Y238689D01*
X-6872Y240517D02*
X-9744Y242083D01*
X-147Y236601D02*
X1941Y236601D01*
X-147Y236601D02*
X-236Y236603D01*
X-324Y236609D01*
X-412Y236618D01*
X-500Y236631D01*
X-587Y236648D01*
X-673Y236668D01*
X-758Y236693D01*
X-843Y236720D01*
X-926Y236752D01*
X-1007Y236786D01*
X-1087Y236825D01*
X-1165Y236866D01*
X-1242Y236911D01*
X-1316Y236959D01*
X-1389Y237010D01*
X-1459Y237064D01*
X-1526Y237122D01*
X-1592Y237182D01*
X-1654Y237244D01*
X-1714Y237310D01*
X-1772Y237377D01*
X-1826Y237447D01*
X-1877Y237520D01*
X-1925Y237594D01*
X-1970Y237671D01*
X-2011Y237749D01*
X-2050Y237829D01*
X-2084Y237910D01*
X-2116Y237993D01*
X-2143Y238078D01*
X-2168Y238163D01*
X-2188Y238249D01*
X-2205Y238336D01*
X-2218Y238424D01*
X-2227Y238512D01*
X-2233Y238600D01*
X-2235Y238689D01*
X-2236Y238689D02*
X-2236Y243911D01*
X-2235Y243911D02*
X-2233Y244002D01*
X-2227Y244093D01*
X-2217Y244184D01*
X-2203Y244274D01*
X-2186Y244363D01*
X-2164Y244451D01*
X-2138Y244539D01*
X-2109Y244625D01*
X-2076Y244710D01*
X-2039Y244793D01*
X-1999Y244875D01*
X-1955Y244955D01*
X-1908Y245033D01*
X-1857Y245109D01*
X-1804Y245182D01*
X-1747Y245253D01*
X-1686Y245322D01*
X-1623Y245387D01*
X-1558Y245450D01*
X-1489Y245510D01*
X-1418Y245568D01*
X-1345Y245621D01*
X-1269Y245672D01*
X-1191Y245719D01*
X-1111Y245763D01*
X-1029Y245803D01*
X-946Y245840D01*
X-861Y245873D01*
X-775Y245902D01*
X-687Y245928D01*
X-599Y245950D01*
X-510Y245967D01*
X-420Y245981D01*
X-329Y245991D01*
X-238Y245997D01*
X-147Y245999D01*
X1941Y245999D01*
X5732Y245999D02*
X5732Y236601D01*
X9909Y236601D01*
X13771Y236601D02*
X13771Y245999D01*
X18992Y245999D02*
X13771Y240256D01*
X15859Y242344D02*
X18992Y236601D01*
X-7916Y262001D02*
X-7827Y262003D01*
X-7739Y262009D01*
X-7651Y262018D01*
X-7563Y262031D01*
X-7476Y262048D01*
X-7390Y262068D01*
X-7305Y262093D01*
X-7220Y262120D01*
X-7137Y262152D01*
X-7056Y262186D01*
X-6976Y262225D01*
X-6898Y262266D01*
X-6821Y262311D01*
X-6747Y262359D01*
X-6674Y262410D01*
X-6604Y262464D01*
X-6537Y262522D01*
X-6471Y262582D01*
X-6409Y262644D01*
X-6349Y262710D01*
X-6291Y262777D01*
X-6237Y262847D01*
X-6186Y262920D01*
X-6138Y262994D01*
X-6093Y263071D01*
X-6052Y263149D01*
X-6013Y263229D01*
X-5979Y263310D01*
X-5947Y263393D01*
X-5920Y263478D01*
X-5895Y263563D01*
X-5875Y263649D01*
X-5858Y263736D01*
X-5845Y263824D01*
X-5836Y263912D01*
X-5830Y264000D01*
X-5828Y264089D01*
X-7916Y262001D02*
X-8045Y262003D01*
X-8174Y262009D01*
X-8303Y262018D01*
X-8431Y262031D01*
X-8559Y262048D01*
X-8686Y262069D01*
X-8813Y262093D01*
X-8939Y262121D01*
X-9064Y262153D01*
X-9188Y262188D01*
X-9311Y262227D01*
X-9433Y262270D01*
X-9553Y262316D01*
X-9672Y262366D01*
X-9790Y262419D01*
X-9906Y262475D01*
X-10020Y262535D01*
X-10133Y262598D01*
X-10243Y262665D01*
X-10352Y262734D01*
X-10458Y262807D01*
X-10563Y262883D01*
X-10665Y262962D01*
X-10765Y263044D01*
X-10862Y263128D01*
X-10957Y263216D01*
X-11049Y263306D01*
X-10788Y269311D02*
X-10786Y269400D01*
X-10780Y269488D01*
X-10771Y269576D01*
X-10758Y269664D01*
X-10741Y269751D01*
X-10721Y269837D01*
X-10696Y269922D01*
X-10669Y270007D01*
X-10637Y270090D01*
X-10603Y270171D01*
X-10564Y270251D01*
X-10523Y270329D01*
X-10478Y270406D01*
X-10430Y270480D01*
X-10379Y270553D01*
X-10325Y270623D01*
X-10267Y270690D01*
X-10207Y270756D01*
X-10145Y270818D01*
X-10079Y270878D01*
X-10012Y270936D01*
X-9942Y270990D01*
X-9869Y271041D01*
X-9795Y271089D01*
X-9718Y271134D01*
X-9640Y271175D01*
X-9560Y271214D01*
X-9479Y271248D01*
X-9396Y271280D01*
X-9311Y271307D01*
X-9226Y271332D01*
X-9140Y271352D01*
X-9053Y271369D01*
X-8965Y271382D01*
X-8877Y271391D01*
X-8789Y271397D01*
X-8700Y271399D01*
X-8580Y271397D01*
X-8460Y271392D01*
X-8341Y271382D01*
X-8221Y271370D01*
X-8102Y271353D01*
X-7984Y271333D01*
X-7866Y271309D01*
X-7750Y271282D01*
X-7634Y271251D01*
X-7519Y271217D01*
X-7405Y271179D01*
X-7292Y271137D01*
X-7181Y271092D01*
X-7071Y271044D01*
X-6963Y270993D01*
X-6856Y270938D01*
X-6751Y270880D01*
X-6648Y270818D01*
X-6547Y270754D01*
X-6447Y270686D01*
X-6350Y270616D01*
X-9744Y267484D02*
X-9822Y267532D01*
X-9898Y267584D01*
X-9971Y267638D01*
X-10042Y267696D01*
X-10111Y267757D01*
X-10177Y267821D01*
X-10240Y267888D01*
X-10300Y267957D01*
X-10357Y268029D01*
X-10411Y268103D01*
X-10461Y268180D01*
X-10509Y268259D01*
X-10552Y268339D01*
X-10593Y268422D01*
X-10629Y268506D01*
X-10662Y268591D01*
X-10691Y268678D01*
X-10717Y268767D01*
X-10739Y268856D01*
X-10756Y268946D01*
X-10770Y269036D01*
X-10780Y269128D01*
X-10786Y269219D01*
X-10788Y269311D01*
X-6872Y265916D02*
X-6794Y265868D01*
X-6718Y265816D01*
X-6645Y265762D01*
X-6574Y265704D01*
X-6505Y265643D01*
X-6439Y265579D01*
X-6376Y265512D01*
X-6316Y265443D01*
X-6259Y265371D01*
X-6205Y265297D01*
X-6155Y265220D01*
X-6107Y265141D01*
X-6064Y265061D01*
X-6023Y264978D01*
X-5987Y264894D01*
X-5954Y264809D01*
X-5925Y264722D01*
X-5899Y264633D01*
X-5877Y264544D01*
X-5860Y264454D01*
X-5846Y264364D01*
X-5836Y264272D01*
X-5830Y264181D01*
X-5828Y264089D01*
X-6872Y265917D02*
X-9744Y267483D01*
X-2210Y268788D02*
X-2210Y264612D01*
X-2210Y268788D02*
X-2208Y268889D01*
X-2202Y268990D01*
X-2192Y269091D01*
X-2179Y269191D01*
X-2161Y269291D01*
X-2140Y269390D01*
X-2114Y269488D01*
X-2085Y269585D01*
X-2053Y269681D01*
X-2016Y269775D01*
X-1976Y269868D01*
X-1932Y269960D01*
X-1885Y270049D01*
X-1834Y270137D01*
X-1780Y270223D01*
X-1723Y270306D01*
X-1663Y270388D01*
X-1599Y270466D01*
X-1533Y270543D01*
X-1463Y270616D01*
X-1391Y270687D01*
X-1316Y270755D01*
X-1238Y270820D01*
X-1158Y270882D01*
X-1076Y270941D01*
X-991Y270997D01*
X-904Y271049D01*
X-816Y271098D01*
X-725Y271144D01*
X-633Y271185D01*
X-539Y271224D01*
X-444Y271258D01*
X-348Y271289D01*
X-250Y271316D01*
X-152Y271340D01*
X-52Y271359D01*
X48Y271375D01*
X148Y271387D01*
X249Y271395D01*
X350Y271399D01*
X452Y271399D01*
X553Y271395D01*
X654Y271387D01*
X754Y271375D01*
X854Y271359D01*
X954Y271340D01*
X1052Y271316D01*
X1150Y271289D01*
X1246Y271258D01*
X1341Y271224D01*
X1435Y271185D01*
X1527Y271144D01*
X1618Y271098D01*
X1707Y271049D01*
X1793Y270997D01*
X1878Y270941D01*
X1960Y270882D01*
X2040Y270820D01*
X2118Y270755D01*
X2193Y270687D01*
X2265Y270616D01*
X2335Y270543D01*
X2401Y270466D01*
X2465Y270388D01*
X2525Y270306D01*
X2582Y270223D01*
X2636Y270137D01*
X2687Y270049D01*
X2734Y269960D01*
X2778Y269868D01*
X2818Y269775D01*
X2855Y269681D01*
X2887Y269585D01*
X2916Y269488D01*
X2942Y269390D01*
X2963Y269291D01*
X2981Y269191D01*
X2994Y269091D01*
X3004Y268990D01*
X3010Y268889D01*
X3012Y268788D01*
X3011Y268788D02*
X3011Y264612D01*
X3012Y264612D02*
X3010Y264511D01*
X3004Y264410D01*
X2994Y264309D01*
X2981Y264209D01*
X2963Y264109D01*
X2942Y264010D01*
X2916Y263912D01*
X2887Y263815D01*
X2855Y263719D01*
X2818Y263625D01*
X2778Y263532D01*
X2734Y263440D01*
X2687Y263351D01*
X2636Y263263D01*
X2582Y263177D01*
X2525Y263094D01*
X2465Y263012D01*
X2401Y262934D01*
X2335Y262857D01*
X2265Y262784D01*
X2193Y262713D01*
X2118Y262645D01*
X2040Y262580D01*
X1960Y262518D01*
X1878Y262459D01*
X1793Y262403D01*
X1706Y262351D01*
X1618Y262302D01*
X1527Y262256D01*
X1435Y262215D01*
X1341Y262176D01*
X1246Y262142D01*
X1150Y262111D01*
X1052Y262084D01*
X954Y262060D01*
X854Y262041D01*
X754Y262025D01*
X654Y262013D01*
X553Y262005D01*
X452Y262001D01*
X350Y262001D01*
X249Y262005D01*
X148Y262013D01*
X48Y262025D01*
X-52Y262041D01*
X-152Y262060D01*
X-250Y262084D01*
X-348Y262111D01*
X-444Y262142D01*
X-539Y262176D01*
X-633Y262215D01*
X-725Y262256D01*
X-816Y262302D01*
X-905Y262351D01*
X-991Y262403D01*
X-1076Y262459D01*
X-1158Y262518D01*
X-1238Y262580D01*
X-1316Y262645D01*
X-1391Y262713D01*
X-1463Y262784D01*
X-1533Y262857D01*
X-1599Y262934D01*
X-1663Y263012D01*
X-1723Y263094D01*
X-1780Y263177D01*
X-1834Y263263D01*
X-1885Y263351D01*
X-1932Y263440D01*
X-1976Y263532D01*
X-2016Y263625D01*
X-2053Y263719D01*
X-2085Y263815D01*
X-2114Y263912D01*
X-2140Y264010D01*
X-2161Y264109D01*
X-2179Y264209D01*
X-2192Y264309D01*
X-2202Y264410D01*
X-2208Y264511D01*
X-2210Y264612D01*
X95476Y318022D02*
X97042Y318022D01*
X97042Y312801D01*
X93909Y312801D01*
X93820Y312803D01*
X93732Y312809D01*
X93644Y312818D01*
X93556Y312831D01*
X93469Y312848D01*
X93383Y312868D01*
X93298Y312893D01*
X93213Y312920D01*
X93130Y312952D01*
X93049Y312986D01*
X92969Y313025D01*
X92891Y313066D01*
X92814Y313111D01*
X92740Y313159D01*
X92667Y313210D01*
X92597Y313264D01*
X92530Y313322D01*
X92464Y313382D01*
X92402Y313444D01*
X92342Y313510D01*
X92284Y313577D01*
X92230Y313647D01*
X92179Y313720D01*
X92131Y313794D01*
X92086Y313871D01*
X92045Y313949D01*
X92006Y314029D01*
X91972Y314110D01*
X91940Y314193D01*
X91913Y314278D01*
X91888Y314363D01*
X91868Y314449D01*
X91851Y314536D01*
X91838Y314624D01*
X91829Y314712D01*
X91823Y314800D01*
X91821Y314889D01*
X91821Y320111D01*
X91823Y320202D01*
X91829Y320293D01*
X91839Y320384D01*
X91853Y320474D01*
X91870Y320563D01*
X91892Y320651D01*
X91918Y320739D01*
X91947Y320825D01*
X91980Y320910D01*
X92017Y320993D01*
X92057Y321075D01*
X92101Y321155D01*
X92148Y321233D01*
X92199Y321309D01*
X92252Y321382D01*
X92309Y321453D01*
X92370Y321522D01*
X92433Y321587D01*
X92498Y321650D01*
X92567Y321710D01*
X92638Y321768D01*
X92711Y321821D01*
X92787Y321872D01*
X92865Y321919D01*
X92945Y321963D01*
X93027Y322003D01*
X93110Y322040D01*
X93195Y322073D01*
X93281Y322102D01*
X93369Y322128D01*
X93457Y322150D01*
X93546Y322167D01*
X93636Y322181D01*
X93727Y322191D01*
X93818Y322197D01*
X93909Y322199D01*
X97042Y322199D01*
X101575Y322199D02*
X101575Y312801D01*
X101575Y322199D02*
X104185Y322199D01*
X104285Y322197D01*
X104385Y322191D01*
X104484Y322182D01*
X104584Y322168D01*
X104682Y322151D01*
X104780Y322130D01*
X104877Y322106D01*
X104973Y322077D01*
X105068Y322045D01*
X105161Y322010D01*
X105253Y321971D01*
X105344Y321928D01*
X105432Y321882D01*
X105519Y321832D01*
X105604Y321780D01*
X105687Y321724D01*
X105768Y321665D01*
X105846Y321602D01*
X105922Y321537D01*
X105996Y321469D01*
X106066Y321399D01*
X106134Y321325D01*
X106199Y321249D01*
X106262Y321171D01*
X106321Y321090D01*
X106377Y321007D01*
X106429Y320922D01*
X106479Y320835D01*
X106525Y320747D01*
X106568Y320656D01*
X106607Y320564D01*
X106642Y320471D01*
X106674Y320376D01*
X106703Y320280D01*
X106727Y320183D01*
X106748Y320085D01*
X106765Y319987D01*
X106779Y319887D01*
X106788Y319788D01*
X106794Y319688D01*
X106796Y319588D01*
X106796Y315412D01*
X106794Y315312D01*
X106788Y315212D01*
X106779Y315113D01*
X106765Y315013D01*
X106748Y314915D01*
X106727Y314817D01*
X106703Y314720D01*
X106674Y314624D01*
X106642Y314529D01*
X106607Y314436D01*
X106568Y314344D01*
X106525Y314253D01*
X106479Y314165D01*
X106429Y314078D01*
X106377Y313993D01*
X106321Y313910D01*
X106262Y313829D01*
X106199Y313751D01*
X106134Y313675D01*
X106066Y313601D01*
X105996Y313531D01*
X105922Y313463D01*
X105846Y313398D01*
X105768Y313335D01*
X105687Y313276D01*
X105604Y313220D01*
X105519Y313168D01*
X105432Y313118D01*
X105344Y313072D01*
X105253Y313029D01*
X105161Y312990D01*
X105068Y312955D01*
X104973Y312923D01*
X104877Y312894D01*
X104780Y312870D01*
X104682Y312849D01*
X104584Y312832D01*
X104484Y312818D01*
X104385Y312809D01*
X104285Y312803D01*
X104185Y312801D01*
X101575Y312801D01*
X111023Y315412D02*
X111023Y319588D01*
X111025Y319689D01*
X111031Y319790D01*
X111041Y319891D01*
X111054Y319991D01*
X111072Y320091D01*
X111093Y320190D01*
X111119Y320288D01*
X111148Y320385D01*
X111180Y320481D01*
X111217Y320575D01*
X111257Y320668D01*
X111301Y320760D01*
X111348Y320849D01*
X111399Y320937D01*
X111453Y321023D01*
X111510Y321106D01*
X111570Y321188D01*
X111634Y321266D01*
X111700Y321343D01*
X111770Y321416D01*
X111842Y321487D01*
X111917Y321555D01*
X111995Y321620D01*
X112075Y321682D01*
X112157Y321741D01*
X112242Y321797D01*
X112329Y321849D01*
X112417Y321898D01*
X112508Y321944D01*
X112600Y321985D01*
X112694Y322024D01*
X112789Y322058D01*
X112885Y322089D01*
X112983Y322116D01*
X113081Y322140D01*
X113181Y322159D01*
X113281Y322175D01*
X113381Y322187D01*
X113482Y322195D01*
X113583Y322199D01*
X113685Y322199D01*
X113786Y322195D01*
X113887Y322187D01*
X113987Y322175D01*
X114087Y322159D01*
X114187Y322140D01*
X114285Y322116D01*
X114383Y322089D01*
X114479Y322058D01*
X114574Y322024D01*
X114668Y321985D01*
X114760Y321944D01*
X114851Y321898D01*
X114940Y321849D01*
X115026Y321797D01*
X115111Y321741D01*
X115193Y321682D01*
X115273Y321620D01*
X115351Y321555D01*
X115426Y321487D01*
X115498Y321416D01*
X115568Y321343D01*
X115634Y321266D01*
X115698Y321188D01*
X115758Y321106D01*
X115815Y321023D01*
X115869Y320937D01*
X115920Y320849D01*
X115967Y320760D01*
X116011Y320668D01*
X116051Y320575D01*
X116088Y320481D01*
X116120Y320385D01*
X116149Y320288D01*
X116175Y320190D01*
X116196Y320091D01*
X116214Y319991D01*
X116227Y319891D01*
X116237Y319790D01*
X116243Y319689D01*
X116245Y319588D01*
X116244Y319588D02*
X116244Y315412D01*
X116245Y315412D02*
X116243Y315311D01*
X116237Y315210D01*
X116227Y315109D01*
X116214Y315009D01*
X116196Y314909D01*
X116175Y314810D01*
X116149Y314712D01*
X116120Y314615D01*
X116088Y314519D01*
X116051Y314425D01*
X116011Y314332D01*
X115967Y314240D01*
X115920Y314151D01*
X115869Y314063D01*
X115815Y313977D01*
X115758Y313894D01*
X115698Y313812D01*
X115634Y313734D01*
X115568Y313657D01*
X115498Y313584D01*
X115426Y313513D01*
X115351Y313445D01*
X115273Y313380D01*
X115193Y313318D01*
X115111Y313259D01*
X115026Y313203D01*
X114939Y313151D01*
X114851Y313102D01*
X114760Y313056D01*
X114668Y313015D01*
X114574Y312976D01*
X114479Y312942D01*
X114383Y312911D01*
X114285Y312884D01*
X114187Y312860D01*
X114087Y312841D01*
X113987Y312825D01*
X113887Y312813D01*
X113786Y312805D01*
X113685Y312801D01*
X113583Y312801D01*
X113482Y312805D01*
X113381Y312813D01*
X113281Y312825D01*
X113181Y312841D01*
X113081Y312860D01*
X112983Y312884D01*
X112885Y312911D01*
X112789Y312942D01*
X112694Y312976D01*
X112600Y313015D01*
X112508Y313056D01*
X112417Y313102D01*
X112329Y313151D01*
X112242Y313203D01*
X112157Y313259D01*
X112075Y313318D01*
X111995Y313380D01*
X111917Y313445D01*
X111842Y313513D01*
X111770Y313584D01*
X111700Y313657D01*
X111634Y313734D01*
X111570Y313812D01*
X111510Y313894D01*
X111453Y313977D01*
X111399Y314063D01*
X111348Y314151D01*
X111301Y314240D01*
X111257Y314332D01*
X111217Y314425D01*
X111180Y314519D01*
X111148Y314615D01*
X111119Y314712D01*
X111093Y314810D01*
X111072Y314909D01*
X111054Y315009D01*
X111041Y315109D01*
X111031Y315210D01*
X111025Y315311D01*
X111023Y315412D01*
X123039Y322200D02*
X123134Y322198D01*
X123228Y322192D01*
X123322Y322183D01*
X123416Y322170D01*
X123509Y322153D01*
X123601Y322132D01*
X123693Y322107D01*
X123783Y322079D01*
X123872Y322047D01*
X123960Y322012D01*
X124046Y321973D01*
X124131Y321931D01*
X124214Y321885D01*
X124295Y321836D01*
X124374Y321784D01*
X124451Y321729D01*
X124525Y321670D01*
X124597Y321609D01*
X124667Y321545D01*
X124734Y321478D01*
X124798Y321408D01*
X124859Y321336D01*
X124918Y321262D01*
X124973Y321185D01*
X125025Y321106D01*
X125074Y321025D01*
X125120Y320942D01*
X125162Y320857D01*
X125201Y320771D01*
X125236Y320683D01*
X125268Y320594D01*
X125296Y320504D01*
X125321Y320412D01*
X125342Y320320D01*
X125359Y320227D01*
X125372Y320133D01*
X125381Y320039D01*
X125387Y319945D01*
X125389Y319850D01*
X123039Y322199D02*
X122931Y322197D01*
X122822Y322191D01*
X122714Y322181D01*
X122607Y322168D01*
X122500Y322150D01*
X122393Y322129D01*
X122288Y322104D01*
X122183Y322075D01*
X122080Y322043D01*
X121978Y322006D01*
X121877Y321966D01*
X121778Y321923D01*
X121680Y321876D01*
X121584Y321825D01*
X121490Y321771D01*
X121398Y321714D01*
X121308Y321653D01*
X121220Y321589D01*
X121135Y321523D01*
X121052Y321453D01*
X120972Y321380D01*
X120894Y321304D01*
X120819Y321226D01*
X120747Y321145D01*
X120678Y321061D01*
X120612Y320975D01*
X120549Y320887D01*
X120490Y320796D01*
X120433Y320704D01*
X120380Y320609D01*
X120331Y320513D01*
X120285Y320414D01*
X120242Y320315D01*
X120203Y320213D01*
X120168Y320111D01*
X124606Y318022D02*
X124675Y318091D01*
X124741Y318162D01*
X124805Y318235D01*
X124866Y318311D01*
X124924Y318390D01*
X124978Y318470D01*
X125030Y318553D01*
X125078Y318637D01*
X125124Y318723D01*
X125165Y318811D01*
X125204Y318901D01*
X125239Y318992D01*
X125270Y319084D01*
X125298Y319177D01*
X125322Y319271D01*
X125342Y319366D01*
X125359Y319462D01*
X125372Y319559D01*
X125381Y319656D01*
X125387Y319753D01*
X125389Y319850D01*
X124605Y318022D02*
X120167Y312801D01*
X125388Y312801D01*
X97042Y343422D02*
X95476Y343422D01*
X97042Y343422D02*
X97042Y338201D01*
X93909Y338201D01*
X93820Y338203D01*
X93732Y338209D01*
X93644Y338218D01*
X93556Y338231D01*
X93469Y338248D01*
X93383Y338268D01*
X93298Y338293D01*
X93213Y338320D01*
X93130Y338352D01*
X93049Y338386D01*
X92969Y338425D01*
X92891Y338466D01*
X92814Y338511D01*
X92740Y338559D01*
X92667Y338610D01*
X92597Y338664D01*
X92530Y338722D01*
X92464Y338782D01*
X92402Y338844D01*
X92342Y338910D01*
X92284Y338977D01*
X92230Y339047D01*
X92179Y339120D01*
X92131Y339194D01*
X92086Y339271D01*
X92045Y339349D01*
X92006Y339429D01*
X91972Y339510D01*
X91940Y339593D01*
X91913Y339678D01*
X91888Y339763D01*
X91868Y339849D01*
X91851Y339936D01*
X91838Y340024D01*
X91829Y340112D01*
X91823Y340200D01*
X91821Y340289D01*
X91821Y345511D01*
X91823Y345602D01*
X91829Y345693D01*
X91839Y345784D01*
X91853Y345874D01*
X91870Y345963D01*
X91892Y346051D01*
X91918Y346139D01*
X91947Y346225D01*
X91980Y346310D01*
X92017Y346393D01*
X92057Y346475D01*
X92101Y346555D01*
X92148Y346633D01*
X92199Y346709D01*
X92252Y346782D01*
X92309Y346853D01*
X92370Y346922D01*
X92433Y346987D01*
X92498Y347050D01*
X92567Y347110D01*
X92638Y347168D01*
X92711Y347221D01*
X92787Y347272D01*
X92865Y347319D01*
X92945Y347363D01*
X93027Y347403D01*
X93110Y347440D01*
X93195Y347473D01*
X93281Y347502D01*
X93369Y347528D01*
X93457Y347550D01*
X93546Y347567D01*
X93636Y347581D01*
X93727Y347591D01*
X93818Y347597D01*
X93909Y347599D01*
X97042Y347599D01*
X101575Y347599D02*
X101575Y338201D01*
X101575Y347599D02*
X104185Y347599D01*
X104285Y347597D01*
X104385Y347591D01*
X104484Y347582D01*
X104584Y347568D01*
X104682Y347551D01*
X104780Y347530D01*
X104877Y347506D01*
X104973Y347477D01*
X105068Y347445D01*
X105161Y347410D01*
X105253Y347371D01*
X105344Y347328D01*
X105432Y347282D01*
X105519Y347232D01*
X105604Y347180D01*
X105687Y347124D01*
X105768Y347065D01*
X105846Y347002D01*
X105922Y346937D01*
X105996Y346869D01*
X106066Y346799D01*
X106134Y346725D01*
X106199Y346649D01*
X106262Y346571D01*
X106321Y346490D01*
X106377Y346407D01*
X106429Y346322D01*
X106479Y346235D01*
X106525Y346147D01*
X106568Y346056D01*
X106607Y345964D01*
X106642Y345871D01*
X106674Y345776D01*
X106703Y345680D01*
X106727Y345583D01*
X106748Y345485D01*
X106765Y345387D01*
X106779Y345287D01*
X106788Y345188D01*
X106794Y345088D01*
X106796Y344988D01*
X106796Y340812D01*
X106794Y340712D01*
X106788Y340612D01*
X106779Y340513D01*
X106765Y340413D01*
X106748Y340315D01*
X106727Y340217D01*
X106703Y340120D01*
X106674Y340024D01*
X106642Y339929D01*
X106607Y339836D01*
X106568Y339744D01*
X106525Y339653D01*
X106479Y339565D01*
X106429Y339478D01*
X106377Y339393D01*
X106321Y339310D01*
X106262Y339229D01*
X106199Y339151D01*
X106134Y339075D01*
X106066Y339001D01*
X105996Y338931D01*
X105922Y338863D01*
X105846Y338798D01*
X105768Y338735D01*
X105687Y338676D01*
X105604Y338620D01*
X105519Y338568D01*
X105432Y338518D01*
X105344Y338472D01*
X105253Y338429D01*
X105161Y338390D01*
X105068Y338355D01*
X104973Y338323D01*
X104877Y338294D01*
X104780Y338270D01*
X104682Y338249D01*
X104584Y338232D01*
X104484Y338218D01*
X104385Y338209D01*
X104285Y338203D01*
X104185Y338201D01*
X101575Y338201D01*
X111023Y340812D02*
X111023Y344988D01*
X111025Y345089D01*
X111031Y345190D01*
X111041Y345291D01*
X111054Y345391D01*
X111072Y345491D01*
X111093Y345590D01*
X111119Y345688D01*
X111148Y345785D01*
X111180Y345881D01*
X111217Y345975D01*
X111257Y346068D01*
X111301Y346160D01*
X111348Y346249D01*
X111399Y346337D01*
X111453Y346423D01*
X111510Y346506D01*
X111570Y346588D01*
X111634Y346666D01*
X111700Y346743D01*
X111770Y346816D01*
X111842Y346887D01*
X111917Y346955D01*
X111995Y347020D01*
X112075Y347082D01*
X112157Y347141D01*
X112242Y347197D01*
X112329Y347249D01*
X112417Y347298D01*
X112508Y347344D01*
X112600Y347385D01*
X112694Y347424D01*
X112789Y347458D01*
X112885Y347489D01*
X112983Y347516D01*
X113081Y347540D01*
X113181Y347559D01*
X113281Y347575D01*
X113381Y347587D01*
X113482Y347595D01*
X113583Y347599D01*
X113685Y347599D01*
X113786Y347595D01*
X113887Y347587D01*
X113987Y347575D01*
X114087Y347559D01*
X114187Y347540D01*
X114285Y347516D01*
X114383Y347489D01*
X114479Y347458D01*
X114574Y347424D01*
X114668Y347385D01*
X114760Y347344D01*
X114851Y347298D01*
X114940Y347249D01*
X115026Y347197D01*
X115111Y347141D01*
X115193Y347082D01*
X115273Y347020D01*
X115351Y346955D01*
X115426Y346887D01*
X115498Y346816D01*
X115568Y346743D01*
X115634Y346666D01*
X115698Y346588D01*
X115758Y346506D01*
X115815Y346423D01*
X115869Y346337D01*
X115920Y346249D01*
X115967Y346160D01*
X116011Y346068D01*
X116051Y345975D01*
X116088Y345881D01*
X116120Y345785D01*
X116149Y345688D01*
X116175Y345590D01*
X116196Y345491D01*
X116214Y345391D01*
X116227Y345291D01*
X116237Y345190D01*
X116243Y345089D01*
X116245Y344988D01*
X116244Y344988D02*
X116244Y340812D01*
X116245Y340812D02*
X116243Y340711D01*
X116237Y340610D01*
X116227Y340509D01*
X116214Y340409D01*
X116196Y340309D01*
X116175Y340210D01*
X116149Y340112D01*
X116120Y340015D01*
X116088Y339919D01*
X116051Y339825D01*
X116011Y339732D01*
X115967Y339640D01*
X115920Y339551D01*
X115869Y339463D01*
X115815Y339377D01*
X115758Y339294D01*
X115698Y339212D01*
X115634Y339134D01*
X115568Y339057D01*
X115498Y338984D01*
X115426Y338913D01*
X115351Y338845D01*
X115273Y338780D01*
X115193Y338718D01*
X115111Y338659D01*
X115026Y338603D01*
X114939Y338551D01*
X114851Y338502D01*
X114760Y338456D01*
X114668Y338415D01*
X114574Y338376D01*
X114479Y338342D01*
X114383Y338311D01*
X114285Y338284D01*
X114187Y338260D01*
X114087Y338241D01*
X113987Y338225D01*
X113887Y338213D01*
X113786Y338205D01*
X113685Y338201D01*
X113583Y338201D01*
X113482Y338205D01*
X113381Y338213D01*
X113281Y338225D01*
X113181Y338241D01*
X113081Y338260D01*
X112983Y338284D01*
X112885Y338311D01*
X112789Y338342D01*
X112694Y338376D01*
X112600Y338415D01*
X112508Y338456D01*
X112417Y338502D01*
X112329Y338551D01*
X112242Y338603D01*
X112157Y338659D01*
X112075Y338718D01*
X111995Y338780D01*
X111917Y338845D01*
X111842Y338913D01*
X111770Y338984D01*
X111700Y339057D01*
X111634Y339134D01*
X111570Y339212D01*
X111510Y339294D01*
X111453Y339377D01*
X111399Y339463D01*
X111348Y339551D01*
X111301Y339640D01*
X111257Y339732D01*
X111217Y339825D01*
X111180Y339919D01*
X111148Y340015D01*
X111119Y340112D01*
X111093Y340210D01*
X111072Y340309D01*
X111054Y340409D01*
X111041Y340509D01*
X111031Y340610D01*
X111025Y340711D01*
X111023Y340812D01*
X120167Y342900D02*
X120169Y343085D01*
X120176Y343270D01*
X120187Y343454D01*
X120202Y343638D01*
X120222Y343822D01*
X120246Y344006D01*
X120275Y344188D01*
X120308Y344370D01*
X120345Y344551D01*
X120387Y344731D01*
X120433Y344911D01*
X120483Y345089D01*
X120537Y345265D01*
X120596Y345441D01*
X120658Y345615D01*
X120725Y345787D01*
X120796Y345958D01*
X120871Y346127D01*
X120950Y346294D01*
X120980Y346374D01*
X121013Y346453D01*
X121050Y346530D01*
X121090Y346606D01*
X121133Y346680D01*
X121179Y346752D01*
X121229Y346821D01*
X121281Y346889D01*
X121337Y346954D01*
X121395Y347017D01*
X121457Y347076D01*
X121520Y347134D01*
X121587Y347188D01*
X121655Y347239D01*
X121726Y347287D01*
X121799Y347332D01*
X121873Y347374D01*
X121950Y347412D01*
X122028Y347447D01*
X122107Y347479D01*
X122188Y347507D01*
X122270Y347531D01*
X122354Y347552D01*
X122437Y347569D01*
X122522Y347582D01*
X122607Y347591D01*
X122692Y347597D01*
X122778Y347599D01*
X122864Y347597D01*
X122949Y347591D01*
X123034Y347582D01*
X123119Y347569D01*
X123202Y347552D01*
X123286Y347531D01*
X123368Y347507D01*
X123449Y347479D01*
X123528Y347447D01*
X123606Y347412D01*
X123683Y347374D01*
X123757Y347332D01*
X123830Y347287D01*
X123901Y347239D01*
X123969Y347188D01*
X124036Y347134D01*
X124099Y347076D01*
X124161Y347017D01*
X124219Y346954D01*
X124275Y346889D01*
X124327Y346821D01*
X124377Y346752D01*
X124423Y346680D01*
X124466Y346606D01*
X124506Y346530D01*
X124543Y346453D01*
X124576Y346374D01*
X124606Y346294D01*
X124685Y346127D01*
X124760Y345958D01*
X124831Y345787D01*
X124898Y345615D01*
X124960Y345441D01*
X125019Y345265D01*
X125073Y345089D01*
X125123Y344911D01*
X125169Y344731D01*
X125211Y344551D01*
X125248Y344370D01*
X125281Y344188D01*
X125310Y344006D01*
X125334Y343822D01*
X125354Y343638D01*
X125369Y343454D01*
X125380Y343270D01*
X125387Y343085D01*
X125389Y342900D01*
X120167Y342900D02*
X120169Y342715D01*
X120176Y342530D01*
X120187Y342346D01*
X120202Y342162D01*
X120222Y341978D01*
X120246Y341794D01*
X120275Y341612D01*
X120308Y341430D01*
X120345Y341249D01*
X120387Y341069D01*
X120433Y340889D01*
X120483Y340711D01*
X120537Y340535D01*
X120596Y340359D01*
X120658Y340185D01*
X120725Y340013D01*
X120796Y339842D01*
X120871Y339673D01*
X120950Y339506D01*
X120980Y339426D01*
X121013Y339347D01*
X121050Y339270D01*
X121090Y339194D01*
X121133Y339120D01*
X121179Y339048D01*
X121229Y338979D01*
X121282Y338911D01*
X121337Y338846D01*
X121396Y338783D01*
X121457Y338724D01*
X121520Y338666D01*
X121587Y338612D01*
X121655Y338561D01*
X121726Y338513D01*
X121799Y338468D01*
X121873Y338426D01*
X121950Y338388D01*
X122028Y338353D01*
X122107Y338321D01*
X122188Y338293D01*
X122270Y338269D01*
X122354Y338248D01*
X122437Y338231D01*
X122522Y338218D01*
X122607Y338209D01*
X122692Y338203D01*
X122778Y338201D01*
X124606Y339506D02*
X124685Y339673D01*
X124760Y339842D01*
X124831Y340013D01*
X124898Y340185D01*
X124960Y340359D01*
X125019Y340535D01*
X125073Y340711D01*
X125123Y340889D01*
X125169Y341069D01*
X125211Y341249D01*
X125248Y341430D01*
X125281Y341612D01*
X125310Y341794D01*
X125334Y341978D01*
X125354Y342162D01*
X125369Y342346D01*
X125380Y342530D01*
X125387Y342715D01*
X125389Y342900D01*
X124606Y339506D02*
X124576Y339426D01*
X124543Y339347D01*
X124506Y339270D01*
X124466Y339194D01*
X124423Y339120D01*
X124377Y339048D01*
X124327Y338979D01*
X124275Y338911D01*
X124219Y338846D01*
X124161Y338783D01*
X124099Y338724D01*
X124036Y338666D01*
X123969Y338612D01*
X123901Y338561D01*
X123830Y338513D01*
X123757Y338468D01*
X123683Y338426D01*
X123606Y338388D01*
X123528Y338353D01*
X123449Y338321D01*
X123368Y338293D01*
X123286Y338269D01*
X123202Y338248D01*
X123119Y338231D01*
X123034Y338218D01*
X122949Y338209D01*
X122864Y338203D01*
X122778Y338201D01*
X120689Y340289D02*
X124866Y345511D01*
X89648Y236601D02*
X87559Y236601D01*
X87470Y236603D01*
X87382Y236609D01*
X87294Y236618D01*
X87206Y236631D01*
X87119Y236648D01*
X87033Y236668D01*
X86948Y236693D01*
X86863Y236720D01*
X86780Y236752D01*
X86699Y236786D01*
X86619Y236825D01*
X86541Y236866D01*
X86464Y236911D01*
X86390Y236959D01*
X86317Y237010D01*
X86247Y237064D01*
X86180Y237122D01*
X86114Y237182D01*
X86052Y237244D01*
X85992Y237310D01*
X85934Y237377D01*
X85880Y237447D01*
X85829Y237520D01*
X85781Y237594D01*
X85736Y237671D01*
X85695Y237749D01*
X85656Y237829D01*
X85622Y237910D01*
X85590Y237993D01*
X85563Y238078D01*
X85538Y238163D01*
X85518Y238249D01*
X85501Y238336D01*
X85488Y238424D01*
X85479Y238512D01*
X85473Y238600D01*
X85471Y238689D01*
X85471Y243911D01*
X85473Y244002D01*
X85479Y244093D01*
X85489Y244184D01*
X85503Y244274D01*
X85520Y244363D01*
X85542Y244451D01*
X85568Y244539D01*
X85597Y244625D01*
X85630Y244710D01*
X85667Y244793D01*
X85707Y244875D01*
X85751Y244955D01*
X85798Y245033D01*
X85849Y245109D01*
X85902Y245182D01*
X85959Y245253D01*
X86020Y245322D01*
X86083Y245387D01*
X86148Y245450D01*
X86217Y245510D01*
X86288Y245568D01*
X86361Y245621D01*
X86437Y245672D01*
X86515Y245719D01*
X86595Y245763D01*
X86677Y245803D01*
X86760Y245840D01*
X86845Y245873D01*
X86931Y245902D01*
X87019Y245928D01*
X87107Y245950D01*
X87196Y245967D01*
X87286Y245981D01*
X87377Y245991D01*
X87468Y245997D01*
X87559Y245999D01*
X89648Y245999D01*
X98033Y238689D02*
X98031Y238600D01*
X98025Y238512D01*
X98016Y238424D01*
X98003Y238336D01*
X97986Y238249D01*
X97966Y238163D01*
X97941Y238078D01*
X97914Y237993D01*
X97882Y237910D01*
X97848Y237829D01*
X97809Y237749D01*
X97768Y237671D01*
X97723Y237594D01*
X97675Y237520D01*
X97624Y237447D01*
X97570Y237377D01*
X97512Y237310D01*
X97452Y237244D01*
X97390Y237182D01*
X97324Y237122D01*
X97257Y237064D01*
X97187Y237010D01*
X97114Y236959D01*
X97040Y236911D01*
X96963Y236866D01*
X96885Y236825D01*
X96805Y236786D01*
X96724Y236752D01*
X96641Y236720D01*
X96556Y236693D01*
X96471Y236668D01*
X96385Y236648D01*
X96298Y236631D01*
X96210Y236618D01*
X96122Y236609D01*
X96034Y236603D01*
X95945Y236601D01*
X95816Y236603D01*
X95687Y236609D01*
X95558Y236618D01*
X95430Y236631D01*
X95302Y236648D01*
X95175Y236669D01*
X95048Y236693D01*
X94922Y236721D01*
X94797Y236753D01*
X94673Y236788D01*
X94550Y236827D01*
X94428Y236870D01*
X94308Y236916D01*
X94189Y236966D01*
X94071Y237019D01*
X93955Y237075D01*
X93841Y237135D01*
X93728Y237198D01*
X93618Y237265D01*
X93509Y237334D01*
X93403Y237407D01*
X93298Y237483D01*
X93196Y237562D01*
X93097Y237644D01*
X92999Y237728D01*
X92904Y237816D01*
X92812Y237906D01*
X93073Y243911D02*
X93075Y244000D01*
X93081Y244088D01*
X93090Y244176D01*
X93103Y244264D01*
X93120Y244351D01*
X93140Y244437D01*
X93165Y244522D01*
X93192Y244607D01*
X93224Y244690D01*
X93258Y244771D01*
X93297Y244851D01*
X93338Y244929D01*
X93383Y245006D01*
X93431Y245080D01*
X93482Y245153D01*
X93536Y245223D01*
X93594Y245290D01*
X93654Y245356D01*
X93716Y245418D01*
X93782Y245478D01*
X93849Y245536D01*
X93919Y245590D01*
X93992Y245641D01*
X94066Y245689D01*
X94143Y245734D01*
X94221Y245775D01*
X94301Y245814D01*
X94382Y245848D01*
X94465Y245880D01*
X94550Y245907D01*
X94635Y245932D01*
X94721Y245952D01*
X94808Y245969D01*
X94896Y245982D01*
X94984Y245991D01*
X95072Y245997D01*
X95161Y245999D01*
X95281Y245997D01*
X95401Y245992D01*
X95521Y245982D01*
X95640Y245970D01*
X95759Y245953D01*
X95877Y245933D01*
X95995Y245909D01*
X96111Y245882D01*
X96227Y245851D01*
X96342Y245817D01*
X96456Y245779D01*
X96569Y245737D01*
X96680Y245692D01*
X96790Y245644D01*
X96898Y245593D01*
X97005Y245538D01*
X97110Y245480D01*
X97213Y245418D01*
X97314Y245354D01*
X97414Y245286D01*
X97511Y245216D01*
X94117Y242084D02*
X94039Y242132D01*
X93963Y242184D01*
X93890Y242238D01*
X93819Y242296D01*
X93750Y242357D01*
X93684Y242421D01*
X93621Y242488D01*
X93561Y242557D01*
X93504Y242629D01*
X93450Y242703D01*
X93400Y242780D01*
X93352Y242859D01*
X93309Y242939D01*
X93268Y243022D01*
X93232Y243106D01*
X93199Y243191D01*
X93170Y243278D01*
X93144Y243367D01*
X93122Y243456D01*
X93105Y243546D01*
X93091Y243636D01*
X93081Y243728D01*
X93075Y243819D01*
X93073Y243911D01*
X96989Y240516D02*
X97067Y240468D01*
X97143Y240416D01*
X97216Y240362D01*
X97287Y240304D01*
X97356Y240243D01*
X97422Y240179D01*
X97485Y240112D01*
X97545Y240043D01*
X97602Y239971D01*
X97656Y239897D01*
X97706Y239820D01*
X97754Y239741D01*
X97797Y239661D01*
X97838Y239578D01*
X97874Y239494D01*
X97907Y239409D01*
X97936Y239322D01*
X97962Y239233D01*
X97984Y239144D01*
X98001Y239054D01*
X98015Y238964D01*
X98025Y238872D01*
X98031Y238781D01*
X98033Y238689D01*
X96989Y240517D02*
X94117Y242083D01*
X101956Y245999D02*
X101956Y236601D01*
X107177Y236601D02*
X101956Y245999D01*
X107177Y245999D02*
X107177Y236601D01*
X-11049Y68199D02*
X-11049Y58801D01*
X-11049Y68199D02*
X-8438Y68199D01*
X-8337Y68197D01*
X-8236Y68191D01*
X-8135Y68181D01*
X-8035Y68168D01*
X-7935Y68150D01*
X-7836Y68129D01*
X-7738Y68103D01*
X-7641Y68074D01*
X-7545Y68042D01*
X-7451Y68005D01*
X-7358Y67965D01*
X-7266Y67921D01*
X-7177Y67874D01*
X-7089Y67823D01*
X-7003Y67769D01*
X-6920Y67712D01*
X-6838Y67652D01*
X-6760Y67588D01*
X-6683Y67522D01*
X-6610Y67452D01*
X-6539Y67380D01*
X-6471Y67305D01*
X-6406Y67227D01*
X-6344Y67147D01*
X-6285Y67065D01*
X-6229Y66980D01*
X-6177Y66893D01*
X-6128Y66805D01*
X-6082Y66714D01*
X-6041Y66622D01*
X-6002Y66528D01*
X-5968Y66433D01*
X-5937Y66337D01*
X-5910Y66239D01*
X-5886Y66141D01*
X-5867Y66041D01*
X-5851Y65941D01*
X-5839Y65841D01*
X-5831Y65740D01*
X-5827Y65639D01*
X-5827Y65537D01*
X-5831Y65436D01*
X-5839Y65335D01*
X-5851Y65235D01*
X-5867Y65135D01*
X-5886Y65035D01*
X-5910Y64937D01*
X-5937Y64839D01*
X-5968Y64743D01*
X-6002Y64648D01*
X-6041Y64554D01*
X-6082Y64462D01*
X-6128Y64371D01*
X-6177Y64282D01*
X-6229Y64196D01*
X-6285Y64111D01*
X-6344Y64029D01*
X-6406Y63949D01*
X-6471Y63871D01*
X-6539Y63796D01*
X-6610Y63724D01*
X-6683Y63654D01*
X-6760Y63588D01*
X-6838Y63524D01*
X-6920Y63464D01*
X-7003Y63407D01*
X-7089Y63353D01*
X-7177Y63302D01*
X-7266Y63255D01*
X-7358Y63211D01*
X-7451Y63171D01*
X-7545Y63134D01*
X-7641Y63102D01*
X-7738Y63073D01*
X-7836Y63047D01*
X-7935Y63026D01*
X-8035Y63008D01*
X-8135Y62995D01*
X-8236Y62985D01*
X-8337Y62979D01*
X-8438Y62977D01*
X-8438Y62978D02*
X-11049Y62978D01*
X-7916Y62978D02*
X-5828Y58801D01*
X866Y58801D02*
X955Y58803D01*
X1043Y58809D01*
X1131Y58818D01*
X1219Y58831D01*
X1306Y58848D01*
X1392Y58868D01*
X1477Y58893D01*
X1562Y58920D01*
X1645Y58952D01*
X1726Y58986D01*
X1806Y59025D01*
X1884Y59066D01*
X1961Y59111D01*
X2035Y59159D01*
X2108Y59210D01*
X2178Y59264D01*
X2245Y59322D01*
X2311Y59382D01*
X2373Y59444D01*
X2433Y59510D01*
X2491Y59577D01*
X2545Y59647D01*
X2596Y59720D01*
X2644Y59794D01*
X2689Y59871D01*
X2730Y59949D01*
X2769Y60029D01*
X2803Y60110D01*
X2835Y60193D01*
X2862Y60278D01*
X2887Y60363D01*
X2907Y60449D01*
X2924Y60536D01*
X2937Y60624D01*
X2946Y60712D01*
X2952Y60800D01*
X2954Y60889D01*
X866Y58801D02*
X737Y58803D01*
X608Y58809D01*
X479Y58818D01*
X351Y58831D01*
X223Y58848D01*
X96Y58869D01*
X-31Y58893D01*
X-157Y58921D01*
X-282Y58953D01*
X-406Y58988D01*
X-529Y59027D01*
X-651Y59070D01*
X-771Y59116D01*
X-890Y59166D01*
X-1008Y59219D01*
X-1124Y59275D01*
X-1238Y59335D01*
X-1351Y59398D01*
X-1461Y59465D01*
X-1570Y59534D01*
X-1676Y59607D01*
X-1781Y59683D01*
X-1883Y59762D01*
X-1983Y59844D01*
X-2080Y59928D01*
X-2175Y60016D01*
X-2267Y60106D01*
X-2005Y66111D02*
X-2003Y66200D01*
X-1997Y66288D01*
X-1988Y66376D01*
X-1975Y66464D01*
X-1958Y66551D01*
X-1938Y66637D01*
X-1913Y66722D01*
X-1886Y66807D01*
X-1854Y66890D01*
X-1820Y66971D01*
X-1781Y67051D01*
X-1740Y67129D01*
X-1695Y67206D01*
X-1647Y67280D01*
X-1596Y67353D01*
X-1542Y67423D01*
X-1484Y67490D01*
X-1424Y67556D01*
X-1362Y67618D01*
X-1296Y67678D01*
X-1229Y67736D01*
X-1159Y67790D01*
X-1086Y67841D01*
X-1012Y67889D01*
X-935Y67934D01*
X-857Y67975D01*
X-777Y68014D01*
X-696Y68048D01*
X-613Y68080D01*
X-528Y68107D01*
X-443Y68132D01*
X-357Y68152D01*
X-270Y68169D01*
X-182Y68182D01*
X-94Y68191D01*
X-6Y68197D01*
X83Y68199D01*
X203Y68197D01*
X323Y68192D01*
X442Y68182D01*
X562Y68170D01*
X681Y68153D01*
X799Y68133D01*
X917Y68109D01*
X1033Y68082D01*
X1149Y68051D01*
X1264Y68017D01*
X1378Y67979D01*
X1491Y67937D01*
X1602Y67892D01*
X1712Y67844D01*
X1820Y67793D01*
X1927Y67738D01*
X2032Y67680D01*
X2135Y67618D01*
X2236Y67554D01*
X2336Y67486D01*
X2433Y67416D01*
X-962Y64284D02*
X-1040Y64332D01*
X-1116Y64384D01*
X-1189Y64438D01*
X-1260Y64496D01*
X-1329Y64557D01*
X-1395Y64621D01*
X-1458Y64688D01*
X-1518Y64757D01*
X-1575Y64829D01*
X-1629Y64903D01*
X-1679Y64980D01*
X-1727Y65059D01*
X-1770Y65139D01*
X-1811Y65222D01*
X-1847Y65306D01*
X-1880Y65391D01*
X-1909Y65478D01*
X-1935Y65567D01*
X-1957Y65656D01*
X-1974Y65746D01*
X-1988Y65836D01*
X-1998Y65928D01*
X-2004Y66019D01*
X-2006Y66111D01*
X1910Y62716D02*
X1988Y62668D01*
X2064Y62616D01*
X2137Y62562D01*
X2208Y62504D01*
X2277Y62443D01*
X2343Y62379D01*
X2406Y62312D01*
X2466Y62243D01*
X2523Y62171D01*
X2577Y62097D01*
X2627Y62020D01*
X2675Y61941D01*
X2718Y61861D01*
X2759Y61778D01*
X2795Y61694D01*
X2828Y61609D01*
X2857Y61522D01*
X2883Y61433D01*
X2905Y61344D01*
X2922Y61254D01*
X2936Y61164D01*
X2946Y61072D01*
X2952Y60981D01*
X2954Y60889D01*
X1910Y62717D02*
X-962Y64283D01*
X8573Y68199D02*
X8573Y58801D01*
X5963Y68199D02*
X11184Y68199D01*
X-11049Y90551D02*
X-11049Y99949D01*
X-11049Y95772D02*
X-5828Y95772D01*
X-5828Y99949D02*
X-5828Y90551D01*
X-1600Y93162D02*
X-1600Y97338D01*
X-1601Y97338D02*
X-1599Y97439D01*
X-1593Y97540D01*
X-1583Y97641D01*
X-1570Y97741D01*
X-1552Y97841D01*
X-1531Y97940D01*
X-1505Y98038D01*
X-1476Y98135D01*
X-1444Y98231D01*
X-1407Y98325D01*
X-1367Y98418D01*
X-1323Y98510D01*
X-1276Y98599D01*
X-1225Y98687D01*
X-1171Y98773D01*
X-1114Y98856D01*
X-1054Y98938D01*
X-990Y99016D01*
X-924Y99093D01*
X-854Y99166D01*
X-782Y99237D01*
X-707Y99305D01*
X-629Y99370D01*
X-549Y99432D01*
X-467Y99491D01*
X-382Y99547D01*
X-295Y99599D01*
X-207Y99648D01*
X-116Y99694D01*
X-24Y99735D01*
X70Y99774D01*
X165Y99808D01*
X261Y99839D01*
X359Y99866D01*
X457Y99890D01*
X557Y99909D01*
X657Y99925D01*
X757Y99937D01*
X858Y99945D01*
X959Y99949D01*
X1061Y99949D01*
X1162Y99945D01*
X1263Y99937D01*
X1363Y99925D01*
X1463Y99909D01*
X1563Y99890D01*
X1661Y99866D01*
X1759Y99839D01*
X1855Y99808D01*
X1950Y99774D01*
X2044Y99735D01*
X2136Y99694D01*
X2227Y99648D01*
X2316Y99599D01*
X2402Y99547D01*
X2487Y99491D01*
X2569Y99432D01*
X2649Y99370D01*
X2727Y99305D01*
X2802Y99237D01*
X2874Y99166D01*
X2944Y99093D01*
X3010Y99016D01*
X3074Y98938D01*
X3134Y98856D01*
X3191Y98773D01*
X3245Y98687D01*
X3296Y98599D01*
X3343Y98510D01*
X3387Y98418D01*
X3427Y98325D01*
X3464Y98231D01*
X3496Y98135D01*
X3525Y98038D01*
X3551Y97940D01*
X3572Y97841D01*
X3590Y97741D01*
X3603Y97641D01*
X3613Y97540D01*
X3619Y97439D01*
X3621Y97338D01*
X3621Y93162D01*
X3619Y93061D01*
X3613Y92960D01*
X3603Y92859D01*
X3590Y92759D01*
X3572Y92659D01*
X3551Y92560D01*
X3525Y92462D01*
X3496Y92365D01*
X3464Y92269D01*
X3427Y92175D01*
X3387Y92082D01*
X3343Y91990D01*
X3296Y91901D01*
X3245Y91813D01*
X3191Y91727D01*
X3134Y91644D01*
X3074Y91562D01*
X3010Y91484D01*
X2944Y91407D01*
X2874Y91334D01*
X2802Y91263D01*
X2727Y91195D01*
X2649Y91130D01*
X2569Y91068D01*
X2487Y91009D01*
X2402Y90953D01*
X2315Y90901D01*
X2227Y90852D01*
X2136Y90806D01*
X2044Y90765D01*
X1950Y90726D01*
X1855Y90692D01*
X1759Y90661D01*
X1661Y90634D01*
X1563Y90610D01*
X1463Y90591D01*
X1363Y90575D01*
X1263Y90563D01*
X1162Y90555D01*
X1061Y90551D01*
X959Y90551D01*
X858Y90555D01*
X757Y90563D01*
X657Y90575D01*
X557Y90591D01*
X457Y90610D01*
X359Y90634D01*
X261Y90661D01*
X165Y90692D01*
X70Y90726D01*
X-24Y90765D01*
X-116Y90806D01*
X-207Y90852D01*
X-296Y90901D01*
X-382Y90953D01*
X-467Y91009D01*
X-549Y91068D01*
X-629Y91130D01*
X-707Y91195D01*
X-782Y91263D01*
X-854Y91334D01*
X-924Y91407D01*
X-990Y91484D01*
X-1054Y91562D01*
X-1114Y91644D01*
X-1171Y91727D01*
X-1225Y91813D01*
X-1276Y91901D01*
X-1323Y91990D01*
X-1367Y92082D01*
X-1407Y92175D01*
X-1444Y92269D01*
X-1476Y92365D01*
X-1505Y92462D01*
X-1531Y92560D01*
X-1552Y92659D01*
X-1570Y92759D01*
X-1583Y92859D01*
X-1593Y92960D01*
X-1599Y93061D01*
X-1601Y93162D01*
X10372Y90551D02*
X10461Y90553D01*
X10549Y90559D01*
X10637Y90568D01*
X10725Y90581D01*
X10812Y90598D01*
X10898Y90618D01*
X10983Y90643D01*
X11068Y90670D01*
X11151Y90702D01*
X11232Y90736D01*
X11312Y90775D01*
X11390Y90816D01*
X11467Y90861D01*
X11541Y90909D01*
X11614Y90960D01*
X11684Y91014D01*
X11751Y91072D01*
X11817Y91132D01*
X11879Y91194D01*
X11939Y91260D01*
X11997Y91327D01*
X12051Y91397D01*
X12102Y91470D01*
X12150Y91544D01*
X12195Y91621D01*
X12236Y91699D01*
X12275Y91779D01*
X12309Y91860D01*
X12341Y91943D01*
X12368Y92028D01*
X12393Y92113D01*
X12413Y92199D01*
X12430Y92286D01*
X12443Y92374D01*
X12452Y92462D01*
X12458Y92550D01*
X12460Y92639D01*
X10372Y90551D02*
X10243Y90553D01*
X10114Y90559D01*
X9985Y90568D01*
X9857Y90581D01*
X9729Y90598D01*
X9602Y90619D01*
X9475Y90643D01*
X9349Y90671D01*
X9224Y90703D01*
X9100Y90738D01*
X8977Y90777D01*
X8855Y90820D01*
X8735Y90866D01*
X8616Y90916D01*
X8498Y90969D01*
X8382Y91025D01*
X8268Y91085D01*
X8155Y91148D01*
X8045Y91215D01*
X7936Y91284D01*
X7830Y91357D01*
X7725Y91433D01*
X7623Y91512D01*
X7524Y91594D01*
X7426Y91678D01*
X7331Y91766D01*
X7239Y91856D01*
X7500Y97861D02*
X7502Y97950D01*
X7508Y98038D01*
X7517Y98126D01*
X7530Y98214D01*
X7547Y98301D01*
X7567Y98387D01*
X7592Y98472D01*
X7619Y98557D01*
X7651Y98640D01*
X7685Y98721D01*
X7724Y98801D01*
X7765Y98879D01*
X7810Y98956D01*
X7858Y99030D01*
X7909Y99103D01*
X7963Y99173D01*
X8021Y99240D01*
X8081Y99306D01*
X8143Y99368D01*
X8209Y99428D01*
X8276Y99486D01*
X8346Y99540D01*
X8419Y99591D01*
X8493Y99639D01*
X8570Y99684D01*
X8648Y99725D01*
X8728Y99764D01*
X8809Y99798D01*
X8892Y99830D01*
X8977Y99857D01*
X9062Y99882D01*
X9148Y99902D01*
X9235Y99919D01*
X9323Y99932D01*
X9411Y99941D01*
X9499Y99947D01*
X9588Y99949D01*
X9708Y99947D01*
X9828Y99942D01*
X9948Y99932D01*
X10067Y99920D01*
X10186Y99903D01*
X10304Y99883D01*
X10422Y99859D01*
X10538Y99832D01*
X10654Y99801D01*
X10769Y99767D01*
X10883Y99729D01*
X10996Y99687D01*
X11107Y99642D01*
X11217Y99594D01*
X11325Y99543D01*
X11432Y99488D01*
X11537Y99430D01*
X11640Y99368D01*
X11741Y99304D01*
X11841Y99236D01*
X11938Y99166D01*
X8544Y96034D02*
X8466Y96082D01*
X8390Y96134D01*
X8317Y96188D01*
X8246Y96246D01*
X8177Y96307D01*
X8111Y96371D01*
X8048Y96438D01*
X7988Y96507D01*
X7931Y96579D01*
X7877Y96653D01*
X7827Y96730D01*
X7779Y96809D01*
X7736Y96889D01*
X7695Y96972D01*
X7659Y97056D01*
X7626Y97141D01*
X7597Y97228D01*
X7571Y97317D01*
X7549Y97406D01*
X7532Y97496D01*
X7518Y97586D01*
X7508Y97678D01*
X7502Y97769D01*
X7500Y97861D01*
X11416Y94466D02*
X11494Y94418D01*
X11570Y94366D01*
X11643Y94312D01*
X11714Y94254D01*
X11783Y94193D01*
X11849Y94129D01*
X11912Y94062D01*
X11972Y93993D01*
X12029Y93921D01*
X12083Y93847D01*
X12133Y93770D01*
X12181Y93691D01*
X12224Y93611D01*
X12265Y93528D01*
X12301Y93444D01*
X12334Y93359D01*
X12363Y93272D01*
X12389Y93183D01*
X12411Y93094D01*
X12428Y93004D01*
X12442Y92914D01*
X12452Y92822D01*
X12458Y92731D01*
X12460Y92639D01*
X11416Y94467D02*
X8544Y96033D01*
X18079Y99949D02*
X18079Y90551D01*
X15469Y99949D02*
X20690Y99949D01*
X-11049Y84709D02*
X-11049Y75311D01*
X-11049Y84709D02*
X-8438Y84709D01*
X-8337Y84707D01*
X-8236Y84701D01*
X-8135Y84691D01*
X-8035Y84678D01*
X-7935Y84660D01*
X-7836Y84639D01*
X-7738Y84613D01*
X-7641Y84584D01*
X-7545Y84552D01*
X-7451Y84515D01*
X-7358Y84475D01*
X-7266Y84431D01*
X-7177Y84384D01*
X-7089Y84333D01*
X-7003Y84279D01*
X-6920Y84222D01*
X-6838Y84162D01*
X-6760Y84098D01*
X-6683Y84032D01*
X-6610Y83962D01*
X-6539Y83890D01*
X-6471Y83815D01*
X-6406Y83737D01*
X-6344Y83657D01*
X-6285Y83575D01*
X-6229Y83490D01*
X-6177Y83403D01*
X-6128Y83315D01*
X-6082Y83224D01*
X-6041Y83132D01*
X-6002Y83038D01*
X-5968Y82943D01*
X-5937Y82847D01*
X-5910Y82749D01*
X-5886Y82651D01*
X-5867Y82551D01*
X-5851Y82451D01*
X-5839Y82351D01*
X-5831Y82250D01*
X-5827Y82149D01*
X-5827Y82047D01*
X-5831Y81946D01*
X-5839Y81845D01*
X-5851Y81745D01*
X-5867Y81645D01*
X-5886Y81545D01*
X-5910Y81447D01*
X-5937Y81349D01*
X-5968Y81253D01*
X-6002Y81158D01*
X-6041Y81064D01*
X-6082Y80972D01*
X-6128Y80881D01*
X-6177Y80792D01*
X-6229Y80706D01*
X-6285Y80621D01*
X-6344Y80539D01*
X-6406Y80459D01*
X-6471Y80381D01*
X-6539Y80306D01*
X-6610Y80234D01*
X-6683Y80164D01*
X-6760Y80098D01*
X-6838Y80034D01*
X-6920Y79974D01*
X-7003Y79917D01*
X-7089Y79863D01*
X-7177Y79812D01*
X-7266Y79765D01*
X-7358Y79721D01*
X-7451Y79681D01*
X-7545Y79644D01*
X-7641Y79612D01*
X-7738Y79583D01*
X-7836Y79557D01*
X-7935Y79536D01*
X-8035Y79518D01*
X-8135Y79505D01*
X-8236Y79495D01*
X-8337Y79489D01*
X-8438Y79487D01*
X-8438Y79488D02*
X-11049Y79488D01*
X-7916Y79488D02*
X-5828Y75311D01*
X-1640Y75311D02*
X2537Y75311D01*
X-1640Y75311D02*
X-1640Y84709D01*
X2537Y84709D01*
X1493Y80532D02*
X-1640Y80532D01*
X5441Y75311D02*
X8573Y84709D01*
X11706Y75311D01*
X10923Y77661D02*
X6224Y77661D01*
X15411Y75311D02*
X15411Y84709D01*
X18022Y84709D01*
X18122Y84707D01*
X18222Y84701D01*
X18321Y84692D01*
X18421Y84678D01*
X18519Y84661D01*
X18617Y84640D01*
X18714Y84616D01*
X18810Y84587D01*
X18905Y84555D01*
X18998Y84520D01*
X19090Y84481D01*
X19181Y84438D01*
X19269Y84392D01*
X19356Y84342D01*
X19441Y84290D01*
X19524Y84234D01*
X19605Y84175D01*
X19683Y84112D01*
X19759Y84047D01*
X19833Y83979D01*
X19903Y83909D01*
X19971Y83835D01*
X20036Y83759D01*
X20099Y83681D01*
X20158Y83600D01*
X20214Y83517D01*
X20266Y83432D01*
X20316Y83345D01*
X20362Y83257D01*
X20405Y83166D01*
X20444Y83074D01*
X20479Y82981D01*
X20511Y82886D01*
X20540Y82790D01*
X20564Y82693D01*
X20585Y82595D01*
X20602Y82497D01*
X20616Y82397D01*
X20625Y82298D01*
X20631Y82198D01*
X20633Y82098D01*
X20633Y77922D01*
X20631Y77822D01*
X20625Y77722D01*
X20616Y77623D01*
X20602Y77523D01*
X20585Y77425D01*
X20564Y77327D01*
X20540Y77230D01*
X20511Y77134D01*
X20479Y77039D01*
X20444Y76946D01*
X20405Y76854D01*
X20362Y76763D01*
X20316Y76675D01*
X20266Y76588D01*
X20214Y76503D01*
X20158Y76420D01*
X20099Y76339D01*
X20036Y76261D01*
X19971Y76185D01*
X19903Y76111D01*
X19833Y76041D01*
X19759Y75973D01*
X19683Y75908D01*
X19605Y75845D01*
X19524Y75786D01*
X19441Y75730D01*
X19356Y75678D01*
X19269Y75628D01*
X19181Y75582D01*
X19090Y75539D01*
X18998Y75500D01*
X18905Y75465D01*
X18810Y75433D01*
X18714Y75404D01*
X18617Y75380D01*
X18519Y75359D01*
X18421Y75342D01*
X18321Y75328D01*
X18222Y75319D01*
X18122Y75313D01*
X18022Y75311D01*
X15411Y75311D01*
X24338Y84709D02*
X27471Y80271D01*
X30603Y84709D01*
X27471Y80271D02*
X27471Y75311D01*
X89874Y439801D02*
X89963Y439803D01*
X90051Y439809D01*
X90139Y439818D01*
X90227Y439831D01*
X90314Y439848D01*
X90400Y439868D01*
X90485Y439893D01*
X90570Y439920D01*
X90653Y439952D01*
X90734Y439986D01*
X90814Y440025D01*
X90892Y440066D01*
X90969Y440111D01*
X91043Y440159D01*
X91116Y440210D01*
X91186Y440264D01*
X91253Y440322D01*
X91319Y440382D01*
X91381Y440444D01*
X91441Y440510D01*
X91499Y440577D01*
X91553Y440647D01*
X91604Y440720D01*
X91652Y440794D01*
X91697Y440871D01*
X91738Y440949D01*
X91777Y441029D01*
X91811Y441110D01*
X91843Y441193D01*
X91870Y441278D01*
X91895Y441363D01*
X91915Y441449D01*
X91932Y441536D01*
X91945Y441624D01*
X91954Y441712D01*
X91960Y441800D01*
X91962Y441889D01*
X89874Y439801D02*
X89745Y439803D01*
X89616Y439809D01*
X89487Y439818D01*
X89359Y439831D01*
X89231Y439848D01*
X89104Y439869D01*
X88977Y439893D01*
X88851Y439921D01*
X88726Y439953D01*
X88602Y439988D01*
X88479Y440027D01*
X88357Y440070D01*
X88237Y440116D01*
X88118Y440166D01*
X88000Y440219D01*
X87884Y440275D01*
X87770Y440335D01*
X87657Y440398D01*
X87547Y440465D01*
X87438Y440534D01*
X87332Y440607D01*
X87227Y440683D01*
X87125Y440762D01*
X87026Y440844D01*
X86928Y440928D01*
X86833Y441016D01*
X86741Y441106D01*
X87002Y447111D02*
X87004Y447200D01*
X87010Y447288D01*
X87019Y447376D01*
X87032Y447464D01*
X87049Y447551D01*
X87069Y447637D01*
X87094Y447722D01*
X87121Y447807D01*
X87153Y447890D01*
X87187Y447971D01*
X87226Y448051D01*
X87267Y448129D01*
X87312Y448206D01*
X87360Y448280D01*
X87411Y448353D01*
X87465Y448423D01*
X87523Y448490D01*
X87583Y448556D01*
X87645Y448618D01*
X87711Y448678D01*
X87778Y448736D01*
X87848Y448790D01*
X87921Y448841D01*
X87995Y448889D01*
X88072Y448934D01*
X88150Y448975D01*
X88230Y449014D01*
X88311Y449048D01*
X88394Y449080D01*
X88479Y449107D01*
X88564Y449132D01*
X88650Y449152D01*
X88737Y449169D01*
X88825Y449182D01*
X88913Y449191D01*
X89001Y449197D01*
X89090Y449199D01*
X89210Y449197D01*
X89330Y449192D01*
X89450Y449182D01*
X89569Y449170D01*
X89688Y449153D01*
X89806Y449133D01*
X89924Y449109D01*
X90040Y449082D01*
X90156Y449051D01*
X90271Y449017D01*
X90385Y448979D01*
X90498Y448937D01*
X90609Y448892D01*
X90719Y448844D01*
X90827Y448793D01*
X90934Y448738D01*
X91039Y448680D01*
X91142Y448618D01*
X91243Y448554D01*
X91343Y448486D01*
X91440Y448416D01*
X88046Y445284D02*
X87968Y445332D01*
X87892Y445384D01*
X87819Y445438D01*
X87748Y445496D01*
X87679Y445557D01*
X87613Y445621D01*
X87550Y445688D01*
X87490Y445757D01*
X87433Y445829D01*
X87379Y445903D01*
X87329Y445980D01*
X87281Y446059D01*
X87238Y446139D01*
X87197Y446222D01*
X87161Y446306D01*
X87128Y446391D01*
X87099Y446478D01*
X87073Y446567D01*
X87051Y446656D01*
X87034Y446746D01*
X87020Y446836D01*
X87010Y446928D01*
X87004Y447019D01*
X87002Y447111D01*
X90918Y443716D02*
X90996Y443668D01*
X91072Y443616D01*
X91145Y443562D01*
X91216Y443504D01*
X91285Y443443D01*
X91351Y443379D01*
X91414Y443312D01*
X91474Y443243D01*
X91531Y443171D01*
X91585Y443097D01*
X91635Y443020D01*
X91683Y442941D01*
X91726Y442861D01*
X91767Y442778D01*
X91803Y442694D01*
X91836Y442609D01*
X91865Y442522D01*
X91891Y442433D01*
X91913Y442344D01*
X91930Y442254D01*
X91944Y442164D01*
X91954Y442072D01*
X91960Y441981D01*
X91962Y441889D01*
X90918Y443717D02*
X88046Y445283D01*
X95885Y449199D02*
X95885Y439801D01*
X95885Y449199D02*
X98496Y449199D01*
X98596Y449197D01*
X98696Y449191D01*
X98795Y449182D01*
X98895Y449168D01*
X98993Y449151D01*
X99091Y449130D01*
X99188Y449106D01*
X99284Y449077D01*
X99379Y449045D01*
X99472Y449010D01*
X99564Y448971D01*
X99655Y448928D01*
X99743Y448882D01*
X99830Y448832D01*
X99915Y448780D01*
X99998Y448724D01*
X100079Y448665D01*
X100157Y448602D01*
X100233Y448537D01*
X100307Y448469D01*
X100377Y448399D01*
X100445Y448325D01*
X100510Y448249D01*
X100573Y448171D01*
X100632Y448090D01*
X100688Y448007D01*
X100740Y447922D01*
X100790Y447835D01*
X100836Y447747D01*
X100879Y447656D01*
X100918Y447564D01*
X100953Y447471D01*
X100985Y447376D01*
X101014Y447280D01*
X101038Y447183D01*
X101059Y447085D01*
X101076Y446987D01*
X101090Y446887D01*
X101099Y446788D01*
X101105Y446688D01*
X101107Y446588D01*
X101106Y446588D02*
X101106Y442412D01*
X101107Y442412D02*
X101105Y442312D01*
X101099Y442212D01*
X101090Y442113D01*
X101076Y442013D01*
X101059Y441915D01*
X101038Y441817D01*
X101014Y441720D01*
X100985Y441624D01*
X100953Y441529D01*
X100918Y441436D01*
X100879Y441344D01*
X100836Y441253D01*
X100790Y441165D01*
X100740Y441078D01*
X100688Y440993D01*
X100632Y440910D01*
X100573Y440829D01*
X100510Y440751D01*
X100445Y440675D01*
X100377Y440601D01*
X100307Y440531D01*
X100233Y440463D01*
X100157Y440398D01*
X100079Y440335D01*
X99998Y440276D01*
X99915Y440220D01*
X99830Y440168D01*
X99743Y440118D01*
X99655Y440072D01*
X99564Y440029D01*
X99472Y439990D01*
X99379Y439955D01*
X99284Y439923D01*
X99188Y439894D01*
X99091Y439870D01*
X98993Y439849D01*
X98895Y439832D01*
X98795Y439818D01*
X98696Y439809D01*
X98596Y439803D01*
X98496Y439801D01*
X95885Y439801D01*
X106116Y439801D02*
X106116Y449199D01*
X105071Y439801D02*
X107160Y439801D01*
X107160Y449199D02*
X105071Y449199D01*
X89422Y416489D02*
X89420Y416400D01*
X89414Y416312D01*
X89405Y416224D01*
X89392Y416136D01*
X89375Y416049D01*
X89355Y415963D01*
X89330Y415878D01*
X89303Y415793D01*
X89271Y415710D01*
X89237Y415629D01*
X89198Y415549D01*
X89157Y415471D01*
X89112Y415394D01*
X89064Y415320D01*
X89013Y415247D01*
X88959Y415177D01*
X88901Y415110D01*
X88841Y415044D01*
X88779Y414982D01*
X88713Y414922D01*
X88646Y414864D01*
X88576Y414810D01*
X88503Y414759D01*
X88429Y414711D01*
X88352Y414666D01*
X88274Y414625D01*
X88194Y414586D01*
X88113Y414552D01*
X88030Y414520D01*
X87945Y414493D01*
X87860Y414468D01*
X87774Y414448D01*
X87687Y414431D01*
X87599Y414418D01*
X87511Y414409D01*
X87423Y414403D01*
X87334Y414401D01*
X87205Y414403D01*
X87076Y414409D01*
X86947Y414418D01*
X86819Y414431D01*
X86691Y414448D01*
X86564Y414469D01*
X86437Y414493D01*
X86311Y414521D01*
X86186Y414553D01*
X86062Y414588D01*
X85939Y414627D01*
X85817Y414670D01*
X85697Y414716D01*
X85578Y414766D01*
X85460Y414819D01*
X85344Y414875D01*
X85230Y414935D01*
X85117Y414998D01*
X85007Y415065D01*
X84898Y415134D01*
X84792Y415207D01*
X84687Y415283D01*
X84585Y415362D01*
X84486Y415444D01*
X84388Y415528D01*
X84293Y415616D01*
X84201Y415706D01*
X84462Y421711D02*
X84464Y421800D01*
X84470Y421888D01*
X84479Y421976D01*
X84492Y422064D01*
X84509Y422151D01*
X84529Y422237D01*
X84554Y422322D01*
X84581Y422407D01*
X84613Y422490D01*
X84647Y422571D01*
X84686Y422651D01*
X84727Y422729D01*
X84772Y422806D01*
X84820Y422880D01*
X84871Y422953D01*
X84925Y423023D01*
X84983Y423090D01*
X85043Y423156D01*
X85105Y423218D01*
X85171Y423278D01*
X85238Y423336D01*
X85308Y423390D01*
X85381Y423441D01*
X85455Y423489D01*
X85532Y423534D01*
X85610Y423575D01*
X85690Y423614D01*
X85771Y423648D01*
X85854Y423680D01*
X85939Y423707D01*
X86024Y423732D01*
X86110Y423752D01*
X86197Y423769D01*
X86285Y423782D01*
X86373Y423791D01*
X86461Y423797D01*
X86550Y423799D01*
X86670Y423797D01*
X86790Y423792D01*
X86910Y423782D01*
X87029Y423770D01*
X87148Y423753D01*
X87266Y423733D01*
X87384Y423709D01*
X87500Y423682D01*
X87616Y423651D01*
X87731Y423617D01*
X87845Y423579D01*
X87958Y423537D01*
X88069Y423492D01*
X88179Y423444D01*
X88287Y423393D01*
X88394Y423338D01*
X88499Y423280D01*
X88602Y423218D01*
X88703Y423154D01*
X88803Y423086D01*
X88900Y423016D01*
X85506Y419884D02*
X85428Y419932D01*
X85352Y419984D01*
X85279Y420038D01*
X85208Y420096D01*
X85139Y420157D01*
X85073Y420221D01*
X85010Y420288D01*
X84950Y420357D01*
X84893Y420429D01*
X84839Y420503D01*
X84789Y420580D01*
X84741Y420659D01*
X84698Y420739D01*
X84657Y420822D01*
X84621Y420906D01*
X84588Y420991D01*
X84559Y421078D01*
X84533Y421167D01*
X84511Y421256D01*
X84494Y421346D01*
X84480Y421436D01*
X84470Y421528D01*
X84464Y421619D01*
X84462Y421711D01*
X88378Y418316D02*
X88456Y418268D01*
X88532Y418216D01*
X88605Y418162D01*
X88676Y418104D01*
X88745Y418043D01*
X88811Y417979D01*
X88874Y417912D01*
X88934Y417843D01*
X88991Y417771D01*
X89045Y417697D01*
X89095Y417620D01*
X89143Y417541D01*
X89186Y417461D01*
X89227Y417378D01*
X89263Y417294D01*
X89296Y417209D01*
X89325Y417122D01*
X89351Y417033D01*
X89373Y416944D01*
X89390Y416854D01*
X89404Y416764D01*
X89414Y416672D01*
X89420Y416581D01*
X89422Y416489D01*
X88378Y418317D02*
X85506Y419883D01*
X93345Y423799D02*
X93345Y414401D01*
X93345Y423799D02*
X95956Y423799D01*
X96056Y423797D01*
X96156Y423791D01*
X96255Y423782D01*
X96355Y423768D01*
X96453Y423751D01*
X96551Y423730D01*
X96648Y423706D01*
X96744Y423677D01*
X96839Y423645D01*
X96932Y423610D01*
X97024Y423571D01*
X97115Y423528D01*
X97203Y423482D01*
X97290Y423432D01*
X97375Y423380D01*
X97458Y423324D01*
X97539Y423265D01*
X97617Y423202D01*
X97693Y423137D01*
X97767Y423069D01*
X97837Y422999D01*
X97905Y422925D01*
X97970Y422849D01*
X98033Y422771D01*
X98092Y422690D01*
X98148Y422607D01*
X98200Y422522D01*
X98250Y422435D01*
X98296Y422347D01*
X98339Y422256D01*
X98378Y422164D01*
X98413Y422071D01*
X98445Y421976D01*
X98474Y421880D01*
X98498Y421783D01*
X98519Y421685D01*
X98536Y421587D01*
X98550Y421487D01*
X98559Y421388D01*
X98565Y421288D01*
X98567Y421188D01*
X98566Y421188D02*
X98566Y417012D01*
X98567Y417012D02*
X98565Y416912D01*
X98559Y416812D01*
X98550Y416713D01*
X98536Y416613D01*
X98519Y416515D01*
X98498Y416417D01*
X98474Y416320D01*
X98445Y416224D01*
X98413Y416129D01*
X98378Y416036D01*
X98339Y415944D01*
X98296Y415853D01*
X98250Y415765D01*
X98200Y415678D01*
X98148Y415593D01*
X98092Y415510D01*
X98033Y415429D01*
X97970Y415351D01*
X97905Y415275D01*
X97837Y415201D01*
X97767Y415131D01*
X97693Y415063D01*
X97617Y414998D01*
X97539Y414935D01*
X97458Y414876D01*
X97375Y414820D01*
X97290Y414768D01*
X97203Y414718D01*
X97115Y414672D01*
X97024Y414629D01*
X96932Y414590D01*
X96839Y414555D01*
X96744Y414523D01*
X96648Y414494D01*
X96551Y414470D01*
X96453Y414449D01*
X96355Y414432D01*
X96255Y414418D01*
X96156Y414409D01*
X96056Y414403D01*
X95956Y414401D01*
X93345Y414401D01*
X102794Y417012D02*
X102794Y421188D01*
X102793Y421188D02*
X102795Y421289D01*
X102801Y421390D01*
X102811Y421491D01*
X102824Y421591D01*
X102842Y421691D01*
X102863Y421790D01*
X102889Y421888D01*
X102918Y421985D01*
X102950Y422081D01*
X102987Y422175D01*
X103027Y422268D01*
X103071Y422360D01*
X103118Y422449D01*
X103169Y422537D01*
X103223Y422623D01*
X103280Y422706D01*
X103340Y422788D01*
X103404Y422866D01*
X103470Y422943D01*
X103540Y423016D01*
X103612Y423087D01*
X103687Y423155D01*
X103765Y423220D01*
X103845Y423282D01*
X103927Y423341D01*
X104012Y423397D01*
X104099Y423449D01*
X104187Y423498D01*
X104278Y423544D01*
X104370Y423585D01*
X104464Y423624D01*
X104559Y423658D01*
X104655Y423689D01*
X104753Y423716D01*
X104851Y423740D01*
X104951Y423759D01*
X105051Y423775D01*
X105151Y423787D01*
X105252Y423795D01*
X105353Y423799D01*
X105455Y423799D01*
X105556Y423795D01*
X105657Y423787D01*
X105757Y423775D01*
X105857Y423759D01*
X105957Y423740D01*
X106055Y423716D01*
X106153Y423689D01*
X106249Y423658D01*
X106344Y423624D01*
X106438Y423585D01*
X106530Y423544D01*
X106621Y423498D01*
X106710Y423449D01*
X106796Y423397D01*
X106881Y423341D01*
X106963Y423282D01*
X107043Y423220D01*
X107121Y423155D01*
X107196Y423087D01*
X107268Y423016D01*
X107338Y422943D01*
X107404Y422866D01*
X107468Y422788D01*
X107528Y422706D01*
X107585Y422623D01*
X107639Y422537D01*
X107690Y422449D01*
X107737Y422360D01*
X107781Y422268D01*
X107821Y422175D01*
X107858Y422081D01*
X107890Y421985D01*
X107919Y421888D01*
X107945Y421790D01*
X107966Y421691D01*
X107984Y421591D01*
X107997Y421491D01*
X108007Y421390D01*
X108013Y421289D01*
X108015Y421188D01*
X108015Y417012D01*
X108013Y416911D01*
X108007Y416810D01*
X107997Y416709D01*
X107984Y416609D01*
X107966Y416509D01*
X107945Y416410D01*
X107919Y416312D01*
X107890Y416215D01*
X107858Y416119D01*
X107821Y416025D01*
X107781Y415932D01*
X107737Y415840D01*
X107690Y415751D01*
X107639Y415663D01*
X107585Y415577D01*
X107528Y415494D01*
X107468Y415412D01*
X107404Y415334D01*
X107338Y415257D01*
X107268Y415184D01*
X107196Y415113D01*
X107121Y415045D01*
X107043Y414980D01*
X106963Y414918D01*
X106881Y414859D01*
X106796Y414803D01*
X106709Y414751D01*
X106621Y414702D01*
X106530Y414656D01*
X106438Y414615D01*
X106344Y414576D01*
X106249Y414542D01*
X106153Y414511D01*
X106055Y414484D01*
X105957Y414460D01*
X105857Y414441D01*
X105757Y414425D01*
X105657Y414413D01*
X105556Y414405D01*
X105455Y414401D01*
X105353Y414401D01*
X105252Y414405D01*
X105151Y414413D01*
X105051Y414425D01*
X104951Y414441D01*
X104851Y414460D01*
X104753Y414484D01*
X104655Y414511D01*
X104559Y414542D01*
X104464Y414576D01*
X104370Y414615D01*
X104278Y414656D01*
X104187Y414702D01*
X104099Y414751D01*
X104012Y414803D01*
X103927Y414859D01*
X103845Y414918D01*
X103765Y414980D01*
X103687Y415045D01*
X103612Y415113D01*
X103540Y415184D01*
X103470Y415257D01*
X103404Y415334D01*
X103340Y415412D01*
X103280Y415494D01*
X103223Y415577D01*
X103169Y415663D01*
X103118Y415751D01*
X103071Y415840D01*
X103027Y415932D01*
X102987Y416025D01*
X102950Y416119D01*
X102918Y416215D01*
X102889Y416312D01*
X102863Y416410D01*
X102842Y416509D01*
X102824Y416609D01*
X102811Y416709D01*
X102801Y416810D01*
X102795Y416911D01*
X102793Y417012D01*
X-8438Y114822D02*
X-11049Y114822D01*
X-8438Y114823D02*
X-8337Y114821D01*
X-8236Y114815D01*
X-8135Y114805D01*
X-8035Y114792D01*
X-7935Y114774D01*
X-7836Y114753D01*
X-7738Y114727D01*
X-7641Y114698D01*
X-7545Y114666D01*
X-7451Y114629D01*
X-7358Y114589D01*
X-7266Y114545D01*
X-7177Y114498D01*
X-7089Y114447D01*
X-7003Y114393D01*
X-6920Y114336D01*
X-6838Y114276D01*
X-6760Y114212D01*
X-6683Y114146D01*
X-6610Y114076D01*
X-6539Y114004D01*
X-6471Y113929D01*
X-6406Y113851D01*
X-6344Y113771D01*
X-6285Y113689D01*
X-6229Y113604D01*
X-6177Y113517D01*
X-6128Y113429D01*
X-6082Y113338D01*
X-6041Y113246D01*
X-6002Y113152D01*
X-5968Y113057D01*
X-5937Y112961D01*
X-5910Y112863D01*
X-5886Y112765D01*
X-5867Y112665D01*
X-5851Y112565D01*
X-5839Y112465D01*
X-5831Y112364D01*
X-5827Y112263D01*
X-5827Y112161D01*
X-5831Y112060D01*
X-5839Y111959D01*
X-5851Y111859D01*
X-5867Y111759D01*
X-5886Y111659D01*
X-5910Y111561D01*
X-5937Y111463D01*
X-5968Y111367D01*
X-6002Y111272D01*
X-6041Y111178D01*
X-6082Y111086D01*
X-6128Y110995D01*
X-6177Y110906D01*
X-6229Y110820D01*
X-6285Y110735D01*
X-6344Y110653D01*
X-6406Y110573D01*
X-6471Y110495D01*
X-6539Y110420D01*
X-6610Y110348D01*
X-6683Y110278D01*
X-6760Y110212D01*
X-6838Y110148D01*
X-6920Y110088D01*
X-7003Y110031D01*
X-7089Y109977D01*
X-7177Y109926D01*
X-7266Y109879D01*
X-7358Y109835D01*
X-7451Y109795D01*
X-7545Y109758D01*
X-7641Y109726D01*
X-7738Y109697D01*
X-7836Y109671D01*
X-7935Y109650D01*
X-8035Y109632D01*
X-8135Y109619D01*
X-8236Y109609D01*
X-8337Y109603D01*
X-8438Y109601D01*
X-11049Y109601D01*
X-11049Y118999D01*
X-8438Y118999D01*
X-8348Y118997D01*
X-8259Y118991D01*
X-8169Y118982D01*
X-8080Y118968D01*
X-7992Y118951D01*
X-7905Y118930D01*
X-7818Y118905D01*
X-7733Y118876D01*
X-7649Y118844D01*
X-7567Y118809D01*
X-7486Y118769D01*
X-7407Y118727D01*
X-7330Y118681D01*
X-7255Y118631D01*
X-7182Y118579D01*
X-7111Y118523D01*
X-7043Y118465D01*
X-6978Y118403D01*
X-6915Y118339D01*
X-6855Y118272D01*
X-6798Y118203D01*
X-6744Y118131D01*
X-6693Y118057D01*
X-6645Y117981D01*
X-6601Y117903D01*
X-6560Y117823D01*
X-6522Y117741D01*
X-6488Y117658D01*
X-6458Y117573D01*
X-6431Y117487D01*
X-6408Y117401D01*
X-6389Y117313D01*
X-6374Y117224D01*
X-6362Y117135D01*
X-6354Y117046D01*
X-6350Y116956D01*
X-6350Y116866D01*
X-6354Y116776D01*
X-6362Y116687D01*
X-6374Y116598D01*
X-6389Y116509D01*
X-6408Y116421D01*
X-6431Y116335D01*
X-6458Y116249D01*
X-6488Y116164D01*
X-6522Y116081D01*
X-6560Y115999D01*
X-6601Y115919D01*
X-6645Y115841D01*
X-6693Y115765D01*
X-6744Y115691D01*
X-6798Y115619D01*
X-6855Y115550D01*
X-6915Y115483D01*
X-6978Y115419D01*
X-7043Y115357D01*
X-7111Y115299D01*
X-7182Y115243D01*
X-7255Y115191D01*
X-7330Y115141D01*
X-7407Y115095D01*
X-7486Y115053D01*
X-7567Y115013D01*
X-7649Y114978D01*
X-7733Y114946D01*
X-7818Y114917D01*
X-7905Y114892D01*
X-7992Y114871D01*
X-8080Y114854D01*
X-8169Y114840D01*
X-8259Y114831D01*
X-8348Y114825D01*
X-8438Y114823D01*
X-2036Y112212D02*
X-2036Y118999D01*
X-2037Y112212D02*
X-2035Y112111D01*
X-2029Y112010D01*
X-2019Y111909D01*
X-2006Y111809D01*
X-1988Y111709D01*
X-1967Y111610D01*
X-1941Y111512D01*
X-1912Y111415D01*
X-1880Y111319D01*
X-1843Y111225D01*
X-1803Y111132D01*
X-1759Y111040D01*
X-1712Y110951D01*
X-1661Y110863D01*
X-1607Y110777D01*
X-1550Y110694D01*
X-1490Y110612D01*
X-1426Y110534D01*
X-1360Y110457D01*
X-1290Y110384D01*
X-1218Y110313D01*
X-1143Y110245D01*
X-1065Y110180D01*
X-985Y110118D01*
X-903Y110059D01*
X-818Y110003D01*
X-732Y109951D01*
X-643Y109902D01*
X-552Y109856D01*
X-460Y109815D01*
X-366Y109776D01*
X-271Y109742D01*
X-175Y109711D01*
X-77Y109684D01*
X21Y109660D01*
X121Y109641D01*
X221Y109625D01*
X321Y109613D01*
X422Y109605D01*
X523Y109601D01*
X625Y109601D01*
X726Y109605D01*
X827Y109613D01*
X927Y109625D01*
X1027Y109641D01*
X1127Y109660D01*
X1225Y109684D01*
X1323Y109711D01*
X1419Y109742D01*
X1514Y109776D01*
X1608Y109815D01*
X1700Y109856D01*
X1791Y109902D01*
X1879Y109951D01*
X1966Y110003D01*
X2051Y110059D01*
X2133Y110118D01*
X2213Y110180D01*
X2291Y110245D01*
X2366Y110313D01*
X2438Y110384D01*
X2508Y110457D01*
X2574Y110534D01*
X2638Y110612D01*
X2698Y110694D01*
X2755Y110777D01*
X2809Y110863D01*
X2860Y110951D01*
X2907Y111040D01*
X2951Y111132D01*
X2991Y111225D01*
X3028Y111319D01*
X3060Y111415D01*
X3089Y111512D01*
X3115Y111610D01*
X3136Y111709D01*
X3154Y111809D01*
X3167Y111909D01*
X3177Y112010D01*
X3183Y112111D01*
X3185Y112212D01*
X3185Y118999D01*
X12328Y111689D02*
X12326Y111600D01*
X12320Y111512D01*
X12311Y111424D01*
X12298Y111336D01*
X12281Y111249D01*
X12261Y111163D01*
X12236Y111078D01*
X12209Y110993D01*
X12177Y110910D01*
X12143Y110829D01*
X12104Y110749D01*
X12063Y110671D01*
X12018Y110594D01*
X11970Y110520D01*
X11919Y110447D01*
X11865Y110377D01*
X11807Y110310D01*
X11747Y110244D01*
X11685Y110182D01*
X11619Y110122D01*
X11552Y110064D01*
X11482Y110010D01*
X11409Y109959D01*
X11335Y109911D01*
X11258Y109866D01*
X11180Y109825D01*
X11100Y109786D01*
X11019Y109752D01*
X10936Y109720D01*
X10851Y109693D01*
X10766Y109668D01*
X10680Y109648D01*
X10593Y109631D01*
X10505Y109618D01*
X10417Y109609D01*
X10329Y109603D01*
X10240Y109601D01*
X10111Y109603D01*
X9982Y109609D01*
X9853Y109618D01*
X9725Y109631D01*
X9597Y109648D01*
X9470Y109669D01*
X9343Y109693D01*
X9217Y109721D01*
X9092Y109753D01*
X8968Y109788D01*
X8845Y109827D01*
X8723Y109870D01*
X8603Y109916D01*
X8484Y109966D01*
X8366Y110019D01*
X8250Y110075D01*
X8136Y110135D01*
X8023Y110198D01*
X7913Y110265D01*
X7804Y110334D01*
X7698Y110407D01*
X7593Y110483D01*
X7491Y110562D01*
X7392Y110644D01*
X7294Y110728D01*
X7199Y110816D01*
X7107Y110906D01*
X7369Y116911D02*
X7371Y117000D01*
X7377Y117088D01*
X7386Y117176D01*
X7399Y117264D01*
X7416Y117351D01*
X7436Y117437D01*
X7461Y117522D01*
X7488Y117607D01*
X7520Y117690D01*
X7554Y117771D01*
X7593Y117851D01*
X7634Y117929D01*
X7679Y118006D01*
X7727Y118080D01*
X7778Y118153D01*
X7832Y118223D01*
X7890Y118290D01*
X7950Y118356D01*
X8012Y118418D01*
X8078Y118478D01*
X8145Y118536D01*
X8215Y118590D01*
X8288Y118641D01*
X8362Y118689D01*
X8439Y118734D01*
X8517Y118775D01*
X8597Y118814D01*
X8678Y118848D01*
X8761Y118880D01*
X8846Y118907D01*
X8931Y118932D01*
X9017Y118952D01*
X9104Y118969D01*
X9192Y118982D01*
X9280Y118991D01*
X9368Y118997D01*
X9457Y118999D01*
X9577Y118997D01*
X9697Y118992D01*
X9817Y118982D01*
X9936Y118970D01*
X10055Y118953D01*
X10173Y118933D01*
X10291Y118909D01*
X10407Y118882D01*
X10523Y118851D01*
X10638Y118817D01*
X10752Y118779D01*
X10865Y118737D01*
X10976Y118692D01*
X11086Y118644D01*
X11194Y118593D01*
X11301Y118538D01*
X11406Y118480D01*
X11509Y118418D01*
X11610Y118354D01*
X11710Y118286D01*
X11807Y118216D01*
X8413Y115084D02*
X8335Y115132D01*
X8259Y115184D01*
X8186Y115238D01*
X8115Y115296D01*
X8046Y115357D01*
X7980Y115421D01*
X7917Y115488D01*
X7857Y115557D01*
X7800Y115629D01*
X7746Y115703D01*
X7696Y115780D01*
X7648Y115859D01*
X7605Y115939D01*
X7564Y116022D01*
X7528Y116106D01*
X7495Y116191D01*
X7466Y116278D01*
X7440Y116367D01*
X7418Y116456D01*
X7401Y116546D01*
X7387Y116636D01*
X7377Y116728D01*
X7371Y116819D01*
X7369Y116911D01*
X11285Y113516D02*
X11363Y113468D01*
X11439Y113416D01*
X11512Y113362D01*
X11583Y113304D01*
X11652Y113243D01*
X11718Y113179D01*
X11781Y113112D01*
X11841Y113043D01*
X11898Y112971D01*
X11952Y112897D01*
X12002Y112820D01*
X12050Y112741D01*
X12093Y112661D01*
X12134Y112578D01*
X12170Y112494D01*
X12203Y112409D01*
X12232Y112322D01*
X12258Y112233D01*
X12280Y112144D01*
X12297Y112054D01*
X12311Y111964D01*
X12321Y111872D01*
X12327Y111781D01*
X12329Y111689D01*
X11285Y113517D02*
X8413Y115083D01*
X15425Y118999D02*
X18557Y114561D01*
X21690Y118999D01*
X18557Y114561D02*
X18557Y109601D01*
X-6872Y135001D02*
X-8961Y135001D01*
X-9050Y135003D01*
X-9138Y135009D01*
X-9226Y135018D01*
X-9314Y135031D01*
X-9401Y135048D01*
X-9487Y135068D01*
X-9572Y135093D01*
X-9657Y135120D01*
X-9740Y135152D01*
X-9821Y135186D01*
X-9901Y135225D01*
X-9979Y135266D01*
X-10056Y135311D01*
X-10130Y135359D01*
X-10203Y135410D01*
X-10273Y135464D01*
X-10340Y135522D01*
X-10406Y135582D01*
X-10468Y135644D01*
X-10528Y135710D01*
X-10586Y135777D01*
X-10640Y135847D01*
X-10691Y135920D01*
X-10739Y135994D01*
X-10784Y136071D01*
X-10825Y136149D01*
X-10864Y136229D01*
X-10898Y136310D01*
X-10930Y136393D01*
X-10957Y136478D01*
X-10982Y136563D01*
X-11002Y136649D01*
X-11019Y136736D01*
X-11032Y136824D01*
X-11041Y136912D01*
X-11047Y137000D01*
X-11049Y137089D01*
X-11049Y142311D01*
X-11047Y142400D01*
X-11041Y142488D01*
X-11032Y142576D01*
X-11019Y142664D01*
X-11002Y142751D01*
X-10982Y142837D01*
X-10957Y142922D01*
X-10930Y143007D01*
X-10898Y143090D01*
X-10864Y143171D01*
X-10825Y143251D01*
X-10784Y143329D01*
X-10739Y143406D01*
X-10691Y143480D01*
X-10640Y143553D01*
X-10586Y143623D01*
X-10528Y143690D01*
X-10468Y143756D01*
X-10406Y143818D01*
X-10340Y143878D01*
X-10273Y143936D01*
X-10203Y143990D01*
X-10130Y144041D01*
X-10056Y144089D01*
X-9979Y144134D01*
X-9901Y144175D01*
X-9821Y144214D01*
X-9740Y144248D01*
X-9657Y144280D01*
X-9572Y144307D01*
X-9487Y144332D01*
X-9401Y144352D01*
X-9314Y144369D01*
X-9226Y144382D01*
X-9138Y144391D01*
X-9050Y144397D01*
X-8961Y144399D01*
X-6872Y144399D01*
X-3099Y144399D02*
X-3099Y135001D01*
X-3099Y144399D02*
X-488Y144399D01*
X-388Y144397D01*
X-288Y144391D01*
X-189Y144382D01*
X-89Y144368D01*
X9Y144351D01*
X107Y144330D01*
X204Y144306D01*
X300Y144277D01*
X395Y144245D01*
X488Y144210D01*
X580Y144171D01*
X671Y144128D01*
X759Y144082D01*
X846Y144032D01*
X931Y143980D01*
X1014Y143924D01*
X1095Y143865D01*
X1173Y143802D01*
X1249Y143737D01*
X1323Y143669D01*
X1393Y143599D01*
X1461Y143525D01*
X1526Y143449D01*
X1589Y143371D01*
X1648Y143290D01*
X1704Y143207D01*
X1756Y143122D01*
X1806Y143035D01*
X1852Y142947D01*
X1895Y142856D01*
X1934Y142764D01*
X1969Y142671D01*
X2001Y142576D01*
X2030Y142480D01*
X2054Y142383D01*
X2075Y142285D01*
X2092Y142187D01*
X2106Y142087D01*
X2115Y141988D01*
X2121Y141888D01*
X2123Y141788D01*
X2123Y137612D01*
X2121Y137512D01*
X2115Y137412D01*
X2106Y137313D01*
X2092Y137213D01*
X2075Y137115D01*
X2054Y137017D01*
X2030Y136920D01*
X2001Y136824D01*
X1969Y136729D01*
X1934Y136636D01*
X1895Y136544D01*
X1852Y136453D01*
X1806Y136365D01*
X1756Y136278D01*
X1704Y136193D01*
X1648Y136110D01*
X1589Y136029D01*
X1526Y135951D01*
X1461Y135875D01*
X1393Y135801D01*
X1323Y135731D01*
X1249Y135663D01*
X1173Y135598D01*
X1095Y135535D01*
X1014Y135476D01*
X931Y135420D01*
X846Y135368D01*
X759Y135318D01*
X671Y135272D01*
X580Y135229D01*
X488Y135190D01*
X395Y135155D01*
X300Y135123D01*
X204Y135094D01*
X107Y135070D01*
X9Y135049D01*
X-89Y135032D01*
X-189Y135018D01*
X-288Y135009D01*
X-388Y135003D01*
X-488Y135001D01*
X-3099Y135001D01*
X-8438Y516001D02*
X-11049Y516001D01*
X-8438Y516001D02*
X-8337Y516003D01*
X-8236Y516009D01*
X-8135Y516019D01*
X-8035Y516032D01*
X-7935Y516050D01*
X-7836Y516071D01*
X-7738Y516097D01*
X-7641Y516126D01*
X-7545Y516158D01*
X-7451Y516195D01*
X-7358Y516235D01*
X-7266Y516279D01*
X-7177Y516326D01*
X-7089Y516377D01*
X-7003Y516431D01*
X-6920Y516488D01*
X-6838Y516548D01*
X-6760Y516612D01*
X-6683Y516678D01*
X-6610Y516748D01*
X-6539Y516820D01*
X-6471Y516895D01*
X-6406Y516973D01*
X-6344Y517053D01*
X-6285Y517135D01*
X-6229Y517220D01*
X-6177Y517307D01*
X-6128Y517395D01*
X-6082Y517486D01*
X-6041Y517578D01*
X-6002Y517672D01*
X-5968Y517767D01*
X-5937Y517863D01*
X-5910Y517961D01*
X-5886Y518059D01*
X-5867Y518159D01*
X-5851Y518259D01*
X-5839Y518359D01*
X-5831Y518460D01*
X-5827Y518561D01*
X-5827Y518663D01*
X-5831Y518764D01*
X-5839Y518865D01*
X-5851Y518965D01*
X-5867Y519065D01*
X-5886Y519165D01*
X-5910Y519263D01*
X-5937Y519361D01*
X-5968Y519457D01*
X-6002Y519552D01*
X-6041Y519646D01*
X-6082Y519738D01*
X-6128Y519829D01*
X-6177Y519917D01*
X-6229Y520004D01*
X-6285Y520089D01*
X-6344Y520171D01*
X-6406Y520251D01*
X-6471Y520329D01*
X-6539Y520404D01*
X-6610Y520476D01*
X-6683Y520546D01*
X-6760Y520612D01*
X-6838Y520676D01*
X-6920Y520736D01*
X-7003Y520793D01*
X-7089Y520847D01*
X-7177Y520898D01*
X-7266Y520945D01*
X-7358Y520989D01*
X-7451Y521029D01*
X-7545Y521066D01*
X-7641Y521098D01*
X-7738Y521127D01*
X-7836Y521153D01*
X-7935Y521174D01*
X-8035Y521192D01*
X-8135Y521205D01*
X-8236Y521215D01*
X-8337Y521221D01*
X-8438Y521223D01*
X-7916Y525399D02*
X-11049Y525399D01*
X-7916Y525399D02*
X-7826Y525397D01*
X-7737Y525391D01*
X-7647Y525382D01*
X-7558Y525368D01*
X-7470Y525351D01*
X-7383Y525330D01*
X-7296Y525305D01*
X-7211Y525276D01*
X-7127Y525244D01*
X-7045Y525209D01*
X-6964Y525169D01*
X-6885Y525127D01*
X-6808Y525081D01*
X-6733Y525031D01*
X-6660Y524979D01*
X-6589Y524923D01*
X-6521Y524865D01*
X-6456Y524803D01*
X-6393Y524739D01*
X-6333Y524672D01*
X-6276Y524603D01*
X-6222Y524531D01*
X-6171Y524457D01*
X-6123Y524381D01*
X-6079Y524303D01*
X-6038Y524223D01*
X-6000Y524141D01*
X-5966Y524058D01*
X-5936Y523973D01*
X-5909Y523887D01*
X-5886Y523801D01*
X-5867Y523713D01*
X-5852Y523624D01*
X-5840Y523535D01*
X-5832Y523446D01*
X-5828Y523356D01*
X-5828Y523266D01*
X-5832Y523176D01*
X-5840Y523087D01*
X-5852Y522998D01*
X-5867Y522909D01*
X-5886Y522821D01*
X-5909Y522735D01*
X-5936Y522649D01*
X-5966Y522564D01*
X-6000Y522481D01*
X-6038Y522399D01*
X-6079Y522319D01*
X-6123Y522241D01*
X-6171Y522165D01*
X-6222Y522091D01*
X-6276Y522019D01*
X-6333Y521950D01*
X-6393Y521883D01*
X-6456Y521819D01*
X-6521Y521757D01*
X-6589Y521699D01*
X-6660Y521643D01*
X-6733Y521591D01*
X-6808Y521541D01*
X-6885Y521495D01*
X-6964Y521453D01*
X-7045Y521413D01*
X-7127Y521378D01*
X-7211Y521346D01*
X-7296Y521317D01*
X-7383Y521292D01*
X-7470Y521271D01*
X-7558Y521254D01*
X-7647Y521240D01*
X-7737Y521231D01*
X-7826Y521225D01*
X-7916Y521223D01*
X-7916Y521222D02*
X-10005Y521222D01*
X-2427Y525399D02*
X706Y516001D01*
X3838Y525399D01*
X7239Y516001D02*
X9849Y516001D01*
X9950Y516003D01*
X10051Y516009D01*
X10152Y516019D01*
X10252Y516032D01*
X10352Y516050D01*
X10451Y516071D01*
X10549Y516097D01*
X10646Y516126D01*
X10742Y516158D01*
X10836Y516195D01*
X10929Y516235D01*
X11021Y516279D01*
X11110Y516326D01*
X11198Y516377D01*
X11284Y516431D01*
X11367Y516488D01*
X11449Y516548D01*
X11527Y516612D01*
X11604Y516678D01*
X11677Y516748D01*
X11748Y516820D01*
X11816Y516895D01*
X11881Y516973D01*
X11943Y517053D01*
X12002Y517135D01*
X12058Y517220D01*
X12110Y517307D01*
X12159Y517395D01*
X12205Y517486D01*
X12246Y517578D01*
X12285Y517672D01*
X12319Y517767D01*
X12350Y517863D01*
X12377Y517961D01*
X12401Y518059D01*
X12420Y518159D01*
X12436Y518259D01*
X12448Y518359D01*
X12456Y518460D01*
X12460Y518561D01*
X12460Y518663D01*
X12456Y518764D01*
X12448Y518865D01*
X12436Y518965D01*
X12420Y519065D01*
X12401Y519165D01*
X12377Y519263D01*
X12350Y519361D01*
X12319Y519457D01*
X12285Y519552D01*
X12246Y519646D01*
X12205Y519738D01*
X12159Y519829D01*
X12110Y519917D01*
X12058Y520004D01*
X12002Y520089D01*
X11943Y520171D01*
X11881Y520251D01*
X11816Y520329D01*
X11748Y520404D01*
X11677Y520476D01*
X11604Y520546D01*
X11527Y520612D01*
X11449Y520676D01*
X11367Y520736D01*
X11284Y520793D01*
X11198Y520847D01*
X11110Y520898D01*
X11021Y520945D01*
X10929Y520989D01*
X10836Y521029D01*
X10742Y521066D01*
X10646Y521098D01*
X10549Y521127D01*
X10451Y521153D01*
X10352Y521174D01*
X10252Y521192D01*
X10152Y521205D01*
X10051Y521215D01*
X9950Y521221D01*
X9849Y521223D01*
X10372Y525399D02*
X7239Y525399D01*
X10372Y525399D02*
X10462Y525397D01*
X10551Y525391D01*
X10641Y525382D01*
X10730Y525368D01*
X10818Y525351D01*
X10905Y525330D01*
X10992Y525305D01*
X11077Y525276D01*
X11161Y525244D01*
X11243Y525209D01*
X11324Y525169D01*
X11403Y525127D01*
X11480Y525081D01*
X11555Y525031D01*
X11628Y524979D01*
X11699Y524923D01*
X11767Y524865D01*
X11832Y524803D01*
X11895Y524739D01*
X11955Y524672D01*
X12012Y524603D01*
X12066Y524531D01*
X12117Y524457D01*
X12165Y524381D01*
X12209Y524303D01*
X12250Y524223D01*
X12288Y524141D01*
X12322Y524058D01*
X12352Y523973D01*
X12379Y523887D01*
X12402Y523801D01*
X12421Y523713D01*
X12436Y523624D01*
X12448Y523535D01*
X12456Y523446D01*
X12460Y523356D01*
X12460Y523266D01*
X12456Y523176D01*
X12448Y523087D01*
X12436Y522998D01*
X12421Y522909D01*
X12402Y522821D01*
X12379Y522735D01*
X12352Y522649D01*
X12322Y522564D01*
X12288Y522481D01*
X12250Y522399D01*
X12209Y522319D01*
X12165Y522241D01*
X12117Y522165D01*
X12066Y522091D01*
X12012Y522019D01*
X11955Y521950D01*
X11895Y521883D01*
X11832Y521819D01*
X11767Y521757D01*
X11699Y521699D01*
X11628Y521643D01*
X11555Y521591D01*
X11480Y521541D01*
X11403Y521495D01*
X11324Y521453D01*
X11243Y521413D01*
X11161Y521378D01*
X11077Y521346D01*
X10992Y521317D01*
X10905Y521292D01*
X10818Y521271D01*
X10730Y521254D01*
X10641Y521240D01*
X10551Y521231D01*
X10462Y521225D01*
X10372Y521223D01*
X10372Y521222D02*
X8283Y521222D01*
X-5828Y419622D02*
X-7394Y419622D01*
X-5828Y419622D02*
X-5828Y414401D01*
X-8961Y414401D01*
X-9050Y414403D01*
X-9138Y414409D01*
X-9226Y414418D01*
X-9314Y414431D01*
X-9401Y414448D01*
X-9487Y414468D01*
X-9572Y414493D01*
X-9657Y414520D01*
X-9740Y414552D01*
X-9821Y414586D01*
X-9901Y414625D01*
X-9979Y414666D01*
X-10056Y414711D01*
X-10130Y414759D01*
X-10203Y414810D01*
X-10273Y414864D01*
X-10340Y414922D01*
X-10406Y414982D01*
X-10468Y415044D01*
X-10528Y415110D01*
X-10586Y415177D01*
X-10640Y415247D01*
X-10691Y415320D01*
X-10739Y415394D01*
X-10784Y415471D01*
X-10825Y415549D01*
X-10864Y415629D01*
X-10898Y415710D01*
X-10930Y415793D01*
X-10957Y415878D01*
X-10982Y415963D01*
X-11002Y416049D01*
X-11019Y416136D01*
X-11032Y416224D01*
X-11041Y416312D01*
X-11047Y416400D01*
X-11049Y416489D01*
X-11049Y421711D01*
X-11047Y421800D01*
X-11041Y421888D01*
X-11032Y421976D01*
X-11019Y422064D01*
X-11002Y422151D01*
X-10982Y422237D01*
X-10957Y422322D01*
X-10930Y422407D01*
X-10898Y422490D01*
X-10864Y422571D01*
X-10825Y422651D01*
X-10784Y422729D01*
X-10739Y422806D01*
X-10691Y422880D01*
X-10640Y422953D01*
X-10586Y423023D01*
X-10528Y423090D01*
X-10468Y423156D01*
X-10406Y423218D01*
X-10340Y423278D01*
X-10273Y423336D01*
X-10203Y423390D01*
X-10130Y423441D01*
X-10056Y423489D01*
X-9979Y423534D01*
X-9901Y423575D01*
X-9821Y423614D01*
X-9740Y423648D01*
X-9657Y423680D01*
X-9572Y423707D01*
X-9487Y423732D01*
X-9401Y423752D01*
X-9314Y423769D01*
X-9226Y423782D01*
X-9138Y423791D01*
X-9050Y423797D01*
X-8961Y423799D01*
X-5828Y423799D01*
X-1295Y423799D02*
X-1295Y414401D01*
X3926Y414401D02*
X-1295Y423799D01*
X3926Y423799D02*
X3926Y414401D01*
X8458Y414401D02*
X8458Y423799D01*
X11069Y423799D01*
X11169Y423797D01*
X11269Y423791D01*
X11368Y423782D01*
X11468Y423768D01*
X11566Y423751D01*
X11664Y423730D01*
X11761Y423706D01*
X11857Y423677D01*
X11952Y423645D01*
X12045Y423610D01*
X12137Y423571D01*
X12228Y423528D01*
X12316Y423482D01*
X12403Y423432D01*
X12488Y423380D01*
X12571Y423324D01*
X12652Y423265D01*
X12730Y423202D01*
X12806Y423137D01*
X12880Y423069D01*
X12950Y422999D01*
X13018Y422925D01*
X13083Y422849D01*
X13146Y422771D01*
X13205Y422690D01*
X13261Y422607D01*
X13313Y422522D01*
X13363Y422435D01*
X13409Y422347D01*
X13452Y422256D01*
X13491Y422164D01*
X13526Y422071D01*
X13558Y421976D01*
X13587Y421880D01*
X13611Y421783D01*
X13632Y421685D01*
X13649Y421587D01*
X13663Y421487D01*
X13672Y421388D01*
X13678Y421288D01*
X13680Y421188D01*
X13679Y421188D02*
X13679Y417012D01*
X13680Y417012D02*
X13678Y416912D01*
X13672Y416812D01*
X13663Y416713D01*
X13649Y416613D01*
X13632Y416515D01*
X13611Y416417D01*
X13587Y416320D01*
X13558Y416224D01*
X13526Y416129D01*
X13491Y416036D01*
X13452Y415944D01*
X13409Y415853D01*
X13363Y415765D01*
X13313Y415678D01*
X13261Y415593D01*
X13205Y415510D01*
X13146Y415429D01*
X13083Y415351D01*
X13018Y415275D01*
X12950Y415201D01*
X12880Y415131D01*
X12806Y415063D01*
X12730Y414998D01*
X12652Y414935D01*
X12571Y414876D01*
X12488Y414820D01*
X12403Y414768D01*
X12316Y414718D01*
X12228Y414672D01*
X12137Y414629D01*
X12045Y414590D01*
X11952Y414555D01*
X11857Y414523D01*
X11761Y414494D01*
X11664Y414470D01*
X11566Y414449D01*
X11468Y414432D01*
X11368Y414418D01*
X11269Y414409D01*
X11169Y414403D01*
X11069Y414401D01*
X8458Y414401D01*
X109968Y540131D02*
X111605Y540131D01*
X109968Y540131D02*
X109890Y540133D01*
X109812Y540138D01*
X109735Y540148D01*
X109658Y540161D01*
X109582Y540177D01*
X109507Y540197D01*
X109433Y540221D01*
X109360Y540248D01*
X109288Y540279D01*
X109218Y540313D01*
X109150Y540350D01*
X109083Y540391D01*
X109018Y540435D01*
X108956Y540481D01*
X108896Y540531D01*
X108838Y540583D01*
X108783Y540638D01*
X108731Y540696D01*
X108681Y540756D01*
X108635Y540818D01*
X108591Y540883D01*
X108550Y540950D01*
X108513Y541018D01*
X108479Y541088D01*
X108448Y541160D01*
X108421Y541233D01*
X108397Y541307D01*
X108377Y541382D01*
X108361Y541458D01*
X108348Y541535D01*
X108338Y541612D01*
X108333Y541690D01*
X108331Y541768D01*
X108331Y545860D01*
X108333Y545940D01*
X108339Y546020D01*
X108349Y546100D01*
X108362Y546179D01*
X108380Y546258D01*
X108401Y546335D01*
X108427Y546411D01*
X108456Y546486D01*
X108488Y546560D01*
X108524Y546632D01*
X108564Y546702D01*
X108607Y546769D01*
X108653Y546835D01*
X108703Y546898D01*
X108755Y546959D01*
X108810Y547018D01*
X108869Y547073D01*
X108929Y547125D01*
X108993Y547175D01*
X109059Y547221D01*
X109126Y547264D01*
X109196Y547304D01*
X109268Y547340D01*
X109342Y547372D01*
X109416Y547401D01*
X109493Y547427D01*
X109570Y547448D01*
X109649Y547466D01*
X109728Y547479D01*
X109808Y547489D01*
X109888Y547495D01*
X109968Y547497D01*
X111605Y547497D01*
X114694Y547497D02*
X114694Y540131D01*
X118786Y540131D02*
X114694Y547497D01*
X118786Y547497D02*
X118786Y540131D01*
X123811Y540131D02*
X123811Y547497D01*
X121765Y547497D02*
X125857Y547497D01*
X128888Y547497D02*
X128888Y540131D01*
X128888Y547497D02*
X130934Y547497D01*
X131023Y547495D01*
X131112Y547489D01*
X131201Y547479D01*
X131289Y547466D01*
X131377Y547449D01*
X131464Y547427D01*
X131549Y547402D01*
X131634Y547374D01*
X131717Y547341D01*
X131799Y547305D01*
X131879Y547266D01*
X131957Y547223D01*
X132033Y547177D01*
X132108Y547127D01*
X132180Y547074D01*
X132249Y547018D01*
X132316Y546959D01*
X132381Y546898D01*
X132442Y546833D01*
X132501Y546766D01*
X132557Y546697D01*
X132610Y546625D01*
X132660Y546550D01*
X132706Y546474D01*
X132749Y546396D01*
X132788Y546316D01*
X132824Y546234D01*
X132857Y546151D01*
X132885Y546066D01*
X132910Y545981D01*
X132932Y545894D01*
X132949Y545806D01*
X132962Y545718D01*
X132972Y545629D01*
X132978Y545540D01*
X132980Y545451D01*
X132978Y545362D01*
X132972Y545273D01*
X132962Y545184D01*
X132949Y545096D01*
X132932Y545008D01*
X132910Y544921D01*
X132885Y544836D01*
X132857Y544751D01*
X132824Y544668D01*
X132788Y544586D01*
X132749Y544506D01*
X132706Y544428D01*
X132660Y544352D01*
X132610Y544277D01*
X132557Y544205D01*
X132501Y544136D01*
X132442Y544069D01*
X132381Y544004D01*
X132316Y543943D01*
X132249Y543884D01*
X132180Y543828D01*
X132108Y543775D01*
X132033Y543725D01*
X131957Y543679D01*
X131879Y543636D01*
X131799Y543597D01*
X131717Y543561D01*
X131634Y543528D01*
X131549Y543500D01*
X131464Y543475D01*
X131377Y543453D01*
X131289Y543436D01*
X131201Y543423D01*
X131112Y543413D01*
X131023Y543407D01*
X130934Y543405D01*
X128888Y543405D01*
X131343Y543405D02*
X132980Y540131D01*
X136411Y540131D02*
X136411Y547497D01*
X136411Y540131D02*
X139685Y540131D01*
X146653Y540131D02*
X149926Y540131D01*
X146653Y540131D02*
X146653Y547497D01*
X149926Y547497D01*
X149108Y544223D02*
X146653Y544223D01*
X153028Y547497D02*
X153028Y540131D01*
X153028Y547497D02*
X155074Y547497D01*
X155163Y547495D01*
X155252Y547489D01*
X155341Y547479D01*
X155429Y547466D01*
X155517Y547449D01*
X155604Y547427D01*
X155689Y547402D01*
X155774Y547374D01*
X155857Y547341D01*
X155939Y547305D01*
X156019Y547266D01*
X156097Y547223D01*
X156173Y547177D01*
X156248Y547127D01*
X156320Y547074D01*
X156389Y547018D01*
X156456Y546959D01*
X156521Y546898D01*
X156582Y546833D01*
X156641Y546766D01*
X156697Y546697D01*
X156750Y546625D01*
X156800Y546550D01*
X156846Y546474D01*
X156889Y546396D01*
X156928Y546316D01*
X156964Y546234D01*
X156997Y546151D01*
X157025Y546066D01*
X157050Y545981D01*
X157072Y545894D01*
X157089Y545806D01*
X157102Y545718D01*
X157112Y545629D01*
X157118Y545540D01*
X157120Y545451D01*
X157118Y545362D01*
X157112Y545273D01*
X157102Y545184D01*
X157089Y545096D01*
X157072Y545008D01*
X157050Y544921D01*
X157025Y544836D01*
X156997Y544751D01*
X156964Y544668D01*
X156928Y544586D01*
X156889Y544506D01*
X156846Y544428D01*
X156800Y544352D01*
X156750Y544277D01*
X156697Y544205D01*
X156641Y544136D01*
X156582Y544069D01*
X156521Y544004D01*
X156456Y543943D01*
X156389Y543884D01*
X156320Y543828D01*
X156248Y543775D01*
X156173Y543725D01*
X156097Y543679D01*
X156019Y543636D01*
X155939Y543597D01*
X155857Y543561D01*
X155774Y543528D01*
X155689Y543500D01*
X155604Y543475D01*
X155517Y543453D01*
X155429Y543436D01*
X155341Y543423D01*
X155252Y543413D01*
X155163Y543407D01*
X155074Y543405D01*
X153028Y543405D01*
X155483Y543405D02*
X157120Y540131D01*
X160875Y540131D02*
X160875Y547497D01*
X160057Y540131D02*
X161693Y540131D01*
X161693Y547497D02*
X160057Y547497D01*
X166295Y540131D02*
X167932Y540131D01*
X166295Y540131D02*
X166217Y540133D01*
X166139Y540138D01*
X166062Y540148D01*
X165985Y540161D01*
X165909Y540177D01*
X165834Y540197D01*
X165760Y540221D01*
X165687Y540248D01*
X165615Y540279D01*
X165545Y540313D01*
X165477Y540350D01*
X165410Y540391D01*
X165345Y540435D01*
X165283Y540481D01*
X165223Y540531D01*
X165165Y540583D01*
X165110Y540638D01*
X165058Y540696D01*
X165008Y540756D01*
X164962Y540818D01*
X164918Y540883D01*
X164877Y540950D01*
X164840Y541018D01*
X164806Y541088D01*
X164775Y541160D01*
X164748Y541233D01*
X164724Y541307D01*
X164704Y541382D01*
X164688Y541458D01*
X164675Y541535D01*
X164665Y541612D01*
X164660Y541690D01*
X164658Y541768D01*
X164658Y545860D01*
X164660Y545940D01*
X164666Y546020D01*
X164676Y546100D01*
X164689Y546179D01*
X164707Y546258D01*
X164728Y546335D01*
X164754Y546411D01*
X164783Y546486D01*
X164815Y546560D01*
X164851Y546632D01*
X164891Y546702D01*
X164934Y546769D01*
X164980Y546835D01*
X165030Y546898D01*
X165082Y546959D01*
X165137Y547018D01*
X165196Y547073D01*
X165256Y547125D01*
X165320Y547175D01*
X165386Y547221D01*
X165453Y547264D01*
X165523Y547304D01*
X165595Y547340D01*
X165669Y547372D01*
X165743Y547401D01*
X165820Y547427D01*
X165897Y547448D01*
X165976Y547466D01*
X166055Y547479D01*
X166135Y547489D01*
X166215Y547495D01*
X166295Y547497D01*
X167932Y547497D01*
X105255Y51181D02*
X103618Y51181D01*
X103540Y51183D01*
X103462Y51188D01*
X103385Y51198D01*
X103308Y51211D01*
X103232Y51227D01*
X103157Y51247D01*
X103083Y51271D01*
X103010Y51298D01*
X102938Y51329D01*
X102868Y51363D01*
X102800Y51400D01*
X102733Y51441D01*
X102668Y51485D01*
X102606Y51531D01*
X102546Y51581D01*
X102488Y51633D01*
X102433Y51688D01*
X102381Y51746D01*
X102331Y51806D01*
X102285Y51868D01*
X102241Y51933D01*
X102200Y52000D01*
X102163Y52068D01*
X102129Y52138D01*
X102098Y52210D01*
X102071Y52283D01*
X102047Y52357D01*
X102027Y52432D01*
X102011Y52508D01*
X101998Y52585D01*
X101988Y52662D01*
X101983Y52740D01*
X101981Y52818D01*
X101981Y56910D01*
X101983Y56990D01*
X101989Y57070D01*
X101999Y57150D01*
X102012Y57229D01*
X102030Y57308D01*
X102051Y57385D01*
X102077Y57461D01*
X102106Y57536D01*
X102138Y57610D01*
X102174Y57682D01*
X102214Y57752D01*
X102257Y57819D01*
X102303Y57885D01*
X102353Y57948D01*
X102405Y58009D01*
X102460Y58068D01*
X102519Y58123D01*
X102579Y58175D01*
X102643Y58225D01*
X102709Y58271D01*
X102776Y58314D01*
X102846Y58354D01*
X102918Y58390D01*
X102992Y58422D01*
X103066Y58451D01*
X103143Y58477D01*
X103220Y58498D01*
X103299Y58516D01*
X103378Y58529D01*
X103458Y58539D01*
X103538Y58545D01*
X103618Y58547D01*
X105255Y58547D01*
X108344Y58547D02*
X108344Y51181D01*
X112436Y51181D02*
X108344Y58547D01*
X112436Y58547D02*
X112436Y51181D01*
X117461Y51181D02*
X117461Y58547D01*
X115415Y58547D02*
X119507Y58547D01*
X122538Y58547D02*
X122538Y51181D01*
X122538Y58547D02*
X124584Y58547D01*
X124673Y58545D01*
X124762Y58539D01*
X124851Y58529D01*
X124939Y58516D01*
X125027Y58499D01*
X125114Y58477D01*
X125199Y58452D01*
X125284Y58424D01*
X125367Y58391D01*
X125449Y58355D01*
X125529Y58316D01*
X125607Y58273D01*
X125683Y58227D01*
X125758Y58177D01*
X125830Y58124D01*
X125899Y58068D01*
X125966Y58009D01*
X126031Y57948D01*
X126092Y57883D01*
X126151Y57816D01*
X126207Y57747D01*
X126260Y57675D01*
X126310Y57600D01*
X126356Y57524D01*
X126399Y57446D01*
X126438Y57366D01*
X126474Y57284D01*
X126507Y57201D01*
X126535Y57116D01*
X126560Y57031D01*
X126582Y56944D01*
X126599Y56856D01*
X126612Y56768D01*
X126622Y56679D01*
X126628Y56590D01*
X126630Y56501D01*
X126628Y56412D01*
X126622Y56323D01*
X126612Y56234D01*
X126599Y56146D01*
X126582Y56058D01*
X126560Y55971D01*
X126535Y55886D01*
X126507Y55801D01*
X126474Y55718D01*
X126438Y55636D01*
X126399Y55556D01*
X126356Y55478D01*
X126310Y55402D01*
X126260Y55327D01*
X126207Y55255D01*
X126151Y55186D01*
X126092Y55119D01*
X126031Y55054D01*
X125966Y54993D01*
X125899Y54934D01*
X125830Y54878D01*
X125758Y54825D01*
X125683Y54775D01*
X125607Y54729D01*
X125529Y54686D01*
X125449Y54647D01*
X125367Y54611D01*
X125284Y54578D01*
X125199Y54550D01*
X125114Y54525D01*
X125027Y54503D01*
X124939Y54486D01*
X124851Y54473D01*
X124762Y54463D01*
X124673Y54457D01*
X124584Y54455D01*
X122538Y54455D01*
X124993Y54455D02*
X126630Y51181D01*
X130061Y51181D02*
X130061Y58547D01*
X130061Y51181D02*
X133335Y51181D01*
X142255Y51181D02*
X142333Y51183D01*
X142411Y51188D01*
X142488Y51198D01*
X142565Y51211D01*
X142641Y51227D01*
X142716Y51247D01*
X142790Y51271D01*
X142863Y51298D01*
X142935Y51329D01*
X143005Y51363D01*
X143074Y51400D01*
X143140Y51441D01*
X143205Y51485D01*
X143267Y51531D01*
X143327Y51581D01*
X143385Y51633D01*
X143440Y51688D01*
X143492Y51746D01*
X143542Y51806D01*
X143588Y51868D01*
X143632Y51933D01*
X143673Y52000D01*
X143710Y52068D01*
X143744Y52138D01*
X143775Y52210D01*
X143802Y52283D01*
X143826Y52357D01*
X143846Y52432D01*
X143862Y52508D01*
X143875Y52585D01*
X143885Y52662D01*
X143890Y52740D01*
X143892Y52818D01*
X142255Y51181D02*
X142141Y51183D01*
X142028Y51188D01*
X141914Y51198D01*
X141801Y51211D01*
X141689Y51228D01*
X141577Y51248D01*
X141466Y51272D01*
X141355Y51300D01*
X141246Y51331D01*
X141138Y51366D01*
X141031Y51405D01*
X140925Y51447D01*
X140821Y51492D01*
X140718Y51541D01*
X140617Y51594D01*
X140518Y51649D01*
X140420Y51708D01*
X140325Y51770D01*
X140232Y51835D01*
X140140Y51903D01*
X140052Y51974D01*
X139965Y52048D01*
X139881Y52125D01*
X139800Y52204D01*
X140004Y56910D02*
X140006Y56988D01*
X140011Y57066D01*
X140021Y57143D01*
X140034Y57220D01*
X140050Y57296D01*
X140070Y57371D01*
X140094Y57445D01*
X140121Y57518D01*
X140152Y57590D01*
X140186Y57660D01*
X140223Y57729D01*
X140264Y57795D01*
X140308Y57860D01*
X140354Y57922D01*
X140404Y57982D01*
X140456Y58040D01*
X140511Y58095D01*
X140569Y58147D01*
X140629Y58197D01*
X140691Y58243D01*
X140756Y58287D01*
X140823Y58328D01*
X140891Y58365D01*
X140961Y58399D01*
X141033Y58430D01*
X141106Y58457D01*
X141180Y58481D01*
X141255Y58501D01*
X141331Y58517D01*
X141408Y58530D01*
X141485Y58540D01*
X141563Y58545D01*
X141641Y58547D01*
X141751Y58545D01*
X141860Y58539D01*
X141970Y58529D01*
X142078Y58516D01*
X142187Y58498D01*
X142294Y58477D01*
X142401Y58451D01*
X142507Y58422D01*
X142612Y58390D01*
X142715Y58353D01*
X142817Y58313D01*
X142918Y58269D01*
X143017Y58221D01*
X143114Y58171D01*
X143209Y58116D01*
X143302Y58058D01*
X143393Y57997D01*
X143482Y57933D01*
X140822Y55477D02*
X140755Y55519D01*
X140690Y55563D01*
X140628Y55611D01*
X140568Y55661D01*
X140510Y55714D01*
X140455Y55770D01*
X140403Y55829D01*
X140353Y55889D01*
X140306Y55953D01*
X140263Y56018D01*
X140222Y56085D01*
X140185Y56154D01*
X140151Y56225D01*
X140120Y56297D01*
X140093Y56371D01*
X140069Y56445D01*
X140049Y56521D01*
X140033Y56598D01*
X140020Y56675D01*
X140010Y56753D01*
X140005Y56832D01*
X140003Y56910D01*
X143073Y54250D02*
X143139Y54208D01*
X143204Y54164D01*
X143266Y54117D01*
X143326Y54066D01*
X143384Y54013D01*
X143439Y53957D01*
X143492Y53899D01*
X143541Y53838D01*
X143588Y53775D01*
X143631Y53710D01*
X143672Y53643D01*
X143709Y53574D01*
X143743Y53503D01*
X143774Y53431D01*
X143801Y53357D01*
X143825Y53282D01*
X143845Y53207D01*
X143861Y53130D01*
X143874Y53053D01*
X143884Y52975D01*
X143889Y52896D01*
X143891Y52818D01*
X143073Y54250D02*
X140822Y55478D01*
X147130Y58547D02*
X147130Y51181D01*
X150404Y51181D01*
X152801Y51181D02*
X155256Y58547D01*
X157712Y51181D01*
X157098Y53023D02*
X153415Y53023D01*
X160116Y58547D02*
X162572Y51181D01*
X165027Y58547D01*
X168100Y51181D02*
X171374Y51181D01*
X168100Y51181D02*
X168100Y58547D01*
X171374Y58547D01*
X170556Y55273D02*
X168100Y55273D01*
X-5828Y38622D02*
X-7394Y38622D01*
X-5828Y38622D02*
X-5828Y33401D01*
X-8961Y33401D01*
X-9050Y33403D01*
X-9138Y33409D01*
X-9226Y33418D01*
X-9314Y33431D01*
X-9401Y33448D01*
X-9487Y33468D01*
X-9572Y33493D01*
X-9657Y33520D01*
X-9740Y33552D01*
X-9821Y33586D01*
X-9901Y33625D01*
X-9979Y33666D01*
X-10056Y33711D01*
X-10130Y33759D01*
X-10203Y33810D01*
X-10273Y33864D01*
X-10340Y33922D01*
X-10406Y33982D01*
X-10468Y34044D01*
X-10528Y34110D01*
X-10586Y34177D01*
X-10640Y34247D01*
X-10691Y34320D01*
X-10739Y34394D01*
X-10784Y34471D01*
X-10825Y34549D01*
X-10864Y34629D01*
X-10898Y34710D01*
X-10930Y34793D01*
X-10957Y34878D01*
X-10982Y34963D01*
X-11002Y35049D01*
X-11019Y35136D01*
X-11032Y35224D01*
X-11041Y35312D01*
X-11047Y35400D01*
X-11049Y35489D01*
X-11049Y40711D01*
X-11047Y40800D01*
X-11041Y40888D01*
X-11032Y40976D01*
X-11019Y41064D01*
X-11002Y41151D01*
X-10982Y41237D01*
X-10957Y41322D01*
X-10930Y41407D01*
X-10898Y41490D01*
X-10864Y41571D01*
X-10825Y41651D01*
X-10784Y41729D01*
X-10739Y41806D01*
X-10691Y41880D01*
X-10640Y41953D01*
X-10586Y42023D01*
X-10528Y42090D01*
X-10468Y42156D01*
X-10406Y42218D01*
X-10340Y42278D01*
X-10273Y42336D01*
X-10203Y42390D01*
X-10130Y42441D01*
X-10056Y42489D01*
X-9979Y42534D01*
X-9901Y42575D01*
X-9821Y42614D01*
X-9740Y42648D01*
X-9657Y42680D01*
X-9572Y42707D01*
X-9487Y42732D01*
X-9401Y42752D01*
X-9314Y42769D01*
X-9226Y42782D01*
X-9138Y42791D01*
X-9050Y42797D01*
X-8961Y42799D01*
X-5828Y42799D01*
X-1295Y42799D02*
X-1295Y33401D01*
X3926Y33401D02*
X-1295Y42799D01*
X3926Y42799D02*
X3926Y33401D01*
X8458Y33401D02*
X8458Y42799D01*
X11069Y42799D01*
X11169Y42797D01*
X11269Y42791D01*
X11368Y42782D01*
X11468Y42768D01*
X11566Y42751D01*
X11664Y42730D01*
X11761Y42706D01*
X11857Y42677D01*
X11952Y42645D01*
X12045Y42610D01*
X12137Y42571D01*
X12228Y42528D01*
X12316Y42482D01*
X12403Y42432D01*
X12488Y42380D01*
X12571Y42324D01*
X12652Y42265D01*
X12730Y42202D01*
X12806Y42137D01*
X12880Y42069D01*
X12950Y41999D01*
X13018Y41925D01*
X13083Y41849D01*
X13146Y41771D01*
X13205Y41690D01*
X13261Y41607D01*
X13313Y41522D01*
X13363Y41435D01*
X13409Y41347D01*
X13452Y41256D01*
X13491Y41164D01*
X13526Y41071D01*
X13558Y40976D01*
X13587Y40880D01*
X13611Y40783D01*
X13632Y40685D01*
X13649Y40587D01*
X13663Y40487D01*
X13672Y40388D01*
X13678Y40288D01*
X13680Y40188D01*
X13679Y40188D02*
X13679Y36012D01*
X13680Y36012D02*
X13678Y35912D01*
X13672Y35812D01*
X13663Y35713D01*
X13649Y35613D01*
X13632Y35515D01*
X13611Y35417D01*
X13587Y35320D01*
X13558Y35224D01*
X13526Y35129D01*
X13491Y35036D01*
X13452Y34944D01*
X13409Y34853D01*
X13363Y34765D01*
X13313Y34678D01*
X13261Y34593D01*
X13205Y34510D01*
X13146Y34429D01*
X13083Y34351D01*
X13018Y34275D01*
X12950Y34201D01*
X12880Y34131D01*
X12806Y34063D01*
X12730Y33998D01*
X12652Y33935D01*
X12571Y33876D01*
X12488Y33820D01*
X12403Y33768D01*
X12316Y33718D01*
X12228Y33672D01*
X12137Y33629D01*
X12045Y33590D01*
X11952Y33555D01*
X11857Y33523D01*
X11761Y33494D01*
X11664Y33470D01*
X11566Y33449D01*
X11468Y33432D01*
X11368Y33418D01*
X11269Y33409D01*
X11169Y33403D01*
X11069Y33401D01*
X8458Y33401D01*
X90396Y470422D02*
X91962Y470422D01*
X91962Y465201D01*
X88829Y465201D01*
X88740Y465203D01*
X88652Y465209D01*
X88564Y465218D01*
X88476Y465231D01*
X88389Y465248D01*
X88303Y465268D01*
X88218Y465293D01*
X88133Y465320D01*
X88050Y465352D01*
X87969Y465386D01*
X87889Y465425D01*
X87811Y465466D01*
X87734Y465511D01*
X87660Y465559D01*
X87587Y465610D01*
X87517Y465664D01*
X87450Y465722D01*
X87384Y465782D01*
X87322Y465844D01*
X87262Y465910D01*
X87204Y465977D01*
X87150Y466047D01*
X87099Y466120D01*
X87051Y466194D01*
X87006Y466271D01*
X86965Y466349D01*
X86926Y466429D01*
X86892Y466510D01*
X86860Y466593D01*
X86833Y466678D01*
X86808Y466763D01*
X86788Y466849D01*
X86771Y466936D01*
X86758Y467024D01*
X86749Y467112D01*
X86743Y467200D01*
X86741Y467289D01*
X86741Y472511D01*
X86743Y472602D01*
X86749Y472693D01*
X86759Y472784D01*
X86773Y472874D01*
X86790Y472963D01*
X86812Y473051D01*
X86838Y473139D01*
X86867Y473225D01*
X86900Y473310D01*
X86937Y473393D01*
X86977Y473475D01*
X87021Y473555D01*
X87068Y473633D01*
X87119Y473709D01*
X87172Y473782D01*
X87229Y473853D01*
X87290Y473922D01*
X87353Y473987D01*
X87418Y474050D01*
X87487Y474110D01*
X87558Y474168D01*
X87631Y474221D01*
X87707Y474272D01*
X87785Y474319D01*
X87865Y474363D01*
X87947Y474403D01*
X88030Y474440D01*
X88115Y474473D01*
X88201Y474502D01*
X88289Y474528D01*
X88377Y474550D01*
X88466Y474567D01*
X88556Y474581D01*
X88647Y474591D01*
X88738Y474597D01*
X88829Y474599D01*
X91962Y474599D01*
X96495Y474599D02*
X96495Y465201D01*
X101716Y465201D02*
X96495Y474599D01*
X101716Y474599D02*
X101716Y465201D01*
X106248Y465201D02*
X106248Y474599D01*
X108859Y474599D01*
X108959Y474597D01*
X109059Y474591D01*
X109158Y474582D01*
X109258Y474568D01*
X109356Y474551D01*
X109454Y474530D01*
X109551Y474506D01*
X109647Y474477D01*
X109742Y474445D01*
X109835Y474410D01*
X109927Y474371D01*
X110018Y474328D01*
X110106Y474282D01*
X110193Y474232D01*
X110278Y474180D01*
X110361Y474124D01*
X110442Y474065D01*
X110520Y474002D01*
X110596Y473937D01*
X110670Y473869D01*
X110740Y473799D01*
X110808Y473725D01*
X110873Y473649D01*
X110936Y473571D01*
X110995Y473490D01*
X111051Y473407D01*
X111103Y473322D01*
X111153Y473235D01*
X111199Y473147D01*
X111242Y473056D01*
X111281Y472964D01*
X111316Y472871D01*
X111348Y472776D01*
X111377Y472680D01*
X111401Y472583D01*
X111422Y472485D01*
X111439Y472387D01*
X111453Y472287D01*
X111462Y472188D01*
X111468Y472088D01*
X111470Y471988D01*
X111469Y471988D02*
X111469Y467812D01*
X111470Y467812D02*
X111468Y467712D01*
X111462Y467612D01*
X111453Y467513D01*
X111439Y467413D01*
X111422Y467315D01*
X111401Y467217D01*
X111377Y467120D01*
X111348Y467024D01*
X111316Y466929D01*
X111281Y466836D01*
X111242Y466744D01*
X111199Y466653D01*
X111153Y466565D01*
X111103Y466478D01*
X111051Y466393D01*
X110995Y466310D01*
X110936Y466229D01*
X110873Y466151D01*
X110808Y466075D01*
X110740Y466001D01*
X110670Y465931D01*
X110596Y465863D01*
X110520Y465798D01*
X110442Y465735D01*
X110361Y465676D01*
X110278Y465620D01*
X110193Y465568D01*
X110106Y465518D01*
X110018Y465472D01*
X109927Y465429D01*
X109835Y465390D01*
X109742Y465355D01*
X109647Y465323D01*
X109551Y465294D01*
X109454Y465270D01*
X109356Y465249D01*
X109258Y465232D01*
X109158Y465218D01*
X109059Y465209D01*
X108959Y465203D01*
X108859Y465201D01*
X106248Y465201D01*
X164211Y338954D02*
X166299Y336344D01*
X164211Y338954D02*
X173609Y338954D01*
X173609Y336344D02*
X173609Y341565D01*
X168910Y345487D02*
X168725Y345489D01*
X168540Y345496D01*
X168356Y345507D01*
X168172Y345522D01*
X167988Y345542D01*
X167804Y345566D01*
X167622Y345595D01*
X167440Y345628D01*
X167259Y345665D01*
X167079Y345707D01*
X166899Y345753D01*
X166721Y345803D01*
X166545Y345857D01*
X166369Y345916D01*
X166195Y345978D01*
X166023Y346045D01*
X165852Y346116D01*
X165683Y346191D01*
X165516Y346270D01*
X165436Y346300D01*
X165357Y346333D01*
X165280Y346370D01*
X165204Y346410D01*
X165130Y346453D01*
X165058Y346499D01*
X164989Y346549D01*
X164921Y346601D01*
X164856Y346657D01*
X164793Y346715D01*
X164734Y346777D01*
X164676Y346840D01*
X164622Y346907D01*
X164571Y346975D01*
X164523Y347046D01*
X164478Y347119D01*
X164436Y347193D01*
X164398Y347270D01*
X164363Y347348D01*
X164331Y347427D01*
X164303Y347508D01*
X164279Y347590D01*
X164258Y347674D01*
X164241Y347757D01*
X164228Y347842D01*
X164219Y347927D01*
X164213Y348012D01*
X164211Y348098D01*
X164213Y348184D01*
X164219Y348269D01*
X164228Y348354D01*
X164241Y348439D01*
X164258Y348522D01*
X164279Y348606D01*
X164303Y348688D01*
X164331Y348769D01*
X164363Y348848D01*
X164398Y348926D01*
X164436Y349003D01*
X164478Y349077D01*
X164523Y349150D01*
X164571Y349221D01*
X164622Y349289D01*
X164676Y349356D01*
X164734Y349419D01*
X164793Y349481D01*
X164856Y349539D01*
X164921Y349595D01*
X164989Y349647D01*
X165058Y349697D01*
X165130Y349743D01*
X165204Y349786D01*
X165280Y349826D01*
X165357Y349863D01*
X165436Y349896D01*
X165516Y349926D01*
X165683Y350005D01*
X165852Y350080D01*
X166023Y350151D01*
X166195Y350218D01*
X166369Y350280D01*
X166545Y350339D01*
X166721Y350393D01*
X166899Y350443D01*
X167079Y350489D01*
X167259Y350531D01*
X167440Y350568D01*
X167622Y350601D01*
X167804Y350630D01*
X167988Y350654D01*
X168172Y350674D01*
X168356Y350689D01*
X168540Y350700D01*
X168725Y350707D01*
X168910Y350709D01*
X168910Y345487D02*
X169095Y345489D01*
X169280Y345496D01*
X169464Y345507D01*
X169648Y345522D01*
X169832Y345542D01*
X170016Y345566D01*
X170198Y345595D01*
X170380Y345628D01*
X170561Y345665D01*
X170741Y345707D01*
X170921Y345753D01*
X171099Y345803D01*
X171275Y345857D01*
X171451Y345916D01*
X171625Y345978D01*
X171797Y346045D01*
X171968Y346116D01*
X172137Y346191D01*
X172304Y346270D01*
X172384Y346300D01*
X172463Y346333D01*
X172540Y346370D01*
X172616Y346410D01*
X172690Y346453D01*
X172762Y346499D01*
X172831Y346549D01*
X172899Y346602D01*
X172964Y346657D01*
X173027Y346716D01*
X173086Y346777D01*
X173144Y346840D01*
X173198Y346907D01*
X173249Y346975D01*
X173297Y347046D01*
X173342Y347119D01*
X173384Y347193D01*
X173422Y347270D01*
X173457Y347348D01*
X173489Y347427D01*
X173517Y347508D01*
X173541Y347590D01*
X173562Y347674D01*
X173579Y347757D01*
X173592Y347842D01*
X173601Y347927D01*
X173607Y348012D01*
X173609Y348098D01*
X172304Y349926D02*
X172137Y350005D01*
X171968Y350080D01*
X171797Y350151D01*
X171625Y350218D01*
X171451Y350280D01*
X171275Y350339D01*
X171099Y350393D01*
X170921Y350443D01*
X170741Y350489D01*
X170561Y350531D01*
X170380Y350568D01*
X170198Y350601D01*
X170016Y350630D01*
X169832Y350654D01*
X169648Y350674D01*
X169464Y350689D01*
X169280Y350700D01*
X169095Y350707D01*
X168910Y350709D01*
X172304Y349926D02*
X172384Y349896D01*
X172463Y349863D01*
X172540Y349826D01*
X172616Y349786D01*
X172690Y349743D01*
X172762Y349697D01*
X172831Y349647D01*
X172899Y349595D01*
X172964Y349539D01*
X173027Y349481D01*
X173086Y349419D01*
X173144Y349356D01*
X173198Y349289D01*
X173249Y349221D01*
X173297Y349150D01*
X173342Y349077D01*
X173384Y349003D01*
X173422Y348926D01*
X173457Y348848D01*
X173489Y348769D01*
X173517Y348688D01*
X173541Y348606D01*
X173562Y348522D01*
X173579Y348439D01*
X173592Y348354D01*
X173601Y348269D01*
X173607Y348184D01*
X173609Y348098D01*
X171521Y346010D02*
X166299Y350187D01*
X168910Y354631D02*
X168725Y354633D01*
X168540Y354640D01*
X168356Y354651D01*
X168172Y354666D01*
X167988Y354686D01*
X167804Y354710D01*
X167622Y354739D01*
X167440Y354772D01*
X167259Y354809D01*
X167079Y354851D01*
X166899Y354897D01*
X166721Y354947D01*
X166545Y355001D01*
X166369Y355060D01*
X166195Y355122D01*
X166023Y355189D01*
X165852Y355260D01*
X165683Y355335D01*
X165516Y355414D01*
X165436Y355444D01*
X165357Y355477D01*
X165280Y355514D01*
X165204Y355554D01*
X165130Y355597D01*
X165058Y355643D01*
X164989Y355693D01*
X164921Y355745D01*
X164856Y355801D01*
X164793Y355859D01*
X164734Y355921D01*
X164676Y355984D01*
X164622Y356051D01*
X164571Y356119D01*
X164523Y356190D01*
X164478Y356263D01*
X164436Y356337D01*
X164398Y356414D01*
X164363Y356492D01*
X164331Y356571D01*
X164303Y356652D01*
X164279Y356734D01*
X164258Y356818D01*
X164241Y356901D01*
X164228Y356986D01*
X164219Y357071D01*
X164213Y357156D01*
X164211Y357242D01*
X164213Y357328D01*
X164219Y357413D01*
X164228Y357498D01*
X164241Y357583D01*
X164258Y357666D01*
X164279Y357750D01*
X164303Y357832D01*
X164331Y357913D01*
X164363Y357992D01*
X164398Y358070D01*
X164436Y358147D01*
X164478Y358221D01*
X164523Y358294D01*
X164571Y358365D01*
X164622Y358433D01*
X164676Y358500D01*
X164734Y358563D01*
X164793Y358625D01*
X164856Y358683D01*
X164921Y358739D01*
X164989Y358791D01*
X165058Y358841D01*
X165130Y358887D01*
X165204Y358930D01*
X165280Y358970D01*
X165357Y359007D01*
X165436Y359040D01*
X165516Y359070D01*
X165683Y359149D01*
X165852Y359224D01*
X166023Y359295D01*
X166195Y359362D01*
X166369Y359424D01*
X166545Y359483D01*
X166721Y359537D01*
X166899Y359587D01*
X167079Y359633D01*
X167259Y359675D01*
X167440Y359712D01*
X167622Y359745D01*
X167804Y359774D01*
X167988Y359798D01*
X168172Y359818D01*
X168356Y359833D01*
X168540Y359844D01*
X168725Y359851D01*
X168910Y359853D01*
X168910Y354631D02*
X169095Y354633D01*
X169280Y354640D01*
X169464Y354651D01*
X169648Y354666D01*
X169832Y354686D01*
X170016Y354710D01*
X170198Y354739D01*
X170380Y354772D01*
X170561Y354809D01*
X170741Y354851D01*
X170921Y354897D01*
X171099Y354947D01*
X171275Y355001D01*
X171451Y355060D01*
X171625Y355122D01*
X171797Y355189D01*
X171968Y355260D01*
X172137Y355335D01*
X172304Y355414D01*
X172384Y355444D01*
X172463Y355477D01*
X172540Y355514D01*
X172616Y355554D01*
X172690Y355597D01*
X172762Y355643D01*
X172831Y355693D01*
X172899Y355746D01*
X172964Y355801D01*
X173027Y355860D01*
X173086Y355921D01*
X173144Y355984D01*
X173198Y356051D01*
X173249Y356119D01*
X173297Y356190D01*
X173342Y356263D01*
X173384Y356337D01*
X173422Y356414D01*
X173457Y356492D01*
X173489Y356571D01*
X173517Y356652D01*
X173541Y356734D01*
X173562Y356818D01*
X173579Y356901D01*
X173592Y356986D01*
X173601Y357071D01*
X173607Y357156D01*
X173609Y357242D01*
X172304Y359070D02*
X172137Y359149D01*
X171968Y359224D01*
X171797Y359295D01*
X171625Y359362D01*
X171451Y359424D01*
X171275Y359483D01*
X171099Y359537D01*
X170921Y359587D01*
X170741Y359633D01*
X170561Y359675D01*
X170380Y359712D01*
X170198Y359745D01*
X170016Y359774D01*
X169832Y359798D01*
X169648Y359818D01*
X169464Y359833D01*
X169280Y359844D01*
X169095Y359851D01*
X168910Y359853D01*
X172304Y359070D02*
X172384Y359040D01*
X172463Y359007D01*
X172540Y358970D01*
X172616Y358930D01*
X172690Y358887D01*
X172762Y358841D01*
X172831Y358791D01*
X172899Y358739D01*
X172964Y358683D01*
X173027Y358625D01*
X173086Y358563D01*
X173144Y358500D01*
X173198Y358433D01*
X173249Y358365D01*
X173297Y358294D01*
X173342Y358221D01*
X173384Y358147D01*
X173422Y358070D01*
X173457Y357992D01*
X173489Y357913D01*
X173517Y357832D01*
X173541Y357750D01*
X173562Y357666D01*
X173579Y357583D01*
X173592Y357498D01*
X173601Y357413D01*
X173607Y357328D01*
X173609Y357242D01*
X171521Y355154D02*
X166299Y359331D01*
X167344Y363993D02*
X173609Y363993D01*
X167344Y363993D02*
X167344Y366603D01*
X167346Y366680D01*
X167352Y366756D01*
X167361Y366833D01*
X167374Y366909D01*
X167391Y366984D01*
X167411Y367058D01*
X167436Y367131D01*
X167463Y367202D01*
X167494Y367273D01*
X167529Y367341D01*
X167567Y367408D01*
X167608Y367473D01*
X167652Y367536D01*
X167699Y367596D01*
X167750Y367655D01*
X167803Y367710D01*
X167858Y367763D01*
X167917Y367814D01*
X167977Y367861D01*
X168040Y367905D01*
X168105Y367946D01*
X168172Y367984D01*
X168240Y368019D01*
X168311Y368050D01*
X168382Y368077D01*
X168455Y368102D01*
X168529Y368122D01*
X168604Y368139D01*
X168680Y368152D01*
X168756Y368161D01*
X168833Y368167D01*
X168910Y368169D01*
X168910Y368170D02*
X173609Y368170D01*
X173609Y372632D02*
X164211Y372632D01*
X164211Y376809D01*
X168388Y376809D02*
X168388Y372632D01*
D12*
X215900Y329100D02*
X215900Y317500D01*
X227100Y317500D01*
X368300Y317500D02*
X368300Y329100D01*
X368300Y317500D02*
X357100Y317500D01*
X368300Y509100D02*
X368300Y520700D01*
X352100Y520700D01*
X227100Y520700D02*
X215900Y520700D01*
X215900Y509100D01*
D13*
X206100Y495100D03*
D14*
X206098Y495144D01*
X206092Y495187D01*
X206083Y495229D01*
X206070Y495271D01*
X206053Y495311D01*
X206033Y495350D01*
X206010Y495387D01*
X205983Y495421D01*
X205954Y495454D01*
X205921Y495483D01*
X205887Y495510D01*
X205850Y495533D01*
X205811Y495553D01*
X205771Y495570D01*
X205729Y495583D01*
X205687Y495592D01*
X205644Y495598D01*
X205600Y495600D01*
X205556Y495598D01*
X205513Y495592D01*
X205471Y495583D01*
X205429Y495570D01*
X205389Y495553D01*
X205350Y495533D01*
X205313Y495510D01*
X205279Y495483D01*
X205246Y495454D01*
X205217Y495421D01*
X205190Y495387D01*
X205167Y495350D01*
X205147Y495311D01*
X205130Y495271D01*
X205117Y495229D01*
X205108Y495187D01*
X205102Y495144D01*
X205100Y495100D01*
D13*
X205100Y495100D03*
D14*
X205102Y495056D01*
X205108Y495013D01*
X205117Y494971D01*
X205130Y494929D01*
X205147Y494889D01*
X205167Y494850D01*
X205190Y494813D01*
X205217Y494779D01*
X205246Y494746D01*
X205279Y494717D01*
X205313Y494690D01*
X205350Y494667D01*
X205389Y494647D01*
X205429Y494630D01*
X205471Y494617D01*
X205513Y494608D01*
X205556Y494602D01*
X205600Y494600D01*
X205644Y494602D01*
X205687Y494608D01*
X205729Y494617D01*
X205771Y494630D01*
X205811Y494647D01*
X205850Y494667D01*
X205887Y494690D01*
X205921Y494717D01*
X205954Y494746D01*
X205983Y494779D01*
X206010Y494813D01*
X206033Y494850D01*
X206053Y494889D01*
X206070Y494929D01*
X206083Y494971D01*
X206092Y495013D01*
X206098Y495056D01*
X206100Y495100D01*
D11*
X315849Y405588D02*
X315849Y401411D01*
X306451Y401411D01*
X306451Y405588D01*
X310628Y404543D02*
X310628Y401411D01*
X306451Y409375D02*
X315849Y409375D01*
X306451Y409375D02*
X306451Y411986D01*
X306453Y412087D01*
X306459Y412188D01*
X306469Y412289D01*
X306482Y412389D01*
X306500Y412489D01*
X306521Y412588D01*
X306547Y412686D01*
X306576Y412783D01*
X306608Y412879D01*
X306645Y412973D01*
X306685Y413066D01*
X306729Y413158D01*
X306776Y413247D01*
X306827Y413335D01*
X306881Y413421D01*
X306938Y413504D01*
X306998Y413586D01*
X307062Y413664D01*
X307128Y413741D01*
X307198Y413814D01*
X307270Y413885D01*
X307345Y413953D01*
X307423Y414018D01*
X307503Y414080D01*
X307585Y414139D01*
X307670Y414195D01*
X307757Y414247D01*
X307845Y414296D01*
X307936Y414342D01*
X308028Y414383D01*
X308122Y414422D01*
X308217Y414456D01*
X308313Y414487D01*
X308411Y414514D01*
X308509Y414538D01*
X308609Y414557D01*
X308709Y414573D01*
X308809Y414585D01*
X308910Y414593D01*
X309011Y414597D01*
X309113Y414597D01*
X309214Y414593D01*
X309315Y414585D01*
X309415Y414573D01*
X309515Y414557D01*
X309615Y414538D01*
X309713Y414514D01*
X309811Y414487D01*
X309907Y414456D01*
X310002Y414422D01*
X310096Y414383D01*
X310188Y414342D01*
X310279Y414296D01*
X310368Y414247D01*
X310454Y414195D01*
X310539Y414139D01*
X310621Y414080D01*
X310701Y414018D01*
X310779Y413953D01*
X310854Y413885D01*
X310926Y413814D01*
X310996Y413741D01*
X311062Y413664D01*
X311126Y413586D01*
X311186Y413504D01*
X311243Y413421D01*
X311297Y413335D01*
X311348Y413247D01*
X311395Y413158D01*
X311439Y413066D01*
X311479Y412973D01*
X311516Y412879D01*
X311548Y412783D01*
X311577Y412686D01*
X311603Y412588D01*
X311624Y412489D01*
X311642Y412389D01*
X311655Y412289D01*
X311665Y412188D01*
X311671Y412087D01*
X311673Y411986D01*
X311672Y411986D02*
X311672Y409375D01*
X311672Y412508D02*
X315849Y414596D01*
X315849Y419244D02*
X306451Y419244D01*
X315849Y418199D02*
X315849Y420288D01*
X306451Y420288D02*
X306451Y418199D01*
X315849Y426011D02*
X315849Y428099D01*
X315849Y426011D02*
X315847Y425922D01*
X315841Y425834D01*
X315832Y425746D01*
X315819Y425658D01*
X315802Y425571D01*
X315782Y425485D01*
X315757Y425400D01*
X315730Y425315D01*
X315698Y425232D01*
X315664Y425151D01*
X315625Y425071D01*
X315584Y424993D01*
X315539Y424916D01*
X315491Y424842D01*
X315440Y424769D01*
X315386Y424699D01*
X315328Y424632D01*
X315268Y424566D01*
X315206Y424504D01*
X315140Y424444D01*
X315073Y424386D01*
X315003Y424332D01*
X314930Y424281D01*
X314856Y424233D01*
X314779Y424188D01*
X314701Y424147D01*
X314621Y424108D01*
X314540Y424074D01*
X314457Y424042D01*
X314372Y424015D01*
X314287Y423990D01*
X314201Y423970D01*
X314114Y423953D01*
X314026Y423940D01*
X313938Y423931D01*
X313850Y423925D01*
X313761Y423923D01*
X308539Y423923D01*
X308539Y423922D02*
X308448Y423924D01*
X308357Y423930D01*
X308266Y423940D01*
X308176Y423954D01*
X308087Y423972D01*
X307998Y423993D01*
X307911Y424019D01*
X307825Y424048D01*
X307740Y424081D01*
X307656Y424118D01*
X307574Y424158D01*
X307495Y424202D01*
X307417Y424249D01*
X307341Y424300D01*
X307267Y424354D01*
X307196Y424411D01*
X307128Y424471D01*
X307062Y424534D01*
X306999Y424600D01*
X306939Y424668D01*
X306882Y424739D01*
X306828Y424813D01*
X306777Y424889D01*
X306730Y424966D01*
X306686Y425046D01*
X306646Y425128D01*
X306609Y425212D01*
X306576Y425296D01*
X306547Y425383D01*
X306521Y425470D01*
X306500Y425559D01*
X306482Y425648D01*
X306468Y425738D01*
X306458Y425829D01*
X306452Y425920D01*
X306450Y426011D01*
X306451Y426011D02*
X306451Y428099D01*
X311672Y433657D02*
X311672Y436789D01*
X311672Y433657D02*
X311670Y433568D01*
X311664Y433480D01*
X311655Y433392D01*
X311642Y433304D01*
X311625Y433217D01*
X311605Y433131D01*
X311580Y433046D01*
X311553Y432961D01*
X311521Y432878D01*
X311487Y432797D01*
X311448Y432717D01*
X311407Y432639D01*
X311362Y432562D01*
X311314Y432488D01*
X311263Y432415D01*
X311209Y432345D01*
X311151Y432278D01*
X311091Y432212D01*
X311029Y432150D01*
X310963Y432090D01*
X310896Y432032D01*
X310826Y431978D01*
X310753Y431927D01*
X310679Y431879D01*
X310602Y431834D01*
X310524Y431793D01*
X310444Y431754D01*
X310363Y431720D01*
X310280Y431688D01*
X310195Y431661D01*
X310110Y431636D01*
X310024Y431616D01*
X309937Y431599D01*
X309849Y431586D01*
X309761Y431577D01*
X309673Y431571D01*
X309584Y431569D01*
X309584Y431568D02*
X309062Y431568D01*
X308961Y431570D01*
X308860Y431576D01*
X308759Y431586D01*
X308659Y431599D01*
X308559Y431617D01*
X308460Y431638D01*
X308362Y431664D01*
X308265Y431693D01*
X308169Y431725D01*
X308075Y431762D01*
X307982Y431802D01*
X307890Y431846D01*
X307801Y431893D01*
X307713Y431944D01*
X307627Y431998D01*
X307544Y432055D01*
X307462Y432115D01*
X307384Y432179D01*
X307307Y432245D01*
X307234Y432315D01*
X307163Y432387D01*
X307095Y432462D01*
X307030Y432540D01*
X306968Y432620D01*
X306909Y432702D01*
X306853Y432787D01*
X306801Y432874D01*
X306752Y432962D01*
X306706Y433053D01*
X306665Y433145D01*
X306626Y433239D01*
X306592Y433334D01*
X306561Y433430D01*
X306534Y433528D01*
X306510Y433626D01*
X306491Y433726D01*
X306475Y433826D01*
X306463Y433926D01*
X306455Y434027D01*
X306451Y434128D01*
X306451Y434230D01*
X306455Y434331D01*
X306463Y434432D01*
X306475Y434532D01*
X306491Y434632D01*
X306510Y434732D01*
X306534Y434830D01*
X306561Y434928D01*
X306592Y435024D01*
X306626Y435119D01*
X306665Y435213D01*
X306706Y435305D01*
X306752Y435396D01*
X306801Y435485D01*
X306853Y435571D01*
X306909Y435656D01*
X306968Y435738D01*
X307030Y435818D01*
X307095Y435896D01*
X307163Y435971D01*
X307234Y436043D01*
X307307Y436113D01*
X307384Y436179D01*
X307462Y436243D01*
X307544Y436303D01*
X307627Y436360D01*
X307713Y436414D01*
X307801Y436465D01*
X307890Y436512D01*
X307982Y436556D01*
X308075Y436596D01*
X308169Y436633D01*
X308265Y436665D01*
X308362Y436694D01*
X308460Y436720D01*
X308559Y436741D01*
X308659Y436759D01*
X308759Y436772D01*
X308860Y436782D01*
X308961Y436788D01*
X309062Y436790D01*
X309062Y436789D02*
X311672Y436789D01*
X311798Y436787D01*
X311924Y436781D01*
X312050Y436772D01*
X312175Y436759D01*
X312300Y436741D01*
X312425Y436721D01*
X312549Y436696D01*
X312672Y436668D01*
X312794Y436636D01*
X312915Y436600D01*
X313035Y436561D01*
X313153Y436518D01*
X313270Y436471D01*
X313386Y436421D01*
X313501Y436367D01*
X313613Y436311D01*
X313724Y436250D01*
X313833Y436187D01*
X313940Y436120D01*
X314045Y436050D01*
X314148Y435976D01*
X314248Y435900D01*
X314346Y435821D01*
X314442Y435739D01*
X314535Y435653D01*
X314626Y435566D01*
X314713Y435475D01*
X314799Y435382D01*
X314881Y435286D01*
X314960Y435188D01*
X315036Y435088D01*
X315110Y434985D01*
X315180Y434880D01*
X315247Y434773D01*
X315310Y434664D01*
X315371Y434553D01*
X315427Y434441D01*
X315481Y434326D01*
X315531Y434210D01*
X315578Y434093D01*
X315621Y433975D01*
X315660Y433855D01*
X315696Y433734D01*
X315728Y433612D01*
X315756Y433489D01*
X315781Y433365D01*
X315801Y433240D01*
X315819Y433115D01*
X315832Y432990D01*
X315841Y432864D01*
X315847Y432738D01*
X315849Y432612D01*
X146050Y486791D02*
X145865Y486793D01*
X145680Y486800D01*
X145496Y486811D01*
X145312Y486826D01*
X145128Y486846D01*
X144944Y486870D01*
X144762Y486899D01*
X144580Y486932D01*
X144399Y486969D01*
X144219Y487011D01*
X144039Y487057D01*
X143861Y487107D01*
X143685Y487161D01*
X143509Y487220D01*
X143335Y487282D01*
X143163Y487349D01*
X142992Y487420D01*
X142823Y487495D01*
X142656Y487574D01*
X142576Y487604D01*
X142497Y487637D01*
X142420Y487674D01*
X142344Y487714D01*
X142270Y487757D01*
X142198Y487803D01*
X142129Y487853D01*
X142061Y487905D01*
X141996Y487961D01*
X141933Y488019D01*
X141874Y488081D01*
X141816Y488144D01*
X141762Y488211D01*
X141711Y488279D01*
X141663Y488350D01*
X141618Y488423D01*
X141576Y488497D01*
X141538Y488574D01*
X141503Y488652D01*
X141471Y488731D01*
X141443Y488812D01*
X141419Y488894D01*
X141398Y488978D01*
X141381Y489061D01*
X141368Y489146D01*
X141359Y489231D01*
X141353Y489316D01*
X141351Y489402D01*
X141353Y489488D01*
X141359Y489573D01*
X141368Y489658D01*
X141381Y489743D01*
X141398Y489826D01*
X141419Y489910D01*
X141443Y489992D01*
X141471Y490073D01*
X141503Y490152D01*
X141538Y490230D01*
X141576Y490307D01*
X141618Y490381D01*
X141663Y490454D01*
X141711Y490525D01*
X141762Y490593D01*
X141816Y490660D01*
X141874Y490723D01*
X141933Y490785D01*
X141996Y490843D01*
X142061Y490899D01*
X142129Y490951D01*
X142198Y491001D01*
X142270Y491047D01*
X142344Y491090D01*
X142420Y491130D01*
X142497Y491167D01*
X142576Y491200D01*
X142656Y491230D01*
X142656Y491229D02*
X142823Y491308D01*
X142992Y491383D01*
X143163Y491454D01*
X143335Y491521D01*
X143509Y491583D01*
X143685Y491642D01*
X143861Y491696D01*
X144039Y491746D01*
X144219Y491792D01*
X144399Y491834D01*
X144580Y491871D01*
X144762Y491904D01*
X144944Y491933D01*
X145128Y491957D01*
X145312Y491977D01*
X145496Y491992D01*
X145680Y492003D01*
X145865Y492010D01*
X146050Y492012D01*
X146050Y486791D02*
X146235Y486793D01*
X146420Y486800D01*
X146604Y486811D01*
X146788Y486826D01*
X146972Y486846D01*
X147156Y486870D01*
X147338Y486899D01*
X147520Y486932D01*
X147701Y486969D01*
X147881Y487011D01*
X148061Y487057D01*
X148239Y487107D01*
X148415Y487161D01*
X148591Y487220D01*
X148765Y487282D01*
X148937Y487349D01*
X149108Y487420D01*
X149277Y487495D01*
X149444Y487574D01*
X149524Y487604D01*
X149603Y487637D01*
X149680Y487674D01*
X149756Y487714D01*
X149830Y487757D01*
X149902Y487803D01*
X149971Y487853D01*
X150039Y487906D01*
X150104Y487961D01*
X150167Y488020D01*
X150226Y488081D01*
X150284Y488144D01*
X150338Y488211D01*
X150389Y488279D01*
X150437Y488350D01*
X150482Y488423D01*
X150524Y488497D01*
X150562Y488574D01*
X150597Y488652D01*
X150629Y488731D01*
X150657Y488812D01*
X150681Y488894D01*
X150702Y488978D01*
X150719Y489061D01*
X150732Y489146D01*
X150741Y489231D01*
X150747Y489316D01*
X150749Y489402D01*
X149444Y491229D02*
X149277Y491308D01*
X149108Y491383D01*
X148937Y491454D01*
X148765Y491521D01*
X148591Y491583D01*
X148415Y491642D01*
X148239Y491696D01*
X148061Y491746D01*
X147881Y491792D01*
X147701Y491834D01*
X147520Y491871D01*
X147338Y491904D01*
X147156Y491933D01*
X146972Y491957D01*
X146788Y491977D01*
X146604Y491992D01*
X146420Y492003D01*
X146235Y492010D01*
X146050Y492012D01*
X149444Y491230D02*
X149524Y491200D01*
X149603Y491167D01*
X149680Y491130D01*
X149756Y491090D01*
X149830Y491047D01*
X149902Y491001D01*
X149971Y490951D01*
X150039Y490899D01*
X150104Y490843D01*
X150167Y490785D01*
X150226Y490723D01*
X150284Y490660D01*
X150338Y490593D01*
X150389Y490525D01*
X150437Y490454D01*
X150482Y490381D01*
X150524Y490307D01*
X150562Y490230D01*
X150597Y490152D01*
X150629Y490073D01*
X150657Y489992D01*
X150681Y489910D01*
X150702Y489826D01*
X150719Y489743D01*
X150732Y489658D01*
X150741Y489573D01*
X150747Y489488D01*
X150749Y489402D01*
X148661Y487313D02*
X143439Y491490D01*
X141351Y496297D02*
X150749Y496297D01*
X141351Y496297D02*
X141351Y498907D01*
X141353Y499008D01*
X141359Y499109D01*
X141369Y499210D01*
X141382Y499310D01*
X141400Y499410D01*
X141421Y499509D01*
X141447Y499607D01*
X141476Y499704D01*
X141508Y499800D01*
X141545Y499894D01*
X141585Y499987D01*
X141629Y500079D01*
X141676Y500168D01*
X141727Y500256D01*
X141781Y500342D01*
X141838Y500425D01*
X141898Y500507D01*
X141962Y500585D01*
X142028Y500662D01*
X142098Y500735D01*
X142170Y500806D01*
X142245Y500874D01*
X142323Y500939D01*
X142403Y501001D01*
X142485Y501060D01*
X142570Y501116D01*
X142657Y501168D01*
X142745Y501217D01*
X142836Y501263D01*
X142928Y501304D01*
X143022Y501343D01*
X143117Y501377D01*
X143213Y501408D01*
X143311Y501435D01*
X143409Y501459D01*
X143509Y501478D01*
X143609Y501494D01*
X143709Y501506D01*
X143810Y501514D01*
X143911Y501518D01*
X144013Y501518D01*
X144114Y501514D01*
X144215Y501506D01*
X144315Y501494D01*
X144415Y501478D01*
X144515Y501459D01*
X144613Y501435D01*
X144711Y501408D01*
X144807Y501377D01*
X144902Y501343D01*
X144996Y501304D01*
X145088Y501263D01*
X145179Y501217D01*
X145268Y501168D01*
X145354Y501116D01*
X145439Y501060D01*
X145521Y501001D01*
X145601Y500939D01*
X145679Y500874D01*
X145754Y500806D01*
X145826Y500735D01*
X145896Y500662D01*
X145962Y500585D01*
X146026Y500507D01*
X146086Y500425D01*
X146143Y500342D01*
X146197Y500256D01*
X146248Y500168D01*
X146295Y500079D01*
X146339Y499987D01*
X146379Y499894D01*
X146416Y499800D01*
X146448Y499704D01*
X146477Y499607D01*
X146503Y499509D01*
X146524Y499410D01*
X146542Y499310D01*
X146555Y499210D01*
X146565Y499109D01*
X146571Y499008D01*
X146573Y498907D01*
X146572Y498907D02*
X146572Y496297D01*
X146572Y499429D02*
X150749Y501518D01*
X142656Y463444D02*
X142823Y463365D01*
X142992Y463290D01*
X143163Y463219D01*
X143335Y463152D01*
X143509Y463090D01*
X143685Y463031D01*
X143861Y462977D01*
X144039Y462927D01*
X144219Y462881D01*
X144399Y462839D01*
X144580Y462802D01*
X144762Y462769D01*
X144944Y462740D01*
X145128Y462716D01*
X145312Y462696D01*
X145496Y462681D01*
X145680Y462670D01*
X145865Y462663D01*
X146050Y462661D01*
X142656Y463444D02*
X142576Y463474D01*
X142497Y463507D01*
X142420Y463544D01*
X142344Y463584D01*
X142270Y463627D01*
X142198Y463673D01*
X142129Y463723D01*
X142061Y463775D01*
X141996Y463831D01*
X141933Y463889D01*
X141874Y463951D01*
X141816Y464014D01*
X141762Y464081D01*
X141711Y464149D01*
X141663Y464220D01*
X141618Y464293D01*
X141576Y464367D01*
X141538Y464444D01*
X141503Y464522D01*
X141471Y464601D01*
X141443Y464682D01*
X141419Y464764D01*
X141398Y464848D01*
X141381Y464931D01*
X141368Y465016D01*
X141359Y465101D01*
X141353Y465186D01*
X141351Y465272D01*
X141353Y465358D01*
X141359Y465443D01*
X141368Y465528D01*
X141381Y465613D01*
X141398Y465696D01*
X141419Y465780D01*
X141443Y465862D01*
X141471Y465943D01*
X141503Y466022D01*
X141538Y466100D01*
X141576Y466177D01*
X141618Y466251D01*
X141663Y466324D01*
X141711Y466395D01*
X141762Y466463D01*
X141816Y466530D01*
X141874Y466593D01*
X141933Y466655D01*
X141996Y466713D01*
X142061Y466769D01*
X142129Y466821D01*
X142198Y466871D01*
X142270Y466917D01*
X142344Y466960D01*
X142420Y467000D01*
X142497Y467037D01*
X142576Y467070D01*
X142656Y467100D01*
X142656Y467099D02*
X142823Y467178D01*
X142992Y467253D01*
X143163Y467324D01*
X143335Y467391D01*
X143509Y467453D01*
X143685Y467512D01*
X143861Y467566D01*
X144039Y467616D01*
X144219Y467662D01*
X144399Y467704D01*
X144580Y467741D01*
X144762Y467774D01*
X144944Y467803D01*
X145128Y467827D01*
X145312Y467847D01*
X145496Y467862D01*
X145680Y467873D01*
X145865Y467880D01*
X146050Y467882D01*
X146050Y462661D02*
X146235Y462663D01*
X146420Y462670D01*
X146604Y462681D01*
X146788Y462696D01*
X146972Y462716D01*
X147156Y462740D01*
X147338Y462769D01*
X147520Y462802D01*
X147701Y462839D01*
X147881Y462881D01*
X148061Y462927D01*
X148239Y462977D01*
X148415Y463031D01*
X148591Y463090D01*
X148765Y463152D01*
X148937Y463219D01*
X149108Y463290D01*
X149277Y463365D01*
X149444Y463444D01*
X149524Y463474D01*
X149603Y463507D01*
X149680Y463544D01*
X149756Y463584D01*
X149830Y463627D01*
X149902Y463673D01*
X149971Y463723D01*
X150039Y463776D01*
X150104Y463831D01*
X150167Y463890D01*
X150226Y463951D01*
X150284Y464014D01*
X150338Y464081D01*
X150389Y464149D01*
X150437Y464220D01*
X150482Y464293D01*
X150524Y464367D01*
X150562Y464444D01*
X150597Y464522D01*
X150629Y464601D01*
X150657Y464682D01*
X150681Y464764D01*
X150702Y464848D01*
X150719Y464931D01*
X150732Y465016D01*
X150741Y465101D01*
X150747Y465186D01*
X150749Y465272D01*
X149444Y467099D02*
X149277Y467178D01*
X149108Y467253D01*
X148937Y467324D01*
X148765Y467391D01*
X148591Y467453D01*
X148415Y467512D01*
X148239Y467566D01*
X148061Y467616D01*
X147881Y467662D01*
X147701Y467704D01*
X147520Y467741D01*
X147338Y467774D01*
X147156Y467803D01*
X146972Y467827D01*
X146788Y467847D01*
X146604Y467862D01*
X146420Y467873D01*
X146235Y467880D01*
X146050Y467882D01*
X149444Y467100D02*
X149524Y467070D01*
X149603Y467037D01*
X149680Y467000D01*
X149756Y466960D01*
X149830Y466917D01*
X149902Y466871D01*
X149971Y466821D01*
X150039Y466769D01*
X150104Y466713D01*
X150167Y466655D01*
X150226Y466593D01*
X150284Y466530D01*
X150338Y466463D01*
X150389Y466395D01*
X150437Y466324D01*
X150482Y466251D01*
X150524Y466177D01*
X150562Y466100D01*
X150597Y466022D01*
X150629Y465943D01*
X150657Y465862D01*
X150681Y465780D01*
X150702Y465696D01*
X150719Y465613D01*
X150732Y465528D01*
X150741Y465443D01*
X150747Y465358D01*
X150749Y465272D01*
X148661Y463183D02*
X143439Y467360D01*
X141351Y472167D02*
X150749Y472167D01*
X141351Y472167D02*
X141351Y474777D01*
X141353Y474878D01*
X141359Y474979D01*
X141369Y475080D01*
X141382Y475180D01*
X141400Y475280D01*
X141421Y475379D01*
X141447Y475477D01*
X141476Y475574D01*
X141508Y475670D01*
X141545Y475764D01*
X141585Y475857D01*
X141629Y475949D01*
X141676Y476038D01*
X141727Y476126D01*
X141781Y476212D01*
X141838Y476295D01*
X141898Y476377D01*
X141962Y476455D01*
X142028Y476532D01*
X142098Y476605D01*
X142170Y476676D01*
X142245Y476744D01*
X142323Y476809D01*
X142403Y476871D01*
X142485Y476930D01*
X142570Y476986D01*
X142657Y477038D01*
X142745Y477087D01*
X142836Y477133D01*
X142928Y477174D01*
X143022Y477213D01*
X143117Y477247D01*
X143213Y477278D01*
X143311Y477305D01*
X143409Y477329D01*
X143509Y477348D01*
X143609Y477364D01*
X143709Y477376D01*
X143810Y477384D01*
X143911Y477388D01*
X144013Y477388D01*
X144114Y477384D01*
X144215Y477376D01*
X144315Y477364D01*
X144415Y477348D01*
X144515Y477329D01*
X144613Y477305D01*
X144711Y477278D01*
X144807Y477247D01*
X144902Y477213D01*
X144996Y477174D01*
X145088Y477133D01*
X145179Y477087D01*
X145268Y477038D01*
X145354Y476986D01*
X145439Y476930D01*
X145521Y476871D01*
X145601Y476809D01*
X145679Y476744D01*
X145754Y476676D01*
X145826Y476605D01*
X145896Y476532D01*
X145962Y476455D01*
X146026Y476377D01*
X146086Y476295D01*
X146143Y476212D01*
X146197Y476126D01*
X146248Y476038D01*
X146295Y475949D01*
X146339Y475857D01*
X146379Y475764D01*
X146416Y475670D01*
X146448Y475574D01*
X146477Y475477D01*
X146503Y475379D01*
X146524Y475280D01*
X146542Y475180D01*
X146555Y475080D01*
X146565Y474979D01*
X146571Y474878D01*
X146573Y474777D01*
X146572Y474777D02*
X146572Y472167D01*
X146572Y475299D02*
X150749Y477388D01*
X141351Y436062D02*
X143439Y433451D01*
X141351Y436062D02*
X150749Y436062D01*
X150749Y438672D02*
X150749Y433451D01*
X146050Y442595D02*
X145865Y442597D01*
X145680Y442604D01*
X145496Y442615D01*
X145312Y442630D01*
X145128Y442650D01*
X144944Y442674D01*
X144762Y442703D01*
X144580Y442736D01*
X144399Y442773D01*
X144219Y442815D01*
X144039Y442861D01*
X143861Y442911D01*
X143685Y442965D01*
X143509Y443024D01*
X143335Y443086D01*
X143163Y443153D01*
X142992Y443224D01*
X142823Y443299D01*
X142656Y443378D01*
X142576Y443408D01*
X142497Y443441D01*
X142420Y443478D01*
X142344Y443518D01*
X142270Y443561D01*
X142198Y443607D01*
X142129Y443657D01*
X142061Y443709D01*
X141996Y443765D01*
X141933Y443823D01*
X141874Y443885D01*
X141816Y443948D01*
X141762Y444015D01*
X141711Y444083D01*
X141663Y444154D01*
X141618Y444227D01*
X141576Y444301D01*
X141538Y444378D01*
X141503Y444456D01*
X141471Y444535D01*
X141443Y444616D01*
X141419Y444698D01*
X141398Y444782D01*
X141381Y444865D01*
X141368Y444950D01*
X141359Y445035D01*
X141353Y445120D01*
X141351Y445206D01*
X141353Y445292D01*
X141359Y445377D01*
X141368Y445462D01*
X141381Y445547D01*
X141398Y445630D01*
X141419Y445714D01*
X141443Y445796D01*
X141471Y445877D01*
X141503Y445956D01*
X141538Y446034D01*
X141576Y446111D01*
X141618Y446185D01*
X141663Y446258D01*
X141711Y446329D01*
X141762Y446397D01*
X141816Y446464D01*
X141874Y446527D01*
X141933Y446589D01*
X141996Y446647D01*
X142061Y446703D01*
X142129Y446755D01*
X142198Y446805D01*
X142270Y446851D01*
X142344Y446894D01*
X142420Y446934D01*
X142497Y446971D01*
X142576Y447004D01*
X142656Y447034D01*
X142656Y447033D02*
X142823Y447112D01*
X142992Y447187D01*
X143163Y447258D01*
X143335Y447325D01*
X143509Y447387D01*
X143685Y447446D01*
X143861Y447500D01*
X144039Y447550D01*
X144219Y447596D01*
X144399Y447638D01*
X144580Y447675D01*
X144762Y447708D01*
X144944Y447737D01*
X145128Y447761D01*
X145312Y447781D01*
X145496Y447796D01*
X145680Y447807D01*
X145865Y447814D01*
X146050Y447816D01*
X146050Y442595D02*
X146235Y442597D01*
X146420Y442604D01*
X146604Y442615D01*
X146788Y442630D01*
X146972Y442650D01*
X147156Y442674D01*
X147338Y442703D01*
X147520Y442736D01*
X147701Y442773D01*
X147881Y442815D01*
X148061Y442861D01*
X148239Y442911D01*
X148415Y442965D01*
X148591Y443024D01*
X148765Y443086D01*
X148937Y443153D01*
X149108Y443224D01*
X149277Y443299D01*
X149444Y443378D01*
X149524Y443408D01*
X149603Y443441D01*
X149680Y443478D01*
X149756Y443518D01*
X149830Y443561D01*
X149902Y443607D01*
X149971Y443657D01*
X150039Y443710D01*
X150104Y443765D01*
X150167Y443824D01*
X150226Y443885D01*
X150284Y443948D01*
X150338Y444015D01*
X150389Y444083D01*
X150437Y444154D01*
X150482Y444227D01*
X150524Y444301D01*
X150562Y444378D01*
X150597Y444456D01*
X150629Y444535D01*
X150657Y444616D01*
X150681Y444698D01*
X150702Y444782D01*
X150719Y444865D01*
X150732Y444950D01*
X150741Y445035D01*
X150747Y445120D01*
X150749Y445206D01*
X149444Y447033D02*
X149277Y447112D01*
X149108Y447187D01*
X148937Y447258D01*
X148765Y447325D01*
X148591Y447387D01*
X148415Y447446D01*
X148239Y447500D01*
X148061Y447550D01*
X147881Y447596D01*
X147701Y447638D01*
X147520Y447675D01*
X147338Y447708D01*
X147156Y447737D01*
X146972Y447761D01*
X146788Y447781D01*
X146604Y447796D01*
X146420Y447807D01*
X146235Y447814D01*
X146050Y447816D01*
X149444Y447034D02*
X149524Y447004D01*
X149603Y446971D01*
X149680Y446934D01*
X149756Y446894D01*
X149830Y446851D01*
X149902Y446805D01*
X149971Y446755D01*
X150039Y446703D01*
X150104Y446647D01*
X150167Y446589D01*
X150226Y446527D01*
X150284Y446464D01*
X150338Y446397D01*
X150389Y446329D01*
X150437Y446258D01*
X150482Y446185D01*
X150524Y446111D01*
X150562Y446034D01*
X150597Y445956D01*
X150629Y445877D01*
X150657Y445796D01*
X150681Y445714D01*
X150702Y445630D01*
X150719Y445547D01*
X150732Y445462D01*
X150741Y445377D01*
X150747Y445292D01*
X150749Y445206D01*
X148661Y443117D02*
X143439Y447294D01*
X141351Y452061D02*
X150749Y452061D01*
X147616Y452061D02*
X144484Y456238D01*
X146311Y453889D02*
X150749Y456238D01*
X142621Y410662D02*
X144709Y408051D01*
X142621Y410662D02*
X152019Y410662D01*
X152019Y413272D02*
X152019Y408051D01*
X147320Y417195D02*
X147135Y417197D01*
X146950Y417204D01*
X146766Y417215D01*
X146582Y417230D01*
X146398Y417250D01*
X146214Y417274D01*
X146032Y417303D01*
X145850Y417336D01*
X145669Y417373D01*
X145489Y417415D01*
X145309Y417461D01*
X145131Y417511D01*
X144955Y417565D01*
X144779Y417624D01*
X144605Y417686D01*
X144433Y417753D01*
X144262Y417824D01*
X144093Y417899D01*
X143926Y417978D01*
X143846Y418008D01*
X143767Y418041D01*
X143690Y418078D01*
X143614Y418118D01*
X143540Y418161D01*
X143468Y418207D01*
X143399Y418257D01*
X143331Y418309D01*
X143266Y418365D01*
X143203Y418423D01*
X143144Y418485D01*
X143086Y418548D01*
X143032Y418615D01*
X142981Y418683D01*
X142933Y418754D01*
X142888Y418827D01*
X142846Y418901D01*
X142808Y418978D01*
X142773Y419056D01*
X142741Y419135D01*
X142713Y419216D01*
X142689Y419298D01*
X142668Y419382D01*
X142651Y419465D01*
X142638Y419550D01*
X142629Y419635D01*
X142623Y419720D01*
X142621Y419806D01*
X142623Y419892D01*
X142629Y419977D01*
X142638Y420062D01*
X142651Y420147D01*
X142668Y420230D01*
X142689Y420314D01*
X142713Y420396D01*
X142741Y420477D01*
X142773Y420556D01*
X142808Y420634D01*
X142846Y420711D01*
X142888Y420785D01*
X142933Y420858D01*
X142981Y420929D01*
X143032Y420997D01*
X143086Y421064D01*
X143144Y421127D01*
X143203Y421189D01*
X143266Y421247D01*
X143331Y421303D01*
X143399Y421355D01*
X143468Y421405D01*
X143540Y421451D01*
X143614Y421494D01*
X143690Y421534D01*
X143767Y421571D01*
X143846Y421604D01*
X143926Y421634D01*
X143926Y421633D02*
X144093Y421712D01*
X144262Y421787D01*
X144433Y421858D01*
X144605Y421925D01*
X144779Y421987D01*
X144955Y422046D01*
X145131Y422100D01*
X145309Y422150D01*
X145489Y422196D01*
X145669Y422238D01*
X145850Y422275D01*
X146032Y422308D01*
X146214Y422337D01*
X146398Y422361D01*
X146582Y422381D01*
X146766Y422396D01*
X146950Y422407D01*
X147135Y422414D01*
X147320Y422416D01*
X147320Y417195D02*
X147505Y417197D01*
X147690Y417204D01*
X147874Y417215D01*
X148058Y417230D01*
X148242Y417250D01*
X148426Y417274D01*
X148608Y417303D01*
X148790Y417336D01*
X148971Y417373D01*
X149151Y417415D01*
X149331Y417461D01*
X149509Y417511D01*
X149685Y417565D01*
X149861Y417624D01*
X150035Y417686D01*
X150207Y417753D01*
X150378Y417824D01*
X150547Y417899D01*
X150714Y417978D01*
X150794Y418008D01*
X150873Y418041D01*
X150950Y418078D01*
X151026Y418118D01*
X151100Y418161D01*
X151172Y418207D01*
X151241Y418257D01*
X151309Y418310D01*
X151374Y418365D01*
X151437Y418424D01*
X151496Y418485D01*
X151554Y418548D01*
X151608Y418615D01*
X151659Y418683D01*
X151707Y418754D01*
X151752Y418827D01*
X151794Y418901D01*
X151832Y418978D01*
X151867Y419056D01*
X151899Y419135D01*
X151927Y419216D01*
X151951Y419298D01*
X151972Y419382D01*
X151989Y419465D01*
X152002Y419550D01*
X152011Y419635D01*
X152017Y419720D01*
X152019Y419806D01*
X150714Y421633D02*
X150547Y421712D01*
X150378Y421787D01*
X150207Y421858D01*
X150035Y421925D01*
X149861Y421987D01*
X149685Y422046D01*
X149509Y422100D01*
X149331Y422150D01*
X149151Y422196D01*
X148971Y422238D01*
X148790Y422275D01*
X148608Y422308D01*
X148426Y422337D01*
X148242Y422361D01*
X148058Y422381D01*
X147874Y422396D01*
X147690Y422407D01*
X147505Y422414D01*
X147320Y422416D01*
X150714Y421634D02*
X150794Y421604D01*
X150873Y421571D01*
X150950Y421534D01*
X151026Y421494D01*
X151100Y421451D01*
X151172Y421405D01*
X151241Y421355D01*
X151309Y421303D01*
X151374Y421247D01*
X151437Y421189D01*
X151496Y421127D01*
X151554Y421064D01*
X151608Y420997D01*
X151659Y420929D01*
X151707Y420858D01*
X151752Y420785D01*
X151794Y420711D01*
X151832Y420634D01*
X151867Y420556D01*
X151899Y420477D01*
X151927Y420396D01*
X151951Y420314D01*
X151972Y420230D01*
X151989Y420147D01*
X152002Y420062D01*
X152011Y419977D01*
X152017Y419892D01*
X152019Y419806D01*
X149931Y417717D02*
X144709Y421894D01*
X142621Y426661D02*
X152019Y426661D01*
X148886Y426661D02*
X145754Y430838D01*
X147581Y428489D02*
X152019Y430838D01*
X142656Y385974D02*
X142823Y385895D01*
X142992Y385820D01*
X143163Y385749D01*
X143335Y385682D01*
X143509Y385620D01*
X143685Y385561D01*
X143861Y385507D01*
X144039Y385457D01*
X144219Y385411D01*
X144399Y385369D01*
X144580Y385332D01*
X144762Y385299D01*
X144944Y385270D01*
X145128Y385246D01*
X145312Y385226D01*
X145496Y385211D01*
X145680Y385200D01*
X145865Y385193D01*
X146050Y385191D01*
X142656Y385974D02*
X142576Y386004D01*
X142497Y386037D01*
X142420Y386074D01*
X142344Y386114D01*
X142270Y386157D01*
X142198Y386203D01*
X142129Y386253D01*
X142061Y386305D01*
X141996Y386361D01*
X141933Y386419D01*
X141874Y386481D01*
X141816Y386544D01*
X141762Y386611D01*
X141711Y386679D01*
X141663Y386750D01*
X141618Y386823D01*
X141576Y386897D01*
X141538Y386974D01*
X141503Y387052D01*
X141471Y387131D01*
X141443Y387212D01*
X141419Y387294D01*
X141398Y387378D01*
X141381Y387461D01*
X141368Y387546D01*
X141359Y387631D01*
X141353Y387716D01*
X141351Y387802D01*
X141353Y387888D01*
X141359Y387973D01*
X141368Y388058D01*
X141381Y388143D01*
X141398Y388226D01*
X141419Y388310D01*
X141443Y388392D01*
X141471Y388473D01*
X141503Y388552D01*
X141538Y388630D01*
X141576Y388707D01*
X141618Y388781D01*
X141663Y388854D01*
X141711Y388925D01*
X141762Y388993D01*
X141816Y389060D01*
X141874Y389123D01*
X141933Y389185D01*
X141996Y389243D01*
X142061Y389299D01*
X142129Y389351D01*
X142198Y389401D01*
X142270Y389447D01*
X142344Y389490D01*
X142420Y389530D01*
X142497Y389567D01*
X142576Y389600D01*
X142656Y389630D01*
X142656Y389629D02*
X142823Y389708D01*
X142992Y389783D01*
X143163Y389854D01*
X143335Y389921D01*
X143509Y389983D01*
X143685Y390042D01*
X143861Y390096D01*
X144039Y390146D01*
X144219Y390192D01*
X144399Y390234D01*
X144580Y390271D01*
X144762Y390304D01*
X144944Y390333D01*
X145128Y390357D01*
X145312Y390377D01*
X145496Y390392D01*
X145680Y390403D01*
X145865Y390410D01*
X146050Y390412D01*
X146050Y385191D02*
X146235Y385193D01*
X146420Y385200D01*
X146604Y385211D01*
X146788Y385226D01*
X146972Y385246D01*
X147156Y385270D01*
X147338Y385299D01*
X147520Y385332D01*
X147701Y385369D01*
X147881Y385411D01*
X148061Y385457D01*
X148239Y385507D01*
X148415Y385561D01*
X148591Y385620D01*
X148765Y385682D01*
X148937Y385749D01*
X149108Y385820D01*
X149277Y385895D01*
X149444Y385974D01*
X149524Y386004D01*
X149603Y386037D01*
X149680Y386074D01*
X149756Y386114D01*
X149830Y386157D01*
X149902Y386203D01*
X149971Y386253D01*
X150039Y386306D01*
X150104Y386361D01*
X150167Y386420D01*
X150226Y386481D01*
X150284Y386544D01*
X150338Y386611D01*
X150389Y386679D01*
X150437Y386750D01*
X150482Y386823D01*
X150524Y386897D01*
X150562Y386974D01*
X150597Y387052D01*
X150629Y387131D01*
X150657Y387212D01*
X150681Y387294D01*
X150702Y387378D01*
X150719Y387461D01*
X150732Y387546D01*
X150741Y387631D01*
X150747Y387716D01*
X150749Y387802D01*
X149444Y389629D02*
X149277Y389708D01*
X149108Y389783D01*
X148937Y389854D01*
X148765Y389921D01*
X148591Y389983D01*
X148415Y390042D01*
X148239Y390096D01*
X148061Y390146D01*
X147881Y390192D01*
X147701Y390234D01*
X147520Y390271D01*
X147338Y390304D01*
X147156Y390333D01*
X146972Y390357D01*
X146788Y390377D01*
X146604Y390392D01*
X146420Y390403D01*
X146235Y390410D01*
X146050Y390412D01*
X149444Y389630D02*
X149524Y389600D01*
X149603Y389567D01*
X149680Y389530D01*
X149756Y389490D01*
X149830Y389447D01*
X149902Y389401D01*
X149971Y389351D01*
X150039Y389299D01*
X150104Y389243D01*
X150167Y389185D01*
X150226Y389123D01*
X150284Y389060D01*
X150338Y388993D01*
X150389Y388925D01*
X150437Y388854D01*
X150482Y388781D01*
X150524Y388707D01*
X150562Y388630D01*
X150597Y388552D01*
X150629Y388473D01*
X150657Y388392D01*
X150681Y388310D01*
X150702Y388226D01*
X150719Y388143D01*
X150732Y388058D01*
X150741Y387973D01*
X150747Y387888D01*
X150749Y387802D01*
X148661Y385713D02*
X143439Y389890D01*
X141351Y394697D02*
X150749Y394697D01*
X141351Y394697D02*
X141351Y397307D01*
X141353Y397408D01*
X141359Y397509D01*
X141369Y397610D01*
X141382Y397710D01*
X141400Y397810D01*
X141421Y397909D01*
X141447Y398007D01*
X141476Y398104D01*
X141508Y398200D01*
X141545Y398294D01*
X141585Y398387D01*
X141629Y398479D01*
X141676Y398568D01*
X141727Y398656D01*
X141781Y398742D01*
X141838Y398825D01*
X141898Y398907D01*
X141962Y398985D01*
X142028Y399062D01*
X142098Y399135D01*
X142170Y399206D01*
X142245Y399274D01*
X142323Y399339D01*
X142403Y399401D01*
X142485Y399460D01*
X142570Y399516D01*
X142657Y399568D01*
X142745Y399617D01*
X142836Y399663D01*
X142928Y399704D01*
X143022Y399743D01*
X143117Y399777D01*
X143213Y399808D01*
X143311Y399835D01*
X143409Y399859D01*
X143509Y399878D01*
X143609Y399894D01*
X143709Y399906D01*
X143810Y399914D01*
X143911Y399918D01*
X144013Y399918D01*
X144114Y399914D01*
X144215Y399906D01*
X144315Y399894D01*
X144415Y399878D01*
X144515Y399859D01*
X144613Y399835D01*
X144711Y399808D01*
X144807Y399777D01*
X144902Y399743D01*
X144996Y399704D01*
X145088Y399663D01*
X145179Y399617D01*
X145268Y399568D01*
X145354Y399516D01*
X145439Y399460D01*
X145521Y399401D01*
X145601Y399339D01*
X145679Y399274D01*
X145754Y399206D01*
X145826Y399135D01*
X145896Y399062D01*
X145962Y398985D01*
X146026Y398907D01*
X146086Y398825D01*
X146143Y398742D01*
X146197Y398656D01*
X146248Y398568D01*
X146295Y398479D01*
X146339Y398387D01*
X146379Y398294D01*
X146416Y398200D01*
X146448Y398104D01*
X146477Y398007D01*
X146503Y397909D01*
X146524Y397810D01*
X146542Y397710D01*
X146555Y397610D01*
X146565Y397509D01*
X146571Y397408D01*
X146573Y397307D01*
X146572Y397307D02*
X146572Y394697D01*
X146572Y397829D02*
X150749Y399918D01*
X246274Y275174D02*
X246195Y275007D01*
X246120Y274838D01*
X246049Y274667D01*
X245982Y274495D01*
X245920Y274321D01*
X245861Y274145D01*
X245807Y273969D01*
X245757Y273791D01*
X245711Y273611D01*
X245669Y273431D01*
X245632Y273250D01*
X245599Y273068D01*
X245570Y272886D01*
X245546Y272702D01*
X245526Y272518D01*
X245511Y272334D01*
X245500Y272150D01*
X245493Y271965D01*
X245491Y271780D01*
X246274Y275174D02*
X246304Y275254D01*
X246337Y275333D01*
X246374Y275410D01*
X246414Y275486D01*
X246457Y275560D01*
X246503Y275632D01*
X246553Y275701D01*
X246605Y275769D01*
X246661Y275834D01*
X246719Y275897D01*
X246781Y275956D01*
X246844Y276014D01*
X246911Y276068D01*
X246979Y276119D01*
X247050Y276167D01*
X247123Y276212D01*
X247197Y276254D01*
X247274Y276292D01*
X247352Y276327D01*
X247431Y276359D01*
X247512Y276387D01*
X247594Y276411D01*
X247678Y276432D01*
X247761Y276449D01*
X247846Y276462D01*
X247931Y276471D01*
X248016Y276477D01*
X248102Y276479D01*
X248188Y276477D01*
X248273Y276471D01*
X248358Y276462D01*
X248443Y276449D01*
X248526Y276432D01*
X248610Y276411D01*
X248692Y276387D01*
X248773Y276359D01*
X248852Y276327D01*
X248930Y276292D01*
X249007Y276254D01*
X249081Y276212D01*
X249154Y276167D01*
X249225Y276119D01*
X249293Y276068D01*
X249360Y276014D01*
X249423Y275956D01*
X249485Y275897D01*
X249543Y275834D01*
X249599Y275769D01*
X249651Y275701D01*
X249701Y275632D01*
X249747Y275560D01*
X249790Y275486D01*
X249830Y275410D01*
X249867Y275333D01*
X249900Y275254D01*
X249930Y275174D01*
X249929Y275174D02*
X250008Y275007D01*
X250083Y274838D01*
X250154Y274667D01*
X250221Y274495D01*
X250283Y274321D01*
X250342Y274145D01*
X250396Y273969D01*
X250446Y273791D01*
X250492Y273611D01*
X250534Y273431D01*
X250571Y273250D01*
X250604Y273068D01*
X250633Y272886D01*
X250657Y272702D01*
X250677Y272518D01*
X250692Y272334D01*
X250703Y272150D01*
X250710Y271965D01*
X250712Y271780D01*
X245491Y271780D02*
X245493Y271595D01*
X245500Y271410D01*
X245511Y271226D01*
X245526Y271042D01*
X245546Y270858D01*
X245570Y270674D01*
X245599Y270492D01*
X245632Y270310D01*
X245669Y270129D01*
X245711Y269949D01*
X245757Y269769D01*
X245807Y269591D01*
X245861Y269415D01*
X245920Y269239D01*
X245982Y269065D01*
X246049Y268893D01*
X246120Y268722D01*
X246195Y268553D01*
X246274Y268386D01*
X246304Y268306D01*
X246337Y268227D01*
X246374Y268150D01*
X246414Y268074D01*
X246457Y268000D01*
X246503Y267928D01*
X246553Y267859D01*
X246606Y267791D01*
X246661Y267726D01*
X246720Y267663D01*
X246781Y267604D01*
X246844Y267546D01*
X246911Y267492D01*
X246979Y267441D01*
X247050Y267393D01*
X247123Y267348D01*
X247197Y267306D01*
X247274Y267268D01*
X247352Y267233D01*
X247431Y267201D01*
X247512Y267173D01*
X247594Y267149D01*
X247678Y267128D01*
X247761Y267111D01*
X247846Y267098D01*
X247931Y267089D01*
X248016Y267083D01*
X248102Y267081D01*
X249929Y268386D02*
X250008Y268553D01*
X250083Y268722D01*
X250154Y268893D01*
X250221Y269065D01*
X250283Y269239D01*
X250342Y269415D01*
X250396Y269591D01*
X250446Y269769D01*
X250492Y269949D01*
X250534Y270129D01*
X250571Y270310D01*
X250604Y270492D01*
X250633Y270674D01*
X250657Y270858D01*
X250677Y271042D01*
X250692Y271226D01*
X250703Y271410D01*
X250710Y271595D01*
X250712Y271780D01*
X249930Y268386D02*
X249900Y268306D01*
X249867Y268227D01*
X249830Y268150D01*
X249790Y268074D01*
X249747Y268000D01*
X249701Y267928D01*
X249651Y267859D01*
X249599Y267791D01*
X249543Y267726D01*
X249485Y267663D01*
X249423Y267604D01*
X249360Y267546D01*
X249293Y267492D01*
X249225Y267441D01*
X249154Y267393D01*
X249081Y267348D01*
X249007Y267306D01*
X248930Y267268D01*
X248852Y267233D01*
X248773Y267201D01*
X248692Y267173D01*
X248610Y267149D01*
X248526Y267128D01*
X248443Y267111D01*
X248358Y267098D01*
X248273Y267089D01*
X248188Y267083D01*
X248102Y267081D01*
X246013Y269169D02*
X250190Y274391D01*
X254997Y276479D02*
X254997Y267081D01*
X254997Y276479D02*
X257607Y276479D01*
X257708Y276477D01*
X257809Y276471D01*
X257910Y276461D01*
X258010Y276448D01*
X258110Y276430D01*
X258209Y276409D01*
X258307Y276383D01*
X258404Y276354D01*
X258500Y276322D01*
X258594Y276285D01*
X258687Y276245D01*
X258779Y276201D01*
X258868Y276154D01*
X258956Y276103D01*
X259042Y276049D01*
X259125Y275992D01*
X259207Y275932D01*
X259285Y275868D01*
X259362Y275802D01*
X259435Y275732D01*
X259506Y275660D01*
X259574Y275585D01*
X259639Y275507D01*
X259701Y275427D01*
X259760Y275345D01*
X259816Y275260D01*
X259868Y275173D01*
X259917Y275085D01*
X259963Y274994D01*
X260004Y274902D01*
X260043Y274808D01*
X260077Y274713D01*
X260108Y274617D01*
X260135Y274519D01*
X260159Y274421D01*
X260178Y274321D01*
X260194Y274221D01*
X260206Y274121D01*
X260214Y274020D01*
X260218Y273919D01*
X260218Y273817D01*
X260214Y273716D01*
X260206Y273615D01*
X260194Y273515D01*
X260178Y273415D01*
X260159Y273315D01*
X260135Y273217D01*
X260108Y273119D01*
X260077Y273023D01*
X260043Y272928D01*
X260004Y272834D01*
X259963Y272742D01*
X259917Y272651D01*
X259868Y272563D01*
X259816Y272476D01*
X259760Y272391D01*
X259701Y272309D01*
X259639Y272229D01*
X259574Y272151D01*
X259506Y272076D01*
X259435Y272004D01*
X259362Y271934D01*
X259285Y271868D01*
X259207Y271804D01*
X259125Y271744D01*
X259042Y271687D01*
X258956Y271633D01*
X258868Y271582D01*
X258779Y271535D01*
X258687Y271491D01*
X258594Y271451D01*
X258500Y271414D01*
X258404Y271382D01*
X258307Y271353D01*
X258209Y271327D01*
X258110Y271306D01*
X258010Y271288D01*
X257910Y271275D01*
X257809Y271265D01*
X257708Y271259D01*
X257607Y271257D01*
X257607Y271258D02*
X254997Y271258D01*
X258129Y271258D02*
X260218Y267081D01*
D15*
X166600Y533050D03*
X166600Y521050D03*
D16*
X166600Y527050D03*
D11*
X147842Y513602D02*
X146276Y513602D01*
X147842Y513602D02*
X147842Y508381D01*
X144709Y508381D01*
X144620Y508383D01*
X144532Y508389D01*
X144444Y508398D01*
X144356Y508411D01*
X144269Y508428D01*
X144183Y508448D01*
X144098Y508473D01*
X144013Y508500D01*
X143930Y508532D01*
X143849Y508566D01*
X143769Y508605D01*
X143691Y508646D01*
X143614Y508691D01*
X143540Y508739D01*
X143467Y508790D01*
X143397Y508844D01*
X143330Y508902D01*
X143264Y508962D01*
X143202Y509024D01*
X143142Y509090D01*
X143084Y509157D01*
X143030Y509227D01*
X142979Y509300D01*
X142931Y509374D01*
X142886Y509451D01*
X142845Y509529D01*
X142806Y509609D01*
X142772Y509690D01*
X142740Y509773D01*
X142713Y509858D01*
X142688Y509943D01*
X142668Y510029D01*
X142651Y510116D01*
X142638Y510204D01*
X142629Y510292D01*
X142623Y510380D01*
X142621Y510469D01*
X142621Y515691D01*
X142623Y515782D01*
X142629Y515873D01*
X142639Y515964D01*
X142653Y516054D01*
X142670Y516143D01*
X142692Y516231D01*
X142718Y516319D01*
X142747Y516405D01*
X142780Y516490D01*
X142817Y516573D01*
X142857Y516655D01*
X142901Y516735D01*
X142948Y516813D01*
X142999Y516889D01*
X143052Y516962D01*
X143109Y517033D01*
X143170Y517102D01*
X143233Y517167D01*
X143298Y517230D01*
X143367Y517290D01*
X143438Y517348D01*
X143511Y517401D01*
X143587Y517452D01*
X143665Y517499D01*
X143745Y517543D01*
X143827Y517583D01*
X143910Y517620D01*
X143995Y517653D01*
X144081Y517682D01*
X144169Y517708D01*
X144257Y517730D01*
X144346Y517747D01*
X144436Y517761D01*
X144527Y517771D01*
X144618Y517777D01*
X144709Y517779D01*
X147842Y517779D01*
X152432Y517779D02*
X152432Y508381D01*
X152432Y517779D02*
X155042Y517779D01*
X155143Y517777D01*
X155244Y517771D01*
X155345Y517761D01*
X155445Y517748D01*
X155545Y517730D01*
X155644Y517709D01*
X155742Y517683D01*
X155839Y517654D01*
X155935Y517622D01*
X156029Y517585D01*
X156122Y517545D01*
X156214Y517501D01*
X156303Y517454D01*
X156391Y517403D01*
X156477Y517349D01*
X156560Y517292D01*
X156642Y517232D01*
X156720Y517168D01*
X156797Y517102D01*
X156870Y517032D01*
X156941Y516960D01*
X157009Y516885D01*
X157074Y516807D01*
X157136Y516727D01*
X157195Y516645D01*
X157251Y516560D01*
X157303Y516473D01*
X157352Y516385D01*
X157398Y516294D01*
X157439Y516202D01*
X157478Y516108D01*
X157512Y516013D01*
X157543Y515917D01*
X157570Y515819D01*
X157594Y515721D01*
X157613Y515621D01*
X157629Y515521D01*
X157641Y515421D01*
X157649Y515320D01*
X157653Y515219D01*
X157653Y515117D01*
X157649Y515016D01*
X157641Y514915D01*
X157629Y514815D01*
X157613Y514715D01*
X157594Y514615D01*
X157570Y514517D01*
X157543Y514419D01*
X157512Y514323D01*
X157478Y514228D01*
X157439Y514134D01*
X157398Y514042D01*
X157352Y513951D01*
X157303Y513863D01*
X157251Y513776D01*
X157195Y513691D01*
X157136Y513609D01*
X157074Y513529D01*
X157009Y513451D01*
X156941Y513376D01*
X156870Y513304D01*
X156797Y513234D01*
X156720Y513168D01*
X156642Y513104D01*
X156560Y513044D01*
X156477Y512987D01*
X156391Y512933D01*
X156303Y512882D01*
X156214Y512835D01*
X156122Y512791D01*
X156029Y512751D01*
X155935Y512714D01*
X155839Y512682D01*
X155742Y512653D01*
X155644Y512627D01*
X155545Y512606D01*
X155445Y512588D01*
X155345Y512575D01*
X155244Y512565D01*
X155143Y512559D01*
X155042Y512557D01*
X155042Y512558D02*
X152432Y512558D01*
X155564Y512558D02*
X157653Y508381D01*
X161841Y508381D02*
X166018Y508381D01*
X161841Y508381D02*
X161841Y517779D01*
X166018Y517779D01*
X164973Y513602D02*
X161841Y513602D01*
X169766Y508381D02*
X173942Y508381D01*
X169766Y508381D02*
X169766Y517779D01*
X173942Y517779D01*
X172898Y513602D02*
X169766Y513602D01*
X177673Y517779D02*
X177673Y508381D01*
X182894Y508381D02*
X177673Y517779D01*
X182894Y517779D02*
X182894Y508381D01*
X114316Y516509D02*
X111706Y514421D01*
X114316Y516509D02*
X114316Y507111D01*
X111706Y507111D02*
X116927Y507111D01*
X121172Y507111D02*
X121172Y516509D01*
X125349Y513376D02*
X121172Y510244D01*
X123000Y511549D02*
X125349Y507111D01*
X162941Y104592D02*
X165029Y101981D01*
X162941Y104592D02*
X172339Y104592D01*
X172339Y107202D02*
X172339Y101981D01*
X167640Y111125D02*
X167455Y111127D01*
X167270Y111134D01*
X167086Y111145D01*
X166902Y111160D01*
X166718Y111180D01*
X166534Y111204D01*
X166352Y111233D01*
X166170Y111266D01*
X165989Y111303D01*
X165809Y111345D01*
X165629Y111391D01*
X165451Y111441D01*
X165275Y111495D01*
X165099Y111554D01*
X164925Y111616D01*
X164753Y111683D01*
X164582Y111754D01*
X164413Y111829D01*
X164246Y111908D01*
X164166Y111938D01*
X164087Y111971D01*
X164010Y112008D01*
X163934Y112048D01*
X163860Y112091D01*
X163788Y112137D01*
X163719Y112187D01*
X163651Y112239D01*
X163586Y112295D01*
X163523Y112353D01*
X163464Y112415D01*
X163406Y112478D01*
X163352Y112545D01*
X163301Y112613D01*
X163253Y112684D01*
X163208Y112757D01*
X163166Y112831D01*
X163128Y112908D01*
X163093Y112986D01*
X163061Y113065D01*
X163033Y113146D01*
X163009Y113228D01*
X162988Y113312D01*
X162971Y113395D01*
X162958Y113480D01*
X162949Y113565D01*
X162943Y113650D01*
X162941Y113736D01*
X162943Y113822D01*
X162949Y113907D01*
X162958Y113992D01*
X162971Y114077D01*
X162988Y114160D01*
X163009Y114244D01*
X163033Y114326D01*
X163061Y114407D01*
X163093Y114486D01*
X163128Y114564D01*
X163166Y114641D01*
X163208Y114715D01*
X163253Y114788D01*
X163301Y114859D01*
X163352Y114927D01*
X163406Y114994D01*
X163464Y115057D01*
X163523Y115119D01*
X163586Y115177D01*
X163651Y115233D01*
X163719Y115285D01*
X163788Y115335D01*
X163860Y115381D01*
X163934Y115424D01*
X164010Y115464D01*
X164087Y115501D01*
X164166Y115534D01*
X164246Y115564D01*
X164246Y115563D02*
X164413Y115642D01*
X164582Y115717D01*
X164753Y115788D01*
X164925Y115855D01*
X165099Y115917D01*
X165275Y115976D01*
X165451Y116030D01*
X165629Y116080D01*
X165809Y116126D01*
X165989Y116168D01*
X166170Y116205D01*
X166352Y116238D01*
X166534Y116267D01*
X166718Y116291D01*
X166902Y116311D01*
X167086Y116326D01*
X167270Y116337D01*
X167455Y116344D01*
X167640Y116346D01*
X167640Y111125D02*
X167825Y111127D01*
X168010Y111134D01*
X168194Y111145D01*
X168378Y111160D01*
X168562Y111180D01*
X168746Y111204D01*
X168928Y111233D01*
X169110Y111266D01*
X169291Y111303D01*
X169471Y111345D01*
X169651Y111391D01*
X169829Y111441D01*
X170005Y111495D01*
X170181Y111554D01*
X170355Y111616D01*
X170527Y111683D01*
X170698Y111754D01*
X170867Y111829D01*
X171034Y111908D01*
X171114Y111938D01*
X171193Y111971D01*
X171270Y112008D01*
X171346Y112048D01*
X171420Y112091D01*
X171492Y112137D01*
X171561Y112187D01*
X171629Y112240D01*
X171694Y112295D01*
X171757Y112354D01*
X171816Y112415D01*
X171874Y112478D01*
X171928Y112545D01*
X171979Y112613D01*
X172027Y112684D01*
X172072Y112757D01*
X172114Y112831D01*
X172152Y112908D01*
X172187Y112986D01*
X172219Y113065D01*
X172247Y113146D01*
X172271Y113228D01*
X172292Y113312D01*
X172309Y113395D01*
X172322Y113480D01*
X172331Y113565D01*
X172337Y113650D01*
X172339Y113736D01*
X171034Y115563D02*
X170867Y115642D01*
X170698Y115717D01*
X170527Y115788D01*
X170355Y115855D01*
X170181Y115917D01*
X170005Y115976D01*
X169829Y116030D01*
X169651Y116080D01*
X169471Y116126D01*
X169291Y116168D01*
X169110Y116205D01*
X168928Y116238D01*
X168746Y116267D01*
X168562Y116291D01*
X168378Y116311D01*
X168194Y116326D01*
X168010Y116337D01*
X167825Y116344D01*
X167640Y116346D01*
X171034Y115564D02*
X171114Y115534D01*
X171193Y115501D01*
X171270Y115464D01*
X171346Y115424D01*
X171420Y115381D01*
X171492Y115335D01*
X171561Y115285D01*
X171629Y115233D01*
X171694Y115177D01*
X171757Y115119D01*
X171816Y115057D01*
X171874Y114994D01*
X171928Y114927D01*
X171979Y114859D01*
X172027Y114788D01*
X172072Y114715D01*
X172114Y114641D01*
X172152Y114564D01*
X172187Y114486D01*
X172219Y114407D01*
X172247Y114326D01*
X172271Y114244D01*
X172292Y114160D01*
X172309Y114077D01*
X172322Y113992D01*
X172331Y113907D01*
X172337Y113822D01*
X172339Y113736D01*
X170251Y111647D02*
X165029Y115824D01*
X167640Y120269D02*
X167455Y120271D01*
X167270Y120278D01*
X167086Y120289D01*
X166902Y120304D01*
X166718Y120324D01*
X166534Y120348D01*
X166352Y120377D01*
X166170Y120410D01*
X165989Y120447D01*
X165809Y120489D01*
X165629Y120535D01*
X165451Y120585D01*
X165275Y120639D01*
X165099Y120698D01*
X164925Y120760D01*
X164753Y120827D01*
X164582Y120898D01*
X164413Y120973D01*
X164246Y121052D01*
X164246Y121051D02*
X164166Y121081D01*
X164087Y121114D01*
X164010Y121151D01*
X163934Y121191D01*
X163860Y121234D01*
X163788Y121280D01*
X163719Y121330D01*
X163651Y121382D01*
X163586Y121438D01*
X163523Y121496D01*
X163464Y121558D01*
X163406Y121621D01*
X163352Y121688D01*
X163301Y121756D01*
X163253Y121827D01*
X163208Y121900D01*
X163166Y121974D01*
X163128Y122051D01*
X163093Y122129D01*
X163061Y122208D01*
X163033Y122289D01*
X163009Y122371D01*
X162988Y122455D01*
X162971Y122538D01*
X162958Y122623D01*
X162949Y122708D01*
X162943Y122793D01*
X162941Y122879D01*
X162943Y122965D01*
X162949Y123050D01*
X162958Y123135D01*
X162971Y123220D01*
X162988Y123303D01*
X163009Y123387D01*
X163033Y123469D01*
X163061Y123550D01*
X163093Y123629D01*
X163128Y123707D01*
X163166Y123784D01*
X163208Y123858D01*
X163253Y123931D01*
X163301Y124002D01*
X163352Y124070D01*
X163406Y124137D01*
X163464Y124200D01*
X163523Y124262D01*
X163586Y124320D01*
X163651Y124376D01*
X163719Y124428D01*
X163788Y124478D01*
X163860Y124524D01*
X163934Y124567D01*
X164010Y124607D01*
X164087Y124644D01*
X164166Y124677D01*
X164246Y124707D01*
X164413Y124786D01*
X164582Y124861D01*
X164753Y124932D01*
X164925Y124999D01*
X165099Y125061D01*
X165275Y125120D01*
X165451Y125174D01*
X165629Y125224D01*
X165809Y125270D01*
X165989Y125312D01*
X166170Y125349D01*
X166352Y125382D01*
X166534Y125411D01*
X166718Y125435D01*
X166902Y125455D01*
X167086Y125470D01*
X167270Y125481D01*
X167455Y125488D01*
X167640Y125490D01*
X167640Y120269D02*
X167825Y120271D01*
X168010Y120278D01*
X168194Y120289D01*
X168378Y120304D01*
X168562Y120324D01*
X168746Y120348D01*
X168928Y120377D01*
X169110Y120410D01*
X169291Y120447D01*
X169471Y120489D01*
X169651Y120535D01*
X169829Y120585D01*
X170005Y120639D01*
X170181Y120698D01*
X170355Y120760D01*
X170527Y120827D01*
X170698Y120898D01*
X170867Y120973D01*
X171034Y121052D01*
X171034Y121051D02*
X171114Y121081D01*
X171193Y121114D01*
X171270Y121151D01*
X171346Y121191D01*
X171420Y121234D01*
X171492Y121280D01*
X171561Y121330D01*
X171629Y121383D01*
X171694Y121438D01*
X171757Y121497D01*
X171816Y121558D01*
X171874Y121621D01*
X171928Y121688D01*
X171979Y121756D01*
X172027Y121827D01*
X172072Y121900D01*
X172114Y121974D01*
X172152Y122051D01*
X172187Y122129D01*
X172219Y122208D01*
X172247Y122289D01*
X172271Y122371D01*
X172292Y122455D01*
X172309Y122538D01*
X172322Y122623D01*
X172331Y122708D01*
X172337Y122793D01*
X172339Y122879D01*
X171034Y124707D02*
X170867Y124786D01*
X170698Y124861D01*
X170527Y124932D01*
X170355Y124999D01*
X170181Y125061D01*
X170005Y125120D01*
X169829Y125174D01*
X169651Y125224D01*
X169471Y125270D01*
X169291Y125312D01*
X169110Y125349D01*
X168928Y125382D01*
X168746Y125411D01*
X168562Y125435D01*
X168378Y125455D01*
X168194Y125470D01*
X168010Y125481D01*
X167825Y125488D01*
X167640Y125490D01*
X171034Y124707D02*
X171114Y124677D01*
X171193Y124644D01*
X171270Y124607D01*
X171346Y124567D01*
X171420Y124524D01*
X171492Y124478D01*
X171561Y124428D01*
X171629Y124376D01*
X171694Y124320D01*
X171757Y124262D01*
X171816Y124200D01*
X171874Y124137D01*
X171928Y124070D01*
X171979Y124002D01*
X172027Y123931D01*
X172072Y123858D01*
X172114Y123784D01*
X172152Y123707D01*
X172187Y123629D01*
X172219Y123550D01*
X172247Y123469D01*
X172271Y123387D01*
X172292Y123303D01*
X172309Y123220D01*
X172322Y123135D01*
X172331Y123050D01*
X172337Y122965D01*
X172339Y122879D01*
X170251Y120791D02*
X165029Y124968D01*
X166074Y129630D02*
X172339Y129630D01*
X166074Y129630D02*
X166074Y132241D01*
X166076Y132318D01*
X166082Y132394D01*
X166091Y132471D01*
X166104Y132547D01*
X166121Y132622D01*
X166141Y132696D01*
X166166Y132769D01*
X166193Y132840D01*
X166224Y132911D01*
X166259Y132979D01*
X166297Y133046D01*
X166338Y133111D01*
X166382Y133174D01*
X166429Y133234D01*
X166480Y133293D01*
X166533Y133348D01*
X166588Y133401D01*
X166647Y133452D01*
X166707Y133499D01*
X166770Y133543D01*
X166835Y133584D01*
X166902Y133622D01*
X166970Y133657D01*
X167041Y133688D01*
X167112Y133715D01*
X167185Y133740D01*
X167259Y133760D01*
X167334Y133777D01*
X167410Y133790D01*
X167486Y133799D01*
X167563Y133805D01*
X167640Y133807D01*
X172339Y133807D01*
X172339Y138270D02*
X162941Y138270D01*
X162941Y142446D01*
X167118Y142446D02*
X167118Y138270D01*
D17*
X209550Y152400D02*
X209550Y12700D01*
X209550Y152400D02*
X387350Y152400D01*
X387350Y12700D02*
X209550Y12700D01*
X387350Y12700D02*
X387350Y152400D01*
D18*
X31750Y527050D02*
X38100Y533400D01*
X31750Y527050D02*
X31750Y514350D01*
X38100Y508000D01*
X31750Y501650D01*
X31750Y488950D01*
X38100Y482600D01*
X31750Y476250D01*
X31750Y463550D01*
X38100Y457200D01*
X31750Y450850D01*
X31750Y438150D01*
X38100Y431800D01*
X31750Y425450D01*
X31750Y412750D01*
X38100Y406400D01*
X31750Y400050D01*
X31750Y387350D01*
X38100Y381000D01*
X38100Y533400D02*
X76200Y533400D01*
X82550Y527050D01*
X82550Y514350D01*
X76200Y508000D01*
X82550Y501650D01*
X82550Y488950D01*
X76200Y482600D01*
X82550Y476250D01*
X82550Y463550D01*
X76200Y457200D01*
X82550Y450850D01*
X82550Y438150D01*
X76200Y431800D01*
X82550Y425450D01*
X82550Y412750D01*
X76200Y406400D01*
X82550Y400050D01*
X82550Y387350D01*
X76200Y381000D01*
X82550Y374650D01*
X82550Y361950D01*
X76200Y355600D01*
X82550Y349250D01*
X82550Y336550D01*
X76200Y330200D01*
X82550Y323850D01*
X82550Y311150D01*
X76200Y304800D01*
X82550Y298450D01*
X82550Y285750D01*
X76200Y279400D01*
X82550Y273050D01*
X82550Y260350D01*
X76200Y254000D01*
X82550Y247650D01*
X82550Y234950D01*
X76200Y228600D01*
X82550Y222250D01*
X82550Y209550D01*
X76200Y203200D01*
X82550Y196850D01*
X82550Y184150D01*
X76200Y177800D01*
X82550Y171450D01*
X82550Y158750D01*
X76200Y152400D01*
X82550Y146050D01*
X82550Y133350D01*
X76200Y127000D01*
X82550Y120650D01*
X82550Y107950D01*
X76200Y101600D01*
X82550Y95250D01*
X82550Y82550D01*
X76200Y76200D01*
X82550Y69850D01*
X82550Y57150D01*
X76200Y50800D01*
X38100Y50800D02*
X31750Y57150D01*
X31750Y69850D01*
X38100Y76200D01*
X31750Y82550D01*
X31750Y95250D01*
X38100Y101600D01*
X31750Y107950D01*
X31750Y120650D01*
X38100Y127000D01*
X31750Y133350D01*
X31750Y146050D01*
X38100Y152400D01*
X31750Y158750D01*
X31750Y171450D01*
X38100Y177800D01*
X31750Y184150D01*
X31750Y196850D01*
X38100Y203200D01*
X31750Y209550D01*
X31750Y222250D01*
X38100Y228600D01*
X31750Y234950D01*
X31750Y247650D01*
X38100Y254000D01*
X31750Y260350D01*
X31750Y273050D01*
X38100Y279400D01*
X31750Y285750D01*
X31750Y298450D01*
X38100Y304800D01*
X31750Y311150D01*
X31750Y323850D01*
X38100Y330200D01*
X31750Y336550D01*
X31750Y349250D01*
X38100Y355600D01*
X31750Y361950D01*
X31750Y374650D01*
X38100Y381000D01*
X38100Y508000D02*
X76200Y508000D01*
X76200Y482600D02*
X38100Y482600D01*
X38100Y457200D02*
X76200Y457200D01*
X76200Y431800D02*
X38100Y431800D01*
X38100Y406400D02*
X76200Y406400D01*
X76200Y381000D02*
X38100Y381000D01*
X38100Y355600D02*
X76200Y355600D01*
X76200Y330200D02*
X38100Y330200D01*
X38100Y304800D02*
X76200Y304800D01*
X76200Y279400D02*
X38100Y279400D01*
X38100Y254000D02*
X76200Y254000D01*
X76200Y228600D02*
X38100Y228600D01*
X38100Y203200D02*
X76200Y203200D01*
X76200Y177800D02*
X38100Y177800D01*
X38100Y152400D02*
X76200Y152400D01*
X76200Y127000D02*
X38100Y127000D01*
X38100Y101600D02*
X76200Y101600D01*
X76200Y76200D02*
X38100Y76200D01*
X38100Y50800D02*
X76200Y50800D01*
X82550Y44450D01*
X82550Y31750D01*
X76200Y25400D01*
X38100Y25400D02*
X31750Y31750D01*
X31750Y44450D01*
X38100Y50800D01*
X38100Y25400D02*
X76200Y25400D01*
D15*
X160250Y31400D03*
X160250Y19400D03*
D16*
X160250Y25400D03*
D11*
X144032Y11952D02*
X142466Y11952D01*
X144032Y11952D02*
X144032Y6731D01*
X140899Y6731D01*
X140810Y6733D01*
X140722Y6739D01*
X140634Y6748D01*
X140546Y6761D01*
X140459Y6778D01*
X140373Y6798D01*
X140288Y6823D01*
X140203Y6850D01*
X140120Y6882D01*
X140039Y6916D01*
X139959Y6955D01*
X139881Y6996D01*
X139804Y7041D01*
X139730Y7089D01*
X139657Y7140D01*
X139587Y7194D01*
X139520Y7252D01*
X139454Y7312D01*
X139392Y7374D01*
X139332Y7440D01*
X139274Y7507D01*
X139220Y7577D01*
X139169Y7650D01*
X139121Y7724D01*
X139076Y7801D01*
X139035Y7879D01*
X138996Y7959D01*
X138962Y8040D01*
X138930Y8123D01*
X138903Y8208D01*
X138878Y8293D01*
X138858Y8379D01*
X138841Y8466D01*
X138828Y8554D01*
X138819Y8642D01*
X138813Y8730D01*
X138811Y8819D01*
X138811Y14041D01*
X138813Y14132D01*
X138819Y14223D01*
X138829Y14314D01*
X138843Y14404D01*
X138860Y14493D01*
X138882Y14581D01*
X138908Y14669D01*
X138937Y14755D01*
X138970Y14840D01*
X139007Y14923D01*
X139047Y15005D01*
X139091Y15085D01*
X139138Y15163D01*
X139189Y15239D01*
X139242Y15312D01*
X139299Y15383D01*
X139360Y15452D01*
X139423Y15517D01*
X139488Y15580D01*
X139557Y15640D01*
X139628Y15698D01*
X139701Y15751D01*
X139777Y15802D01*
X139855Y15849D01*
X139935Y15893D01*
X140017Y15933D01*
X140100Y15970D01*
X140185Y16003D01*
X140271Y16032D01*
X140359Y16058D01*
X140447Y16080D01*
X140536Y16097D01*
X140626Y16111D01*
X140717Y16121D01*
X140808Y16127D01*
X140899Y16129D01*
X144032Y16129D01*
X148622Y16129D02*
X148622Y6731D01*
X148622Y16129D02*
X151232Y16129D01*
X151333Y16127D01*
X151434Y16121D01*
X151535Y16111D01*
X151635Y16098D01*
X151735Y16080D01*
X151834Y16059D01*
X151932Y16033D01*
X152029Y16004D01*
X152125Y15972D01*
X152219Y15935D01*
X152312Y15895D01*
X152404Y15851D01*
X152493Y15804D01*
X152581Y15753D01*
X152667Y15699D01*
X152750Y15642D01*
X152832Y15582D01*
X152910Y15518D01*
X152987Y15452D01*
X153060Y15382D01*
X153131Y15310D01*
X153199Y15235D01*
X153264Y15157D01*
X153326Y15077D01*
X153385Y14995D01*
X153441Y14910D01*
X153493Y14823D01*
X153542Y14735D01*
X153588Y14644D01*
X153629Y14552D01*
X153668Y14458D01*
X153702Y14363D01*
X153733Y14267D01*
X153760Y14169D01*
X153784Y14071D01*
X153803Y13971D01*
X153819Y13871D01*
X153831Y13771D01*
X153839Y13670D01*
X153843Y13569D01*
X153843Y13467D01*
X153839Y13366D01*
X153831Y13265D01*
X153819Y13165D01*
X153803Y13065D01*
X153784Y12965D01*
X153760Y12867D01*
X153733Y12769D01*
X153702Y12673D01*
X153668Y12578D01*
X153629Y12484D01*
X153588Y12392D01*
X153542Y12301D01*
X153493Y12212D01*
X153441Y12126D01*
X153385Y12041D01*
X153326Y11959D01*
X153264Y11879D01*
X153199Y11801D01*
X153131Y11726D01*
X153060Y11654D01*
X152987Y11584D01*
X152910Y11518D01*
X152832Y11454D01*
X152750Y11394D01*
X152667Y11337D01*
X152581Y11283D01*
X152493Y11232D01*
X152404Y11185D01*
X152312Y11141D01*
X152219Y11101D01*
X152125Y11064D01*
X152029Y11032D01*
X151932Y11003D01*
X151834Y10977D01*
X151735Y10956D01*
X151635Y10938D01*
X151535Y10925D01*
X151434Y10915D01*
X151333Y10909D01*
X151232Y10907D01*
X151232Y10908D02*
X148622Y10908D01*
X151754Y10908D02*
X153843Y6731D01*
X158031Y6731D02*
X162208Y6731D01*
X158031Y6731D02*
X158031Y16129D01*
X162208Y16129D01*
X161163Y11952D02*
X158031Y11952D01*
X165956Y6731D02*
X170132Y6731D01*
X165956Y6731D02*
X165956Y16129D01*
X170132Y16129D01*
X169088Y11952D02*
X165956Y11952D01*
X173863Y16129D02*
X173863Y6731D01*
X179084Y6731D02*
X173863Y16129D01*
X179084Y16129D02*
X179084Y6731D01*
X110506Y14859D02*
X107896Y12771D01*
X110506Y14859D02*
X110506Y5461D01*
X107896Y5461D02*
X113117Y5461D01*
X117362Y5461D02*
X117362Y14859D01*
X121539Y11726D02*
X117362Y8594D01*
X119190Y9899D02*
X121539Y5461D01*
M02*
