G04 EAGLE Gerber RS-274X export*
G75*
%MOMM*%
%FSLAX34Y34*%
%LPD*%
%INBottom Layer*%
%IPPOS*%
%AMOC8*
5,1,8,0,0,1.08239X$1,22.5*%
G01*
%ADD10C,0.304800*%
%ADD11C,1.108000*%
%ADD12P,1.649562X8X292.500000*%
%ADD13C,0.756400*%


D10*
X-19050Y0D02*
X396750Y0D01*
X396750Y577750D01*
X-19050Y577750D01*
X-19050Y0D01*
D11*
X216710Y127000D02*
X227790Y127000D01*
X227790Y114300D02*
X216710Y114300D01*
X216710Y101600D02*
X227790Y101600D01*
X227790Y88900D02*
X216710Y88900D01*
X216710Y76200D02*
X227790Y76200D01*
X227790Y63500D02*
X216710Y63500D01*
X216710Y50800D02*
X227790Y50800D01*
X227790Y38100D02*
X216710Y38100D01*
D12*
X44450Y520700D03*
X69850Y520700D03*
X44450Y495300D03*
X69850Y495300D03*
X44450Y469900D03*
X69850Y469900D03*
X44450Y444500D03*
X69850Y444500D03*
X44450Y419100D03*
X69850Y419100D03*
X44450Y393700D03*
X69850Y393700D03*
X44450Y368300D03*
X69850Y368300D03*
X44450Y342900D03*
X69850Y342900D03*
X44450Y317500D03*
X69850Y317500D03*
X44450Y292100D03*
X69850Y292100D03*
X44450Y266700D03*
X69850Y266700D03*
X44450Y241300D03*
X69850Y241300D03*
X44450Y215900D03*
X69850Y215900D03*
X44450Y190500D03*
X69850Y190500D03*
X44450Y165100D03*
X69850Y165100D03*
X44450Y139700D03*
X69850Y139700D03*
X44450Y114300D03*
X69850Y114300D03*
X44450Y88900D03*
X69850Y88900D03*
X44450Y63500D03*
X69850Y63500D03*
X44450Y38100D03*
X69850Y38100D03*
D13*
X107950Y44450D03*
D10*
X177800Y114300D01*
X222250Y114300D01*
D13*
X266700Y501650D03*
D10*
X234950Y469900D02*
X69850Y469900D01*
X234950Y469900D02*
X266700Y501650D01*
X57150Y50800D02*
X44450Y38100D01*
X57150Y50800D02*
X88900Y50800D01*
X165100Y127000D01*
X222250Y127000D01*
X76200Y76200D02*
X57150Y76200D01*
X76200Y76200D02*
X241300Y241300D01*
X241300Y266700D01*
D13*
X241300Y266700D03*
D10*
X57150Y76200D02*
X44450Y63500D01*
X44450Y88900D02*
X57150Y101600D01*
X76200Y101600D01*
X139700Y165100D01*
X139700Y393700D01*
D13*
X139700Y393700D03*
X120650Y431800D03*
D10*
X107950Y444500D01*
X69850Y444500D01*
X69850Y419100D02*
X120650Y419100D01*
X133350Y431800D01*
X133350Y444500D01*
D13*
X133350Y444500D03*
D10*
X101600Y177800D02*
X76200Y152400D01*
X57150Y152400D01*
X44450Y139700D01*
D13*
X101600Y393700D03*
D10*
X101600Y177800D01*
X222250Y101600D02*
X254000Y101600D01*
D13*
X254000Y101600D03*
X266700Y88900D03*
D10*
X222250Y88900D01*
M02*
