G04 EAGLE Gerber RS-274X export*
G75*
%MOMM*%
%FSLAX34Y34*%
%LPD*%
%INSilkscreen Bottom*%
%IPPOS*%
%AMOC8*
5,1,8,0,0,1.08239X$1,22.5*%
G01*
%ADD10C,0.304800*%
%ADD11C,0.152400*%
%ADD12R,0.303694X0.013800*%
%ADD13R,0.745431X0.013806*%
%ADD14R,1.049131X0.013800*%
%ADD15R,1.642719X0.013800*%
%ADD16R,1.863581X0.013806*%
%ADD17R,0.952500X0.013800*%
%ADD18R,0.386519X0.013800*%
%ADD19R,0.773044X0.013800*%
%ADD20R,0.345106X0.013800*%
%ADD21R,0.262281X0.013806*%
%ADD22R,0.317500X0.013806*%
%ADD23R,0.179456X0.013800*%
%ADD24R,0.289888X0.013800*%
%ADD25R,0.151844X0.013806*%
%ADD26R,0.276087X0.013806*%
%ADD27R,0.124238X0.013800*%
%ADD28R,0.248475X0.013800*%
%ADD29R,0.110431X0.013800*%
%ADD30R,0.262281X0.013800*%
%ADD31R,0.069019X0.013806*%
%ADD32R,0.055213X0.013800*%
%ADD33R,0.276087X0.013800*%
%ADD34R,0.041413X0.013806*%
%ADD35R,0.289888X0.013806*%
%ADD36R,0.055219X0.013800*%
%ADD37R,0.317500X0.013800*%
%ADD38R,0.331306X0.013800*%
%ADD39R,0.055219X0.013806*%
%ADD40R,0.345113X0.013806*%
%ADD41R,0.069019X0.013800*%
%ADD42R,0.345113X0.013800*%
%ADD43R,0.055213X0.013806*%
%ADD44R,0.303694X0.013806*%
%ADD45R,0.289894X0.013800*%
%ADD46R,0.041413X0.013800*%
%ADD47R,0.041406X0.013800*%
%ADD48R,0.331300X0.013800*%
%ADD49R,0.041406X0.013806*%
%ADD50R,0.358913X0.013806*%
%ADD51R,0.207063X0.013800*%
%ADD52R,0.358913X0.013800*%
%ADD53R,0.441738X0.013806*%
%ADD54R,0.593581X0.013800*%
%ADD55R,0.331300X0.013806*%
%ADD56R,0.386519X0.013806*%
%ADD57R,0.372719X0.013800*%
%ADD58R,0.220869X0.013800*%
%ADD59R,0.427931X0.013800*%
%ADD60R,0.441738X0.013800*%
%ADD61R,0.193256X0.013800*%
%ADD62R,0.455544X0.013806*%
%ADD63R,0.372719X0.013806*%
%ADD64R,0.179456X0.013806*%
%ADD65R,0.151850X0.013800*%
%ADD66R,0.138044X0.013800*%
%ADD67R,0.096631X0.013800*%
%ADD68R,0.234675X0.013800*%
%ADD69R,0.082825X0.013806*%
%ADD70R,0.138044X0.013806*%
%ADD71R,0.110431X0.013806*%
%ADD72R,0.013806X0.013800*%
%ADD73R,0.124238X0.013806*%
%ADD74R,0.096631X0.013806*%
%ADD75R,0.138038X0.013800*%
%ADD76R,0.096625X0.013800*%
%ADD77R,0.096625X0.013806*%
%ADD78R,0.248475X0.013806*%
%ADD79R,0.234669X0.013800*%
%ADD80R,0.234675X0.013806*%
%ADD81R,0.151844X0.013800*%
%ADD82R,0.082825X0.013800*%
%ADD83R,0.165650X0.013800*%
%ADD84R,0.234669X0.013806*%
%ADD85R,0.496956X0.013800*%
%ADD86R,0.303700X0.013800*%
%ADD87R,0.082819X0.013806*%
%ADD88R,0.276081X0.013806*%
%ADD89R,0.220863X0.013800*%
%ADD90R,0.207063X0.013806*%
%ADD91R,0.179450X0.013806*%
%ADD92R,0.165650X0.013806*%
%ADD93R,0.193263X0.013800*%
%ADD94R,0.193263X0.013806*%
%ADD95R,0.193256X0.013806*%
%ADD96R,0.110438X0.013800*%
%ADD97R,0.151850X0.013806*%
%ADD98R,0.165656X0.013800*%
%ADD99R,0.027606X0.013800*%
%ADD100R,0.124244X0.013806*%
%ADD101R,0.069025X0.013806*%
%ADD102R,0.082819X0.013800*%
%ADD103R,0.027613X0.013800*%
%ADD104R,0.220869X0.013806*%
%ADD105R,0.027606X0.013806*%
%ADD106R,0.013800X0.013800*%
%ADD107R,0.276081X0.013800*%
%ADD108R,0.289894X0.013806*%
%ADD109R,0.331306X0.013806*%
%ADD110R,0.372713X0.013800*%
%ADD111R,0.400325X0.013806*%
%ADD112R,0.427938X0.013800*%
%ADD113R,0.414131X0.013800*%
%ADD114R,0.469350X0.013800*%
%ADD115R,0.469344X0.013800*%
%ADD116R,0.483150X0.013806*%
%ADD117R,0.455544X0.013800*%
%ADD118R,0.496950X0.013800*%
%ADD119R,0.496956X0.013806*%
%ADD120R,0.510763X0.013800*%
%ADD121R,0.510756X0.013806*%
%ADD122R,0.483150X0.013800*%
%ADD123R,0.510756X0.013800*%
%ADD124R,0.524569X0.013806*%
%ADD125R,0.524563X0.013800*%
%ADD126R,0.538369X0.013800*%
%ADD127R,0.538369X0.013806*%
%ADD128R,0.565975X0.013806*%
%ADD129R,0.552175X0.013800*%
%ADD130R,0.565975X0.013800*%
%ADD131R,0.552175X0.013806*%
%ADD132R,0.579781X0.013806*%
%ADD133R,0.579781X0.013800*%
%ADD134R,0.607388X0.013800*%
%ADD135R,0.607394X0.013806*%
%ADD136R,0.593588X0.013800*%
%ADD137R,0.621194X0.013800*%
%ADD138R,0.593588X0.013806*%
%ADD139R,0.621194X0.013806*%
%ADD140R,0.607394X0.013800*%
%ADD141R,0.635000X0.013800*%
%ADD142R,0.648806X0.013800*%
%ADD143R,0.662606X0.013806*%
%ADD144R,0.676406X0.013800*%
%ADD145R,0.690219X0.013800*%
%ADD146R,0.648800X0.013806*%
%ADD147R,0.690213X0.013806*%
%ADD148R,0.648800X0.013800*%
%ADD149R,0.690219X0.013806*%
%ADD150R,0.690213X0.013800*%
%ADD151R,0.648806X0.013806*%
%ADD152R,0.676413X0.013806*%
%ADD153R,0.662613X0.013800*%
%ADD154R,0.662606X0.013800*%
%ADD155R,0.635000X0.013806*%
%ADD156R,0.621200X0.013806*%
%ADD157R,0.510763X0.013806*%
%ADD158R,0.069025X0.013800*%
%ADD159R,0.427931X0.013806*%
%ADD160R,0.400325X0.013800*%
%ADD161R,0.220863X0.013806*%
%ADD162R,0.911088X0.013800*%
%ADD163R,1.076738X0.013806*%
%ADD164R,1.200975X0.013800*%
%ADD165R,1.311406X0.013806*%
%ADD166R,0.124244X0.013800*%
%ADD167R,0.110438X0.013806*%
%ADD168R,0.165656X0.013806*%
%ADD169R,0.717825X0.013800*%
%ADD170R,0.745438X0.013800*%
%ADD171R,0.786844X0.013806*%
%ADD172R,0.800650X0.013800*%
%ADD173R,0.828256X0.013800*%
%ADD174R,0.855869X0.013806*%
%ADD175R,0.869669X0.013800*%
%ADD176R,0.897281X0.013806*%
%ADD177R,0.924888X0.013806*%
%ADD178R,0.938694X0.013800*%
%ADD179R,0.966306X0.013806*%
%ADD180R,0.607388X0.013806*%
%ADD181R,0.966306X0.013800*%
%ADD182R,0.704019X0.013800*%
%ADD183R,0.980106X0.013800*%
%ADD184R,0.993906X0.013806*%
%ADD185R,0.993906X0.013800*%
%ADD186R,0.842063X0.013800*%
%ADD187R,1.007713X0.013806*%
%ADD188R,0.883475X0.013806*%
%ADD189R,1.007713X0.013800*%
%ADD190R,0.786844X0.013800*%
%ADD191R,1.021519X0.013806*%
%ADD192R,1.035325X0.013800*%
%ADD193R,1.035325X0.013806*%
%ADD194R,0.524563X0.013806*%
%ADD195R,0.345106X0.013806*%
%ADD196R,0.745431X0.013800*%
%ADD197R,0.842063X0.013806*%
%ADD198R,0.386525X0.013806*%
%ADD199R,1.021519X0.013800*%
%ADD200R,0.372713X0.013806*%
%ADD201R,0.469350X0.013806*%
%ADD202R,1.007719X0.013806*%
%ADD203R,1.007719X0.013800*%
%ADD204R,0.013800X0.013806*%
%ADD205R,0.980106X0.013806*%
%ADD206R,0.013806X0.013806*%
%ADD207R,0.538363X0.013806*%
%ADD208R,0.938694X0.013806*%
%ADD209R,0.538363X0.013800*%
%ADD210R,0.924888X0.013800*%
%ADD211R,0.704019X0.013806*%
%ADD212R,0.138038X0.013806*%
%ADD213R,0.911088X0.013806*%
%ADD214R,0.786850X0.013800*%
%ADD215R,0.897281X0.013800*%
%ADD216R,0.842069X0.013806*%
%ADD217R,0.869675X0.013800*%
%ADD218R,0.731631X0.013800*%
%ADD219R,0.179450X0.013800*%
%ADD220R,0.469344X0.013806*%
%ADD221R,0.455538X0.013800*%
%ADD222R,0.455538X0.013806*%
%ADD223R,0.414131X0.013806*%
%ADD224R,0.414125X0.013800*%
%ADD225R,0.869675X0.013806*%
%ADD226R,0.027613X0.013806*%
%ADD227R,0.717819X0.013806*%
%ADD228R,1.228588X0.013806*%
%ADD229R,1.270000X0.013800*%
%ADD230R,1.283800X0.013800*%
%ADD231R,1.242394X0.013806*%
%ADD232R,0.207069X0.013800*%
%ADD233R,0.828256X0.013806*%
%ADD234R,0.676413X0.013800*%
%ADD235R,1.131956X0.013800*%
%ADD236R,0.980113X0.013806*%
%ADD237R,1.214781X0.013800*%
%ADD238R,0.427938X0.013806*%
%ADD239R,0.759244X0.013800*%
%ADD240R,0.759244X0.013806*%
%ADD241R,0.552169X0.013800*%
%ADD242R,1.311413X0.013800*%
%ADD243R,1.311413X0.013806*%
%ADD244R,0.593581X0.013806*%
%ADD245R,0.731625X0.013806*%
%ADD246R,0.731625X0.013800*%
%ADD247R,0.759238X0.013800*%
%ADD248R,0.759238X0.013806*%
%ADD249R,0.773044X0.013806*%
%ADD250R,0.786850X0.013806*%
%ADD251R,0.717819X0.013800*%
%ADD252C,0.000000*%


D10*
X-19050Y0D02*
X396750Y0D01*
X396750Y577750D01*
X-19050Y577750D01*
X-19050Y0D01*
D11*
X380238Y93472D02*
X380238Y109728D01*
X373013Y109728D01*
X373013Y102503D02*
X380238Y102503D01*
X362344Y93472D02*
X362226Y93474D01*
X362108Y93480D01*
X361990Y93489D01*
X361873Y93503D01*
X361756Y93520D01*
X361639Y93541D01*
X361524Y93566D01*
X361409Y93595D01*
X361295Y93628D01*
X361183Y93664D01*
X361072Y93704D01*
X360962Y93747D01*
X360853Y93794D01*
X360746Y93844D01*
X360641Y93899D01*
X360538Y93956D01*
X360437Y94017D01*
X360337Y94081D01*
X360240Y94148D01*
X360145Y94218D01*
X360053Y94292D01*
X359962Y94368D01*
X359875Y94448D01*
X359790Y94530D01*
X359708Y94615D01*
X359628Y94702D01*
X359552Y94793D01*
X359478Y94885D01*
X359408Y94980D01*
X359341Y95077D01*
X359277Y95177D01*
X359216Y95278D01*
X359159Y95381D01*
X359104Y95486D01*
X359054Y95593D01*
X359007Y95702D01*
X358964Y95812D01*
X358924Y95923D01*
X358888Y96035D01*
X358855Y96149D01*
X358826Y96264D01*
X358801Y96379D01*
X358780Y96496D01*
X358763Y96613D01*
X358749Y96730D01*
X358740Y96848D01*
X358734Y96966D01*
X358732Y97084D01*
X362344Y93472D02*
X362527Y93474D01*
X362709Y93481D01*
X362891Y93492D01*
X363073Y93507D01*
X363255Y93527D01*
X363436Y93551D01*
X363616Y93579D01*
X363796Y93611D01*
X363975Y93648D01*
X364152Y93689D01*
X364329Y93735D01*
X364505Y93784D01*
X364680Y93838D01*
X364853Y93896D01*
X365024Y93958D01*
X365195Y94024D01*
X365363Y94095D01*
X365530Y94169D01*
X365695Y94247D01*
X365858Y94329D01*
X366019Y94415D01*
X366178Y94505D01*
X366335Y94599D01*
X366489Y94696D01*
X366641Y94797D01*
X366791Y94902D01*
X366938Y95010D01*
X367082Y95121D01*
X367224Y95236D01*
X367363Y95355D01*
X367499Y95477D01*
X367632Y95602D01*
X367762Y95730D01*
X367311Y106116D02*
X367309Y106234D01*
X367303Y106352D01*
X367294Y106470D01*
X367280Y106587D01*
X367263Y106704D01*
X367242Y106821D01*
X367217Y106936D01*
X367188Y107051D01*
X367155Y107165D01*
X367119Y107277D01*
X367079Y107388D01*
X367036Y107498D01*
X366989Y107607D01*
X366939Y107714D01*
X366884Y107819D01*
X366827Y107922D01*
X366766Y108023D01*
X366702Y108123D01*
X366635Y108220D01*
X366565Y108315D01*
X366491Y108407D01*
X366415Y108498D01*
X366335Y108585D01*
X366253Y108670D01*
X366168Y108752D01*
X366081Y108832D01*
X365990Y108908D01*
X365898Y108982D01*
X365803Y109052D01*
X365706Y109119D01*
X365606Y109183D01*
X365505Y109244D01*
X365402Y109301D01*
X365297Y109356D01*
X365190Y109406D01*
X365081Y109453D01*
X364971Y109496D01*
X364860Y109536D01*
X364748Y109572D01*
X364634Y109605D01*
X364519Y109634D01*
X364404Y109659D01*
X364287Y109680D01*
X364170Y109697D01*
X364053Y109711D01*
X363935Y109720D01*
X363817Y109726D01*
X363699Y109728D01*
X363538Y109726D01*
X363376Y109720D01*
X363215Y109711D01*
X363054Y109697D01*
X362894Y109680D01*
X362734Y109659D01*
X362574Y109634D01*
X362415Y109605D01*
X362257Y109573D01*
X362100Y109537D01*
X361944Y109497D01*
X361788Y109453D01*
X361634Y109405D01*
X361481Y109354D01*
X361329Y109300D01*
X361178Y109241D01*
X361029Y109180D01*
X360882Y109114D01*
X360736Y109045D01*
X360591Y108973D01*
X360449Y108897D01*
X360308Y108818D01*
X360169Y108736D01*
X360033Y108650D01*
X359898Y108561D01*
X359765Y108469D01*
X359635Y108373D01*
X365505Y102955D02*
X365606Y103017D01*
X365706Y103082D01*
X365803Y103151D01*
X365898Y103223D01*
X365991Y103297D01*
X366081Y103375D01*
X366169Y103456D01*
X366254Y103539D01*
X366336Y103625D01*
X366415Y103714D01*
X366492Y103805D01*
X366565Y103899D01*
X366636Y103995D01*
X366703Y104093D01*
X366767Y104193D01*
X366828Y104296D01*
X366885Y104400D01*
X366939Y104506D01*
X366989Y104614D01*
X367036Y104723D01*
X367080Y104834D01*
X367120Y104946D01*
X367156Y105060D01*
X367188Y105174D01*
X367217Y105290D01*
X367242Y105406D01*
X367263Y105523D01*
X367280Y105641D01*
X367294Y105759D01*
X367303Y105878D01*
X367309Y105997D01*
X367311Y106116D01*
X360538Y100245D02*
X360437Y100183D01*
X360337Y100118D01*
X360240Y100049D01*
X360145Y99977D01*
X360052Y99903D01*
X359962Y99825D01*
X359874Y99744D01*
X359789Y99661D01*
X359707Y99575D01*
X359628Y99486D01*
X359551Y99395D01*
X359478Y99301D01*
X359407Y99205D01*
X359340Y99107D01*
X359276Y99007D01*
X359215Y98904D01*
X359158Y98800D01*
X359104Y98694D01*
X359054Y98586D01*
X359007Y98477D01*
X358963Y98366D01*
X358923Y98254D01*
X358887Y98140D01*
X358855Y98026D01*
X358826Y97910D01*
X358801Y97794D01*
X358780Y97677D01*
X358763Y97559D01*
X358749Y97441D01*
X358740Y97322D01*
X358734Y97203D01*
X358732Y97084D01*
X360538Y100245D02*
X365505Y102955D01*
X347755Y93472D02*
X347637Y93474D01*
X347519Y93480D01*
X347401Y93489D01*
X347284Y93503D01*
X347167Y93520D01*
X347050Y93541D01*
X346935Y93566D01*
X346820Y93595D01*
X346706Y93628D01*
X346594Y93664D01*
X346483Y93704D01*
X346373Y93747D01*
X346264Y93794D01*
X346157Y93844D01*
X346052Y93899D01*
X345949Y93956D01*
X345848Y94017D01*
X345748Y94081D01*
X345651Y94148D01*
X345556Y94218D01*
X345464Y94292D01*
X345373Y94368D01*
X345286Y94448D01*
X345201Y94530D01*
X345119Y94615D01*
X345039Y94702D01*
X344963Y94793D01*
X344889Y94885D01*
X344819Y94980D01*
X344752Y95077D01*
X344688Y95177D01*
X344627Y95278D01*
X344570Y95381D01*
X344515Y95486D01*
X344465Y95593D01*
X344418Y95702D01*
X344375Y95812D01*
X344335Y95923D01*
X344299Y96035D01*
X344266Y96149D01*
X344237Y96264D01*
X344212Y96379D01*
X344191Y96496D01*
X344174Y96613D01*
X344160Y96730D01*
X344151Y96848D01*
X344145Y96966D01*
X344143Y97084D01*
X347755Y93472D02*
X347938Y93474D01*
X348120Y93481D01*
X348302Y93492D01*
X348484Y93507D01*
X348666Y93527D01*
X348847Y93551D01*
X349027Y93579D01*
X349207Y93611D01*
X349386Y93648D01*
X349563Y93689D01*
X349740Y93735D01*
X349916Y93784D01*
X350091Y93838D01*
X350264Y93896D01*
X350435Y93958D01*
X350606Y94024D01*
X350774Y94095D01*
X350941Y94169D01*
X351106Y94247D01*
X351269Y94329D01*
X351430Y94415D01*
X351589Y94505D01*
X351746Y94599D01*
X351900Y94696D01*
X352052Y94797D01*
X352202Y94902D01*
X352349Y95010D01*
X352493Y95121D01*
X352635Y95236D01*
X352774Y95355D01*
X352910Y95477D01*
X353043Y95602D01*
X353173Y95730D01*
X352722Y106116D02*
X352720Y106234D01*
X352714Y106352D01*
X352705Y106470D01*
X352691Y106587D01*
X352674Y106704D01*
X352653Y106821D01*
X352628Y106936D01*
X352599Y107051D01*
X352566Y107165D01*
X352530Y107277D01*
X352490Y107388D01*
X352447Y107498D01*
X352400Y107607D01*
X352350Y107714D01*
X352295Y107819D01*
X352238Y107922D01*
X352177Y108023D01*
X352113Y108123D01*
X352046Y108220D01*
X351976Y108315D01*
X351902Y108407D01*
X351826Y108498D01*
X351746Y108585D01*
X351664Y108670D01*
X351579Y108752D01*
X351492Y108832D01*
X351401Y108908D01*
X351309Y108982D01*
X351214Y109052D01*
X351117Y109119D01*
X351017Y109183D01*
X350916Y109244D01*
X350813Y109301D01*
X350708Y109356D01*
X350601Y109406D01*
X350492Y109453D01*
X350382Y109496D01*
X350271Y109536D01*
X350159Y109572D01*
X350045Y109605D01*
X349930Y109634D01*
X349815Y109659D01*
X349698Y109680D01*
X349581Y109697D01*
X349464Y109711D01*
X349346Y109720D01*
X349228Y109726D01*
X349110Y109728D01*
X348949Y109726D01*
X348787Y109720D01*
X348626Y109711D01*
X348465Y109697D01*
X348305Y109680D01*
X348145Y109659D01*
X347985Y109634D01*
X347826Y109605D01*
X347668Y109573D01*
X347511Y109537D01*
X347355Y109497D01*
X347199Y109453D01*
X347045Y109405D01*
X346892Y109354D01*
X346740Y109300D01*
X346589Y109241D01*
X346440Y109180D01*
X346293Y109114D01*
X346147Y109045D01*
X346002Y108973D01*
X345860Y108897D01*
X345719Y108818D01*
X345580Y108736D01*
X345444Y108650D01*
X345309Y108561D01*
X345176Y108469D01*
X345046Y108373D01*
X350916Y102955D02*
X351017Y103017D01*
X351117Y103082D01*
X351214Y103151D01*
X351309Y103223D01*
X351402Y103297D01*
X351492Y103375D01*
X351580Y103456D01*
X351665Y103539D01*
X351747Y103625D01*
X351826Y103714D01*
X351903Y103805D01*
X351976Y103899D01*
X352047Y103995D01*
X352114Y104093D01*
X352178Y104193D01*
X352239Y104296D01*
X352296Y104400D01*
X352350Y104506D01*
X352400Y104614D01*
X352447Y104723D01*
X352491Y104834D01*
X352531Y104946D01*
X352567Y105060D01*
X352599Y105174D01*
X352628Y105290D01*
X352653Y105406D01*
X352674Y105523D01*
X352691Y105641D01*
X352705Y105759D01*
X352714Y105878D01*
X352720Y105997D01*
X352722Y106116D01*
X345948Y100245D02*
X345847Y100183D01*
X345747Y100118D01*
X345650Y100049D01*
X345555Y99977D01*
X345462Y99903D01*
X345372Y99825D01*
X345284Y99744D01*
X345199Y99661D01*
X345117Y99575D01*
X345038Y99486D01*
X344961Y99395D01*
X344888Y99301D01*
X344817Y99205D01*
X344750Y99107D01*
X344686Y99007D01*
X344625Y98904D01*
X344568Y98800D01*
X344514Y98694D01*
X344464Y98586D01*
X344417Y98477D01*
X344373Y98366D01*
X344333Y98254D01*
X344297Y98140D01*
X344265Y98026D01*
X344236Y97910D01*
X344211Y97794D01*
X344190Y97677D01*
X344173Y97559D01*
X344159Y97441D01*
X344150Y97322D01*
X344144Y97203D01*
X344142Y97084D01*
X345949Y100245D02*
X350916Y102955D01*
X374819Y83058D02*
X380238Y66802D01*
X369401Y66802D02*
X374819Y83058D01*
X370755Y70866D02*
X378883Y70866D01*
X363322Y66802D02*
X363322Y77639D01*
X358806Y77639D01*
X358702Y77637D01*
X358599Y77631D01*
X358495Y77621D01*
X358392Y77607D01*
X358290Y77589D01*
X358189Y77568D01*
X358088Y77542D01*
X357989Y77513D01*
X357890Y77480D01*
X357793Y77443D01*
X357698Y77402D01*
X357604Y77358D01*
X357512Y77310D01*
X357422Y77259D01*
X357333Y77204D01*
X357247Y77146D01*
X357164Y77084D01*
X357082Y77020D01*
X357004Y76952D01*
X356928Y76882D01*
X356854Y76809D01*
X356784Y76732D01*
X356716Y76654D01*
X356652Y76572D01*
X356590Y76489D01*
X356532Y76403D01*
X356477Y76314D01*
X356426Y76224D01*
X356378Y76132D01*
X356334Y76038D01*
X356293Y75943D01*
X356256Y75846D01*
X356223Y75747D01*
X356194Y75648D01*
X356168Y75547D01*
X356147Y75446D01*
X356129Y75344D01*
X356115Y75241D01*
X356105Y75137D01*
X356099Y75034D01*
X356097Y74930D01*
X356097Y66802D01*
X342102Y66802D02*
X342102Y83058D01*
X342102Y66802D02*
X346617Y66802D01*
X346718Y66804D01*
X346819Y66810D01*
X346920Y66819D01*
X347021Y66832D01*
X347121Y66849D01*
X347220Y66870D01*
X347318Y66894D01*
X347415Y66922D01*
X347512Y66954D01*
X347607Y66989D01*
X347700Y67028D01*
X347792Y67070D01*
X347883Y67116D01*
X347972Y67165D01*
X348058Y67217D01*
X348143Y67273D01*
X348226Y67331D01*
X348306Y67393D01*
X348384Y67458D01*
X348460Y67525D01*
X348533Y67595D01*
X348603Y67668D01*
X348670Y67744D01*
X348735Y67822D01*
X348797Y67902D01*
X348855Y67985D01*
X348911Y68070D01*
X348963Y68156D01*
X349012Y68245D01*
X349058Y68336D01*
X349100Y68428D01*
X349139Y68521D01*
X349174Y68616D01*
X349206Y68713D01*
X349234Y68810D01*
X349258Y68908D01*
X349279Y69007D01*
X349296Y69107D01*
X349309Y69208D01*
X349318Y69309D01*
X349324Y69410D01*
X349326Y69511D01*
X349327Y69511D02*
X349327Y74930D01*
X349326Y74930D02*
X349324Y75031D01*
X349318Y75132D01*
X349309Y75233D01*
X349296Y75334D01*
X349279Y75434D01*
X349258Y75533D01*
X349234Y75631D01*
X349206Y75728D01*
X349174Y75825D01*
X349139Y75920D01*
X349100Y76013D01*
X349058Y76105D01*
X349012Y76196D01*
X348963Y76285D01*
X348911Y76371D01*
X348855Y76456D01*
X348797Y76539D01*
X348735Y76619D01*
X348670Y76697D01*
X348603Y76773D01*
X348533Y76846D01*
X348460Y76916D01*
X348384Y76983D01*
X348306Y77048D01*
X348226Y77110D01*
X348143Y77168D01*
X348058Y77224D01*
X347972Y77276D01*
X347883Y77325D01*
X347792Y77371D01*
X347700Y77413D01*
X347607Y77452D01*
X347512Y77487D01*
X347415Y77519D01*
X347318Y77547D01*
X347220Y77571D01*
X347121Y77592D01*
X347021Y77609D01*
X346920Y77622D01*
X346819Y77631D01*
X346718Y77637D01*
X346617Y77639D01*
X342102Y77639D01*
X334580Y77639D02*
X334580Y66802D01*
X334580Y77639D02*
X329161Y77639D01*
X329161Y75833D01*
X321534Y66802D02*
X317019Y66802D01*
X321534Y66802D02*
X321635Y66804D01*
X321736Y66810D01*
X321837Y66819D01*
X321938Y66832D01*
X322038Y66849D01*
X322137Y66870D01*
X322235Y66894D01*
X322332Y66922D01*
X322429Y66954D01*
X322524Y66989D01*
X322617Y67028D01*
X322709Y67070D01*
X322800Y67116D01*
X322889Y67165D01*
X322975Y67217D01*
X323060Y67273D01*
X323143Y67331D01*
X323223Y67393D01*
X323301Y67458D01*
X323377Y67525D01*
X323450Y67595D01*
X323520Y67668D01*
X323587Y67744D01*
X323652Y67822D01*
X323714Y67902D01*
X323772Y67985D01*
X323828Y68070D01*
X323880Y68156D01*
X323929Y68245D01*
X323975Y68336D01*
X324017Y68428D01*
X324056Y68521D01*
X324091Y68616D01*
X324123Y68713D01*
X324151Y68810D01*
X324175Y68908D01*
X324196Y69007D01*
X324213Y69107D01*
X324226Y69208D01*
X324235Y69309D01*
X324241Y69410D01*
X324243Y69511D01*
X324244Y69511D02*
X324244Y74027D01*
X324243Y74027D02*
X324241Y74146D01*
X324235Y74266D01*
X324225Y74385D01*
X324211Y74503D01*
X324194Y74622D01*
X324172Y74739D01*
X324147Y74856D01*
X324117Y74971D01*
X324084Y75086D01*
X324047Y75200D01*
X324007Y75312D01*
X323962Y75423D01*
X323914Y75532D01*
X323863Y75640D01*
X323808Y75746D01*
X323749Y75850D01*
X323687Y75952D01*
X323622Y76052D01*
X323553Y76150D01*
X323481Y76246D01*
X323406Y76339D01*
X323329Y76429D01*
X323248Y76517D01*
X323164Y76602D01*
X323077Y76684D01*
X322988Y76764D01*
X322896Y76840D01*
X322802Y76914D01*
X322705Y76984D01*
X322607Y77051D01*
X322506Y77115D01*
X322402Y77175D01*
X322297Y77232D01*
X322190Y77285D01*
X322082Y77335D01*
X321972Y77381D01*
X321860Y77423D01*
X321747Y77462D01*
X321633Y77497D01*
X321518Y77528D01*
X321401Y77556D01*
X321284Y77579D01*
X321167Y77599D01*
X321048Y77615D01*
X320929Y77627D01*
X320810Y77635D01*
X320691Y77639D01*
X320571Y77639D01*
X320452Y77635D01*
X320333Y77627D01*
X320214Y77615D01*
X320095Y77599D01*
X319978Y77579D01*
X319861Y77556D01*
X319744Y77528D01*
X319629Y77497D01*
X319515Y77462D01*
X319402Y77423D01*
X319290Y77381D01*
X319180Y77335D01*
X319072Y77285D01*
X318965Y77232D01*
X318860Y77175D01*
X318756Y77115D01*
X318655Y77051D01*
X318557Y76984D01*
X318460Y76914D01*
X318366Y76840D01*
X318274Y76764D01*
X318185Y76684D01*
X318098Y76602D01*
X318014Y76517D01*
X317933Y76429D01*
X317856Y76339D01*
X317781Y76246D01*
X317709Y76150D01*
X317640Y76052D01*
X317575Y75952D01*
X317513Y75850D01*
X317454Y75746D01*
X317399Y75640D01*
X317348Y75532D01*
X317300Y75423D01*
X317255Y75312D01*
X317215Y75200D01*
X317178Y75086D01*
X317145Y74971D01*
X317115Y74856D01*
X317090Y74739D01*
X317068Y74622D01*
X317051Y74503D01*
X317037Y74385D01*
X317027Y74266D01*
X317021Y74146D01*
X317019Y74027D01*
X317019Y72221D01*
X324244Y72221D01*
X307609Y73124D02*
X303545Y73124D01*
X307609Y73124D02*
X307721Y73122D01*
X307832Y73116D01*
X307943Y73106D01*
X308054Y73093D01*
X308164Y73075D01*
X308273Y73053D01*
X308382Y73028D01*
X308490Y72999D01*
X308596Y72966D01*
X308702Y72929D01*
X308806Y72889D01*
X308908Y72845D01*
X309009Y72797D01*
X309108Y72746D01*
X309206Y72691D01*
X309301Y72633D01*
X309394Y72572D01*
X309485Y72507D01*
X309574Y72439D01*
X309660Y72368D01*
X309743Y72295D01*
X309824Y72218D01*
X309903Y72138D01*
X309978Y72056D01*
X310050Y71971D01*
X310120Y71884D01*
X310186Y71794D01*
X310249Y71702D01*
X310309Y71607D01*
X310365Y71511D01*
X310418Y71413D01*
X310467Y71313D01*
X310513Y71211D01*
X310555Y71108D01*
X310594Y71003D01*
X310629Y70897D01*
X310660Y70790D01*
X310687Y70682D01*
X310711Y70573D01*
X310730Y70463D01*
X310746Y70353D01*
X310758Y70242D01*
X310766Y70130D01*
X310770Y70019D01*
X310770Y69907D01*
X310766Y69796D01*
X310758Y69684D01*
X310746Y69573D01*
X310730Y69463D01*
X310711Y69353D01*
X310687Y69244D01*
X310660Y69136D01*
X310629Y69029D01*
X310594Y68923D01*
X310555Y68818D01*
X310513Y68715D01*
X310467Y68613D01*
X310418Y68513D01*
X310365Y68415D01*
X310309Y68319D01*
X310249Y68224D01*
X310186Y68132D01*
X310120Y68042D01*
X310050Y67955D01*
X309978Y67870D01*
X309903Y67788D01*
X309824Y67708D01*
X309743Y67631D01*
X309660Y67558D01*
X309574Y67487D01*
X309485Y67419D01*
X309394Y67354D01*
X309301Y67293D01*
X309206Y67235D01*
X309108Y67180D01*
X309009Y67129D01*
X308908Y67081D01*
X308806Y67037D01*
X308702Y66997D01*
X308596Y66960D01*
X308490Y66927D01*
X308382Y66898D01*
X308273Y66873D01*
X308164Y66851D01*
X308054Y66833D01*
X307943Y66820D01*
X307832Y66810D01*
X307721Y66804D01*
X307609Y66802D01*
X303545Y66802D01*
X303545Y74930D01*
X303547Y75031D01*
X303553Y75132D01*
X303562Y75233D01*
X303575Y75334D01*
X303592Y75434D01*
X303613Y75533D01*
X303637Y75631D01*
X303665Y75728D01*
X303697Y75825D01*
X303732Y75920D01*
X303771Y76013D01*
X303813Y76105D01*
X303859Y76196D01*
X303908Y76285D01*
X303960Y76371D01*
X304016Y76456D01*
X304074Y76539D01*
X304136Y76619D01*
X304201Y76697D01*
X304268Y76773D01*
X304338Y76846D01*
X304411Y76916D01*
X304487Y76983D01*
X304565Y77048D01*
X304645Y77110D01*
X304728Y77168D01*
X304813Y77224D01*
X304900Y77276D01*
X304988Y77325D01*
X305079Y77371D01*
X305171Y77413D01*
X305264Y77452D01*
X305359Y77487D01*
X305456Y77519D01*
X305553Y77547D01*
X305651Y77571D01*
X305750Y77592D01*
X305850Y77609D01*
X305951Y77622D01*
X306052Y77631D01*
X306153Y77637D01*
X306254Y77639D01*
X309867Y77639D01*
X295274Y73124D02*
X290758Y71318D01*
X295274Y73124D02*
X295362Y73161D01*
X295448Y73202D01*
X295533Y73246D01*
X295616Y73294D01*
X295696Y73345D01*
X295775Y73399D01*
X295851Y73457D01*
X295925Y73517D01*
X295997Y73581D01*
X296065Y73647D01*
X296131Y73717D01*
X296194Y73788D01*
X296255Y73863D01*
X296312Y73939D01*
X296365Y74018D01*
X296416Y74099D01*
X296463Y74182D01*
X296507Y74267D01*
X296547Y74354D01*
X296584Y74442D01*
X296617Y74532D01*
X296647Y74623D01*
X296672Y74715D01*
X296694Y74808D01*
X296712Y74902D01*
X296727Y74996D01*
X296737Y75091D01*
X296743Y75187D01*
X296746Y75282D01*
X296745Y75378D01*
X296739Y75473D01*
X296730Y75569D01*
X296717Y75663D01*
X296701Y75757D01*
X296680Y75851D01*
X296655Y75943D01*
X296627Y76034D01*
X296595Y76124D01*
X296560Y76213D01*
X296521Y76300D01*
X296478Y76386D01*
X296432Y76470D01*
X296382Y76551D01*
X296330Y76631D01*
X296274Y76709D01*
X296214Y76784D01*
X296152Y76856D01*
X296087Y76926D01*
X296019Y76994D01*
X295949Y77058D01*
X295876Y77120D01*
X295800Y77178D01*
X295722Y77234D01*
X295642Y77286D01*
X295560Y77335D01*
X295476Y77380D01*
X295390Y77422D01*
X295303Y77461D01*
X295214Y77496D01*
X295123Y77527D01*
X295032Y77554D01*
X294939Y77578D01*
X294846Y77598D01*
X294752Y77614D01*
X294657Y77626D01*
X294562Y77635D01*
X294466Y77639D01*
X294371Y77640D01*
X294124Y77633D01*
X293878Y77621D01*
X293632Y77603D01*
X293386Y77578D01*
X293142Y77548D01*
X292898Y77512D01*
X292655Y77471D01*
X292413Y77423D01*
X292172Y77369D01*
X291933Y77310D01*
X291695Y77245D01*
X291459Y77174D01*
X291224Y77098D01*
X290991Y77016D01*
X290761Y76928D01*
X290533Y76835D01*
X290306Y76737D01*
X290758Y71317D02*
X290670Y71280D01*
X290584Y71239D01*
X290499Y71195D01*
X290416Y71147D01*
X290336Y71096D01*
X290257Y71042D01*
X290181Y70984D01*
X290107Y70924D01*
X290035Y70860D01*
X289967Y70794D01*
X289901Y70724D01*
X289838Y70653D01*
X289777Y70578D01*
X289720Y70502D01*
X289667Y70423D01*
X289616Y70342D01*
X289569Y70259D01*
X289525Y70174D01*
X289485Y70087D01*
X289448Y69999D01*
X289415Y69909D01*
X289385Y69818D01*
X289360Y69726D01*
X289338Y69633D01*
X289320Y69539D01*
X289305Y69445D01*
X289295Y69350D01*
X289289Y69254D01*
X289286Y69159D01*
X289287Y69063D01*
X289293Y68968D01*
X289302Y68872D01*
X289315Y68778D01*
X289331Y68684D01*
X289352Y68590D01*
X289377Y68498D01*
X289405Y68407D01*
X289437Y68317D01*
X289472Y68228D01*
X289511Y68141D01*
X289554Y68055D01*
X289600Y67971D01*
X289650Y67890D01*
X289702Y67810D01*
X289758Y67732D01*
X289818Y67657D01*
X289880Y67585D01*
X289945Y67515D01*
X290013Y67447D01*
X290083Y67383D01*
X290156Y67321D01*
X290232Y67263D01*
X290310Y67207D01*
X290390Y67155D01*
X290472Y67106D01*
X290556Y67061D01*
X290642Y67019D01*
X290729Y66980D01*
X290818Y66945D01*
X290909Y66914D01*
X291000Y66887D01*
X291093Y66863D01*
X291186Y66843D01*
X291280Y66827D01*
X291375Y66815D01*
X291470Y66806D01*
X291566Y66802D01*
X291661Y66801D01*
X291662Y66802D02*
X292024Y66811D01*
X292386Y66829D01*
X292747Y66856D01*
X293107Y66891D01*
X293467Y66934D01*
X293826Y66986D01*
X294183Y67047D01*
X294538Y67116D01*
X294892Y67193D01*
X295244Y67279D01*
X295594Y67373D01*
X295942Y67476D01*
X296287Y67586D01*
X296629Y67705D01*
X275509Y66802D02*
X270090Y83058D01*
X264672Y66802D01*
X266026Y70866D02*
X274154Y70866D01*
X258592Y69511D02*
X258592Y77639D01*
X258592Y69511D02*
X258590Y69410D01*
X258584Y69309D01*
X258575Y69208D01*
X258562Y69107D01*
X258545Y69007D01*
X258524Y68908D01*
X258500Y68810D01*
X258472Y68713D01*
X258440Y68616D01*
X258405Y68521D01*
X258366Y68428D01*
X258324Y68336D01*
X258278Y68245D01*
X258229Y68156D01*
X258177Y68070D01*
X258121Y67985D01*
X258063Y67902D01*
X258001Y67822D01*
X257936Y67744D01*
X257869Y67668D01*
X257799Y67595D01*
X257726Y67525D01*
X257650Y67458D01*
X257572Y67393D01*
X257492Y67331D01*
X257409Y67273D01*
X257324Y67217D01*
X257238Y67165D01*
X257149Y67116D01*
X257058Y67070D01*
X256966Y67028D01*
X256873Y66989D01*
X256778Y66954D01*
X256681Y66922D01*
X256584Y66894D01*
X256486Y66870D01*
X256387Y66849D01*
X256287Y66832D01*
X256186Y66819D01*
X256085Y66810D01*
X255984Y66804D01*
X255883Y66802D01*
X251368Y66802D01*
X251368Y77639D01*
X241815Y66802D02*
X237299Y66802D01*
X241815Y66802D02*
X241916Y66804D01*
X242017Y66810D01*
X242118Y66819D01*
X242219Y66832D01*
X242319Y66849D01*
X242418Y66870D01*
X242516Y66894D01*
X242613Y66922D01*
X242710Y66954D01*
X242805Y66989D01*
X242898Y67028D01*
X242990Y67070D01*
X243081Y67116D01*
X243170Y67165D01*
X243256Y67217D01*
X243341Y67273D01*
X243424Y67331D01*
X243504Y67393D01*
X243582Y67458D01*
X243658Y67525D01*
X243731Y67595D01*
X243801Y67668D01*
X243868Y67744D01*
X243933Y67822D01*
X243995Y67902D01*
X244053Y67985D01*
X244109Y68070D01*
X244161Y68156D01*
X244210Y68245D01*
X244256Y68336D01*
X244298Y68428D01*
X244337Y68521D01*
X244372Y68616D01*
X244404Y68713D01*
X244432Y68810D01*
X244456Y68908D01*
X244477Y69007D01*
X244494Y69107D01*
X244507Y69208D01*
X244516Y69309D01*
X244522Y69410D01*
X244524Y69511D01*
X244524Y74027D01*
X244522Y74146D01*
X244516Y74266D01*
X244506Y74385D01*
X244492Y74503D01*
X244475Y74622D01*
X244453Y74739D01*
X244428Y74856D01*
X244398Y74971D01*
X244365Y75086D01*
X244328Y75200D01*
X244288Y75312D01*
X244243Y75423D01*
X244195Y75532D01*
X244144Y75640D01*
X244089Y75746D01*
X244030Y75850D01*
X243968Y75952D01*
X243903Y76052D01*
X243834Y76150D01*
X243762Y76246D01*
X243687Y76339D01*
X243610Y76429D01*
X243529Y76517D01*
X243445Y76602D01*
X243358Y76684D01*
X243269Y76764D01*
X243177Y76840D01*
X243083Y76914D01*
X242986Y76984D01*
X242888Y77051D01*
X242787Y77115D01*
X242683Y77175D01*
X242578Y77232D01*
X242471Y77285D01*
X242363Y77335D01*
X242253Y77381D01*
X242141Y77423D01*
X242028Y77462D01*
X241914Y77497D01*
X241799Y77528D01*
X241682Y77556D01*
X241565Y77579D01*
X241448Y77599D01*
X241329Y77615D01*
X241210Y77627D01*
X241091Y77635D01*
X240972Y77639D01*
X240852Y77639D01*
X240733Y77635D01*
X240614Y77627D01*
X240495Y77615D01*
X240376Y77599D01*
X240259Y77579D01*
X240142Y77556D01*
X240025Y77528D01*
X239910Y77497D01*
X239796Y77462D01*
X239683Y77423D01*
X239571Y77381D01*
X239461Y77335D01*
X239353Y77285D01*
X239246Y77232D01*
X239141Y77175D01*
X239037Y77115D01*
X238936Y77051D01*
X238838Y76984D01*
X238741Y76914D01*
X238647Y76840D01*
X238555Y76764D01*
X238466Y76684D01*
X238379Y76602D01*
X238295Y76517D01*
X238214Y76429D01*
X238137Y76339D01*
X238062Y76246D01*
X237990Y76150D01*
X237921Y76052D01*
X237856Y75952D01*
X237794Y75850D01*
X237735Y75746D01*
X237680Y75640D01*
X237629Y75532D01*
X237581Y75423D01*
X237536Y75312D01*
X237496Y75200D01*
X237459Y75086D01*
X237426Y74971D01*
X237396Y74856D01*
X237371Y74739D01*
X237349Y74622D01*
X237332Y74503D01*
X237318Y74385D01*
X237308Y74266D01*
X237302Y74146D01*
X237300Y74027D01*
X237299Y74027D02*
X237299Y72221D01*
X244524Y72221D01*
X230371Y66802D02*
X230371Y77639D01*
X224953Y77639D01*
X224953Y75833D01*
X371207Y52324D02*
X371209Y52449D01*
X371215Y52574D01*
X371224Y52699D01*
X371238Y52823D01*
X371255Y52947D01*
X371276Y53071D01*
X371301Y53193D01*
X371330Y53315D01*
X371362Y53436D01*
X371398Y53556D01*
X371438Y53675D01*
X371481Y53792D01*
X371528Y53908D01*
X371579Y54023D01*
X371633Y54135D01*
X371691Y54247D01*
X371751Y54356D01*
X371816Y54463D01*
X371883Y54569D01*
X371954Y54672D01*
X372028Y54773D01*
X372105Y54872D01*
X372185Y54968D01*
X372268Y55062D01*
X372353Y55153D01*
X372442Y55242D01*
X372533Y55327D01*
X372627Y55410D01*
X372723Y55490D01*
X372822Y55567D01*
X372923Y55641D01*
X373026Y55712D01*
X373132Y55779D01*
X373239Y55844D01*
X373348Y55904D01*
X373460Y55962D01*
X373572Y56016D01*
X373687Y56067D01*
X373803Y56114D01*
X373920Y56157D01*
X374039Y56197D01*
X374159Y56233D01*
X374280Y56265D01*
X374402Y56294D01*
X374524Y56319D01*
X374648Y56340D01*
X374772Y56357D01*
X374896Y56371D01*
X375021Y56380D01*
X375146Y56386D01*
X375271Y56388D01*
X375414Y56386D01*
X375556Y56380D01*
X375699Y56370D01*
X375841Y56357D01*
X375982Y56339D01*
X376124Y56318D01*
X376264Y56293D01*
X376404Y56264D01*
X376543Y56231D01*
X376681Y56194D01*
X376818Y56154D01*
X376953Y56110D01*
X377088Y56062D01*
X377221Y56010D01*
X377353Y55955D01*
X377483Y55896D01*
X377611Y55834D01*
X377738Y55768D01*
X377863Y55699D01*
X377986Y55627D01*
X378107Y55551D01*
X378225Y55472D01*
X378342Y55389D01*
X378456Y55304D01*
X378568Y55215D01*
X378677Y55124D01*
X378784Y55029D01*
X378889Y54932D01*
X378990Y54831D01*
X379089Y54728D01*
X379185Y54623D01*
X379278Y54514D01*
X379368Y54403D01*
X379455Y54290D01*
X379539Y54175D01*
X379619Y54057D01*
X379697Y53937D01*
X379771Y53815D01*
X379841Y53691D01*
X379909Y53565D01*
X379972Y53437D01*
X380033Y53308D01*
X380090Y53177D01*
X380143Y53045D01*
X380192Y52911D01*
X380238Y52776D01*
X372562Y49163D02*
X372468Y49255D01*
X372378Y49349D01*
X372290Y49446D01*
X372205Y49546D01*
X372123Y49648D01*
X372044Y49753D01*
X371969Y49860D01*
X371897Y49969D01*
X371828Y50080D01*
X371762Y50194D01*
X371700Y50309D01*
X371641Y50426D01*
X371586Y50545D01*
X371535Y50665D01*
X371487Y50787D01*
X371442Y50910D01*
X371402Y51034D01*
X371365Y51160D01*
X371332Y51287D01*
X371303Y51414D01*
X371277Y51543D01*
X371256Y51672D01*
X371238Y51802D01*
X371225Y51932D01*
X371215Y52062D01*
X371209Y52193D01*
X371207Y52324D01*
X372562Y49163D02*
X380238Y40132D01*
X371207Y40132D01*
X364607Y48260D02*
X364603Y48580D01*
X364592Y48899D01*
X364573Y49219D01*
X364546Y49537D01*
X364512Y49855D01*
X364470Y50172D01*
X364420Y50488D01*
X364363Y50803D01*
X364299Y51116D01*
X364227Y51428D01*
X364148Y51738D01*
X364061Y52045D01*
X363967Y52351D01*
X363866Y52654D01*
X363757Y52955D01*
X363642Y53253D01*
X363519Y53549D01*
X363389Y53841D01*
X363252Y54130D01*
X363252Y54131D02*
X363213Y54239D01*
X363170Y54346D01*
X363124Y54451D01*
X363073Y54555D01*
X363020Y54657D01*
X362963Y54757D01*
X362902Y54855D01*
X362838Y54950D01*
X362771Y55044D01*
X362700Y55135D01*
X362627Y55224D01*
X362550Y55310D01*
X362471Y55393D01*
X362389Y55474D01*
X362304Y55552D01*
X362216Y55626D01*
X362126Y55698D01*
X362034Y55766D01*
X361939Y55832D01*
X361842Y55894D01*
X361743Y55952D01*
X361641Y56008D01*
X361539Y56059D01*
X361434Y56107D01*
X361328Y56152D01*
X361220Y56193D01*
X361111Y56230D01*
X361001Y56263D01*
X360889Y56292D01*
X360777Y56318D01*
X360664Y56340D01*
X360550Y56357D01*
X360436Y56371D01*
X360321Y56381D01*
X360206Y56387D01*
X360091Y56389D01*
X360091Y56388D02*
X359976Y56386D01*
X359861Y56380D01*
X359746Y56370D01*
X359632Y56356D01*
X359518Y56339D01*
X359405Y56317D01*
X359293Y56291D01*
X359181Y56262D01*
X359071Y56229D01*
X358962Y56192D01*
X358854Y56151D01*
X358748Y56106D01*
X358644Y56058D01*
X358541Y56007D01*
X358440Y55951D01*
X358340Y55893D01*
X358243Y55831D01*
X358149Y55766D01*
X358056Y55697D01*
X357966Y55625D01*
X357878Y55551D01*
X357793Y55473D01*
X357711Y55392D01*
X357632Y55309D01*
X357555Y55223D01*
X357482Y55134D01*
X357411Y55043D01*
X357344Y54949D01*
X357280Y54854D01*
X357219Y54756D01*
X357162Y54656D01*
X357109Y54554D01*
X357058Y54450D01*
X357012Y54345D01*
X356969Y54238D01*
X356930Y54130D01*
X356931Y54130D02*
X356794Y53841D01*
X356664Y53549D01*
X356541Y53253D01*
X356426Y52955D01*
X356317Y52654D01*
X356216Y52351D01*
X356122Y52045D01*
X356035Y51738D01*
X355956Y51428D01*
X355884Y51116D01*
X355820Y50803D01*
X355763Y50488D01*
X355713Y50172D01*
X355671Y49855D01*
X355637Y49537D01*
X355610Y49219D01*
X355591Y48899D01*
X355580Y48580D01*
X355576Y48260D01*
X364606Y48260D02*
X364602Y47940D01*
X364591Y47621D01*
X364572Y47301D01*
X364545Y46983D01*
X364511Y46665D01*
X364469Y46348D01*
X364419Y46032D01*
X364362Y45717D01*
X364298Y45404D01*
X364226Y45092D01*
X364147Y44782D01*
X364060Y44475D01*
X363966Y44169D01*
X363865Y43866D01*
X363756Y43565D01*
X363641Y43267D01*
X363518Y42971D01*
X363388Y42679D01*
X363251Y42390D01*
X363252Y42390D02*
X363213Y42282D01*
X363170Y42175D01*
X363124Y42070D01*
X363073Y41966D01*
X363020Y41864D01*
X362963Y41764D01*
X362902Y41666D01*
X362838Y41571D01*
X362771Y41477D01*
X362700Y41386D01*
X362627Y41297D01*
X362550Y41211D01*
X362471Y41128D01*
X362389Y41047D01*
X362304Y40969D01*
X362216Y40895D01*
X362126Y40823D01*
X362033Y40754D01*
X361939Y40689D01*
X361842Y40627D01*
X361742Y40569D01*
X361641Y40513D01*
X361539Y40462D01*
X361434Y40414D01*
X361328Y40369D01*
X361220Y40328D01*
X361111Y40291D01*
X361001Y40258D01*
X360889Y40229D01*
X360777Y40203D01*
X360664Y40181D01*
X360550Y40164D01*
X360436Y40150D01*
X360321Y40140D01*
X360206Y40134D01*
X360091Y40132D01*
X356931Y42390D02*
X356794Y42679D01*
X356664Y42971D01*
X356541Y43267D01*
X356426Y43565D01*
X356317Y43866D01*
X356216Y44169D01*
X356122Y44475D01*
X356035Y44782D01*
X355956Y45092D01*
X355884Y45404D01*
X355820Y45717D01*
X355763Y46032D01*
X355713Y46348D01*
X355671Y46665D01*
X355637Y46983D01*
X355610Y47301D01*
X355591Y47621D01*
X355580Y47940D01*
X355576Y48260D01*
X356930Y42390D02*
X356969Y42282D01*
X357012Y42175D01*
X357058Y42070D01*
X357109Y41966D01*
X357162Y41864D01*
X357220Y41764D01*
X357280Y41666D01*
X357344Y41571D01*
X357411Y41477D01*
X357482Y41386D01*
X357555Y41297D01*
X357632Y41211D01*
X357711Y41128D01*
X357793Y41047D01*
X357878Y40969D01*
X357966Y40895D01*
X358056Y40823D01*
X358149Y40754D01*
X358243Y40689D01*
X358340Y40627D01*
X358440Y40569D01*
X358541Y40513D01*
X358644Y40462D01*
X358748Y40414D01*
X358854Y40369D01*
X358962Y40328D01*
X359071Y40291D01*
X359181Y40258D01*
X359293Y40229D01*
X359405Y40203D01*
X359518Y40181D01*
X359632Y40164D01*
X359746Y40150D01*
X359861Y40140D01*
X359976Y40134D01*
X360091Y40132D01*
X363704Y43744D02*
X356479Y52776D01*
X344008Y56388D02*
X343883Y56386D01*
X343758Y56380D01*
X343633Y56371D01*
X343509Y56357D01*
X343385Y56340D01*
X343261Y56319D01*
X343139Y56294D01*
X343017Y56265D01*
X342896Y56233D01*
X342776Y56197D01*
X342657Y56157D01*
X342540Y56114D01*
X342424Y56067D01*
X342309Y56016D01*
X342197Y55962D01*
X342085Y55904D01*
X341976Y55844D01*
X341869Y55779D01*
X341763Y55712D01*
X341660Y55641D01*
X341559Y55567D01*
X341460Y55490D01*
X341364Y55410D01*
X341270Y55327D01*
X341179Y55242D01*
X341090Y55153D01*
X341005Y55062D01*
X340922Y54968D01*
X340842Y54872D01*
X340765Y54773D01*
X340691Y54672D01*
X340620Y54569D01*
X340553Y54463D01*
X340488Y54356D01*
X340428Y54247D01*
X340370Y54135D01*
X340316Y54023D01*
X340265Y53908D01*
X340218Y53792D01*
X340175Y53675D01*
X340135Y53556D01*
X340099Y53436D01*
X340067Y53315D01*
X340038Y53193D01*
X340013Y53071D01*
X339992Y52947D01*
X339975Y52823D01*
X339961Y52699D01*
X339952Y52574D01*
X339946Y52449D01*
X339944Y52324D01*
X344008Y56388D02*
X344151Y56386D01*
X344293Y56380D01*
X344436Y56370D01*
X344578Y56357D01*
X344719Y56339D01*
X344861Y56318D01*
X345001Y56293D01*
X345141Y56264D01*
X345280Y56231D01*
X345418Y56194D01*
X345555Y56154D01*
X345690Y56110D01*
X345825Y56062D01*
X345958Y56010D01*
X346090Y55955D01*
X346220Y55896D01*
X346348Y55834D01*
X346475Y55768D01*
X346600Y55699D01*
X346723Y55627D01*
X346844Y55551D01*
X346962Y55472D01*
X347079Y55389D01*
X347193Y55304D01*
X347305Y55215D01*
X347414Y55124D01*
X347521Y55029D01*
X347626Y54932D01*
X347727Y54831D01*
X347826Y54728D01*
X347922Y54623D01*
X348015Y54514D01*
X348105Y54403D01*
X348192Y54290D01*
X348276Y54175D01*
X348356Y54057D01*
X348434Y53937D01*
X348508Y53815D01*
X348578Y53691D01*
X348646Y53565D01*
X348709Y53437D01*
X348770Y53308D01*
X348827Y53177D01*
X348880Y53045D01*
X348929Y52911D01*
X348975Y52776D01*
X341300Y49163D02*
X341206Y49255D01*
X341116Y49349D01*
X341028Y49446D01*
X340943Y49546D01*
X340861Y49648D01*
X340782Y49753D01*
X340707Y49860D01*
X340635Y49969D01*
X340566Y50080D01*
X340500Y50194D01*
X340438Y50309D01*
X340379Y50426D01*
X340324Y50545D01*
X340273Y50665D01*
X340225Y50787D01*
X340180Y50910D01*
X340140Y51034D01*
X340103Y51160D01*
X340070Y51287D01*
X340041Y51414D01*
X340015Y51543D01*
X339994Y51672D01*
X339976Y51802D01*
X339963Y51932D01*
X339953Y52062D01*
X339947Y52193D01*
X339945Y52324D01*
X341299Y49163D02*
X348976Y40132D01*
X339944Y40132D01*
X333344Y52776D02*
X328829Y56388D01*
X328829Y40132D01*
X333344Y40132D02*
X324313Y40132D01*
X375722Y29718D02*
X375722Y13462D01*
X380238Y29718D02*
X371207Y29718D01*
X365098Y29718D02*
X365098Y13462D01*
X365098Y29718D02*
X357873Y29718D01*
X357873Y22493D02*
X365098Y22493D01*
X352102Y25202D02*
X352102Y17978D01*
X352102Y25202D02*
X352100Y25335D01*
X352094Y25467D01*
X352084Y25599D01*
X352071Y25731D01*
X352053Y25863D01*
X352032Y25993D01*
X352007Y26124D01*
X351978Y26253D01*
X351945Y26381D01*
X351909Y26509D01*
X351869Y26635D01*
X351825Y26760D01*
X351777Y26884D01*
X351726Y27006D01*
X351671Y27127D01*
X351613Y27246D01*
X351551Y27364D01*
X351486Y27479D01*
X351417Y27593D01*
X351346Y27704D01*
X351270Y27813D01*
X351192Y27920D01*
X351111Y28025D01*
X351026Y28127D01*
X350939Y28227D01*
X350849Y28324D01*
X350756Y28419D01*
X350660Y28510D01*
X350562Y28599D01*
X350461Y28685D01*
X350357Y28768D01*
X350251Y28848D01*
X350143Y28924D01*
X350033Y28998D01*
X349920Y29068D01*
X349806Y29135D01*
X349689Y29198D01*
X349571Y29258D01*
X349451Y29315D01*
X349329Y29368D01*
X349206Y29417D01*
X349082Y29463D01*
X348956Y29505D01*
X348829Y29543D01*
X348701Y29578D01*
X348572Y29609D01*
X348443Y29636D01*
X348312Y29659D01*
X348181Y29679D01*
X348049Y29694D01*
X347917Y29706D01*
X347785Y29714D01*
X347652Y29718D01*
X347520Y29718D01*
X347387Y29714D01*
X347255Y29706D01*
X347123Y29694D01*
X346991Y29679D01*
X346860Y29659D01*
X346729Y29636D01*
X346600Y29609D01*
X346471Y29578D01*
X346343Y29543D01*
X346216Y29505D01*
X346090Y29463D01*
X345966Y29417D01*
X345843Y29368D01*
X345721Y29315D01*
X345601Y29258D01*
X345483Y29198D01*
X345366Y29135D01*
X345252Y29068D01*
X345139Y28998D01*
X345029Y28924D01*
X344921Y28848D01*
X344815Y28768D01*
X344711Y28685D01*
X344610Y28599D01*
X344512Y28510D01*
X344416Y28419D01*
X344323Y28324D01*
X344233Y28227D01*
X344146Y28127D01*
X344061Y28025D01*
X343980Y27920D01*
X343902Y27813D01*
X343826Y27704D01*
X343755Y27593D01*
X343686Y27479D01*
X343621Y27364D01*
X343559Y27246D01*
X343501Y27127D01*
X343446Y27006D01*
X343395Y26884D01*
X343347Y26760D01*
X343303Y26635D01*
X343263Y26509D01*
X343227Y26381D01*
X343194Y26253D01*
X343165Y26124D01*
X343140Y25993D01*
X343119Y25863D01*
X343101Y25731D01*
X343088Y25599D01*
X343078Y25467D01*
X343072Y25335D01*
X343070Y25202D01*
X343071Y25202D02*
X343071Y17978D01*
X343070Y17978D02*
X343072Y17845D01*
X343078Y17713D01*
X343088Y17581D01*
X343101Y17449D01*
X343119Y17317D01*
X343140Y17187D01*
X343165Y17056D01*
X343194Y16927D01*
X343227Y16799D01*
X343263Y16671D01*
X343303Y16545D01*
X343347Y16420D01*
X343395Y16296D01*
X343446Y16174D01*
X343501Y16053D01*
X343559Y15934D01*
X343621Y15816D01*
X343686Y15701D01*
X343755Y15587D01*
X343826Y15476D01*
X343902Y15367D01*
X343980Y15260D01*
X344061Y15155D01*
X344146Y15053D01*
X344233Y14953D01*
X344323Y14856D01*
X344416Y14761D01*
X344512Y14670D01*
X344610Y14581D01*
X344711Y14495D01*
X344815Y14412D01*
X344921Y14332D01*
X345029Y14256D01*
X345139Y14182D01*
X345252Y14112D01*
X345366Y14045D01*
X345483Y13982D01*
X345601Y13922D01*
X345721Y13865D01*
X345843Y13812D01*
X345966Y13763D01*
X346090Y13717D01*
X346216Y13675D01*
X346343Y13637D01*
X346471Y13602D01*
X346600Y13571D01*
X346729Y13544D01*
X346860Y13521D01*
X346991Y13501D01*
X347123Y13486D01*
X347255Y13474D01*
X347387Y13466D01*
X347520Y13462D01*
X347652Y13462D01*
X347785Y13466D01*
X347917Y13474D01*
X348049Y13486D01*
X348181Y13501D01*
X348312Y13521D01*
X348443Y13544D01*
X348572Y13571D01*
X348701Y13602D01*
X348829Y13637D01*
X348956Y13675D01*
X349082Y13717D01*
X349206Y13763D01*
X349329Y13812D01*
X349451Y13865D01*
X349571Y13922D01*
X349689Y13982D01*
X349806Y14045D01*
X349920Y14112D01*
X350033Y14182D01*
X350143Y14256D01*
X350251Y14332D01*
X350357Y14412D01*
X350461Y14495D01*
X350562Y14581D01*
X350660Y14670D01*
X350756Y14761D01*
X350849Y14856D01*
X350939Y14953D01*
X351026Y15053D01*
X351111Y15155D01*
X351192Y15260D01*
X351270Y15367D01*
X351346Y15476D01*
X351417Y15587D01*
X351486Y15701D01*
X351551Y15816D01*
X351613Y15934D01*
X351671Y16053D01*
X351726Y16174D01*
X351777Y16296D01*
X351825Y16420D01*
X351869Y16545D01*
X351909Y16671D01*
X351945Y16799D01*
X351978Y16927D01*
X352007Y17056D01*
X352032Y17187D01*
X352053Y17317D01*
X352071Y17449D01*
X352084Y17581D01*
X352094Y17713D01*
X352100Y17845D01*
X352102Y17978D01*
X336332Y19784D02*
X325494Y19784D01*
X318095Y13462D02*
X318095Y29718D01*
X312677Y20687D01*
X307258Y29718D01*
X307258Y13462D01*
X297427Y13462D02*
X292912Y13462D01*
X297427Y13462D02*
X297528Y13464D01*
X297629Y13470D01*
X297730Y13479D01*
X297831Y13492D01*
X297931Y13509D01*
X298030Y13530D01*
X298128Y13554D01*
X298225Y13582D01*
X298322Y13614D01*
X298417Y13649D01*
X298510Y13688D01*
X298602Y13730D01*
X298693Y13776D01*
X298782Y13825D01*
X298868Y13877D01*
X298953Y13933D01*
X299036Y13991D01*
X299116Y14053D01*
X299194Y14118D01*
X299270Y14185D01*
X299343Y14255D01*
X299413Y14328D01*
X299480Y14404D01*
X299545Y14482D01*
X299607Y14562D01*
X299665Y14645D01*
X299721Y14730D01*
X299773Y14816D01*
X299822Y14905D01*
X299868Y14996D01*
X299910Y15088D01*
X299949Y15181D01*
X299984Y15276D01*
X300016Y15373D01*
X300044Y15470D01*
X300068Y15568D01*
X300089Y15667D01*
X300106Y15767D01*
X300119Y15868D01*
X300128Y15969D01*
X300134Y16070D01*
X300136Y16171D01*
X300137Y16171D02*
X300137Y20687D01*
X300136Y20687D02*
X300134Y20806D01*
X300128Y20926D01*
X300118Y21045D01*
X300104Y21163D01*
X300087Y21282D01*
X300065Y21399D01*
X300040Y21516D01*
X300010Y21631D01*
X299977Y21746D01*
X299940Y21860D01*
X299900Y21972D01*
X299855Y22083D01*
X299807Y22192D01*
X299756Y22300D01*
X299701Y22406D01*
X299642Y22510D01*
X299580Y22612D01*
X299515Y22712D01*
X299446Y22810D01*
X299374Y22906D01*
X299299Y22999D01*
X299222Y23089D01*
X299141Y23177D01*
X299057Y23262D01*
X298970Y23344D01*
X298881Y23424D01*
X298789Y23500D01*
X298695Y23574D01*
X298598Y23644D01*
X298500Y23711D01*
X298399Y23775D01*
X298295Y23835D01*
X298190Y23892D01*
X298083Y23945D01*
X297975Y23995D01*
X297865Y24041D01*
X297753Y24083D01*
X297640Y24122D01*
X297526Y24157D01*
X297411Y24188D01*
X297294Y24216D01*
X297177Y24239D01*
X297060Y24259D01*
X296941Y24275D01*
X296822Y24287D01*
X296703Y24295D01*
X296584Y24299D01*
X296464Y24299D01*
X296345Y24295D01*
X296226Y24287D01*
X296107Y24275D01*
X295988Y24259D01*
X295871Y24239D01*
X295754Y24216D01*
X295637Y24188D01*
X295522Y24157D01*
X295408Y24122D01*
X295295Y24083D01*
X295183Y24041D01*
X295073Y23995D01*
X294965Y23945D01*
X294858Y23892D01*
X294753Y23835D01*
X294649Y23775D01*
X294548Y23711D01*
X294450Y23644D01*
X294353Y23574D01*
X294259Y23500D01*
X294167Y23424D01*
X294078Y23344D01*
X293991Y23262D01*
X293907Y23177D01*
X293826Y23089D01*
X293749Y22999D01*
X293674Y22906D01*
X293602Y22810D01*
X293533Y22712D01*
X293468Y22612D01*
X293406Y22510D01*
X293347Y22406D01*
X293292Y22300D01*
X293241Y22192D01*
X293193Y22083D01*
X293148Y21972D01*
X293108Y21860D01*
X293071Y21746D01*
X293038Y21631D01*
X293008Y21516D01*
X292983Y21399D01*
X292961Y21282D01*
X292944Y21163D01*
X292930Y21045D01*
X292920Y20926D01*
X292914Y20806D01*
X292912Y20687D01*
X292912Y18881D01*
X300137Y18881D01*
X285984Y13462D02*
X285984Y24299D01*
X280565Y24299D01*
X280565Y22493D01*
X272560Y19784D02*
X268496Y19784D01*
X272560Y19784D02*
X272672Y19782D01*
X272783Y19776D01*
X272894Y19766D01*
X273005Y19753D01*
X273115Y19735D01*
X273224Y19713D01*
X273333Y19688D01*
X273441Y19659D01*
X273547Y19626D01*
X273653Y19589D01*
X273757Y19549D01*
X273859Y19505D01*
X273960Y19457D01*
X274059Y19406D01*
X274157Y19351D01*
X274252Y19293D01*
X274345Y19232D01*
X274436Y19167D01*
X274525Y19099D01*
X274611Y19028D01*
X274694Y18955D01*
X274775Y18878D01*
X274854Y18798D01*
X274929Y18716D01*
X275001Y18631D01*
X275071Y18544D01*
X275137Y18454D01*
X275200Y18362D01*
X275260Y18267D01*
X275316Y18171D01*
X275369Y18073D01*
X275418Y17973D01*
X275464Y17871D01*
X275506Y17768D01*
X275545Y17663D01*
X275580Y17557D01*
X275611Y17450D01*
X275638Y17342D01*
X275662Y17233D01*
X275681Y17123D01*
X275697Y17013D01*
X275709Y16902D01*
X275717Y16790D01*
X275721Y16679D01*
X275721Y16567D01*
X275717Y16456D01*
X275709Y16344D01*
X275697Y16233D01*
X275681Y16123D01*
X275662Y16013D01*
X275638Y15904D01*
X275611Y15796D01*
X275580Y15689D01*
X275545Y15583D01*
X275506Y15478D01*
X275464Y15375D01*
X275418Y15273D01*
X275369Y15173D01*
X275316Y15075D01*
X275260Y14979D01*
X275200Y14884D01*
X275137Y14792D01*
X275071Y14702D01*
X275001Y14615D01*
X274929Y14530D01*
X274854Y14448D01*
X274775Y14368D01*
X274694Y14291D01*
X274611Y14218D01*
X274525Y14147D01*
X274436Y14079D01*
X274345Y14014D01*
X274252Y13953D01*
X274157Y13895D01*
X274059Y13840D01*
X273960Y13789D01*
X273859Y13741D01*
X273757Y13697D01*
X273653Y13657D01*
X273547Y13620D01*
X273441Y13587D01*
X273333Y13558D01*
X273224Y13533D01*
X273115Y13511D01*
X273005Y13493D01*
X272894Y13480D01*
X272783Y13470D01*
X272672Y13464D01*
X272560Y13462D01*
X268496Y13462D01*
X268496Y21590D01*
X268498Y21691D01*
X268504Y21792D01*
X268513Y21893D01*
X268526Y21994D01*
X268543Y22094D01*
X268564Y22193D01*
X268588Y22291D01*
X268616Y22388D01*
X268648Y22485D01*
X268683Y22580D01*
X268722Y22673D01*
X268764Y22765D01*
X268810Y22856D01*
X268859Y22945D01*
X268911Y23031D01*
X268967Y23116D01*
X269025Y23199D01*
X269087Y23279D01*
X269152Y23357D01*
X269219Y23433D01*
X269289Y23506D01*
X269362Y23576D01*
X269438Y23643D01*
X269516Y23708D01*
X269596Y23770D01*
X269679Y23828D01*
X269764Y23884D01*
X269851Y23936D01*
X269939Y23985D01*
X270030Y24031D01*
X270122Y24073D01*
X270215Y24112D01*
X270310Y24147D01*
X270407Y24179D01*
X270504Y24207D01*
X270602Y24231D01*
X270701Y24252D01*
X270801Y24269D01*
X270902Y24282D01*
X271003Y24291D01*
X271104Y24297D01*
X271205Y24299D01*
X271206Y24299D02*
X274818Y24299D01*
X261059Y24299D02*
X261059Y13462D01*
X261059Y24299D02*
X256543Y24299D01*
X256439Y24297D01*
X256336Y24291D01*
X256232Y24281D01*
X256129Y24267D01*
X256027Y24249D01*
X255926Y24228D01*
X255825Y24202D01*
X255726Y24173D01*
X255627Y24140D01*
X255530Y24103D01*
X255435Y24062D01*
X255341Y24018D01*
X255249Y23970D01*
X255159Y23919D01*
X255070Y23864D01*
X254984Y23806D01*
X254901Y23744D01*
X254819Y23680D01*
X254741Y23612D01*
X254665Y23542D01*
X254591Y23469D01*
X254521Y23392D01*
X254453Y23314D01*
X254389Y23232D01*
X254327Y23149D01*
X254269Y23063D01*
X254214Y22974D01*
X254163Y22884D01*
X254115Y22792D01*
X254071Y22698D01*
X254030Y22603D01*
X253993Y22506D01*
X253960Y22407D01*
X253931Y22308D01*
X253905Y22207D01*
X253884Y22106D01*
X253866Y22004D01*
X253852Y21901D01*
X253842Y21797D01*
X253836Y21694D01*
X253834Y21590D01*
X253834Y13462D01*
D12*
X325713Y167447D03*
D13*
X326404Y167585D03*
D14*
X326956Y167723D03*
D15*
X329095Y167861D03*
D16*
X329510Y167999D03*
D17*
X334617Y168137D03*
D18*
X321434Y168137D03*
D19*
X335929Y168275D03*
D20*
X320675Y168275D03*
D21*
X338897Y168413D03*
D22*
X319985Y168413D03*
D23*
X339725Y168551D03*
D24*
X319294Y168551D03*
D25*
X340139Y168689D03*
D26*
X318673Y168689D03*
D27*
X340415Y168827D03*
D28*
X318121Y168827D03*
D29*
X340898Y168965D03*
D30*
X317638Y168965D03*
D31*
X341105Y169103D03*
D21*
X317086Y169103D03*
D32*
X341312Y169241D03*
D33*
X316465Y169241D03*
D34*
X341519Y169379D03*
D35*
X315843Y169379D03*
D36*
X341588Y169517D03*
D37*
X315291Y169517D03*
D32*
X341726Y169655D03*
D38*
X314670Y169655D03*
D39*
X341864Y169793D03*
D40*
X314049Y169793D03*
D41*
X341934Y169931D03*
D42*
X313359Y169931D03*
D32*
X342003Y170069D03*
D38*
X312737Y170069D03*
D43*
X342141Y170208D03*
D22*
X312116Y170208D03*
D36*
X342279Y170346D03*
D37*
X311426Y170346D03*
D31*
X342348Y170484D03*
D44*
X310805Y170484D03*
D32*
X342417Y170622D03*
D24*
X310184Y170622D03*
D39*
X342555Y170760D03*
D35*
X309631Y170760D03*
D36*
X342693Y170898D03*
D24*
X309079Y170898D03*
D36*
X342693Y171036D03*
D45*
X308527Y171036D03*
D43*
X342831Y171174D03*
D26*
X307906Y171174D03*
D46*
X342900Y171312D03*
D45*
X307285Y171312D03*
D36*
X342969Y171450D03*
D12*
X306663Y171450D03*
D34*
X343038Y171588D03*
D22*
X306042Y171588D03*
D47*
X343176Y171726D03*
D48*
X305421Y171726D03*
D49*
X343176Y171864D03*
X324126Y171864D03*
D50*
X304731Y171864D03*
D46*
X343314Y172002D03*
D51*
X324126Y172002D03*
D52*
X304041Y172002D03*
D36*
X343383Y172140D03*
D37*
X324126Y172140D03*
D52*
X303350Y172140D03*
D43*
X343521Y172278D03*
D53*
X324333Y172278D03*
D50*
X302660Y172278D03*
D41*
X343590Y172416D03*
D23*
X341934Y172416D03*
D54*
X324540Y172416D03*
D42*
X302039Y172416D03*
D55*
X342279Y172554D03*
D56*
X326266Y172554D03*
D21*
X322469Y172554D03*
D22*
X301349Y172554D03*
D57*
X342072Y172692D03*
D41*
X329234Y172692D03*
D52*
X326818Y172692D03*
D58*
X321986Y172692D03*
D12*
X300728Y172692D03*
D59*
X342072Y172830D03*
D60*
X327784Y172830D03*
D61*
X321572Y172830D03*
D24*
X300106Y172830D03*
D62*
X341934Y172968D03*
D63*
X328405Y172968D03*
D64*
X321227Y172968D03*
D35*
X299416Y172968D03*
D65*
X343590Y173106D03*
D66*
X340208Y173106D03*
D30*
X329372Y173106D03*
D65*
X320813Y173106D03*
D24*
X298864Y173106D03*
D67*
X343866Y173244D03*
D66*
X339932Y173244D03*
D68*
X329786Y173244D03*
D27*
X320537Y173244D03*
D33*
X298381Y173244D03*
D69*
X344073Y173383D03*
D70*
X339656Y173383D03*
D64*
X330338Y173383D03*
D71*
X320192Y173383D03*
D26*
X297829Y173383D03*
D41*
X344142Y173521D03*
D66*
X339380Y173521D03*
D65*
X330752Y173521D03*
D72*
X329786Y173521D03*
D29*
X320054Y173521D03*
D30*
X297345Y173521D03*
D31*
X344142Y173659D03*
D73*
X339173Y173659D03*
D25*
X331028Y173659D03*
D74*
X319847Y173659D03*
D21*
X296793Y173659D03*
D46*
X344142Y173797D03*
D27*
X338897Y173797D03*
D75*
X331235Y173797D03*
D76*
X319570Y173797D03*
D28*
X296310Y173797D03*
D39*
X344211Y173935D03*
D70*
X338690Y173935D03*
X331511Y173935D03*
D77*
X319432Y173935D03*
D78*
X295758Y173935D03*
D46*
X344280Y174073D03*
D27*
X338482Y174073D03*
D75*
X331787Y174073D03*
D76*
X319294Y174073D03*
D79*
X295275Y174073D03*
D36*
X344349Y174211D03*
D27*
X338206Y174211D03*
D66*
X332063Y174211D03*
D67*
X319018Y174211D03*
D68*
X294861Y174211D03*
D39*
X344349Y174349D03*
D70*
X337999Y174349D03*
X332340Y174349D03*
D77*
X318880Y174349D03*
D80*
X294447Y174349D03*
D46*
X344418Y174487D03*
D81*
X337654Y174487D03*
X332547Y174487D03*
D82*
X318673Y174487D03*
D79*
X293894Y174487D03*
D32*
X344487Y174625D03*
D83*
X337309Y174625D03*
D23*
X332961Y174625D03*
D82*
X318535Y174625D03*
D79*
X293480Y174625D03*
D49*
X344556Y174763D03*
D84*
X336688Y174763D03*
X333513Y174763D03*
D77*
X318328Y174763D03*
D78*
X292997Y174763D03*
D32*
X344625Y174901D03*
D85*
X335100Y174901D03*
D82*
X318121Y174901D03*
D30*
X292514Y174901D03*
D34*
X344694Y175039D03*
D53*
X335100Y175039D03*
D69*
X317983Y175039D03*
D21*
X291962Y175039D03*
D36*
X344763Y175177D03*
D52*
X335100Y175177D03*
D82*
X317845Y175177D03*
D45*
X291410Y175177D03*
D46*
X344832Y175315D03*
D28*
X335100Y175315D03*
D82*
X317707Y175315D03*
D86*
X290926Y175315D03*
D43*
X344901Y175453D03*
D87*
X317569Y175453D03*
D44*
X290374Y175453D03*
D46*
X344970Y175591D03*
D82*
X317293Y175591D03*
D12*
X289822Y175591D03*
D39*
X345039Y175729D03*
D69*
X317155Y175729D03*
D88*
X289270Y175729D03*
D46*
X345109Y175867D03*
D82*
X317017Y175867D03*
D36*
X315774Y175867D03*
D30*
X288787Y175867D03*
D32*
X345178Y176005D03*
D28*
X316050Y176005D03*
D89*
X288304Y176005D03*
D43*
X345178Y176143D03*
D21*
X315705Y176143D03*
D90*
X287820Y176143D03*
D47*
X345247Y176281D03*
D33*
X315498Y176281D03*
D51*
X287406Y176281D03*
D32*
X345316Y176419D03*
D37*
X315291Y176419D03*
D61*
X287061Y176419D03*
D34*
X345385Y176558D03*
D43*
X316603Y176558D03*
D90*
X314463Y176558D03*
D91*
X286716Y176558D03*
D46*
X345385Y176696D03*
D41*
X316534Y176696D03*
D58*
X314256Y176696D03*
D23*
X286440Y176696D03*
D39*
X345454Y176834D03*
X316464Y176834D03*
D90*
X313911Y176834D03*
D92*
X286095Y176834D03*
D46*
X345523Y176972D03*
D41*
X316395Y176972D03*
D51*
X313635Y176972D03*
D93*
X285543Y176972D03*
D43*
X345592Y177110D03*
D77*
X316119Y177110D03*
D94*
X313289Y177110D03*
D90*
X285198Y177110D03*
D46*
X345661Y177248D03*
D67*
X315981Y177248D03*
D93*
X313013Y177248D03*
D61*
X284991Y177248D03*
D46*
X345661Y177386D03*
D67*
X315843Y177386D03*
D61*
X312737Y177386D03*
D23*
X284784Y177386D03*
D39*
X345730Y177524D03*
D71*
X315774Y177524D03*
D95*
X312461Y177524D03*
D64*
X284507Y177524D03*
D46*
X345799Y177662D03*
D76*
X315705Y177662D03*
D23*
X312254Y177662D03*
D83*
X284300Y177662D03*
D46*
X345799Y177800D03*
D29*
X315636Y177800D03*
D23*
X311978Y177800D03*
D27*
X283955Y177800D03*
D39*
X345868Y177938D03*
D77*
X315567Y177938D03*
D64*
X311702Y177938D03*
D73*
X283817Y177938D03*
D46*
X345937Y178076D03*
D67*
X315429Y178076D03*
D83*
X311495Y178076D03*
D96*
X283610Y178076D03*
D34*
X345937Y178214D03*
D74*
X315429Y178214D03*
D97*
X311288Y178214D03*
D71*
X283472Y178214D03*
D32*
X346006Y178352D03*
D82*
X315360Y178352D03*
D98*
X311081Y178352D03*
D76*
X283403Y178352D03*
D46*
X346075Y178490D03*
D82*
X315222Y178490D03*
D29*
X311081Y178490D03*
D99*
X310253Y178490D03*
D76*
X283265Y178490D03*
D34*
X346075Y178628D03*
D69*
X315222Y178628D03*
D100*
X310874Y178628D03*
D77*
X283127Y178628D03*
D36*
X346144Y178766D03*
D41*
X315153Y178766D03*
D27*
X310736Y178766D03*
D82*
X283058Y178766D03*
D34*
X346213Y178904D03*
D31*
X315153Y178904D03*
D73*
X310460Y178904D03*
D31*
X282851Y178904D03*
D46*
X346213Y179042D03*
D41*
X315153Y179042D03*
D27*
X310322Y179042D03*
D82*
X282782Y179042D03*
D46*
X346213Y179180D03*
X315015Y179180D03*
D27*
X310184Y179180D03*
D41*
X282713Y179180D03*
D43*
X346282Y179318D03*
X314946Y179318D03*
D71*
X309976Y179318D03*
D31*
X282575Y179318D03*
D47*
X346351Y179456D03*
D32*
X314946Y179456D03*
D29*
X309838Y179456D03*
D41*
X282575Y179456D03*
D47*
X346351Y179594D03*
D32*
X314946Y179594D03*
D76*
X309769Y179594D03*
D32*
X282506Y179594D03*
D49*
X346351Y179733D03*
D43*
X314946Y179733D03*
D74*
X309631Y179733D03*
D31*
X282437Y179733D03*
D47*
X346351Y179871D03*
D46*
X314877Y179871D03*
D67*
X309493Y179871D03*
D36*
X282368Y179871D03*
D43*
X346420Y180009D03*
D39*
X314808Y180009D03*
D69*
X309424Y180009D03*
D101*
X282299Y180009D03*
D46*
X346489Y180147D03*
D36*
X314808Y180147D03*
D82*
X309286Y180147D03*
D41*
X282161Y180147D03*
D34*
X346489Y180285D03*
D39*
X314808Y180285D03*
D31*
X309217Y180285D03*
X282161Y180285D03*
D46*
X346489Y180423D03*
D36*
X314808Y180423D03*
D41*
X309079Y180423D03*
X282023Y180423D03*
D46*
X346489Y180561D03*
D36*
X314808Y180561D03*
D41*
X309079Y180561D03*
X282023Y180561D03*
D34*
X346489Y180699D03*
X339449Y180699D03*
D39*
X314808Y180699D03*
D31*
X308941Y180699D03*
D87*
X281954Y180699D03*
D36*
X346558Y180837D03*
D67*
X339311Y180837D03*
D36*
X314808Y180837D03*
D32*
X308872Y180837D03*
D102*
X281954Y180837D03*
D36*
X346558Y180975D03*
D66*
X339380Y180975D03*
D36*
X314808Y180975D03*
X308734Y180975D03*
D41*
X281885Y180975D03*
D34*
X346627Y181113D03*
D92*
X339380Y181113D03*
D39*
X314808Y181113D03*
D34*
X308665Y181113D03*
D69*
X281816Y181113D03*
D46*
X346627Y181251D03*
D93*
X339380Y181251D03*
D36*
X314808Y181251D03*
D103*
X308596Y181251D03*
D82*
X281816Y181251D03*
D34*
X346627Y181389D03*
D104*
X339518Y181389D03*
D39*
X314808Y181389D03*
D105*
X308458Y181389D03*
D69*
X281678Y181389D03*
D46*
X346627Y181527D03*
D28*
X339518Y181527D03*
D106*
X327163Y181527D03*
D36*
X314808Y181527D03*
D82*
X281678Y181527D03*
D46*
X346627Y181665D03*
D107*
X339518Y181665D03*
D68*
X327439Y181665D03*
D36*
X314808Y181665D03*
D82*
X281678Y181665D03*
D34*
X346627Y181803D03*
D108*
X339725Y181803D03*
D109*
X327508Y181803D03*
D39*
X314808Y181803D03*
D49*
X281747Y181803D03*
D105*
X281263Y181803D03*
D46*
X346627Y181941D03*
D37*
X339863Y181941D03*
D110*
X327439Y181941D03*
D46*
X314877Y181941D03*
D82*
X281539Y181941D03*
D34*
X346627Y182079D03*
D55*
X339932Y182079D03*
D111*
X327163Y182079D03*
D43*
X314946Y182079D03*
D69*
X281539Y182079D03*
D46*
X346627Y182217D03*
D52*
X340070Y182217D03*
D112*
X327025Y182217D03*
D46*
X314877Y182217D03*
D82*
X281539Y182217D03*
D46*
X346627Y182355D03*
D110*
X340139Y182355D03*
D60*
X326818Y182355D03*
D32*
X314946Y182355D03*
D76*
X281470Y182355D03*
D34*
X346627Y182493D03*
D111*
X340277Y182493D03*
D62*
X326749Y182493D03*
D43*
X314946Y182493D03*
D69*
X281401Y182493D03*
D46*
X346627Y182631D03*
D113*
X340346Y182631D03*
D114*
X326680Y182631D03*
D32*
X314946Y182631D03*
D82*
X281401Y182631D03*
D46*
X346627Y182769D03*
D112*
X340415Y182769D03*
D115*
X326542Y182769D03*
D32*
X314946Y182769D03*
D82*
X281401Y182769D03*
D34*
X346627Y182908D03*
D53*
X340484Y182908D03*
D116*
X326473Y182908D03*
D43*
X314946Y182908D03*
D31*
X281470Y182908D03*
D46*
X346627Y183046D03*
D117*
X340553Y183046D03*
D118*
X326404Y183046D03*
D32*
X314946Y183046D03*
D41*
X281470Y183046D03*
D106*
X280918Y183046D03*
D34*
X346627Y183184D03*
D62*
X340553Y183184D03*
D119*
X326266Y183184D03*
D43*
X314946Y183184D03*
D31*
X281470Y183184D03*
D46*
X346627Y183322D03*
D114*
X340622Y183322D03*
D120*
X326197Y183322D03*
D32*
X314946Y183322D03*
D41*
X281470Y183322D03*
D34*
X346627Y183460D03*
D116*
X340691Y183460D03*
D121*
X326059Y183460D03*
D43*
X314946Y183460D03*
X281401Y183460D03*
D46*
X346627Y183598D03*
D122*
X340691Y183598D03*
D123*
X326059Y183598D03*
D32*
X314946Y183598D03*
D41*
X281332Y183598D03*
D46*
X346627Y183736D03*
D85*
X340760Y183736D03*
D120*
X325920Y183736D03*
D46*
X315015Y183736D03*
D41*
X281332Y183736D03*
D34*
X346627Y183874D03*
D121*
X340829Y183874D03*
D124*
X325851Y183874D03*
D39*
X315084Y183874D03*
D31*
X281332Y183874D03*
D46*
X346627Y184012D03*
D125*
X340898Y184012D03*
D126*
X325782Y184012D03*
D36*
X315084Y184012D03*
D41*
X281332Y184012D03*
D46*
X346627Y184150D03*
D125*
X340898Y184150D03*
D126*
X325644Y184150D03*
D36*
X315084Y184150D03*
X281263Y184150D03*
D34*
X346627Y184288D03*
D127*
X340967Y184288D03*
D128*
X325506Y184288D03*
D39*
X315084Y184288D03*
X281263Y184288D03*
D46*
X346627Y184426D03*
D129*
X341036Y184426D03*
D130*
X325368Y184426D03*
D36*
X315084Y184426D03*
X281263Y184426D03*
D34*
X346627Y184564D03*
D131*
X341036Y184564D03*
D132*
X325299Y184564D03*
D34*
X315153Y184564D03*
D39*
X281263Y184564D03*
D46*
X346627Y184702D03*
D130*
X341105Y184702D03*
D133*
X325161Y184702D03*
D32*
X315222Y184702D03*
D36*
X281263Y184702D03*
D46*
X346627Y184840D03*
D130*
X341105Y184840D03*
D134*
X325023Y184840D03*
D32*
X315222Y184840D03*
D36*
X281263Y184840D03*
D34*
X346627Y184978D03*
D132*
X341174Y184978D03*
D135*
X324885Y184978D03*
D43*
X315222Y184978D03*
D39*
X281263Y184978D03*
D46*
X346627Y185116D03*
D136*
X341243Y185116D03*
D137*
X324816Y185116D03*
D32*
X315222Y185116D03*
D41*
X281194Y185116D03*
D34*
X346627Y185254D03*
D138*
X341243Y185254D03*
D139*
X324678Y185254D03*
D49*
X315291Y185254D03*
D31*
X281194Y185254D03*
D46*
X346627Y185392D03*
D140*
X341312Y185392D03*
D141*
X324471Y185392D03*
D32*
X315360Y185392D03*
D41*
X281194Y185392D03*
D46*
X346627Y185530D03*
D137*
X341381Y185530D03*
D142*
X324402Y185530D03*
D32*
X315360Y185530D03*
D41*
X281194Y185530D03*
D34*
X346627Y185668D03*
D139*
X341381Y185668D03*
D143*
X324195Y185668D03*
D43*
X315360Y185668D03*
D31*
X281194Y185668D03*
D46*
X346627Y185806D03*
D141*
X341450Y185806D03*
D144*
X324126Y185806D03*
D36*
X315498Y185806D03*
D41*
X281194Y185806D03*
D46*
X346627Y185944D03*
D141*
X341450Y185944D03*
D145*
X323919Y185944D03*
D36*
X315498Y185944D03*
D41*
X281194Y185944D03*
D34*
X346627Y186083D03*
D146*
X341519Y186083D03*
D147*
X323781Y186083D03*
D39*
X315498Y186083D03*
D31*
X281194Y186083D03*
D46*
X346627Y186221D03*
D148*
X341519Y186221D03*
D145*
X323643Y186221D03*
D36*
X315636Y186221D03*
D41*
X281194Y186221D03*
D34*
X346627Y186359D03*
D143*
X341588Y186359D03*
D149*
X323505Y186359D03*
D39*
X315636Y186359D03*
D31*
X281194Y186359D03*
D46*
X346627Y186497D03*
D142*
X341657Y186497D03*
D150*
X323367Y186497D03*
D36*
X315774Y186497D03*
D41*
X281194Y186497D03*
D39*
X346558Y186635D03*
D151*
X341657Y186635D03*
D152*
X323298Y186635D03*
D39*
X315774Y186635D03*
D31*
X281056Y186635D03*
D36*
X346558Y186773D03*
D153*
X341726Y186773D03*
D154*
X323229Y186773D03*
D41*
X315843Y186773D03*
X281056Y186773D03*
D36*
X346558Y186911D03*
D153*
X341726Y186911D03*
D154*
X323091Y186911D03*
D32*
X315912Y186911D03*
D41*
X281056Y186911D03*
D34*
X346489Y187049D03*
D151*
X341795Y187049D03*
X323022Y187049D03*
D31*
X315981Y187049D03*
X281056Y187049D03*
D46*
X346489Y187187D03*
D142*
X341795Y187187D03*
D140*
X322953Y187187D03*
D32*
X316050Y187187D03*
D41*
X281056Y187187D03*
D46*
X346489Y187325D03*
D142*
X341795Y187325D03*
D136*
X322884Y187325D03*
D41*
X316119Y187325D03*
X281056Y187325D03*
D34*
X346489Y187463D03*
D155*
X341865Y187463D03*
D128*
X322884Y187463D03*
D39*
X316188Y187463D03*
D31*
X281056Y187463D03*
D46*
X346489Y187601D03*
D141*
X341865Y187601D03*
D126*
X322745Y187601D03*
D32*
X316326Y187601D03*
D41*
X281056Y187601D03*
D43*
X346420Y187739D03*
D156*
X341934Y187739D03*
D157*
X322745Y187739D03*
D31*
X316395Y187739D03*
X281056Y187739D03*
D32*
X346420Y187877D03*
D140*
X342003Y187877D03*
D122*
X322745Y187877D03*
D36*
X316464Y187877D03*
D41*
X281056Y187877D03*
D47*
X346351Y188015D03*
D140*
X342003Y188015D03*
D117*
X322745Y188015D03*
D32*
X316603Y188015D03*
D41*
X280918Y188015D03*
D49*
X346351Y188153D03*
D138*
X342072Y188153D03*
D111*
X322745Y188153D03*
D31*
X316672Y188153D03*
X280918Y188153D03*
D47*
X346351Y188291D03*
D133*
X342141Y188291D03*
D42*
X322884Y188291D03*
D41*
X316810Y188291D03*
X280918Y188291D03*
D49*
X346351Y188429D03*
D128*
X342210Y188429D03*
D21*
X323022Y188429D03*
D31*
X316948Y188429D03*
X280918Y188429D03*
D47*
X346351Y188567D03*
D130*
X342210Y188567D03*
D23*
X323298Y188567D03*
D41*
X317086Y188567D03*
X280918Y188567D03*
D32*
X346282Y188705D03*
D129*
X342279Y188705D03*
D99*
X324057Y188705D03*
D158*
X317224Y188705D03*
D41*
X280918Y188705D03*
D34*
X346213Y188843D03*
D127*
X342348Y188843D03*
D39*
X317293Y188843D03*
X280849Y188843D03*
D46*
X346213Y188981D03*
D123*
X342348Y188981D03*
D32*
X317431Y188981D03*
D36*
X280849Y188981D03*
X346144Y189119D03*
D85*
X342417Y189119D03*
D41*
X317500Y189119D03*
D36*
X280849Y189119D03*
D39*
X346144Y189258D03*
D116*
X342486Y189258D03*
D31*
X317638Y189258D03*
X280780Y189258D03*
D41*
X346075Y189396D03*
D114*
X342555Y189396D03*
D41*
X317776Y189396D03*
X280780Y189396D03*
D43*
X346006Y189534D03*
D53*
X342555Y189534D03*
D31*
X317914Y189534D03*
D39*
X280711Y189534D03*
D41*
X345937Y189672D03*
D60*
X342555Y189672D03*
D41*
X318052Y189672D03*
D36*
X280711Y189672D03*
D34*
X345799Y189810D03*
D159*
X342624Y189810D03*
D87*
X318259Y189810D03*
D39*
X280711Y189810D03*
D46*
X345799Y189948D03*
D160*
X342624Y189948D03*
D82*
X318397Y189948D03*
D41*
X280642Y189948D03*
D36*
X345730Y190086D03*
D18*
X342693Y190086D03*
D82*
X318535Y190086D03*
D36*
X280573Y190086D03*
D34*
X345661Y190224D03*
D50*
X342693Y190224D03*
D69*
X318811Y190224D03*
D39*
X280573Y190224D03*
D32*
X345592Y190362D03*
D20*
X342762Y190362D03*
D82*
X318949Y190362D03*
D36*
X280573Y190362D03*
D46*
X345523Y190500D03*
D12*
X342831Y190500D03*
D67*
X319156Y190500D03*
D36*
X280573Y190500D03*
D39*
X345454Y190638D03*
D108*
X342900Y190638D03*
D70*
X333996Y190638D03*
D77*
X319432Y190638D03*
D39*
X280573Y190638D03*
D46*
X345385Y190776D03*
D28*
X342969Y190776D03*
X333996Y190776D03*
D29*
X319640Y190776D03*
D41*
X280504Y190776D03*
D43*
X345316Y190914D03*
D92*
X343107Y190914D03*
D22*
X333927Y190914D03*
D71*
X319916Y190914D03*
D31*
X280504Y190914D03*
D47*
X345247Y191052D03*
D81*
X335031Y191052D03*
D65*
X332823Y191052D03*
D27*
X320261Y191052D03*
D41*
X280504Y191052D03*
D47*
X345247Y191190D03*
D76*
X335445Y191190D03*
D66*
X332340Y191190D03*
D27*
X320537Y191190D03*
D32*
X280435Y191190D03*
D43*
X345178Y191328D03*
D69*
X335791Y191328D03*
D70*
X331925Y191328D03*
X320882Y191328D03*
D43*
X280435Y191328D03*
D36*
X345039Y191466D03*
D41*
X335998Y191466D03*
D65*
X331580Y191466D03*
D66*
X321296Y191466D03*
D41*
X280366Y191466D03*
D43*
X344901Y191604D03*
D31*
X336136Y191604D03*
D25*
X331166Y191604D03*
X321641Y191604D03*
D31*
X280366Y191604D03*
D32*
X344901Y191742D03*
D82*
X336343Y191742D03*
D23*
X330752Y191742D03*
D65*
X322055Y191742D03*
D41*
X280366Y191742D03*
D36*
X344763Y191880D03*
D41*
X336550Y191880D03*
D93*
X330269Y191880D03*
D66*
X322400Y191880D03*
D41*
X280366Y191880D03*
D34*
X344694Y192018D03*
D31*
X336688Y192018D03*
D95*
X329717Y192018D03*
D70*
X322815Y192018D03*
D43*
X280297Y192018D03*
D41*
X344556Y192156D03*
X336826Y192156D03*
D58*
X329165Y192156D03*
D27*
X323160Y192156D03*
D41*
X280228Y192156D03*
D82*
X344349Y192294D03*
D41*
X336964Y192294D03*
D30*
X328405Y192294D03*
D66*
X323505Y192294D03*
D41*
X280228Y192294D03*
D69*
X344211Y192433D03*
D31*
X337102Y192433D03*
D50*
X327370Y192433D03*
D97*
X323988Y192433D03*
D31*
X280228Y192433D03*
D41*
X344004Y192571D03*
X337240Y192571D03*
D85*
X325990Y192571D03*
D41*
X280228Y192571D03*
D69*
X343797Y192709D03*
D31*
X337378Y192709D03*
D56*
X325851Y192709D03*
D31*
X280090Y192709D03*
D76*
X343590Y192847D03*
D41*
X337516Y192847D03*
D58*
X325437Y192847D03*
D41*
X280090Y192847D03*
D77*
X343452Y192985D03*
D31*
X337792Y192985D03*
X280090Y192985D03*
D96*
X343245Y193123D03*
D36*
X342279Y193123D03*
D41*
X337930Y193123D03*
X280090Y193123D03*
D51*
X342486Y193261D03*
D82*
X338137Y193261D03*
D41*
X279952Y193261D03*
D78*
X342141Y193399D03*
D77*
X338344Y193399D03*
D31*
X279952Y193399D03*
D96*
X342693Y193537D03*
D98*
X341036Y193537D03*
D29*
X338690Y193537D03*
D32*
X280021Y193537D03*
D29*
X342417Y193675D03*
D12*
X339932Y193675D03*
D41*
X279952Y193675D03*
D77*
X342210Y193813D03*
D161*
X339794Y193813D03*
D31*
X279952Y193813D03*
D67*
X341934Y193951D03*
D29*
X339656Y193951D03*
D41*
X279952Y193951D03*
D77*
X341795Y194089D03*
D31*
X279952Y194089D03*
D76*
X341519Y194227D03*
D82*
X279883Y194227D03*
D96*
X341312Y194365D03*
D82*
X279883Y194365D03*
D71*
X341036Y194503D03*
D69*
X279883Y194503D03*
D67*
X340829Y194641D03*
D82*
X279883Y194641D03*
D69*
X340622Y194779D03*
D74*
X279814Y194779D03*
D102*
X340484Y194917D03*
D67*
X279814Y194917D03*
D82*
X340208Y195055D03*
D67*
X279814Y195055D03*
D74*
X340001Y195193D03*
D69*
X279745Y195193D03*
D29*
X339794Y195331D03*
D67*
X279676Y195331D03*
X339587Y195469D03*
X279676Y195469D03*
D69*
X339380Y195608D03*
X279607Y195608D03*
D82*
X339242Y195746D03*
X279607Y195746D03*
D69*
X338966Y195884D03*
D87*
X279469Y195884D03*
D82*
X338828Y196022D03*
D102*
X279469Y196022D03*
D77*
X338620Y196160D03*
D31*
X279400Y196160D03*
D102*
X338413Y196298D03*
D82*
X279331Y196298D03*
X338275Y196436D03*
X279331Y196436D03*
D31*
X338068Y196574D03*
X279262Y196574D03*
D41*
X337930Y196712D03*
X279262Y196712D03*
D82*
X337861Y196850D03*
D41*
X279262Y196850D03*
D162*
X267321Y196850D03*
D69*
X337723Y196988D03*
D39*
X279193Y196988D03*
D163*
X267183Y196988D03*
D82*
X337585Y197126D03*
D36*
X279193Y197126D03*
D164*
X267114Y197126D03*
D69*
X337447Y197264D03*
D39*
X279193Y197264D03*
D165*
X266976Y197264D03*
D82*
X337447Y197402D03*
D41*
X279262Y197402D03*
D45*
X272360Y197402D03*
D18*
X261799Y197402D03*
D102*
X337309Y197540D03*
D41*
X279262Y197540D03*
D58*
X272981Y197540D03*
D12*
X260833Y197540D03*
D69*
X337171Y197678D03*
D39*
X279193Y197678D03*
D64*
X273464Y197678D03*
D78*
X260143Y197678D03*
D82*
X337033Y197816D03*
D158*
X279124Y197816D03*
D83*
X273809Y197816D03*
D51*
X259660Y197816D03*
D74*
X336964Y197954D03*
D101*
X279124Y197954D03*
D25*
X274154Y197954D03*
D95*
X259176Y197954D03*
D67*
X336826Y198092D03*
D158*
X279124Y198092D03*
D65*
X274430Y198092D03*
D83*
X258762Y198092D03*
D82*
X336757Y198230D03*
D158*
X279124Y198230D03*
D81*
X274706Y198230D03*
D65*
X258417Y198230D03*
D77*
X336688Y198368D03*
D101*
X279124Y198368D03*
D70*
X274913Y198368D03*
X258072Y198368D03*
D76*
X336550Y198506D03*
D36*
X279055Y198506D03*
D29*
X275051Y198506D03*
D66*
X257796Y198506D03*
D82*
X336481Y198644D03*
D36*
X279055Y198644D03*
D96*
X275328Y198644D03*
D27*
X257589Y198644D03*
D74*
X336412Y198783D03*
D39*
X279055Y198783D03*
D73*
X275673Y198783D03*
X257313Y198783D03*
D82*
X336343Y198921D03*
D36*
X279055Y198921D03*
D166*
X275949Y198921D03*
D29*
X257106Y198921D03*
D69*
X336205Y199059D03*
D31*
X278986Y199059D03*
D71*
X276156Y199059D03*
D167*
X256830Y199059D03*
D82*
X336205Y199197D03*
D46*
X320813Y199197D03*
D29*
X296724Y199197D03*
D41*
X278986Y199197D03*
D27*
X276363Y199197D03*
D76*
X256623Y199197D03*
D69*
X336067Y199335D03*
D31*
X320813Y199335D03*
D50*
X296586Y199335D03*
D43*
X278917Y199335D03*
D73*
X276639Y199335D03*
D77*
X256485Y199335D03*
D82*
X336067Y199473D03*
D76*
X320813Y199473D03*
D130*
X296241Y199473D03*
D32*
X278917Y199473D03*
D27*
X276915Y199473D03*
D82*
X256278Y199473D03*
D41*
X335998Y199611D03*
D76*
X320813Y199611D03*
D134*
X296448Y199611D03*
D32*
X278917Y199611D03*
D75*
X277260Y199611D03*
D82*
X256139Y199611D03*
D87*
X335929Y199749D03*
D105*
X321020Y199749D03*
D39*
X320330Y199749D03*
D147*
X296310Y199749D03*
D31*
X278848Y199749D03*
D97*
X277605Y199749D03*
D69*
X256001Y199749D03*
D41*
X335860Y199887D03*
D47*
X320951Y199887D03*
D41*
X320261Y199887D03*
D33*
X298657Y199887D03*
D110*
X294309Y199887D03*
D51*
X278157Y199887D03*
D76*
X255794Y199887D03*
D41*
X335860Y200025D03*
D47*
X320951Y200025D03*
D46*
X320123Y200025D03*
D61*
X299347Y200025D03*
D38*
X293687Y200025D03*
D23*
X278295Y200025D03*
D82*
X255587Y200025D03*
D31*
X335722Y200163D03*
D43*
X320882Y200163D03*
D34*
X319985Y200163D03*
D168*
X299761Y200163D03*
D111*
X293618Y200163D03*
D73*
X278434Y200163D03*
D69*
X255449Y200163D03*
D41*
X335722Y200301D03*
D46*
X320813Y200301D03*
D32*
X319916Y200301D03*
D81*
X300106Y200301D03*
D60*
X293549Y200301D03*
D41*
X278710Y200301D03*
D82*
X255311Y200301D03*
D43*
X335653Y200439D03*
D34*
X320813Y200439D03*
D31*
X319847Y200439D03*
D70*
X300313Y200439D03*
D119*
X293411Y200439D03*
D39*
X278779Y200439D03*
D69*
X255173Y200439D03*
D32*
X335653Y200577D03*
D36*
X320744Y200577D03*
D32*
X319778Y200577D03*
D66*
X300590Y200577D03*
D126*
X293342Y200577D03*
D41*
X278710Y200577D03*
D82*
X255035Y200577D03*
D41*
X335584Y200715D03*
D46*
X320675Y200715D03*
D41*
X319709Y200715D03*
D27*
X300797Y200715D03*
D54*
X293342Y200715D03*
D41*
X278710Y200715D03*
D82*
X254897Y200715D03*
D39*
X335514Y200853D03*
D43*
X320606Y200853D03*
D31*
X319570Y200853D03*
D71*
X301004Y200853D03*
D139*
X293342Y200853D03*
D43*
X278641Y200853D03*
D87*
X254759Y200853D03*
D36*
X335514Y200991D03*
D32*
X320606Y200991D03*
D41*
X319432Y200991D03*
D29*
X301142Y200991D03*
D154*
X293273Y200991D03*
D32*
X278641Y200991D03*
D82*
X254621Y200991D03*
D39*
X335514Y201129D03*
X320468Y201129D03*
D31*
X319294Y201129D03*
D74*
X301349Y201129D03*
D147*
X293135Y201129D03*
D43*
X278641Y201129D03*
D69*
X254483Y201129D03*
D46*
X335445Y201267D03*
D36*
X320468Y201267D03*
D41*
X319156Y201267D03*
D67*
X301487Y201267D03*
D169*
X293135Y201267D03*
D41*
X278572Y201267D03*
D82*
X254345Y201267D03*
D32*
X335376Y201405D03*
D46*
X320399Y201405D03*
D41*
X319156Y201405D03*
D76*
X301625Y201405D03*
D170*
X293135Y201405D03*
D41*
X278572Y201405D03*
D82*
X254207Y201405D03*
D43*
X335376Y201543D03*
D34*
X320261Y201543D03*
D31*
X319018Y201543D03*
D87*
X301694Y201543D03*
D171*
X293066Y201543D03*
D31*
X278572Y201543D03*
D87*
X254069Y201543D03*
D46*
X335307Y201681D03*
X320261Y201681D03*
D41*
X319018Y201681D03*
D82*
X301832Y201681D03*
D172*
X292997Y201681D03*
D32*
X278503Y201681D03*
D41*
X254000Y201681D03*
D46*
X335307Y201819D03*
D103*
X320192Y201819D03*
D106*
X319156Y201819D03*
D46*
X318742Y201819D03*
D82*
X301970Y201819D03*
D173*
X292997Y201819D03*
D32*
X278503Y201819D03*
D41*
X253862Y201819D03*
D39*
X335238Y201958D03*
X320054Y201958D03*
D31*
X318742Y201958D03*
X302039Y201958D03*
D174*
X292997Y201958D03*
D31*
X278434Y201958D03*
D101*
X253724Y201958D03*
D36*
X335238Y202096D03*
X320054Y202096D03*
X318673Y202096D03*
D82*
X302108Y202096D03*
D175*
X292928Y202096D03*
D41*
X278434Y202096D03*
X253586Y202096D03*
D39*
X335238Y202234D03*
D34*
X319985Y202234D03*
D43*
X318535Y202234D03*
D31*
X302177Y202234D03*
D176*
X292928Y202234D03*
D39*
X278364Y202234D03*
D31*
X253448Y202234D03*
D46*
X335169Y202372D03*
X319985Y202372D03*
D32*
X318397Y202372D03*
D82*
X302246Y202372D03*
D162*
X292859Y202372D03*
D36*
X278364Y202372D03*
D102*
X253379Y202372D03*
D34*
X335169Y202510D03*
D43*
X319916Y202510D03*
X318397Y202510D03*
D31*
X302315Y202510D03*
D177*
X292928Y202510D03*
D39*
X278364Y202510D03*
D69*
X253241Y202510D03*
D46*
X335169Y202648D03*
D32*
X319916Y202648D03*
D36*
X318259Y202648D03*
D41*
X302315Y202648D03*
D178*
X292859Y202648D03*
D36*
X278364Y202648D03*
D41*
X253172Y202648D03*
D46*
X335169Y202786D03*
D32*
X319778Y202786D03*
D41*
X318190Y202786D03*
X302453Y202786D03*
D178*
X292859Y202786D03*
D36*
X278364Y202786D03*
D67*
X268909Y202786D03*
D37*
X266700Y202786D03*
D41*
X264629Y202786D03*
X253034Y202786D03*
D34*
X335169Y202924D03*
D43*
X319778Y202924D03*
X318121Y202924D03*
D31*
X302453Y202924D03*
D179*
X292859Y202924D03*
D31*
X278295Y202924D03*
D180*
X266769Y202924D03*
D31*
X252895Y202924D03*
D32*
X335100Y203062D03*
D82*
X319639Y203062D03*
D36*
X317983Y203062D03*
D41*
X302453Y203062D03*
D181*
X292859Y203062D03*
D41*
X278295Y203062D03*
D182*
X266700Y203062D03*
D41*
X252757Y203062D03*
X335031Y203200D03*
X319570Y203200D03*
X317914Y203200D03*
X302453Y203200D03*
D183*
X292790Y203200D03*
D41*
X278295Y203200D03*
D76*
X271945Y203200D03*
D28*
X269392Y203200D03*
D68*
X264077Y203200D03*
D41*
X252619Y203200D03*
D31*
X335031Y203338D03*
X319570Y203338D03*
X317776Y203338D03*
D43*
X302522Y203338D03*
D184*
X292859Y203338D03*
D31*
X278295Y203338D03*
D105*
X276294Y203338D03*
D92*
X272153Y203338D03*
D90*
X270151Y203338D03*
D92*
X263594Y203338D03*
D69*
X252550Y203338D03*
D41*
X335031Y203476D03*
D82*
X319501Y203476D03*
D41*
X317638Y203476D03*
X302591Y203476D03*
D185*
X292859Y203476D03*
D41*
X278295Y203476D03*
D186*
X273602Y203476D03*
D76*
X262973Y203476D03*
D41*
X252481Y203476D03*
D43*
X335100Y203614D03*
D31*
X319432Y203614D03*
D87*
X317569Y203614D03*
D31*
X302591Y203614D03*
D187*
X292790Y203614D03*
D188*
X274223Y203614D03*
D77*
X262835Y203614D03*
D31*
X252343Y203614D03*
D32*
X335100Y203752D03*
D23*
X333375Y203752D03*
D41*
X319432Y203752D03*
D32*
X317431Y203752D03*
D41*
X302591Y203752D03*
D189*
X292790Y203752D03*
D190*
X274844Y203752D03*
D41*
X270427Y203752D03*
D82*
X262628Y203752D03*
D41*
X252205Y203752D03*
D32*
X335100Y203890D03*
D30*
X333237Y203890D03*
D102*
X319363Y203890D03*
D41*
X317362Y203890D03*
X302591Y203890D03*
D189*
X292790Y203890D03*
D33*
X277398Y203890D03*
D81*
X272084Y203890D03*
D76*
X262420Y203890D03*
D41*
X252067Y203890D03*
D56*
X333582Y204028D03*
D31*
X319294Y204028D03*
D101*
X317224Y204028D03*
D31*
X302591Y204028D03*
D191*
X292859Y204028D03*
D73*
X278157Y204028D03*
D87*
X262213Y204028D03*
D31*
X252067Y204028D03*
D112*
X333375Y204166D03*
D82*
X319225Y204166D03*
D41*
X317086Y204166D03*
X302591Y204166D03*
D192*
X292790Y204166D03*
D41*
X278295Y204166D03*
D82*
X262075Y204166D03*
D41*
X251929Y204166D03*
D62*
X333237Y204304D03*
D31*
X319156Y204304D03*
D43*
X317017Y204304D03*
D31*
X302591Y204304D03*
D193*
X292790Y204304D03*
D31*
X278295Y204304D03*
D69*
X261937Y204304D03*
D31*
X251791Y204304D03*
D65*
X334755Y204442D03*
D68*
X331856Y204442D03*
D82*
X319087Y204442D03*
D41*
X316948Y204442D03*
X302591Y204442D03*
D192*
X292790Y204442D03*
D41*
X278295Y204442D03*
X261730Y204442D03*
X251653Y204442D03*
D27*
X334893Y204580D03*
D28*
X331787Y204580D03*
D41*
X319018Y204580D03*
X316810Y204580D03*
X302591Y204580D03*
D192*
X292790Y204580D03*
D36*
X278364Y204580D03*
D41*
X261592Y204580D03*
X251653Y204580D03*
D74*
X335031Y204718D03*
D35*
X331718Y204718D03*
D31*
X319018Y204718D03*
X316672Y204718D03*
X302591Y204718D03*
D193*
X292790Y204718D03*
D39*
X278364Y204718D03*
D31*
X261454Y204718D03*
X251515Y204718D03*
D82*
X335100Y204856D03*
D12*
X331649Y204856D03*
D82*
X318949Y204856D03*
D41*
X316534Y204856D03*
X302591Y204856D03*
D192*
X292790Y204856D03*
D36*
X278364Y204856D03*
D82*
X261247Y204856D03*
D41*
X251377Y204856D03*
D30*
X338482Y204994D03*
D102*
X335238Y204994D03*
D38*
X331649Y204994D03*
D41*
X318880Y204994D03*
D36*
X316464Y204994D03*
D41*
X302591Y204994D03*
D192*
X292790Y204994D03*
D36*
X278364Y204994D03*
D41*
X261178Y204994D03*
X251377Y204994D03*
D194*
X338690Y205133D03*
D87*
X335238Y205133D03*
D195*
X331580Y205133D03*
D31*
X318880Y205133D03*
X316395Y205133D03*
X302591Y205133D03*
D193*
X292790Y205133D03*
D39*
X278364Y205133D03*
D31*
X261040Y205133D03*
X251239Y205133D03*
D196*
X338690Y205271D03*
D52*
X331511Y205271D03*
D36*
X318811Y205271D03*
D41*
X316257Y205271D03*
X302591Y205271D03*
D192*
X292790Y205271D03*
D36*
X278364Y205271D03*
D82*
X260833Y205271D03*
D41*
X251101Y205271D03*
D197*
X339311Y205409D03*
D198*
X331511Y205409D03*
D39*
X318811Y205409D03*
D31*
X316119Y205409D03*
X302591Y205409D03*
D193*
X292790Y205409D03*
D39*
X278364Y205409D03*
D74*
X260626Y205409D03*
D31*
X251101Y205409D03*
D189*
X340139Y205547D03*
D160*
X331442Y205547D03*
D41*
X318742Y205547D03*
D32*
X316050Y205547D03*
D41*
X302591Y205547D03*
D192*
X292790Y205547D03*
D36*
X278364Y205547D03*
D76*
X260488Y205547D03*
D41*
X250963Y205547D03*
D131*
X343521Y205685D03*
D97*
X335860Y205685D03*
D111*
X331442Y205685D03*
D39*
X318673Y205685D03*
D31*
X315981Y205685D03*
X302591Y205685D03*
D193*
X292790Y205685D03*
D39*
X278364Y205685D03*
D77*
X260350Y205685D03*
D39*
X250894Y205685D03*
D125*
X344487Y205823D03*
D41*
X335584Y205823D03*
D112*
X331442Y205823D03*
D36*
X318673Y205823D03*
D41*
X315843Y205823D03*
D32*
X302522Y205823D03*
D199*
X292721Y205823D03*
D36*
X278364Y205823D03*
D96*
X260143Y205823D03*
D41*
X250825Y205823D03*
D122*
X345385Y205961D03*
D36*
X335514Y205961D03*
D112*
X331442Y205961D03*
D41*
X318604Y205961D03*
X315705Y205961D03*
D32*
X302522Y205961D03*
D199*
X292721Y205961D03*
D36*
X278364Y205961D03*
D96*
X260005Y205961D03*
D41*
X250687Y205961D03*
D200*
X346489Y206099D03*
D39*
X335514Y206099D03*
D53*
X331373Y206099D03*
D43*
X318535Y206099D03*
D31*
X315567Y206099D03*
X302453Y206099D03*
D191*
X292721Y206099D03*
D39*
X278364Y206099D03*
D71*
X259867Y206099D03*
D39*
X250618Y206099D03*
D45*
X347455Y206237D03*
D36*
X335514Y206237D03*
D117*
X331442Y206237D03*
D41*
X318466Y206237D03*
D36*
X315498Y206237D03*
D41*
X302453Y206237D03*
D199*
X292721Y206237D03*
D36*
X278364Y206237D03*
D27*
X259660Y206237D03*
D158*
X250549Y206237D03*
D28*
X348076Y206375D03*
D36*
X335514Y206375D03*
D114*
X331373Y206375D03*
D32*
X318397Y206375D03*
D41*
X315429Y206375D03*
X302453Y206375D03*
D199*
X292721Y206375D03*
D36*
X278364Y206375D03*
D27*
X259522Y206375D03*
D36*
X250480Y206375D03*
D161*
X348629Y206513D03*
D39*
X335514Y206513D03*
D201*
X331373Y206513D03*
D31*
X318328Y206513D03*
X315291Y206513D03*
X302453Y206513D03*
D191*
X292721Y206513D03*
D39*
X278364Y206513D03*
D71*
X259315Y206513D03*
D31*
X250411Y206513D03*
D23*
X349112Y206651D03*
D36*
X335514Y206651D03*
D85*
X331373Y206651D03*
D41*
X318328Y206651D03*
X315153Y206651D03*
X302453Y206651D03*
D199*
X292721Y206651D03*
D36*
X278364Y206651D03*
D27*
X259107Y206651D03*
D32*
X250342Y206651D03*
D25*
X349526Y206789D03*
D31*
X335445Y206789D03*
D119*
X331373Y206789D03*
D39*
X318259Y206789D03*
X315084Y206789D03*
D31*
X302315Y206789D03*
D202*
X292652Y206789D03*
D39*
X278364Y206789D03*
D70*
X258900Y206789D03*
D39*
X250204Y206789D03*
D66*
X349871Y206927D03*
D41*
X335445Y206927D03*
D85*
X331373Y206927D03*
D41*
X318190Y206927D03*
X315015Y206927D03*
X302315Y206927D03*
D203*
X292652Y206927D03*
D46*
X278434Y206927D03*
D72*
X259245Y206927D03*
D76*
X258555Y206927D03*
D41*
X250135Y206927D03*
D66*
X350147Y207065D03*
D41*
X335445Y207065D03*
D125*
X331373Y207065D03*
D32*
X318121Y207065D03*
D41*
X314877Y207065D03*
X302315Y207065D03*
D203*
X292652Y207065D03*
D46*
X278434Y207065D03*
D72*
X259107Y207065D03*
D76*
X258417Y207065D03*
D32*
X250066Y207065D03*
D71*
X350423Y207203D03*
D31*
X335445Y207203D03*
D194*
X331373Y207203D03*
D31*
X318052Y207203D03*
X314739Y207203D03*
X302315Y207203D03*
D202*
X292652Y207203D03*
D34*
X278434Y207203D03*
D204*
X258969Y207203D03*
D31*
X258279Y207203D03*
X249997Y207203D03*
D29*
X350699Y207341D03*
D36*
X335514Y207341D03*
D125*
X331373Y207341D03*
D41*
X318052Y207341D03*
X314601Y207341D03*
X302177Y207341D03*
D183*
X292652Y207341D03*
D32*
X278503Y207341D03*
D82*
X258072Y207341D03*
D32*
X249928Y207341D03*
D71*
X350975Y207479D03*
D39*
X335514Y207479D03*
D194*
X331373Y207479D03*
D39*
X317983Y207479D03*
D43*
X314532Y207479D03*
D31*
X302177Y207479D03*
D205*
X292652Y207479D03*
D43*
X278503Y207479D03*
D206*
X258555Y207479D03*
D87*
X257934Y207479D03*
D31*
X249859Y207479D03*
D27*
X351182Y207617D03*
D36*
X335514Y207617D03*
D126*
X331304Y207617D03*
D41*
X317914Y207617D03*
X314463Y207617D03*
D82*
X302108Y207617D03*
D183*
X292652Y207617D03*
D32*
X278503Y207617D03*
D82*
X257796Y207617D03*
D36*
X249789Y207617D03*
D29*
X351390Y207755D03*
D36*
X335514Y207755D03*
D126*
X331304Y207755D03*
D82*
X317983Y207755D03*
D41*
X314325Y207755D03*
X302039Y207755D03*
D181*
X292583Y207755D03*
D32*
X278503Y207755D03*
D76*
X257727Y207755D03*
D41*
X249720Y207755D03*
D71*
X351666Y207893D03*
D39*
X335514Y207893D03*
D194*
X331235Y207893D03*
D92*
X318259Y207893D03*
D31*
X314187Y207893D03*
X302039Y207893D03*
D179*
X292583Y207893D03*
D43*
X278503Y207893D03*
D204*
X258003Y207893D03*
D31*
X257451Y207893D03*
D43*
X249651Y207893D03*
D29*
X351942Y208031D03*
D36*
X335514Y208031D03*
D125*
X331235Y208031D03*
D79*
X318604Y208031D03*
D41*
X314187Y208031D03*
X301901Y208031D03*
D17*
X292652Y208031D03*
D32*
X278503Y208031D03*
D67*
X257451Y208031D03*
D36*
X249513Y208031D03*
D96*
X352080Y208169D03*
D36*
X335514Y208169D03*
D125*
X331235Y208169D03*
D57*
X319156Y208169D03*
D158*
X314049Y208169D03*
D82*
X301832Y208169D03*
D178*
X292583Y208169D03*
D32*
X278503Y208169D03*
D102*
X257244Y208169D03*
D41*
X249444Y208169D03*
D71*
X352356Y208308D03*
D26*
X336619Y208308D03*
D207*
X331166Y208308D03*
D111*
X319709Y208308D03*
D206*
X317500Y208308D03*
D31*
X313911Y208308D03*
X301763Y208308D03*
D208*
X292583Y208308D03*
D43*
X278503Y208308D03*
D69*
X257106Y208308D03*
D43*
X249375Y208308D03*
D76*
X352563Y208446D03*
D114*
X337585Y208446D03*
D209*
X331166Y208446D03*
D48*
X320054Y208446D03*
D82*
X313842Y208446D03*
D102*
X301694Y208446D03*
D210*
X292514Y208446D03*
D32*
X278503Y208446D03*
D82*
X256968Y208446D03*
D41*
X249306Y208446D03*
D74*
X352839Y208584D03*
D211*
X338759Y208584D03*
D207*
X331166Y208584D03*
D212*
X321020Y208584D03*
D87*
X313704Y208584D03*
D69*
X301556Y208584D03*
D213*
X292583Y208584D03*
D49*
X278572Y208584D03*
D69*
X256830Y208584D03*
D43*
X249237Y208584D03*
D76*
X352977Y208722D03*
D214*
X339173Y208722D03*
D209*
X331166Y208722D03*
D82*
X321158Y208722D03*
D41*
X313635Y208722D03*
D82*
X301556Y208722D03*
D215*
X292514Y208722D03*
D47*
X278572Y208722D03*
D41*
X256761Y208722D03*
X249168Y208722D03*
D77*
X353253Y208860D03*
D216*
X339449Y208860D03*
D194*
X331097Y208860D03*
D69*
X321158Y208860D03*
D31*
X313497Y208860D03*
D69*
X301418Y208860D03*
D176*
X292514Y208860D03*
D43*
X278641Y208860D03*
D69*
X256692Y208860D03*
D39*
X249099Y208860D03*
D67*
X353391Y208998D03*
D133*
X341174Y208998D03*
D36*
X335514Y208998D03*
D125*
X331097Y208998D03*
D82*
X321020Y208998D03*
X313428Y208998D03*
X301280Y208998D03*
D217*
X292514Y208998D03*
D32*
X278641Y208998D03*
D102*
X256554Y208998D03*
D36*
X248961Y208998D03*
D76*
X353667Y209136D03*
D160*
X342486Y209136D03*
D36*
X335514Y209136D03*
D123*
X331028Y209136D03*
D82*
X320882Y209136D03*
X313289Y209136D03*
X301142Y209136D03*
D218*
X293066Y209136D03*
D67*
X288649Y209136D03*
D32*
X278641Y209136D03*
D82*
X256416Y209136D03*
D36*
X248961Y209136D03*
D69*
X353874Y209274D03*
D78*
X343659Y209274D03*
D34*
X335445Y209274D03*
D121*
X331028Y209274D03*
D77*
X320813Y209274D03*
D212*
X313428Y209274D03*
D77*
X301073Y209274D03*
D147*
X293135Y209274D03*
D74*
X288787Y209274D03*
D43*
X278641Y209274D03*
D31*
X256347Y209274D03*
D39*
X248823Y209274D03*
D82*
X354012Y209412D03*
D51*
X344142Y209412D03*
D46*
X335445Y209412D03*
D85*
X330959Y209412D03*
D102*
X320744Y209412D03*
D58*
X313842Y209412D03*
D76*
X300935Y209412D03*
D148*
X293204Y209412D03*
D67*
X288787Y209412D03*
D46*
X278710Y209412D03*
D41*
X256209Y209412D03*
X248754Y209412D03*
D82*
X354150Y209550D03*
D219*
X344556Y209550D03*
D46*
X335445Y209550D03*
D85*
X330959Y209550D03*
D82*
X320606Y209550D03*
D47*
X316672Y209550D03*
D20*
X314601Y209550D03*
D67*
X300797Y209550D03*
D134*
X293273Y209550D03*
D76*
X288925Y209550D03*
D36*
X278779Y209550D03*
D41*
X256070Y209550D03*
D32*
X248685Y209550D03*
D31*
X354357Y209688D03*
D168*
X344901Y209688D03*
D34*
X335445Y209688D03*
D220*
X330959Y209688D03*
D69*
X320468Y209688D03*
D111*
X315015Y209688D03*
D74*
X300659Y209688D03*
D127*
X293342Y209688D03*
D77*
X288925Y209688D03*
D39*
X278779Y209688D03*
D43*
X256001Y209688D03*
D31*
X248616Y209688D03*
D82*
X354564Y209826D03*
D81*
X345247Y209826D03*
D46*
X335445Y209826D03*
D221*
X330890Y209826D03*
D67*
X320399Y209826D03*
D20*
X315153Y209826D03*
D29*
X300451Y209826D03*
D122*
X293342Y209826D03*
D76*
X289063Y209826D03*
D36*
X278779Y209826D03*
X255863Y209826D03*
D32*
X248547Y209826D03*
D69*
X354703Y209964D03*
D97*
X345523Y209964D03*
D34*
X335445Y209964D03*
D222*
X330890Y209964D03*
D69*
X320330Y209964D03*
D21*
X315567Y209964D03*
D77*
X300382Y209964D03*
D223*
X293411Y209964D03*
D71*
X289132Y209964D03*
D39*
X278779Y209964D03*
X255863Y209964D03*
D31*
X248478Y209964D03*
D41*
X354772Y210102D03*
D81*
X345799Y210102D03*
D46*
X335445Y210102D03*
D60*
X330821Y210102D03*
D82*
X320192Y210102D03*
D23*
X315843Y210102D03*
D67*
X300106Y210102D03*
D37*
X293480Y210102D03*
D67*
X289201Y210102D03*
D46*
X278848Y210102D03*
D32*
X255725Y210102D03*
D36*
X248409Y210102D03*
D41*
X354910Y210240D03*
D65*
X346075Y210240D03*
D32*
X335376Y210240D03*
D59*
X330752Y210240D03*
D102*
X320054Y210240D03*
D41*
X316257Y210240D03*
D67*
X299968Y210240D03*
D51*
X293618Y210240D03*
D96*
X289270Y210240D03*
D32*
X278917Y210240D03*
D47*
X255656Y210240D03*
D41*
X248340Y210240D03*
D31*
X355048Y210378D03*
D25*
X346351Y210378D03*
D43*
X335376Y210378D03*
D159*
X330752Y210378D03*
D77*
X319985Y210378D03*
D39*
X316188Y210378D03*
D77*
X299830Y210378D03*
D71*
X289408Y210378D03*
D43*
X278917Y210378D03*
X255587Y210378D03*
X248271Y210378D03*
D41*
X355186Y210516D03*
D66*
X346558Y210516D03*
D36*
X335238Y210516D03*
D224*
X330683Y210516D03*
D67*
X319847Y210516D03*
D32*
X316050Y210516D03*
D82*
X299623Y210516D03*
D29*
X289546Y210516D03*
D32*
X278917Y210516D03*
D46*
X255518Y210516D03*
D32*
X248271Y210516D03*
D101*
X355324Y210654D03*
D70*
X346834Y210654D03*
D39*
X335238Y210654D03*
D111*
X330614Y210654D03*
D69*
X319778Y210654D03*
D31*
X315981Y210654D03*
D69*
X299485Y210654D03*
D71*
X289684Y210654D03*
D43*
X278917Y210654D03*
D39*
X255449Y210654D03*
X248133Y210654D03*
D36*
X355393Y210792D03*
D27*
X347041Y210792D03*
D36*
X335238Y210792D03*
D110*
X330614Y210792D03*
D82*
X319639Y210792D03*
D41*
X315843Y210792D03*
D76*
X299278Y210792D03*
D27*
X289753Y210792D03*
D46*
X278986Y210792D03*
X255380Y210792D03*
D36*
X248133Y210792D03*
D41*
X355462Y210930D03*
D27*
X347317Y210930D03*
D36*
X335238Y210930D03*
D52*
X330545Y210930D03*
D82*
X319501Y210930D03*
D41*
X315705Y210930D03*
D76*
X299140Y210930D03*
D27*
X289891Y210930D03*
D46*
X278986Y210930D03*
X255380Y210930D03*
D32*
X247995Y210930D03*
D43*
X355531Y211068D03*
D70*
X347524Y211068D03*
D34*
X335169Y211068D03*
D195*
X330476Y211068D03*
D87*
X319363Y211068D03*
D39*
X315636Y211068D03*
D77*
X299002Y211068D03*
D73*
X290029Y211068D03*
D39*
X279055Y211068D03*
D34*
X263939Y211068D03*
D206*
X262973Y211068D03*
D39*
X255311Y211068D03*
D43*
X247995Y211068D03*
D36*
X355669Y211206D03*
D27*
X347731Y211206D03*
D46*
X335169Y211206D03*
D48*
X330407Y211206D03*
D76*
X319294Y211206D03*
D41*
X315567Y211206D03*
D96*
X298795Y211206D03*
D27*
X290167Y211206D03*
D36*
X279055Y211206D03*
D66*
X264008Y211206D03*
D86*
X261661Y211206D03*
D46*
X255242Y211206D03*
D32*
X247995Y211206D03*
D41*
X355738Y211344D03*
D27*
X348007Y211344D03*
D46*
X335169Y211344D03*
D12*
X330407Y211344D03*
D67*
X319156Y211344D03*
D41*
X315429Y211344D03*
D29*
X298657Y211344D03*
D27*
X290305Y211344D03*
D46*
X279124Y211344D03*
D140*
X262075Y211344D03*
D46*
X257727Y211344D03*
X255242Y211344D03*
D32*
X247857Y211344D03*
D43*
X355807Y211483D03*
D73*
X348145Y211483D03*
D34*
X335169Y211483D03*
D26*
X330269Y211483D03*
D69*
X319087Y211483D03*
D31*
X315291Y211483D03*
D73*
X298450Y211483D03*
D212*
X290512Y211483D03*
D34*
X279124Y211483D03*
D225*
X261316Y211483D03*
D34*
X255242Y211483D03*
D43*
X247857Y211483D03*
D32*
X355945Y211621D03*
D27*
X348422Y211621D03*
D32*
X335100Y211621D03*
D30*
X330200Y211621D03*
D82*
X318949Y211621D03*
D32*
X315222Y211621D03*
D166*
X298174Y211621D03*
D66*
X290650Y211621D03*
D158*
X279124Y211621D03*
D60*
X263870Y211621D03*
D106*
X261454Y211621D03*
X261178Y211621D03*
D57*
X258417Y211621D03*
D46*
X255242Y211621D03*
D32*
X247857Y211621D03*
D31*
X356014Y211759D03*
D73*
X348560Y211759D03*
D43*
X335100Y211759D03*
D90*
X330062Y211759D03*
D69*
X318811Y211759D03*
D39*
X315084Y211759D03*
D73*
X298036Y211759D03*
D97*
X290857Y211759D03*
D74*
X278986Y211759D03*
D92*
X265803Y211759D03*
D226*
X263042Y211759D03*
D55*
X257796Y211759D03*
D34*
X255104Y211759D03*
D43*
X247857Y211759D03*
D36*
X356083Y211897D03*
D29*
X348767Y211897D03*
D32*
X335100Y211897D03*
D23*
X329924Y211897D03*
D82*
X318811Y211897D03*
D41*
X315015Y211897D03*
D65*
X297760Y211897D03*
D83*
X291064Y211897D03*
D27*
X278848Y211897D03*
D81*
X266424Y211897D03*
D30*
X257037Y211897D03*
D46*
X255104Y211897D03*
X247788Y211897D03*
D31*
X356152Y212035D03*
D100*
X348974Y212035D03*
D43*
X335100Y212035D03*
X329441Y212035D03*
D69*
X318673Y212035D03*
D31*
X314877Y212035D03*
D92*
X297414Y212035D03*
X291341Y212035D03*
X278779Y212035D03*
D64*
X266838Y212035D03*
D95*
X256416Y212035D03*
D34*
X255104Y212035D03*
X247788Y212035D03*
D32*
X356221Y212173D03*
D29*
X349181Y212173D03*
D47*
X335031Y212173D03*
D41*
X329510Y212173D03*
D82*
X318535Y212173D03*
D41*
X314739Y212173D03*
D81*
X297069Y212173D03*
D61*
X291617Y212173D03*
D32*
X279331Y212173D03*
D66*
X278088Y212173D03*
D51*
X267528Y212173D03*
D76*
X255380Y212173D03*
D46*
X247788Y212173D03*
D36*
X356359Y212311D03*
D27*
X349388Y212311D03*
D47*
X335031Y212311D03*
D41*
X329648Y212311D03*
X318466Y212311D03*
D32*
X314670Y212311D03*
D23*
X296655Y212311D03*
D58*
X292031Y212311D03*
D32*
X279331Y212311D03*
D83*
X277674Y212311D03*
D37*
X268218Y212311D03*
D99*
X255173Y212311D03*
D36*
X247719Y212311D03*
D31*
X356428Y212449D03*
D167*
X349595Y212449D03*
D43*
X334962Y212449D03*
X329717Y212449D03*
D69*
X318397Y212449D03*
D43*
X314532Y212449D03*
D138*
X294170Y212449D03*
D34*
X279400Y212449D03*
D95*
X277260Y212449D03*
D22*
X268494Y212449D03*
D105*
X255173Y212449D03*
D39*
X247719Y212449D03*
D32*
X356497Y212587D03*
D29*
X349733Y212587D03*
D32*
X334962Y212587D03*
D41*
X329786Y212587D03*
D102*
X318259Y212587D03*
D41*
X314463Y212587D03*
D120*
X294032Y212587D03*
D36*
X279469Y212587D03*
D23*
X276777Y212587D03*
D66*
X273257Y212587D03*
D37*
X269737Y212587D03*
D46*
X255242Y212587D03*
D36*
X247719Y212587D03*
D41*
X356566Y212725D03*
D29*
X350009Y212725D03*
D82*
X334824Y212725D03*
D158*
X329924Y212725D03*
D41*
X318190Y212725D03*
X314325Y212725D03*
D112*
X294032Y212725D03*
D36*
X279469Y212725D03*
D186*
X272912Y212725D03*
D46*
X247788Y212725D03*
D43*
X356635Y212863D03*
D71*
X350147Y212863D03*
D77*
X334617Y212863D03*
D31*
X330062Y212863D03*
D69*
X318121Y212863D03*
D43*
X314256Y212863D03*
D195*
X294032Y212863D03*
D39*
X279469Y212863D03*
D227*
X273119Y212863D03*
D34*
X247788Y212863D03*
D36*
X356773Y213001D03*
D96*
X350285Y213001D03*
D76*
X334617Y213001D03*
X330200Y213001D03*
D41*
X318052Y213001D03*
D36*
X314118Y213001D03*
D79*
X294032Y213001D03*
D46*
X279538Y213001D03*
D117*
X273326Y213001D03*
D46*
X247788Y213001D03*
D31*
X356842Y213139D03*
D71*
X350561Y213139D03*
D212*
X334410Y213139D03*
D71*
X330407Y213139D03*
D31*
X317914Y213139D03*
D101*
X314049Y213139D03*
D43*
X279607Y213139D03*
X247857Y213139D03*
D36*
X356911Y213277D03*
D29*
X350699Y213277D03*
D81*
X334341Y213277D03*
D66*
X330683Y213277D03*
D82*
X317845Y213277D03*
D41*
X313911Y213277D03*
D32*
X279607Y213277D03*
X247857Y213277D03*
D41*
X356980Y213415D03*
D96*
X350837Y213415D03*
D93*
X334134Y213415D03*
D81*
X331028Y213415D03*
D41*
X317776Y213415D03*
X313773Y213415D03*
D47*
X279676Y213415D03*
D32*
X247857Y213415D03*
D39*
X357049Y213553D03*
D77*
X351044Y213553D03*
D34*
X334755Y213553D03*
D50*
X332340Y213553D03*
D69*
X317707Y213553D03*
D43*
X313566Y213553D03*
X279745Y213553D03*
D49*
X247926Y213553D03*
D32*
X357187Y213691D03*
D76*
X351182Y213691D03*
D36*
X334686Y213691D03*
D24*
X332409Y213691D03*
D102*
X317569Y213691D03*
D41*
X313497Y213691D03*
D46*
X279814Y213691D03*
D32*
X247995Y213691D03*
D31*
X357256Y213829D03*
D77*
X351320Y213829D03*
D39*
X334686Y213829D03*
D80*
X332409Y213829D03*
D31*
X317500Y213829D03*
X313359Y213829D03*
D39*
X279883Y213829D03*
D43*
X247995Y213829D03*
D32*
X357325Y213967D03*
D96*
X351528Y213967D03*
D36*
X334686Y213967D03*
D75*
X332478Y213967D03*
D41*
X317362Y213967D03*
X313220Y213967D03*
D36*
X279883Y213967D03*
D32*
X247995Y213967D03*
D36*
X357463Y214105D03*
D29*
X351666Y214105D03*
D46*
X334617Y214105D03*
D82*
X317293Y214105D03*
X313151Y214105D03*
D32*
X280021Y214105D03*
D36*
X248133Y214105D03*
D39*
X357463Y214243D03*
D77*
X351873Y214243D03*
D39*
X334548Y214243D03*
D69*
X317155Y214243D03*
D31*
X313082Y214243D03*
D43*
X280021Y214243D03*
D39*
X248133Y214243D03*
D32*
X357601Y214381D03*
D67*
X352011Y214381D03*
D36*
X334548Y214381D03*
D82*
X317017Y214381D03*
D41*
X312944Y214381D03*
D36*
X280159Y214381D03*
D46*
X248202Y214381D03*
D41*
X357670Y214519D03*
D67*
X352149Y214519D03*
D46*
X334479Y214519D03*
D41*
X316948Y214519D03*
X312806Y214519D03*
D46*
X280228Y214519D03*
D32*
X248271Y214519D03*
D39*
X357739Y214658D03*
D74*
X352287Y214658D03*
D43*
X334410Y214658D03*
D31*
X316810Y214658D03*
D108*
X313773Y214658D03*
D43*
X280297Y214658D03*
X248271Y214658D03*
D32*
X357878Y214796D03*
D76*
X352425Y214796D03*
D32*
X334410Y214796D03*
D82*
X316741Y214796D03*
D57*
X314187Y214796D03*
D32*
X280435Y214796D03*
D36*
X248409Y214796D03*
D43*
X357878Y214934D03*
D77*
X352563Y214934D03*
D43*
X334410Y214934D03*
D201*
X314670Y214934D03*
D43*
X280435Y214934D03*
D39*
X248409Y214934D03*
D32*
X358016Y215072D03*
D67*
X352701Y215072D03*
D32*
X334272Y215072D03*
D60*
X314670Y215072D03*
D36*
X280573Y215072D03*
D32*
X248547Y215072D03*
D43*
X358016Y215210D03*
D74*
X352839Y215210D03*
D43*
X334272Y215210D03*
D92*
X315912Y215210D03*
D34*
X280642Y215210D03*
D49*
X248616Y215210D03*
D36*
X358154Y215348D03*
D76*
X352977Y215348D03*
D32*
X334272Y215348D03*
X316326Y215348D03*
D36*
X280711Y215348D03*
D32*
X248685Y215348D03*
D36*
X358154Y215486D03*
D76*
X353115Y215486D03*
D36*
X334134Y215486D03*
D41*
X280642Y215486D03*
D106*
X249859Y215486D03*
D46*
X248754Y215486D03*
D43*
X358292Y215624D03*
D77*
X353253Y215624D03*
D31*
X334065Y215624D03*
D69*
X280573Y215624D03*
D43*
X249651Y215624D03*
D39*
X248823Y215624D03*
D32*
X358292Y215762D03*
D67*
X353391Y215762D03*
D32*
X333996Y215762D03*
D29*
X280573Y215762D03*
D106*
X249306Y215762D03*
D46*
X248892Y215762D03*
D36*
X358430Y215900D03*
D67*
X353529Y215900D03*
D41*
X334065Y215900D03*
D81*
X280504Y215900D03*
D36*
X249099Y215900D03*
D101*
X358499Y216038D03*
D77*
X353667Y216038D03*
D71*
X334134Y216038D03*
D43*
X281125Y216038D03*
D69*
X280021Y216038D03*
D168*
X249651Y216038D03*
D36*
X358568Y216176D03*
D76*
X353805Y216176D03*
D27*
X334341Y216176D03*
D41*
X281194Y216176D03*
D82*
X279883Y216176D03*
D51*
X249997Y216176D03*
D43*
X358706Y216314D03*
D74*
X353943Y216314D03*
D92*
X334410Y216314D03*
D39*
X281263Y216314D03*
D69*
X279745Y216314D03*
D80*
X250411Y216314D03*
D32*
X358706Y216452D03*
D67*
X354081Y216452D03*
D27*
X334893Y216452D03*
D36*
X333858Y216452D03*
D32*
X281401Y216452D03*
D102*
X279469Y216452D03*
D28*
X250894Y216452D03*
D36*
X358844Y216590D03*
D76*
X354219Y216590D03*
D66*
X335100Y216590D03*
D46*
X333789Y216590D03*
D32*
X281401Y216590D03*
D82*
X279331Y216590D03*
D28*
X251446Y216590D03*
D39*
X358844Y216728D03*
D77*
X354357Y216728D03*
D73*
X335307Y216728D03*
D43*
X333720Y216728D03*
D31*
X281470Y216728D03*
D69*
X279193Y216728D03*
D78*
X251998Y216728D03*
D32*
X358982Y216866D03*
D76*
X354495Y216866D03*
X335445Y216866D03*
D32*
X333720Y216866D03*
D82*
X281539Y216866D03*
D67*
X278986Y216866D03*
D86*
X252826Y216866D03*
D43*
X358982Y217004D03*
D74*
X354634Y217004D03*
X335722Y217004D03*
D43*
X333582Y217004D03*
D74*
X281609Y217004D03*
D87*
X278779Y217004D03*
D228*
X258003Y217004D03*
D32*
X359120Y217142D03*
D82*
X354703Y217142D03*
D76*
X335860Y217142D03*
D32*
X333582Y217142D03*
D82*
X281678Y217142D03*
X278641Y217142D03*
D229*
X258762Y217142D03*
D32*
X359120Y217280D03*
D82*
X354841Y217280D03*
D29*
X336067Y217280D03*
D46*
X333513Y217280D03*
D67*
X281747Y217280D03*
X278434Y217280D03*
D230*
X259384Y217280D03*
D39*
X359258Y217418D03*
D87*
X354979Y217418D03*
D97*
X336550Y217418D03*
D39*
X333444Y217418D03*
D77*
X281885Y217418D03*
D69*
X278226Y217418D03*
D231*
X260143Y217418D03*
D36*
X359258Y217556D03*
D82*
X355117Y217556D03*
D23*
X336826Y217556D03*
D36*
X333444Y217556D03*
D76*
X281885Y217556D03*
X278019Y217556D03*
D33*
X265388Y217556D03*
D46*
X359327Y217694D03*
D41*
X355186Y217694D03*
D23*
X337102Y217694D03*
D46*
X333375Y217694D03*
D29*
X281954Y217694D03*
D67*
X277881Y217694D03*
D51*
X266148Y217694D03*
D43*
X359396Y217833D03*
D101*
X355324Y217833D03*
D90*
X337516Y217833D03*
D43*
X333306Y217833D03*
D71*
X282092Y217833D03*
D77*
X277605Y217833D03*
D168*
X266631Y217833D03*
D32*
X359396Y217971D03*
D41*
X355462Y217971D03*
D61*
X337861Y217971D03*
D32*
X333306Y217971D03*
D29*
X282092Y217971D03*
D76*
X277467Y217971D03*
D81*
X267114Y217971D03*
D34*
X359465Y218109D03*
X355600Y218109D03*
D94*
X338413Y218109D03*
D39*
X333168Y218109D03*
D167*
X282230Y218109D03*
D74*
X277191Y218109D03*
D70*
X267459Y218109D03*
D36*
X359534Y218247D03*
X355669Y218247D03*
D232*
X338759Y218247D03*
D36*
X333168Y218247D03*
D96*
X282368Y218247D03*
D29*
X276984Y218247D03*
D75*
X267735Y218247D03*
D39*
X359534Y218385D03*
D43*
X355807Y218385D03*
D74*
X353529Y218385D03*
D94*
X339104Y218385D03*
D39*
X333030Y218385D03*
D74*
X282437Y218385D03*
D71*
X276708Y218385D03*
X268011Y218385D03*
D46*
X359603Y218523D03*
D41*
X355876Y218523D03*
D24*
X353253Y218523D03*
D23*
X339587Y218523D03*
D36*
X333030Y218523D03*
D76*
X282575Y218523D03*
D29*
X276432Y218523D03*
D96*
X268287Y218523D03*
D32*
X359672Y218661D03*
X355945Y218661D03*
D117*
X352977Y218661D03*
D68*
X340139Y218661D03*
D46*
X332961Y218661D03*
D102*
X282644Y218661D03*
D29*
X276156Y218661D03*
X268563Y218661D03*
D43*
X359672Y218799D03*
D31*
X356014Y218799D03*
D128*
X352701Y218799D03*
D95*
X340622Y218799D03*
D43*
X332892Y218799D03*
D73*
X282437Y218799D03*
D100*
X275949Y218799D03*
D71*
X268840Y218799D03*
D47*
X359741Y218937D03*
D218*
X352701Y218937D03*
D51*
X340967Y218937D03*
D32*
X332892Y218937D03*
D23*
X282299Y218937D03*
D27*
X275673Y218937D03*
D67*
X269047Y218937D03*
D47*
X359741Y219075D03*
D23*
X355462Y219075D03*
D125*
X350147Y219075D03*
D28*
X341588Y219075D03*
D36*
X332754Y219075D03*
X283058Y219075D03*
D65*
X281885Y219075D03*
D27*
X275397Y219075D03*
D29*
X269254Y219075D03*
D43*
X359810Y219213D03*
D73*
X355738Y219213D03*
D121*
X348698Y219213D03*
D21*
X342072Y219213D03*
D39*
X332754Y219213D03*
D69*
X283058Y219213D03*
D73*
X281470Y219213D03*
D70*
X275051Y219213D03*
D167*
X269530Y219213D03*
D32*
X359810Y219351D03*
D82*
X355945Y219351D03*
D178*
X345868Y219351D03*
D32*
X332616Y219351D03*
D102*
X283334Y219351D03*
D76*
X281194Y219351D03*
D81*
X274706Y219351D03*
D27*
X269875Y219351D03*
D34*
X359879Y219489D03*
D43*
X355945Y219489D03*
D233*
X345592Y219489D03*
D43*
X332616Y219489D03*
D39*
X283334Y219489D03*
D74*
X280918Y219489D03*
D92*
X274223Y219489D03*
D25*
X270151Y219489D03*
D46*
X359879Y219627D03*
D234*
X345385Y219627D03*
D32*
X332478Y219627D03*
D41*
X283403Y219627D03*
D76*
X280780Y219627D03*
D85*
X272291Y219627D03*
D46*
X359879Y219765D03*
D60*
X345039Y219765D03*
D32*
X332478Y219765D03*
D46*
X315843Y219765D03*
D41*
X283541Y219765D03*
D67*
X280504Y219765D03*
D59*
X272222Y219765D03*
D34*
X359879Y219903D03*
D21*
X344694Y219903D03*
D39*
X332339Y219903D03*
D69*
X315774Y219903D03*
X283610Y219903D03*
X280297Y219903D03*
D50*
X272153Y219903D03*
D46*
X359879Y220041D03*
D36*
X332339Y220041D03*
D29*
X315636Y220041D03*
D41*
X283679Y220041D03*
D76*
X280090Y220041D03*
D68*
X272084Y220041D03*
D34*
X359879Y220179D03*
D43*
X332201Y220179D03*
D70*
X315498Y220179D03*
D31*
X283817Y220179D03*
D69*
X279883Y220179D03*
D46*
X359879Y220317D03*
D32*
X332201Y220317D03*
D81*
X315291Y220317D03*
D82*
X283886Y220317D03*
X279745Y220317D03*
D46*
X359879Y220455D03*
D36*
X332063Y220455D03*
D83*
X315222Y220455D03*
D82*
X284024Y220455D03*
D41*
X279538Y220455D03*
D34*
X359879Y220593D03*
D31*
X331994Y220593D03*
D39*
X315636Y220593D03*
D167*
X314670Y220593D03*
D31*
X284093Y220593D03*
D69*
X279331Y220593D03*
D46*
X359879Y220731D03*
D41*
X331856Y220731D03*
D36*
X315636Y220731D03*
D29*
X314394Y220731D03*
D41*
X284231Y220731D03*
X279262Y220731D03*
D46*
X359879Y220869D03*
D29*
X331925Y220869D03*
D36*
X315498Y220869D03*
D67*
X314187Y220869D03*
D82*
X284300Y220869D03*
D158*
X279124Y220869D03*
D34*
X359879Y221008D03*
D73*
X332132Y221008D03*
D39*
X315498Y221008D03*
D74*
X313911Y221008D03*
D34*
X304524Y221008D03*
D87*
X284438Y221008D03*
D31*
X278986Y221008D03*
D46*
X359879Y221146D03*
D66*
X332201Y221146D03*
D32*
X315360Y221146D03*
D29*
X313704Y221146D03*
D82*
X304593Y221146D03*
X284576Y221146D03*
D41*
X278848Y221146D03*
D34*
X359879Y221284D03*
D71*
X332616Y221284D03*
D39*
X331649Y221284D03*
D43*
X315360Y221284D03*
D74*
X313497Y221284D03*
D71*
X304731Y221284D03*
D31*
X284645Y221284D03*
X278710Y221284D03*
D32*
X359810Y221422D03*
D29*
X332892Y221422D03*
D36*
X331649Y221422D03*
D41*
X315291Y221422D03*
D76*
X313220Y221422D03*
D66*
X304731Y221422D03*
D41*
X284784Y221422D03*
D32*
X278641Y221422D03*
D43*
X359810Y221560D03*
D100*
X333099Y221560D03*
D39*
X331511Y221560D03*
D34*
X326335Y221560D03*
D43*
X315222Y221560D03*
D77*
X313082Y221560D03*
D92*
X304869Y221560D03*
D69*
X284853Y221560D03*
D43*
X278503Y221560D03*
D32*
X359810Y221698D03*
D29*
X333306Y221698D03*
D36*
X331373Y221698D03*
D67*
X326197Y221698D03*
D32*
X315222Y221698D03*
D82*
X312875Y221698D03*
D76*
X305352Y221698D03*
D32*
X304317Y221698D03*
D82*
X284991Y221698D03*
D32*
X278503Y221698D03*
X359810Y221836D03*
D27*
X333651Y221836D03*
D36*
X331373Y221836D03*
D66*
X325990Y221836D03*
D36*
X315084Y221836D03*
D67*
X312668Y221836D03*
D76*
X305490Y221836D03*
D32*
X304317Y221836D03*
D102*
X285129Y221836D03*
D36*
X278364Y221836D03*
D49*
X359741Y221974D03*
D73*
X333789Y221974D03*
D43*
X331235Y221974D03*
D64*
X325782Y221974D03*
D39*
X315084Y221974D03*
D69*
X312461Y221974D03*
X305697Y221974D03*
D31*
X304248Y221974D03*
D74*
X285336Y221974D03*
D39*
X278364Y221974D03*
D47*
X359741Y222112D03*
D66*
X334134Y222112D03*
D32*
X331235Y222112D03*
D61*
X325437Y222112D03*
D41*
X315015Y222112D03*
D82*
X312323Y222112D03*
X305835Y222112D03*
D36*
X304179Y222112D03*
D45*
X297345Y222112D03*
D67*
X285474Y222112D03*
D36*
X278364Y222112D03*
D47*
X359741Y222250D03*
D75*
X334410Y222250D03*
D32*
X331097Y222250D03*
D58*
X325161Y222250D03*
D32*
X314946Y222250D03*
D82*
X312185Y222250D03*
D41*
X305904Y222250D03*
D36*
X304179Y222250D03*
D18*
X297829Y222250D03*
D67*
X285612Y222250D03*
D46*
X278295Y222250D03*
D43*
X359672Y222388D03*
D70*
X334686Y222388D03*
D69*
X331235Y222388D03*
D78*
X324885Y222388D03*
D31*
X314877Y222388D03*
D87*
X311909Y222388D03*
D31*
X306042Y222388D03*
D39*
X304179Y222388D03*
D53*
X297967Y222388D03*
D77*
X285750Y222388D03*
D43*
X278226Y222388D03*
D32*
X359672Y222526D03*
D27*
X335031Y222526D03*
D96*
X331235Y222526D03*
D82*
X325437Y222526D03*
D83*
X324057Y222526D03*
D36*
X314808Y222526D03*
D82*
X311771Y222526D03*
D41*
X306180Y222526D03*
D36*
X304179Y222526D03*
D117*
X298174Y222526D03*
D67*
X286026Y222526D03*
D32*
X278226Y222526D03*
D43*
X359672Y222664D03*
D73*
X335307Y222664D03*
D25*
X331304Y222664D03*
D69*
X325299Y222664D03*
D92*
X323643Y222664D03*
D39*
X314808Y222664D03*
D69*
X311633Y222664D03*
D31*
X306318Y222664D03*
D39*
X304179Y222664D03*
D84*
X299554Y222664D03*
D31*
X296241Y222664D03*
D74*
X286164Y222664D03*
D43*
X278226Y222664D03*
D46*
X359603Y222802D03*
D27*
X335584Y222802D03*
X331856Y222802D03*
D32*
X330821Y222802D03*
D82*
X325161Y222802D03*
D83*
X323229Y222802D03*
D32*
X314670Y222802D03*
D82*
X311495Y222802D03*
D41*
X306456Y222802D03*
X304110Y222802D03*
D81*
X300244Y222802D03*
D41*
X296241Y222802D03*
D76*
X286302Y222802D03*
D46*
X278157Y222802D03*
X359603Y222940D03*
D27*
X335860Y222940D03*
X332132Y222940D03*
D36*
X330683Y222940D03*
D82*
X325023Y222940D03*
D83*
X322814Y222940D03*
D32*
X314670Y222940D03*
D82*
X311357Y222940D03*
X306525Y222940D03*
D41*
X304110Y222940D03*
D27*
X300520Y222940D03*
D41*
X296379Y222940D03*
D29*
X286509Y222940D03*
D46*
X278157Y222940D03*
D34*
X359603Y223078D03*
D71*
X336067Y223078D03*
D74*
X332409Y223078D03*
D31*
X330614Y223078D03*
D69*
X324747Y223078D03*
D95*
X322262Y223078D03*
D31*
X314601Y223078D03*
X311150Y223078D03*
D87*
X306663Y223078D03*
D43*
X304041Y223078D03*
D71*
X300866Y223078D03*
D31*
X296379Y223078D03*
D74*
X286716Y223078D03*
D34*
X278157Y223078D03*
D36*
X359534Y223216D03*
D96*
X336343Y223216D03*
D102*
X332754Y223216D03*
D32*
X330545Y223216D03*
D102*
X324609Y223216D03*
D58*
X321710Y223216D03*
D32*
X314532Y223216D03*
D41*
X311012Y223216D03*
D82*
X306801Y223216D03*
D32*
X304041Y223216D03*
D76*
X301073Y223216D03*
D41*
X296379Y223216D03*
D29*
X286923Y223216D03*
D36*
X278088Y223216D03*
D39*
X359534Y223354D03*
D77*
X336550Y223354D03*
D31*
X332961Y223354D03*
D43*
X330407Y223354D03*
D69*
X324471Y223354D03*
D21*
X321089Y223354D03*
D31*
X314463Y223354D03*
D101*
X310874Y223354D03*
D31*
X306870Y223354D03*
D43*
X304041Y223354D03*
D74*
X301211Y223354D03*
D39*
X296448Y223354D03*
D77*
X287130Y223354D03*
D39*
X278088Y223354D03*
D36*
X359534Y223492D03*
D29*
X336757Y223492D03*
D36*
X333168Y223492D03*
X330269Y223492D03*
D82*
X324333Y223492D03*
D24*
X320399Y223492D03*
D36*
X314394Y223492D03*
D41*
X310736Y223492D03*
X307009Y223492D03*
D32*
X304041Y223492D03*
D67*
X301487Y223492D03*
D41*
X296517Y223492D03*
D96*
X287337Y223492D03*
D36*
X278088Y223492D03*
X359534Y223630D03*
D67*
X336964Y223630D03*
D41*
X333375Y223630D03*
D36*
X330269Y223630D03*
D82*
X324195Y223630D03*
D12*
X319778Y223630D03*
D41*
X314325Y223630D03*
X310598Y223630D03*
D82*
X307216Y223630D03*
D32*
X304041Y223630D03*
D76*
X301625Y223630D03*
D41*
X296517Y223630D03*
D76*
X287544Y223630D03*
D36*
X278088Y223630D03*
D31*
X359465Y223768D03*
D77*
X337240Y223768D03*
D31*
X333513Y223768D03*
D43*
X330131Y223768D03*
D31*
X323988Y223768D03*
D35*
X319018Y223768D03*
D31*
X314187Y223768D03*
D69*
X310391Y223768D03*
D87*
X307354Y223768D03*
D43*
X304041Y223768D03*
D77*
X301763Y223768D03*
D31*
X296517Y223768D03*
D77*
X287682Y223768D03*
D39*
X278088Y223768D03*
D32*
X359396Y223906D03*
D29*
X337447Y223906D03*
D41*
X333651Y223906D03*
D36*
X329993Y223906D03*
D41*
X323850Y223906D03*
D30*
X318328Y223906D03*
D36*
X314118Y223906D03*
D82*
X310253Y223906D03*
X307492Y223906D03*
D32*
X304041Y223906D03*
D82*
X301970Y223906D03*
D41*
X296655Y223906D03*
D67*
X287959Y223906D03*
D36*
X278088Y223906D03*
D32*
X359396Y224044D03*
D29*
X337723Y224044D03*
D36*
X333858Y224044D03*
X329993Y224044D03*
D41*
X323712Y224044D03*
D28*
X317707Y224044D03*
D158*
X314049Y224044D03*
D82*
X310114Y224044D03*
D67*
X307699Y224044D03*
D32*
X304041Y224044D03*
D82*
X302108Y224044D03*
D41*
X296655Y224044D03*
D67*
X288097Y224044D03*
D36*
X278088Y224044D03*
D43*
X359396Y224183D03*
D71*
X353046Y224183D03*
D73*
X337930Y224183D03*
D43*
X333996Y224183D03*
D39*
X329855Y224183D03*
D101*
X323574Y224183D03*
D80*
X317086Y224183D03*
D31*
X313911Y224183D03*
D69*
X309976Y224183D03*
X307768Y224183D03*
D31*
X303972Y224183D03*
D69*
X302246Y224183D03*
D31*
X296655Y224183D03*
D87*
X288304Y224183D03*
D39*
X278088Y224183D03*
D46*
X359327Y224321D03*
D45*
X352977Y224321D03*
D81*
X350078Y224321D03*
D27*
X338206Y224321D03*
D36*
X334134Y224321D03*
D32*
X329717Y224321D03*
D41*
X323436Y224321D03*
D232*
X316534Y224321D03*
D32*
X313842Y224321D03*
D102*
X309838Y224321D03*
D82*
X307906Y224321D03*
D41*
X303972Y224321D03*
D102*
X302384Y224321D03*
D36*
X296724Y224321D03*
D67*
X288511Y224321D03*
D36*
X278088Y224321D03*
D31*
X359189Y224459D03*
D147*
X351666Y224459D03*
D73*
X338482Y224459D03*
D43*
X334272Y224459D03*
D39*
X329579Y224459D03*
D31*
X323298Y224459D03*
D95*
X316050Y224459D03*
D31*
X313773Y224459D03*
D69*
X309700Y224459D03*
D39*
X308044Y224459D03*
D31*
X303972Y224459D03*
D69*
X302522Y224459D03*
D31*
X296793Y224459D03*
D74*
X288649Y224459D03*
D39*
X278088Y224459D03*
D82*
X359120Y224597D03*
D235*
X350147Y224597D03*
D81*
X338897Y224597D03*
D32*
X334410Y224597D03*
D36*
X329579Y224597D03*
D46*
X325368Y224597D03*
D99*
X324885Y224597D03*
D102*
X323229Y224597D03*
D98*
X315636Y224597D03*
D41*
X313635Y224597D03*
D82*
X309562Y224597D03*
D41*
X308113Y224597D03*
X303972Y224597D03*
X302729Y224597D03*
X296793Y224597D03*
D82*
X288856Y224597D03*
D36*
X278088Y224597D03*
D69*
X358982Y224735D03*
D104*
X354841Y224735D03*
D236*
X347593Y224735D03*
D80*
X339587Y224735D03*
D39*
X334548Y224735D03*
D43*
X329441Y224735D03*
D63*
X325506Y224735D03*
D31*
X323160Y224735D03*
D25*
X315153Y224735D03*
D31*
X313497Y224735D03*
D69*
X309424Y224735D03*
D31*
X308113Y224735D03*
X303972Y224735D03*
X302867Y224735D03*
X296793Y224735D03*
D87*
X288994Y224735D03*
D39*
X278088Y224735D03*
D76*
X358913Y224873D03*
D83*
X355393Y224873D03*
D237*
X344763Y224873D03*
D36*
X334686Y224873D03*
D32*
X329303Y224873D03*
D129*
X325299Y224873D03*
D66*
X314808Y224873D03*
D41*
X313497Y224873D03*
D82*
X309286Y224873D03*
D41*
X308251Y224873D03*
X303972Y224873D03*
D82*
X302936Y224873D03*
D32*
X296862Y224873D03*
D67*
X289201Y224873D03*
D36*
X278088Y224873D03*
D76*
X358775Y225011D03*
D27*
X355876Y225011D03*
D17*
X343866Y225011D03*
D36*
X334824Y225011D03*
X329164Y225011D03*
D136*
X325506Y225011D03*
D66*
X314532Y225011D03*
D41*
X313359Y225011D03*
D82*
X309148Y225011D03*
D41*
X308251Y225011D03*
X303972Y225011D03*
X303005Y225011D03*
X296931Y225011D03*
D82*
X289408Y225011D03*
D36*
X278088Y225011D03*
D195*
X357394Y225149D03*
D71*
X347524Y225149D03*
D62*
X341934Y225149D03*
D43*
X334962Y225149D03*
D161*
X328198Y225149D03*
D64*
X323298Y225149D03*
D95*
X313842Y225149D03*
D70*
X308734Y225149D03*
D31*
X303972Y225149D03*
X303143Y225149D03*
X296931Y225149D03*
X289615Y225149D03*
D39*
X278088Y225149D03*
D12*
X357463Y225287D03*
D23*
X341657Y225287D03*
D32*
X335100Y225287D03*
D81*
X328543Y225287D03*
D27*
X322884Y225287D03*
D23*
X313635Y225287D03*
D27*
X308665Y225287D03*
D32*
X304041Y225287D03*
D41*
X303281Y225287D03*
X296931Y225287D03*
X289753Y225287D03*
D36*
X278088Y225287D03*
D30*
X357532Y225425D03*
D36*
X335238Y225425D03*
D27*
X328957Y225425D03*
X322607Y225425D03*
D83*
X313428Y225425D03*
D76*
X308665Y225425D03*
D32*
X304041Y225425D03*
D41*
X303281Y225425D03*
X296931Y225425D03*
X289891Y225425D03*
D36*
X278088Y225425D03*
D87*
X358154Y225563D03*
D49*
X356566Y225563D03*
D43*
X335376Y225563D03*
D74*
X329372Y225563D03*
D71*
X322400Y225563D03*
D70*
X313151Y225563D03*
D69*
X308596Y225563D03*
D73*
X303695Y225563D03*
D31*
X296931Y225563D03*
D69*
X289960Y225563D03*
D39*
X278088Y225563D03*
D36*
X335514Y225701D03*
D76*
X329648Y225701D03*
D67*
X322193Y225701D03*
D66*
X313013Y225701D03*
D41*
X308665Y225701D03*
D29*
X303765Y225701D03*
D32*
X297000Y225701D03*
D41*
X290167Y225701D03*
D36*
X278088Y225701D03*
D34*
X335584Y225839D03*
D39*
X329993Y225839D03*
D69*
X321986Y225839D03*
D73*
X312806Y225839D03*
D31*
X308665Y225839D03*
D71*
X303765Y225839D03*
D31*
X297069Y225839D03*
D77*
X290305Y225839D03*
D39*
X278088Y225839D03*
D47*
X335722Y225977D03*
D82*
X329855Y225977D03*
X321848Y225977D03*
D29*
X312599Y225977D03*
D46*
X308665Y225977D03*
D67*
X303834Y225977D03*
D41*
X297069Y225977D03*
D33*
X289546Y225977D03*
D36*
X278088Y225977D03*
D32*
X335791Y226115D03*
D27*
X329786Y226115D03*
D67*
X321641Y226115D03*
D82*
X312461Y226115D03*
D72*
X308665Y226115D03*
D67*
X303834Y226115D03*
D41*
X297069Y226115D03*
D38*
X289408Y226115D03*
D36*
X278088Y226115D03*
D39*
X335929Y226253D03*
D70*
X329579Y226253D03*
D77*
X321365Y226253D03*
D34*
X312392Y226253D03*
D69*
X303903Y226253D03*
D31*
X297069Y226253D03*
D111*
X289339Y226253D03*
D39*
X278088Y226253D03*
D46*
X335998Y226391D03*
D27*
X329372Y226391D03*
D76*
X321227Y226391D03*
D82*
X304041Y226391D03*
D41*
X297069Y226391D03*
D60*
X289270Y226391D03*
D36*
X278088Y226391D03*
D34*
X336136Y226529D03*
D77*
X329095Y226529D03*
D167*
X321020Y226529D03*
D69*
X304041Y226529D03*
D31*
X297069Y226529D03*
D119*
X289408Y226529D03*
D39*
X278088Y226529D03*
D36*
X336205Y226667D03*
D41*
X328819Y226667D03*
D27*
X320813Y226667D03*
D41*
X304110Y226667D03*
X297069Y226667D03*
D232*
X291134Y226667D03*
D27*
X287406Y226667D03*
D36*
X278088Y226667D03*
X336343Y226805D03*
D32*
X328612Y226805D03*
D66*
X320606Y226805D03*
D41*
X304110Y226805D03*
X297069Y226805D03*
D23*
X291548Y226805D03*
D76*
X287130Y226805D03*
D36*
X278088Y226805D03*
D34*
X336412Y226943D03*
D39*
X328474Y226943D03*
D100*
X320399Y226943D03*
D39*
X304179Y226943D03*
D31*
X297069Y226943D03*
D92*
X291755Y226943D03*
D77*
X286992Y226943D03*
D34*
X278157Y226943D03*
D46*
X336550Y227081D03*
D36*
X328336Y227081D03*
D66*
X320192Y227081D03*
D36*
X304179Y227081D03*
D41*
X297069Y227081D03*
D27*
X292100Y227081D03*
D67*
X286854Y227081D03*
D46*
X278157Y227081D03*
D36*
X336619Y227219D03*
X328198Y227219D03*
D66*
X320054Y227219D03*
D36*
X304179Y227219D03*
D41*
X297069Y227219D03*
D23*
X294861Y227219D03*
D82*
X292307Y227219D03*
D67*
X286716Y227219D03*
D46*
X278157Y227219D03*
D34*
X336688Y227358D03*
D43*
X328060Y227358D03*
D73*
X319847Y227358D03*
D31*
X297069Y227358D03*
D21*
X294861Y227358D03*
D69*
X292445Y227358D03*
D77*
X286578Y227358D03*
D34*
X278157Y227358D03*
D32*
X336757Y227496D03*
X327922Y227496D03*
D96*
X319778Y227496D03*
D41*
X297069Y227496D03*
D38*
X294930Y227496D03*
D41*
X292514Y227496D03*
D102*
X286509Y227496D03*
D46*
X278157Y227496D03*
D49*
X336826Y227634D03*
D34*
X327715Y227634D03*
D77*
X319570Y227634D03*
D238*
X295275Y227634D03*
D69*
X292583Y227634D03*
X286371Y227634D03*
D34*
X278157Y227634D03*
D46*
X336964Y227772D03*
X327577Y227772D03*
D32*
X319501Y227772D03*
D51*
X296379Y227772D03*
D89*
X293273Y227772D03*
D82*
X286233Y227772D03*
D32*
X278226Y227772D03*
D39*
X337033Y227910D03*
D34*
X327439Y227910D03*
D97*
X296655Y227910D03*
D64*
X292928Y227910D03*
D31*
X286164Y227910D03*
D43*
X278226Y227910D03*
D46*
X337102Y228048D03*
D47*
X327301Y228048D03*
D96*
X296862Y228048D03*
D65*
X292652Y228048D03*
D82*
X286095Y228048D03*
D32*
X278226Y228048D03*
X337171Y228186D03*
D46*
X327163Y228186D03*
D82*
X297000Y228186D03*
D27*
X292514Y228186D03*
D41*
X286026Y228186D03*
D32*
X278226Y228186D03*
D34*
X337240Y228324D03*
X327025Y228324D03*
D31*
X297069Y228324D03*
D167*
X292445Y228324D03*
D31*
X285888Y228324D03*
D43*
X278226Y228324D03*
D46*
X337378Y228462D03*
D36*
X326818Y228462D03*
D106*
X297069Y228462D03*
D29*
X292307Y228462D03*
D41*
X285888Y228462D03*
D32*
X278226Y228462D03*
X337447Y228600D03*
X326542Y228600D03*
D29*
X292031Y228600D03*
D36*
X285819Y228600D03*
D46*
X278295Y228600D03*
D49*
X337516Y228738D03*
D69*
X326680Y228738D03*
D167*
X291893Y228738D03*
D31*
X285750Y228738D03*
D34*
X278295Y228738D03*
D46*
X337654Y228876D03*
D41*
X327025Y228876D03*
D99*
X326266Y228876D03*
D76*
X291548Y228876D03*
D41*
X285750Y228876D03*
D46*
X278295Y228876D03*
D39*
X337723Y229014D03*
D31*
X327301Y229014D03*
D105*
X326128Y229014D03*
D77*
X291410Y229014D03*
D43*
X285681Y229014D03*
D34*
X278295Y229014D03*
D46*
X337792Y229152D03*
D82*
X327508Y229152D03*
D46*
X325920Y229152D03*
D67*
X291272Y229152D03*
D41*
X285612Y229152D03*
D36*
X278364Y229152D03*
X337861Y229290D03*
D102*
X327784Y229290D03*
D41*
X325644Y229290D03*
D76*
X290995Y229290D03*
D41*
X285612Y229290D03*
D36*
X278364Y229290D03*
D34*
X337930Y229428D03*
D69*
X327922Y229428D03*
D31*
X325506Y229428D03*
D77*
X290857Y229428D03*
D39*
X285543Y229428D03*
X278364Y229428D03*
D46*
X337930Y229566D03*
D82*
X328198Y229566D03*
D41*
X325368Y229566D03*
D76*
X290719Y229566D03*
D158*
X285474Y229566D03*
D36*
X278364Y229566D03*
D34*
X338068Y229704D03*
D69*
X328336Y229704D03*
D31*
X325368Y229704D03*
D71*
X290650Y229704D03*
D101*
X285474Y229704D03*
D34*
X278434Y229704D03*
D46*
X338068Y229842D03*
D41*
X328543Y229842D03*
D36*
X325161Y229842D03*
D96*
X290512Y229842D03*
D82*
X285405Y229842D03*
D46*
X278434Y229842D03*
D47*
X338206Y229980D03*
D82*
X328750Y229980D03*
D36*
X325023Y229980D03*
D67*
X290443Y229980D03*
D41*
X285336Y229980D03*
D46*
X278434Y229980D03*
D49*
X338206Y230118D03*
D31*
X328957Y230118D03*
D43*
X324747Y230118D03*
D77*
X290305Y230118D03*
D31*
X285336Y230118D03*
D43*
X278503Y230118D03*
D47*
X338206Y230256D03*
D41*
X329095Y230256D03*
D36*
X324609Y230256D03*
D51*
X292790Y230256D03*
D76*
X290305Y230256D03*
D82*
X285267Y230256D03*
D32*
X278503Y230256D03*
D46*
X338344Y230394D03*
D41*
X329234Y230394D03*
D32*
X324471Y230394D03*
D20*
X292928Y230394D03*
D76*
X290167Y230394D03*
D41*
X285198Y230394D03*
D32*
X278503Y230394D03*
D34*
X338344Y230533D03*
D31*
X329372Y230533D03*
D39*
X324333Y230533D03*
D62*
X293204Y230533D03*
D77*
X290167Y230533D03*
D31*
X285198Y230533D03*
D43*
X278503Y230533D03*
D46*
X338344Y230671D03*
D41*
X329510Y230671D03*
D32*
X324195Y230671D03*
D79*
X294723Y230671D03*
X290857Y230671D03*
D41*
X285198Y230671D03*
D47*
X278572Y230671D03*
D34*
X338344Y230809D03*
D31*
X329648Y230809D03*
D49*
X324126Y230809D03*
D64*
X295413Y230809D03*
D91*
X290581Y230809D03*
D87*
X285129Y230809D03*
D49*
X278572Y230809D03*
D46*
X338344Y230947D03*
D36*
X329855Y230947D03*
D46*
X323988Y230947D03*
D27*
X295965Y230947D03*
X290581Y230947D03*
D41*
X285060Y230947D03*
D47*
X278572Y230947D03*
D34*
X338482Y231085D03*
D39*
X329993Y231085D03*
D34*
X323850Y231085D03*
D167*
X296310Y231085D03*
D43*
X290512Y231085D03*
D31*
X285060Y231085D03*
D43*
X278641Y231085D03*
D46*
X338482Y231223D03*
D32*
X330131Y231223D03*
D46*
X323712Y231223D03*
D76*
X296655Y231223D03*
D41*
X284922Y231223D03*
D32*
X278641Y231223D03*
D46*
X338482Y231361D03*
D36*
X330269Y231361D03*
X323643Y231361D03*
D67*
X296931Y231361D03*
D41*
X284922Y231361D03*
D32*
X278641Y231361D03*
D34*
X338482Y231499D03*
D31*
X330338Y231499D03*
D39*
X323505Y231499D03*
D69*
X297276Y231499D03*
D31*
X284922Y231499D03*
D43*
X278641Y231499D03*
D46*
X338482Y231637D03*
D41*
X330476Y231637D03*
D32*
X323367Y231637D03*
D41*
X297484Y231637D03*
X284784Y231637D03*
D46*
X278710Y231637D03*
X338482Y231775D03*
D32*
X330545Y231775D03*
D36*
X323229Y231775D03*
D82*
X297691Y231775D03*
D41*
X284784Y231775D03*
D46*
X278710Y231775D03*
D34*
X338620Y231913D03*
D39*
X330683Y231913D03*
D43*
X323091Y231913D03*
D31*
X297898Y231913D03*
X284784Y231913D03*
D34*
X278710Y231913D03*
D46*
X338620Y232051D03*
D32*
X330821Y232051D03*
X322953Y232051D03*
D158*
X298174Y232051D03*
D41*
X284784Y232051D03*
D46*
X278710Y232051D03*
D34*
X338620Y232189D03*
X330890Y232189D03*
D39*
X322814Y232189D03*
D31*
X298312Y232189D03*
D39*
X284714Y232189D03*
X278779Y232189D03*
D46*
X338620Y232327D03*
D36*
X330959Y232327D03*
D32*
X322676Y232327D03*
D41*
X298450Y232327D03*
D36*
X284714Y232327D03*
X278779Y232327D03*
D46*
X338620Y232465D03*
X331028Y232465D03*
D36*
X322538Y232465D03*
D32*
X298657Y232465D03*
D36*
X284714Y232465D03*
X278779Y232465D03*
D34*
X338620Y232603D03*
D43*
X331097Y232603D03*
X322262Y232603D03*
D31*
X298864Y232603D03*
D39*
X284714Y232603D03*
X278779Y232603D03*
D46*
X338620Y232741D03*
D47*
X331166Y232741D03*
D36*
X322124Y232741D03*
D41*
X299002Y232741D03*
D32*
X284576Y232741D03*
D36*
X278779Y232741D03*
D34*
X338620Y232879D03*
D43*
X331235Y232879D03*
D31*
X321917Y232879D03*
D39*
X299209Y232879D03*
D43*
X284576Y232879D03*
D39*
X278779Y232879D03*
D46*
X338620Y233017D03*
X331304Y233017D03*
D32*
X321710Y233017D03*
D41*
X299416Y233017D03*
D32*
X284576Y233017D03*
D36*
X278779Y233017D03*
D99*
X338689Y233155D03*
D36*
X331373Y233155D03*
D41*
X321503Y233155D03*
X299554Y233155D03*
D36*
X284438Y233155D03*
X278779Y233155D03*
D105*
X338689Y233293D03*
D39*
X331511Y233293D03*
D31*
X321227Y233293D03*
X299830Y233293D03*
D39*
X284438Y233293D03*
D34*
X278848Y233293D03*
D99*
X338689Y233431D03*
D46*
X331580Y233431D03*
D41*
X321089Y233431D03*
D82*
X300037Y233431D03*
D36*
X284438Y233431D03*
D46*
X278848Y233431D03*
D99*
X338689Y233569D03*
D36*
X331649Y233569D03*
D41*
X320813Y233569D03*
D102*
X300313Y233569D03*
D46*
X284369Y233569D03*
X278848Y233569D03*
D34*
X338620Y233708D03*
X331718Y233708D03*
D69*
X320606Y233708D03*
D43*
X310667Y233708D03*
D69*
X300589Y233708D03*
D43*
X284300Y233708D03*
D34*
X278848Y233708D03*
D46*
X338620Y233846D03*
X331718Y233846D03*
D158*
X320399Y233846D03*
D66*
X310667Y233846D03*
D76*
X300935Y233846D03*
D47*
X284231Y233846D03*
D46*
X278848Y233846D03*
D34*
X338620Y233984D03*
D43*
X331925Y233984D03*
D31*
X320123Y233984D03*
D64*
X310598Y233984D03*
D167*
X301280Y233984D03*
D49*
X284231Y233984D03*
D34*
X278848Y233984D03*
D46*
X338620Y234122D03*
D32*
X331925Y234122D03*
D41*
X319847Y234122D03*
X311426Y234122D03*
X309907Y234122D03*
D29*
X301556Y234122D03*
D32*
X284162Y234122D03*
D46*
X278848Y234122D03*
D34*
X338620Y234260D03*
D43*
X331925Y234260D03*
D69*
X319639Y234260D03*
D31*
X311564Y234260D03*
X309631Y234260D03*
D167*
X301970Y234260D03*
D43*
X284162Y234260D03*
D34*
X278848Y234260D03*
D46*
X338620Y234398D03*
X331994Y234398D03*
D102*
X319363Y234398D03*
D41*
X311840Y234398D03*
X309493Y234398D03*
D29*
X302384Y234398D03*
D36*
X284024Y234398D03*
D46*
X278848Y234398D03*
X338620Y234536D03*
X331994Y234536D03*
D82*
X319087Y234536D03*
D30*
X311012Y234536D03*
D36*
X309286Y234536D03*
D67*
X302729Y234536D03*
D36*
X284024Y234536D03*
D46*
X278848Y234536D03*
D34*
X338620Y234674D03*
X331994Y234674D03*
D69*
X318811Y234674D03*
D56*
X310667Y234674D03*
D77*
X303005Y234674D03*
D39*
X284024Y234674D03*
D34*
X278848Y234674D03*
D104*
X266217Y234674D03*
D46*
X338620Y234812D03*
D36*
X332063Y234812D03*
D82*
X318535Y234812D03*
D60*
X310667Y234812D03*
D76*
X303419Y234812D03*
D46*
X283955Y234812D03*
X278848Y234812D03*
D48*
X266217Y234812D03*
D66*
X355255Y234950D03*
D46*
X338620Y234950D03*
D36*
X332063Y234950D03*
D102*
X318259Y234950D03*
D122*
X310736Y234950D03*
D76*
X303695Y234950D03*
D36*
X283886Y234950D03*
D46*
X278848Y234950D03*
D113*
X266217Y234950D03*
D70*
X355255Y235088D03*
D226*
X338551Y235088D03*
D39*
X332063Y235088D03*
D69*
X317983Y235088D03*
D128*
X310736Y235088D03*
D71*
X304041Y235088D03*
D39*
X283886Y235088D03*
D34*
X278848Y235088D03*
D116*
X266148Y235088D03*
D66*
X355255Y235226D03*
D46*
X338482Y235226D03*
D36*
X332063Y235226D03*
D76*
X317638Y235226D03*
D30*
X312668Y235226D03*
D28*
X308872Y235226D03*
D96*
X304455Y235226D03*
D36*
X283748Y235226D03*
D46*
X278848Y235226D03*
D129*
X266079Y235226D03*
D70*
X355255Y235364D03*
D34*
X338482Y235364D03*
D39*
X332063Y235364D03*
D100*
X317224Y235364D03*
D78*
X313290Y235364D03*
D104*
X308320Y235364D03*
D97*
X304938Y235364D03*
D31*
X283679Y235364D03*
D34*
X278848Y235364D03*
D84*
X267942Y235364D03*
D78*
X264284Y235364D03*
D66*
X355255Y235502D03*
D46*
X338482Y235502D03*
D36*
X332063Y235502D03*
D85*
X314946Y235502D03*
D60*
X306801Y235502D03*
D41*
X283679Y235502D03*
D46*
X278848Y235502D03*
D61*
X268425Y235502D03*
D51*
X263801Y235502D03*
D66*
X355255Y235640D03*
D46*
X338482Y235640D03*
D36*
X332063Y235640D03*
D59*
X314877Y235640D03*
D20*
X306870Y235640D03*
D41*
X283541Y235640D03*
D46*
X278848Y235640D03*
D23*
X268770Y235640D03*
D61*
X263456Y235640D03*
D70*
X355255Y235778D03*
D34*
X338482Y235778D03*
D39*
X332063Y235778D03*
D97*
X315567Y235778D03*
X313773Y235778D03*
D80*
X307009Y235778D03*
D31*
X283541Y235778D03*
D34*
X278848Y235778D03*
D92*
X268978Y235778D03*
D64*
X263111Y235778D03*
D66*
X355255Y235916D03*
D46*
X338344Y235916D03*
D36*
X332063Y235916D03*
D81*
X314049Y235916D03*
X307147Y235916D03*
D41*
X283403Y235916D03*
D46*
X278848Y235916D03*
D65*
X269185Y235916D03*
X262835Y235916D03*
D70*
X355255Y236054D03*
D34*
X338344Y236054D03*
D39*
X332063Y236054D03*
D70*
X314256Y236054D03*
X306940Y236054D03*
D31*
X283403Y236054D03*
D43*
X278917Y236054D03*
D97*
X269461Y236054D03*
D25*
X262559Y236054D03*
D66*
X355255Y236192D03*
D46*
X338344Y236192D03*
X331994Y236192D03*
D27*
X314463Y236192D03*
D66*
X306663Y236192D03*
D41*
X283265Y236192D03*
D32*
X278917Y236192D03*
D66*
X269668Y236192D03*
X262351Y236192D03*
X355255Y236330D03*
D46*
X338344Y236330D03*
X331994Y236330D03*
D27*
X314601Y236330D03*
X306456Y236330D03*
D41*
X283127Y236330D03*
D32*
X278917Y236330D03*
D27*
X269875Y236330D03*
D66*
X262075Y236330D03*
D70*
X355255Y236468D03*
D49*
X338206Y236468D03*
D34*
X331994Y236468D03*
D73*
X314739Y236468D03*
D71*
X306249Y236468D03*
D69*
X283058Y236468D03*
D43*
X278917Y236468D03*
D73*
X270013Y236468D03*
X261868Y236468D03*
D66*
X355255Y236606D03*
D47*
X338206Y236606D03*
D46*
X331994Y236606D03*
D29*
X314946Y236606D03*
X306111Y236606D03*
D82*
X282920Y236606D03*
D32*
X278917Y236606D03*
D27*
X270151Y236606D03*
D29*
X261661Y236606D03*
D66*
X355255Y236744D03*
D47*
X338206Y236744D03*
D46*
X332132Y236744D03*
D29*
X315084Y236744D03*
X305973Y236744D03*
D82*
X282782Y236744D03*
D32*
X278917Y236744D03*
D29*
X270358Y236744D03*
X261523Y236744D03*
D70*
X355255Y236883D03*
D49*
X338206Y236883D03*
D34*
X332132Y236883D03*
D71*
X315222Y236883D03*
D74*
X305766Y236883D03*
D77*
X282575Y236883D03*
D34*
X278986Y236883D03*
D71*
X270496Y236883D03*
D167*
X261385Y236883D03*
D66*
X355255Y237021D03*
D46*
X338068Y237021D03*
X332132Y237021D03*
D96*
X315360Y237021D03*
D76*
X305628Y237021D03*
D82*
X282368Y237021D03*
D46*
X278986Y237021D03*
D29*
X270634Y237021D03*
D76*
X261178Y237021D03*
D70*
X355255Y237159D03*
D34*
X338068Y237159D03*
X332132Y237159D03*
D71*
X315498Y237159D03*
D77*
X305490Y237159D03*
D74*
X282161Y237159D03*
D34*
X278986Y237159D03*
D71*
X270772Y237159D03*
D77*
X261040Y237159D03*
D66*
X355255Y237297D03*
D46*
X338068Y237297D03*
X332270Y237297D03*
D76*
X315567Y237297D03*
X305352Y237297D03*
D102*
X281954Y237297D03*
D36*
X279055Y237297D03*
D96*
X270910Y237297D03*
D76*
X260902Y237297D03*
D70*
X355255Y237435D03*
D34*
X337930Y237435D03*
X332270Y237435D03*
D77*
X315705Y237435D03*
D69*
X305283Y237435D03*
D74*
X281747Y237435D03*
D39*
X279055Y237435D03*
D74*
X270979Y237435D03*
X260764Y237435D03*
D66*
X355255Y237573D03*
D46*
X337930Y237573D03*
X332270Y237573D03*
D67*
X315843Y237573D03*
D82*
X305145Y237573D03*
D76*
X281470Y237573D03*
D36*
X279055Y237573D03*
D76*
X271117Y237573D03*
D82*
X260695Y237573D03*
D66*
X355255Y237711D03*
D36*
X337861Y237711D03*
D46*
X332409Y237711D03*
D82*
X315912Y237711D03*
D67*
X305076Y237711D03*
D29*
X281263Y237711D03*
D36*
X279055Y237711D03*
D76*
X271255Y237711D03*
D82*
X260557Y237711D03*
D70*
X355255Y237849D03*
D34*
X337792Y237849D03*
X332409Y237849D03*
D69*
X316050Y237849D03*
D77*
X304938Y237849D03*
D167*
X280987Y237849D03*
D34*
X279124Y237849D03*
D69*
X271324Y237849D03*
D77*
X260488Y237849D03*
D66*
X355255Y237987D03*
D46*
X337792Y237987D03*
D32*
X332478Y237987D03*
D41*
X316119Y237987D03*
D76*
X304800Y237987D03*
D29*
X280711Y237987D03*
D36*
X279193Y237987D03*
D82*
X271462Y237987D03*
D76*
X260350Y237987D03*
D66*
X355255Y238125D03*
D46*
X337654Y238125D03*
D47*
X332547Y238125D03*
D102*
X316188Y238125D03*
D82*
X304731Y238125D03*
D51*
X279952Y238125D03*
D41*
X271531Y238125D03*
D67*
X260212Y238125D03*
D70*
X355255Y238263D03*
D34*
X337654Y238263D03*
D43*
X332616Y238263D03*
D31*
X316257Y238263D03*
D69*
X304593Y238263D03*
D64*
X279814Y238263D03*
D69*
X271600Y238263D03*
X260143Y238263D03*
D66*
X355255Y238401D03*
D47*
X337516Y238401D03*
D46*
X332685Y238401D03*
D41*
X316395Y238401D03*
D67*
X304524Y238401D03*
D81*
X279814Y238401D03*
D41*
X271669Y238401D03*
D82*
X260005Y238401D03*
D70*
X355255Y238539D03*
D49*
X337516Y238539D03*
D39*
X332754Y238539D03*
X316464Y238539D03*
D69*
X304455Y238539D03*
D74*
X279676Y238539D03*
D31*
X271807Y238539D03*
D74*
X259936Y238539D03*
D66*
X355255Y238677D03*
D46*
X337378Y238677D03*
X332823Y238677D03*
D41*
X316534Y238677D03*
D82*
X304317Y238677D03*
D32*
X271876Y238677D03*
D82*
X259867Y238677D03*
D66*
X355255Y238815D03*
D36*
X337309Y238815D03*
D32*
X332892Y238815D03*
X316603Y238815D03*
D41*
X304248Y238815D03*
X271945Y238815D03*
D102*
X259729Y238815D03*
D70*
X355255Y238953D03*
D34*
X337240Y238953D03*
X332961Y238953D03*
D49*
X316672Y238953D03*
D87*
X304179Y238953D03*
D39*
X272014Y238953D03*
D31*
X259660Y238953D03*
D66*
X355255Y239091D03*
D32*
X337171Y239091D03*
D46*
X333099Y239091D03*
D32*
X316741Y239091D03*
D82*
X304041Y239091D03*
D46*
X272084Y239091D03*
D82*
X259591Y239091D03*
D70*
X355255Y239229D03*
D39*
X337033Y239229D03*
X333168Y239229D03*
D34*
X316810Y239229D03*
D69*
X304041Y239229D03*
D43*
X272153Y239229D03*
D69*
X259453Y239229D03*
D66*
X355255Y239367D03*
D46*
X336964Y239367D03*
D32*
X333306Y239367D03*
D36*
X316879Y239367D03*
D41*
X303972Y239367D03*
D47*
X272222Y239367D03*
D82*
X259453Y239367D03*
D66*
X355255Y239505D03*
D32*
X336895Y239505D03*
D46*
X333375Y239505D03*
X316948Y239505D03*
D82*
X303903Y239505D03*
D32*
X272291Y239505D03*
D41*
X259384Y239505D03*
D70*
X355255Y239643D03*
D43*
X336757Y239643D03*
D39*
X333444Y239643D03*
D226*
X317017Y239643D03*
D31*
X303834Y239643D03*
D34*
X272360Y239643D03*
D69*
X259314Y239643D03*
D66*
X355255Y239781D03*
D36*
X336619Y239781D03*
D32*
X333582Y239781D03*
D103*
X317017Y239781D03*
D82*
X303764Y239781D03*
D99*
X272429Y239781D03*
D41*
X259245Y239781D03*
D66*
X355255Y239919D03*
D32*
X336481Y239919D03*
X333720Y239919D03*
D99*
X317155Y239919D03*
D82*
X303764Y239919D03*
D99*
X272429Y239919D03*
D82*
X259176Y239919D03*
D70*
X355255Y240058D03*
D39*
X336343Y240058D03*
X333858Y240058D03*
D105*
X317155Y240058D03*
D31*
X303695Y240058D03*
D226*
X272567Y240058D03*
D69*
X259176Y240058D03*
D66*
X355255Y240196D03*
D41*
X336136Y240196D03*
D32*
X333996Y240196D03*
D106*
X317224Y240196D03*
D41*
X303695Y240196D03*
D103*
X272567Y240196D03*
D41*
X259107Y240196D03*
D70*
X355255Y240334D03*
D77*
X335860Y240334D03*
D74*
X334341Y240334D03*
D31*
X303695Y240334D03*
D206*
X272636Y240334D03*
D31*
X259107Y240334D03*
D66*
X355255Y240472D03*
D58*
X335100Y240472D03*
D41*
X303557Y240472D03*
X259107Y240472D03*
D70*
X355255Y240610D03*
D92*
X335100Y240610D03*
D31*
X303557Y240610D03*
X258969Y240610D03*
D66*
X355255Y240748D03*
D32*
X335100Y240748D03*
D41*
X303557Y240748D03*
X258969Y240748D03*
D66*
X355255Y240886D03*
D41*
X303557Y240886D03*
X258969Y240886D03*
D70*
X355255Y241024D03*
D31*
X303557Y241024D03*
X258969Y241024D03*
D66*
X355255Y241162D03*
D41*
X303557Y241162D03*
X258969Y241162D03*
D66*
X355255Y241300D03*
D41*
X303557Y241300D03*
X258969Y241300D03*
D70*
X355255Y241438D03*
D31*
X303557Y241438D03*
X258969Y241438D03*
D66*
X355255Y241576D03*
D41*
X303557Y241576D03*
X258969Y241576D03*
D70*
X355255Y241714D03*
D31*
X303557Y241714D03*
X258969Y241714D03*
D66*
X355255Y241852D03*
D41*
X303557Y241852D03*
X258969Y241852D03*
D66*
X355255Y241990D03*
D41*
X303557Y241990D03*
X258969Y241990D03*
D70*
X355255Y242128D03*
D31*
X303557Y242128D03*
X258969Y242128D03*
D66*
X355255Y242266D03*
D41*
X303557Y242266D03*
X258969Y242266D03*
D70*
X355255Y242404D03*
D31*
X303557Y242404D03*
X258969Y242404D03*
D66*
X355255Y242542D03*
D82*
X303626Y242542D03*
D41*
X258969Y242542D03*
D66*
X355255Y242680D03*
D41*
X303695Y242680D03*
D102*
X259038Y242680D03*
D70*
X355255Y242818D03*
D31*
X303695Y242818D03*
X259107Y242818D03*
D66*
X355255Y242956D03*
D41*
X303695Y242956D03*
X259107Y242956D03*
D66*
X355255Y243094D03*
D41*
X303695Y243094D03*
X259107Y243094D03*
D70*
X355255Y243233D03*
D69*
X303764Y243233D03*
D31*
X259107Y243233D03*
D66*
X355255Y243371D03*
D41*
X303834Y243371D03*
D82*
X259176Y243371D03*
D70*
X355255Y243509D03*
D31*
X303834Y243509D03*
X259245Y243509D03*
D66*
X355255Y243647D03*
D82*
X303903Y243647D03*
D41*
X259245Y243647D03*
D70*
X355255Y243785D03*
D31*
X303972Y243785D03*
D69*
X259314Y243785D03*
D66*
X355255Y243923D03*
D41*
X303972Y243923D03*
X259384Y243923D03*
D66*
X355255Y244061D03*
D82*
X304041Y244061D03*
D41*
X259384Y244061D03*
D70*
X355255Y244199D03*
D31*
X304110Y244199D03*
D69*
X259453Y244199D03*
D66*
X355255Y244337D03*
D41*
X304110Y244337D03*
X259522Y244337D03*
D66*
X355255Y244475D03*
D102*
X304179Y244475D03*
D41*
X259522Y244475D03*
D70*
X355255Y244613D03*
D31*
X304248Y244613D03*
D69*
X259591Y244613D03*
D66*
X355255Y244751D03*
D82*
X304317Y244751D03*
D41*
X259660Y244751D03*
D70*
X355255Y244889D03*
D31*
X304386Y244889D03*
D87*
X259729Y244889D03*
D66*
X355255Y245027D03*
D82*
X304455Y245027D03*
D41*
X259798Y245027D03*
D66*
X355255Y245165D03*
D158*
X304524Y245165D03*
D82*
X259867Y245165D03*
D70*
X355255Y245303D03*
D69*
X304593Y245303D03*
D31*
X259936Y245303D03*
D66*
X355255Y245441D03*
D82*
X304731Y245441D03*
X260005Y245441D03*
D70*
X355255Y245579D03*
D69*
X304731Y245579D03*
X260143Y245579D03*
D66*
X355255Y245717D03*
D102*
X304869Y245717D03*
D82*
X260143Y245717D03*
D66*
X355255Y245855D03*
D41*
X304938Y245855D03*
D82*
X260281Y245855D03*
D70*
X355255Y245993D03*
D69*
X305007Y245993D03*
D31*
X260350Y245993D03*
D66*
X355255Y246131D03*
D82*
X305145Y246131D03*
D102*
X260419Y246131D03*
D66*
X355255Y246269D03*
D82*
X305145Y246269D03*
X260557Y246269D03*
D70*
X355255Y246408D03*
D69*
X305283Y246408D03*
X260557Y246408D03*
D66*
X355255Y246546D03*
D82*
X305421Y246546D03*
X260695Y246546D03*
D70*
X355255Y246684D03*
D77*
X305490Y246684D03*
D69*
X260833Y246684D03*
D66*
X355255Y246822D03*
D76*
X305628Y246822D03*
X260902Y246822D03*
D70*
X355255Y246960D03*
D69*
X305697Y246960D03*
D77*
X261040Y246960D03*
D66*
X355255Y247098D03*
D82*
X305835Y247098D03*
D102*
X261109Y247098D03*
D66*
X355255Y247236D03*
D82*
X305973Y247236D03*
X261247Y247236D03*
D70*
X355255Y247374D03*
D77*
X306042Y247374D03*
D69*
X261385Y247374D03*
D66*
X355255Y247512D03*
D76*
X306180Y247512D03*
D67*
X261454Y247512D03*
D66*
X355255Y247650D03*
D67*
X306318Y247650D03*
D76*
X261592Y247650D03*
D70*
X355255Y247788D03*
D74*
X306456Y247788D03*
D77*
X261730Y247788D03*
D66*
X355255Y247926D03*
D29*
X306663Y247926D03*
D67*
X261868Y247926D03*
D70*
X355255Y248064D03*
D71*
X306801Y248064D03*
X262075Y248064D03*
D66*
X355255Y248202D03*
D29*
X306940Y248202D03*
X262213Y248202D03*
D66*
X355255Y248340D03*
D27*
X307147Y248340D03*
D29*
X262351Y248340D03*
D70*
X355255Y248478D03*
D71*
X307354Y248478D03*
D73*
X262559Y248478D03*
D66*
X355255Y248616D03*
D27*
X307561Y248616D03*
D29*
X262766Y248616D03*
D70*
X355255Y248754D03*
D100*
X307699Y248754D03*
D73*
X262973Y248754D03*
D66*
X355255Y248892D03*
D27*
X307975Y248892D03*
X263111Y248892D03*
D66*
X355255Y249030D03*
X308182Y249030D03*
D27*
X263387Y249030D03*
D70*
X355255Y249168D03*
D73*
X308389Y249168D03*
D70*
X263594Y249168D03*
D66*
X355255Y249306D03*
X308596Y249306D03*
D27*
X263801Y249306D03*
D66*
X355255Y249444D03*
X308872Y249444D03*
X264008Y249444D03*
D70*
X355255Y249583D03*
D73*
X309079Y249583D03*
D70*
X264284Y249583D03*
D66*
X355255Y249721D03*
X309286Y249721D03*
D27*
X264491Y249721D03*
D70*
X355255Y249859D03*
D212*
X309562Y249859D03*
D70*
X264698Y249859D03*
D66*
X355255Y249997D03*
D27*
X309769Y249997D03*
D66*
X264974Y249997D03*
D70*
X355255Y250135D03*
X309976Y250135D03*
D73*
X265181Y250135D03*
D66*
X355255Y250273D03*
D27*
X310184Y250273D03*
D66*
X265388Y250273D03*
X355255Y250411D03*
D27*
X310460Y250411D03*
X265595Y250411D03*
D70*
X355255Y250549D03*
D73*
X310598Y250549D03*
X265872Y250549D03*
D66*
X355255Y250687D03*
D96*
X310805Y250687D03*
D27*
X266010Y250687D03*
D239*
X352149Y250825D03*
D96*
X310943Y250825D03*
D29*
X266217Y250825D03*
D240*
X352149Y250963D03*
D71*
X311219Y250963D03*
D167*
X266355Y250963D03*
D239*
X352149Y251101D03*
D29*
X311357Y251101D03*
X266631Y251101D03*
D240*
X352149Y251239D03*
D167*
X311495Y251239D03*
D71*
X266769Y251239D03*
D239*
X352149Y251377D03*
D76*
X311702Y251377D03*
D29*
X266907Y251377D03*
D239*
X352149Y251515D03*
D76*
X311840Y251515D03*
D67*
X267114Y251515D03*
D70*
X355255Y251653D03*
D77*
X311978Y251653D03*
X267252Y251653D03*
D66*
X355255Y251791D03*
D67*
X312116Y251791D03*
D76*
X267390Y251791D03*
D70*
X355255Y251929D03*
D74*
X312254Y251929D03*
D77*
X267528Y251929D03*
D66*
X355255Y252067D03*
D76*
X312392Y252067D03*
D67*
X267666Y252067D03*
D66*
X355255Y252205D03*
D76*
X312530Y252205D03*
D67*
X267804Y252205D03*
D70*
X355255Y252343D03*
D74*
X312668Y252343D03*
D77*
X267942Y252343D03*
D66*
X355255Y252481D03*
D82*
X312737Y252481D03*
D76*
X268080Y252481D03*
D66*
X355255Y252619D03*
D82*
X312875Y252619D03*
X268149Y252619D03*
D70*
X355255Y252758D03*
D87*
X313013Y252758D03*
D69*
X268287Y252758D03*
D66*
X355255Y252896D03*
D102*
X313013Y252896D03*
D82*
X268425Y252896D03*
D70*
X355255Y253034D03*
D69*
X313151Y253034D03*
X268425Y253034D03*
D66*
X355255Y253172D03*
D41*
X313220Y253172D03*
D102*
X268563Y253172D03*
D70*
X355255Y253310D03*
D69*
X313289Y253310D03*
D31*
X268632Y253310D03*
D66*
X355255Y253448D03*
D41*
X313359Y253448D03*
D82*
X268701Y253448D03*
D66*
X355255Y253586D03*
D82*
X313428Y253586D03*
D41*
X268770Y253586D03*
D70*
X355255Y253724D03*
D31*
X313497Y253724D03*
D69*
X268839Y253724D03*
D66*
X355255Y253862D03*
D41*
X313497Y253862D03*
X268909Y253862D03*
D66*
X355255Y254000D03*
D82*
X313566Y254000D03*
D41*
X268909Y254000D03*
D70*
X355255Y254138D03*
D31*
X313635Y254138D03*
D69*
X268978Y254138D03*
D66*
X355255Y254276D03*
D41*
X313635Y254276D03*
X269047Y254276D03*
D70*
X355255Y254414D03*
D31*
X313635Y254414D03*
X269047Y254414D03*
D66*
X355255Y254552D03*
D102*
X313704Y254552D03*
D41*
X269047Y254552D03*
D66*
X355255Y254690D03*
D41*
X313773Y254690D03*
D82*
X269116Y254690D03*
D70*
X355255Y254828D03*
D31*
X313773Y254828D03*
X269185Y254828D03*
D66*
X355255Y254966D03*
D41*
X313773Y254966D03*
X269185Y254966D03*
D70*
X355255Y255104D03*
D31*
X313773Y255104D03*
X269185Y255104D03*
D66*
X355255Y255242D03*
D41*
X313773Y255242D03*
X269185Y255242D03*
D66*
X355255Y255380D03*
D41*
X313773Y255380D03*
X269185Y255380D03*
D70*
X355255Y255518D03*
D31*
X313773Y255518D03*
X269185Y255518D03*
D66*
X355255Y255656D03*
D41*
X313773Y255656D03*
X269185Y255656D03*
D66*
X355255Y255794D03*
D41*
X313773Y255794D03*
X269185Y255794D03*
D70*
X355255Y255933D03*
D31*
X313773Y255933D03*
X269185Y255933D03*
D66*
X355255Y256071D03*
D41*
X313773Y256071D03*
X269185Y256071D03*
D70*
X355255Y256209D03*
D87*
X313704Y256209D03*
D31*
X269185Y256209D03*
D66*
X355255Y256347D03*
D41*
X313635Y256347D03*
D82*
X269116Y256347D03*
D70*
X355255Y256485D03*
D31*
X313635Y256485D03*
X269047Y256485D03*
D66*
X355255Y256623D03*
D82*
X313566Y256623D03*
D41*
X269047Y256623D03*
D66*
X355255Y256761D03*
D41*
X313497Y256761D03*
D82*
X268978Y256761D03*
D70*
X355255Y256899D03*
D31*
X313497Y256899D03*
X268909Y256899D03*
D66*
X355255Y257037D03*
D82*
X313428Y257037D03*
D46*
X303005Y257037D03*
D41*
X268909Y257037D03*
D66*
X355255Y257175D03*
D41*
X313359Y257175D03*
D36*
X303074Y257175D03*
D82*
X268839Y257175D03*
D46*
X258417Y257175D03*
D70*
X355255Y257313D03*
D69*
X313289Y257313D03*
D31*
X303143Y257313D03*
X268770Y257313D03*
D39*
X258486Y257313D03*
D66*
X355255Y257451D03*
D82*
X313151Y257451D03*
X303212Y257451D03*
X268701Y257451D03*
D41*
X258555Y257451D03*
D70*
X355255Y257589D03*
D31*
X313082Y257589D03*
D74*
X303281Y257589D03*
D87*
X268563Y257589D03*
D69*
X258624Y257589D03*
D66*
X355255Y257727D03*
D102*
X313013Y257727D03*
D29*
X303350Y257727D03*
D41*
X293204Y257727D03*
X268494Y257727D03*
D82*
X258762Y257727D03*
D66*
X355255Y257865D03*
D82*
X312875Y257865D03*
D29*
X303488Y257865D03*
D41*
X293066Y257865D03*
D82*
X268425Y257865D03*
X258900Y257865D03*
D70*
X355255Y258003D03*
D69*
X312737Y258003D03*
D73*
X303695Y258003D03*
D31*
X292928Y258003D03*
D69*
X268287Y258003D03*
D87*
X259038Y258003D03*
D66*
X355255Y258141D03*
D67*
X312668Y258141D03*
D27*
X303834Y258141D03*
D41*
X292928Y258141D03*
D82*
X268149Y258141D03*
D76*
X259245Y258141D03*
D70*
X355255Y258279D03*
D77*
X312530Y258279D03*
D73*
X303972Y258279D03*
D31*
X292790Y258279D03*
D77*
X268080Y258279D03*
D74*
X259384Y258279D03*
D66*
X355255Y258417D03*
D106*
X322331Y258417D03*
D76*
X312392Y258417D03*
D27*
X304248Y258417D03*
D41*
X292652Y258417D03*
D76*
X267942Y258417D03*
D67*
X259522Y258417D03*
D66*
X355255Y258555D03*
D47*
X322331Y258555D03*
D67*
X312254Y258555D03*
D66*
X304455Y258555D03*
D41*
X292652Y258555D03*
D67*
X267804Y258555D03*
D29*
X259729Y258555D03*
D70*
X355255Y258693D03*
D43*
X322262Y258693D03*
D74*
X312116Y258693D03*
D70*
X304593Y258693D03*
D31*
X292514Y258693D03*
D74*
X267666Y258693D03*
D73*
X259936Y258693D03*
D66*
X355255Y258831D03*
D82*
X322262Y258831D03*
D29*
X311909Y258831D03*
D66*
X304869Y258831D03*
D32*
X292445Y258831D03*
D76*
X267528Y258831D03*
D166*
X260074Y258831D03*
D66*
X355255Y258969D03*
D82*
X322400Y258969D03*
D29*
X311771Y258969D03*
D81*
X305076Y258969D03*
D41*
X292376Y258969D03*
D29*
X267321Y258969D03*
D27*
X260350Y258969D03*
D70*
X355255Y259108D03*
D31*
X322469Y259108D03*
D73*
X311564Y259108D03*
D92*
X305283Y259108D03*
D31*
X292238Y259108D03*
D71*
X267183Y259108D03*
D70*
X260557Y259108D03*
D66*
X355255Y259246D03*
D102*
X322538Y259246D03*
D27*
X311288Y259246D03*
D83*
X305559Y259246D03*
D41*
X292238Y259246D03*
D27*
X266976Y259246D03*
D66*
X260833Y259246D03*
D70*
X355255Y259384D03*
D69*
X322676Y259384D03*
D70*
X311081Y259384D03*
D95*
X305835Y259384D03*
D31*
X292100Y259384D03*
D73*
X266700Y259384D03*
D70*
X261109Y259384D03*
D66*
X355255Y259522D03*
D82*
X322676Y259522D03*
D81*
X310874Y259522D03*
D51*
X306180Y259522D03*
D32*
X292031Y259522D03*
D66*
X266493Y259522D03*
D83*
X261385Y259522D03*
D70*
X355255Y259660D03*
D69*
X322814Y259660D03*
D64*
X310460Y259660D03*
D21*
X306594Y259660D03*
D31*
X291962Y259660D03*
D97*
X266286Y259660D03*
D64*
X261730Y259660D03*
D65*
X355186Y259798D03*
D41*
X322884Y259798D03*
D241*
X308320Y259798D03*
D36*
X291893Y259798D03*
D23*
X265872Y259798D03*
D89*
X262213Y259798D03*
D98*
X355117Y259936D03*
D82*
X322953Y259936D03*
D85*
X308320Y259936D03*
D158*
X291824Y259936D03*
D123*
X263939Y259936D03*
D64*
X355048Y260074D03*
D69*
X323091Y260074D03*
D62*
X308389Y260074D03*
D39*
X291755Y260074D03*
D62*
X263939Y260074D03*
D242*
X349388Y260212D03*
D82*
X323091Y260212D03*
D160*
X308389Y260212D03*
D99*
X296862Y260212D03*
D41*
X291686Y260212D03*
D18*
X264008Y260212D03*
D242*
X349388Y260350D03*
D102*
X323229Y260350D03*
D42*
X308389Y260350D03*
D41*
X296931Y260350D03*
D32*
X291617Y260350D03*
D12*
X264008Y260350D03*
D243*
X349388Y260488D03*
D31*
X323298Y260488D03*
D21*
X308389Y260488D03*
D31*
X296793Y260488D03*
X291548Y260488D03*
D168*
X264146Y260488D03*
D242*
X349388Y260626D03*
D82*
X323367Y260626D03*
D41*
X296655Y260626D03*
D36*
X291479Y260626D03*
D243*
X349388Y260764D03*
D31*
X323436Y260764D03*
X296655Y260764D03*
X291410Y260764D03*
D242*
X349388Y260902D03*
D82*
X323505Y260902D03*
D41*
X296517Y260902D03*
D32*
X291341Y260902D03*
D242*
X349388Y261040D03*
D158*
X323574Y261040D03*
D41*
X296379Y261040D03*
X291272Y261040D03*
D69*
X323643Y261178D03*
D31*
X296379Y261178D03*
D43*
X291203Y261178D03*
D41*
X323712Y261316D03*
X296241Y261316D03*
X291134Y261316D03*
D69*
X323781Y261454D03*
D105*
X318673Y261454D03*
D31*
X296241Y261454D03*
X291134Y261454D03*
D41*
X323850Y261592D03*
D46*
X318604Y261592D03*
D41*
X296103Y261592D03*
D36*
X291064Y261592D03*
D41*
X323850Y261730D03*
X318604Y261730D03*
X295965Y261730D03*
X290995Y261730D03*
D87*
X323919Y261868D03*
D69*
X318673Y261868D03*
D31*
X295965Y261868D03*
D43*
X290926Y261868D03*
D41*
X323988Y262006D03*
X318742Y262006D03*
X295827Y262006D03*
X290857Y262006D03*
D82*
X324057Y262144D03*
X318811Y262144D03*
D41*
X295827Y262144D03*
X290857Y262144D03*
D31*
X324126Y262283D03*
X318880Y262283D03*
X295689Y262283D03*
D39*
X290788Y262283D03*
D41*
X324126Y262421D03*
X319018Y262421D03*
X295689Y262421D03*
X290719Y262421D03*
D69*
X324195Y262559D03*
X319087Y262559D03*
D31*
X295551Y262559D03*
D43*
X290650Y262559D03*
D41*
X324264Y262697D03*
X319156Y262697D03*
X295551Y262697D03*
D32*
X290650Y262697D03*
D69*
X324333Y262835D03*
X319225Y262835D03*
D31*
X295413Y262835D03*
X290581Y262835D03*
D41*
X324402Y262973D03*
X319294Y262973D03*
X295413Y262973D03*
D32*
X290512Y262973D03*
D41*
X324402Y263111D03*
D102*
X319363Y263111D03*
D36*
X295344Y263111D03*
D32*
X290512Y263111D03*
D69*
X324471Y263249D03*
D31*
X319432Y263249D03*
D206*
X300520Y263249D03*
D31*
X295275Y263249D03*
X290443Y263249D03*
D41*
X324540Y263387D03*
X319432Y263387D03*
D46*
X300520Y263387D03*
D41*
X295275Y263387D03*
X290443Y263387D03*
X324540Y263525D03*
X319570Y263525D03*
D46*
X315015Y263525D03*
D41*
X300520Y263525D03*
X295137Y263525D03*
D36*
X290374Y263525D03*
D31*
X324540Y263663D03*
X319570Y263663D03*
D87*
X315084Y263663D03*
D31*
X300520Y263663D03*
X295137Y263663D03*
D39*
X290374Y263663D03*
D41*
X324678Y263801D03*
X319709Y263801D03*
D102*
X315084Y263801D03*
D41*
X300382Y263801D03*
D36*
X295068Y263801D03*
D41*
X290305Y263801D03*
D31*
X324678Y263939D03*
X319709Y263939D03*
D69*
X315222Y263939D03*
D31*
X300382Y263939D03*
D101*
X294999Y263939D03*
D39*
X290236Y263939D03*
D41*
X324678Y264077D03*
D82*
X319778Y264077D03*
D41*
X315291Y264077D03*
X300244Y264077D03*
D158*
X294999Y264077D03*
D36*
X290236Y264077D03*
D82*
X324747Y264215D03*
D41*
X319847Y264215D03*
D82*
X315360Y264215D03*
D32*
X300175Y264215D03*
D36*
X294930Y264215D03*
X290236Y264215D03*
D31*
X324816Y264353D03*
X319847Y264353D03*
D69*
X315498Y264353D03*
D31*
X300106Y264353D03*
X294861Y264353D03*
X290167Y264353D03*
D41*
X324816Y264491D03*
X319985Y264491D03*
X315567Y264491D03*
D32*
X300037Y264491D03*
D41*
X294861Y264491D03*
D36*
X290098Y264491D03*
D31*
X324816Y264629D03*
X319985Y264629D03*
D69*
X315636Y264629D03*
D31*
X299968Y264629D03*
D43*
X294792Y264629D03*
D39*
X290098Y264629D03*
D41*
X324816Y264767D03*
X319985Y264767D03*
X315705Y264767D03*
D36*
X299899Y264767D03*
D32*
X294792Y264767D03*
D36*
X290098Y264767D03*
D41*
X324954Y264905D03*
X320123Y264905D03*
D82*
X315774Y264905D03*
D41*
X299830Y264905D03*
X294723Y264905D03*
D36*
X290098Y264905D03*
D31*
X324954Y265043D03*
X320123Y265043D03*
X315843Y265043D03*
D39*
X299761Y265043D03*
X294654Y265043D03*
D31*
X290029Y265043D03*
D41*
X324954Y265181D03*
X320123Y265181D03*
D82*
X315912Y265181D03*
D83*
X308044Y265181D03*
D41*
X299692Y265181D03*
D36*
X294654Y265181D03*
D32*
X289960Y265181D03*
D41*
X324954Y265319D03*
X320123Y265319D03*
X315981Y265319D03*
D30*
X307975Y265319D03*
D36*
X299623Y265319D03*
X294654Y265319D03*
D32*
X289960Y265319D03*
D31*
X324954Y265458D03*
X320261Y265458D03*
X315981Y265458D03*
D55*
X308044Y265458D03*
D39*
X299623Y265458D03*
D31*
X294585Y265458D03*
D43*
X289960Y265458D03*
D41*
X325092Y265596D03*
X320261Y265596D03*
X316119Y265596D03*
D18*
X308044Y265596D03*
D41*
X299554Y265596D03*
D32*
X294516Y265596D03*
X289960Y265596D03*
D31*
X325092Y265734D03*
X320261Y265734D03*
X316119Y265734D03*
D238*
X307975Y265734D03*
D43*
X299485Y265734D03*
X294516Y265734D03*
X289960Y265734D03*
D41*
X325092Y265872D03*
X320261Y265872D03*
X316119Y265872D03*
D115*
X308044Y265872D03*
D32*
X299485Y265872D03*
X294516Y265872D03*
X289822Y265872D03*
D31*
X325092Y266010D03*
D101*
X320399Y266010D03*
D31*
X316257Y266010D03*
D121*
X307975Y266010D03*
D31*
X299416Y266010D03*
D43*
X294516Y266010D03*
X289822Y266010D03*
D41*
X325092Y266148D03*
D158*
X320399Y266148D03*
D41*
X316257Y266148D03*
D126*
X307975Y266148D03*
D32*
X299347Y266148D03*
D41*
X294447Y266148D03*
D32*
X289822Y266148D03*
D41*
X325092Y266286D03*
D158*
X320399Y266286D03*
D41*
X316257Y266286D03*
D130*
X307975Y266286D03*
D32*
X299347Y266286D03*
D41*
X294447Y266286D03*
D32*
X289822Y266286D03*
D31*
X325230Y266424D03*
D101*
X320399Y266424D03*
D43*
X316326Y266424D03*
D244*
X307975Y266424D03*
D43*
X299347Y266424D03*
X294378Y266424D03*
X289822Y266424D03*
D41*
X325230Y266562D03*
D158*
X320399Y266562D03*
D41*
X316395Y266562D03*
D137*
X307975Y266562D03*
D41*
X299278Y266562D03*
D32*
X294378Y266562D03*
X289822Y266562D03*
D41*
X325230Y266700D03*
D36*
X320468Y266700D03*
D41*
X316395Y266700D03*
D141*
X308044Y266700D03*
D36*
X299209Y266700D03*
D32*
X294378Y266700D03*
X289822Y266700D03*
D31*
X325230Y266838D03*
X320537Y266838D03*
X316395Y266838D03*
D151*
X307975Y266838D03*
D39*
X299209Y266838D03*
D43*
X294378Y266838D03*
X289822Y266838D03*
D41*
X325230Y266976D03*
X320537Y266976D03*
X316395Y266976D03*
D234*
X307975Y266976D03*
D36*
X299209Y266976D03*
D41*
X294309Y266976D03*
X289753Y266976D03*
D31*
X325230Y267114D03*
X320537Y267114D03*
X316534Y267114D03*
D149*
X308044Y267114D03*
D39*
X299209Y267114D03*
D31*
X294309Y267114D03*
D39*
X289684Y267114D03*
D41*
X325230Y267252D03*
X320537Y267252D03*
X316534Y267252D03*
D182*
X307975Y267252D03*
D36*
X299209Y267252D03*
D41*
X294309Y267252D03*
D36*
X289684Y267252D03*
D41*
X325230Y267390D03*
X320537Y267390D03*
X316534Y267390D03*
D182*
X307975Y267390D03*
D36*
X299209Y267390D03*
X294239Y267390D03*
X289684Y267390D03*
D31*
X325230Y267528D03*
X320537Y267528D03*
X316534Y267528D03*
D245*
X307975Y267528D03*
D43*
X299071Y267528D03*
D39*
X294239Y267528D03*
X289684Y267528D03*
D41*
X325230Y267666D03*
X320537Y267666D03*
X316534Y267666D03*
D246*
X307975Y267666D03*
D32*
X299071Y267666D03*
D36*
X294239Y267666D03*
X289684Y267666D03*
D31*
X325230Y267804D03*
X320537Y267804D03*
X316534Y267804D03*
D13*
X308044Y267804D03*
D43*
X299071Y267804D03*
D39*
X294239Y267804D03*
X289684Y267804D03*
D41*
X325230Y267942D03*
D32*
X320606Y267942D03*
D41*
X316534Y267942D03*
D247*
X307975Y267942D03*
D32*
X299071Y267942D03*
D36*
X294239Y267942D03*
X289684Y267942D03*
D41*
X325230Y268080D03*
D32*
X320606Y268080D03*
X316603Y268080D03*
D247*
X307975Y268080D03*
D32*
X299071Y268080D03*
D36*
X294239Y268080D03*
X289684Y268080D03*
D31*
X325230Y268218D03*
D43*
X320606Y268218D03*
X316603Y268218D03*
D248*
X307975Y268218D03*
D43*
X299071Y268218D03*
D39*
X294239Y268218D03*
X289684Y268218D03*
D41*
X325230Y268356D03*
D32*
X320606Y268356D03*
X316603Y268356D03*
D19*
X308044Y268356D03*
D32*
X299071Y268356D03*
D36*
X294239Y268356D03*
X289684Y268356D03*
D41*
X325368Y268494D03*
D32*
X320606Y268494D03*
X316603Y268494D03*
D19*
X308044Y268494D03*
D32*
X299071Y268494D03*
D36*
X294239Y268494D03*
X289684Y268494D03*
D31*
X325368Y268633D03*
D43*
X320606Y268633D03*
X316603Y268633D03*
D249*
X308044Y268633D03*
D43*
X299071Y268633D03*
D39*
X294239Y268633D03*
X289684Y268633D03*
D41*
X325230Y268771D03*
D32*
X320606Y268771D03*
X316603Y268771D03*
D19*
X308044Y268771D03*
D32*
X299071Y268771D03*
D36*
X294239Y268771D03*
X289684Y268771D03*
D31*
X325230Y268909D03*
D43*
X320606Y268909D03*
X316603Y268909D03*
D250*
X307975Y268909D03*
D43*
X299071Y268909D03*
D39*
X294239Y268909D03*
X289684Y268909D03*
D41*
X325230Y269047D03*
D32*
X320606Y269047D03*
X316603Y269047D03*
D214*
X307975Y269047D03*
D32*
X299071Y269047D03*
D36*
X294239Y269047D03*
X289684Y269047D03*
D31*
X325230Y269185D03*
D43*
X320606Y269185D03*
X316603Y269185D03*
D249*
X308044Y269185D03*
D43*
X299071Y269185D03*
D39*
X294239Y269185D03*
X289684Y269185D03*
D41*
X325230Y269323D03*
D32*
X320606Y269323D03*
D41*
X316534Y269323D03*
D19*
X308044Y269323D03*
D32*
X299071Y269323D03*
D36*
X294239Y269323D03*
X289684Y269323D03*
D41*
X325230Y269461D03*
X320537Y269461D03*
X316534Y269461D03*
D19*
X308044Y269461D03*
D32*
X299071Y269461D03*
D36*
X294239Y269461D03*
X289684Y269461D03*
D31*
X325230Y269599D03*
X320537Y269599D03*
X316534Y269599D03*
D248*
X307975Y269599D03*
D43*
X299071Y269599D03*
D39*
X294239Y269599D03*
X289684Y269599D03*
D41*
X325230Y269737D03*
X320537Y269737D03*
X316534Y269737D03*
D247*
X307975Y269737D03*
D36*
X299209Y269737D03*
X294239Y269737D03*
X289684Y269737D03*
D41*
X325230Y269875D03*
X320537Y269875D03*
X316534Y269875D03*
D247*
X307975Y269875D03*
D36*
X299209Y269875D03*
D41*
X294309Y269875D03*
D36*
X289684Y269875D03*
D31*
X325230Y270013D03*
X320537Y270013D03*
D39*
X316464Y270013D03*
D248*
X307975Y270013D03*
D39*
X299209Y270013D03*
D31*
X294309Y270013D03*
D39*
X289684Y270013D03*
D41*
X325230Y270151D03*
X320537Y270151D03*
D36*
X316464Y270151D03*
D196*
X308044Y270151D03*
D36*
X299209Y270151D03*
D32*
X294378Y270151D03*
D46*
X289753Y270151D03*
D31*
X325230Y270289D03*
D39*
X320468Y270289D03*
D31*
X316395Y270289D03*
D245*
X307975Y270289D03*
D39*
X299209Y270289D03*
D43*
X294378Y270289D03*
X289822Y270289D03*
D41*
X325230Y270427D03*
D36*
X320468Y270427D03*
D41*
X316395Y270427D03*
D251*
X308044Y270427D03*
D36*
X299209Y270427D03*
D32*
X294378Y270427D03*
X289822Y270427D03*
D41*
X325230Y270565D03*
D36*
X320468Y270565D03*
D41*
X316395Y270565D03*
D182*
X307975Y270565D03*
D32*
X299347Y270565D03*
X294378Y270565D03*
X289822Y270565D03*
D39*
X325161Y270703D03*
D101*
X320399Y270703D03*
D43*
X316326Y270703D03*
D211*
X307975Y270703D03*
D43*
X299347Y270703D03*
X294378Y270703D03*
X289822Y270703D03*
D41*
X325092Y270841D03*
D158*
X320399Y270841D03*
D41*
X316257Y270841D03*
D234*
X307975Y270841D03*
D32*
X299347Y270841D03*
X294378Y270841D03*
X289822Y270841D03*
D31*
X325092Y270979D03*
D101*
X320399Y270979D03*
D31*
X316257Y270979D03*
D152*
X307975Y270979D03*
D43*
X299347Y270979D03*
D31*
X294447Y270979D03*
D43*
X289822Y270979D03*
D41*
X325092Y271117D03*
D36*
X320330Y271117D03*
X316188Y271117D03*
D142*
X307975Y271117D03*
D32*
X299485Y271117D03*
X294516Y271117D03*
X289822Y271117D03*
D41*
X325092Y271255D03*
D36*
X320330Y271255D03*
D41*
X316119Y271255D03*
D137*
X307975Y271255D03*
D32*
X299485Y271255D03*
X294516Y271255D03*
X289822Y271255D03*
D31*
X325092Y271393D03*
X320261Y271393D03*
X316119Y271393D03*
D180*
X308044Y271393D03*
D43*
X299485Y271393D03*
X294516Y271393D03*
X289960Y271393D03*
D41*
X325092Y271531D03*
X320261Y271531D03*
D32*
X316050Y271531D03*
D54*
X307975Y271531D03*
D36*
X299623Y271531D03*
D32*
X294516Y271531D03*
X289960Y271531D03*
D41*
X324954Y271669D03*
D32*
X320192Y271669D03*
D41*
X315981Y271669D03*
D130*
X307975Y271669D03*
D36*
X299623Y271669D03*
D41*
X294585Y271669D03*
D32*
X289960Y271669D03*
D31*
X324954Y271808D03*
D43*
X320192Y271808D03*
D31*
X315981Y271808D03*
D127*
X307975Y271808D03*
D39*
X299623Y271808D03*
X294654Y271808D03*
D43*
X289960Y271808D03*
D41*
X324954Y271946D03*
X320123Y271946D03*
D32*
X315912Y271946D03*
D123*
X307975Y271946D03*
D36*
X299761Y271946D03*
X294654Y271946D03*
D32*
X289960Y271946D03*
D31*
X324954Y272084D03*
X320123Y272084D03*
X315843Y272084D03*
D220*
X307906Y272084D03*
D39*
X299761Y272084D03*
X294654Y272084D03*
D34*
X290029Y272084D03*
D41*
X324954Y272222D03*
D36*
X320054Y272222D03*
X315774Y272222D03*
D112*
X307975Y272222D03*
D46*
X299830Y272222D03*
D41*
X294723Y272222D03*
D36*
X290098Y272222D03*
D31*
X324816Y272360D03*
X319985Y272360D03*
X315705Y272360D03*
D56*
X307906Y272360D03*
D39*
X299899Y272360D03*
D43*
X294792Y272360D03*
D39*
X290098Y272360D03*
D41*
X324816Y272498D03*
X319985Y272498D03*
D36*
X315636Y272498D03*
D48*
X307906Y272498D03*
D46*
X299968Y272498D03*
D32*
X294792Y272498D03*
D36*
X290098Y272498D03*
D41*
X324816Y272636D03*
D32*
X319916Y272636D03*
D41*
X315567Y272636D03*
D28*
X307906Y272636D03*
D32*
X300037Y272636D03*
X294792Y272636D03*
D36*
X290098Y272636D03*
D31*
X324816Y272774D03*
X319847Y272774D03*
X315429Y272774D03*
D70*
X307906Y272774D03*
D49*
X300106Y272774D03*
D39*
X294930Y272774D03*
X290236Y272774D03*
D41*
X324678Y272912D03*
X319847Y272912D03*
X315429Y272912D03*
D32*
X300175Y272912D03*
D36*
X294930Y272912D03*
X290236Y272912D03*
D41*
X324678Y273050D03*
D32*
X319778Y273050D03*
D41*
X315291Y273050D03*
D46*
X300244Y273050D03*
D36*
X294930Y273050D03*
X290236Y273050D03*
D31*
X324678Y273188D03*
X319709Y273188D03*
D43*
X315222Y273188D03*
D39*
X300313Y273188D03*
X295068Y273188D03*
X290236Y273188D03*
D41*
X324678Y273326D03*
D36*
X319639Y273326D03*
D41*
X315153Y273326D03*
D32*
X300451Y273326D03*
D36*
X295068Y273326D03*
D46*
X290305Y273326D03*
D31*
X324540Y273464D03*
X319570Y273464D03*
D39*
X315084Y273464D03*
D34*
X300520Y273464D03*
D31*
X295137Y273464D03*
D39*
X290374Y273464D03*
D41*
X324540Y273602D03*
X319570Y273602D03*
D106*
X315153Y273602D03*
D36*
X300589Y273602D03*
D32*
X295206Y273602D03*
D36*
X290374Y273602D03*
D41*
X324540Y273740D03*
D32*
X319501Y273740D03*
D46*
X300659Y273740D03*
D32*
X295206Y273740D03*
D36*
X290374Y273740D03*
D31*
X324402Y273878D03*
X319432Y273878D03*
D49*
X300797Y273878D03*
D39*
X295344Y273878D03*
D43*
X290512Y273878D03*
D41*
X324402Y274016D03*
D36*
X319363Y274016D03*
D106*
X300659Y274016D03*
D36*
X295344Y274016D03*
D32*
X290512Y274016D03*
D31*
X324402Y274154D03*
X319294Y274154D03*
X295413Y274154D03*
D43*
X290512Y274154D03*
D41*
X324264Y274292D03*
D32*
X319225Y274292D03*
X295482Y274292D03*
X290650Y274292D03*
D41*
X324264Y274430D03*
X319156Y274430D03*
X295551Y274430D03*
D32*
X290650Y274430D03*
D31*
X324264Y274568D03*
X319018Y274568D03*
D43*
X295620Y274568D03*
X290650Y274568D03*
D41*
X324126Y274706D03*
D36*
X318949Y274706D03*
D32*
X295620Y274706D03*
D36*
X290788Y274706D03*
D41*
X324126Y274844D03*
X318880Y274844D03*
D36*
X295758Y274844D03*
X290788Y274844D03*
D31*
X323988Y274983D03*
D39*
X318811Y274983D03*
D31*
X295827Y274983D03*
D39*
X290788Y274983D03*
D41*
X323988Y275121D03*
X318742Y275121D03*
D32*
X295896Y275121D03*
X290926Y275121D03*
D31*
X323988Y275259D03*
D39*
X318673Y275259D03*
D31*
X295965Y275259D03*
D43*
X290926Y275259D03*
D41*
X323850Y275397D03*
D32*
X318535Y275397D03*
D36*
X296034Y275397D03*
D41*
X290995Y275397D03*
D31*
X323850Y275535D03*
X318466Y275535D03*
X296103Y275535D03*
D39*
X291064Y275535D03*
D41*
X323712Y275673D03*
D47*
X318466Y275673D03*
D32*
X296172Y275673D03*
D36*
X291064Y275673D03*
D41*
X323712Y275811D03*
D32*
X296310Y275811D03*
X291203Y275811D03*
D101*
X323574Y275949D03*
D31*
X296379Y275949D03*
D43*
X291203Y275949D03*
D158*
X323574Y276087D03*
D36*
X296448Y276087D03*
D32*
X291341Y276087D03*
D41*
X323436Y276225D03*
X296517Y276225D03*
D32*
X291341Y276225D03*
D31*
X323436Y276363D03*
X296655Y276363D03*
D39*
X291479Y276363D03*
D41*
X323298Y276501D03*
D72*
X296517Y276501D03*
D36*
X291479Y276501D03*
D31*
X323298Y276639D03*
X291548Y276639D03*
D41*
X323160Y276777D03*
D32*
X291617Y276777D03*
D41*
X323160Y276915D03*
X291686Y276915D03*
D31*
X323022Y277053D03*
D39*
X291755Y277053D03*
D41*
X323022Y277191D03*
D158*
X291824Y277191D03*
D31*
X322884Y277329D03*
D39*
X291893Y277329D03*
D41*
X322745Y277467D03*
X291962Y277467D03*
X322745Y277605D03*
D32*
X292031Y277605D03*
D31*
X322607Y277743D03*
D39*
X292169Y277743D03*
D36*
X322538Y277881D03*
X292169Y277881D03*
D41*
X322469Y278019D03*
D32*
X292307Y278019D03*
D31*
X322331Y278158D03*
X292376Y278158D03*
D32*
X322262Y278296D03*
X292445Y278296D03*
D49*
X322331Y278434D03*
D39*
X292583Y278434D03*
D41*
X292652Y278572D03*
D43*
X292721Y278710D03*
D36*
X292859Y278848D03*
X292859Y278986D03*
D43*
X292997Y279124D03*
D106*
X292928Y279262D03*
D252*
X-61Y-690D02*
X-123Y-690D01*
X-61Y-690D02*
X-47Y-688D01*
X-35Y-684D01*
X-23Y-677D01*
X-13Y-667D01*
X-6Y-655D01*
X-2Y-643D01*
X0Y-629D01*
X0Y-476D01*
X-2Y-462D01*
X-6Y-450D01*
X-13Y-438D01*
X-23Y-428D01*
X-35Y-421D01*
X-47Y-417D01*
X-61Y-415D01*
X-61Y-414D02*
X-123Y-414D01*
X-210Y-652D02*
X-210Y-667D01*
X-210Y-652D02*
X-225Y-652D01*
X-225Y-667D01*
X-210Y-667D01*
X-210Y-545D02*
X-210Y-529D01*
X-225Y-529D01*
X-225Y-545D01*
X-210Y-545D01*
X-314Y-721D02*
X-437Y-383D01*
X-530Y-414D02*
X-530Y-614D01*
X-532Y-630D01*
X-537Y-645D01*
X-545Y-659D01*
X-555Y-671D01*
X-569Y-681D01*
X-583Y-687D01*
X-599Y-691D01*
X-615Y-691D01*
X-631Y-687D01*
X-646Y-681D01*
X-659Y-671D01*
X-669Y-659D01*
X-677Y-645D01*
X-682Y-630D01*
X-684Y-614D01*
X-684Y-414D01*
X-809Y-583D02*
X-886Y-614D01*
X-809Y-583D02*
X-799Y-577D01*
X-790Y-568D01*
X-785Y-556D01*
X-784Y-544D01*
X-786Y-532D01*
X-792Y-521D01*
X-801Y-513D01*
X-812Y-508D01*
X-825Y-506D01*
X-824Y-506D02*
X-848Y-508D01*
X-871Y-513D01*
X-894Y-521D01*
X-886Y-613D02*
X-896Y-619D01*
X-905Y-628D01*
X-910Y-640D01*
X-911Y-652D01*
X-909Y-664D01*
X-903Y-675D01*
X-894Y-683D01*
X-883Y-688D01*
X-870Y-690D01*
X-842Y-688D01*
X-814Y-683D01*
X-786Y-675D01*
X-1047Y-690D02*
X-1124Y-690D01*
X-1047Y-690D02*
X-1035Y-688D01*
X-1024Y-684D01*
X-1014Y-677D01*
X-1007Y-667D01*
X-1003Y-656D01*
X-1001Y-644D01*
X-1001Y-568D01*
X-1002Y-568D02*
X-1004Y-553D01*
X-1009Y-540D01*
X-1017Y-528D01*
X-1028Y-518D01*
X-1041Y-511D01*
X-1056Y-507D01*
X-1070Y-507D01*
X-1085Y-511D01*
X-1098Y-518D01*
X-1109Y-528D01*
X-1117Y-540D01*
X-1122Y-553D01*
X-1124Y-568D01*
X-1124Y-598D01*
X-1001Y-598D01*
X-1226Y-690D02*
X-1226Y-506D01*
X-1318Y-506D01*
X-1318Y-537D01*
X-1413Y-583D02*
X-1490Y-614D01*
X-1413Y-583D02*
X-1403Y-577D01*
X-1394Y-568D01*
X-1389Y-556D01*
X-1388Y-544D01*
X-1390Y-532D01*
X-1396Y-521D01*
X-1405Y-513D01*
X-1416Y-508D01*
X-1429Y-506D01*
X-1428Y-506D02*
X-1452Y-508D01*
X-1475Y-513D01*
X-1498Y-521D01*
X-1490Y-613D02*
X-1500Y-619D01*
X-1509Y-628D01*
X-1514Y-640D01*
X-1515Y-652D01*
X-1513Y-664D01*
X-1507Y-675D01*
X-1498Y-683D01*
X-1487Y-688D01*
X-1474Y-690D01*
X-1446Y-688D01*
X-1418Y-683D01*
X-1390Y-675D01*
X-1597Y-721D02*
X-1720Y-383D01*
X-1816Y-414D02*
X-1816Y-690D01*
X-1816Y-583D02*
X-1969Y-414D01*
X-1877Y-522D02*
X-1969Y-690D01*
X-2061Y-690D02*
X-2061Y-506D01*
X-2138Y-506D01*
X-2150Y-508D01*
X-2161Y-512D01*
X-2171Y-519D01*
X-2178Y-529D01*
X-2182Y-540D01*
X-2184Y-552D01*
X-2184Y-690D01*
X-2331Y-690D02*
X-2408Y-690D01*
X-2331Y-690D02*
X-2319Y-688D01*
X-2308Y-684D01*
X-2298Y-677D01*
X-2291Y-667D01*
X-2287Y-656D01*
X-2285Y-644D01*
X-2285Y-568D01*
X-2287Y-553D01*
X-2292Y-540D01*
X-2300Y-528D01*
X-2311Y-518D01*
X-2324Y-511D01*
X-2339Y-507D01*
X-2353Y-507D01*
X-2368Y-511D01*
X-2381Y-518D01*
X-2392Y-528D01*
X-2400Y-540D01*
X-2405Y-553D01*
X-2407Y-568D01*
X-2408Y-568D02*
X-2408Y-598D01*
X-2285Y-598D01*
X-2504Y-690D02*
X-2504Y-506D01*
X-2496Y-429D02*
X-2496Y-414D01*
X-2511Y-414D01*
X-2511Y-429D01*
X-2496Y-429D01*
X-2722Y-414D02*
X-2722Y-690D01*
X-2645Y-690D01*
X-2633Y-688D01*
X-2622Y-684D01*
X-2612Y-677D01*
X-2605Y-667D01*
X-2601Y-656D01*
X-2599Y-644D01*
X-2599Y-552D01*
X-2601Y-540D01*
X-2605Y-529D01*
X-2612Y-519D01*
X-2622Y-512D01*
X-2633Y-508D01*
X-2645Y-506D01*
X-2722Y-506D01*
X-2829Y-414D02*
X-2829Y-644D01*
X-2831Y-656D01*
X-2835Y-667D01*
X-2842Y-677D01*
X-2852Y-684D01*
X-2863Y-688D01*
X-2875Y-690D01*
X-2947Y-721D02*
X-3070Y-383D01*
X-3156Y-491D02*
X-3156Y-614D01*
X-3155Y-491D02*
X-3157Y-475D01*
X-3162Y-460D01*
X-3170Y-446D01*
X-3180Y-434D01*
X-3194Y-424D01*
X-3208Y-418D01*
X-3224Y-414D01*
X-3240Y-414D01*
X-3256Y-418D01*
X-3271Y-424D01*
X-3284Y-434D01*
X-3294Y-446D01*
X-3302Y-460D01*
X-3307Y-475D01*
X-3309Y-491D01*
X-3309Y-614D01*
X-3307Y-630D01*
X-3302Y-645D01*
X-3294Y-659D01*
X-3284Y-671D01*
X-3271Y-681D01*
X-3256Y-687D01*
X-3240Y-691D01*
X-3224Y-691D01*
X-3208Y-687D01*
X-3194Y-681D01*
X-3180Y-671D01*
X-3170Y-659D01*
X-3162Y-645D01*
X-3157Y-630D01*
X-3155Y-614D01*
X-3411Y-690D02*
X-3411Y-506D01*
X-3488Y-506D01*
X-3500Y-508D01*
X-3511Y-512D01*
X-3521Y-519D01*
X-3528Y-529D01*
X-3532Y-540D01*
X-3534Y-552D01*
X-3534Y-690D01*
X-3681Y-690D02*
X-3757Y-690D01*
X-3681Y-690D02*
X-3669Y-688D01*
X-3658Y-684D01*
X-3648Y-677D01*
X-3641Y-667D01*
X-3637Y-656D01*
X-3635Y-644D01*
X-3635Y-568D01*
X-3637Y-553D01*
X-3642Y-540D01*
X-3650Y-528D01*
X-3661Y-518D01*
X-3674Y-511D01*
X-3689Y-507D01*
X-3703Y-507D01*
X-3718Y-511D01*
X-3731Y-518D01*
X-3742Y-528D01*
X-3750Y-540D01*
X-3755Y-553D01*
X-3757Y-568D01*
X-3757Y-598D01*
X-3635Y-598D01*
X-3860Y-690D02*
X-3860Y-414D01*
X-3936Y-414D01*
X-3951Y-415D01*
X-3965Y-420D01*
X-3979Y-427D01*
X-3990Y-437D01*
X-4000Y-448D01*
X-4007Y-462D01*
X-4012Y-476D01*
X-4013Y-491D01*
X-4013Y-614D01*
X-4012Y-629D01*
X-4007Y-643D01*
X-4000Y-657D01*
X-3990Y-668D01*
X-3979Y-678D01*
X-3965Y-685D01*
X-3951Y-690D01*
X-3936Y-691D01*
X-3936Y-690D02*
X-3860Y-690D01*
X-4124Y-690D02*
X-4124Y-506D01*
X-4216Y-506D01*
X-4216Y-537D01*
X-4292Y-506D02*
X-4292Y-690D01*
X-4285Y-429D02*
X-4285Y-414D01*
X-4300Y-414D01*
X-4300Y-429D01*
X-4285Y-429D01*
X-4380Y-506D02*
X-4441Y-690D01*
X-4503Y-506D01*
X-4633Y-690D02*
X-4710Y-690D01*
X-4633Y-690D02*
X-4621Y-688D01*
X-4610Y-684D01*
X-4600Y-677D01*
X-4593Y-667D01*
X-4589Y-656D01*
X-4587Y-644D01*
X-4587Y-568D01*
X-4589Y-553D01*
X-4594Y-540D01*
X-4602Y-528D01*
X-4613Y-518D01*
X-4626Y-511D01*
X-4641Y-507D01*
X-4655Y-507D01*
X-4670Y-511D01*
X-4683Y-518D01*
X-4694Y-528D01*
X-4702Y-540D01*
X-4707Y-553D01*
X-4709Y-568D01*
X-4710Y-568D02*
X-4710Y-598D01*
X-4587Y-598D01*
X-4937Y-583D02*
X-5121Y-583D01*
X-5360Y-537D02*
X-5437Y-537D01*
X-5453Y-539D01*
X-5468Y-544D01*
X-5482Y-552D01*
X-5494Y-562D01*
X-5504Y-576D01*
X-5510Y-590D01*
X-5514Y-606D01*
X-5514Y-622D01*
X-5510Y-638D01*
X-5504Y-652D01*
X-5494Y-666D01*
X-5482Y-676D01*
X-5468Y-684D01*
X-5453Y-689D01*
X-5437Y-691D01*
X-5437Y-690D02*
X-5360Y-690D01*
X-5360Y-414D01*
X-5437Y-414D01*
X-5452Y-416D01*
X-5465Y-421D01*
X-5477Y-429D01*
X-5487Y-440D01*
X-5494Y-453D01*
X-5498Y-468D01*
X-5498Y-482D01*
X-5494Y-497D01*
X-5487Y-510D01*
X-5477Y-521D01*
X-5465Y-529D01*
X-5452Y-534D01*
X-5437Y-536D01*
X-5601Y-506D02*
X-5601Y-690D01*
X-5593Y-429D02*
X-5593Y-414D01*
X-5608Y-414D01*
X-5608Y-429D01*
X-5593Y-429D01*
X-5703Y-414D02*
X-5703Y-644D01*
X-5705Y-656D01*
X-5709Y-667D01*
X-5716Y-677D01*
X-5726Y-684D01*
X-5737Y-688D01*
X-5749Y-690D01*
X-5951Y-690D02*
X-5951Y-414D01*
X-5951Y-690D02*
X-5875Y-690D01*
X-5863Y-688D01*
X-5852Y-684D01*
X-5842Y-677D01*
X-5835Y-667D01*
X-5831Y-656D01*
X-5829Y-644D01*
X-5829Y-552D01*
X-5831Y-540D01*
X-5835Y-529D01*
X-5842Y-519D01*
X-5852Y-512D01*
X-5863Y-508D01*
X-5875Y-506D01*
X-5951Y-506D01*
X-6061Y-506D02*
X-6061Y-644D01*
X-6063Y-656D01*
X-6067Y-667D01*
X-6074Y-677D01*
X-6084Y-684D01*
X-6095Y-688D01*
X-6107Y-690D01*
X-6184Y-690D01*
X-6184Y-506D01*
X-6293Y-506D02*
X-6293Y-690D01*
X-6293Y-506D02*
X-6370Y-506D01*
X-6382Y-508D01*
X-6393Y-512D01*
X-6403Y-519D01*
X-6410Y-529D01*
X-6414Y-540D01*
X-6416Y-552D01*
X-6416Y-690D01*
X-6562Y-690D02*
X-6639Y-690D01*
X-6562Y-690D02*
X-6550Y-688D01*
X-6539Y-684D01*
X-6529Y-677D01*
X-6522Y-667D01*
X-6518Y-656D01*
X-6516Y-644D01*
X-6516Y-552D01*
X-6518Y-540D01*
X-6522Y-529D01*
X-6529Y-519D01*
X-6539Y-512D01*
X-6550Y-508D01*
X-6562Y-506D01*
X-6639Y-506D01*
X-6639Y-736D01*
X-6637Y-748D01*
X-6633Y-759D01*
X-6626Y-769D01*
X-6616Y-776D01*
X-6605Y-780D01*
X-6593Y-782D01*
X-6531Y-782D01*
X-6763Y-583D02*
X-6840Y-614D01*
X-6763Y-583D02*
X-6753Y-577D01*
X-6744Y-568D01*
X-6739Y-556D01*
X-6738Y-544D01*
X-6740Y-532D01*
X-6746Y-521D01*
X-6755Y-513D01*
X-6766Y-508D01*
X-6779Y-506D01*
X-6778Y-506D02*
X-6802Y-508D01*
X-6825Y-513D01*
X-6848Y-521D01*
X-6840Y-613D02*
X-6850Y-619D01*
X-6859Y-628D01*
X-6864Y-640D01*
X-6865Y-652D01*
X-6863Y-664D01*
X-6857Y-675D01*
X-6848Y-683D01*
X-6837Y-688D01*
X-6824Y-690D01*
X-6796Y-688D01*
X-6768Y-683D01*
X-6740Y-675D01*
X-7078Y-690D02*
X-7078Y-414D01*
X-7078Y-690D02*
X-7001Y-690D01*
X-6989Y-688D01*
X-6978Y-684D01*
X-6968Y-677D01*
X-6961Y-667D01*
X-6957Y-656D01*
X-6955Y-644D01*
X-6955Y-552D01*
X-6957Y-540D01*
X-6961Y-529D01*
X-6968Y-519D01*
X-6978Y-512D01*
X-6989Y-508D01*
X-7001Y-506D01*
X-7078Y-506D01*
X-7183Y-506D02*
X-7183Y-690D01*
X-7175Y-429D02*
X-7175Y-414D01*
X-7190Y-414D01*
X-7190Y-429D01*
X-7175Y-429D01*
X-7288Y-506D02*
X-7288Y-690D01*
X-7288Y-506D02*
X-7380Y-506D01*
X-7380Y-537D01*
X-7498Y-690D02*
X-7575Y-690D01*
X-7498Y-690D02*
X-7486Y-688D01*
X-7475Y-684D01*
X-7465Y-677D01*
X-7458Y-667D01*
X-7454Y-656D01*
X-7452Y-644D01*
X-7452Y-568D01*
X-7453Y-568D02*
X-7455Y-553D01*
X-7460Y-540D01*
X-7468Y-528D01*
X-7479Y-518D01*
X-7492Y-511D01*
X-7507Y-507D01*
X-7521Y-507D01*
X-7536Y-511D01*
X-7549Y-518D01*
X-7560Y-528D01*
X-7568Y-540D01*
X-7573Y-553D01*
X-7575Y-568D01*
X-7575Y-598D01*
X-7452Y-598D01*
X-7678Y-690D02*
X-7678Y-414D01*
X-7800Y-506D02*
X-7678Y-598D01*
X-7731Y-560D02*
X-7800Y-690D01*
X-7864Y-506D02*
X-7956Y-506D01*
X-7895Y-414D02*
X-7895Y-644D01*
X-7897Y-656D01*
X-7901Y-667D01*
X-7908Y-677D01*
X-7918Y-684D01*
X-7929Y-688D01*
X-7941Y-690D01*
X-7956Y-690D01*
X-8044Y-690D02*
X-8044Y-506D01*
X-8036Y-429D02*
X-8036Y-414D01*
X-8051Y-414D01*
X-8051Y-429D01*
X-8036Y-429D01*
X-8140Y-568D02*
X-8140Y-629D01*
X-8140Y-568D02*
X-8142Y-553D01*
X-8147Y-540D01*
X-8155Y-528D01*
X-8166Y-518D01*
X-8179Y-511D01*
X-8194Y-507D01*
X-8208Y-507D01*
X-8223Y-511D01*
X-8236Y-518D01*
X-8247Y-528D01*
X-8255Y-540D01*
X-8260Y-553D01*
X-8262Y-568D01*
X-8263Y-568D02*
X-8263Y-629D01*
X-8262Y-629D02*
X-8260Y-644D01*
X-8255Y-657D01*
X-8247Y-669D01*
X-8236Y-679D01*
X-8223Y-686D01*
X-8208Y-690D01*
X-8194Y-690D01*
X-8179Y-686D01*
X-8166Y-679D01*
X-8155Y-669D01*
X-8147Y-657D01*
X-8142Y-644D01*
X-8140Y-629D01*
X-8363Y-690D02*
X-8363Y-506D01*
X-8440Y-506D01*
X-8452Y-508D01*
X-8463Y-512D01*
X-8473Y-519D01*
X-8480Y-529D01*
X-8484Y-540D01*
X-8486Y-552D01*
X-8486Y-690D01*
X-8579Y-721D02*
X-8701Y-383D01*
X-8864Y-414D02*
X-8772Y-690D01*
X-8956Y-690D02*
X-8864Y-414D01*
X-8933Y-621D02*
X-8795Y-621D01*
X-9042Y-690D02*
X-9042Y-506D01*
X-9119Y-506D01*
X-9131Y-508D01*
X-9142Y-512D01*
X-9152Y-519D01*
X-9159Y-529D01*
X-9163Y-540D01*
X-9165Y-552D01*
X-9165Y-690D01*
X-9388Y-690D02*
X-9388Y-414D01*
X-9388Y-690D02*
X-9311Y-690D01*
X-9299Y-688D01*
X-9288Y-684D01*
X-9278Y-677D01*
X-9271Y-667D01*
X-9267Y-656D01*
X-9265Y-644D01*
X-9265Y-552D01*
X-9266Y-552D02*
X-9268Y-540D01*
X-9272Y-529D01*
X-9279Y-519D01*
X-9289Y-512D01*
X-9300Y-508D01*
X-9312Y-506D01*
X-9311Y-506D02*
X-9388Y-506D01*
X-9499Y-506D02*
X-9499Y-690D01*
X-9499Y-506D02*
X-9591Y-506D01*
X-9591Y-537D01*
X-9710Y-690D02*
X-9786Y-690D01*
X-9710Y-690D02*
X-9698Y-688D01*
X-9687Y-684D01*
X-9677Y-677D01*
X-9670Y-667D01*
X-9666Y-656D01*
X-9664Y-644D01*
X-9664Y-568D01*
X-9666Y-553D01*
X-9671Y-540D01*
X-9679Y-528D01*
X-9690Y-518D01*
X-9703Y-511D01*
X-9718Y-507D01*
X-9732Y-507D01*
X-9747Y-511D01*
X-9760Y-518D01*
X-9771Y-528D01*
X-9779Y-540D01*
X-9784Y-553D01*
X-9786Y-568D01*
X-9786Y-598D01*
X-9664Y-598D01*
X-9932Y-583D02*
X-10001Y-583D01*
X-9932Y-583D02*
X-9919Y-585D01*
X-9907Y-589D01*
X-9896Y-597D01*
X-9888Y-606D01*
X-9882Y-618D01*
X-9878Y-630D01*
X-9878Y-644D01*
X-9882Y-656D01*
X-9888Y-668D01*
X-9896Y-677D01*
X-9907Y-685D01*
X-9919Y-689D01*
X-9932Y-691D01*
X-9932Y-690D02*
X-10001Y-690D01*
X-10001Y-552D01*
X-9999Y-540D01*
X-9995Y-529D01*
X-9988Y-519D01*
X-9978Y-512D01*
X-9967Y-508D01*
X-9955Y-506D01*
X-9894Y-506D01*
X-10126Y-583D02*
X-10202Y-614D01*
X-10125Y-583D02*
X-10115Y-577D01*
X-10106Y-568D01*
X-10101Y-556D01*
X-10100Y-544D01*
X-10102Y-532D01*
X-10108Y-521D01*
X-10117Y-513D01*
X-10128Y-508D01*
X-10141Y-506D01*
X-10140Y-506D02*
X-10164Y-508D01*
X-10187Y-513D01*
X-10210Y-521D01*
X-10202Y-613D02*
X-10212Y-619D01*
X-10221Y-628D01*
X-10226Y-640D01*
X-10227Y-652D01*
X-10225Y-664D01*
X-10219Y-675D01*
X-10210Y-683D01*
X-10199Y-688D01*
X-10186Y-690D01*
X-10187Y-690D02*
X-10159Y-688D01*
X-10131Y-683D01*
X-10103Y-675D01*
X-10310Y-721D02*
X-10432Y-383D01*
X-10518Y-491D02*
X-10518Y-614D01*
X-10518Y-491D02*
X-10520Y-475D01*
X-10525Y-460D01*
X-10533Y-446D01*
X-10543Y-434D01*
X-10557Y-424D01*
X-10571Y-418D01*
X-10587Y-414D01*
X-10603Y-414D01*
X-10619Y-418D01*
X-10634Y-424D01*
X-10647Y-434D01*
X-10657Y-446D01*
X-10665Y-460D01*
X-10670Y-475D01*
X-10672Y-491D01*
X-10671Y-491D02*
X-10671Y-614D01*
X-10672Y-614D02*
X-10670Y-630D01*
X-10665Y-645D01*
X-10657Y-659D01*
X-10647Y-671D01*
X-10634Y-681D01*
X-10619Y-687D01*
X-10603Y-691D01*
X-10587Y-691D01*
X-10571Y-687D01*
X-10557Y-681D01*
X-10543Y-671D01*
X-10533Y-659D01*
X-10525Y-645D01*
X-10520Y-630D01*
X-10518Y-614D01*
X-10774Y-690D02*
X-10774Y-414D01*
X-10774Y-690D02*
X-10851Y-690D01*
X-10863Y-688D01*
X-10874Y-684D01*
X-10884Y-677D01*
X-10891Y-667D01*
X-10895Y-656D01*
X-10897Y-644D01*
X-10897Y-552D01*
X-10895Y-540D01*
X-10891Y-529D01*
X-10884Y-519D01*
X-10874Y-512D01*
X-10863Y-508D01*
X-10851Y-506D01*
X-10774Y-506D01*
X-11035Y-690D02*
X-11111Y-690D01*
X-11035Y-690D02*
X-11023Y-688D01*
X-11012Y-684D01*
X-11002Y-677D01*
X-10995Y-667D01*
X-10991Y-656D01*
X-10989Y-644D01*
X-10989Y-568D01*
X-10991Y-553D01*
X-10996Y-540D01*
X-11004Y-528D01*
X-11015Y-518D01*
X-11028Y-511D01*
X-11043Y-507D01*
X-11057Y-507D01*
X-11072Y-511D01*
X-11085Y-518D01*
X-11096Y-528D01*
X-11104Y-540D01*
X-11109Y-553D01*
X-11111Y-568D01*
X-11111Y-598D01*
X-10989Y-598D01*
X-11213Y-690D02*
X-11213Y-506D01*
X-11305Y-506D01*
X-11305Y-537D01*
X-11401Y-583D02*
X-11478Y-614D01*
X-11401Y-583D02*
X-11391Y-577D01*
X-11382Y-568D01*
X-11377Y-556D01*
X-11376Y-544D01*
X-11378Y-532D01*
X-11384Y-521D01*
X-11393Y-513D01*
X-11404Y-508D01*
X-11417Y-506D01*
X-11416Y-506D02*
X-11440Y-508D01*
X-11463Y-513D01*
X-11486Y-521D01*
X-11478Y-613D02*
X-11488Y-619D01*
X-11497Y-628D01*
X-11502Y-640D01*
X-11503Y-652D01*
X-11501Y-664D01*
X-11495Y-675D01*
X-11486Y-683D01*
X-11475Y-688D01*
X-11462Y-690D01*
X-11434Y-688D01*
X-11406Y-683D01*
X-11378Y-675D01*
X-11639Y-690D02*
X-11701Y-690D01*
X-11639Y-690D02*
X-11627Y-688D01*
X-11616Y-684D01*
X-11606Y-677D01*
X-11599Y-667D01*
X-11595Y-656D01*
X-11593Y-644D01*
X-11593Y-552D01*
X-11595Y-540D01*
X-11599Y-529D01*
X-11606Y-519D01*
X-11616Y-512D01*
X-11627Y-508D01*
X-11639Y-506D01*
X-11701Y-506D01*
X-11792Y-414D02*
X-11792Y-690D01*
X-11792Y-506D02*
X-11869Y-506D01*
X-11881Y-508D01*
X-11892Y-512D01*
X-11902Y-519D01*
X-11909Y-529D01*
X-11913Y-540D01*
X-11915Y-552D01*
X-11915Y-690D01*
X-12024Y-644D02*
X-12024Y-506D01*
X-12024Y-644D02*
X-12026Y-656D01*
X-12030Y-667D01*
X-12037Y-677D01*
X-12047Y-684D01*
X-12058Y-688D01*
X-12070Y-690D01*
X-12147Y-690D01*
X-12147Y-506D01*
X-12253Y-414D02*
X-12253Y-644D01*
X-12255Y-656D01*
X-12259Y-667D01*
X-12266Y-677D01*
X-12276Y-684D01*
X-12287Y-688D01*
X-12299Y-690D01*
X-12426Y-690D02*
X-12503Y-690D01*
X-12426Y-690D02*
X-12414Y-688D01*
X-12403Y-684D01*
X-12393Y-677D01*
X-12386Y-667D01*
X-12382Y-656D01*
X-12380Y-644D01*
X-12380Y-568D01*
X-12382Y-553D01*
X-12387Y-540D01*
X-12395Y-528D01*
X-12406Y-518D01*
X-12419Y-511D01*
X-12434Y-507D01*
X-12448Y-507D01*
X-12463Y-511D01*
X-12476Y-518D01*
X-12487Y-528D01*
X-12495Y-540D01*
X-12500Y-553D01*
X-12502Y-568D01*
X-12503Y-568D02*
X-12503Y-598D01*
X-12380Y-598D01*
X-12587Y-721D02*
X-12710Y-383D01*
X-12795Y-690D02*
X-12887Y-690D01*
X-12901Y-688D01*
X-12913Y-684D01*
X-12925Y-677D01*
X-12935Y-667D01*
X-12942Y-655D01*
X-12946Y-643D01*
X-12948Y-629D01*
X-12949Y-629D02*
X-12949Y-598D01*
X-12948Y-598D02*
X-12946Y-584D01*
X-12942Y-572D01*
X-12935Y-560D01*
X-12925Y-550D01*
X-12913Y-543D01*
X-12901Y-539D01*
X-12887Y-537D01*
X-12795Y-537D01*
X-12795Y-414D01*
X-12949Y-414D01*
X-13038Y-675D02*
X-13038Y-690D01*
X-13038Y-675D02*
X-13054Y-675D01*
X-13054Y-690D01*
X-13038Y-690D01*
X-13276Y-614D02*
X-13276Y-491D01*
X-13275Y-491D02*
X-13277Y-475D01*
X-13282Y-460D01*
X-13290Y-446D01*
X-13300Y-434D01*
X-13314Y-424D01*
X-13328Y-418D01*
X-13344Y-414D01*
X-13360Y-414D01*
X-13376Y-418D01*
X-13391Y-424D01*
X-13404Y-434D01*
X-13414Y-446D01*
X-13422Y-460D01*
X-13427Y-475D01*
X-13429Y-491D01*
X-13429Y-614D01*
X-13427Y-630D01*
X-13422Y-645D01*
X-13414Y-659D01*
X-13404Y-671D01*
X-13391Y-681D01*
X-13376Y-687D01*
X-13360Y-691D01*
X-13344Y-691D01*
X-13328Y-687D01*
X-13314Y-681D01*
X-13300Y-671D01*
X-13290Y-659D01*
X-13282Y-645D01*
X-13277Y-630D01*
X-13275Y-614D01*
X-13532Y-690D02*
X-13532Y-414D01*
X-13532Y-690D02*
X-13608Y-690D01*
X-13620Y-688D01*
X-13631Y-684D01*
X-13641Y-677D01*
X-13648Y-667D01*
X-13652Y-656D01*
X-13654Y-644D01*
X-13654Y-552D01*
X-13652Y-540D01*
X-13648Y-529D01*
X-13641Y-519D01*
X-13631Y-512D01*
X-13620Y-508D01*
X-13608Y-506D01*
X-13532Y-506D01*
X-13792Y-690D02*
X-13869Y-690D01*
X-13792Y-690D02*
X-13780Y-688D01*
X-13769Y-684D01*
X-13759Y-677D01*
X-13752Y-667D01*
X-13748Y-656D01*
X-13746Y-644D01*
X-13746Y-568D01*
X-13747Y-568D02*
X-13749Y-553D01*
X-13754Y-540D01*
X-13762Y-528D01*
X-13773Y-518D01*
X-13786Y-511D01*
X-13801Y-507D01*
X-13815Y-507D01*
X-13830Y-511D01*
X-13843Y-518D01*
X-13854Y-528D01*
X-13862Y-540D01*
X-13867Y-553D01*
X-13869Y-568D01*
X-13869Y-598D01*
X-13746Y-598D01*
X-13971Y-690D02*
X-13971Y-506D01*
X-14063Y-506D01*
X-14063Y-537D01*
X-14159Y-583D02*
X-14235Y-614D01*
X-14158Y-583D02*
X-14148Y-577D01*
X-14139Y-568D01*
X-14134Y-556D01*
X-14133Y-544D01*
X-14135Y-532D01*
X-14141Y-521D01*
X-14150Y-513D01*
X-14161Y-508D01*
X-14174Y-506D01*
X-14198Y-508D01*
X-14221Y-513D01*
X-14244Y-521D01*
X-14236Y-613D02*
X-14246Y-619D01*
X-14255Y-628D01*
X-14260Y-640D01*
X-14261Y-652D01*
X-14259Y-664D01*
X-14253Y-675D01*
X-14244Y-683D01*
X-14233Y-688D01*
X-14220Y-690D01*
X-14192Y-688D01*
X-14164Y-683D01*
X-14136Y-675D01*
X-14397Y-690D02*
X-14458Y-690D01*
X-14397Y-690D02*
X-14385Y-688D01*
X-14374Y-684D01*
X-14364Y-677D01*
X-14357Y-667D01*
X-14353Y-656D01*
X-14351Y-644D01*
X-14351Y-552D01*
X-14353Y-540D01*
X-14357Y-529D01*
X-14364Y-519D01*
X-14374Y-512D01*
X-14385Y-508D01*
X-14397Y-506D01*
X-14458Y-506D01*
X-14550Y-414D02*
X-14550Y-690D01*
X-14550Y-506D02*
X-14626Y-506D01*
X-14638Y-508D01*
X-14649Y-512D01*
X-14659Y-519D01*
X-14666Y-529D01*
X-14670Y-540D01*
X-14672Y-552D01*
X-14672Y-690D01*
X-14782Y-644D02*
X-14782Y-506D01*
X-14782Y-644D02*
X-14784Y-656D01*
X-14788Y-667D01*
X-14795Y-677D01*
X-14805Y-684D01*
X-14816Y-688D01*
X-14828Y-690D01*
X-14904Y-690D01*
X-14904Y-506D01*
X-15011Y-414D02*
X-15011Y-644D01*
X-15013Y-656D01*
X-15017Y-667D01*
X-15024Y-677D01*
X-15034Y-684D01*
X-15045Y-688D01*
X-15057Y-690D01*
X-15184Y-690D02*
X-15260Y-690D01*
X-15184Y-690D02*
X-15172Y-688D01*
X-15161Y-684D01*
X-15151Y-677D01*
X-15144Y-667D01*
X-15140Y-656D01*
X-15138Y-644D01*
X-15138Y-568D01*
X-15140Y-553D01*
X-15145Y-540D01*
X-15153Y-528D01*
X-15164Y-518D01*
X-15177Y-511D01*
X-15192Y-507D01*
X-15206Y-507D01*
X-15221Y-511D01*
X-15234Y-518D01*
X-15245Y-528D01*
X-15253Y-540D01*
X-15258Y-553D01*
X-15260Y-568D01*
X-15260Y-598D01*
X-15138Y-598D01*
X-15571Y-414D02*
X-15586Y-416D01*
X-15601Y-421D01*
X-15614Y-429D01*
X-15625Y-440D01*
X-15633Y-453D01*
X-15638Y-468D01*
X-15640Y-483D01*
X-15571Y-414D02*
X-15555Y-415D01*
X-15540Y-420D01*
X-15525Y-427D01*
X-15512Y-436D01*
X-15501Y-448D01*
X-15493Y-461D01*
X-15486Y-476D01*
X-15617Y-537D02*
X-15627Y-525D01*
X-15634Y-512D01*
X-15638Y-498D01*
X-15640Y-483D01*
X-15617Y-537D02*
X-15487Y-690D01*
X-15640Y-690D01*
X-15735Y-552D02*
X-15736Y-526D01*
X-15741Y-501D01*
X-15748Y-476D01*
X-15758Y-452D01*
X-15758Y-453D02*
X-15764Y-440D01*
X-15773Y-429D01*
X-15785Y-421D01*
X-15798Y-416D01*
X-15812Y-414D01*
X-15826Y-416D01*
X-15839Y-421D01*
X-15851Y-429D01*
X-15860Y-440D01*
X-15866Y-453D01*
X-15866Y-452D02*
X-15876Y-476D01*
X-15883Y-501D01*
X-15888Y-526D01*
X-15889Y-552D01*
X-15735Y-552D02*
X-15736Y-578D01*
X-15741Y-603D01*
X-15748Y-628D01*
X-15758Y-652D01*
X-15764Y-664D01*
X-15773Y-675D01*
X-15785Y-683D01*
X-15798Y-688D01*
X-15812Y-690D01*
X-15866Y-652D02*
X-15876Y-628D01*
X-15883Y-603D01*
X-15888Y-578D01*
X-15889Y-552D01*
X-15866Y-652D02*
X-15860Y-664D01*
X-15851Y-675D01*
X-15839Y-683D01*
X-15826Y-688D01*
X-15812Y-690D01*
X-15750Y-629D02*
X-15873Y-476D01*
X-16068Y-414D02*
X-16083Y-416D01*
X-16098Y-421D01*
X-16111Y-429D01*
X-16122Y-440D01*
X-16130Y-453D01*
X-16135Y-468D01*
X-16137Y-483D01*
X-16068Y-414D02*
X-16052Y-415D01*
X-16037Y-420D01*
X-16022Y-427D01*
X-16009Y-436D01*
X-15998Y-448D01*
X-15990Y-461D01*
X-15983Y-476D01*
X-16114Y-537D02*
X-16124Y-525D01*
X-16131Y-512D01*
X-16135Y-498D01*
X-16137Y-483D01*
X-16114Y-537D02*
X-15984Y-690D01*
X-16137Y-690D01*
X-16232Y-476D02*
X-16309Y-414D01*
X-16309Y-690D01*
X-16385Y-690D02*
X-16232Y-690D01*
X-16565Y-414D02*
X-16580Y-416D01*
X-16595Y-421D01*
X-16608Y-429D01*
X-16619Y-440D01*
X-16627Y-453D01*
X-16632Y-468D01*
X-16634Y-483D01*
X-16565Y-414D02*
X-16549Y-415D01*
X-16534Y-420D01*
X-16519Y-427D01*
X-16506Y-436D01*
X-16495Y-448D01*
X-16487Y-461D01*
X-16480Y-476D01*
X-16611Y-537D02*
X-16621Y-525D01*
X-16628Y-512D01*
X-16632Y-498D01*
X-16634Y-483D01*
X-16611Y-537D02*
X-16480Y-690D01*
X-16634Y-690D01*
X-16882Y-483D02*
X-16880Y-468D01*
X-16875Y-453D01*
X-16867Y-440D01*
X-16856Y-429D01*
X-16843Y-421D01*
X-16828Y-416D01*
X-16813Y-414D01*
X-16797Y-415D01*
X-16782Y-420D01*
X-16767Y-427D01*
X-16754Y-436D01*
X-16743Y-448D01*
X-16735Y-461D01*
X-16728Y-476D01*
X-16859Y-537D02*
X-16869Y-525D01*
X-16876Y-512D01*
X-16880Y-498D01*
X-16882Y-483D01*
X-16859Y-537D02*
X-16729Y-690D01*
X-16882Y-690D01*
X-16968Y-721D02*
X-17091Y-383D01*
X-17186Y-414D02*
X-17186Y-690D01*
X-17278Y-568D02*
X-17186Y-414D01*
X-17278Y-568D02*
X-17370Y-414D01*
X-17370Y-690D01*
X-17526Y-583D02*
X-17595Y-583D01*
X-17526Y-583D02*
X-17513Y-585D01*
X-17501Y-589D01*
X-17490Y-597D01*
X-17482Y-606D01*
X-17476Y-618D01*
X-17472Y-630D01*
X-17472Y-644D01*
X-17476Y-656D01*
X-17482Y-668D01*
X-17490Y-677D01*
X-17501Y-685D01*
X-17513Y-689D01*
X-17526Y-691D01*
X-17526Y-690D02*
X-17595Y-690D01*
X-17595Y-552D01*
X-17593Y-540D01*
X-17589Y-529D01*
X-17582Y-519D01*
X-17572Y-512D01*
X-17561Y-508D01*
X-17549Y-506D01*
X-17488Y-506D01*
X-17678Y-506D02*
X-17770Y-506D01*
X-17708Y-414D02*
X-17708Y-644D01*
X-17710Y-656D01*
X-17714Y-667D01*
X-17721Y-677D01*
X-17731Y-684D01*
X-17742Y-688D01*
X-17754Y-690D01*
X-17755Y-690D02*
X-17770Y-690D01*
X-17862Y-644D02*
X-17862Y-506D01*
X-17862Y-644D02*
X-17864Y-656D01*
X-17868Y-667D01*
X-17875Y-677D01*
X-17885Y-684D01*
X-17896Y-688D01*
X-17908Y-690D01*
X-17985Y-690D01*
X-17985Y-506D01*
X-18095Y-506D02*
X-18095Y-690D01*
X-18095Y-506D02*
X-18187Y-506D01*
X-18187Y-537D01*
X-18313Y-583D02*
X-18382Y-583D01*
X-18313Y-583D02*
X-18300Y-585D01*
X-18288Y-589D01*
X-18277Y-597D01*
X-18269Y-606D01*
X-18263Y-618D01*
X-18259Y-630D01*
X-18259Y-644D01*
X-18263Y-656D01*
X-18269Y-668D01*
X-18277Y-677D01*
X-18288Y-685D01*
X-18300Y-689D01*
X-18313Y-691D01*
X-18313Y-690D02*
X-18382Y-690D01*
X-18382Y-552D01*
X-18380Y-540D01*
X-18376Y-529D01*
X-18369Y-519D01*
X-18359Y-512D01*
X-18348Y-508D01*
X-18336Y-506D01*
X-18274Y-506D01*
X-18492Y-506D02*
X-18492Y-782D01*
X-18492Y-506D02*
X-18569Y-506D01*
X-18581Y-508D01*
X-18592Y-512D01*
X-18602Y-519D01*
X-18609Y-529D01*
X-18613Y-540D01*
X-18615Y-552D01*
X-18615Y-644D01*
X-18613Y-656D01*
X-18609Y-667D01*
X-18602Y-677D01*
X-18592Y-684D01*
X-18581Y-688D01*
X-18569Y-690D01*
X-18492Y-690D01*
X-18716Y-690D02*
X-18716Y-506D01*
X-18808Y-506D01*
X-18808Y-537D01*
X-18882Y-506D02*
X-18882Y-736D01*
X-18880Y-748D01*
X-18876Y-759D01*
X-18869Y-769D01*
X-18859Y-776D01*
X-18848Y-780D01*
X-18836Y-782D01*
X-18821Y-782D01*
X-18874Y-429D02*
X-18874Y-414D01*
X-18890Y-414D01*
X-18890Y-429D01*
X-18874Y-429D01*
X-18980Y-568D02*
X-18980Y-629D01*
X-18981Y-568D02*
X-18983Y-553D01*
X-18988Y-540D01*
X-18996Y-528D01*
X-19007Y-518D01*
X-19020Y-511D01*
X-19035Y-507D01*
X-19049Y-507D01*
X-19064Y-511D01*
X-19077Y-518D01*
X-19088Y-528D01*
X-19096Y-540D01*
X-19101Y-553D01*
X-19103Y-568D01*
X-19103Y-629D01*
X-19101Y-644D01*
X-19096Y-657D01*
X-19088Y-669D01*
X-19077Y-679D01*
X-19064Y-686D01*
X-19049Y-690D01*
X-19035Y-690D01*
X-19020Y-686D01*
X-19007Y-679D01*
X-18996Y-669D01*
X-18988Y-657D01*
X-18983Y-644D01*
X-18981Y-629D01*
X-19242Y-690D02*
X-19303Y-690D01*
X-19242Y-690D02*
X-19230Y-688D01*
X-19219Y-684D01*
X-19209Y-677D01*
X-19202Y-667D01*
X-19198Y-656D01*
X-19196Y-644D01*
X-19196Y-552D01*
X-19198Y-540D01*
X-19202Y-529D01*
X-19209Y-519D01*
X-19219Y-512D01*
X-19230Y-508D01*
X-19242Y-506D01*
X-19303Y-506D01*
X-19367Y-506D02*
X-19459Y-506D01*
X-19398Y-414D02*
X-19398Y-644D01*
X-19400Y-656D01*
X-19404Y-667D01*
X-19411Y-677D01*
X-19421Y-684D01*
X-19432Y-688D01*
X-19444Y-690D01*
X-19459Y-690D01*
X-19535Y-721D02*
X-19658Y-383D01*
X-19864Y-414D02*
X-19864Y-690D01*
X-19787Y-690D01*
X-19775Y-688D01*
X-19764Y-684D01*
X-19754Y-677D01*
X-19747Y-667D01*
X-19743Y-656D01*
X-19741Y-644D01*
X-19741Y-552D01*
X-19742Y-552D02*
X-19744Y-540D01*
X-19748Y-529D01*
X-19755Y-519D01*
X-19765Y-512D01*
X-19776Y-508D01*
X-19788Y-506D01*
X-19787Y-506D02*
X-19864Y-506D01*
X-19975Y-506D02*
X-19975Y-690D01*
X-19975Y-506D02*
X-20067Y-506D01*
X-20067Y-537D01*
X-20193Y-583D02*
X-20262Y-583D01*
X-20193Y-583D02*
X-20180Y-585D01*
X-20168Y-589D01*
X-20157Y-597D01*
X-20149Y-606D01*
X-20143Y-618D01*
X-20139Y-630D01*
X-20139Y-644D01*
X-20143Y-656D01*
X-20149Y-668D01*
X-20157Y-677D01*
X-20168Y-685D01*
X-20180Y-689D01*
X-20193Y-691D01*
X-20193Y-690D02*
X-20262Y-690D01*
X-20262Y-552D01*
X-20260Y-540D01*
X-20256Y-529D01*
X-20249Y-519D01*
X-20239Y-512D01*
X-20228Y-508D01*
X-20216Y-506D01*
X-20154Y-506D01*
X-20357Y-506D02*
X-20403Y-690D01*
X-20449Y-568D01*
X-20495Y-690D01*
X-20541Y-506D01*
X-20632Y-506D02*
X-20632Y-690D01*
X-20624Y-429D02*
X-20624Y-414D01*
X-20639Y-414D01*
X-20639Y-429D01*
X-20624Y-429D01*
X-20736Y-506D02*
X-20736Y-690D01*
X-20736Y-506D02*
X-20813Y-506D01*
X-20825Y-508D01*
X-20836Y-512D01*
X-20846Y-519D01*
X-20853Y-529D01*
X-20857Y-540D01*
X-20859Y-552D01*
X-20859Y-690D01*
X-21005Y-690D02*
X-21082Y-690D01*
X-21005Y-690D02*
X-20993Y-688D01*
X-20982Y-684D01*
X-20972Y-677D01*
X-20965Y-667D01*
X-20961Y-656D01*
X-20959Y-644D01*
X-20959Y-552D01*
X-20961Y-540D01*
X-20965Y-529D01*
X-20972Y-519D01*
X-20982Y-512D01*
X-20993Y-508D01*
X-21005Y-506D01*
X-21082Y-506D01*
X-21082Y-736D01*
X-21080Y-748D01*
X-21076Y-759D01*
X-21069Y-769D01*
X-21059Y-776D01*
X-21048Y-780D01*
X-21036Y-782D01*
X-20974Y-782D01*
X-21175Y-721D02*
X-21298Y-383D01*
X-21392Y-414D02*
X-21392Y-690D01*
X-21514Y-690D01*
X-21597Y-629D02*
X-21597Y-568D01*
X-21598Y-568D02*
X-21600Y-553D01*
X-21605Y-540D01*
X-21613Y-528D01*
X-21624Y-518D01*
X-21637Y-511D01*
X-21652Y-507D01*
X-21666Y-507D01*
X-21681Y-511D01*
X-21694Y-518D01*
X-21705Y-528D01*
X-21713Y-540D01*
X-21718Y-553D01*
X-21720Y-568D01*
X-21720Y-629D01*
X-21718Y-644D01*
X-21713Y-657D01*
X-21705Y-669D01*
X-21694Y-679D01*
X-21681Y-686D01*
X-21666Y-690D01*
X-21652Y-690D01*
X-21637Y-686D01*
X-21624Y-679D01*
X-21613Y-669D01*
X-21605Y-657D01*
X-21600Y-644D01*
X-21598Y-629D01*
X-21858Y-690D02*
X-21935Y-690D01*
X-21858Y-690D02*
X-21846Y-688D01*
X-21835Y-684D01*
X-21825Y-677D01*
X-21818Y-667D01*
X-21814Y-656D01*
X-21812Y-644D01*
X-21812Y-552D01*
X-21814Y-540D01*
X-21818Y-529D01*
X-21825Y-519D01*
X-21835Y-512D01*
X-21846Y-508D01*
X-21858Y-506D01*
X-21935Y-506D01*
X-21935Y-736D01*
X-21933Y-748D01*
X-21929Y-759D01*
X-21922Y-769D01*
X-21912Y-776D01*
X-21901Y-780D01*
X-21889Y-782D01*
X-21827Y-782D01*
X-22036Y-629D02*
X-22036Y-568D01*
X-22037Y-568D02*
X-22039Y-553D01*
X-22044Y-540D01*
X-22052Y-528D01*
X-22063Y-518D01*
X-22076Y-511D01*
X-22091Y-507D01*
X-22105Y-507D01*
X-22120Y-511D01*
X-22133Y-518D01*
X-22144Y-528D01*
X-22152Y-540D01*
X-22157Y-553D01*
X-22159Y-568D01*
X-22159Y-629D01*
X-22157Y-644D01*
X-22152Y-657D01*
X-22144Y-669D01*
X-22133Y-679D01*
X-22120Y-686D01*
X-22105Y-690D01*
X-22091Y-690D01*
X-22076Y-686D01*
X-22063Y-679D01*
X-22052Y-669D01*
X-22044Y-657D01*
X-22039Y-644D01*
X-22037Y-629D01*
X-22243Y-721D02*
X-22366Y-383D01*
X-22460Y-414D02*
X-22460Y-690D01*
X-22460Y-414D02*
X-22583Y-414D01*
X-22583Y-537D02*
X-22460Y-537D01*
X-22751Y-690D02*
X-22765Y-688D01*
X-22777Y-684D01*
X-22789Y-677D01*
X-22799Y-667D01*
X-22806Y-655D01*
X-22810Y-643D01*
X-22812Y-629D01*
X-22751Y-691D02*
X-22731Y-689D01*
X-22711Y-685D01*
X-22692Y-677D01*
X-22674Y-666D01*
X-22659Y-653D01*
X-22667Y-476D02*
X-22669Y-462D01*
X-22673Y-450D01*
X-22680Y-438D01*
X-22690Y-428D01*
X-22702Y-421D01*
X-22714Y-417D01*
X-22728Y-415D01*
X-22728Y-414D02*
X-22746Y-415D01*
X-22764Y-420D01*
X-22781Y-427D01*
X-22797Y-437D01*
X-22697Y-529D02*
X-22686Y-522D01*
X-22678Y-512D01*
X-22671Y-501D01*
X-22667Y-489D01*
X-22666Y-476D01*
X-22781Y-576D02*
X-22792Y-583D01*
X-22800Y-593D01*
X-22807Y-604D01*
X-22811Y-616D01*
X-22812Y-629D01*
X-22781Y-575D02*
X-22697Y-529D01*
X-22982Y-690D02*
X-22996Y-688D01*
X-23008Y-684D01*
X-23020Y-677D01*
X-23030Y-667D01*
X-23037Y-655D01*
X-23041Y-643D01*
X-23043Y-629D01*
X-22982Y-691D02*
X-22962Y-689D01*
X-22942Y-685D01*
X-22923Y-677D01*
X-22905Y-666D01*
X-22890Y-653D01*
X-22898Y-476D02*
X-22900Y-462D01*
X-22904Y-450D01*
X-22911Y-438D01*
X-22921Y-428D01*
X-22933Y-421D01*
X-22945Y-417D01*
X-22959Y-415D01*
X-22959Y-414D02*
X-22977Y-415D01*
X-22995Y-420D01*
X-23012Y-427D01*
X-23028Y-437D01*
X-22929Y-529D02*
X-22918Y-522D01*
X-22910Y-512D01*
X-22903Y-501D01*
X-22899Y-489D01*
X-22898Y-476D01*
X-23012Y-576D02*
X-23023Y-583D01*
X-23031Y-593D01*
X-23038Y-604D01*
X-23042Y-616D01*
X-23043Y-629D01*
X-23013Y-575D02*
X-22929Y-529D01*
X-23139Y-414D02*
X-23139Y-690D01*
X-23262Y-690D01*
X-23346Y-614D02*
X-23346Y-491D01*
X-23348Y-475D01*
X-23353Y-460D01*
X-23361Y-446D01*
X-23371Y-434D01*
X-23385Y-424D01*
X-23399Y-418D01*
X-23415Y-414D01*
X-23431Y-414D01*
X-23447Y-418D01*
X-23462Y-424D01*
X-23475Y-434D01*
X-23485Y-446D01*
X-23493Y-460D01*
X-23498Y-475D01*
X-23500Y-491D01*
X-23499Y-491D02*
X-23499Y-614D01*
X-23500Y-614D02*
X-23498Y-630D01*
X-23493Y-645D01*
X-23485Y-659D01*
X-23475Y-671D01*
X-23462Y-681D01*
X-23447Y-687D01*
X-23431Y-691D01*
X-23415Y-691D01*
X-23399Y-687D01*
X-23385Y-681D01*
X-23371Y-671D01*
X-23361Y-659D01*
X-23353Y-645D01*
X-23348Y-630D01*
X-23346Y-614D01*
X-23710Y-537D02*
X-23756Y-537D01*
X-23756Y-690D01*
X-23664Y-690D01*
X-23650Y-688D01*
X-23638Y-684D01*
X-23626Y-677D01*
X-23616Y-667D01*
X-23609Y-655D01*
X-23605Y-643D01*
X-23603Y-629D01*
X-23603Y-476D01*
X-23605Y-462D01*
X-23609Y-450D01*
X-23616Y-438D01*
X-23626Y-428D01*
X-23638Y-421D01*
X-23650Y-417D01*
X-23664Y-415D01*
X-23664Y-414D02*
X-23756Y-414D01*
X-23859Y-491D02*
X-23859Y-614D01*
X-23859Y-491D02*
X-23861Y-475D01*
X-23866Y-460D01*
X-23874Y-446D01*
X-23884Y-434D01*
X-23898Y-424D01*
X-23912Y-418D01*
X-23928Y-414D01*
X-23944Y-414D01*
X-23960Y-418D01*
X-23975Y-424D01*
X-23988Y-434D01*
X-23998Y-446D01*
X-24006Y-460D01*
X-24011Y-475D01*
X-24013Y-491D01*
X-24013Y-614D01*
X-24011Y-630D01*
X-24006Y-645D01*
X-23998Y-659D01*
X-23988Y-671D01*
X-23975Y-681D01*
X-23960Y-687D01*
X-23944Y-691D01*
X-23928Y-691D01*
X-23912Y-687D01*
X-23898Y-681D01*
X-23884Y-671D01*
X-23874Y-659D01*
X-23866Y-645D01*
X-23861Y-630D01*
X-23859Y-614D01*
X-24169Y-690D02*
X-24230Y-690D01*
X-24169Y-690D02*
X-24155Y-688D01*
X-24143Y-684D01*
X-24131Y-677D01*
X-24121Y-667D01*
X-24114Y-655D01*
X-24110Y-643D01*
X-24108Y-629D01*
X-24107Y-629D02*
X-24107Y-476D01*
X-24108Y-476D02*
X-24110Y-462D01*
X-24114Y-450D01*
X-24121Y-438D01*
X-24131Y-428D01*
X-24143Y-421D01*
X-24155Y-417D01*
X-24169Y-415D01*
X-24169Y-414D02*
X-24230Y-414D01*
X-24322Y-506D02*
X-24322Y-644D01*
X-24324Y-656D01*
X-24328Y-667D01*
X-24335Y-677D01*
X-24345Y-684D01*
X-24356Y-688D01*
X-24368Y-690D01*
X-24445Y-690D01*
X-24445Y-506D01*
X-24527Y-506D02*
X-24619Y-506D01*
X-24557Y-414D02*
X-24557Y-644D01*
X-24559Y-656D01*
X-24563Y-667D01*
X-24570Y-677D01*
X-24580Y-684D01*
X-24591Y-688D01*
X-24603Y-690D01*
X-24619Y-690D01*
X-24694Y-721D02*
X-24817Y-721D01*
X-24913Y-537D02*
X-24990Y-537D01*
X-25006Y-539D01*
X-25021Y-544D01*
X-25035Y-552D01*
X-25047Y-562D01*
X-25057Y-576D01*
X-25063Y-590D01*
X-25067Y-606D01*
X-25067Y-622D01*
X-25063Y-638D01*
X-25057Y-652D01*
X-25047Y-666D01*
X-25035Y-676D01*
X-25021Y-684D01*
X-25006Y-689D01*
X-24990Y-691D01*
X-24990Y-690D02*
X-24913Y-690D01*
X-24913Y-414D01*
X-24990Y-414D01*
X-25005Y-416D01*
X-25018Y-421D01*
X-25030Y-429D01*
X-25040Y-440D01*
X-25047Y-453D01*
X-25051Y-468D01*
X-25051Y-482D01*
X-25047Y-497D01*
X-25040Y-510D01*
X-25030Y-521D01*
X-25018Y-529D01*
X-25005Y-534D01*
X-24990Y-536D01*
X-25138Y-414D02*
X-25200Y-690D01*
X-25261Y-506D01*
X-25322Y-690D01*
X-25384Y-414D01*
X-25460Y-675D02*
X-25460Y-690D01*
X-25460Y-675D02*
X-25476Y-675D01*
X-25476Y-690D01*
X-25460Y-690D01*
X-25573Y-690D02*
X-25573Y-414D01*
X-25573Y-690D02*
X-25650Y-690D01*
X-25662Y-688D01*
X-25673Y-684D01*
X-25683Y-677D01*
X-25690Y-667D01*
X-25694Y-656D01*
X-25696Y-644D01*
X-25696Y-552D01*
X-25694Y-540D01*
X-25690Y-529D01*
X-25683Y-519D01*
X-25673Y-512D01*
X-25662Y-508D01*
X-25650Y-506D01*
X-25573Y-506D01*
X-25798Y-506D02*
X-25798Y-690D01*
X-25798Y-506D02*
X-25936Y-506D01*
X-25948Y-508D01*
X-25959Y-512D01*
X-25969Y-519D01*
X-25976Y-529D01*
X-25980Y-540D01*
X-25982Y-552D01*
X-25982Y-690D01*
X-25890Y-690D02*
X-25890Y-506D01*
X-26095Y-506D02*
X-26095Y-782D01*
X-26095Y-506D02*
X-26171Y-506D01*
X-26183Y-508D01*
X-26194Y-512D01*
X-26204Y-519D01*
X-26211Y-529D01*
X-26215Y-540D01*
X-26217Y-552D01*
X-26217Y-644D01*
X-26215Y-656D01*
X-26211Y-667D01*
X-26204Y-677D01*
X-26194Y-684D01*
X-26183Y-688D01*
X-26171Y-690D01*
X-26095Y-690D01*
M02*
