G04 EAGLE Gerber RS-274X export*
G75*
%MOMM*%
%FSLAX34Y34*%
%LPD*%
%INTop Layer*%
%IPPOS*%
%AMOC8*
5,1,8,0,0,1.08239X$1,22.5*%
G01*
%ADD10C,0.304800*%
%ADD11R,1.500000X1.300000*%
%ADD12R,1.150000X1.150000*%
%ADD13R,1.300000X1.500000*%
%ADD14R,1.200000X1.200000*%
%ADD15C,1.108000*%
%ADD16P,1.649562X8X292.500000*%
%ADD17C,0.756400*%


D10*
X-19050Y0D02*
X396750Y0D01*
X396750Y577750D01*
X-19050Y577750D01*
X-19050Y0D01*
D11*
X184150Y365100D03*
X184150Y346100D03*
D12*
X215900Y495300D03*
X215900Y469900D03*
X215900Y444500D03*
X215900Y419100D03*
X215900Y393700D03*
X215900Y368300D03*
X215900Y342900D03*
X241300Y317500D03*
X266700Y317500D03*
X292100Y317500D03*
X317500Y317500D03*
X342900Y317500D03*
X368300Y342900D03*
X368300Y368300D03*
X368300Y393700D03*
X368300Y419100D03*
X368300Y444500D03*
X368300Y469900D03*
X368300Y495300D03*
X342900Y520700D03*
X317500Y520700D03*
X292100Y520700D03*
X266700Y520700D03*
X241300Y520700D03*
D13*
X161950Y495300D03*
X180950Y495300D03*
X161950Y469900D03*
X180950Y469900D03*
X161950Y444500D03*
X180950Y444500D03*
X163220Y419100D03*
X182220Y419100D03*
X161950Y393700D03*
X180950Y393700D03*
X244500Y285750D03*
X263500Y285750D03*
D14*
X175600Y527050D03*
X154600Y527050D03*
D13*
X130150Y527050D03*
X111150Y527050D03*
D11*
X184150Y111150D03*
X184150Y130150D03*
D15*
X216710Y127000D02*
X227790Y127000D01*
X227790Y114300D02*
X216710Y114300D01*
X216710Y101600D02*
X227790Y101600D01*
X227790Y88900D02*
X216710Y88900D01*
X216710Y76200D02*
X227790Y76200D01*
X227790Y63500D02*
X216710Y63500D01*
X216710Y50800D02*
X227790Y50800D01*
X227790Y38100D02*
X216710Y38100D01*
D16*
X44450Y520700D03*
X69850Y520700D03*
X44450Y495300D03*
X69850Y495300D03*
X44450Y469900D03*
X69850Y469900D03*
X44450Y444500D03*
X69850Y444500D03*
X44450Y419100D03*
X69850Y419100D03*
X44450Y393700D03*
X69850Y393700D03*
X44450Y368300D03*
X69850Y368300D03*
X44450Y342900D03*
X69850Y342900D03*
X44450Y317500D03*
X69850Y317500D03*
X44450Y292100D03*
X69850Y292100D03*
X44450Y266700D03*
X69850Y266700D03*
X44450Y241300D03*
X69850Y241300D03*
X44450Y215900D03*
X69850Y215900D03*
X44450Y190500D03*
X69850Y190500D03*
X44450Y165100D03*
X69850Y165100D03*
X44450Y139700D03*
X69850Y139700D03*
X44450Y114300D03*
X69850Y114300D03*
X44450Y88900D03*
X69850Y88900D03*
X44450Y63500D03*
X69850Y63500D03*
X44450Y38100D03*
X69850Y38100D03*
D14*
X169250Y25400D03*
X148250Y25400D03*
D13*
X123800Y25400D03*
X104800Y25400D03*
D10*
X187350Y368300D02*
X215900Y368300D01*
X187350Y368300D02*
X184150Y365100D01*
X44450Y520700D02*
X44450Y533400D01*
X57150Y546100D01*
X101600Y546100D01*
X111150Y536550D02*
X111150Y527050D01*
X111150Y536550D02*
X101600Y546100D01*
X152400Y374650D02*
X161950Y365100D01*
X184150Y365100D01*
X187300Y114300D02*
X184150Y111150D01*
X187300Y114300D02*
X222250Y114300D01*
X104800Y25400D02*
X63500Y25400D01*
X57150Y31750D01*
X57150Y44450D01*
X50800Y50800D01*
X31750Y50800D01*
X25400Y57150D01*
X25400Y311150D01*
X31750Y317500D01*
X44450Y317500D01*
X104800Y41300D02*
X104800Y25400D01*
X104800Y41300D02*
X107950Y44450D01*
D17*
X107950Y44450D03*
D10*
X180950Y107950D02*
X184150Y111150D01*
X88900Y374650D02*
X82550Y381000D01*
X88900Y374650D02*
X152400Y374650D01*
X57150Y508000D02*
X44450Y520700D01*
X57150Y508000D02*
X57150Y387350D01*
X63500Y381000D01*
X82550Y381000D01*
X187350Y342900D02*
X215900Y342900D01*
X187350Y342900D02*
X184150Y346100D01*
D17*
X266700Y501650D03*
D10*
X266700Y520700D01*
X82550Y469900D02*
X69850Y469900D01*
X171450Y514350D02*
X175600Y518500D01*
X175600Y527050D01*
X127000Y514350D02*
X82550Y469900D01*
X127000Y514350D02*
X171450Y514350D01*
X161900Y346100D02*
X184150Y346100D01*
X184150Y130150D02*
X187300Y127000D01*
X222250Y127000D01*
X44450Y38100D02*
X44450Y25908D01*
X57150Y13208D01*
X165100Y13208D01*
X169250Y17358D01*
X169250Y25400D01*
X161900Y346100D02*
X152400Y355600D01*
X25400Y368300D02*
X25400Y412750D01*
X31750Y419100D01*
X44450Y419100D01*
X38100Y355600D02*
X152400Y355600D01*
X38100Y355600D02*
X25400Y368300D01*
X263500Y285750D02*
X266700Y288950D01*
X266700Y317500D01*
X215900Y495300D02*
X180950Y495300D01*
X180950Y469900D02*
X215900Y469900D01*
X215900Y444500D02*
X180950Y444500D01*
X182220Y419100D02*
X215900Y419100D01*
X215900Y393700D02*
X180950Y393700D01*
D17*
X241300Y266700D03*
D10*
X241300Y282550D01*
X244500Y285750D01*
X161950Y393700D02*
X139700Y393700D01*
D17*
X139700Y393700D03*
D10*
X133350Y419100D02*
X163220Y419100D01*
X133350Y419100D02*
X120650Y431800D01*
D17*
X120650Y431800D03*
X133350Y444500D03*
D10*
X161950Y444500D01*
X161950Y495300D02*
X133350Y495300D01*
X101600Y463550D01*
X101600Y393700D01*
D17*
X101600Y393700D03*
D10*
X130150Y527050D02*
X154600Y527050D01*
X44450Y292100D02*
X57150Y279400D01*
X95250Y279400D02*
X241300Y133350D01*
X241300Y57150D01*
X234950Y50800D02*
X222250Y50800D01*
X95250Y279400D02*
X57150Y279400D01*
X241300Y57150D02*
X234950Y50800D01*
X57150Y228600D02*
X44450Y241300D01*
X57150Y228600D02*
X82550Y228600D01*
X133350Y177800D01*
X133350Y127000D01*
X196850Y63500D01*
X222250Y63500D01*
X82550Y317500D02*
X69850Y317500D01*
X254000Y146050D02*
X254000Y101600D01*
X254000Y146050D02*
X82550Y317500D01*
D17*
X254000Y101600D03*
D10*
X82550Y342900D02*
X69850Y342900D01*
X82550Y342900D02*
X266700Y158750D01*
X266700Y88900D01*
D17*
X266700Y88900D03*
D10*
X82550Y215900D02*
X69850Y215900D01*
X82550Y215900D02*
X120650Y177800D01*
X120650Y127000D02*
X209550Y38100D01*
X222250Y38100D01*
X120650Y127000D02*
X120650Y177800D01*
X57150Y254000D02*
X44450Y266700D01*
X57150Y254000D02*
X82550Y254000D01*
X196850Y76200D02*
X222250Y76200D01*
X196850Y76200D02*
X146050Y127000D01*
X146050Y190500D01*
X82550Y254000D01*
X123800Y25400D02*
X148250Y25400D01*
M02*
