G04 EAGLE Gerber RS-274X export*
G75*
%MOMM*%
%FSLAX34Y34*%
%LPD*%
%INAusfräsungen*%
%IPPOS*%
%AMOC8*
5,1,8,0,0,1.08239X$1,22.5*%
G01*
%ADD10C,0.000000*%
%ADD11C,0.304800*%


D10*
X0Y0D02*
X352300Y0D01*
D11*
X352300Y641250D01*
X0Y641250D01*
X0Y0D01*
D10*
X77750Y527050D02*
X77755Y527479D01*
X77771Y527909D01*
X77797Y528337D01*
X77834Y528765D01*
X77882Y529192D01*
X77939Y529618D01*
X78008Y530042D01*
X78086Y530464D01*
X78175Y530884D01*
X78274Y531302D01*
X78384Y531717D01*
X78504Y532130D01*
X78633Y532539D01*
X78773Y532946D01*
X78923Y533348D01*
X79082Y533747D01*
X79251Y534142D01*
X79430Y534532D01*
X79619Y534918D01*
X79816Y535299D01*
X80023Y535676D01*
X80240Y536047D01*
X80465Y536412D01*
X80699Y536772D01*
X80942Y537127D01*
X81194Y537475D01*
X81454Y537817D01*
X81722Y538152D01*
X81999Y538481D01*
X82283Y538802D01*
X82576Y539117D01*
X82876Y539424D01*
X83183Y539724D01*
X83498Y540017D01*
X83819Y540301D01*
X84148Y540578D01*
X84483Y540846D01*
X84825Y541106D01*
X85173Y541358D01*
X85528Y541601D01*
X85888Y541835D01*
X86253Y542060D01*
X86624Y542277D01*
X87001Y542484D01*
X87382Y542681D01*
X87768Y542870D01*
X88158Y543049D01*
X88553Y543218D01*
X88952Y543377D01*
X89354Y543527D01*
X89761Y543667D01*
X90170Y543796D01*
X90583Y543916D01*
X90998Y544026D01*
X91416Y544125D01*
X91836Y544214D01*
X92258Y544292D01*
X92682Y544361D01*
X93108Y544418D01*
X93535Y544466D01*
X93963Y544503D01*
X94391Y544529D01*
X94821Y544545D01*
X95250Y544550D01*
X95679Y544545D01*
X96109Y544529D01*
X96537Y544503D01*
X96965Y544466D01*
X97392Y544418D01*
X97818Y544361D01*
X98242Y544292D01*
X98664Y544214D01*
X99084Y544125D01*
X99502Y544026D01*
X99917Y543916D01*
X100330Y543796D01*
X100739Y543667D01*
X101146Y543527D01*
X101548Y543377D01*
X101947Y543218D01*
X102342Y543049D01*
X102732Y542870D01*
X103118Y542681D01*
X103499Y542484D01*
X103876Y542277D01*
X104247Y542060D01*
X104612Y541835D01*
X104972Y541601D01*
X105327Y541358D01*
X105675Y541106D01*
X106017Y540846D01*
X106352Y540578D01*
X106681Y540301D01*
X107002Y540017D01*
X107317Y539724D01*
X107624Y539424D01*
X107924Y539117D01*
X108217Y538802D01*
X108501Y538481D01*
X108778Y538152D01*
X109046Y537817D01*
X109306Y537475D01*
X109558Y537127D01*
X109801Y536772D01*
X110035Y536412D01*
X110260Y536047D01*
X110477Y535676D01*
X110684Y535299D01*
X110881Y534918D01*
X111070Y534532D01*
X111249Y534142D01*
X111418Y533747D01*
X111577Y533348D01*
X111727Y532946D01*
X111867Y532539D01*
X111996Y532130D01*
X112116Y531717D01*
X112226Y531302D01*
X112325Y530884D01*
X112414Y530464D01*
X112492Y530042D01*
X112561Y529618D01*
X112618Y529192D01*
X112666Y528765D01*
X112703Y528337D01*
X112729Y527909D01*
X112745Y527479D01*
X112750Y527050D01*
X112745Y526621D01*
X112729Y526191D01*
X112703Y525763D01*
X112666Y525335D01*
X112618Y524908D01*
X112561Y524482D01*
X112492Y524058D01*
X112414Y523636D01*
X112325Y523216D01*
X112226Y522798D01*
X112116Y522383D01*
X111996Y521970D01*
X111867Y521561D01*
X111727Y521154D01*
X111577Y520752D01*
X111418Y520353D01*
X111249Y519958D01*
X111070Y519568D01*
X110881Y519182D01*
X110684Y518801D01*
X110477Y518424D01*
X110260Y518053D01*
X110035Y517688D01*
X109801Y517328D01*
X109558Y516973D01*
X109306Y516625D01*
X109046Y516283D01*
X108778Y515948D01*
X108501Y515619D01*
X108217Y515298D01*
X107924Y514983D01*
X107624Y514676D01*
X107317Y514376D01*
X107002Y514083D01*
X106681Y513799D01*
X106352Y513522D01*
X106017Y513254D01*
X105675Y512994D01*
X105327Y512742D01*
X104972Y512499D01*
X104612Y512265D01*
X104247Y512040D01*
X103876Y511823D01*
X103499Y511616D01*
X103118Y511419D01*
X102732Y511230D01*
X102342Y511051D01*
X101947Y510882D01*
X101548Y510723D01*
X101146Y510573D01*
X100739Y510433D01*
X100330Y510304D01*
X99917Y510184D01*
X99502Y510074D01*
X99084Y509975D01*
X98664Y509886D01*
X98242Y509808D01*
X97818Y509739D01*
X97392Y509682D01*
X96965Y509634D01*
X96537Y509597D01*
X96109Y509571D01*
X95679Y509555D01*
X95250Y509550D01*
X94821Y509555D01*
X94391Y509571D01*
X93963Y509597D01*
X93535Y509634D01*
X93108Y509682D01*
X92682Y509739D01*
X92258Y509808D01*
X91836Y509886D01*
X91416Y509975D01*
X90998Y510074D01*
X90583Y510184D01*
X90170Y510304D01*
X89761Y510433D01*
X89354Y510573D01*
X88952Y510723D01*
X88553Y510882D01*
X88158Y511051D01*
X87768Y511230D01*
X87382Y511419D01*
X87001Y511616D01*
X86624Y511823D01*
X86253Y512040D01*
X85888Y512265D01*
X85528Y512499D01*
X85173Y512742D01*
X84825Y512994D01*
X84483Y513254D01*
X84148Y513522D01*
X83819Y513799D01*
X83498Y514083D01*
X83183Y514376D01*
X82876Y514676D01*
X82576Y514983D01*
X82283Y515298D01*
X81999Y515619D01*
X81722Y515948D01*
X81454Y516283D01*
X81194Y516625D01*
X80942Y516973D01*
X80699Y517328D01*
X80465Y517688D01*
X80240Y518053D01*
X80023Y518424D01*
X79816Y518801D01*
X79619Y519182D01*
X79430Y519568D01*
X79251Y519958D01*
X79082Y520353D01*
X78923Y520752D01*
X78773Y521154D01*
X78633Y521561D01*
X78504Y521970D01*
X78384Y522383D01*
X78274Y522798D01*
X78175Y523216D01*
X78086Y523636D01*
X78008Y524058D01*
X77939Y524482D01*
X77882Y524908D01*
X77834Y525335D01*
X77797Y525763D01*
X77771Y526191D01*
X77755Y526621D01*
X77750Y527050D01*
X312700Y107950D02*
X312705Y108379D01*
X312721Y108809D01*
X312747Y109237D01*
X312784Y109665D01*
X312832Y110092D01*
X312889Y110518D01*
X312958Y110942D01*
X313036Y111364D01*
X313125Y111784D01*
X313224Y112202D01*
X313334Y112617D01*
X313454Y113030D01*
X313583Y113439D01*
X313723Y113846D01*
X313873Y114248D01*
X314032Y114647D01*
X314201Y115042D01*
X314380Y115432D01*
X314569Y115818D01*
X314766Y116199D01*
X314973Y116576D01*
X315190Y116947D01*
X315415Y117312D01*
X315649Y117672D01*
X315892Y118027D01*
X316144Y118375D01*
X316404Y118717D01*
X316672Y119052D01*
X316949Y119381D01*
X317233Y119702D01*
X317526Y120017D01*
X317826Y120324D01*
X318133Y120624D01*
X318448Y120917D01*
X318769Y121201D01*
X319098Y121478D01*
X319433Y121746D01*
X319775Y122006D01*
X320123Y122258D01*
X320478Y122501D01*
X320838Y122735D01*
X321203Y122960D01*
X321574Y123177D01*
X321951Y123384D01*
X322332Y123581D01*
X322718Y123770D01*
X323108Y123949D01*
X323503Y124118D01*
X323902Y124277D01*
X324304Y124427D01*
X324711Y124567D01*
X325120Y124696D01*
X325533Y124816D01*
X325948Y124926D01*
X326366Y125025D01*
X326786Y125114D01*
X327208Y125192D01*
X327632Y125261D01*
X328058Y125318D01*
X328485Y125366D01*
X328913Y125403D01*
X329341Y125429D01*
X329771Y125445D01*
X330200Y125450D01*
X330629Y125445D01*
X331059Y125429D01*
X331487Y125403D01*
X331915Y125366D01*
X332342Y125318D01*
X332768Y125261D01*
X333192Y125192D01*
X333614Y125114D01*
X334034Y125025D01*
X334452Y124926D01*
X334867Y124816D01*
X335280Y124696D01*
X335689Y124567D01*
X336096Y124427D01*
X336498Y124277D01*
X336897Y124118D01*
X337292Y123949D01*
X337682Y123770D01*
X338068Y123581D01*
X338449Y123384D01*
X338826Y123177D01*
X339197Y122960D01*
X339562Y122735D01*
X339922Y122501D01*
X340277Y122258D01*
X340625Y122006D01*
X340967Y121746D01*
X341302Y121478D01*
X341631Y121201D01*
X341952Y120917D01*
X342267Y120624D01*
X342574Y120324D01*
X342874Y120017D01*
X343167Y119702D01*
X343451Y119381D01*
X343728Y119052D01*
X343996Y118717D01*
X344256Y118375D01*
X344508Y118027D01*
X344751Y117672D01*
X344985Y117312D01*
X345210Y116947D01*
X345427Y116576D01*
X345634Y116199D01*
X345831Y115818D01*
X346020Y115432D01*
X346199Y115042D01*
X346368Y114647D01*
X346527Y114248D01*
X346677Y113846D01*
X346817Y113439D01*
X346946Y113030D01*
X347066Y112617D01*
X347176Y112202D01*
X347275Y111784D01*
X347364Y111364D01*
X347442Y110942D01*
X347511Y110518D01*
X347568Y110092D01*
X347616Y109665D01*
X347653Y109237D01*
X347679Y108809D01*
X347695Y108379D01*
X347700Y107950D01*
X347695Y107521D01*
X347679Y107091D01*
X347653Y106663D01*
X347616Y106235D01*
X347568Y105808D01*
X347511Y105382D01*
X347442Y104958D01*
X347364Y104536D01*
X347275Y104116D01*
X347176Y103698D01*
X347066Y103283D01*
X346946Y102870D01*
X346817Y102461D01*
X346677Y102054D01*
X346527Y101652D01*
X346368Y101253D01*
X346199Y100858D01*
X346020Y100468D01*
X345831Y100082D01*
X345634Y99701D01*
X345427Y99324D01*
X345210Y98953D01*
X344985Y98588D01*
X344751Y98228D01*
X344508Y97873D01*
X344256Y97525D01*
X343996Y97183D01*
X343728Y96848D01*
X343451Y96519D01*
X343167Y96198D01*
X342874Y95883D01*
X342574Y95576D01*
X342267Y95276D01*
X341952Y94983D01*
X341631Y94699D01*
X341302Y94422D01*
X340967Y94154D01*
X340625Y93894D01*
X340277Y93642D01*
X339922Y93399D01*
X339562Y93165D01*
X339197Y92940D01*
X338826Y92723D01*
X338449Y92516D01*
X338068Y92319D01*
X337682Y92130D01*
X337292Y91951D01*
X336897Y91782D01*
X336498Y91623D01*
X336096Y91473D01*
X335689Y91333D01*
X335280Y91204D01*
X334867Y91084D01*
X334452Y90974D01*
X334034Y90875D01*
X333614Y90786D01*
X333192Y90708D01*
X332768Y90639D01*
X332342Y90582D01*
X331915Y90534D01*
X331487Y90497D01*
X331059Y90471D01*
X330629Y90455D01*
X330200Y90450D01*
X329771Y90455D01*
X329341Y90471D01*
X328913Y90497D01*
X328485Y90534D01*
X328058Y90582D01*
X327632Y90639D01*
X327208Y90708D01*
X326786Y90786D01*
X326366Y90875D01*
X325948Y90974D01*
X325533Y91084D01*
X325120Y91204D01*
X324711Y91333D01*
X324304Y91473D01*
X323902Y91623D01*
X323503Y91782D01*
X323108Y91951D01*
X322718Y92130D01*
X322332Y92319D01*
X321951Y92516D01*
X321574Y92723D01*
X321203Y92940D01*
X320838Y93165D01*
X320478Y93399D01*
X320123Y93642D01*
X319775Y93894D01*
X319433Y94154D01*
X319098Y94422D01*
X318769Y94699D01*
X318448Y94983D01*
X318133Y95276D01*
X317826Y95576D01*
X317526Y95883D01*
X317233Y96198D01*
X316949Y96519D01*
X316672Y96848D01*
X316404Y97183D01*
X316144Y97525D01*
X315892Y97873D01*
X315649Y98228D01*
X315415Y98588D01*
X315190Y98953D01*
X314973Y99324D01*
X314766Y99701D01*
X314569Y100082D01*
X314380Y100468D01*
X314201Y100858D01*
X314032Y101253D01*
X313873Y101652D01*
X313723Y102054D01*
X313583Y102461D01*
X313454Y102870D01*
X313334Y103283D01*
X313224Y103698D01*
X313125Y104116D01*
X313036Y104536D01*
X312958Y104958D01*
X312889Y105382D01*
X312832Y105808D01*
X312784Y106235D01*
X312747Y106663D01*
X312721Y107091D01*
X312705Y107521D01*
X312700Y107950D01*
X223800Y596900D02*
X223805Y597329D01*
X223821Y597759D01*
X223847Y598187D01*
X223884Y598615D01*
X223932Y599042D01*
X223989Y599468D01*
X224058Y599892D01*
X224136Y600314D01*
X224225Y600734D01*
X224324Y601152D01*
X224434Y601567D01*
X224554Y601980D01*
X224683Y602389D01*
X224823Y602796D01*
X224973Y603198D01*
X225132Y603597D01*
X225301Y603992D01*
X225480Y604382D01*
X225669Y604768D01*
X225866Y605149D01*
X226073Y605526D01*
X226290Y605897D01*
X226515Y606262D01*
X226749Y606622D01*
X226992Y606977D01*
X227244Y607325D01*
X227504Y607667D01*
X227772Y608002D01*
X228049Y608331D01*
X228333Y608652D01*
X228626Y608967D01*
X228926Y609274D01*
X229233Y609574D01*
X229548Y609867D01*
X229869Y610151D01*
X230198Y610428D01*
X230533Y610696D01*
X230875Y610956D01*
X231223Y611208D01*
X231578Y611451D01*
X231938Y611685D01*
X232303Y611910D01*
X232674Y612127D01*
X233051Y612334D01*
X233432Y612531D01*
X233818Y612720D01*
X234208Y612899D01*
X234603Y613068D01*
X235002Y613227D01*
X235404Y613377D01*
X235811Y613517D01*
X236220Y613646D01*
X236633Y613766D01*
X237048Y613876D01*
X237466Y613975D01*
X237886Y614064D01*
X238308Y614142D01*
X238732Y614211D01*
X239158Y614268D01*
X239585Y614316D01*
X240013Y614353D01*
X240441Y614379D01*
X240871Y614395D01*
X241300Y614400D01*
X241729Y614395D01*
X242159Y614379D01*
X242587Y614353D01*
X243015Y614316D01*
X243442Y614268D01*
X243868Y614211D01*
X244292Y614142D01*
X244714Y614064D01*
X245134Y613975D01*
X245552Y613876D01*
X245967Y613766D01*
X246380Y613646D01*
X246789Y613517D01*
X247196Y613377D01*
X247598Y613227D01*
X247997Y613068D01*
X248392Y612899D01*
X248782Y612720D01*
X249168Y612531D01*
X249549Y612334D01*
X249926Y612127D01*
X250297Y611910D01*
X250662Y611685D01*
X251022Y611451D01*
X251377Y611208D01*
X251725Y610956D01*
X252067Y610696D01*
X252402Y610428D01*
X252731Y610151D01*
X253052Y609867D01*
X253367Y609574D01*
X253674Y609274D01*
X253974Y608967D01*
X254267Y608652D01*
X254551Y608331D01*
X254828Y608002D01*
X255096Y607667D01*
X255356Y607325D01*
X255608Y606977D01*
X255851Y606622D01*
X256085Y606262D01*
X256310Y605897D01*
X256527Y605526D01*
X256734Y605149D01*
X256931Y604768D01*
X257120Y604382D01*
X257299Y603992D01*
X257468Y603597D01*
X257627Y603198D01*
X257777Y602796D01*
X257917Y602389D01*
X258046Y601980D01*
X258166Y601567D01*
X258276Y601152D01*
X258375Y600734D01*
X258464Y600314D01*
X258542Y599892D01*
X258611Y599468D01*
X258668Y599042D01*
X258716Y598615D01*
X258753Y598187D01*
X258779Y597759D01*
X258795Y597329D01*
X258800Y596900D01*
X258795Y596471D01*
X258779Y596041D01*
X258753Y595613D01*
X258716Y595185D01*
X258668Y594758D01*
X258611Y594332D01*
X258542Y593908D01*
X258464Y593486D01*
X258375Y593066D01*
X258276Y592648D01*
X258166Y592233D01*
X258046Y591820D01*
X257917Y591411D01*
X257777Y591004D01*
X257627Y590602D01*
X257468Y590203D01*
X257299Y589808D01*
X257120Y589418D01*
X256931Y589032D01*
X256734Y588651D01*
X256527Y588274D01*
X256310Y587903D01*
X256085Y587538D01*
X255851Y587178D01*
X255608Y586823D01*
X255356Y586475D01*
X255096Y586133D01*
X254828Y585798D01*
X254551Y585469D01*
X254267Y585148D01*
X253974Y584833D01*
X253674Y584526D01*
X253367Y584226D01*
X253052Y583933D01*
X252731Y583649D01*
X252402Y583372D01*
X252067Y583104D01*
X251725Y582844D01*
X251377Y582592D01*
X251022Y582349D01*
X250662Y582115D01*
X250297Y581890D01*
X249926Y581673D01*
X249549Y581466D01*
X249168Y581269D01*
X248782Y581080D01*
X248392Y580901D01*
X247997Y580732D01*
X247598Y580573D01*
X247196Y580423D01*
X246789Y580283D01*
X246380Y580154D01*
X245967Y580034D01*
X245552Y579924D01*
X245134Y579825D01*
X244714Y579736D01*
X244292Y579658D01*
X243868Y579589D01*
X243442Y579532D01*
X243015Y579484D01*
X242587Y579447D01*
X242159Y579421D01*
X241729Y579405D01*
X241300Y579400D01*
X240871Y579405D01*
X240441Y579421D01*
X240013Y579447D01*
X239585Y579484D01*
X239158Y579532D01*
X238732Y579589D01*
X238308Y579658D01*
X237886Y579736D01*
X237466Y579825D01*
X237048Y579924D01*
X236633Y580034D01*
X236220Y580154D01*
X235811Y580283D01*
X235404Y580423D01*
X235002Y580573D01*
X234603Y580732D01*
X234208Y580901D01*
X233818Y581080D01*
X233432Y581269D01*
X233051Y581466D01*
X232674Y581673D01*
X232303Y581890D01*
X231938Y582115D01*
X231578Y582349D01*
X231223Y582592D01*
X230875Y582844D01*
X230533Y583104D01*
X230198Y583372D01*
X229869Y583649D01*
X229548Y583933D01*
X229233Y584226D01*
X228926Y584526D01*
X228626Y584833D01*
X228333Y585148D01*
X228049Y585469D01*
X227772Y585798D01*
X227504Y586133D01*
X227244Y586475D01*
X226992Y586823D01*
X226749Y587178D01*
X226515Y587538D01*
X226290Y587903D01*
X226073Y588274D01*
X225866Y588651D01*
X225669Y589032D01*
X225480Y589418D01*
X225301Y589808D01*
X225132Y590203D01*
X224973Y590602D01*
X224823Y591004D01*
X224683Y591411D01*
X224554Y591820D01*
X224434Y592233D01*
X224324Y592648D01*
X224225Y593066D01*
X224136Y593486D01*
X224058Y593908D01*
X223989Y594332D01*
X223932Y594758D01*
X223884Y595185D01*
X223847Y595613D01*
X223821Y596041D01*
X223805Y596471D01*
X223800Y596900D01*
M02*
