G04 EAGLE Gerber RS-274X export*
G75*
%MOMM*%
%FSLAX34Y34*%
%LPD*%
%INBottom Layer*%
%IPPOS*%
%AMOC8*
5,1,8,0,0,1.08239X$1,22.5*%
G01*
%ADD10C,0.000000*%
%ADD11C,0.304800*%
%ADD12P,1.649562X8X22.500000*%
%ADD13P,1.649562X8X112.500000*%
%ADD14C,1.508000*%
%ADD15C,1.320800*%
%ADD16C,0.756400*%

G36*
X222376Y500141D02*
X222376Y500141D01*
X222502Y500148D01*
X222548Y500161D01*
X222596Y500167D01*
X222715Y500209D01*
X222837Y500244D01*
X222879Y500268D01*
X222924Y500284D01*
X223031Y500353D01*
X223141Y500414D01*
X223187Y500454D01*
X223217Y500473D01*
X223251Y500508D01*
X223327Y500573D01*
X261427Y538673D01*
X261492Y538755D01*
X261541Y538805D01*
X261550Y538822D01*
X261590Y538866D01*
X261614Y538908D01*
X261644Y538946D01*
X261698Y539060D01*
X261759Y539171D01*
X261772Y539217D01*
X261793Y539261D01*
X261819Y539384D01*
X261854Y539506D01*
X261859Y539567D01*
X261866Y539602D01*
X261865Y539650D01*
X261873Y539750D01*
X261873Y574678D01*
X261862Y574777D01*
X261860Y574878D01*
X261842Y574950D01*
X261833Y575024D01*
X261800Y575118D01*
X261775Y575216D01*
X261741Y575282D01*
X261716Y575352D01*
X261661Y575436D01*
X261615Y575526D01*
X261567Y575582D01*
X261527Y575645D01*
X261455Y575715D01*
X261390Y575791D01*
X261330Y575835D01*
X261276Y575887D01*
X261190Y575938D01*
X261109Y575998D01*
X261041Y576028D01*
X260977Y576066D01*
X260881Y576096D01*
X260789Y576136D01*
X260716Y576149D01*
X260645Y576172D01*
X260545Y576180D01*
X260446Y576198D01*
X260372Y576194D01*
X260298Y576200D01*
X260198Y576185D01*
X260098Y576180D01*
X260027Y576159D01*
X259953Y576148D01*
X259860Y576111D01*
X259763Y576083D01*
X259698Y576047D01*
X259629Y576020D01*
X259547Y575962D01*
X259459Y575913D01*
X259383Y575848D01*
X259343Y575821D01*
X259319Y575794D01*
X259273Y575755D01*
X258284Y574766D01*
X251977Y571124D01*
X244942Y569239D01*
X237658Y569239D01*
X230623Y571124D01*
X224316Y574766D01*
X219166Y579916D01*
X215524Y586223D01*
X213639Y593258D01*
X213639Y600542D01*
X215524Y607577D01*
X216253Y608838D01*
X216283Y608908D01*
X216322Y608973D01*
X216352Y609067D01*
X216391Y609158D01*
X216405Y609233D01*
X216428Y609305D01*
X216436Y609404D01*
X216454Y609501D01*
X216450Y609577D01*
X216456Y609652D01*
X216441Y609750D01*
X216436Y609849D01*
X216415Y609922D01*
X216404Y609997D01*
X216368Y610089D01*
X216340Y610184D01*
X216304Y610250D01*
X216276Y610321D01*
X216219Y610402D01*
X216171Y610489D01*
X216120Y610545D01*
X216077Y610607D01*
X216003Y610673D01*
X215936Y610747D01*
X215874Y610790D01*
X215818Y610840D01*
X215731Y610888D01*
X215650Y610945D01*
X215579Y610972D01*
X215513Y611009D01*
X215417Y611036D01*
X215325Y611072D01*
X215250Y611083D01*
X215177Y611104D01*
X215027Y611116D01*
X214980Y611123D01*
X214962Y611121D01*
X214934Y611123D01*
X114300Y611123D01*
X114274Y611120D01*
X114248Y611122D01*
X114101Y611100D01*
X113954Y611083D01*
X113929Y611075D01*
X113903Y611071D01*
X113765Y611016D01*
X113626Y610966D01*
X113604Y610952D01*
X113579Y610942D01*
X113458Y610857D01*
X113333Y610777D01*
X113315Y610758D01*
X113293Y610743D01*
X113194Y610633D01*
X113091Y610526D01*
X113077Y610504D01*
X113060Y610484D01*
X112988Y610354D01*
X112912Y610227D01*
X112904Y610202D01*
X112891Y610179D01*
X112851Y610036D01*
X112806Y609895D01*
X112804Y609869D01*
X112796Y609844D01*
X112777Y609600D01*
X112777Y549272D01*
X112791Y549147D01*
X112798Y549021D01*
X112811Y548974D01*
X112817Y548926D01*
X112859Y548807D01*
X112894Y548686D01*
X112918Y548644D01*
X112934Y548598D01*
X113003Y548492D01*
X113064Y548382D01*
X113104Y548335D01*
X113123Y548305D01*
X113158Y548272D01*
X113223Y548195D01*
X117384Y544034D01*
X121026Y537727D01*
X122911Y530692D01*
X122911Y523408D01*
X121026Y516373D01*
X117384Y510066D01*
X113223Y505905D01*
X113144Y505806D01*
X113060Y505712D01*
X113036Y505670D01*
X113006Y505632D01*
X112952Y505518D01*
X112891Y505407D01*
X112878Y505360D01*
X112857Y505317D01*
X112831Y505193D01*
X112796Y505071D01*
X112792Y505011D01*
X112784Y504976D01*
X112785Y504928D01*
X112777Y504828D01*
X112777Y501650D01*
X112780Y501624D01*
X112778Y501598D01*
X112800Y501451D01*
X112817Y501304D01*
X112825Y501279D01*
X112829Y501253D01*
X112884Y501115D01*
X112934Y500976D01*
X112948Y500954D01*
X112958Y500929D01*
X113043Y500808D01*
X113123Y500683D01*
X113142Y500665D01*
X113157Y500643D01*
X113267Y500544D01*
X113374Y500441D01*
X113396Y500427D01*
X113416Y500410D01*
X113546Y500338D01*
X113673Y500262D01*
X113698Y500254D01*
X113721Y500241D01*
X113864Y500201D01*
X114005Y500156D01*
X114031Y500154D01*
X114056Y500146D01*
X114300Y500127D01*
X222250Y500127D01*
X222376Y500141D01*
G37*
G36*
X285840Y119904D02*
X285840Y119904D01*
X285931Y119911D01*
X285961Y119923D01*
X285993Y119929D01*
X286073Y119971D01*
X286157Y120007D01*
X286189Y120033D01*
X286210Y120044D01*
X286232Y120067D01*
X286288Y120112D01*
X298988Y132812D01*
X299041Y132886D01*
X299101Y132955D01*
X299113Y132985D01*
X299132Y133011D01*
X299159Y133098D01*
X299193Y133183D01*
X299197Y133224D01*
X299204Y133247D01*
X299203Y133279D01*
X299211Y133350D01*
X299211Y274066D01*
X299208Y274086D01*
X299210Y274105D01*
X299188Y274207D01*
X299172Y274309D01*
X299162Y274326D01*
X299158Y274346D01*
X299105Y274435D01*
X299056Y274526D01*
X299042Y274540D01*
X299032Y274557D01*
X298953Y274624D01*
X298878Y274696D01*
X298860Y274704D01*
X298845Y274717D01*
X298749Y274756D01*
X298655Y274799D01*
X298635Y274801D01*
X298617Y274809D01*
X298450Y274827D01*
X271156Y274827D01*
X268254Y277729D01*
X266045Y279938D01*
X265971Y279991D01*
X265901Y280051D01*
X265871Y280063D01*
X265845Y280082D01*
X265758Y280109D01*
X265673Y280143D01*
X265632Y280147D01*
X265610Y280154D01*
X265578Y280153D01*
X265507Y280161D01*
X229793Y280161D01*
X229703Y280147D01*
X229612Y280139D01*
X229583Y280127D01*
X229551Y280122D01*
X229470Y280079D01*
X229386Y280043D01*
X229354Y280017D01*
X229333Y280006D01*
X229311Y279983D01*
X229255Y279938D01*
X214346Y265029D01*
X214298Y264963D01*
X214290Y264954D01*
X214288Y264949D01*
X214233Y264885D01*
X214221Y264855D01*
X214202Y264829D01*
X214175Y264742D01*
X214141Y264657D01*
X214137Y264616D01*
X214130Y264594D01*
X214131Y264562D01*
X214123Y264491D01*
X214123Y120650D01*
X214126Y120630D01*
X214124Y120611D01*
X214146Y120509D01*
X214162Y120407D01*
X214172Y120390D01*
X214176Y120370D01*
X214229Y120281D01*
X214278Y120190D01*
X214292Y120176D01*
X214302Y120159D01*
X214381Y120092D01*
X214456Y120021D01*
X214474Y120012D01*
X214489Y119999D01*
X214585Y119960D01*
X214679Y119917D01*
X214699Y119915D01*
X214717Y119907D01*
X214884Y119889D01*
X285750Y119889D01*
X285840Y119904D01*
G37*
%LPC*%
G36*
X156830Y561847D02*
X156830Y561847D01*
X153282Y563317D01*
X150567Y566032D01*
X149097Y569580D01*
X149097Y573420D01*
X150567Y576968D01*
X153282Y579683D01*
X156830Y581153D01*
X160670Y581153D01*
X164218Y579683D01*
X166933Y576968D01*
X168403Y573420D01*
X168403Y569580D01*
X166933Y566032D01*
X164218Y563317D01*
X160670Y561847D01*
X156830Y561847D01*
G37*
%LPD*%
%LPC*%
G36*
X156830Y536447D02*
X156830Y536447D01*
X153282Y537917D01*
X150567Y540632D01*
X149097Y544180D01*
X149097Y548020D01*
X150567Y551568D01*
X153282Y554283D01*
X156830Y555753D01*
X160670Y555753D01*
X164218Y554283D01*
X166933Y551568D01*
X168403Y548020D01*
X168403Y544180D01*
X166933Y540632D01*
X164218Y537917D01*
X160670Y536447D01*
X156830Y536447D01*
G37*
%LPD*%
D10*
X0Y0D02*
X352300Y0D01*
D11*
X352300Y641250D01*
X0Y641250D01*
X0Y0D01*
D12*
X120650Y114300D03*
X25400Y95250D03*
D13*
X292100Y298450D03*
X266700Y298450D03*
X292100Y323850D03*
X266700Y323850D03*
X292100Y349250D03*
X266700Y349250D03*
D12*
X38100Y381000D03*
X50800Y95250D03*
D14*
X50800Y51990D02*
X50800Y36910D01*
X25400Y36910D02*
X25400Y51990D01*
X30560Y323850D02*
X45640Y323850D01*
X45640Y349250D02*
X30560Y349250D01*
D15*
X158750Y571500D03*
X158750Y546100D03*
D14*
X297260Y412750D02*
X312340Y412750D01*
X312340Y438150D02*
X297260Y438150D01*
X297260Y463550D02*
X312340Y463550D01*
X312340Y488950D02*
X297260Y488950D01*
X297260Y514350D02*
X312340Y514350D01*
X312340Y539750D02*
X297260Y539750D01*
X297260Y565150D02*
X312340Y565150D01*
X312340Y590550D02*
X297260Y590550D01*
D15*
X24638Y613156D03*
X89662Y613156D03*
X89662Y567944D03*
X24638Y567944D03*
D11*
X50800Y44450D02*
X50800Y25400D01*
X63500Y12700D01*
X114300Y12700D01*
X114300Y13942D01*
D16*
X114300Y13942D03*
D11*
X95250Y482600D02*
X190500Y482600D01*
X95250Y482600D02*
X82550Y469900D01*
D16*
X190500Y482600D03*
X82550Y469900D03*
D11*
X190500Y482600D02*
X190500Y501650D01*
X196850Y508000D01*
D16*
X203200Y527050D03*
X203200Y590550D03*
D11*
X266700Y298450D02*
X266700Y285750D01*
X273050Y279400D01*
D16*
X304800Y279400D03*
D11*
X273050Y279400D01*
D16*
X107950Y177800D03*
X101600Y304800D03*
D11*
X101600Y381000D01*
X127000Y406400D01*
D16*
X127000Y406400D03*
D11*
X101600Y304800D02*
X101600Y184150D01*
X107950Y177800D01*
D16*
X196850Y387350D03*
D11*
X177800Y406400D02*
X127000Y406400D01*
X177800Y406400D02*
X196850Y387350D01*
X107950Y127000D02*
X120650Y114300D01*
X107950Y127000D02*
X107950Y177800D01*
X120650Y114300D02*
X158750Y76200D01*
X241300Y76200D01*
X247650Y82550D01*
D16*
X247650Y82550D03*
X266700Y400050D03*
D11*
X266700Y419100D01*
X285750Y438150D01*
X304800Y438150D01*
D16*
X127000Y285750D03*
D11*
X209550Y285750D01*
D16*
X209550Y285750D03*
X165805Y183445D03*
D11*
X177095Y183445D01*
X196850Y203200D01*
D16*
X196850Y203200D03*
X165100Y171450D03*
X198854Y165100D03*
D11*
X192504Y171450D01*
X165100Y171450D01*
D16*
X209550Y298450D03*
D11*
X234950Y323850D01*
X266700Y323850D01*
X285750Y514350D02*
X304800Y514350D01*
D16*
X196850Y323850D03*
D11*
X228600Y355600D02*
X228600Y457200D01*
X285750Y514350D01*
X228600Y355600D02*
X196850Y323850D01*
X285750Y463550D02*
X304800Y463550D01*
D16*
X184150Y298450D03*
D11*
X196850Y298450D01*
X241300Y342900D02*
X241300Y419100D01*
X241300Y342900D02*
X196850Y298450D01*
X241300Y419100D02*
X285750Y463550D01*
X285750Y488950D02*
X304800Y488950D01*
X234950Y349250D02*
X196850Y311150D01*
X184150Y311150D01*
D16*
X184150Y311150D03*
D11*
X234950Y438150D02*
X285750Y488950D01*
X234950Y438150D02*
X234950Y349250D01*
X285750Y590550D02*
X304800Y590550D01*
D16*
X203200Y368300D03*
D11*
X279400Y584200D02*
X285750Y590550D01*
X279400Y584200D02*
X279400Y571500D01*
X273050Y565150D01*
X273050Y552450D01*
X266700Y546100D01*
X266700Y533400D01*
X209550Y476250D01*
X209550Y374650D01*
X203200Y368300D01*
D16*
X82550Y190500D03*
D11*
X76200Y196850D02*
X76200Y342900D01*
X76200Y196850D02*
X82550Y190500D01*
X76200Y342900D02*
X38100Y381000D01*
X285750Y539750D02*
X304800Y539750D01*
D16*
X158750Y317500D03*
D11*
X177800Y317500D01*
X279400Y533400D02*
X285750Y539750D01*
X279400Y533400D02*
X279400Y520700D01*
X222250Y463550D01*
X222250Y361950D01*
X177800Y317500D01*
X285750Y565150D02*
X304800Y565150D01*
D16*
X146050Y330200D03*
D11*
X177800Y330200D01*
X215900Y368300D02*
X215900Y469900D01*
X273050Y527050D01*
X273050Y539750D01*
X279400Y546100D01*
X279400Y558800D01*
X285750Y565150D01*
X215900Y368300D02*
X177800Y330200D01*
D16*
X63500Y292100D03*
D11*
X44450Y292100D01*
X12700Y323850D01*
X12700Y527050D01*
X44450Y558800D01*
D16*
X44450Y558800D03*
X241300Y146050D03*
X241300Y247650D03*
D11*
X234950Y101600D02*
X279400Y101600D01*
X317500Y393700D02*
X304800Y406400D01*
X304800Y412750D01*
X317500Y393700D02*
X317500Y139700D01*
X279400Y101600D01*
D16*
X234950Y101600D03*
X133350Y323850D03*
X133350Y393700D03*
D11*
X133350Y323850D01*
X114300Y317500D02*
X114300Y184150D01*
D16*
X196850Y88900D03*
D11*
X184150Y88900D01*
X120650Y152400D02*
X120650Y177800D01*
X114300Y184150D01*
D16*
X114300Y317500D03*
D11*
X120650Y152400D02*
X184150Y88900D01*
X19050Y393700D02*
X57150Y431800D01*
X19050Y393700D02*
X19050Y381000D01*
X38100Y361950D01*
X38100Y349250D01*
X57150Y431800D02*
X57150Y535432D01*
X89662Y567944D01*
D16*
X260350Y63500D03*
D11*
X234950Y38100D01*
X165100Y38100D01*
X76200Y127000D01*
D16*
X76200Y127000D03*
X63500Y127000D03*
D11*
X171450Y19050D01*
D16*
X247650Y19050D03*
D11*
X171450Y19050D01*
D16*
X190500Y101600D03*
D11*
X209550Y120650D01*
X209550Y266700D01*
X254000Y311150D01*
X273050Y311150D02*
X279400Y317500D01*
X279400Y342900D01*
X273050Y349250D01*
X266700Y349250D01*
X273050Y311150D02*
X254000Y311150D01*
M02*
