G04 EAGLE Gerber RS-274X export*
G75*
%MOMM*%
%FSLAX34Y34*%
%LPD*%
%INSolderstop Bottom*%
%IPPOS*%
%AMOC8*
5,1,8,0,0,1.08239X$1,22.5*%
G01*
%ADD10C,0.000000*%
%ADD11C,3.703200*%
%ADD12P,1.869504X8X22.500000*%
%ADD13P,1.869504X8X202.500000*%
%ADD14P,1.869504X8X292.500000*%
%ADD15C,1.711200*%
%ADD16C,4.013200*%
%ADD17C,5.283200*%
%ADD18C,0.959600*%


D10*
X0Y0D02*
X542800Y0D01*
X542800Y571400D01*
X0Y571400D01*
X0Y0D01*
D11*
X495300Y44450D03*
X495300Y444500D03*
X31750Y546100D03*
X152400Y222250D03*
D12*
X152400Y444500D03*
X419100Y38100D03*
D13*
X317500Y209550D03*
D14*
X38100Y501650D03*
X63500Y501650D03*
X38100Y476250D03*
X63500Y476250D03*
X38100Y450850D03*
X63500Y450850D03*
D12*
X254000Y101600D03*
D15*
X234950Y58340D02*
X234950Y43260D01*
X209550Y43260D02*
X209550Y58340D01*
X184150Y58340D02*
X184150Y43260D01*
X158750Y43260D02*
X158750Y58340D01*
X133350Y58340D02*
X133350Y43260D01*
X107950Y43260D02*
X107950Y58340D01*
X82550Y58340D02*
X82550Y43260D01*
X57150Y43260D02*
X57150Y58340D01*
X31750Y58340D02*
X31750Y43260D01*
D16*
X317500Y101600D03*
X368300Y127000D03*
D17*
X317500Y158750D03*
D15*
X330200Y513160D02*
X330200Y528240D01*
X355600Y528240D02*
X355600Y513160D01*
X381000Y513160D02*
X381000Y528240D01*
X406400Y528240D02*
X406400Y513160D01*
X431800Y513160D02*
X431800Y528240D01*
X457200Y528240D02*
X457200Y513160D01*
X482600Y513160D02*
X482600Y528240D01*
X508000Y528240D02*
X508000Y513160D01*
X58340Y215900D02*
X43260Y215900D01*
X43260Y241300D02*
X58340Y241300D01*
X58340Y266700D02*
X43260Y266700D01*
X43260Y292100D02*
X58340Y292100D01*
X58340Y317500D02*
X43260Y317500D01*
X43260Y342900D02*
X58340Y342900D01*
X58340Y368300D02*
X43260Y368300D01*
X43260Y393700D02*
X58340Y393700D01*
X58340Y114300D02*
X43260Y114300D01*
X43260Y139700D02*
X58340Y139700D01*
X58340Y165100D02*
X43260Y165100D01*
X43260Y190500D02*
X58340Y190500D01*
D18*
X450850Y381000D03*
X450850Y279400D03*
X520700Y184150D03*
X228600Y139700D03*
X311150Y431800D03*
X311150Y323850D03*
X311150Y349250D03*
X292100Y552450D03*
X292100Y425450D03*
X298450Y361950D03*
X431800Y419100D03*
X323850Y374650D03*
X190500Y222250D03*
X292100Y323850D03*
X215900Y222250D03*
X279400Y311150D03*
X273050Y247650D03*
X260350Y247650D03*
X260350Y260350D03*
X139700Y254000D03*
X139700Y273050D03*
X209550Y304800D03*
X190500Y317500D03*
X196850Y330200D03*
X196850Y349250D03*
M02*
