G04 EAGLE Gerber RS-274X export*
G75*
%MOMM*%
%FSLAX34Y34*%
%LPD*%
%INSolderstop Top*%
%IPPOS*%
%AMOC8*
5,1,8,0,0,1.08239X$1,22.5*%
G01*
%ADD10C,0.000000*%
%ADD11C,3.703200*%
%ADD12P,1.869504X8X22.500000*%
%ADD13P,1.869504X8X202.500000*%
%ADD14P,1.869504X8X292.500000*%
%ADD15R,1.703200X1.503200*%
%ADD16R,1.625600X1.320800*%
%ADD17R,1.320800X1.625600*%
%ADD18R,2.743200X2.743200*%
%ADD19R,4.394200X5.029200*%
%ADD20R,3.200400X1.803400*%
%ADD21R,5.029200X4.394200*%
%ADD22R,1.803400X3.200400*%
%ADD23R,0.503200X1.678200*%
%ADD24R,1.678200X0.503200*%
%ADD25R,1.403200X1.403200*%
%ADD26R,2.133600X5.537200*%
%ADD27R,1.503200X1.703200*%
%ADD28C,1.711200*%
%ADD29C,4.013200*%
%ADD30C,5.283200*%
%ADD31R,2.003200X1.603200*%
%ADD32C,0.959600*%


D10*
X0Y0D02*
X542800Y0D01*
X542800Y571400D01*
X0Y571400D01*
X0Y0D01*
D11*
X495300Y44450D03*
X495300Y444500D03*
X31750Y546100D03*
X152400Y222250D03*
D12*
X152400Y444500D03*
X419100Y38100D03*
D13*
X317500Y209550D03*
D14*
X38100Y501650D03*
X63500Y501650D03*
X38100Y476250D03*
X63500Y476250D03*
X38100Y450850D03*
X63500Y450850D03*
D15*
X406400Y352450D03*
X406400Y371450D03*
X95250Y492150D03*
X95250Y511150D03*
D16*
X520700Y130175D03*
X520700Y149225D03*
D17*
X238125Y463550D03*
X257175Y463550D03*
D15*
X431800Y365150D03*
X431800Y384150D03*
X431800Y295250D03*
X431800Y276250D03*
D17*
X460375Y209550D03*
X479425Y209550D03*
D15*
X387350Y320650D03*
X387350Y301650D03*
D18*
X412750Y177800D03*
X361950Y177800D03*
D12*
X254000Y101600D03*
D19*
X207772Y508000D03*
D20*
X290576Y530098D03*
X290576Y485394D03*
D21*
X469900Y99822D03*
D22*
X447802Y182626D03*
X492506Y182626D03*
D23*
X254600Y291870D03*
X259600Y291870D03*
X264600Y291870D03*
X269600Y291870D03*
X274600Y291870D03*
X279600Y291870D03*
X284600Y291870D03*
X289600Y291870D03*
X294600Y291870D03*
X299600Y291870D03*
X304600Y291870D03*
X309600Y291870D03*
X314600Y291870D03*
X319600Y291870D03*
X324600Y291870D03*
X329600Y291870D03*
D24*
X349480Y311750D03*
X349480Y316750D03*
X349480Y321750D03*
X349480Y326750D03*
X349480Y331750D03*
X349480Y336750D03*
X349480Y341750D03*
X349480Y346750D03*
X349480Y351750D03*
X349480Y356750D03*
X349480Y361750D03*
X349480Y366750D03*
X349480Y371750D03*
X349480Y376750D03*
X349480Y381750D03*
X349480Y386750D03*
D23*
X329600Y406630D03*
X324600Y406630D03*
X319600Y406630D03*
X314600Y406630D03*
X309600Y406630D03*
X304600Y406630D03*
X299600Y406630D03*
X294600Y406630D03*
X289600Y406630D03*
X284600Y406630D03*
X279600Y406630D03*
X274600Y406630D03*
X269600Y406630D03*
X264600Y406630D03*
X259600Y406630D03*
X254600Y406630D03*
D24*
X234720Y386750D03*
X234720Y381750D03*
X234720Y376750D03*
X234720Y371750D03*
X234720Y366750D03*
X234720Y361750D03*
X234720Y356750D03*
X234720Y351750D03*
X234720Y346750D03*
X234720Y341750D03*
X234720Y336750D03*
X234720Y331750D03*
X234720Y326750D03*
X234720Y321750D03*
X234720Y316750D03*
X234720Y311750D03*
D25*
X190500Y141900D03*
X190500Y162900D03*
X209550Y141900D03*
X209550Y162900D03*
D26*
X476250Y281940D03*
X476250Y378460D03*
D27*
X212700Y101600D03*
X193700Y101600D03*
D15*
X431800Y320700D03*
X431800Y339700D03*
X215900Y187350D03*
X215900Y206350D03*
X190500Y187350D03*
X190500Y206350D03*
D27*
X41300Y425450D03*
X60300Y425450D03*
D15*
X95250Y466700D03*
X95250Y447700D03*
D27*
X168250Y101600D03*
X149250Y101600D03*
X123800Y101600D03*
X104800Y101600D03*
D28*
X234950Y58340D02*
X234950Y43260D01*
X209550Y43260D02*
X209550Y58340D01*
X184150Y58340D02*
X184150Y43260D01*
X158750Y43260D02*
X158750Y58340D01*
X133350Y58340D02*
X133350Y43260D01*
X107950Y43260D02*
X107950Y58340D01*
X82550Y58340D02*
X82550Y43260D01*
X57150Y43260D02*
X57150Y58340D01*
X31750Y58340D02*
X31750Y43260D01*
D29*
X317500Y101600D03*
X368300Y127000D03*
D30*
X317500Y158750D03*
D28*
X330200Y513160D02*
X330200Y528240D01*
X355600Y528240D02*
X355600Y513160D01*
X381000Y513160D02*
X381000Y528240D01*
X406400Y528240D02*
X406400Y513160D01*
X431800Y513160D02*
X431800Y528240D01*
X457200Y528240D02*
X457200Y513160D01*
X482600Y513160D02*
X482600Y528240D01*
X508000Y528240D02*
X508000Y513160D01*
X58340Y215900D02*
X43260Y215900D01*
X43260Y241300D02*
X58340Y241300D01*
X58340Y266700D02*
X43260Y266700D01*
X43260Y292100D02*
X58340Y292100D01*
X58340Y317500D02*
X43260Y317500D01*
X43260Y342900D02*
X58340Y342900D01*
X58340Y368300D02*
X43260Y368300D01*
X43260Y393700D02*
X58340Y393700D01*
X58340Y114300D02*
X43260Y114300D01*
X43260Y139700D02*
X58340Y139700D01*
X58340Y165100D02*
X43260Y165100D01*
X43260Y190500D02*
X58340Y190500D01*
D27*
X98450Y139700D03*
X117450Y139700D03*
X98450Y165100D03*
X117450Y165100D03*
X98450Y190500D03*
X117450Y190500D03*
X98450Y342900D03*
X117450Y342900D03*
X98450Y368300D03*
X117450Y368300D03*
X98450Y393700D03*
X117450Y393700D03*
X98450Y241300D03*
X117450Y241300D03*
X98450Y266700D03*
X117450Y266700D03*
X98450Y292100D03*
X117450Y292100D03*
D31*
X120650Y471950D03*
X120650Y505950D03*
D15*
X146050Y473100D03*
X146050Y492100D03*
D32*
X450850Y381000D03*
X450850Y279400D03*
X520700Y184150D03*
X228600Y139700D03*
X311150Y431800D03*
X311150Y323850D03*
X311150Y349250D03*
X292100Y552450D03*
X292100Y425450D03*
X298450Y361950D03*
X431800Y419100D03*
X323850Y374650D03*
X190500Y222250D03*
X292100Y323850D03*
X215900Y222250D03*
X279400Y311150D03*
X273050Y247650D03*
X260350Y247650D03*
X260350Y260350D03*
X139700Y254000D03*
X139700Y273050D03*
X209550Y304800D03*
X190500Y317500D03*
X196850Y330200D03*
X196850Y349250D03*
M02*
