G04 EAGLE Gerber RS-274X export*
G75*
%MOMM*%
%FSLAX34Y34*%
%LPD*%
%INBottom Layer*%
%IPPOS*%
%AMOC8*
5,1,8,0,0,1.08239X$1,22.5*%
G01*
%ADD10C,0.000000*%
%ADD11P,1.649562X8X22.500000*%
%ADD12P,1.649562X8X202.500000*%
%ADD13P,1.649562X8X292.500000*%
%ADD14C,1.508000*%
%ADD15C,3.810000*%
%ADD16C,5.080000*%
%ADD17C,0.756400*%
%ADD18C,0.508000*%
%ADD19C,0.304800*%
%ADD20C,0.406400*%

G36*
X508026Y252480D02*
X508026Y252480D01*
X508052Y252478D01*
X508199Y252500D01*
X508346Y252517D01*
X508371Y252525D01*
X508397Y252529D01*
X508535Y252584D01*
X508674Y252634D01*
X508696Y252648D01*
X508721Y252658D01*
X508842Y252743D01*
X508967Y252823D01*
X508985Y252842D01*
X509007Y252857D01*
X509106Y252967D01*
X509209Y253074D01*
X509223Y253096D01*
X509240Y253116D01*
X509312Y253246D01*
X509388Y253373D01*
X509396Y253398D01*
X509409Y253421D01*
X509449Y253564D01*
X509494Y253705D01*
X509496Y253731D01*
X509504Y253756D01*
X509523Y254000D01*
X509523Y406400D01*
X509520Y406426D01*
X509522Y406452D01*
X509500Y406599D01*
X509483Y406746D01*
X509475Y406771D01*
X509471Y406797D01*
X509416Y406935D01*
X509366Y407074D01*
X509352Y407096D01*
X509342Y407121D01*
X509257Y407242D01*
X509177Y407367D01*
X509158Y407385D01*
X509143Y407407D01*
X509033Y407506D01*
X508926Y407609D01*
X508904Y407623D01*
X508884Y407640D01*
X508754Y407712D01*
X508627Y407788D01*
X508602Y407796D01*
X508579Y407809D01*
X508436Y407849D01*
X508295Y407894D01*
X508269Y407896D01*
X508244Y407904D01*
X508000Y407923D01*
X425450Y407923D01*
X425424Y407920D01*
X425398Y407922D01*
X425251Y407900D01*
X425104Y407883D01*
X425079Y407875D01*
X425053Y407871D01*
X424915Y407816D01*
X424776Y407766D01*
X424754Y407752D01*
X424729Y407742D01*
X424608Y407657D01*
X424483Y407577D01*
X424465Y407558D01*
X424443Y407543D01*
X424344Y407433D01*
X424241Y407326D01*
X424227Y407304D01*
X424210Y407284D01*
X424138Y407154D01*
X424062Y407027D01*
X424054Y407002D01*
X424041Y406979D01*
X424001Y406836D01*
X423956Y406695D01*
X423954Y406669D01*
X423946Y406644D01*
X423927Y406400D01*
X423927Y254000D01*
X423930Y253974D01*
X423928Y253948D01*
X423950Y253801D01*
X423967Y253654D01*
X423975Y253629D01*
X423979Y253603D01*
X424034Y253465D01*
X424084Y253326D01*
X424098Y253304D01*
X424108Y253279D01*
X424193Y253158D01*
X424273Y253033D01*
X424292Y253015D01*
X424307Y252993D01*
X424417Y252894D01*
X424524Y252791D01*
X424546Y252777D01*
X424566Y252760D01*
X424696Y252688D01*
X424823Y252612D01*
X424848Y252604D01*
X424871Y252591D01*
X425014Y252551D01*
X425155Y252506D01*
X425181Y252504D01*
X425206Y252496D01*
X425450Y252477D01*
X508000Y252477D01*
X508026Y252480D01*
G37*
D10*
X0Y0D02*
X542800Y0D01*
X542800Y571400D01*
X0Y571400D01*
X0Y0D01*
D11*
X152400Y444500D03*
X419100Y38100D03*
D12*
X317500Y209550D03*
D13*
X38100Y501650D03*
X63500Y501650D03*
X38100Y476250D03*
X63500Y476250D03*
X38100Y450850D03*
X63500Y450850D03*
D11*
X254000Y101600D03*
D14*
X234950Y58340D02*
X234950Y43260D01*
X209550Y43260D02*
X209550Y58340D01*
X184150Y58340D02*
X184150Y43260D01*
X158750Y43260D02*
X158750Y58340D01*
X133350Y58340D02*
X133350Y43260D01*
X107950Y43260D02*
X107950Y58340D01*
X82550Y58340D02*
X82550Y43260D01*
X57150Y43260D02*
X57150Y58340D01*
X31750Y58340D02*
X31750Y43260D01*
D15*
X317500Y101600D03*
X368300Y127000D03*
D16*
X317500Y158750D03*
D14*
X330200Y513160D02*
X330200Y528240D01*
X355600Y528240D02*
X355600Y513160D01*
X381000Y513160D02*
X381000Y528240D01*
X406400Y528240D02*
X406400Y513160D01*
X431800Y513160D02*
X431800Y528240D01*
X457200Y528240D02*
X457200Y513160D01*
X482600Y513160D02*
X482600Y528240D01*
X508000Y528240D02*
X508000Y513160D01*
X58340Y215900D02*
X43260Y215900D01*
X43260Y241300D02*
X58340Y241300D01*
X58340Y266700D02*
X43260Y266700D01*
X43260Y292100D02*
X58340Y292100D01*
X58340Y317500D02*
X43260Y317500D01*
X43260Y342900D02*
X58340Y342900D01*
X58340Y368300D02*
X43260Y368300D01*
X43260Y393700D02*
X58340Y393700D01*
X58340Y114300D02*
X43260Y114300D01*
X43260Y139700D02*
X58340Y139700D01*
X58340Y165100D02*
X43260Y165100D01*
X43260Y190500D02*
X58340Y190500D01*
D17*
X450850Y381000D03*
X450850Y279400D03*
D18*
X50800Y114300D02*
X50800Y101600D01*
X82550Y69850D01*
X82550Y31750D02*
X88900Y25400D01*
X153670Y25400D01*
X158750Y25400D01*
X163830Y25400D01*
X228600Y25400D01*
X234950Y31750D01*
X158750Y30480D02*
X153670Y25400D01*
X158750Y30480D02*
X163830Y25400D01*
X368300Y127000D02*
X463550Y127000D01*
X520700Y184150D01*
D17*
X520700Y184150D03*
D18*
X82550Y50800D02*
X82550Y31750D01*
X82550Y50800D02*
X82550Y69850D01*
X158750Y50800D02*
X158750Y25400D01*
X234950Y31750D02*
X234950Y50800D01*
D17*
X228600Y139700D03*
D19*
X234950Y139700D01*
X254000Y120650D01*
X254000Y101600D01*
D17*
X311150Y431800D03*
D18*
X311150Y349250D02*
X311150Y323850D01*
X311150Y349250D02*
X311150Y431800D01*
D17*
X311150Y323850D03*
X311150Y349250D03*
D18*
X311150Y323850D02*
X311150Y254000D01*
X368300Y196850D01*
X368300Y127000D01*
X82550Y501650D02*
X101600Y520700D01*
D20*
X82550Y501650D02*
X63500Y501650D01*
D18*
X101600Y520700D02*
X330200Y520700D01*
D19*
X355600Y520700D02*
X355600Y501650D01*
X349250Y495300D01*
X222250Y495300D01*
X171450Y444500D02*
X152400Y444500D01*
X171450Y444500D02*
X222250Y495300D01*
D18*
X19050Y501650D02*
X19050Y107950D01*
X88900Y552450D02*
X292100Y552450D01*
X19050Y107950D02*
X57150Y69850D01*
D17*
X292100Y552450D03*
D18*
X57150Y69850D02*
X57150Y50800D01*
X19421Y501650D02*
X19050Y501650D01*
X51308Y514858D02*
X88900Y552450D01*
X32629Y514858D02*
X19421Y501650D01*
X32629Y514858D02*
X51308Y514858D01*
D17*
X292100Y425450D03*
D19*
X152400Y425450D01*
X88900Y488950D01*
X44450Y488950D01*
X38100Y495300D01*
X38100Y501650D01*
X63500Y476250D02*
X82550Y476250D01*
X196850Y361950D01*
X298450Y361950D01*
D17*
X298450Y361950D03*
X431800Y419100D03*
D19*
X431800Y520700D01*
D17*
X323850Y374650D03*
D19*
X381000Y431800D01*
X381000Y520700D01*
D17*
X190500Y222250D03*
X292100Y323850D03*
D19*
X190500Y241300D02*
X190500Y222250D01*
X190500Y241300D02*
X273050Y323850D01*
X292100Y323850D01*
D17*
X215900Y222250D03*
D19*
X215900Y247650D01*
X279400Y311150D01*
D17*
X279400Y311150D03*
D19*
X177800Y139700D02*
X50800Y139700D01*
X273050Y234950D02*
X273050Y247650D01*
X273050Y234950D02*
X177800Y139700D01*
D17*
X273050Y247650D03*
D19*
X184150Y165100D02*
X50800Y165100D01*
X260350Y241300D02*
X260350Y247650D01*
X260350Y241300D02*
X184150Y165100D01*
D17*
X260350Y247650D03*
D19*
X196850Y190500D02*
X50800Y190500D01*
X247650Y247650D02*
X260350Y260350D01*
X247650Y247650D02*
X247650Y241300D01*
X196850Y190500D01*
D17*
X260350Y260350D03*
D19*
X127000Y241300D02*
X50800Y241300D01*
X127000Y241300D02*
X139700Y254000D01*
D17*
X139700Y254000D03*
D19*
X133350Y266700D02*
X50800Y266700D01*
X133350Y266700D02*
X139700Y273050D01*
D17*
X139700Y273050D03*
D19*
X196850Y292100D02*
X50800Y292100D01*
X196850Y292100D02*
X209550Y304800D01*
D17*
X209550Y304800D03*
D19*
X165100Y342900D02*
X50800Y342900D01*
X165100Y342900D02*
X190500Y317500D01*
D17*
X190500Y317500D03*
D19*
X158750Y368300D02*
X50800Y368300D01*
X158750Y368300D02*
X196850Y330200D01*
D17*
X196850Y330200D03*
D19*
X152400Y393700D02*
X50800Y393700D01*
X152400Y393700D02*
X196850Y349250D01*
D17*
X196850Y349250D03*
M02*
