M48
;GenerationSoftware,Autodesk,EAGLE,9.6.2*%
;CreationDate,2021-12-09T13:00:26Z*%
FMAT,2
ICI,OFF
METRIC,TZ,000.000
T6C0.350
T5C1.000
T4C1.016
T3C2.540
T2C3.302
T1C3.500
%
G90
M71
T1
X15240Y22225
X3175Y54610
X49530Y44450
X49530Y4445
T2
X31750Y15875
T3
X36830Y12700
X31750Y10160
T4
X6350Y47625
X25400Y10160
X6350Y45085
X3810Y45085
X3810Y47625
X6350Y50165
X3810Y50165
X31750Y20955
X41910Y3810
X15240Y44450
T5
X5080Y19050
X10795Y5080
X5080Y16510
X5080Y13970
X5080Y11430
X5080Y39370
X5080Y36830
X5080Y34290
X5080Y31750
X5080Y29210
X5080Y26670
X5080Y24130
X5080Y21590
X50800Y52070
X48260Y52070
X45720Y52070
X43180Y52070
X40640Y52070
X38100Y52070
X35560Y52070
X33020Y52070
X3175Y5080
X23495Y5080
X20955Y5080
X18415Y5080
X15875Y5080
X13335Y5080
X5715Y5080
X8255Y5080
T6
X26035Y26035
X31115Y43180
X22860Y13970
X52070Y18415
X45085Y27940
X31115Y32385
X31115Y34925
X26035Y24765
X29210Y55245
X29210Y42545
X29845Y36195
X43180Y41910
X32385Y37465
X19050Y22225
X29210Y32385
X21590Y22225
X27940Y31115
X27305Y24765
X19685Y34925
X19685Y33020
X19050Y31750
X20955Y30480
X13970Y27305
X13970Y25400
X45085Y38100
M30